<svg width="28" height="29" viewBox="0 0 28 29" fill="none" xmlns="http://www.w3.org/2000/svg">
<g clip-path="url(#clip0)">
<path d="M13.7771 1.00586C13.7684 1.00586 13.7642 1.00586 13.7554 1.00586C6.53954 1.00586 0.690918 7.0711 0.690918 14.5542C0.690918 22.0283 6.52636 28.0892 13.7337 28.1026H13.7554C20.9713 28.1026 26.82 22.0374 26.82 14.5542C26.82 7.08014 20.9845 1.01931 13.7771 1.00586Z" fill="#E6E9ED"/>
<path d="M22.0293 14.5543C22.0293 19.2933 18.325 23.1349 13.7552 23.1349C9.18533 23.1349 5.48096 19.2933 5.48096 14.5543C5.48096 9.81521 9.18533 5.97363 13.7552 5.97363C18.325 5.97363 22.0293 9.81521 22.0293 14.5543Z" fill="#FCD770"/>
<path d="M13.7554 1.90918L16.0113 5.82926L15.8892 6.26279C15.2056 6.07315 14.4913 5.9737 13.7554 5.9737C13.0195 5.9737 12.3052 6.07315 11.6216 6.26279L11.4995 5.82926L13.7554 1.90918Z" fill="#FF826E"/>
<path d="M22.1688 12.2147L21.7508 12.3413C21.5679 11.6231 21.2936 10.9368 20.9408 10.3044C20.9321 10.291 20.9278 10.2773 20.9191 10.2638C20.9147 10.2548 20.9104 10.2504 20.9059 10.2413C19.8217 8.3039 18.023 6.84961 15.8892 6.2626L16.0112 5.82907L19.8564 3.60254L19.9131 8.16828L24.3158 8.23157L22.1688 12.2147Z" fill="#FF826E"/>
<path d="M25.9491 14.5543L22.169 16.8937L21.751 16.7671C21.9338 16.0582 22.0297 15.3175 22.0297 14.5543C22.0297 13.7911 21.9338 13.0504 21.751 12.3414L22.169 12.2148L25.9491 14.5543Z" fill="#FF826E"/>
<path d="M20.9408 18.8045C21.2936 18.172 21.5679 17.4858 21.7508 16.7676L22.1688 16.8942L24.3158 20.8817L19.9131 20.9406L19.8521 25.5063L16.0112 23.2798L15.8892 22.8463C18.023 22.2593 19.8217 20.805 20.9059 18.8675C20.9104 18.8585 20.9147 18.8541 20.9191 18.845C20.9278 18.8316 20.9321 18.8179 20.9408 18.8045Z" fill="#FF826E"/>
<path d="M15.8892 22.8457L16.0113 23.2792L13.7554 27.1993L11.4995 23.2792L11.6216 22.8457C12.3052 23.0353 13.0195 23.1348 13.7554 23.1348C14.4913 23.1348 15.2056 23.0353 15.8892 22.8457Z" fill="#FF826E"/>
<path d="M7.90683 20.6191C8.91729 21.6712 10.1931 22.4527 11.6216 22.8455L11.4996 23.279L7.65443 25.5055L7.59766 20.9398L7.90683 20.6191Z" fill="#FF826E"/>
<path d="M6.60519 18.8675C6.96221 19.509 7.40216 20.1004 7.90717 20.62L7.598 20.9406L3.19531 20.8773L5.34232 16.8942L5.76037 16.7676C5.94324 17.4858 6.21755 18.172 6.57031 18.8045C6.57903 18.8179 6.58328 18.8316 6.592 18.845C6.59647 18.8541 6.60072 18.8585 6.60519 18.8675Z" fill="#FF826E"/>
<path d="M5.34209 12.2148L5.76014 12.3414C5.57727 13.0504 5.48137 13.7911 5.48137 14.5543C5.48137 15.3175 5.57727 16.0582 5.76014 16.7671L5.34209 16.8937L1.56201 14.5543L5.34209 12.2148Z" fill="#FF826E"/>
<path d="M6.57031 10.3051C6.21755 10.9375 5.94324 11.6237 5.76037 12.342L5.34232 12.2154L3.19531 8.22782L7.598 8.16895L7.90717 8.48957C7.40216 9.0091 6.96221 9.60052 6.60519 10.242C6.60072 10.251 6.59647 10.2554 6.592 10.2645C6.58328 10.2779 6.57903 10.2916 6.57031 10.3051Z" fill="#FF826E"/>
<path d="M11.6216 6.2626C10.1931 6.65534 8.91729 7.43684 7.90683 8.48891L7.59766 8.16828L7.65868 3.60254L11.4996 5.82907L11.6216 6.2626Z" fill="#FF826E"/>
<path d="M17.9055 12.0706C18.2801 12.739 18.5066 13.5069 18.5415 14.3243C19.0203 14.3512 19.5168 14.2339 19.9653 13.9675C21.2022 13.2268 21.6332 11.5965 20.9409 10.3048C20.9322 10.2913 20.9279 10.2776 20.9192 10.2642C20.9147 10.2551 20.9105 10.2507 20.906 10.2417C20.183 8.9636 18.5936 8.53006 17.3524 9.27055C16.9039 9.54156 16.5599 9.92548 16.3379 10.3727C16.9824 10.7972 17.5223 11.3842 17.9055 12.0706Z" fill="#B4DD7F"/>
<path d="M19.9653 15.1418C19.5168 14.8754 19.0203 14.7581 18.5415 14.785C18.5066 15.6025 18.2801 16.3703 17.9055 17.0387C17.5223 17.7251 16.9824 18.3121 16.3379 18.7366C16.5599 19.1838 16.9039 19.5677 17.3524 19.8387C18.5936 20.5792 20.183 20.1457 20.906 18.8676C20.9105 18.8586 20.9147 18.8542 20.9192 18.8451C20.9279 18.8317 20.9322 18.818 20.9409 18.8045C21.6332 17.5128 21.2022 15.8825 19.9653 15.1418Z" fill="#B4DD7F"/>
<path d="M13.7555 19.5223C12.963 19.5223 12.2096 19.3236 11.5519 18.9668C11.295 19.3869 11.1426 19.8881 11.1426 20.4255C11.1426 21.9204 12.314 23.1352 13.7555 23.1352C15.197 23.1352 16.3684 21.9204 16.3684 20.4255C16.3684 19.8881 16.2159 19.3869 15.9591 18.9668C15.3014 19.3236 14.548 19.5223 13.7555 19.5223Z" fill="#B4DD7F"/>
<path d="M9.60515 17.0387C9.23048 16.3703 9.00402 15.6025 8.96915 14.785C8.49029 14.7581 7.99377 14.8754 7.54532 15.1418C6.3084 15.8825 5.87738 17.5128 6.56973 18.8045C6.57845 18.818 6.5827 18.8317 6.59142 18.8451C6.59589 18.8542 6.60014 18.8586 6.60461 18.8676C7.32758 20.1457 8.91705 20.5792 10.1582 19.8387C10.6067 19.5677 10.9507 19.1838 11.1727 18.7366C10.5282 18.3121 9.98833 17.7251 9.60515 17.0387Z" fill="#B4DD7F"/>
<path d="M7.54532 13.9675C7.99377 14.2339 8.49029 14.3512 8.96915 14.3243C9.00402 13.5069 9.23048 12.739 9.60515 12.0706C9.98833 11.3842 10.5282 10.7972 11.1727 10.3727C10.9507 9.92548 10.6067 9.54156 10.1582 9.27055C8.91705 8.53006 7.32758 8.9636 6.60461 10.2417C6.60014 10.2507 6.59589 10.2551 6.59142 10.2642C6.5827 10.2776 6.57845 10.2913 6.56973 10.3048C5.87738 11.5965 6.3084 13.2268 7.54532 13.9675Z" fill="#B4DD7F"/>
<path d="M13.7555 9.58654C14.548 9.58654 15.3014 9.78522 15.9591 10.142C16.2159 9.72193 16.3684 9.2207 16.3684 8.68331C16.3684 7.18844 15.197 5.97363 13.7555 5.97363C12.314 5.97363 11.1426 7.18844 11.1426 8.68331C11.1426 9.2207 11.295 9.72193 11.5519 10.142C12.2096 9.78522 12.963 9.58654 13.7555 9.58654Z" fill="#B4DD7F"/>
<path d="M19.0943 12.4006C18.6762 12.6489 18.1451 12.5045 17.9054 12.0709C17.6617 11.6374 17.8053 11.0863 18.2233 10.838C18.6371 10.5897 19.1727 10.7342 19.4124 11.1677C19.6518 11.6012 19.5081 12.1523 19.0943 12.4006Z" fill="#FF826E"/>
<path d="M19.0943 16.7091C19.5081 16.9574 19.6518 17.5085 19.4124 17.942C19.1727 18.3756 18.6371 18.52 18.2233 18.2717C17.8053 18.0234 17.6617 17.4723 17.9054 17.0388C18.1451 16.6053 18.6762 16.4608 19.0943 16.7091Z" fill="#FF826E"/>
<path d="M14.6262 20.4257C14.6262 20.9245 14.2362 21.3289 13.7552 21.3289C13.2743 21.3289 12.8843 20.9245 12.8843 20.4257C12.8843 19.9269 13.2743 19.5225 13.7552 19.5225C14.2362 19.5225 14.6262 19.9269 14.6262 20.4257Z" fill="#FF826E"/>
<path d="M8.41645 16.7091C8.8345 16.4608 9.36567 16.6053 9.60531 17.0388C9.849 17.4723 9.70547 18.0234 9.28742 18.2717C8.87362 18.52 8.33799 18.3756 8.09834 17.942C7.85891 17.5085 8.00266 16.9574 8.41645 16.7091Z" fill="#FF826E"/>
<path d="M9.60531 12.0709C9.36567 12.5045 8.8345 12.6489 8.41645 12.4006C8.00266 12.1523 7.85891 11.6012 8.09834 11.1677C8.33799 10.7342 8.87362 10.5897 9.28742 10.838C9.70547 11.0863 9.849 11.6374 9.60531 12.0709Z" fill="#FF826E"/>
<path d="M14.6262 8.6835C14.6262 9.1823 14.2362 9.58673 13.7552 9.58673C13.2743 9.58673 12.8843 9.1823 12.8843 8.6835C12.8843 8.1847 13.2743 7.78027 13.7552 7.78027C14.2362 7.78027 14.6262 8.1847 14.6262 8.6835Z" fill="#FF826E"/>
<path d="M18.5412 14.3244C18.5064 13.507 18.2799 12.7392 17.9052 12.0708C17.5221 11.3843 16.9822 10.7973 16.3377 10.3728C16.2156 10.2868 16.0893 10.2101 15.9587 10.1424C15.301 9.7856 14.5477 9.58691 13.7552 9.58691C12.9627 9.58691 12.2093 9.7856 11.5516 10.1424C11.421 10.2101 11.2947 10.2868 11.1727 10.3728C10.5282 10.7973 9.98827 11.3843 9.6051 12.0708C9.23043 12.7392 9.00397 13.507 8.9691 14.3244C8.96484 14.4012 8.96484 14.4779 8.96484 14.5547C8.96484 14.6314 8.96484 14.7081 8.9691 14.7849C9.00397 15.6023 9.23043 16.3701 9.6051 17.0385C9.98827 17.725 10.5282 18.312 11.1727 18.7365C11.2947 18.8225 11.421 18.8992 11.5516 18.9669C12.2093 19.3237 12.9627 19.5224 13.7552 19.5224C14.5477 19.5224 15.301 19.3237 15.9587 18.9669C16.0893 18.8992 16.2156 18.8225 16.3377 18.7365C16.9822 18.312 17.5221 17.725 17.9052 17.0385C18.2799 16.3701 18.5064 15.6023 18.5412 14.7849C18.5455 14.7081 18.5455 14.6314 18.5455 14.5547C18.5455 14.4779 18.5455 14.4012 18.5412 14.3244Z" fill="#FFEAA7"/>
<path d="M14.6262 14.5546C14.6262 15.0534 14.2362 15.4578 13.7552 15.4578C13.2743 15.4578 12.8843 15.0534 12.8843 14.5546C12.8843 14.0558 13.2743 13.6514 13.7552 13.6514C14.2362 13.6514 14.6262 14.0558 14.6262 14.5546Z" fill="#FFC729"/>
<path d="M13.7554 0.554688C6.31174 0.554688 0.255371 6.83471 0.255371 14.5547C0.255371 22.2747 6.31174 28.5547 13.7554 28.5547C21.199 28.5547 27.2554 22.2747 27.2554 14.5547C27.2554 6.83471 21.199 0.554688 13.7554 0.554688ZM5.91666 14.5547C5.91666 13.9933 5.97195 13.4451 6.07699 12.9154C6.33003 13.5002 6.75318 14.0122 7.32858 14.3569C7.45616 14.4332 7.58843 14.4974 7.72388 14.5534C7.58843 14.6094 7.45616 14.6757 7.32858 14.752C6.75318 15.0967 6.33046 15.6087 6.07699 16.1935C5.97195 15.6643 5.91666 15.1161 5.91666 14.5547ZM5.21028 16.2879L2.41153 14.5547L5.2107 12.8214C5.10438 13.3827 5.04569 13.9617 5.04569 14.5547C5.04569 15.1476 5.10438 15.7267 5.21028 16.2879ZM19.7467 13.5747C19.4936 13.726 19.2181 13.8199 18.9329 13.8574C18.8944 13.5502 18.8357 13.2503 18.75 12.9619C18.9416 12.9482 19.1336 12.8991 19.3112 12.793H19.3116C19.9353 12.419 20.1496 11.589 19.7898 10.9418C19.4301 10.295 18.6297 10.0725 18.0047 10.4454C17.8255 10.5535 17.6843 10.7014 17.5763 10.8695C17.3764 10.6465 17.1591 10.4419 16.9256 10.2562C17.1 10.0183 17.3162 9.81496 17.5693 9.66324C18.5748 9.06124 19.8509 9.39466 20.4767 10.3931C20.5083 10.4483 20.5428 10.5019 20.5732 10.5583C21.1229 11.6269 20.765 12.9646 19.7467 13.5747ZM18.8757 17.099C19.0839 17.2233 19.1553 17.5005 19.0352 17.716C18.9155 17.9319 18.6484 18.006 18.4407 17.8814C18.2325 17.757 18.1612 17.4798 18.2814 17.2644C18.4011 17.0485 18.6675 16.9735 18.8757 17.099ZM9.07052 17.8814C8.86234 18.006 8.59527 17.9314 8.47555 17.716C8.35541 17.5001 8.42729 17.2233 8.63503 17.099C8.84321 16.9748 9.11007 17.0494 9.22936 17.2644C9.3495 17.4802 9.27826 17.757 9.07052 17.8814ZM8.63503 12.0104C8.42729 11.886 8.35541 11.6093 8.47555 11.3934C8.55614 11.249 8.70244 11.1676 8.85363 11.1676C8.9272 11.1676 9.00205 11.187 9.07052 11.228C9.27869 11.3524 9.34992 11.6296 9.22978 11.845C9.10964 12.0605 8.84214 12.135 8.63503 12.0104ZM18.4402 11.228C18.5087 11.187 18.5835 11.1676 18.6575 11.1676C18.8083 11.1676 18.955 11.249 19.0356 11.3934C19.1558 11.6093 19.0839 11.886 18.8761 12.0104C18.6686 12.1354 18.4015 12.0605 18.2818 11.845C18.1612 11.6291 18.2325 11.3524 18.4402 11.228ZM18.0881 14.1031H14.9812C14.8498 13.7205 14.5594 13.4193 14.1904 13.283V10.0611C16.2449 10.2738 17.8833 11.9729 18.0881 14.1031ZM14.1909 20.4257C14.1909 20.6748 13.9952 20.8773 13.7554 20.8773C13.5155 20.8773 13.3199 20.6748 13.3199 20.4257C13.3199 20.1765 13.5155 19.974 13.7554 19.974C13.9952 19.974 14.1909 20.1765 14.1909 20.4257ZM13.7554 15.0063C13.5155 15.0063 13.3199 14.8039 13.3199 14.5547C13.3199 14.3055 13.5155 14.1031 13.7554 14.1031C13.9952 14.1031 14.1909 14.3055 14.1909 14.5547C14.1909 14.8039 13.9952 15.0063 13.7554 15.0063ZM13.3199 8.68372C13.3199 8.43454 13.5155 8.23211 13.7554 8.23211C13.9952 8.23211 14.1909 8.43454 14.1909 8.68372C14.1909 8.9329 13.9952 9.13533 13.7554 9.13533C13.5155 9.13533 13.3199 8.9329 13.3199 8.68372ZM16.2324 6.84838C17.2431 7.19878 18.1598 7.758 18.9412 8.47511C18.3328 8.41535 17.7022 8.54105 17.1338 8.88108C17.007 8.95694 16.8865 9.04183 16.7725 9.13489C16.7933 8.98627 16.8038 8.83543 16.8038 8.68372C16.8038 7.99902 16.5903 7.36637 16.2324 6.84838ZM15.9328 8.68372C15.9328 8.98494 15.8722 9.27845 15.762 9.5521C15.4939 9.43611 15.213 9.3457 14.9242 9.27712C15.0095 9.09696 15.0618 8.8974 15.0618 8.68372C15.0618 7.93684 14.4756 7.32888 13.7554 7.32888C13.0352 7.32888 12.4489 7.93684 12.4489 8.68372C12.4489 8.8974 12.5012 9.09696 12.5865 9.27668C12.2977 9.34526 12.0173 9.43567 11.7487 9.55166C11.6386 9.27845 11.578 8.98494 11.578 8.68372C11.578 7.4387 12.5548 6.42565 13.7554 6.42565C14.9559 6.42565 15.9328 7.4387 15.9328 8.68372ZM10.707 8.68372C10.707 8.83543 10.7174 8.98627 10.7378 9.13489C10.6243 9.04183 10.5037 8.95738 10.377 8.88152C9.80859 8.54149 9.17747 8.41602 8.56954 8.47555C9.35099 7.758 10.2677 7.19878 11.2783 6.84838C10.9205 7.36637 10.707 7.99902 10.707 8.68372ZM13.3199 10.0615V13.2834C12.951 13.4197 12.6605 13.7209 12.5291 14.1035H9.42222C9.62742 11.9729 11.2658 10.2738 13.3199 10.0615ZM9.42265 15.0063H12.5295C12.6609 15.3889 12.9514 15.6901 13.3203 15.8264V19.0483C11.2658 18.8355 9.62742 17.1365 9.42265 15.0063ZM11.2783 22.261C10.2662 21.9102 9.34822 21.3496 8.56656 20.6312C8.66374 20.6407 8.76028 20.6506 8.8583 20.6506C9.37523 20.6506 9.89832 20.5145 10.3774 20.2279C10.5041 20.152 10.6247 20.0671 10.7382 19.9745C10.7174 20.1231 10.707 20.2739 10.707 20.4257C10.707 21.1104 10.9205 21.743 11.2783 22.261ZM11.578 20.4257C11.578 20.1244 11.6386 19.8309 11.7487 19.5573C12.0168 19.6733 12.2977 19.7637 12.5865 19.8323C12.5012 20.0124 12.4489 20.212 12.4489 20.4257C12.4489 21.1725 13.0352 21.7805 13.7554 21.7805C14.4756 21.7805 15.0618 21.1725 15.0618 20.4257C15.0618 20.212 15.0095 20.0124 14.9242 19.8327C15.213 19.7641 15.4935 19.6737 15.762 19.5577C15.8722 19.8309 15.9328 20.1244 15.9328 20.4257C15.9328 21.6707 14.9559 22.6837 13.7554 22.6837C12.5548 22.6837 11.578 21.6707 11.578 20.4257ZM16.8038 20.4257C16.8038 20.2739 16.7933 20.1231 16.7729 19.9745C16.8865 20.0675 17.007 20.152 17.1342 20.2283C17.6133 20.5152 18.1364 20.651 18.6533 20.651C18.7509 20.651 18.8479 20.6411 18.945 20.6316C18.1634 21.3505 17.2454 21.9106 16.2332 22.2614C16.5903 21.743 16.8038 21.1104 16.8038 20.4257ZM14.1909 19.0479V15.826C14.5598 15.6897 14.8502 15.3885 14.9817 15.0059H18.0885C17.8833 17.1365 16.2449 18.8355 14.1909 19.0479ZM16.5764 6.01837L19.4288 4.36671L19.4732 7.75844C18.6333 6.99701 17.653 6.40228 16.5764 6.01837ZM14.0667 5.53875C13.9644 5.52794 13.8604 5.52243 13.7554 5.52243C13.6503 5.52243 13.5463 5.52794 13.4441 5.53875C12.9812 5.55595 12.5259 5.6038 12.084 5.69311L13.7554 2.79026L15.4267 5.69311C14.9848 5.6038 14.5296 5.55595 14.0667 5.53875ZM8.03794 7.758L8.08196 4.36671L10.9343 6.01837C9.85771 6.40228 8.87787 6.99701 8.03794 7.758ZM7.03408 10.3936C7.65987 9.39554 8.93549 9.06168 9.94149 9.66368C10.1945 9.81496 10.4108 10.0183 10.5851 10.2566C10.3517 10.4423 10.1343 10.647 9.93447 10.8699C9.82687 10.7021 9.68526 10.5539 9.506 10.4458H9.50558C8.88191 10.0734 8.08111 10.2955 7.7209 10.9422C7.36069 11.5894 7.57546 12.4194 8.19955 12.7934C8.3771 12.8995 8.56869 12.9487 8.7607 12.9624C8.67501 13.2508 8.61632 13.5511 8.57783 13.8579C8.29311 13.8204 8.01604 13.7264 7.76407 13.5752C6.74574 12.965 6.38787 11.6269 6.93754 10.5592C6.96795 10.5023 7.00197 10.4487 7.03408 10.3936ZM7.76407 15.5347C8.01647 15.3834 8.29311 15.2899 8.57783 15.2524C8.61632 15.5578 8.67458 15.8566 8.75985 16.1439C8.56826 16.1574 8.37668 16.2107 8.19998 16.3168H8.19955C7.57588 16.6908 7.36154 17.5208 7.72133 18.168C7.9631 18.602 8.40283 18.845 8.85533 18.845C9.07647 18.845 9.30081 18.7868 9.50643 18.6644C9.68568 18.5564 9.82687 18.4084 9.93489 18.2404C10.1348 18.4633 10.3521 18.6679 10.5856 18.8536C10.4112 19.0915 10.195 19.2949 9.94191 19.4466C8.93592 20.0477 7.6603 19.7147 7.0345 18.7167C7.00282 18.6618 6.96837 18.608 6.93796 18.5515C6.38787 17.4825 6.74574 16.1448 7.76407 15.5347ZM10.9343 23.091L8.08196 24.7427L8.03752 21.3509C8.87744 22.1124 9.85771 22.7071 10.9343 23.091ZM13.4441 23.5706C13.5463 23.5814 13.6503 23.5869 13.7554 23.5869C13.8604 23.5869 13.9644 23.5814 14.0667 23.5706C14.5296 23.5534 14.9848 23.5056 15.4267 23.4163L13.7554 26.3191L12.084 23.4163C12.5259 23.5056 12.9812 23.5534 13.4441 23.5706ZM19.4728 21.3514L19.4288 24.7427L16.5764 23.091C17.653 22.7071 18.6329 22.1124 19.4728 21.3514ZM20.4767 18.7158C19.8509 19.7138 18.5757 20.0481 17.5693 19.4457C17.3162 19.2944 17.1 19.0911 16.9256 18.8527C17.1591 18.6671 17.3764 18.4624 17.5763 18.2395C17.6839 18.4073 17.8255 18.5555 18.0047 18.6635H18.0052C18.2104 18.7859 18.4347 18.8441 18.6558 18.8441C19.1079 18.8441 19.5481 18.6011 19.7898 18.1671C20.1501 17.5199 19.9353 16.6899 19.3112 16.3159C19.1341 16.2103 18.9425 16.1574 18.7509 16.1435C18.8362 15.8557 18.8944 15.5569 18.9329 15.2515C19.2181 15.289 19.4947 15.3829 19.7467 15.5342C20.765 16.1444 21.1229 17.4825 20.5732 18.5502C20.5428 18.6071 20.5088 18.6607 20.4767 18.7158ZM20.1822 14.7525C20.0546 14.6762 19.9227 14.6098 19.7873 14.5538C19.9223 14.4978 20.055 14.4336 20.1822 14.3573C20.7576 14.0127 21.1803 13.5006 21.4338 12.9158C21.5388 13.4451 21.5941 13.9933 21.5941 14.5547C21.5941 15.1161 21.5388 15.6643 21.4338 16.194C21.1807 15.6087 20.7576 15.0967 20.1822 14.7525ZM22.3005 12.8214L25.0992 14.5547L22.3 16.2879C22.4064 15.7267 22.465 15.1476 22.465 14.5547C22.465 13.9617 22.4064 13.3827 22.3005 12.8214ZM22.7568 12.0523L24.8119 8.23475C25.7743 10.0386 26.3361 12.101 26.3778 14.2945L22.7568 12.0523ZM21.9868 11.6291C21.818 11.1193 21.6102 10.6284 21.3598 10.164C21.3389 10.1226 21.3206 10.0796 21.2979 10.0386C21.2434 9.94109 21.1848 9.84803 21.1224 9.75895C20.8794 9.35893 20.6081 8.97987 20.3093 8.6255L23.5799 8.67159L21.9868 11.6291ZM16.1688 5.21988L14.0067 1.46475C16.1214 1.50753 18.1106 2.09013 19.85 3.08862L16.1688 5.21988ZM11.3423 5.21988L7.66157 3.08817C9.40096 2.09013 11.3898 1.50753 13.5045 1.46475L11.3423 5.21988ZM6.38787 9.75939C6.32557 9.84847 6.26688 9.94153 6.21244 10.0386C6.18926 10.0796 6.1714 10.1221 6.15056 10.164C5.90008 10.6284 5.69275 11.1193 5.52392 11.6291L3.93125 8.67115L7.20185 8.62506C6.90267 8.97987 6.63134 9.35893 6.38787 9.75939ZM4.75395 12.0523L1.13293 14.2945C1.17418 12.101 1.73597 10.0381 2.6988 8.23431L4.75395 12.0523ZM4.75395 17.0571L2.69838 20.8746C1.73597 19.0708 1.17418 17.0083 1.13293 14.8149L4.75395 17.0571ZM5.52392 17.4802C5.69275 17.9901 5.9005 18.4809 6.15099 18.9453C6.17183 18.9868 6.19011 19.0298 6.21287 19.0708C6.25029 19.1381 6.29473 19.1983 6.33641 19.2613C6.59306 19.6944 6.88119 20.1033 7.20185 20.4839L3.93125 20.4378L5.52392 17.4802ZM11.3419 23.8895L13.504 27.6446C11.3889 27.6018 9.39968 27.0188 7.6603 26.0208L11.3419 23.8895ZM16.1684 23.8895L19.8492 26.0212C18.1098 27.0192 16.121 27.6018 14.0063 27.6446L16.1684 23.8895ZM21.1748 19.2613C21.216 19.1983 21.2609 19.1381 21.2983 19.0708C21.3215 19.0298 21.3393 18.9872 21.3602 18.9453C21.6107 18.4809 21.818 17.9901 21.9868 17.4802L23.5795 20.4382L20.3089 20.4843C20.63 20.1037 20.9183 19.6944 21.1748 19.2613ZM22.7568 17.0571L26.3778 14.8149C26.3361 17.0083 25.7743 19.0708 24.8119 20.8751L22.7568 17.0571ZM24.5606 7.78138L20.3438 7.72272L20.2864 3.34926C22.0321 4.44764 23.5014 5.97184 24.5606 7.78138ZM7.22439 3.34926L7.1674 7.72228L2.95057 7.78093C4.00929 5.9714 5.47905 4.4472 7.22439 3.34926ZM2.95014 21.328L7.16698 21.3867L7.22439 25.7601C5.47863 24.6617 4.00929 23.1375 2.95014 21.328ZM20.2864 25.7601L20.3433 21.3871L24.5602 21.3284C23.5014 23.138 22.0317 24.6622 20.2864 25.7601Z" fill="black"/>
<path d="M15.9326 2.8125H16.8036V3.71573H15.9326V2.8125Z" fill="black"/>
<path d="M9.97998 3.25728L10.7344 2.80566L11.1699 3.58805L10.4155 4.03944L9.97998 3.25728Z" fill="black"/>
<path d="M5.03809 6.72845L5.47357 5.94629L6.2278 6.3979L5.79232 7.18007L5.03809 6.72845Z" fill="black"/>
<path d="M2.43262 11.3936H3.30358V12.2968H2.43262V11.3936Z" fill="black"/>
<path d="M2.42529 17.6889L3.17973 17.2373L3.61522 18.0195L2.86078 18.4711L2.42529 17.6889Z" fill="black"/>
<path d="M5.45459 23.1415L5.89007 22.3594L6.6443 22.8108L6.20903 23.5931L5.45459 23.1415Z" fill="black"/>
<path d="M10.707 25.3936H11.578V26.2968H10.707V25.3936Z" fill="black"/>
<path d="M16.3408 25.5229L17.0953 25.0713L17.5307 25.8537L16.7763 26.3051L16.3408 25.5229Z" fill="black"/>
<path d="M21.2817 22.7119L21.7172 21.9297L22.4715 22.3813L22.036 23.1635L21.2817 22.7119Z" fill="black"/>
<path d="M24.207 16.8125H25.078V17.7157H24.207V16.8125Z" fill="black"/>
<path d="M23.895 11.0913L24.6492 10.6396L25.0847 11.4218L24.3305 11.8734L23.895 11.0913Z" fill="black"/>
<path d="M20.8662 6.29681L21.3015 5.51465L22.0559 5.96604L21.6204 6.74843L20.8662 6.29681Z" fill="black"/>
<path d="M15.4971 12.2969H16.368V13.2001H15.4971V12.2969Z" fill="black"/>
<path d="M11.1426 12.2969H12.0135V13.2001H11.1426V12.2969Z" fill="black"/>
<path d="M11.1426 15.9092H12.0135V16.8124H11.1426V15.9092Z" fill="black"/>
<path d="M15.4971 15.9092H16.368V16.8124H15.4971V15.9092Z" fill="black"/>
</g>
<defs>
<clipPath id="clip0">
<rect width="27" height="28" fill="white" transform="translate(0.255371 0.554688)"/>
</clipPath>
</defs>
</svg>
