<svg width="36" height="36" viewBox="0 0 36 36" fill="none" xmlns="http://www.w3.org/2000/svg">
<g clip-path="url(#clip0)">
<path d="M7.94707 23.4539L8.86035 22.1031L12.5189 24.7227L8.89863 30.3664L8.83848 30.4594C8.46113 31.0445 7.9252 31.4875 7.30176 31.7445C6.89707 31.9141 6.45957 32.007 6.01113 32.007C5.25645 32.007 4.55645 31.7555 3.9877 31.3289C3.95488 31.307 3.92207 31.2797 3.89473 31.2578C3.36973 30.8313 2.97051 30.2516 2.7791 29.568L1.5541 25.2805C1.37363 24.6625 1.28613 24.0281 1.28613 23.3828C1.28613 22.8305 1.41738 22.2891 1.65801 21.8023C1.9041 21.3211 2.25957 20.8891 2.70254 20.5555C3.20566 20.1781 3.80723 19.9375 4.43066 19.8719L6.06582 19.6914L7.94707 23.4539Z" fill="#B4DD7F"/>
<path d="M19.65 28.9828L19.0703 31.0172C18.8844 31.668 18.5672 32.2805 18.1406 32.8109C17.1672 34.0305 15.6906 34.7414 14.1266 34.7414H9.48906V30.3664H8.89844L12.5187 24.7227L13.8258 22.6828L15.1547 20.6156C15.3516 20.3094 15.4664 19.9648 15.4992 19.6094L17.8289 19.8719C18.4523 19.9375 19.0539 20.1781 19.557 20.5555C19.7703 20.7141 19.9617 20.9 20.1312 21.1023C20.3172 21.3156 20.4758 21.5508 20.6016 21.8023C20.8422 22.2891 20.9734 22.8305 20.9734 23.3828C20.9734 24.0281 20.8859 24.6625 20.7055 25.2805L19.65 28.9828Z" fill="#B4DD7F"/>
<path d="M8.86045 22.1029L7.94717 23.4537L6.06592 19.6912L8.39561 19.4287L9.52764 21.124L8.86045 22.1029Z" fill="#E6E9ED"/>
<path d="M9.48926 30.3662V34.7412H7.30176V31.7443C7.9252 31.4873 8.46113 31.0443 8.83848 30.4592L8.89863 30.3662H9.48926Z" fill="#FC6E51"/>
<path d="M10.2166 20.1064L13.826 22.6822L12.5189 24.7221L8.86035 22.1025L9.52754 21.1236L10.2166 20.1064Z" fill="#FC6E51"/>
<path d="M26.4423 6.85059C23.4235 6.85059 20.9735 9.30059 20.9735 12.3193C20.9735 15.3381 23.4235 17.7881 26.4423 17.7881C24.9931 17.7881 23.6368 18.1928 22.4774 18.8982L22.4501 18.8545C20.5142 17.6678 19.147 15.6443 18.8462 13.2928C19.054 13.2107 19.2454 13.085 19.3985 12.9318C19.6938 12.6365 19.8798 12.2264 19.8798 11.7725C19.8798 11.2967 19.6774 10.8646 19.3493 10.5639L19.6446 8.79199C20.9188 6.33652 23.4892 4.66309 26.4423 4.66309C30.6696 4.66309 34.0985 8.09199 34.0985 12.3193C34.0985 15.0975 32.6165 17.5311 30.4017 18.8764L30.3962 18.8873C29.2368 18.1928 27.886 17.7881 26.4423 17.7881C29.461 17.7881 31.911 15.3381 31.911 12.3193C31.911 9.30059 29.461 6.85059 26.4423 6.85059Z" fill="#FFC729"/>
<path d="M26.4424 17.7881C29.4627 17.7881 31.9111 15.3396 31.9111 12.3193C31.9111 9.29903 29.4627 6.85059 26.4424 6.85059C23.4221 6.85059 20.9736 9.29903 20.9736 12.3193C20.9736 15.3396 23.4221 17.7881 26.4424 17.7881Z" fill="#FCD770"/>
<path d="M26.4424 30.9131C29.4627 30.9131 31.9111 28.4646 31.9111 25.4443C31.9111 22.424 29.4627 19.9756 26.4424 19.9756C23.4221 19.9756 20.9736 22.424 20.9736 25.4443C20.9736 28.4646 23.4221 30.9131 26.4424 30.9131Z" fill="#FCD770"/>
<path d="M20.7059 25.2803C20.8863 24.6623 20.9738 24.0279 20.9738 23.3826C20.9738 22.8303 20.8426 22.2889 20.602 21.8021C20.4762 21.5506 20.3176 21.3154 20.1316 21.1021L20.1371 21.0967C20.7551 20.2107 21.5535 19.4561 22.4777 18.8982C23.6371 18.1928 24.9934 17.7881 26.4426 17.7881C27.8863 17.7881 29.2371 18.1928 30.3965 18.8873C32.6168 20.2271 34.0988 22.6607 34.0988 25.4443C34.0988 29.6717 30.6699 33.1006 26.4426 33.1006C23.4895 33.1006 20.9246 31.4326 19.6504 28.9826L20.7059 25.2803Z" fill="#FFC729"/>
<path d="M19.6447 8.79199L19.3494 10.5639C19.0596 10.2959 18.6713 10.1318 18.2393 10.1318H17.6924V8.65527C17.6924 7.86777 17.2986 7.13496 16.6424 6.69746C16.2596 6.44043 15.8057 6.30371 15.3408 6.30371C15.3408 6.30371 14.4111 7.94434 11.6768 7.94434C8.94238 7.94434 8.0127 6.30371 8.0127 6.30371C7.54785 6.30371 7.09395 6.44043 6.71113 6.69746C6.05488 7.13496 5.66113 7.86777 5.66113 8.65527V10.1318H5.11426C4.68223 10.1318 4.29395 10.2959 4.0041 10.5693L3.59941 8.15215C3.51738 7.64902 3.47363 7.14043 3.47363 6.6373C3.47363 5.8498 3.67051 5.08965 4.03145 4.41699C4.39238 3.74434 4.91738 3.15371 5.56816 2.72168C6.34473 2.20215 7.25254 1.92871 8.18223 1.92871H11.6768H15.1713C16.101 1.92871 17.0088 2.20215 17.7854 2.72168C18.4361 3.15371 18.9611 3.74434 19.3221 4.41699C19.683 5.08965 19.8799 5.8498 19.8799 6.6373C19.8799 7.14043 19.8361 7.64902 19.7541 8.15215L19.6447 8.79199Z" fill="#656D78"/>
<path d="M3.9877 31.3289C4.55645 31.7555 5.25645 32.007 6.01113 32.007C6.45957 32.007 6.89707 31.9141 7.30176 31.7445V34.7414H5.66113C5.05957 34.7414 4.5127 34.4953 4.11348 34.1016C3.71973 33.7023 3.47363 33.1555 3.47363 32.5539C3.47363 32.0672 3.63223 31.6242 3.89473 31.2578C3.92207 31.2797 3.95488 31.307 3.9877 31.3289Z" fill="#F0D0B4"/>
<path d="M15.4559 18.9693C15.4996 19.1826 15.516 19.4014 15.4996 19.6092C15.4668 19.9646 15.352 20.3092 15.1551 20.6154L13.8262 22.6826L10.2168 20.1068L11.4801 18.242C11.8137 17.7279 12.3332 17.3834 12.9184 17.2795C13.0496 17.2521 13.1809 17.2412 13.3176 17.2412C13.7387 17.2412 14.1543 17.3615 14.5098 17.5912C14.9965 17.9084 15.3355 18.4006 15.4559 18.9693Z" fill="#F0D0B4"/>
<path d="M12.9182 17.2795C12.333 17.3834 11.8135 17.7279 11.4799 18.242L10.2166 20.1068L9.52754 21.124L8.39551 19.4287L8.94238 16.585C9.7627 17.0061 10.6924 17.2412 11.6768 17.2412C12.0924 17.2412 12.4971 17.1975 12.8908 17.1209L12.9182 17.2795Z" fill="#F0D0B4"/>
<path d="M18.8463 13.2928C18.6604 13.3693 18.4525 13.4131 18.2393 13.4131H17.2822C17.5447 12.735 17.6924 11.9967 17.6924 11.2256V10.1318H18.2393C18.6713 10.1318 19.0596 10.2959 19.3494 10.5639C19.6775 10.8646 19.8799 11.2967 19.8799 11.7725C19.8799 12.2264 19.6939 12.6365 19.3986 12.9318C19.2455 13.085 19.0541 13.2107 18.8463 13.2928Z" fill="#F0D0B4"/>
<path d="M17.6924 10.1318V11.2256C17.6924 11.9967 17.5447 12.735 17.2822 13.4131C16.5494 15.2889 14.9033 16.7053 12.8908 17.1209C12.4971 17.1975 12.0924 17.2412 11.6768 17.2412C10.6924 17.2412 9.7627 17.0061 8.94238 16.585C7.63535 15.9178 6.60723 14.7912 6.07129 13.4131C5.80879 12.735 5.66113 11.9967 5.66113 11.2256V10.1318V8.65527C5.66113 7.86777 6.05488 7.13496 6.71113 6.69746C7.09395 6.44043 7.54785 6.30371 8.0127 6.30371C8.0127 6.30371 8.94238 7.94434 11.6768 7.94434C14.4111 7.94434 15.3408 6.30371 15.3408 6.30371C15.8057 6.30371 16.2596 6.44043 16.6424 6.69746C17.2986 7.13496 17.6924 7.86777 17.6924 8.65527V10.1318Z" fill="#F0D0B4"/>
<path d="M6.07129 13.4131H5.11426C4.66035 13.4131 4.2502 13.2271 3.95488 12.9318C3.65957 12.6365 3.47363 12.2264 3.47363 11.7725C3.47363 11.2967 3.67598 10.8646 4.0041 10.5693C4.29395 10.2959 4.68223 10.1318 5.11426 10.1318H5.66113V11.2256C5.66113 11.9967 5.80879 12.735 6.07129 13.4131Z" fill="#F0D0B4"/>
<path d="M13.8643 13.4131H12.7705C12.7705 14.0163 12.28 14.5068 11.6768 14.5068C11.0736 14.5068 10.583 14.0163 10.583 13.4131H9.48926C9.48926 14.6195 10.4704 15.6006 11.6768 15.6006C12.8832 15.6006 13.8643 14.6195 13.8643 13.4131Z" fill="black"/>
<path d="M10.583 10.6787H9.48926C9.48926 10.98 9.24371 11.2256 8.94238 11.2256C8.64105 11.2256 8.39551 10.98 8.39551 10.6787H7.30176C7.30176 11.5832 8.03785 12.3193 8.94238 12.3193C9.84691 12.3193 10.583 11.5832 10.583 10.6787Z" fill="black"/>
<path d="M14.4111 12.3193C15.3157 12.3193 16.0518 11.5832 16.0518 10.6787H14.958C14.958 10.98 14.7125 11.2256 14.4111 11.2256C14.1098 11.2256 13.8643 10.98 13.8643 10.6787H12.7705C12.7705 11.5832 13.5066 12.3193 14.4111 12.3193Z" fill="black"/>
<path d="M25.8955 28.0781V29.2725H26.9893V28.1787H28.083V26.5381C28.083 25.6336 27.3469 24.8975 26.4424 24.8975C26.1411 24.8975 25.8955 24.6519 25.8955 24.3506V23.8037H26.4424C26.7437 23.8037 26.9893 24.0493 26.9893 24.3506V24.8975H28.083V24.3506C28.083 23.6386 27.6242 23.037 26.9893 22.8106V21.6162H25.8955V22.71H24.8018V24.3506C24.8018 25.2551 25.5379 25.9912 26.4424 25.9912C26.7437 25.9912 26.9893 26.2368 26.9893 26.5381V27.085H26.4424C26.1411 27.085 25.8955 26.8394 25.8955 26.5381V25.9912H24.8018V26.5381C24.8018 27.2501 25.2606 27.8517 25.8955 28.0781Z" fill="black"/>
<path d="M31.3517 18.8879C33.426 17.3435 34.6455 14.9443 34.6455 12.3193C34.6455 7.79613 30.9656 4.11621 26.4424 4.11621C24.1143 4.11621 21.952 5.08801 20.4224 6.74449C20.4229 6.70785 20.4268 6.67176 20.4268 6.63512C20.4268 4.87473 19.5523 3.24066 18.0878 2.26449C17.2221 1.68699 16.2142 1.38184 15.174 1.38184H8.17949C7.13879 1.38184 6.13145 1.68699 5.26574 2.26395C3.80121 3.24066 2.92676 4.87473 2.92676 6.63457C2.92676 7.16996 2.9716 7.71027 3.05965 8.23965L3.42059 10.4053C3.11652 10.781 2.92676 11.2529 2.92676 11.7725C2.92676 12.9789 3.90785 13.96 5.11426 13.96H5.71855C6.27691 15.1718 7.19293 16.183 8.33207 16.8617L7.93449 18.9294L4.3727 19.3254C3.64809 19.4057 2.95629 19.6797 2.37277 20.1172C1.35012 20.8845 0.739258 22.1062 0.739258 23.3848C0.739258 24.0766 0.835508 24.764 1.02527 25.429L2.25082 29.7176C2.43129 30.3493 2.76543 30.9076 3.20457 31.3593C3.0241 31.7296 2.92676 32.1343 2.92676 32.5537C2.92676 34.0614 4.1534 35.2881 5.66113 35.2881H14.1289C15.8658 35.2881 17.484 34.5104 18.5685 33.1542C19.0421 32.5625 19.3877 31.8931 19.5955 31.1646L19.84 30.3093C21.3723 32.3935 23.8015 33.6475 26.4424 33.6475C30.9656 33.6475 34.6455 29.9675 34.6455 25.4443C34.6455 22.763 33.3467 20.3857 31.3517 18.8879ZM26.4424 5.20996C30.3624 5.20996 33.5518 8.39934 33.5518 12.3193C33.5518 14.7305 32.3579 16.9158 30.3591 18.2387C29.9654 18.0238 29.5486 17.8477 29.1193 17.6989C31.0946 16.7113 32.458 14.6742 32.458 12.3193C32.458 9.00254 29.7592 6.30371 26.4424 6.30371C23.1256 6.30371 20.4268 9.00254 20.4268 12.3193C20.4268 14.672 21.7874 16.708 23.7605 17.6962C23.3334 17.8439 22.92 18.026 22.524 18.2409C20.896 17.163 19.8 15.4967 19.4571 13.5881C20.0412 13.1949 20.4268 12.5282 20.4268 11.7725C20.4268 11.2524 20.237 10.781 19.9329 10.4053L20.1719 8.97191C21.4139 6.64988 23.8048 5.20996 26.4424 5.20996ZM26.4424 17.2412C23.7288 17.2412 21.5205 15.0329 21.5205 12.3193C21.5205 9.60574 23.7288 7.39746 26.4424 7.39746C29.156 7.39746 31.3643 9.60574 31.3643 12.3193C31.3643 15.0329 29.156 17.2412 26.4424 17.2412ZM26.4424 20.5225C29.156 20.5225 31.3643 22.7307 31.3643 25.4443C31.3643 28.1579 29.156 30.3662 26.4424 30.3662C23.7288 30.3662 21.5205 28.1579 21.5205 25.4443C21.5205 22.7307 23.7288 20.5225 26.4424 20.5225ZM20.0751 20.2769C20.0122 20.2233 19.9532 20.167 19.887 20.1172C19.3035 19.6797 18.6117 19.4063 17.8871 19.3259L16.0206 19.1186C16.0107 19.0311 16.0096 18.9436 15.9905 18.8561C15.8374 18.1414 15.4163 17.53 14.8049 17.1351C14.7611 17.1067 14.7136 17.0859 14.6687 17.0596C15.9719 16.3886 17.0197 15.2954 17.635 13.96H18.2393C18.2983 13.96 18.3541 13.9474 18.4121 13.9425C18.8091 15.9238 19.9089 17.6694 21.5293 18.8802C20.9933 19.2811 20.5044 19.7486 20.0751 20.2769ZM12.3718 23.9404L9.61285 21.9695L10.355 20.8746L13.0866 22.8259L12.3718 23.9404ZM13.6778 21.9044L10.9686 19.9696L11.9387 18.5384C12.2439 18.0686 12.759 17.7881 13.3174 17.7881C13.6346 17.7881 13.943 17.8794 14.2099 18.0528C14.5763 18.2896 14.8289 18.6565 14.9208 19.0847C15.0121 19.5135 14.9318 19.9521 14.6922 20.3223L13.6778 21.9044ZM18.2393 11.2256V10.6787C18.8425 10.6787 19.333 11.1693 19.333 11.7725C19.333 12.3757 18.8425 12.8662 18.2393 12.8662H18.0232C18.1594 12.3407 18.2393 11.7927 18.2393 11.2256ZM5.87277 3.17395C6.55801 2.7173 7.3559 2.47559 8.17949 2.47559H15.1735C15.9971 2.47559 16.795 2.7173 17.4807 3.17395C18.6407 3.94723 19.333 5.24113 19.333 6.63457C19.333 7.11035 19.2936 7.58996 19.2154 8.05918L18.9404 9.7102C18.7189 9.63473 18.4859 9.58496 18.2393 9.58496V8.65691C18.2393 7.68512 17.7564 6.78332 16.9481 6.2441C16.4696 5.92527 15.9134 5.75684 15.3392 5.75684L15.0247 5.76176L14.8656 6.02918C14.8328 6.08551 14.0267 7.39746 11.6768 7.39746C9.32684 7.39746 8.52074 6.08551 8.49012 6.03465L8.33316 5.75684H8.01434C7.44012 5.75684 6.88395 5.92527 6.40598 6.2441C5.59715 6.78277 5.11426 7.68512 5.11426 8.65691V9.58496C4.86762 9.58496 4.63465 9.63527 4.41371 9.71074L4.13863 8.06027C4.05988 7.58996 4.02051 7.1109 4.02051 6.63457C4.02051 5.24113 4.71285 3.94723 5.87277 3.17395ZM5.11426 12.8662C4.51105 12.8662 4.02051 12.3757 4.02051 11.7725C4.02051 11.1693 4.51105 10.6787 5.11426 10.6787V11.2256C5.11426 11.7927 5.1941 12.3407 5.33027 12.8662H5.11426ZM6.20801 11.2256V8.65691C6.20801 8.05152 6.50879 7.48988 7.01246 7.1541C7.23613 7.00535 7.48715 6.9091 7.74965 6.87027C8.19043 7.41004 9.36293 8.49121 11.6768 8.49121C13.9906 8.49121 15.1631 7.41004 15.6044 6.87027C15.8669 6.9091 16.1179 7.00535 16.3416 7.1541C16.8447 7.48934 17.1455 8.05152 17.1455 8.65691V11.2256C17.1455 14.2411 14.6922 16.6943 11.6768 16.6943C8.66129 16.6943 6.20801 14.2411 6.20801 11.2256ZM11.155 17.7618C11.1118 17.8182 11.0664 17.8734 11.0276 17.9336L9.52918 20.144L8.97465 19.3122L9.3509 17.355C9.91965 17.571 10.5239 17.7115 11.155 17.7618ZM8.12535 20.0089L8.86691 21.1213L8.01871 22.3731L6.90473 20.1446L8.12535 20.0089ZM2.07691 25.1288C1.91504 24.5617 1.83301 23.9749 1.83301 23.3848C1.83301 22.4486 2.28035 21.5539 3.02957 20.9922C3.45668 20.6718 3.96309 20.4711 4.4941 20.412L5.7459 20.2731L7.31488 23.4111L6.34035 24.8488L5.6223 23.0534L4.60676 23.4597L5.59934 25.942L4.66199 27.325L5.56707 27.9386L8.99871 22.8757L11.7807 24.8625L8.38074 30.1639C7.86012 30.9754 6.97418 31.46 6.01004 31.46C4.75934 31.46 3.6459 30.62 3.30246 29.4174L2.07691 25.1288ZM8.94238 31.2243V34.1943H7.84863V32.0943C8.25988 31.8756 8.62957 31.5808 8.94238 31.2243ZM4.02051 32.5537C4.02051 32.3782 4.04785 32.207 4.1009 32.044C4.67293 32.3667 5.3248 32.5537 6.01059 32.5537C6.26434 32.5537 6.51207 32.522 6.75488 32.4755V34.1943H5.66113C4.7566 34.1943 4.02051 33.4582 4.02051 32.5537ZM18.5439 30.8644C18.3754 31.4529 18.0965 31.9932 17.7143 32.4711C16.8382 33.5665 15.5317 34.1943 14.1289 34.1943H10.0361V30.9131H16.0518V29.8193H15.1921L17.1127 24.5376L16.0846 24.1636L14.0278 29.8193H9.90105L15.6115 20.9146C15.7548 20.6931 15.8511 20.4536 15.9249 20.208L17.7657 20.4125C18.2967 20.4711 18.8025 20.6718 19.2302 20.9922C19.9794 21.5539 20.4268 22.4486 20.4268 23.3848C20.4268 23.9749 20.3447 24.5617 20.1829 25.1282L18.5439 30.8644ZM26.4424 32.5537C23.8529 32.5537 21.4986 31.1625 20.2392 28.9121L20.71 27.2649C21.4833 29.6941 23.76 31.46 26.4424 31.46C29.7592 31.46 32.458 28.7611 32.458 25.4443C32.458 22.1275 29.7592 19.4287 26.4424 19.4287C24.2981 19.4287 22.4174 20.5596 21.3521 22.2533C21.2339 21.8475 21.0578 21.4609 20.8232 21.1104C22.1664 19.3713 24.2341 18.335 26.4424 18.335C30.3624 18.335 33.5518 21.5243 33.5518 25.4443C33.5518 29.3643 30.3624 32.5537 26.4424 32.5537Z" fill="black"/>
<path d="M26.9893 9.68559V8.49121H25.8955V9.58496H24.8018V11.2256C24.8018 12.1301 25.5379 12.8662 26.4424 12.8662C26.7437 12.8662 26.9893 13.1118 26.9893 13.4131V13.96H26.4424C26.1411 13.96 25.8955 13.7144 25.8955 13.4131V12.8662H24.8018V13.4131C24.8018 14.1251 25.2606 14.7267 25.8955 14.9531V16.1475H26.9893V15.0537H28.083V13.4131C28.083 12.5086 27.3469 11.7725 26.4424 11.7725C26.1411 11.7725 25.8955 11.5269 25.8955 11.2256V10.6787H26.4424C26.7437 10.6787 26.9893 10.9243 26.9893 11.2256V11.7725H28.083V11.2256C28.083 10.5136 27.6242 9.91199 26.9893 9.68559Z" fill="black"/>
</g>
<defs>
<clipPath id="clip0">
<rect width="35" height="35" fill="white" transform="translate(0.192383 0.834961)"/>
</clipPath>
</defs>
</svg>
