<svg width="33" height="33" viewBox="0 0 33 33" fill="none" xmlns="http://www.w3.org/2000/svg">
<g clip-path="url(#clip0)">
<path d="M30.818 23.2881C31.3857 23.2881 31.8502 23.7526 31.8502 24.3203C31.8502 24.6041 31.7365 24.8622 31.5458 25.0482C31.3598 25.2389 31.1017 25.3526 30.818 25.3526H28.2373V23.2881H30.818Z" fill="#FCD770"/>
<path d="M24.1079 23.2881H28.2369V25.3526H24.1079V23.2881Z" fill="#FF826E"/>
<path d="M29.2696 15.5459V21.2233H28.2374L26.1729 20.1911V16.5782L28.2374 15.5459H29.2696Z" fill="#969FAA"/>
<path d="M14.8179 27.9326H17.9146V32.5778H14.8179V27.9326Z" fill="#AAB2BD"/>
<path d="M23.0761 25.868V27.4164C23.0761 27.7001 22.8437 27.9325 22.56 27.9325H10.1729C9.8891 27.9325 9.65674 27.7001 9.65674 27.4164V26.3841C10.2245 26.3841 10.7407 26.1517 11.1174 25.7803L11.2051 25.868H23.0761Z" fill="#838F9B"/>
<path d="M9.6568 22.2559C9.8322 22.2559 9.99753 22.2765 10.1576 22.3179C10.8955 22.5036 11.4736 23.0817 11.6593 23.8196C11.7007 23.9796 11.7213 24.15 11.7213 24.3204C11.7213 24.8882 11.489 25.4043 11.1175 25.7811C10.7407 26.1525 10.2246 26.3849 9.6568 26.3849C8.51618 26.3849 7.59229 25.461 7.59229 24.3204C7.59229 23.7526 7.82464 23.2365 8.19612 22.8597C8.57288 22.4882 9.08901 22.2559 9.6568 22.2559Z" fill="#FF826E"/>
<path d="M23.5918 14.5137H8.62404C8.34027 14.5137 8.10791 14.746 8.10791 15.0298V22.7717L8.19561 22.8594C8.57238 22.488 9.0885 22.2556 9.6563 22.2556C9.8317 22.2556 9.99702 22.2763 10.1571 22.3176L10.1724 22.2556V18.1266C10.1724 17.8428 10.4048 17.6104 10.6886 17.6104H15.3337V23.2879C15.3337 23.5716 15.1014 23.804 14.8176 23.804H11.7208L11.6588 23.8194C11.7001 23.9794 11.7208 24.1498 11.7208 24.3201C11.7208 24.8879 11.4885 25.404 11.117 25.7808L11.2047 25.8685H23.5918C23.8756 25.8685 24.1079 25.6361 24.1079 25.3524V15.0298C24.1079 14.746 23.8756 14.5137 23.5918 14.5137Z" fill="#CCD1D9"/>
<path d="M2.94684 21.739V24.3196H0.882324V15.0293H2.94684V21.739Z" fill="#CCD1D9"/>
<path d="M6.04355 20.7067V22.7712L2.94678 24.3196V15.0293L6.04355 16.5777V20.7067Z" fill="#969FAA"/>
<path d="M6.04346 16.5781H8.10797V18.6426H6.04346V16.5781Z" fill="#FCD770"/>
<path d="M6.04346 20.707H8.10797V22.7715H6.04346V20.707Z" fill="#FCD770"/>
<path d="M6.04346 18.6426H8.10797V20.7071H6.04346V18.6426Z" fill="#FCD770"/>
<path d="M26.1724 16.5781V20.191H24.1079V16.5781H26.1724Z" fill="#FCD770"/>
<path d="M15.3339 21.7394V23.2878C15.3339 23.5715 15.1015 23.8039 14.8178 23.8039H11.721L11.659 23.8193C11.4733 23.0814 10.8951 22.5032 10.1572 22.3175L10.1726 22.2555V18.1265C10.1726 17.8427 10.405 17.6104 10.6887 17.6104H15.3339V21.7394Z" fill="#69D6F4"/>
<path d="M16.8824 13.4815V14.5137H14.8179V13.4815C14.8179 12.9137 15.2823 12.4492 15.8501 12.4492C16.1339 12.4492 16.392 12.5629 16.578 12.7537C16.7687 12.9396 16.8824 13.1977 16.8824 13.4815Z" fill="#838F9B"/>
<path d="M23.592 1.09473C27.2979 1.09473 30.3017 4.09851 30.3017 7.8044C30.3017 11.5103 27.2979 14.5141 23.592 14.5141C19.8861 14.5141 16.8823 11.5103 16.8823 7.8044C16.8823 4.09851 19.8861 1.09473 23.592 1.09473Z" fill="#838F9B"/>
<path d="M23.5919 3.15918C26.1572 3.15918 28.2371 5.23907 28.2371 7.80434C28.2371 10.3696 26.1572 12.4495 23.5919 12.4495C21.0267 12.4495 18.9468 10.3696 18.9468 7.80434C18.9468 5.23907 21.0267 3.15918 23.5919 3.15918Z" fill="#FCD770"/>
<path d="M25.6564 7.80377C25.6564 8.94389 24.732 9.86829 23.5919 9.86829C22.4517 9.86829 21.5273 8.94389 21.5273 7.80377C21.5273 6.66365 22.4517 5.73926 23.5919 5.73926C24.732 5.73926 25.6564 6.66365 25.6564 7.80377Z" fill="#969FAA"/>
<path d="M9.14029 4.19141C11.9893 4.19141 14.3016 6.50365 14.3016 9.3527C14.3016 12.2017 11.9893 14.514 9.14029 14.514C6.29125 14.514 3.979 12.2017 3.979 9.3527C3.979 6.50365 6.29125 4.19141 9.14029 4.19141Z" fill="#838F9B"/>
<path d="M9.14023 6.25586C10.8486 6.25586 12.237 7.64422 12.237 9.35263C12.237 11.0611 10.8486 12.4494 9.14023 12.4494C7.43181 12.4494 6.04346 11.0611 6.04346 9.35263C6.04346 7.64422 7.43181 6.25586 9.14023 6.25586Z" fill="#FCD770"/>
<path d="M10.1724 9.35257C10.1724 9.92263 9.71023 10.3848 9.14017 10.3848C8.57011 10.3848 8.10791 9.92263 8.10791 9.35257C8.10791 8.78251 8.57011 8.32031 9.14017 8.32031C9.71023 8.32031 10.1724 8.78251 10.1724 9.35257Z" fill="#969FAA"/>
<path d="M9.14014 23.8037H10.1724V24.836H9.14014V23.8037Z" fill="black"/>
<path d="M17.3984 23.2881H18.4307V24.3203H17.3984V23.2881Z" fill="black"/>
<path d="M19.4629 23.2881H20.4951V24.3203H19.4629V23.2881Z" fill="black"/>
<path d="M21.5273 23.2881H22.5596V24.3203H21.5273V23.2881Z" fill="black"/>
<path d="M30.8178 22.7717H24.6243V20.7072H26.0509L28.1155 21.7394H29.7856V15.0297H28.1155L26.0509 16.062H24.6243V15.0297C24.6243 15.0018 24.618 14.9761 24.616 14.9486C28.116 14.4486 30.8178 11.4395 30.8178 7.80393C30.8178 3.8193 27.5766 0.578125 23.592 0.578125C19.6074 0.578125 16.3662 3.8193 16.3662 7.80393C16.3662 10.4342 17.783 12.7334 19.8894 13.9975H17.3985V13.4813C17.3985 12.6278 16.7037 11.933 15.8501 11.933C14.9965 11.933 14.3017 12.6278 14.3017 13.4813V13.9975H12.3947C13.8574 12.9693 14.8178 11.2724 14.8178 9.35232C14.8178 6.22203 12.2707 3.6749 9.1404 3.6749C6.01011 3.6749 3.46299 6.22203 3.46299 9.35232C3.46299 11.9536 5.22407 14.1467 7.6152 14.8155C7.60033 14.8848 7.59202 14.9564 7.59202 15.0297V16.062H6.16535L3.06858 14.5136H0.366211V24.8362H3.06858L6.16535 23.2878H7.29464C7.15527 23.6046 7.07589 23.9526 7.07589 24.3201C7.07589 25.566 7.96424 26.6086 9.1404 26.8485V27.4168C9.1404 27.9861 9.60336 28.4491 10.1727 28.4491H14.3017V32.5781H15.334V28.4491H17.3985V32.5781H18.4307V28.4491H22.5598C23.1291 28.4491 23.592 27.9861 23.592 27.4168V26.3846C23.9723 26.3846 24.3017 26.1757 24.4809 25.8684H30.8178C31.6714 25.8684 32.3662 25.1736 32.3662 24.3201C32.3662 23.4665 31.6714 22.7717 30.8178 22.7717ZM27.721 23.8039V24.8362H24.6243V23.8039H27.721ZM28.3589 16.062H28.7533V20.7072H28.3589L26.6888 19.872V16.8972L28.3589 16.062ZM25.6565 17.0943V19.6749H24.6243V17.0943H25.6565ZM17.3985 7.80393C17.3985 4.38861 20.1767 1.61038 23.592 1.61038C27.0073 1.61038 29.7856 4.38861 29.7856 7.80393C29.7856 11.2193 27.0073 13.9975 23.592 13.9975C20.1767 13.9975 17.3985 11.2193 17.3985 7.80393ZM15.334 13.4813C15.334 13.1971 15.5658 12.9652 15.8501 12.9652C16.1344 12.9652 16.3662 13.1971 16.3662 13.4813V13.9975H15.334V13.4813ZM4.49524 9.35232C4.49524 6.79133 6.57942 4.70716 9.1404 4.70716C11.7014 4.70716 13.7856 6.79133 13.7856 9.35232C13.7856 11.9133 11.7014 13.9975 9.1404 13.9975C6.57942 13.9975 4.49524 11.9133 4.49524 9.35232ZM23.592 15.0297V17.0943H20.4952V16.062H19.463V17.0943H18.4307V16.062H17.3985V17.0943H16.3662V16.062H15.334V17.0943H14.3017V16.062H13.2694V17.0943H10.6888C10.1195 17.0943 9.65653 17.5572 9.65653 18.1265V21.7394C9.28909 21.7394 8.94106 21.8188 8.62428 21.9582V15.0297H23.592ZM10.6888 21.9582V18.1265H14.8178V23.2878H12.0184C11.7581 22.6948 11.2818 22.2185 10.6888 21.9582ZM6.55976 19.1588H7.59202V20.191H6.55976V19.1588ZM7.59202 17.0943V18.1265H6.55976V17.0943H7.59202ZM1.39847 15.5459H2.43073V20.7072H3.46299V15.8649L5.5275 16.8972V22.4526L3.46299 23.4849V21.7394H2.43073V23.8039H1.39847V15.5459ZM6.55976 21.2233H7.59202V22.2555H6.55976V21.2233ZM8.10815 24.3201C8.10815 23.4665 8.80295 22.7717 9.65653 22.7717C10.5101 22.7717 11.2049 23.4665 11.2049 24.3201C11.2049 25.1736 10.5101 25.8684 9.65653 25.8684C8.80295 25.8684 8.10815 25.1736 8.10815 24.3201ZM22.5598 27.4168H10.1727V26.8485C10.5562 26.7702 10.9035 26.5998 11.2049 26.3717V26.3846H22.5598V27.4168ZM12.0184 25.3523C12.1578 25.0355 12.2372 24.6875 12.2372 24.3201H14.8178C15.3871 24.3201 15.8501 23.8571 15.8501 23.2878V22.2555H20.4952V21.2233H15.8501V20.191H17.9146V19.1588H15.8501V18.1265H23.592V19.1588H18.9469V20.191H23.592V21.2233H21.5275V22.2555H23.592V25.3523H12.0184ZM30.8178 24.8362H28.7533V23.8039H30.8178C31.1021 23.8039 31.334 24.0358 31.334 24.3201C31.334 24.6043 31.1021 24.8362 30.8178 24.8362Z" fill="black"/>
<path d="M7.59229 9.3521C7.59229 10.2057 8.28709 10.9005 9.14067 10.9005C9.99425 10.9005 10.6891 10.2057 10.6891 9.3521C10.6891 8.49852 9.99425 7.80371 9.14067 7.80371C8.28709 7.80371 7.59229 8.49852 7.59229 9.3521ZM9.6568 9.3521C9.6568 9.63637 9.42495 9.86823 9.14067 9.86823C8.8564 9.86823 8.62454 9.63637 8.62454 9.3521C8.62454 9.06782 8.8564 8.83597 9.14067 8.83597C9.42495 8.83597 9.6568 9.06782 9.6568 9.3521Z" fill="black"/>
<path d="M26.1725 7.80428C26.1725 6.38139 25.0148 5.22363 23.5919 5.22363C22.169 5.22363 21.0112 6.38139 21.0112 7.80428C21.0112 9.22716 22.169 10.3849 23.5919 10.3849C25.0148 10.3849 26.1725 9.22716 26.1725 7.80428ZM22.0435 7.80428C22.0435 6.9507 22.7383 6.25589 23.5919 6.25589C24.4455 6.25589 25.1403 6.9507 25.1403 7.80428C25.1403 8.65786 24.4455 9.35266 23.5919 9.35266C22.7383 9.35266 22.0435 8.65786 22.0435 7.80428Z" fill="black"/>
<path d="M11.2322 12.2953L10.6334 11.4543C10.1932 11.7678 9.67704 11.9334 9.14025 11.9334C7.71736 11.9334 6.5596 10.7756 6.5596 9.35273C6.5596 8.81593 6.72518 8.2998 7.03868 7.85953L6.19771 7.26074C5.7592 7.87667 5.52734 8.60021 5.52734 9.35273C5.52734 11.3449 7.14806 12.9656 9.14025 12.9656C9.89277 12.9656 10.6163 12.7338 11.2322 12.2953Z" fill="black"/>
<path d="M9.14033 6.77152C10.5632 6.77152 11.721 7.92928 11.721 9.35216C11.721 9.88895 11.5554 10.4051 11.2419 10.8454L12.0829 11.4441C12.5214 10.8282 12.7532 10.1047 12.7532 9.35216C12.7532 7.35997 11.1325 5.73926 9.14033 5.73926C8.38781 5.73926 7.66427 5.97111 7.04834 6.40962L7.64713 7.2506C8.0874 6.93709 8.60353 6.77152 9.14033 6.77152Z" fill="black"/>
<path d="M23.592 11.9325C21.3152 11.9325 19.4629 10.0802 19.4629 7.80349C19.4629 6.85893 19.7757 5.96856 20.3677 5.22864L19.5615 4.58398C18.8218 5.50888 18.4307 6.62204 18.4307 7.80349C18.4307 10.6495 20.7459 12.9648 23.592 12.9648C24.7734 12.9648 25.8866 12.5737 26.8115 11.834L26.1668 11.0278C25.4269 11.6198 24.5365 11.9325 23.592 11.9325Z" fill="black"/>
<path d="M23.5921 2.64258C22.4106 2.64258 21.2975 3.03371 20.3726 3.77337L21.0172 4.57957C21.7571 3.98759 22.6475 3.67484 23.5921 3.67484C25.8688 3.67484 27.7211 5.52715 27.7211 7.80387C27.7211 8.74842 27.4083 9.6388 26.8164 10.3787L27.6226 11.0234C28.3622 10.0985 28.7534 8.98532 28.7534 7.80387C28.7534 4.95785 26.4381 2.64258 23.5921 2.64258Z" fill="black"/>
</g>
<defs>
<clipPath id="clip0">
<rect width="32" height="32" fill="white" transform="translate(0.366211 0.578125)"/>
</clipPath>
</defs>
</svg>
