<svg width="32" height="32" viewBox="0 0 32 32" fill="none" xmlns="http://www.w3.org/2000/svg">
<path d="M13.2554 28.5547H17.2554H19.2554H29.2554V30.0547C29.2554 30.3297 29.0304 30.5547 28.7554 30.5547H12.7554C12.4804 30.5547 12.2554 30.3297 12.2554 30.0547V28.5547H13.2554Z" fill="#CCD1D9"/>
<path d="M29.2554 20.0297V28.5547H19.2554V18.5547H20.0554C21.0904 20.3447 23.0304 21.5547 25.2554 21.5547C25.6704 21.5547 26.0754 21.5147 26.4654 21.4347C27.5254 21.2147 28.4804 20.7247 29.2554 20.0297Z" fill="#AAB2BD"/>
<path d="M19.2554 18.5547V28.5547H17.2554V19.5547C17.2554 19.1897 17.4504 18.8697 17.7454 18.6947C17.8954 18.6047 18.0704 18.5547 18.2554 18.5547H19.2554Z" fill="#CCD1D9"/>
<path d="M31.2554 3.55469V6.55469H30.2554H29.2554V3.55469H30.2554H31.2554Z" fill="#FFEAA7"/>
<path d="M26.2554 1.55469V5.55469H25.2554H24.2554V1.55469H25.2554H26.2554Z" fill="#FFEAA7"/>
<path d="M21.2554 2.55469V8.55469H20.2554H19.2554V2.55469H20.2554H21.2554Z" fill="#FFEAA7"/>
<path d="M12.7554 30.5547H5.25537V28.5547H12.2554V30.0547C12.2554 30.3297 12.4804 30.5547 12.7554 30.5547Z" fill="#B4DD7F"/>
<path d="M17.2554 19.5547V28.5547H13.2554C14.3604 28.5547 15.2554 27.6597 15.2554 26.5547C15.2554 26.0047 15.0304 25.5047 14.6704 25.1397C14.3054 24.7797 13.8054 24.5547 13.2554 24.5547H12.2554V28.5547H5.25537C3.04537 28.5547 1.25537 26.7647 1.25537 24.5547V22.1047C1.25537 21.7397 1.30037 21.3747 1.39037 21.0197L1.40537 20.9497C1.65537 19.9547 2.23037 19.1047 2.99537 18.5047C3.76537 17.9047 4.72537 17.5547 5.75537 17.5547L4.84037 16.2697C3.81037 14.8297 3.25537 13.1047 3.25537 11.3297V9.83969C3.25537 7.74469 4.13037 5.74969 5.67037 4.32969L9.39037 0.894688C9.62537 0.674688 9.93537 0.554688 10.2554 0.554688C10.5754 0.554688 10.8854 0.674688 11.1204 0.894688L14.8404 4.32969C16.3804 5.74969 17.2554 7.74469 17.2554 9.83969V11.3297C17.2554 13.1047 16.7004 14.8297 15.6704 16.2697L14.7554 17.5547C15.8904 17.5547 16.9404 17.9797 17.7454 18.6947C17.4504 18.8697 17.2554 19.1897 17.2554 19.5547Z" fill="#B4DD7F"/>
<path d="M11.2554 19.5547V20.5547C11.2554 21.1047 10.8054 21.5547 10.2554 21.5547C9.70537 21.5547 9.25537 21.1047 9.25537 20.5547V19.5547C9.25537 19.0047 9.70537 18.5547 10.2554 18.5547C10.5304 18.5547 10.7804 18.6647 10.9604 18.8497C11.1454 19.0297 11.2554 19.2797 11.2554 19.5547Z" fill="#CCD1D9"/>
<path d="M14.6704 25.1397C15.0304 25.5047 15.2554 26.0047 15.2554 26.5547C15.2554 27.6597 14.3604 28.5547 13.2554 28.5547H12.2554V24.5547H13.2554C13.8054 24.5547 14.3054 24.7797 14.6704 25.1397Z" fill="#F0D0B4"/>
<path d="M10.2554 17.5547L8.17037 16.3047C6.36037 15.2197 5.25537 13.2647 5.25537 11.1597V9.55469C5.25537 6.79469 7.49537 4.55469 10.2554 4.55469C11.6354 4.55469 12.8854 5.11469 13.7904 6.01969C14.6954 6.92469 15.2554 8.17469 15.2554 9.55469V11.1597C15.2554 13.2647 14.1504 15.2197 12.3404 16.3047L10.2554 17.5547Z" fill="#F0D0B4"/>
<path d="M26.4654 9.67469C26.0754 9.59469 25.6704 9.55469 25.2554 9.55469C21.9404 9.55469 19.2554 12.2397 19.2554 15.5547C19.2554 16.6447 19.5454 17.6697 20.0554 18.5547C21.0904 20.3447 23.0304 21.5547 25.2554 21.5547C25.6704 21.5547 26.0754 21.5147 26.4654 21.4347C27.5254 21.2147 28.4804 20.7247 29.2554 20.0297C30.4854 18.9297 31.2554 17.3347 31.2554 15.5547C31.2554 12.6547 29.2004 10.2347 26.4654 9.67469Z" fill="#FCD770"/>
<path d="M27.7554 14.0547C27.7554 13.3177 27.3504 12.6797 26.7554 12.3327V11.0547H25.7554V12.0547H24.7554V11.0547H23.7554V12.0547H22.7554V13.0547H23.7554V18.0547H22.7554V19.0547H23.7554V20.0547H24.7554V19.0547H25.7554V20.0547H26.7554V18.7767C27.3504 18.4297 27.7554 17.7917 27.7554 17.0547C27.7554 16.4547 27.4844 15.9217 27.0644 15.5547C27.4844 15.1877 27.7554 14.6547 27.7554 14.0547ZM26.7554 17.0547C26.7554 17.6062 26.3069 18.0547 25.7554 18.0547H24.7554V16.0547H25.7554C26.3069 16.0547 26.7554 16.5032 26.7554 17.0547ZM24.7554 15.0547V13.0547H25.7554C26.3069 13.0547 26.7554 13.5032 26.7554 14.0547C26.7554 14.6062 26.3069 15.0547 25.7554 15.0547H24.7554Z" fill="black"/>
<path d="M25.2554 9.05519C21.6714 9.05519 18.7554 11.9712 18.7554 15.5552C18.7554 16.4407 18.9349 17.2852 19.2569 18.0552H18.2554C18.1039 18.0552 17.9609 18.0842 17.8229 18.1262C17.1884 17.6287 16.4534 17.2852 15.6669 17.1392L16.0789 16.5622C17.1759 15.0272 17.7554 13.2182 17.7554 11.3312V9.83869C17.7554 7.61269 16.8174 5.47019 15.1819 3.96019L11.4624 0.526688C10.8029 -0.0818125 9.70887 -0.0818125 9.04937 0.526688L5.32987 3.96019C3.69337 5.47069 2.75537 7.61319 2.75537 9.83869V11.3312C2.75537 13.2182 3.33487 15.0272 4.43187 16.5622L4.84337 17.1382C2.95237 17.4882 1.40187 18.9082 0.921871 20.8287L0.904371 20.8982C0.805371 21.2937 0.755371 21.7002 0.755371 22.1072V24.5552C0.755371 26.8672 2.50887 28.7757 4.75537 29.0257V31.0552H28.7554C29.3069 31.0552 29.7554 30.6067 29.7554 30.0552V20.2347C30.9854 19.0512 31.7554 17.3927 31.7554 15.5552C31.7554 11.9712 28.8394 9.05519 25.2554 9.05519ZM18.7554 19.0552V28.0552H17.7554V19.5552C17.7554 19.2797 17.9799 19.0552 18.2554 19.0552H18.7554ZM1.75537 24.5552V22.1072C1.75537 21.7822 1.79537 21.4572 1.87387 21.1417L1.89137 21.0722C2.33537 19.2957 3.92437 18.0552 5.75537 18.0552H6.72687L5.24537 15.9812C4.27087 14.6167 3.75537 13.0087 3.75537 11.3312V9.83869C3.75537 7.89119 4.57637 6.01619 6.00737 4.69519L9.72687 1.26169C10.0154 0.995688 10.4949 0.995688 10.7834 1.26169L14.5029 4.69519C15.9344 6.01669 16.7554 7.89119 16.7554 9.83869V11.3312C16.7554 13.0082 16.2399 14.6162 15.2654 15.9812L13.7839 18.0552H14.7554C15.5599 18.0552 16.3369 18.3012 16.9944 18.7492C16.8449 18.9822 16.7554 19.2582 16.7554 19.5552V28.0552H15.2424C15.5599 27.6362 15.7554 27.1202 15.7554 26.5552C15.7554 25.1767 14.6339 24.0552 13.2554 24.0552H10.7554V21.9632C11.3359 21.7562 11.7554 21.2062 11.7554 20.5552V19.5552C11.7554 18.9042 11.3359 18.3542 10.7554 18.1472V17.8382L12.5994 16.7317C14.5464 15.5642 15.7554 13.4282 15.7554 11.1582V9.55519C15.7554 6.52269 13.2879 4.05519 10.2554 4.05519C7.22287 4.05519 4.75537 6.52269 4.75537 9.55519V11.1582C4.75537 13.4287 5.96437 15.5642 7.91137 16.7317L9.75537 17.8382V18.1472C9.17487 18.3542 8.75537 18.9042 8.75537 19.5552V20.5552C8.75537 21.2062 9.17487 21.7562 9.75537 21.9632V24.0552H5.75537V22.0552H4.75537V24.0552H3.75537V25.0552H11.7554V28.0552H5.25537C3.32537 28.0552 1.75537 26.4852 1.75537 24.5552ZM13.2554 25.0552C14.0824 25.0552 14.7554 25.7282 14.7554 26.5552C14.7554 27.3822 14.0824 28.0552 13.2554 28.0552H12.7554V25.0552H13.2554ZM10.2554 16.9722L8.42587 15.8742C6.77837 14.8862 5.75537 13.0787 5.75537 11.1582V9.55519C5.75537 7.07419 7.77437 5.05519 10.2554 5.05519C12.7364 5.05519 14.7554 7.07419 14.7554 9.55519V11.1582C14.7554 13.0792 13.7324 14.8867 12.0849 15.8747L10.2554 16.9722ZM10.2554 19.0552C10.5309 19.0552 10.7554 19.2797 10.7554 19.5552V20.5552C10.7554 20.8307 10.5309 21.0552 10.2554 21.0552C9.97987 21.0552 9.75537 20.8307 9.75537 20.5552V19.5552C9.75537 19.2797 9.97987 19.0552 10.2554 19.0552ZM5.75537 30.0552V29.0552H11.7554V30.0552H5.75537ZM12.7554 30.0552V29.0552H13.2554H28.7554V30.0552H12.7554ZM28.7554 28.0552H19.7554V19.0552H19.7869C20.9439 20.8562 22.9604 22.0552 25.2554 22.0552C26.5444 22.0552 27.7439 21.6737 28.7554 21.0237V28.0552ZM25.2554 21.0552C22.2229 21.0552 19.7554 18.5877 19.7554 15.5552C19.7554 12.5227 22.2229 10.0552 25.2554 10.0552C28.2879 10.0552 30.7554 12.5227 30.7554 15.5552C30.7554 18.5877 28.2879 21.0552 25.2554 21.0552Z" fill="black"/>
<path d="M30.7554 3.05469V2.05469H29.7554V3.05469H28.7554V7.05469H29.7554V8.05469H30.7554V7.05469H31.7554V3.05469H30.7554ZM30.7554 6.05469H29.7554V4.05469H30.7554V6.05469Z" fill="black"/>
<path d="M24.7554 7.05469H25.7554V6.05469H26.7554V1.05469H25.7554V0.0546875H24.7554V1.05469H23.7554V6.05469H24.7554V7.05469ZM24.7554 2.05469H25.7554V5.05469H24.7554V2.05469Z" fill="black"/>
<path d="M19.7554 10.0547H20.7554V9.05469H21.7554V2.05469H20.7554V1.05469H19.7554V2.05469H18.7554V9.05469H19.7554V10.0547ZM19.7554 3.05469H20.7554V8.05469H19.7554V3.05469Z" fill="black"/>
<path d="M10.2554 7.05469C8.87687 7.05469 7.75537 8.17619 7.75537 9.55469H8.75537C8.75537 8.72769 9.42837 8.05469 10.2554 8.05469C11.0824 8.05469 11.7554 8.72769 11.7554 9.55469C11.7554 10.3817 11.0824 11.0547 10.2554 11.0547H9.75537V14.0547H10.7554V12.0042C11.8949 11.7722 12.7554 10.7617 12.7554 9.55469C12.7554 8.17619 11.6339 7.05469 10.2554 7.05469Z" fill="black"/>
<path d="M9.75537 15.0547H10.7554V16.0547H9.75537V15.0547Z" fill="black"/>
</svg>
