<svg width="34" height="35" viewBox="0 0 34 35" fill="none" xmlns="http://www.w3.org/2000/svg">
<g clip-path="url(#clip0)">
<path d="M25.521 27.6963C25.5158 28.6259 25.3715 29.7947 25.2271 30.8359H25.2219H25.0054C24.1494 30.8359 23.4585 31.5478 23.4585 32.4297C23.4585 32.9609 23.7266 33.2106 23.9741 33.4922H23.4585V32.9609C23.4585 32.3766 22.9944 31.8984 22.4272 31.8984C21.8601 31.8984 21.396 32.3766 21.396 32.9609V33.4922H20.8804C20.3441 33.4922 19.8955 32.9769 19.8491 32.4297C19.7615 31.3778 19.4727 29.6672 18.8179 27.6484L18.8746 27.4944C19.1427 27.59 19.4624 27.6484 19.8491 27.6484C21.9116 27.6484 21.7879 26.0547 22.9429 26.0547C23.6287 26.0547 24.5362 27.2181 25.521 27.6963Z" fill="#E6E9ED"/>
<path d="M18.2713 27.1491L12.1147 32.961C11.924 33.1416 11.3413 33.4922 11.0835 33.4922H10.0522C10.0522 32.6103 9.36131 31.8985 8.50537 31.8985C7.64943 31.8985 6.9585 32.6103 6.9585 33.4922C6.78834 33.4922 6.6285 33.4763 6.48412 33.4497C6.71615 33.1841 6.9585 32.9344 6.9585 32.4297C6.9585 31.5478 6.26756 30.836 5.41162 30.836C5.90662 30.326 9.25303 27.3669 9.9749 26.1928C10.738 26.2885 11.2382 25.5235 12.1147 25.5235C13.146 25.5235 13.146 26.586 14.1772 26.586C15.2085 26.586 15.7241 24.9922 16.7554 25.5235C17.3535 25.8263 17.6062 26.6285 18.2713 27.1491Z" fill="#E6E9ED"/>
<path d="M25.4696 7.98156L25.5211 7.99219C26.0368 9.05469 26.0368 9.6975 26.0368 10.1172C26.0368 12.5822 24.2269 14.6062 21.9066 14.8666L21.9118 14.8984C23.2524 15.2437 25.8924 15.5891 27.5836 15.7909V15.9609C27.5836 16.8428 28.2746 17.5547 29.1305 17.5547V19.1484C29.1305 19.7222 28.6922 20.2109 28.1405 20.2109C28.1302 20.2109 28.1147 20.2109 28.0993 20.2109C27.0577 20.1631 25.9749 20.0144 25.0055 19.6797L24.9024 19.7275C25.5211 21.1459 25.5211 22.3359 25.5211 22.3359C25.5211 22.3359 24.5982 22.9734 23.4638 23.0106L23.4586 22.8672C23.4586 19.6797 21.3961 17.5547 18.818 17.5547C16.2554 17.5547 14.2032 19.6531 14.1774 22.8034C14.0124 22.8459 13.8422 22.8672 13.6618 22.8672C12.1149 22.8672 11.5993 22.3359 11.5993 22.3359C11.5993 22.3359 11.7333 21.6453 11.7952 20.7581L11.5993 20.7422C8.7685 20.1578 6.86584 19.4141 5.73146 18.8669L5.9274 18.6172C5.9274 18.6172 6.9535 16.5028 4.396 15.435C5.93256 15.9556 6.44303 14.9516 6.44303 14.3672V14.2397C7.38662 14.5956 8.80975 15.1109 10.0524 15.4297C12.1149 15.9609 14.693 15.4297 14.693 15.4297C11.5993 14.8984 10.0524 12.7734 10.0524 9.58594C10.0524 9.40531 10.0627 9.21937 10.0782 9.04406C10.1349 8.45437 10.2896 7.89125 10.5216 7.37594C11.3363 5.54313 13.1307 4.27344 15.2087 4.27344C15.3891 4.27344 15.5593 4.27875 15.7243 4.28938C16.7865 4.33719 17.5547 4.56031 18.2044 4.94813C18.6118 5.18719 18.9727 5.49531 19.3336 5.86719L19.4935 5.92562C19.8957 4.66125 21.061 3.74219 22.4274 3.74219C24.1341 3.74219 25.5211 5.17125 25.5211 6.92969C25.5211 7.24844 25.5211 7.60969 25.4696 7.98156Z" fill="#E6E9ED"/>
<path d="M29.1304 15.961V17.5548C28.2744 17.5548 27.5835 16.8429 27.5835 15.961V15.791C28.4962 15.8973 29.1304 15.961 29.1304 15.961Z" fill="#838F9B"/>
<path d="M6.44303 14.2397V14.3672C6.44303 14.9516 5.93256 15.9556 4.396 15.435C4.6899 14.0856 5.41178 13.8359 5.41178 13.8359C5.41178 13.8359 5.81912 14.0059 6.44303 14.2397Z" fill="#838F9B"/>
<path d="M4.39597 15.4346C6.95347 16.5024 5.92737 18.6168 5.92737 18.6168L5.73144 18.8665C4.79816 18.4096 4.3805 18.0855 4.3805 18.0855C4.2155 16.9114 4.26191 16.0561 4.39597 15.4346Z" fill="#838F9B"/>
<path d="M5.41162 30.8359C6.26756 30.8359 6.9585 31.5478 6.9585 32.4297C6.9585 32.9344 6.71615 33.1841 6.48412 33.4497H6.47896C4.90115 33.1469 4.93724 31.3247 5.41162 30.8359Z" fill="#838F9B"/>
<path d="M10.0522 33.4922H6.9585C6.9585 32.6103 7.64943 31.8984 8.50537 31.8984C9.36131 31.8984 10.0522 32.6103 10.0522 33.4922Z" fill="#838F9B"/>
<path d="M25.2219 30.8359H25.2271C25.1446 31.4309 25.0621 31.9834 25.0054 32.4297C24.9383 32.9609 24.4949 33.4922 23.9741 33.4922C23.7266 33.2106 23.4585 32.9609 23.4585 32.4297C23.4585 31.5478 24.1494 30.8359 25.0054 30.8359H25.2219Z" fill="#838F9B"/>
<path d="M23.4585 32.9609V33.4922H21.396V32.9609C21.396 32.3766 21.8601 31.8984 22.4272 31.8984C22.9944 31.8984 23.4585 32.3766 23.4585 32.9609Z" fill="#838F9B"/>
<path d="M25.521 27.6962C24.5362 27.2181 23.6287 26.0547 22.9429 26.0547C21.7879 26.0547 21.9116 27.6484 19.8491 27.6484C19.4624 27.6484 19.1427 27.59 18.8746 27.4944C18.6374 27.4041 18.4415 27.2872 18.2713 27.1491C17.6062 26.6284 17.3535 25.8262 16.7554 25.5234C15.7241 24.9922 15.2085 26.5859 14.1772 26.5859C13.146 26.5859 13.146 25.5234 12.1147 25.5234C11.2382 25.5234 10.738 26.2884 9.9749 26.1928C9.83568 26.1769 9.69131 26.1344 9.53662 26.0547C7.63396 25.0772 7.47412 23.3984 7.47412 23.3984C9.53662 23.3984 11.5991 22.3359 11.5991 22.3359C11.5991 22.3359 12.1147 22.8672 13.6616 22.8672C13.8421 22.8672 14.0122 22.8459 14.1772 22.8034C15.4612 22.5219 16.4769 21.2734 18.3022 21.2734C20.3647 21.2734 20.8804 22.3359 22.4272 22.8672C22.7779 22.9894 23.1285 23.0266 23.4637 23.0106C24.598 22.9734 25.521 22.3359 25.521 22.3359C26.5522 23.3984 29.1304 23.9297 29.1304 23.9297C29.1304 26.0547 28.0269 26.9897 27.0679 27.6484C26.5471 28.0097 26.0212 27.9406 25.521 27.6962Z" fill="#B4DD7F"/>
<path d="M23.9741 10.2764V11.7107C23.9741 12.2951 23.5101 12.7732 22.9429 12.7732C22.6593 12.7732 22.4015 12.6564 22.2158 12.4598C22.0251 12.2686 21.9116 12.0029 21.9116 11.7107V10.9776C22.7985 10.8236 23.4688 10.5739 23.9741 10.2764Z" fill="#FF826E"/>
<path d="M23.4585 22.8672L23.4637 23.0106C23.1285 23.0266 22.7779 22.9894 22.4272 22.8672C20.8804 22.3359 20.3647 21.2734 18.3022 21.2734C16.4769 21.2734 15.4612 22.5219 14.1772 22.8034C14.203 19.6531 16.2552 17.5547 18.8179 17.5547C21.396 17.5547 23.4585 19.6797 23.4585 22.8672Z" fill="#FCD770"/>
<path d="M22.4272 7.46094C22.9968 7.46094 23.4585 6.98524 23.4585 6.39844C23.4585 5.81163 22.9968 5.33594 22.4272 5.33594C21.8577 5.33594 21.396 5.81163 21.396 6.39844C21.396 6.98524 21.8577 7.46094 22.4272 7.46094Z" fill="#FFEAA7"/>
<path d="M16.7917 1.61763C17.6476 1.63888 18.3231 2.372 18.3025 3.24856C18.2819 4.13044 18.2664 4.84231 18.2664 4.84231L18.2045 4.94856C17.5548 4.56075 16.7865 4.33762 15.7244 4.28981V4.27387C15.7244 4.27387 15.2706 3.50356 15.2087 3.21137C15.0231 2.35075 15.9409 1.59638 16.7917 1.61763Z" fill="#CCD1D9"/>
<path d="M10.0522 9.04406V9.05469C10.0522 9.05469 9.36131 9.05469 8.50537 9.05469C7.64943 9.05469 6.9585 8.34281 6.9585 7.46094C6.9585 6.57906 7.64943 5.86719 8.50537 5.86719C9.33553 5.86719 10.0162 6.37188 10.5215 7.37594C10.2894 7.89125 10.1347 8.45437 10.078 9.04406H10.0522Z" fill="#CCD1D9"/>
<path d="M28.0769 20.7416C28.0986 20.7427 28.1203 20.7432 28.1414 20.7432C28.5224 20.7432 28.8834 20.5929 29.1644 20.3156C29.4702 20.0138 29.646 19.5883 29.646 19.1484V15.4802L29.1819 15.4323C29.1427 15.4286 26.2021 15.1232 23.9107 14.7507C25.4849 13.8402 26.5522 12.1057 26.5522 10.1172C26.5522 9.68103 26.5491 8.95375 26.0098 7.81581C26.0366 7.49653 26.0366 7.19478 26.0366 6.92968C26.0366 4.87906 24.417 3.21093 22.4272 3.21093C21.0835 3.21093 19.911 3.97275 19.2897 5.09846C19.1283 4.95396 18.9586 4.82221 18.7838 4.6979L18.8173 3.263C18.8302 2.69562 18.6286 2.15693 18.2481 1.74628C17.8681 1.33509 17.3555 1.10134 16.8049 1.08753C16.149 1.0599 15.472 1.39459 15.06 1.9115C14.7243 2.33278 14.598 2.83534 14.7052 3.32728C14.7305 3.44521 14.7919 3.59981 14.8651 3.76025C13.0377 3.87393 11.4408 4.8764 10.4838 6.35912C9.82278 5.54153 9.07461 5.33593 8.50536 5.33593C7.36789 5.33593 6.44286 6.289 6.44286 7.46093C6.44286 8.63287 7.36789 9.58593 8.50536 9.58593H9.53661C9.53661 12.1747 10.5013 14.0755 12.2937 15.1327C11.6084 15.1402 10.8597 15.0902 10.177 14.9138C8.1733 14.398 5.62869 13.353 5.60291 13.3424L5.42759 13.2702L5.24816 13.3318C5.04809 13.4003 3.30941 14.1196 3.86937 18.1608L3.8998 18.3786L4.07098 18.5109C4.15709 18.5779 6.22063 20.1328 11.2377 21.206C11.2041 21.5205 11.1665 21.7882 11.1376 21.9704C10.5663 22.2302 9.00964 22.8672 7.47411 22.8672H6.90486L6.96055 23.451C6.96777 23.5291 7.16834 25.3274 9.1401 26.4361C8.30891 27.4104 6.64034 28.9649 5.83081 29.7176C5.45441 30.0688 5.16772 30.336 5.04655 30.4603C4.58764 30.9331 4.47214 31.9091 4.78306 32.682C5.12647 33.5347 5.91898 34.0234 6.95849 34.0234H11.0835C11.5573 34.0234 12.2632 33.5426 12.4633 33.3525L18.326 27.8158C18.327 27.8163 18.328 27.8174 18.3296 27.8179C19.0808 30.1426 19.2835 31.8496 19.3356 32.4754C19.4067 33.3286 20.0997 34.0234 20.8804 34.0234H23.9741C24.811 34.0234 25.4261 33.2308 25.5169 32.4961C25.5545 32.1869 25.6061 31.8241 25.6612 31.4325C25.7932 30.5012 25.9484 29.392 26.0093 28.4092C26.1057 28.4246 26.2032 28.4352 26.3011 28.4352C26.643 28.4352 26.9962 28.3359 27.3535 28.0904C28.4874 27.3116 29.646 26.2087 29.646 23.9297V23.4946L29.2314 23.4091C28.5915 23.2768 26.8477 22.7886 26.0242 22.0772C26.001 21.7547 25.9283 21.1576 25.7097 20.4272C26.4249 20.5956 27.2143 20.7034 28.0769 20.7416ZM28.6147 16.8757C28.4286 16.7642 28.2786 16.5968 28.1904 16.3928C28.3482 16.4104 28.4946 16.4268 28.6147 16.4401V16.8757ZM15.8577 2.58512C16.0716 2.31578 16.4264 2.14843 16.7801 2.14896C17.3488 2.16331 17.8005 2.651 17.7861 3.23696L17.765 4.15125C17.2787 3.96212 16.7218 3.83037 16.0397 3.77459C15.8747 3.4755 15.7339 3.18703 15.7123 3.09459C15.6746 2.92459 15.7236 2.753 15.8577 2.58512ZM8.50536 6.92968V7.99218C8.68377 7.99218 9.13649 8.15687 9.37831 8.52343H8.50536C7.93663 8.52343 7.47411 8.0469 7.47411 7.46093C7.47411 6.87496 7.93663 6.39843 8.50536 6.39843C9.0808 6.39843 9.55517 6.7294 9.95014 7.40568C9.93261 7.45031 9.91817 7.49653 9.90167 7.54221C9.46391 7.13528 8.90188 6.92968 8.50536 6.92968ZM5.4575 14.4251C5.5663 14.4686 5.71273 14.5266 5.88289 14.593C5.84422 14.704 5.77667 14.8235 5.65705 14.9122C5.49153 15.036 5.27445 15.0589 5.05531 15.0387C5.19195 14.7056 5.35128 14.5191 5.4575 14.4251ZM4.80472 16.2579C5.15173 16.4938 5.3982 16.7684 5.51834 17.0877C5.67767 17.5101 5.60703 17.9282 5.53845 18.1699C5.22444 18.0036 4.99859 17.8671 4.86092 17.7778C4.78873 17.1727 4.77791 16.6728 4.80472 16.2579ZM6.47947 18.6225C6.60373 18.2586 6.77905 17.5127 6.48617 16.7196C6.37841 16.4279 6.22063 16.1617 6.01386 15.9211C6.10564 15.8749 6.1902 15.826 6.25981 15.7739C6.56197 15.5497 6.74708 15.2528 6.85123 14.9585C7.75358 15.2894 8.89569 15.6794 9.92745 15.945C12.0065 16.48 14.5088 16.0072 14.7687 15.9556L15.2085 15.9609V14.8984H14.7362C12.009 14.4145 10.5679 12.5779 10.5679 9.58593C10.5679 6.94987 12.6494 4.80468 15.2085 4.80468C17.1416 4.80468 18.015 5.286 18.8942 6.17C18.8447 6.41543 18.8179 6.66937 18.8179 6.92968H19.8491C19.8491 5.46503 21.0057 4.27343 22.4272 4.27343C23.8488 4.27343 25.0054 5.46503 25.0054 6.92968C25.0054 8.41081 25.0054 10.6484 19.3335 10.6484V11.7109C20.1085 11.7109 20.7901 11.6679 21.396 11.5919V11.7109C21.396 12.5896 22.09 13.3047 22.9429 13.3047C23.7957 13.3047 24.4897 12.5896 24.4897 11.7109V10.5762C24.9414 10.267 25.2627 9.91478 25.4885 9.54503C25.5194 9.77081 25.521 9.95675 25.521 10.1172C25.521 12.4605 23.6704 14.3672 21.396 14.3672C20.8819 14.3672 19.3887 14.2041 18.6668 13.4603L17.9377 14.2115C19.1066 15.4159 21.3027 15.4297 21.396 15.4297C21.5285 15.4297 21.6579 15.4196 21.7879 15.409L21.7868 15.4137C23.0522 15.7394 25.4045 16.0592 27.0978 16.2648C27.2174 17.1143 27.8212 17.798 28.6147 18.0105V19.1484C28.6147 19.2998 28.5554 19.4465 28.4513 19.5485C28.3868 19.6127 28.276 19.6924 28.1213 19.6802C27.0168 19.6308 26.0454 19.4661 25.2281 19.1936C24.9053 18.529 24.4573 17.8325 23.823 17.1791L23.0939 17.9303C24.5867 19.4682 24.9131 21.3287 24.9847 22.0384C24.7558 22.159 24.3876 22.3237 23.9561 22.4156C23.771 19.2658 21.6703 17.0234 18.8179 17.0234C15.9902 17.0234 13.8993 19.2265 13.6833 22.3333C13.676 22.3333 13.6688 22.3359 13.6616 22.3359C12.8743 22.3359 12.4061 22.1861 12.1663 22.0756C12.2921 21.2644 12.5283 19.2781 12.0879 17.9175L11.1103 18.2538C11.2846 18.793 11.3263 19.4826 11.3109 20.136C9.13442 19.6616 7.54939 19.0948 6.47947 18.6225ZM22.4272 11.4156C22.8114 11.329 23.1517 11.2243 23.4585 11.1069V11.7109C23.4585 12.0037 23.2275 12.2422 22.9429 12.2422C22.6582 12.2422 22.4272 12.0037 22.4272 11.7109V11.4156ZM22.9264 22.4459C22.8145 22.4268 22.7021 22.4018 22.5907 22.3636C22.0776 22.1872 21.6904 21.9465 21.281 21.6921C20.5287 21.2251 19.7522 20.7422 18.3022 20.7422C17.0647 20.7422 16.1743 21.2458 15.389 21.6905C15.1678 21.8153 14.9589 21.9279 14.7527 22.0289C15.0662 19.7015 16.677 18.0859 18.8179 18.0859C21.0851 18.0859 22.7593 19.8959 22.9264 22.4459ZM5.73645 32.2756C5.60652 31.9526 5.62972 31.6206 5.68747 31.4107C6.12163 31.5361 6.44286 31.9431 6.44286 32.4297C6.44286 32.6018 6.39749 32.7134 6.30931 32.8366C6.04273 32.7256 5.84473 32.545 5.73645 32.2756ZM7.61745 32.9609C7.79638 32.6448 8.12534 32.4297 8.50536 32.4297C8.88538 32.4297 9.21434 32.6448 9.39327 32.9609H7.61745ZM11.7646 32.571C11.6244 32.7049 11.1995 32.9423 11.0835 32.9609H10.4946C10.2642 32.0466 9.46391 31.3672 8.50536 31.3672C8.07791 31.3672 7.68036 31.5021 7.35088 31.7321C7.18588 31.2466 6.85691 30.845 6.42945 30.5926C6.46091 30.5634 6.48927 30.5368 6.52227 30.506C8.05161 29.0823 9.57116 27.6383 10.2415 26.7225C10.6426 26.6847 10.9814 26.5057 11.2578 26.3554C11.5553 26.1944 11.8121 26.0547 12.1147 26.0547C12.4045 26.0547 12.5288 26.17 12.7814 26.4303C13.063 26.7203 13.4481 27.1172 14.1772 27.1172C14.8238 27.1172 15.2915 26.7065 15.6674 26.3761C16.1624 25.941 16.299 25.8815 16.5249 25.9984C16.7347 26.1067 16.9147 26.3538 17.1225 26.6396C17.238 26.7984 17.3643 26.9716 17.5123 27.1421L11.7646 32.571ZM21.9116 32.9609C21.9116 32.6677 22.1426 32.4297 22.4272 32.4297C22.7119 32.4297 22.9429 32.6677 22.9429 32.9609H21.9116ZM24.1546 32.902C24.0313 32.7495 23.9741 32.6316 23.9741 32.4297C23.9741 31.9856 24.2412 31.6046 24.6176 31.4463C24.5702 31.7794 24.5269 32.0934 24.4933 32.3627C24.4665 32.5848 24.3196 32.8016 24.1546 32.902ZM24.7728 30.3291C24.0422 30.4152 23.4276 30.888 23.1331 31.551C22.9202 31.4373 22.6825 31.3672 22.4272 31.3672C21.5744 31.3672 20.8804 32.0822 20.8804 32.9609C20.6391 32.9609 20.3874 32.681 20.3627 32.3845C20.3132 31.7842 20.1291 30.2436 19.5129 28.1558C19.6233 28.1653 19.7285 28.1797 19.8491 28.1797C21.2563 28.1797 21.843 27.5209 22.2715 27.0396C22.5773 26.697 22.6964 26.5859 22.9429 26.5859C23.1507 26.5859 23.6276 26.9737 23.9757 27.258C24.2809 27.5066 24.6253 27.785 24.9976 28.0097C24.9713 28.7178 24.877 29.5439 24.7728 30.3291ZM26.7817 27.2064C26.1722 27.6235 25.5287 27.1682 24.615 26.4239C24.0468 25.9606 23.5095 25.5234 22.9429 25.5234C22.2231 25.5234 21.8291 25.9654 21.5125 26.3208C21.1315 26.7485 20.803 27.1172 19.8491 27.1172C18.758 27.1172 18.3827 26.6008 17.9475 26.0026C17.685 25.6414 17.4138 25.2684 16.9858 25.048C16.1052 24.5959 15.4395 25.1802 14.9986 25.5675C14.713 25.8183 14.4438 26.0547 14.1772 26.0547C13.8875 26.0547 13.7632 25.9394 13.5105 25.6791C13.229 25.389 12.8438 24.9922 12.1147 24.9922C11.5568 24.9922 11.1242 25.227 10.7772 25.4156C10.3291 25.66 10.1172 25.7593 9.7671 25.5797C8.79102 25.0772 8.34603 24.3786 8.14597 23.8973C9.62478 23.7576 10.9793 23.2051 11.5491 22.9458C11.8977 23.1477 12.5535 23.3984 13.6616 23.3984C14.5114 23.3984 15.21 23.0037 15.885 22.6217C16.5945 22.2201 17.3293 21.8047 18.3022 21.8047C19.465 21.8047 20.0595 22.1739 20.7478 22.6021C21.1671 22.8624 21.6425 23.1578 22.2638 23.3708C23.5812 23.8234 24.861 23.2996 25.4591 22.9835C26.3847 23.7151 27.8671 24.1618 28.5972 24.3488C28.4668 25.9166 27.599 26.6449 26.7817 27.2064Z" fill="black"/>
<path d="M15.2085 9.58594H16.2397V8.52344C16.2397 7.49813 15.4302 6.66406 14.4351 6.66406C13.4399 6.66406 12.6304 7.49813 12.6304 8.52344V9.58594H13.6616V8.52344C13.6616 8.08409 14.0086 7.72656 14.4351 7.72656C14.8615 7.72656 15.2085 8.08409 15.2085 8.52344V9.58594Z" fill="black"/>
<path d="M22.4272 7.99219C23.2801 7.99219 23.9741 7.27713 23.9741 6.39844C23.9741 5.51975 23.2801 4.80469 22.4272 4.80469C21.5744 4.80469 20.8804 5.51975 20.8804 6.39844C20.8804 7.27713 21.5744 7.99219 22.4272 7.99219ZM22.4272 5.86719C22.7119 5.86719 22.9429 6.10572 22.9429 6.39844C22.9429 6.69116 22.7119 6.92969 22.4272 6.92969C22.1426 6.92969 21.9116 6.69116 21.9116 6.39844C21.9116 6.10572 22.1426 5.86719 22.4272 5.86719Z" fill="black"/>
</g>
<defs>
<clipPath id="clip0">
<rect width="33" height="34" fill="white" transform="translate(0.255371 0.554688)"/>
</clipPath>
</defs>
</svg>
