<svg width="33" height="34" viewBox="0 0 33 34" fill="none" xmlns="http://www.w3.org/2000/svg">
<g clip-path="url(#clip0)">
<path d="M22.7554 13.4453V9.83594H17.7554H13.2554C12.1504 9.83594 11.2554 8.91297 11.2554 7.77344C11.2554 6.63391 12.1504 5.71094 13.2554 5.71094C13.4504 5.71094 13.6454 5.74187 13.8254 5.79859C13.7804 5.60266 13.7554 5.40156 13.7554 5.19531C13.7554 4.61266 13.9404 4.07641 14.2554 3.64844H11.7554C4.75537 3.64844 1.25537 10.3516 1.25537 17.0547V18.6016H3.25537V20.6641C3.25537 22.9431 5.04537 24.7891 7.25537 24.7891H8.25537V25.2995C8.25537 26.5061 7.44037 27.5528 6.29537 27.8158L4.47037 28.0788C3.08537 28.2798 1.25537 29.4297 1.25537 30.9766H13.2554V22.7266V21.6953H15.2554V20.6641H19.7204C20.3854 20.6641 21.0204 20.9373 21.4854 21.4169L22.2554 22.2109L23.0254 21.4169C23.4904 20.9373 24.1254 20.6641 24.7904 20.6641H27.2554V13.4453H22.7554Z" fill="#F0D0B4"/>
<path d="M29.2554 21.6953H15.2554H13.2554V22.7266V30.9766H19.2204C19.8854 30.9766 20.5204 31.2498 20.9854 31.7294L21.4004 32.1573C21.6304 32.3945 21.9354 32.5234 22.2554 32.5234C22.5754 32.5234 22.8804 32.3945 23.1104 32.1573L23.5254 31.7294C23.9904 31.2498 24.6254 30.9766 25.2904 30.9766H31.2554V21.6953H29.2554Z" fill="#B4DD7F"/>
<path d="M27.2554 20.6641H24.7904C24.1254 20.6641 23.4904 20.9373 23.0254 21.4169L22.2554 22.2109L21.4854 21.4169C21.0204 20.9373 20.3854 20.6641 19.7204 20.6641H15.2554V21.6953V28.9141H19.7204C20.3854 28.9141 21.0204 29.1873 21.4854 29.6669L22.2554 30.4609L23.0254 29.6669C23.4904 29.1873 24.1254 28.9141 24.7904 28.9141H29.2554V21.6953V20.6641H27.2554Z" fill="#FFEAA7"/>
<path d="M24.2554 24.7891H27.2554V26.8516H24.2554V24.7891Z" fill="#FF826E"/>
<path d="M17.2554 22.7266H20.2554V24.7891H17.2554V22.7266Z" fill="#FF826E"/>
<path d="M13.8254 5.79859C13.7804 5.60266 13.7554 5.40156 13.7554 5.19531C13.7554 4.61266 13.9404 4.07641 14.2554 3.64844C14.7104 3.02453 15.4404 2.61719 16.2554 2.61719C17.0154 2.61719 17.6954 2.96781 18.1554 3.51953C18.7404 2.36969 19.9054 1.58594 21.2554 1.58594C22.8404 1.58594 24.1804 2.66875 24.6104 4.15891C25.0804 3.83406 25.6454 3.64844 26.2554 3.64844C27.9104 3.64844 29.2554 5.03547 29.2554 6.74219C29.2554 8.44891 27.9104 9.83594 26.2554 9.83594H22.7554H17.7554H13.2554C12.1504 9.83594 11.2554 8.91297 11.2554 7.77344C11.2554 6.63391 12.1504 5.71094 13.2554 5.71094C13.4504 5.71094 13.6454 5.74188 13.8254 5.79859Z" fill="#E6E9ED"/>
<path d="M29.7554 21.1797V20.1484H27.7554V12.9297H23.2554V10.3516H26.2554C28.1849 10.3516 29.7554 8.7325 29.7554 6.74219C29.7554 4.75188 28.1849 3.13281 26.2554 3.13281C25.7724 3.13281 25.3034 3.23336 24.8714 3.42672C24.2184 2.01339 22.8074 1.07031 21.2554 1.07031C19.9784 1.07031 18.8029 1.69422 18.0554 2.72805C17.5509 2.33772 16.9309 2.10156 16.2554 2.10156C15.3699 2.10156 14.5754 2.50169 14.0254 3.13281H11.7554C8.34387 3.13281 5.47987 4.65597 3.47437 7.53728C1.72087 10.0556 0.755371 13.4355 0.755371 17.0547V19.1172H2.75537V20.6641C2.75537 23.2231 4.77387 25.3047 7.25537 25.3047H7.75537C7.75287 26.2761 7.10987 27.1011 6.22837 27.3053L4.40037 27.5688C2.87187 27.789 0.755371 29.0961 0.755371 30.9766V31.4922H12.7554H13.2554H19.2199C19.7539 31.4922 20.2564 31.7067 20.6344 32.0965L21.0484 32.5234C21.3709 32.856 21.7994 33.0391 22.2554 33.0391C22.7114 33.0391 23.1404 32.856 23.4624 32.5234L23.8764 32.0965C24.2544 31.7067 24.7569 31.4922 25.2909 31.4922H31.7554V21.1797H29.7554ZM14.7554 20.1484V21.1797H12.7554V22.2109H10.7554V18.0859H13.7554V10.3516H17.2554V18.0859H21.7554V20.9745C21.1989 20.4429 20.4819 20.1484 19.7199 20.1484H14.7554ZM15.7554 21.1797H19.7199C20.2539 21.1797 20.7564 21.3942 21.1344 21.784L21.7554 22.4244V29.2245C21.1989 28.6929 20.4819 28.3984 19.7199 28.3984H15.7554V21.1797ZM22.7554 22.4244L23.3764 21.784C23.7544 21.3942 24.2569 21.1797 24.7909 21.1797H28.7554V28.3984H24.7909C24.0284 28.3984 23.3114 28.6929 22.7554 29.2245V22.4244ZM26.7554 13.9609V20.1484H24.7909C24.0284 20.1484 23.3114 20.4429 22.7554 20.9745V17.0547H18.2554V10.3516H22.2554V13.9609H26.7554ZM16.2554 3.13281C17.1229 3.13281 17.8689 3.69639 18.1434 4.51366C17.6084 4.88439 17.2554 5.51345 17.2554 6.22656H18.2554C18.2554 5.65783 18.7039 5.19531 19.2554 5.19531C19.8069 5.19531 20.2554 5.65783 20.2554 6.22656H21.2554C21.2554 5.08909 20.3584 4.16406 19.2554 4.16406C19.1984 4.16406 19.1449 4.17644 19.0889 4.18159C19.0069 3.93461 18.8899 3.70928 18.7544 3.49684C19.3064 2.63162 20.2369 2.10156 21.2554 2.10156C22.5739 2.10156 23.7564 3.00803 24.1314 4.30586L24.3249 4.97669L24.8889 4.58688C25.2894 4.3105 25.7619 4.16406 26.2554 4.16406C27.6339 4.16406 28.7554 5.32061 28.7554 6.74219C28.7554 8.16377 27.6339 9.32031 26.2554 9.32031H13.2554C12.4284 9.32031 11.7554 8.62628 11.7554 7.77344C11.7554 6.92059 12.4284 6.22656 13.2554 6.22656C13.3149 6.22656 13.3754 6.23275 13.4354 6.24048C13.8524 7.43261 14.9574 8.28906 16.2554 8.28906V7.25781C15.1524 7.25781 14.2554 6.33278 14.2554 5.19531C14.2554 4.05784 15.1524 3.13281 16.2554 3.13281ZM1.85037 30.4609C2.21387 29.4782 3.54437 28.7331 4.53887 28.5897L6.40587 28.3195C7.78937 28.0014 8.75537 26.7598 8.75537 25.299V24.2734H7.25537C5.32587 24.2734 3.75537 22.6539 3.75537 20.6641V18.0859H1.75537V17.0547C1.75537 10.846 4.88487 4.16406 11.7554 4.16406H13.4304C13.3194 4.48736 13.2554 4.83334 13.2554 5.19531C11.8769 5.19531 10.7554 6.35186 10.7554 7.77344C10.7554 9.01816 11.6159 10.0597 12.7554 10.2995V17.0547H9.75537V23.2422H12.7554V30.4609H1.85037ZM30.7554 30.4609H25.2909C24.4894 30.4609 23.7364 30.7827 23.1694 31.3674L22.7554 31.7943C22.4879 32.0692 22.0229 32.0692 21.7554 31.7943L21.3414 31.3674C20.7744 30.7827 20.0209 30.4609 19.2199 30.4609H13.7554V22.2109H14.7554V29.4297H19.7199C20.2539 29.4297 20.7564 29.6442 21.1344 30.034L22.2554 31.19L23.3764 30.034C23.7544 29.6442 24.2569 29.4297 24.7909 29.4297H29.7554V22.2109H30.7554V30.4609Z" fill="black"/>
<path d="M20.7554 22.2109H16.7554V25.3047H20.7554V22.2109ZM19.7554 24.2734H17.7554V23.2422H19.7554V24.2734Z" fill="black"/>
<path d="M16.7554 26.3359H20.7554V27.3672H16.7554V26.3359Z" fill="black"/>
<path d="M27.7554 24.2734H23.7554V27.3672H27.7554V24.2734ZM26.7554 26.3359H24.7554V25.3047H26.7554V26.3359Z" fill="black"/>
<path d="M23.7554 22.2109H27.7554V23.2422H23.7554V22.2109Z" fill="black"/>
<path d="M23.7554 7.77344C24.0314 7.77344 24.2554 8.00495 24.2554 8.28906H25.2554C25.2554 7.43622 24.5824 6.74219 23.7554 6.74219C22.9284 6.74219 22.2554 7.43622 22.2554 8.28906H23.2554C23.2554 8.00495 23.4794 7.77344 23.7554 7.77344Z" fill="black"/>
</g>
<defs>
<clipPath id="clip0">
<rect width="32" height="33" fill="white" transform="translate(0.255371 0.554688)"/>
</clipPath>
</defs>
</svg>
