<svg width="35" height="35" viewBox="0 0 35 35" fill="none" xmlns="http://www.w3.org/2000/svg">
<g clip-path="url(#clip0)">
<path d="M28.2229 17.3665V9.14072C28.2229 8.5353 27.7316 8.04395 27.1261 8.04395C26.5202 8.04395 26.0294 8.5353 26.0294 9.14072V14.6246H21.6423V9.14072C21.6423 8.5353 21.1509 8.04395 20.5455 8.04395C19.9395 8.04395 19.4487 8.5353 19.4487 9.14072V17.3665H28.2229Z" fill="#ECC19C"/>
<path d="M19.4487 30.5283H27.1261V34.367H19.4487V30.5283Z" fill="#F0D0B4"/>
<path d="M19.4487 30.5283H27.1261V33.2697H19.4487V30.5283Z" fill="#ECC19C"/>
<path d="M28.2233 28.334L30.9652 29.9791L28.2233 31.6243H18.3523L15.6104 29.9791L18.3523 28.334H28.2233Z" fill="#FFC729"/>
<path d="M27.1262 28.8824V25.8031C27.1262 25.6639 27.153 25.5257 27.2046 25.3964L28.145 23.0465C28.1962 22.9166 28.223 22.7784 28.223 22.6392V16.2695H18.9004V23.3986H20.5456V28.8824H27.1262Z" fill="#F0D0B4"/>
<path d="M18.3523 16.2702H14.954C14.3363 16.2702 13.7595 15.962 13.4168 15.4476C13.074 14.9332 12.4973 14.625 11.8795 14.625H6.48964C5.46944 14.625 4.64258 15.4519 4.64258 16.4721V20.4554C4.64258 21.4756 5.46944 22.3024 6.48964 22.3024H11.8795C12.4973 22.3024 13.074 21.9942 13.4168 21.4798C13.7595 20.9655 14.3363 20.6573 14.954 20.6573H18.3523V16.2702Z" fill="#838F9B"/>
<path d="M18.3521 16.2695V20.6566H33.1585C33.4611 20.6566 33.7069 20.4108 33.7069 20.1082V16.8179C33.7069 16.5153 33.4611 16.2695 33.1585 16.2695H18.3521Z" fill="#838F9B"/>
<path d="M23.8359 14.6242V13.5274C23.8359 12.922 24.3268 12.4307 24.9327 12.4307C25.5381 12.4307 26.0295 12.922 26.0295 13.5274V17.9145C26.0295 18.52 25.5381 19.0113 24.9327 19.0113C24.3268 19.0113 23.8359 18.52 23.8359 17.9145V14.6242Z" fill="#ECC19C"/>
<path d="M23.8361 14.6242V13.5274C23.8361 12.922 23.3448 12.4307 22.7394 12.4307C22.1334 12.4307 21.6426 12.922 21.6426 13.5274V17.9145C21.6426 18.52 22.1334 19.0113 22.7394 19.0113C23.3448 19.0113 23.8361 18.52 23.8361 17.9145V14.6242Z" fill="#ECC19C"/>
<path d="M22.7393 12.4307V19.0113C23.3447 19.0113 23.836 18.52 23.836 17.9145V13.5274C23.836 12.922 23.3447 12.4307 22.7393 12.4307Z" fill="#F0D0B4"/>
<path d="M22.7392 22.3024C22.7392 20.5892 21.8827 18.9896 20.4579 18.0398L19.4489 17.3669V16.8185H23.2876C23.8936 16.8185 24.3844 16.3272 24.3844 15.7218C24.3844 15.1164 23.8931 14.625 23.2876 14.625H18.6456C18.4625 14.625 18.2914 14.7166 18.1893 14.8689L17.3475 16.132C17.2878 16.222 17.2554 16.3277 17.2554 16.4364V20.9472C17.2554 21.1173 17.2947 21.2852 17.371 21.4375L19.3332 25.3619C19.4096 25.5132 19.4489 25.6811 19.4489 25.8517V28.8831H22.7392V22.3024Z" fill="#F0D0B4"/>
<path d="M18.3521 32.1732V27.7861H28.223V32.1732H18.3521Z" fill="#FFEAA7"/>
<path d="M29.3198 16.2695H31.5134V20.6566H29.3198V16.2695Z" fill="#E6E9ED"/>
<path d="M24.9326 12.4307V19.0113C25.538 19.0113 26.0294 18.52 26.0294 17.9145V13.5274C26.0294 12.922 25.538 12.4307 24.9326 12.4307Z" fill="#F0D0B4"/>
<path d="M20.5459 29.4307H21.6427V30.5274H20.5459V29.4307Z" fill="black"/>
<path d="M24.9326 29.4307H26.0294V30.5274H24.9326V29.4307Z" fill="black"/>
<path d="M33.1588 15.7219H28.7717V9.14125C28.7717 8.23433 28.0334 7.49609 27.1265 7.49609C26.2196 7.49609 25.4813 8.23433 25.4813 9.14125V11.9841C25.3092 11.9226 25.126 11.8832 24.933 11.8832C24.5101 11.8832 24.128 12.0481 23.8362 12.3108C23.5443 12.0476 23.1622 11.8832 22.7394 11.8832C22.5463 11.8832 22.3632 11.9226 22.191 11.9841V9.14125C22.191 8.23433 21.4528 7.49609 20.5459 7.49609C19.6389 7.49609 18.9007 8.23433 18.9007 9.14125V14.0767H18.6458C18.2784 14.0767 17.9373 14.2594 17.7332 14.5654L16.9621 15.7219H14.9541C14.5184 15.7219 14.1149 15.5053 13.8731 15.1433C13.4278 14.476 12.6826 14.0767 11.8796 14.0767H6.48968C5.16852 14.0767 4.09424 15.1516 4.09424 16.4722V20.4555C4.09424 21.7761 5.16852 22.8509 6.48968 22.8509H11.8796C12.6826 22.8509 13.4278 22.4517 13.8731 21.7844C14.1144 21.4224 14.5184 21.2058 14.9541 21.2058H16.7374C16.7636 21.3707 16.806 21.5332 16.8804 21.6824L18.8426 25.6065C18.8803 25.6823 18.9007 25.7666 18.9007 25.8518V27.238H17.8039V28.0245L14.5444 29.98L17.8039 31.9355V32.7219H18.9007V34.9154H27.6749V32.7219H28.7717V31.9355L32.0312 29.98L28.7717 28.0245V27.238H27.6749V25.8039C27.6749 25.7342 27.688 25.6652 27.7137 25.6006L28.6549 23.2496C28.7323 23.0539 28.7717 22.8488 28.7717 22.6399V21.2058H33.1588C33.7636 21.2058 34.2555 20.7139 34.2555 20.109V16.8187C34.2555 16.2138 33.7636 15.7219 33.1588 15.7219ZM7.38456 20.109H8.48134V21.7542H7.38456V20.109ZM7.38456 17.9154H8.48134V19.0122H7.38456V17.9154ZM6.28779 19.0122H5.19101V17.9154H6.28779V19.0122ZM7.38456 15.1735H8.48134V16.8187H7.38456V15.1735ZM10.6749 19.0122H9.57811V17.9154H10.6749V19.0122ZM9.57811 20.109H10.6749V21.7542H9.57811V20.109ZM10.6749 16.8187H9.57811V15.1735H10.6749V16.8187ZM6.28779 15.1939V16.8187H5.19101V16.4722C5.19101 15.8255 5.66817 15.2919 6.28779 15.1939ZM5.19101 20.4555V20.109H6.28779V21.7338C5.66817 21.6358 5.19101 21.1021 5.19101 20.4555ZM12.9605 21.1755C12.7193 21.5375 12.3152 21.7542 11.8796 21.7542H11.7717V15.1735H11.8796C12.3152 15.1735 12.7188 15.3901 12.9605 15.7522C13.3231 16.2955 13.8846 16.6564 14.5136 16.7737V17.9154H15.6104V16.8187H16.7071V20.109H15.6104V19.0122H14.5136V20.154C13.8846 20.2713 13.3231 20.6327 12.9605 21.1755ZM22.5672 19.5429C22.6248 19.5491 22.6802 19.5606 22.7394 19.5606C23.1622 19.5606 23.5443 19.3957 23.8362 19.133C24.128 19.3962 24.5101 19.5606 24.933 19.5606C25.8399 19.5606 26.5781 18.8224 26.5781 17.9154V16.8187H28.7717V20.109H22.8398C22.7587 19.9154 22.6692 19.7261 22.5672 19.5429ZM23.2878 17.9154C23.2878 18.218 23.0414 18.4638 22.7394 18.4638C22.4374 18.4638 22.191 18.218 22.191 17.9154V17.3671H23.2878V17.9154ZM21.0942 17.8359C20.9845 17.7505 20.8787 17.6616 20.7625 17.5837L20.4379 17.3671H21.0942V17.8359ZM29.8684 16.8187H30.9652V20.109H29.8684V16.8187ZM26.5781 9.14125C26.5781 8.83868 26.8245 8.59287 27.1265 8.59287C27.4285 8.59287 27.6749 8.83868 27.6749 9.14125V15.7219H26.5781V9.14125ZM24.933 12.98C25.235 12.98 25.4813 13.2258 25.4813 13.5284V17.9154C25.4813 18.218 25.235 18.4638 24.933 18.4638C24.6309 18.4638 24.3846 18.218 24.3846 17.9154V16.9394C24.7185 16.6382 24.933 16.206 24.933 15.7219C24.933 15.2378 24.7185 14.8061 24.3846 14.5044V13.5284C24.3846 13.2258 24.6309 12.98 24.933 12.98ZM22.7394 12.98C23.0414 12.98 23.2878 13.2258 23.2878 13.5284V14.0767H22.191V13.5284C22.191 13.2258 22.4374 12.98 22.7394 12.98ZM19.9975 9.14125C19.9975 8.83868 20.2438 8.59287 20.5459 8.59287C20.8479 8.59287 21.0942 8.83868 21.0942 9.14125V14.0767H19.9975V9.14125ZM16.6764 29.98L17.8039 29.3033V30.6566L16.6764 29.98ZM26.5781 33.8187H19.9975V32.7219H26.5781V33.8187ZM27.6749 31.6251H18.9007V28.3348H27.6749V31.6251ZM29.8992 29.98L28.7717 30.6566V29.3033L29.8992 29.98ZM27.6749 22.6399C27.6749 22.7095 27.6618 22.7786 27.6361 22.8432L26.6949 25.1942C26.6175 25.3899 26.5781 25.595 26.5781 25.8039V27.238H19.9975V25.8518C19.9975 25.5977 19.9378 25.3433 19.8242 25.1162L17.862 21.1921C17.8243 21.1163 17.8039 21.032 17.8039 20.9468V16.4358L18.6458 15.1735H23.2878C23.5898 15.1735 23.8362 15.4193 23.8362 15.7219C23.8362 16.0245 23.5898 16.2703 23.2878 16.2703H18.9007V17.6605L20.1538 18.4957C21.4292 19.3461 22.191 20.7693 22.191 22.3025H23.2878C23.2878 21.929 23.2412 21.5643 23.1705 21.2058H27.6749V22.6399ZM33.1588 20.109H32.062V16.8187H33.1588V20.109Z" fill="black"/>
</g>
<defs>
<clipPath id="clip0">
<rect width="34" height="34" fill="white" transform="translate(0.255371 0.915039)"/>
</clipPath>
</defs>
</svg>
