<svg width="34" height="32" viewBox="0 0 34 32" fill="none" xmlns="http://www.w3.org/2000/svg">
<g clip-path="url(#clip0)">
<path d="M21.9229 3.46094V4.91406C21.9229 6.11531 21.4021 7.21 20.5616 7.99469C19.7263 8.78422 18.561 9.27344 17.2822 9.27344C14.7196 9.27344 12.6416 7.32141 12.6416 4.91406V3.46094H13.1572H21.9229Z" fill="#CCD1D9"/>
<path d="M16.4314 29.5688L16.7666 30.5859H16.251C16.251 30.5859 9.03223 27.1953 9.03223 22.8359C12.5643 23.7417 15.3589 26.2798 16.4314 29.5688Z" fill="#FCD770"/>
<path d="M25.5322 22.8359C25.5322 27.1953 18.3135 30.5859 18.3135 30.5859H17.7979L18.133 29.5688C19.2055 26.2798 22.0002 23.7417 25.5322 22.8359Z" fill="#FCD770"/>
<path d="M24.3566 18.7817C24.9908 19.6923 25.5322 21.0098 25.5322 22.8359C22.0002 23.7417 19.2055 26.2798 18.133 29.5688L17.7979 30.5859H16.7666L16.4314 29.5688C15.3589 26.2798 12.5643 23.7417 9.03223 22.8359C9.03223 21.0098 9.57363 19.6923 10.2079 18.7817C11.5949 16.7716 12.1672 14.3448 11.6 12.0102C10.8421 8.91984 9.54785 8.28047 9.54785 5.88281V2.00781C9.54785 1.74141 9.77988 1.52344 10.0635 1.52344H12.126C12.4096 1.52344 12.6416 1.74141 12.6416 2.00781V3.46094V4.91406C12.6416 7.32141 14.7196 9.27344 17.2822 9.27344C18.561 9.27344 19.7263 8.78422 20.5616 7.99469C21.4021 7.21 21.9229 6.11531 21.9229 4.91406V3.46094V2.00781C21.9229 1.74141 22.1549 1.52344 22.4385 1.52344H24.501C24.7846 1.52344 25.0166 1.74141 25.0166 2.00781V5.88281C25.0166 8.28047 23.7224 8.91984 22.9644 12.0102C22.3972 14.3448 22.9696 16.7716 24.3566 18.7817Z" fill="#FFEAA7"/>
<path d="M20.8916 15.8319C20.8916 16.2823 20.7008 16.7183 20.3554 17.0428L17.2822 19.9297L14.2091 17.0428C13.8636 16.7183 13.6729 16.2823 13.6729 15.8319C13.6729 15.3572 13.8791 14.9309 14.2091 14.6209C14.5391 14.3109 14.9929 14.1172 15.4982 14.1172C15.9777 14.1172 16.4418 14.2964 16.7872 14.6209L17.2822 15.0859L17.7772 14.6209C18.1227 14.2964 18.5868 14.1172 19.0663 14.1172C19.5716 14.1172 20.0254 14.3109 20.3554 14.6209C20.6854 14.9309 20.8916 15.3572 20.8916 15.8319Z" fill="#EF7385"/>
<path d="M24.7902 18.5153C23.4171 16.5289 22.9479 14.2581 23.4692 12.1206C23.7951 10.7842 24.2277 9.92056 24.6093 9.15864C25.1043 8.16906 25.5322 7.31463 25.5322 5.88281V2.00781C25.5322 1.47355 25.0697 1.03906 24.501 1.03906H22.4385C21.8697 1.03906 21.4072 1.47355 21.4072 2.00781V2.97656H13.1572V2.00781C13.1572 1.47355 12.6947 1.03906 12.126 1.03906H10.0635C9.49474 1.03906 9.03223 1.47355 9.03223 2.00781V5.88281C9.03223 7.31463 9.4602 8.16906 9.9552 9.15864C10.3368 9.92056 10.7694 10.7842 11.0952 12.1206C11.6171 14.2581 11.1478 16.5294 9.77421 18.5153C8.93993 19.7229 8.5166 21.1765 8.5166 22.8359C8.5166 27.4419 15.7142 30.8756 16.0205 31.0195L16.1293 31.0703H18.4357L18.5445 31.0195C18.8502 30.8756 26.0479 27.4419 26.0479 22.8359C26.0479 21.1765 25.6245 19.7229 24.7902 18.5153ZM13.1572 3.94531H21.4072V4.91406C21.4072 7.05064 19.5566 8.78906 17.2822 8.78906C15.0078 8.78906 13.1572 7.05064 13.1572 4.91406V3.94531ZM9.61334 23.516C12.6468 24.5201 14.9841 26.7909 15.9406 29.7102L16.0066 29.9112C14.5463 29.1377 10.196 26.5981 9.61334 23.516ZM17.638 29.4254L17.4168 30.1016H17.1476L16.9264 29.4254C15.8318 26.0837 13.0928 23.516 9.5592 22.4819C9.61437 21.1619 9.97427 20.0057 10.6394 19.0438C12.1657 16.8355 12.6849 14.3003 12.1002 11.9046C11.7496 10.4665 11.2922 9.55341 10.8885 8.74644C10.4275 7.82564 10.0635 7.09811 10.0635 5.88281V2.00781H12.126V4.91406C12.126 7.58491 14.4391 9.75781 17.2822 9.75781C20.1254 9.75781 22.4385 7.58491 22.4385 4.91406V2.00781H24.501V5.88281C24.501 7.09811 24.1369 7.82564 23.6755 8.74595C23.2722 9.55244 22.8144 10.466 22.4637 11.9041C21.879 14.2998 22.3983 16.8355 23.9245 19.0433C24.5897 20.0052 24.9501 21.1615 25.0047 22.4814C21.4722 23.516 18.7327 26.0832 17.638 29.4254ZM18.5584 29.9107L18.6244 29.7097C19.5804 26.7904 21.9182 24.5201 24.9516 23.5155C24.3685 26.5981 20.0181 29.1377 18.5584 29.9107Z" fill="black"/>
<path d="M21.4072 15.8295C21.4072 14.618 20.3584 13.6328 19.0689 13.6328C18.4439 13.6328 17.8566 13.8614 17.4153 14.2761L17.2822 14.401L17.1492 14.2761C16.7078 13.8614 16.1205 13.6328 15.4956 13.6328C14.206 13.6328 13.1572 14.618 13.1572 15.8295C13.1572 16.4165 13.4006 16.9682 13.842 17.3828L17.2822 20.6146L20.7225 17.3828C21.1639 16.9682 21.4072 16.4165 21.4072 15.8295ZM19.9934 16.6979L17.2822 19.2448L14.5711 16.6979C14.3246 16.4664 14.1885 16.1579 14.1885 15.8295C14.1885 15.1528 14.7753 14.6016 15.4956 14.6016C15.8452 14.6016 16.1731 14.7294 16.4201 14.961L17.2822 15.7708L18.1444 14.961C18.3908 14.7294 18.7193 14.6016 19.0689 14.6016C19.7892 14.6016 20.376 15.1528 20.376 15.8295C20.376 16.1579 20.2399 16.4664 19.9934 16.6979Z" fill="black"/>
</g>
<defs>
<clipPath id="clip0">
<rect width="33" height="31" fill="white" transform="translate(0.782227 0.554688)"/>
</clipPath>
</defs>
</svg>
