<svg width="37" height="35" viewBox="0 0 37 35" fill="none" xmlns="http://www.w3.org/2000/svg">
<g clip-path="url(#clip0)">
<path d="M22.1929 16.4923H14.3179H10.3804C10.3354 16.4923 10.2904 16.4923 10.2454 16.487C8.75475 16.4233 7.56787 15.2598 7.56787 13.8361C7.56787 12.7098 8.31037 11.7536 9.36225 11.3711C9.69412 12.4867 10.7797 13.3048 12.0679 13.3048H23.3179H24.4429C25.731 13.3048 26.8166 12.4867 27.1485 11.3711C28.2004 11.7536 28.9429 12.7098 28.9429 13.8361C28.9429 15.2598 27.756 16.4233 26.2654 16.487C26.2204 16.4923 26.1754 16.4923 26.1304 16.4923H22.1929Z" fill="#FCD770"/>
<path d="M9.36225 11.3711C9.29475 11.1427 9.25537 10.8983 9.25537 10.6486C9.25537 9.52234 9.99787 8.56609 11.0497 8.18359C11.3816 9.29922 12.4672 10.1173 13.7554 10.1173H14.8804H22.7554C24.0435 10.1173 25.1291 9.29922 25.461 8.18359C26.5129 8.56609 27.2554 9.52234 27.2554 10.6486C27.2554 10.8983 27.216 11.1427 27.1485 11.3711C26.8166 12.4867 25.731 13.3048 24.4429 13.3048H23.3179H12.0679C10.7797 13.3048 9.69412 12.4867 9.36225 11.3711Z" fill="#FFEAA7"/>
<path d="M11.0497 8.18344C10.9822 7.955 10.9429 7.71062 10.9429 7.46094C10.9429 5.99469 12.2029 4.80469 13.7554 4.80469H15.4991C15.7579 6.01594 16.8941 6.92969 18.2554 6.92969C19.6166 6.92969 20.7529 6.01594 21.0116 4.80469H22.7554C24.3079 4.80469 25.5679 5.99469 25.5679 7.46094C25.5679 7.71062 25.5285 7.955 25.461 8.18344C25.1291 9.29906 24.0435 10.1172 22.7554 10.1172H14.8804H13.7554C12.4672 10.1172 11.3816 9.29906 11.0497 8.18344Z" fill="#FFEAA7"/>
<path d="M21.0679 4.27344C21.0679 4.45406 21.051 4.63469 21.0116 4.80469C20.7529 6.01594 19.6166 6.92969 18.2554 6.92969C16.8941 6.92969 15.7579 6.01594 15.4991 4.80469C15.4597 4.63469 15.4429 4.45406 15.4429 4.27344C15.4429 2.80719 16.7029 1.61719 18.2554 1.61719C19.8079 1.61719 21.0679 2.80719 21.0679 4.27344Z" fill="#EF7385"/>
<path d="M10.8643 18.0117L13.9974 25.752L14.003 25.7573L20.1568 31.5692L21.5574 28.1108L10.8643 18.0117Z" fill="#D3A06C"/>
<path d="M23.3179 20.2109L20.7866 17.8203L22.1929 16.4922H14.3179L22.9579 24.6522L25.6466 18.0116L23.3179 20.2109Z" fill="#D3A06C"/>
<path d="M26.1304 16.4916C26.1754 16.4916 26.2204 16.4916 26.2654 16.4863L25.6466 18.011L23.3179 20.2104L20.7866 17.8198L22.1929 16.4916H26.1304Z" fill="#CF9E76"/>
<path d="M15.7242 27.3828L14.9536 28.1106L16.7311 32.4988C16.973 33.0991 17.5805 33.4922 18.2555 33.4922C18.9305 33.4922 19.538 33.0991 19.7799 32.4988L20.1567 31.5691L15.7242 27.3828Z" fill="#CF9E76"/>
<path d="M14.3176 16.4916H10.3801C10.3351 16.4916 10.2901 16.4916 10.2451 16.4863L10.8639 18.011L20.7864 27.3823L22.5076 25.7566L22.5133 25.7513L22.9576 24.6516L14.3176 16.4916Z" fill="#CF9E76"/>
<path d="M29.5054 13.8359C29.5054 12.6677 28.8433 11.6249 27.7852 11.066C27.8044 10.9289 27.8179 10.7903 27.8179 10.6484C27.8179 9.48022 27.1558 8.43738 26.0977 7.8785C26.1169 7.74144 26.1304 7.60278 26.1304 7.46094C26.1304 5.70303 24.6167 4.27344 22.7554 4.27344H21.6304C21.6304 2.51553 20.1167 1.08594 18.2554 1.08594C16.5988 1.08594 15.2207 2.21962 14.9366 3.70766C12.6636 3.41919 10.8388 1.30747 10.8191 1.28462L9.9405 1.94869C10.0131 2.03422 11.304 3.53022 13.1901 4.32125C11.5982 4.57678 10.3804 5.88525 10.3804 7.46094C10.3804 7.60278 10.3939 7.74144 10.413 7.8785C9.35493 8.43738 8.69287 9.48022 8.69287 10.6484C8.69287 10.7903 8.70637 10.9289 8.7255 11.066C7.66743 11.6249 7.00537 12.6677 7.00537 13.8359C7.00537 15.4207 8.23725 16.735 9.84318 16.9793L16.2034 32.6895C16.5262 33.4874 17.3509 34.0234 18.2554 34.0234C19.1599 34.0234 19.9845 33.4874 20.3068 32.6895L26.6676 16.9793C28.2735 16.735 29.5054 15.4207 29.5054 13.8359ZM18.2554 2.14844C19.4962 2.14844 20.5054 3.1015 20.5054 4.27344C20.5054 5.44537 19.4962 6.39844 18.2554 6.39844C17.0145 6.39844 16.0054 5.44537 16.0054 4.27344C16.0054 3.1015 17.0145 2.14844 18.2554 2.14844ZM17.46 20.2109L15.7241 21.8504L13.9882 20.2109L15.7241 18.5715L17.46 20.2109ZM20.7866 18.5715L22.5225 20.2109L20.7866 21.8504L19.0507 20.2109L20.7866 18.5715ZM19.9912 22.6016L18.2554 24.241L16.5195 22.6016L18.2554 20.9621L19.9912 22.6016ZM14.9287 22.6016L13.7672 23.6986L12.3289 20.1461L14.9287 22.6016ZM15.7241 23.3528L17.46 24.9922L15.7241 26.6316L14.4787 25.4554L14.2076 24.7855L15.7241 23.3528ZM15.7241 28.134L17.46 29.7734L16.5679 30.616L15.6077 28.2445L15.7241 28.134ZM16.5195 27.3828L18.2554 25.7434L19.9912 27.3828L18.2554 29.0222L16.5195 27.3828ZM20.7866 28.134L20.9031 28.244L19.9429 30.6155L19.0507 29.7734L20.7866 28.134ZM22.0314 25.456L20.7866 26.6316L19.0507 24.9922L20.7866 23.3528L22.3031 24.785L22.0314 25.456ZM21.582 22.6016L24.1813 20.1461L22.743 23.6981L21.582 22.6016ZM25.1668 17.7135L23.3179 19.4597L21.582 17.8203L22.4257 17.0234H25.4458L25.1668 17.7135ZM18.2554 19.4597L15.6757 17.0234H20.835L18.2554 19.4597ZM14.085 17.0234L14.9287 17.8203L13.1929 19.4597L11.3439 17.7135L11.0649 17.0234H14.085ZM18.2554 32.9609C17.8144 32.9609 17.4116 32.6996 17.2541 32.3102L17.0083 31.7029L18.2554 30.5246L19.5024 31.7024L19.2561 32.3102C19.0991 32.6996 18.6964 32.9609 18.2554 32.9609ZM26.1304 15.9609H10.3804C9.1395 15.9609 8.13037 15.0079 8.13037 13.8359C8.13037 13.1368 8.49037 12.5083 9.07537 12.1168C9.639 13.1368 10.7674 13.8359 12.0679 13.8359H23.3179V12.7734H12.0679C10.827 12.7734 9.81787 11.8204 9.81787 10.6484C9.81787 9.94931 10.1779 9.32084 10.7629 8.92931C11.3265 9.94931 12.4549 10.6484 13.7554 10.6484V9.58594C12.5145 9.58594 11.5054 8.63287 11.5054 7.46094C11.5054 6.289 12.5145 5.33594 13.7554 5.33594H15.0772C15.5419 6.57216 16.7889 7.46094 18.2554 7.46094C19.7218 7.46094 20.9689 6.57216 21.4335 5.33594H22.7554C23.9962 5.33594 25.0054 6.289 25.0054 7.46094C25.0054 8.63287 23.9962 9.58594 22.7554 9.58594H14.8804V10.6484H22.7554C24.0559 10.6484 25.1842 9.94931 25.7479 8.92931C26.3329 9.32084 26.6929 9.94931 26.6929 10.6484C26.6929 11.8204 25.6837 12.7734 24.4429 12.7734V13.8359C25.7434 13.8359 26.8717 13.1368 27.4354 12.1168C28.0204 12.5083 28.3804 13.1368 28.3804 13.8359C28.3804 15.0079 27.3712 15.9609 26.1304 15.9609Z" fill="black"/>
</g>
<defs>
<clipPath id="clip0">
<rect width="36" height="34" fill="white" transform="translate(0.255371 0.554688)"/>
</clipPath>
</defs>
</svg>
