<svg width="40" height="38" viewBox="0 0 40 38" fill="none" xmlns="http://www.w3.org/2000/svg">
<g clip-path="url(#clip0)">
<path d="M35.5991 7.77344H3.91162C2.5649 7.77344 1.47412 8.80828 1.47412 10.0859V19.3359V28.5859C1.47412 29.8636 2.5649 30.8984 3.91162 30.8984H35.5991C36.9458 30.8984 38.0366 29.8636 38.0366 28.5859V19.3359V10.0859C38.0366 8.80828 36.9458 7.77344 35.5991 7.77344Z" fill="#969FAA"/>
<path d="M3.91162 12.3984H6.34912V14.7109H3.91162V12.3984Z" fill="#E6E9ED"/>
<path d="M3.91162 23.9609H6.34912V26.2734H3.91162V23.9609Z" fill="#E6E9ED"/>
<path d="M34.3804 14.7109C35.0535 14.7109 35.5991 14.1933 35.5991 13.5547C35.5991 12.9161 35.0535 12.3984 34.3804 12.3984C33.7073 12.3984 33.1616 12.9161 33.1616 13.5547C33.1616 14.1933 33.7073 14.7109 34.3804 14.7109Z" fill="#FCD770"/>
<path d="M34.3804 26.2734C35.0535 26.2734 35.5991 25.7558 35.5991 25.1172C35.5991 24.4786 35.0535 23.9609 34.3804 23.9609C33.7073 23.9609 33.1616 24.4786 33.1616 25.1172C33.1616 25.7558 33.7073 26.2734 34.3804 26.2734Z" fill="#FCD770"/>
<path d="M30.1147 10.0859H9.396C9.06084 10.0859 8.78662 10.3461 8.78662 10.6641V19.3359V22.8047H12.4429L14.271 24.5391H17.9272L19.7554 26.2734H30.7241V19.3359V10.6641C30.7241 10.3461 30.4499 10.0859 30.1147 10.0859Z" fill="#69D6F4"/>
<path d="M17.9272 13.7859L14.9474 15.8672L17.9272 17.9484C17.2447 18.7867 16.1662 19.3359 14.9474 19.3359C12.8938 19.3359 11.2241 17.7808 11.2241 15.8672C11.2241 13.9536 12.8938 12.3984 14.9474 12.3984C16.1662 12.3984 17.2447 12.9477 17.9272 13.7859Z" fill="#FF826E"/>
<path d="M28.2866 21.6484V22.8047H25.8491H23.4116H20.9741V21.6484C20.9741 19.7348 22.6133 18.1797 24.6304 18.1797C25.6419 18.1797 26.556 18.567 27.2141 19.1972C27.8783 19.8216 28.2866 20.6888 28.2866 21.6484Z" fill="#FFEAA7"/>
<path d="M26.3793 24.3078C26.4341 24.4639 26.4585 24.62 26.4585 24.7819C26.4585 25.6028 25.7516 26.2734 24.8863 26.2734H24.3744C23.9418 26.2734 23.5457 26.1058 23.2654 25.8341C22.979 25.5681 22.8022 25.1923 22.8022 24.7819C22.8022 24.62 22.8266 24.4639 22.8815 24.3078L23.4116 22.8047H25.8491L26.3793 24.3078Z" fill="#FCD770"/>
<path d="M30.7241 26.2734V28.0078C30.7241 28.3258 30.4499 28.5859 30.1147 28.5859H9.396C9.06084 28.5859 8.78662 28.3258 8.78662 28.0078V22.8047H12.4429L14.271 24.5391H17.9272L19.7554 26.2734H24.3744H24.8863H30.7241Z" fill="#CF9E76"/>
<path d="M35.5991 7.19531H3.91162C2.23157 7.19531 0.864746 8.49205 0.864746 10.0859V28.5859C0.864746 30.1798 2.23157 31.4766 3.91162 31.4766H35.5991C37.2792 31.4766 38.646 30.1798 38.646 28.5859V10.0859C38.646 8.49205 37.2792 7.19531 35.5991 7.19531ZM37.4272 28.5859C37.4272 29.5422 36.607 30.3203 35.5991 30.3203H3.91162C2.90371 30.3203 2.0835 29.5422 2.0835 28.5859V10.0859C2.0835 9.12972 2.90371 8.35156 3.91162 8.35156H35.5991C36.607 8.35156 37.4272 9.12972 37.4272 10.0859V28.5859Z" fill="black"/>
<path d="M30.1147 9.50781H9.396C8.72386 9.50781 8.17725 10.0264 8.17725 10.6641V28.0078C8.17725 28.6455 8.72386 29.1641 9.396 29.1641H30.1147C30.7869 29.1641 31.3335 28.6455 31.3335 28.0078V10.6641C31.3335 10.0264 30.7869 9.50781 30.1147 9.50781ZM30.1147 10.6641L30.1154 25.6953H26.8333C26.9789 25.4184 27.0679 25.1108 27.0679 24.7813C27.0679 24.5593 27.0301 24.339 26.9557 24.1263L26.6949 23.3828H28.896V21.6484C28.896 19.4175 26.9826 17.6016 24.6304 17.6016C22.2782 17.6016 20.3647 19.4175 20.3647 21.6484V23.3828H22.5658L22.3044 24.1274C22.2307 24.339 22.1929 24.5593 22.1929 24.7813C22.1929 25.1108 22.2818 25.4184 22.4269 25.6953H20.0077L18.1795 23.9609H14.5233L12.6952 22.2266H9.396V10.6641H30.1147ZM23.4116 24.7813C23.4116 24.683 23.4281 24.5853 23.461 24.4922L23.851 23.3828H25.4098L25.7992 24.4911C25.8327 24.5853 25.8491 24.683 25.8491 24.7813C25.8491 25.2854 25.4171 25.6953 24.8857 25.6953H24.375C23.8437 25.6953 23.4116 25.2854 23.4116 24.7813ZM21.5835 22.2266V21.6484C21.5835 20.0545 22.9503 18.7578 24.6304 18.7578C26.3104 18.7578 27.6772 20.0545 27.6772 21.6484V22.2266H21.5835ZM9.396 28.0078V23.3828H12.1906L14.0187 25.1172H17.675L19.5031 26.8516H24.375H24.8857H30.1154V28.0078H9.396Z" fill="black"/>
<path d="M5.73975 17.6016H4.521V18.7578H3.30225V19.9141H4.521V21.0703H5.73975V19.9141H6.9585V18.7578H5.73975V17.6016Z" fill="black"/>
<path d="M33.771 17.6016H34.9897V18.7578H33.771V17.6016Z" fill="black"/>
<path d="M34.9897 18.7578H36.2085V19.9141H34.9897V18.7578Z" fill="black"/>
<path d="M32.5522 18.7578H33.771V19.9141H32.5522V18.7578Z" fill="black"/>
<path d="M33.771 19.9141H34.9897V21.0703H33.771V19.9141Z" fill="black"/>
<path d="M34.3804 23.3828C33.3725 23.3828 32.5522 24.161 32.5522 25.1172C32.5522 26.0734 33.3725 26.8516 34.3804 26.8516C35.3883 26.8516 36.2085 26.0734 36.2085 25.1172C36.2085 24.161 35.3883 23.3828 34.3804 23.3828ZM34.3804 25.6953C34.0446 25.6953 33.771 25.4363 33.771 25.1172C33.771 24.7981 34.0446 24.5391 34.3804 24.5391C34.7161 24.5391 34.9897 24.7981 34.9897 25.1172C34.9897 25.4363 34.7161 25.6953 34.3804 25.6953Z" fill="black"/>
<path d="M34.3804 11.8203C33.3725 11.8203 32.5522 12.5985 32.5522 13.5547C32.5522 14.5109 33.3725 15.2891 34.3804 15.2891C35.3883 15.2891 36.2085 14.5109 36.2085 13.5547C36.2085 12.5985 35.3883 11.8203 34.3804 11.8203ZM34.3804 14.1328C34.0446 14.1328 33.771 13.8738 33.771 13.5547C33.771 13.2356 34.0446 12.9766 34.3804 12.9766C34.7161 12.9766 34.9897 13.2356 34.9897 13.5547C34.9897 13.8738 34.7161 14.1328 34.3804 14.1328Z" fill="black"/>
<path d="M3.30225 26.8516H6.9585V23.3828H3.30225V26.8516ZM4.521 24.5391H5.73975V25.6953H4.521V24.5391Z" fill="black"/>
<path d="M3.30225 15.2891H6.9585V11.8203H3.30225V15.2891ZM4.521 12.9766H5.73975V14.1328H4.521V12.9766Z" fill="black"/>
<path d="M14.9498 19.9141C16.3209 19.9141 17.5817 19.3244 18.4111 18.297L18.7889 17.8293L15.9779 15.8672L18.7883 13.9045L18.4105 13.4367C17.5823 12.41 16.3209 11.8203 14.9498 11.8203C12.5593 11.8203 10.6147 13.6362 10.6147 15.8672C10.6147 18.0982 12.5593 19.9141 14.9498 19.9141ZM14.9498 12.9766C15.725 12.9766 16.4513 13.2373 17.0162 13.7067L13.9218 15.8672L17.0162 18.0276C16.4513 18.4971 15.725 18.7578 14.9498 18.7578C13.2314 18.7578 11.8335 17.4611 11.8335 15.8672C11.8335 14.2733 13.2314 12.9766 14.9498 12.9766Z" fill="black"/>
<path d="M19.7554 15.2891H20.9741V16.4453H19.7554V15.2891Z" fill="black"/>
<path d="M17.3179 15.2891H18.5366V16.4453H17.3179V15.2891Z" fill="black"/>
<path d="M22.1929 15.2891H23.4116V16.4453H22.1929V15.2891Z" fill="black"/>
</g>
<defs>
<clipPath id="clip0">
<rect width="39" height="37" fill="white" transform="translate(0.255371 0.835938)"/>
</clipPath>
</defs>
</svg>
