<svg width="34" height="35" viewBox="0 0 34 35" fill="none" xmlns="http://www.w3.org/2000/svg">
<path d="M7.50822 11.2758L7.173 11.3889C6.38018 11.6581 5.75763 12.288 5.49158 13.0903L5.37984 13.4295L5.2681 13.0903C5.00206 12.288 4.37951 11.6581 3.58668 11.3889L3.25146 11.2758L3.58668 11.1627C4.37951 10.8935 5.00206 10.2635 5.2681 9.46128L5.37984 9.12207L5.49158 9.46128C5.75763 10.2635 6.38018 10.8935 7.173 11.1627L7.50822 11.2758Z" fill="#FFC729"/>
<path d="M29.8559 4.81485L29.5207 4.92792C28.7278 5.19713 28.1053 5.8271 27.8392 6.62936L27.7275 6.96857L27.6158 6.62936C27.3497 5.8271 26.7272 5.19713 25.9343 4.92792L25.5991 4.81485L25.9343 4.70178C26.7272 4.43256 27.3497 3.8026 27.6158 3.00034L27.7275 2.66113L27.8392 3.00034C28.1053 3.8026 28.7278 4.43256 29.5207 4.70178L29.8559 4.81485Z" fill="#FFC729"/>
<path d="M31.9843 26.352L31.6491 26.465C30.8563 26.7342 30.2337 27.3642 29.9677 28.1665L29.8559 28.5057L29.7442 28.1665C29.4781 27.3642 28.8556 26.7342 28.0628 26.465L27.7275 26.352C28.7332 26.0127 29.5207 25.2159 29.8559 24.1982L29.9677 24.5375C30.2337 25.3397 30.8563 25.9697 31.6491 26.2389L31.9843 26.352Z" fill="#FFC729"/>
<path d="M26.5996 16.988L26.5038 16.8265C26.0569 16.105 25.4396 15.5235 24.7266 15.1251C24.0136 14.7266 23.2048 14.5059 22.3588 14.5059C20.7253 14.5059 19.2035 15.3297 18.2989 16.708L17.6178 17.7364H16.5536L15.8726 16.708C15.4203 16.0188 14.8137 15.4696 14.1167 15.0874C13.4196 14.7105 12.6268 14.5059 11.8127 14.5059C10.1259 14.5059 8.56158 15.3835 7.66767 16.8265L7.57189 16.988C6.83228 18.1779 6.44385 19.5617 6.44385 20.967C6.44385 23.0292 7.27924 24.9998 8.76378 26.4213L16.1652 33.5178C16.4153 33.7547 16.7452 33.8893 17.0857 33.8893C17.4263 33.8893 17.7562 33.7547 18.0063 33.5178L25.4077 26.4213C26.1526 25.7106 26.7273 24.8652 27.1264 23.9338C27.5201 23.0077 27.7276 22.0008 27.7276 20.967C27.7276 19.5617 27.3392 18.1779 26.5996 16.988Z" fill="#FF826E"/>
<path d="M22.4069 5.35254C22.4069 5.35254 22.4069 9.65997 18.1501 9.65997H17.0859C17.0859 8.04468 18.1501 5.35254 22.4069 5.35254Z" fill="#B4DD7F"/>
<path d="M17.0857 5.89142V6.42985H16.0215C12.2969 6.42985 12.2969 1.58398 12.2969 1.58398C17.0857 1.58398 17.0857 5.89142 17.0857 5.89142Z" fill="#B4DD7F"/>
<path d="M13.3613 9.66016C17.086 9.66016 17.086 12.4708 17.086 12.4708V12.8907H16.2559C13.3613 12.8907 13.3613 9.66016 13.3613 9.66016Z" fill="#B4DD7F"/>
<path d="M14.4252 21.5059L17.0857 29.5823L10.1685 21.5059H14.4252Z" fill="#4FC1E9"/>
<path d="M24.0027 21.5059L17.0854 29.5823L19.7459 21.5059H24.0027Z" fill="#4FC1E9"/>
<path d="M17.6175 17.7373H21.8743L19.7459 21.5063L17.0854 17.7373H17.6175Z" fill="#4FC1E9"/>
<path d="M16.5536 17.7373H17.0857L14.4253 21.5063L12.2969 17.7373H16.5536Z" fill="#4FC1E9"/>
<path d="M19.7462 21.5059L17.0858 29.5823L14.4253 21.5059H19.7462Z" fill="#69D6F4"/>
<path d="M21.8745 17.7363L24.0029 21.5053H19.7461L21.8745 17.7363Z" fill="#69D6F4"/>
<path d="M17.0858 17.7363L19.7462 21.5053H14.4253L17.0858 17.7363Z" fill="#69D6F4"/>
<path d="M12.2968 17.7363L14.4252 21.5053H10.1685L12.2968 17.7363Z" fill="#69D6F4"/>
<path d="M7.34136 11.8986L9.19358 11.2751L7.34243 10.6521C6.7103 10.4389 6.20694 9.929 5.99623 9.28935L5.37953 7.41992L4.76336 9.28935C4.55265 9.929 4.04929 10.4384 3.4177 10.6516L1.56494 11.2751L3.41716 11.898C4.04929 12.1113 4.55265 12.6211 4.76336 13.2608L5.37953 15.1302L5.99569 13.2608C6.2064 12.6211 6.70976 12.1118 7.34136 11.8986ZM5.37953 12.1204C5.15552 11.7893 4.87138 11.5023 4.54414 11.2751C4.87138 11.0479 5.15552 10.7609 5.37953 10.4297C5.60354 10.7609 5.88768 11.0479 6.21492 11.2751C5.88768 11.5023 5.60354 11.7893 5.37953 12.1204Z" fill="black"/>
<path d="M25.7653 5.4371C26.3974 5.65032 26.9008 6.16021 27.1115 6.79986L27.7277 8.66929L28.3438 6.79986C28.5545 6.16021 29.0579 5.65032 29.6895 5.43764L31.5417 4.81414L29.6906 4.19117C29.0579 3.97742 28.5545 3.46806 28.3438 2.82841L27.7277 0.958984L27.1115 2.82841C26.9008 3.46806 26.3974 3.97742 25.7658 4.19064L23.9131 4.81414L25.7653 5.4371ZM27.7277 3.9688C27.9517 4.29994 28.2358 4.58692 28.5631 4.81414C28.2358 5.04135 27.9517 5.32834 27.7277 5.65947C27.5037 5.32834 27.2195 5.04135 26.8923 4.81414C27.2195 4.58692 27.5037 4.29994 27.7277 3.9688Z" fill="black"/>
<path d="M33.6699 26.3511L31.8188 25.7281C31.1867 25.5149 30.6833 25.005 30.4726 24.3654L29.8559 22.4954L29.3515 24.0272C29.071 24.8785 28.4011 25.5564 27.5594 25.8407L26.2829 26.2709C27.545 24.8117 28.2596 22.9186 28.2596 20.9668C28.2596 19.4565 27.8414 17.9817 27.0501 16.7003L26.9528 16.5431C25.9567 14.9305 24.2396 13.9672 22.3603 13.9672C20.5453 13.9672 18.8607 14.8793 17.8534 16.4079L17.6177 16.7654V10.1982H18.1498C21.9378 10.1982 22.9387 7.02848 22.9387 5.35236V4.81393H22.4066C19.9738 4.81393 18.4866 5.66087 17.6177 6.7232V5.89078C17.6177 5.84233 17.557 1.04492 12.2968 1.04492H11.7647V1.58335C11.7647 3.44578 12.6543 6.96764 16.0214 6.96764H16.5535V9.65979V10.1697C15.9283 9.58602 14.9365 9.12136 13.3609 9.12136H12.8289V9.65979C12.8289 10.9633 13.5456 13.4288 16.2577 13.4288H16.5535V16.7654L16.3178 16.4079C15.3111 14.8793 13.6265 13.9672 11.811 13.9672C9.93106 13.9672 8.21453 14.9305 7.21845 16.5425L7.12001 16.7008C6.32985 17.9817 5.91162 19.4565 5.91162 20.9668C5.91162 23.1674 6.81671 25.2968 8.39491 26.8098L15.8011 33.9106C16.1497 34.2434 16.6062 34.4275 17.0856 34.4275C17.565 34.4275 18.0216 34.2434 18.3701 33.9096L25.7758 26.8093C25.9136 26.6768 26.0397 26.5342 26.1674 26.3931L27.8935 26.9741C28.5256 27.1873 29.029 27.6972 29.2397 28.3368L29.8559 30.2062L30.472 28.3368C30.6828 27.6972 31.1861 27.1873 31.8177 26.9746L33.6699 26.3511ZM21.8228 5.91017C21.6595 6.9628 20.9789 9.12136 18.1498 9.12136H17.6581C17.8822 7.62937 19.0666 6.09916 21.8228 5.91017ZM16.0214 5.89078C13.5397 5.89078 12.9869 3.31709 12.864 2.14547C16.4865 2.45668 16.5525 5.74541 16.5535 5.89078H16.0214ZM15.459 20.9668L17.0856 18.6629L18.7122 20.9668H15.459ZM19.0075 22.0437L17.0856 27.8786L15.1637 22.0437H19.0075ZM14.4752 20.5081L13.2136 18.2747H16.0517L14.4752 20.5081ZM12.2968 18.8212L13.5083 20.9668H11.0852L12.2968 18.8212ZM14.0415 22.0437L15.7341 27.1813L11.3337 22.0437H14.0415ZM20.1297 22.0437H22.8376L18.4371 27.1813L20.1297 22.0437ZM20.6629 20.9668L21.8745 18.8212L23.086 20.9668H20.6629ZM19.6961 20.5081L18.1195 18.2747H20.9577L19.6961 20.5081ZM16.2577 12.3519C14.5667 12.3519 14.0841 11.0247 13.9468 10.2257C16.1715 10.441 16.4982 11.8851 16.5455 12.3519H16.2577ZM25.0442 26.028L17.6385 33.1278C17.3389 33.4158 16.8329 33.4153 16.5333 33.1283L9.12707 26.028C7.76012 24.7175 6.97581 22.8728 6.97581 20.9668C6.97581 19.659 7.33817 18.3813 8.02244 17.2726L8.12088 17.1143C8.92115 15.8183 10.3009 15.0441 11.811 15.0441C13.2694 15.0441 14.6231 15.7769 15.4324 17.0056L15.559 17.1978H11.9881L9.51922 21.5693L17.0856 30.4038L24.652 21.5693L22.1831 17.1978H18.6122L18.7388 17.0056C19.5476 15.7769 20.9018 15.0441 22.3603 15.0441C23.8703 15.0441 25.2501 15.8183 26.0514 17.1149L26.1488 17.2721C26.8331 18.3813 27.1954 19.659 27.1954 20.9668C27.1954 22.8728 26.4111 24.7175 25.0442 26.028ZM29.8559 27.1964C29.617 26.8438 29.3105 26.5406 28.9561 26.3075C29.2844 26.0652 29.5739 25.7723 29.8133 25.4406C30.0437 25.7992 30.3433 26.1093 30.6918 26.3511C30.364 26.5783 30.0799 26.8653 29.8559 27.1964Z" fill="black"/>
<path d="M0.59082 8.04492H1.65501V9.12178H0.59082V8.04492Z" fill="black"/>
<path d="M1.65479 16.1211H2.71897V17.198H1.65479V16.1211Z" fill="black"/>
<path d="M3.7832 19.3516H4.84739V20.4284H3.7832V19.3516Z" fill="black"/>
<path d="M3.7832 27.4277H4.84739V28.5046H3.7832V27.4277Z" fill="black"/>
<path d="M2.71924 32.2744H3.78343V33.3513H2.71924V32.2744Z" fill="black"/>
<path d="M0.59082 30.1201H1.65501V31.197H0.59082V30.1201Z" fill="black"/>
<path d="M8.04004 8.04492H9.10423V9.12178H8.04004V8.04492Z" fill="black"/>
<path d="M22.939 1.04492H24.0032V2.12178H22.939V1.04492Z" fill="black"/>
<path d="M30.3882 10.1982H31.4524V11.2751H30.3882V10.1982Z" fill="black"/>
<path d="M24.5352 9.12109H25.5993V10.198H24.5352V9.12109Z" fill="black"/>
<path d="M29.856 17.7363H30.9201V18.8132H29.856V17.7363Z" fill="black"/>
<path d="M28.2598 12.3525H29.324V13.4294H28.2598V12.3525Z" fill="black"/>
<path d="M31.4521 29.043H32.5163V30.1198H31.4521V29.043Z" fill="black"/>
<path d="M32.5166 21.5059H33.5808V22.5827H32.5166V21.5059Z" fill="black"/>
<path d="M32.5166 6.96777H33.5808V8.04463H32.5166V6.96777Z" fill="black"/>
<path d="M2.71924 4.81445H3.78343V5.89131H2.71924V4.81445Z" fill="black"/>
<path d="M11.2324 6.96777H12.2966V8.04463H11.2324V6.96777Z" fill="black"/>
<path d="M4.84766 1.04492H5.91185V2.12178H4.84766V1.04492Z" fill="black"/>
<path d="M9.10449 3.19922H10.1687V4.27608H9.10449V3.19922Z" fill="black"/>
<path d="M6.97607 3.19922H8.04026V4.27608H6.97607V3.19922Z" fill="black"/>
<path d="M8.04004 4.27539H9.10423V5.35225H8.04004V4.27539Z" fill="black"/>
<path d="M8.04004 2.12207H9.10423V3.19893H8.04004V2.12207Z" fill="black"/>
<path d="M2.71924 22.582H3.78343V23.6589H2.71924V22.582Z" fill="black"/>
<path d="M0.59082 22.582H1.65501V23.6589H0.59082V22.582Z" fill="black"/>
<path d="M1.65479 23.6592H2.71897V24.736H1.65479V23.6592Z" fill="black"/>
<path d="M1.65479 21.5059H2.71897V22.5827H1.65479V21.5059Z" fill="black"/>
<path d="M24.5352 29.043H25.5993V30.1198H24.5352V29.043Z" fill="black"/>
<path d="M28.7915 31.1973H29.8557V32.2741H28.7915V31.1973Z" fill="black"/>
<path d="M9.10449 31.1973H10.1687V32.2741H9.10449V31.1973Z" fill="black"/>
<path d="M6.97607 31.1973H8.04026V32.2741H6.97607V31.1973Z" fill="black"/>
<path d="M8.04004 32.2744H9.10423V33.3513H8.04004V32.2744Z" fill="black"/>
<path d="M8.04004 30.1201H9.10423V31.197H8.04004V30.1201Z" fill="black"/>
<path d="M32.5166 14.5059H33.5808V15.5827H32.5166V14.5059Z" fill="black"/>
<path d="M30.3882 14.5059H31.4524V15.5827H30.3882V14.5059Z" fill="black"/>
<path d="M31.4521 15.583H32.5163V16.6599H31.4521V15.583Z" fill="black"/>
<path d="M31.4521 13.4287H32.5163V14.5056H31.4521V13.4287Z" fill="black"/>
</svg>
