<svg width="34" height="35" viewBox="0 0 34 35" fill="none" xmlns="http://www.w3.org/2000/svg">
<g clip-path="url(#clip0)">
<path d="M20.3647 6.92969C20.9319 6.92969 21.4476 7.16875 21.824 7.55125C22.1952 7.93906 22.4272 8.47031 22.4272 9.05469V11.1797H20.3647H18.3022V9.05469C18.3022 7.88063 19.2252 6.92969 20.3647 6.92969Z" fill="#FCD770"/>
<path d="M20.3647 14.3672V15.4297C20.3647 16.0141 19.9007 16.4922 19.3335 16.4922C19.0499 16.4922 18.7921 16.3753 18.6065 16.1787C18.4157 15.9875 18.3022 15.7219 18.3022 15.4297V14.3672H20.3647Z" fill="#FCD770"/>
<path d="M22.4272 14.3672V15.4297C22.4272 15.7219 22.3138 15.9875 22.123 16.1787C21.9374 16.3753 21.6796 16.4922 21.396 16.4922C20.8288 16.4922 20.3647 16.0141 20.3647 15.4297V14.3672H22.4272Z" fill="#FCD770"/>
<path d="M18.3022 14.3672V15.4297C18.3022 16.0141 17.8382 16.4922 17.271 16.4922C16.9874 16.4922 16.7296 16.3753 16.544 16.1787C16.3532 15.9875 16.2397 15.7219 16.2397 15.4297V14.3672H18.3022Z" fill="#FCD770"/>
<path d="M16.2397 14.3672V15.4297C16.2397 16.0141 15.7757 16.4922 15.2085 16.4922C14.9249 16.4922 14.6671 16.3753 14.4815 16.1787C14.2907 15.9875 14.1772 15.7219 14.1772 15.4297V14.3672H16.2397Z" fill="#FCD770"/>
<path d="M18.0238 2.67969C17.9362 2.52031 17.8227 2.37156 17.699 2.23875C17.3226 1.85625 16.8069 1.61719 16.2397 1.61719C15.4508 1.61719 14.7702 2.06875 14.4196 2.74344C14.2649 3.04094 14.1772 3.38094 14.1772 3.74219V4.80469V4.98531V7.99219V10.9991V11.1797H16.2397H18.3022V9.05469V7.99219V5.86719V4.80469V3.74219C18.3022 3.35438 18.1991 2.99312 18.0238 2.67969Z" fill="#FCD770"/>
<path d="M27.5836 7.99219C27.5836 9.1875 27.2021 10.2872 26.5524 11.1744V11.1797H22.4274C24.1341 11.1797 25.5211 9.75063 25.5211 7.99219C25.5211 6.23375 24.1341 4.80469 22.4274 4.80469H20.3649H18.3024V3.74219C18.3024 3.35438 18.1992 2.99312 18.0239 2.67969H22.4274C25.2685 2.67969 27.5836 5.065 27.5836 7.99219Z" fill="#FCD770"/>
<path d="M14.1772 11.1794H11.0835V11.1741C10.4338 10.2869 10.0522 9.18723 10.0522 7.99191C10.0522 5.43129 11.8208 3.28504 14.1721 2.78566C14.2546 2.76973 14.3371 2.75379 14.4196 2.74316C14.2649 3.04066 14.1772 3.38066 14.1772 3.74191V4.80441V4.98504C12.9758 5.42598 12.1147 6.60535 12.1147 7.99191C12.1147 9.37848 12.9758 10.5579 14.1772 10.9988V11.1794Z" fill="#FCD770"/>
<path d="M30.1616 9.64945V15.8969C30.0327 15.8598 29.909 15.8013 29.7955 15.7323L27.5835 14.367H27.0679H22.4272H20.3647H18.3022H16.2397H14.1772H9.53662L3.34912 19.8335V5.71289L9.53662 11.1795H11.0835H14.1772H16.2397H18.3022H20.3647H22.4272H26.5522H27.5835L29.7955 9.81414C29.909 9.74508 30.0327 9.68664 30.1616 9.64945Z" fill="#FFEAA7"/>
<path d="M32.2241 10.1172V15.4297C32.2241 15.7219 31.9921 15.9609 31.7085 15.9609H30.5896C30.4452 15.9609 30.3008 15.9397 30.1616 15.8972V9.64969C30.3008 9.60719 30.4452 9.58594 30.5896 9.58594H31.7085C31.9921 9.58594 32.2241 9.825 32.2241 10.1172Z" fill="#FCD770"/>
<path d="M3.34912 5.71312V19.8338L2.60662 20.4872C2.421 20.6519 2.18381 20.7422 1.93631 20.7422H1.28662V12.7734V4.80469H1.93631C2.18381 4.80469 2.421 4.895 2.60662 5.05969L3.34912 5.71312Z" fill="#FCD770"/>
<path d="M23.9741 18.4844V28.7109L18.3022 33.4922L12.6304 28.7109V18.4844C12.9604 18.5694 13.3058 18.6172 13.6616 18.6172H22.9429C23.2987 18.6172 23.6441 18.5694 23.9741 18.4844Z" fill="#E6E9ED"/>
<path d="M21.396 23.9297L20.3647 27.1172H16.2397L15.2085 23.9297L17.271 24.4609L18.3022 21.8047L19.3335 24.4609L21.396 23.9297Z" fill="#FFC729"/>
<path d="M31.7085 9.05469H30.5901C30.2158 9.05469 29.8486 9.15934 29.5289 9.3575L27.4922 10.6166C27.8898 9.80747 28.0991 8.91709 28.0991 7.99219C28.0991 4.77016 25.5545 2.14844 22.4272 2.14844H18.2888C17.8181 1.50722 17.0787 1.08594 16.2397 1.08594C15.3503 1.08594 14.5645 1.55291 14.1009 2.26106C14.0896 2.26319 14.0782 2.26478 14.0669 2.26744C11.4419 2.82259 9.53662 5.23022 9.53662 7.99219C9.53662 8.92878 9.75061 9.83138 10.1579 10.6484H9.7274L2.94281 4.65753C2.66282 4.40997 2.3055 4.27344 1.93631 4.27344H0.770996V21.2734H1.93631C2.30498 21.2734 2.66282 21.1369 2.94281 20.8893L9.13804 15.4191C9.49021 17.0261 10.6287 18.3255 12.1147 18.8695V28.9627L18.3022 34.1786L24.4897 28.9627V18.8695C26.1145 18.2751 27.3236 16.7769 27.5438 14.9622L29.5289 16.1894C29.8492 16.3875 30.2163 16.4922 30.5906 16.4922H31.7085C32.2772 16.4922 32.7397 16.0157 32.7397 15.4297V10.1172C32.7397 9.53122 32.2772 9.05469 31.7085 9.05469ZM22.4272 3.21094C24.9858 3.21094 27.0679 5.35559 27.0679 7.99219C27.0679 8.94897 26.7941 9.86059 26.28 10.6484H24.9487C25.619 9.97269 26.0366 9.03237 26.0366 7.99219C26.0366 5.94209 24.4176 4.27344 22.4272 4.27344H18.8179V3.74219C18.8179 3.5605 18.7998 3.38253 18.7658 3.21094H22.4272ZM19.8491 8.52344V10.6484H18.8179V9.05469C18.8179 8.176 19.5119 7.46094 20.3647 7.46094C21.2176 7.46094 21.9116 8.176 21.9116 9.05469V10.6484H20.8804V8.52344H19.8491ZM22.9429 10.5948V9.05469C22.9429 7.77225 22.0555 6.69912 20.8804 6.45209V5.33594H22.4272C23.8488 5.33594 25.0054 6.52753 25.0054 7.99219C25.0054 9.27462 24.118 10.3477 22.9429 10.5948ZM19.8491 6.45209C19.466 6.53284 19.119 6.70816 18.8179 6.94297V5.33594H19.8491V6.45209ZM17.7866 7.46094H16.7554V5.33594H17.7866V7.46094ZM15.7241 7.46094H14.6929V5.33594H15.7241V7.46094ZM13.6616 10.1145C13.0253 9.621 12.6304 8.84006 12.6304 7.99219C12.6304 7.14378 13.0253 6.36338 13.6616 5.86984V10.1145ZM14.6929 8.52344H15.7241V10.6484H14.6929V8.52344ZM16.7554 8.52344H17.7866V10.6484H16.7554V8.52344ZM16.2397 2.14844C17.0926 2.14844 17.7866 2.8635 17.7866 3.74219V4.27344H16.7554V3.21094H15.7241V4.27344H14.6929V3.74219C14.6929 2.8635 15.3869 2.14844 16.2397 2.14844ZM10.5679 7.99219C10.5679 5.94422 11.8502 4.1385 13.6874 3.47922C13.6792 3.56687 13.6616 3.65241 13.6616 3.74219V4.64372C12.4174 5.25572 11.5991 6.55144 11.5991 7.99219C11.5991 9.01378 12.0127 9.96206 12.6943 10.6484H11.3557C10.8417 9.86059 10.5679 8.94897 10.5679 7.99219ZM1.93631 20.2109H1.80225V5.33594H1.93631C2.05903 5.33594 2.17814 5.38162 2.27146 5.46344L2.8335 5.95962V19.5872L2.27198 20.0834C2.17814 20.1652 2.05954 20.2109 1.93631 20.2109ZM23.4585 28.4591L18.3022 32.8058L13.146 28.4591V19.1171C13.3156 19.1368 13.4873 19.1484 13.6616 19.1484H22.9429C23.1172 19.1484 23.2889 19.1368 23.4585 19.1171V28.4591ZM22.9429 18.0859H13.6616C11.8471 18.0859 10.3451 16.6973 10.0935 14.8984H13.6616V15.4297C13.6616 16.3084 14.3557 17.0234 15.2085 17.0234C15.606 17.0234 15.9654 16.8635 16.2397 16.6091C16.5141 16.8641 16.8734 17.0234 17.271 17.0234C17.6685 17.0234 18.0279 16.8635 18.3022 16.6091C18.5766 16.8641 18.9359 17.0234 19.3335 17.0234C19.731 17.0234 20.0904 16.8635 20.3647 16.6091C20.6391 16.8641 20.9984 17.0234 21.396 17.0234C22.2488 17.0234 22.9429 16.3084 22.9429 15.4297V14.8984H26.511C26.2594 16.6973 24.7574 18.0859 22.9429 18.0859ZM20.8804 14.8984H21.9116V15.4297C21.9116 15.7229 21.6801 15.9609 21.396 15.9609C21.1119 15.9609 20.8804 15.7229 20.8804 15.4297V14.8984ZM19.8491 15.4297C19.8491 15.7229 19.6176 15.9609 19.3335 15.9609C19.0494 15.9609 18.8179 15.7229 18.8179 15.4297V14.8984H19.8491V15.4297ZM17.7866 15.4297C17.7866 15.7229 17.5551 15.9609 17.271 15.9609C16.9869 15.9609 16.7554 15.7229 16.7554 15.4297V14.8984H17.7866V15.4297ZM15.7241 15.4297C15.7241 15.7229 15.4926 15.9609 15.2085 15.9609C14.9244 15.9609 14.6929 15.7229 14.6929 15.4297V14.8984H15.7241V15.4297ZM27.7263 13.8359H9.34584L3.86475 18.6767V6.87019L9.34584 11.7109H27.7263L29.646 10.5247V15.0227L27.7263 13.8359ZM31.7085 15.4297H30.6772V10.1172H31.7085V15.4297Z" fill="black"/>
<path d="M18.3024 20.375L16.9597 23.834L14.4229 23.1805L15.8681 27.6489H20.7362L22.182 23.18L19.6451 23.8334L18.3024 20.375ZM19.9932 26.5864H16.6112L15.9945 24.6802L17.5826 25.0893L18.3024 23.2353L19.0222 25.0888L20.6104 24.6797L19.9932 26.5864Z" fill="black"/>
</g>
<defs>
<clipPath id="clip0">
<rect width="33" height="34" fill="white" transform="translate(0.255371 0.554688)"/>
</clipPath>
</defs>
</svg>
