<svg width="31" height="31" viewBox="0 0 31 31" fill="none" xmlns="http://www.w3.org/2000/svg">
<g clip-path="url(#clip0)">
<path d="M10.4434 27.0029H20.1208L19.6369 25.0674H10.9272L10.4434 27.0029Z" fill="#D3A06C"/>
<path d="M18.6172 27.0029H20.121L19.6372 25.0674H17.9722L18.6172 27.0029Z" fill="#B27946"/>
<path d="M20.6049 21.1963L23.5081 29.906H20.6049L17.7017 21.1963H20.6049Z" fill="#D3A06C"/>
<path d="M18.1855 22.6479L17.7017 21.1963H20.6049L21.0888 22.6479H18.1855Z" fill="#B27946"/>
<path d="M12.5922 25.0674H10.9272L10.4434 27.0029H11.9472L12.5922 25.0674Z" fill="#B27946"/>
<path d="M9.95987 21.1963L7.05664 29.906H9.95987L12.8631 21.1963H9.95987Z" fill="#D3A06C"/>
<path d="M12.3788 22.6479L12.8627 21.1963H9.95946L9.47559 22.6479H12.3788Z" fill="#B27946"/>
<path d="M25.4435 3.77637H29.7984V21.1957H0.766113V3.77637H4.63708H25.4435Z" fill="#ECECEC"/>
<path d="M23.5078 12.4859V1.84079C23.5078 1.30611 23.9409 0.873047 24.4756 0.873047C25.0102 0.873047 25.4433 1.30611 25.4433 1.84079V12.4859H23.5078Z" fill="#D3A06C"/>
<path d="M25.4433 9.58301H23.5078V11.0346H25.4433V9.58301Z" fill="#B27946"/>
<path d="M25.4433 10.5508H23.5078V12.9701H25.4433V10.5508Z" fill="#B6C1CE"/>
<path d="M24.9599 19.2605H24.476L24.4499 19.1555C24.1503 17.9579 23.531 16.8639 22.6581 15.991C22.2729 15.6058 22.0566 15.0837 22.0566 14.5394C22.0566 13.4052 22.9755 12.4863 24.1097 12.4863H24.8428C25.9765 12.4863 26.8953 13.4052 26.8953 14.5394V14.9052C26.8953 15.2241 26.8213 15.5381 26.6786 15.8231L24.9599 19.2605Z" fill="#8C95A4"/>
<path d="M3.66943 3.77637V13.9377C3.66943 14.7394 4.31927 15.3893 5.12105 15.3893C5.92282 15.3893 6.57266 14.7394 6.57266 13.9377V12.0022C6.57266 11.2004 7.2225 10.5506 8.02427 10.5506C8.82605 10.5506 9.47589 11.2004 9.47589 12.0022V17.8086C9.47589 18.6104 10.1257 19.2602 10.9275 19.2602C11.7293 19.2602 12.3791 18.6104 12.3791 17.8086V8.13121C12.3791 7.31782 13.0444 6.66508 13.8573 6.68008H13.8578C14.6412 6.69459 15.2823 7.34782 15.2823 8.13121V12.0022C15.2823 12.8039 15.9322 13.4538 16.734 13.4538C17.5357 13.4538 18.1856 12.8039 18.1856 12.0022V3.77637H3.66943Z" fill="#FCD770"/>
<path d="M18.1856 3.77637H3.66943V5.22798H18.1856V3.77637Z" fill="#FFC729"/>
<path d="M30.2822 3.29287H25.9274V1.84126C25.9274 1.04094 25.2761 0.389648 24.4758 0.389648C23.6755 0.389648 23.0242 1.04094 23.0242 1.84126V3.29287H0.282227V21.68H9.28803L6.38481 30.3896H10.308L11.2758 27.4864H19.2877L20.2555 30.3896H24.1787L21.2755 21.68H30.2822V3.29287ZM24.1095 12.9703H24.8425C25.7072 12.9703 26.4113 13.6743 26.4113 14.5395V14.9053C26.4113 15.1472 26.3542 15.3901 26.2458 15.6069L24.7767 18.5445C24.4216 17.4558 23.8134 16.4624 23 15.649C22.7034 15.3524 22.5403 14.9585 22.5403 14.5395C22.5403 13.6743 23.2443 12.9703 24.1095 12.9703ZM24.8421 12.0026H24.109C24.0688 12.0026 24.0311 12.0127 23.9914 12.0146V11.0348H24.9592V12.0146C24.92 12.0127 24.8822 12.0026 24.8421 12.0026ZM24.4758 1.35739C24.7424 1.35739 24.9596 1.57465 24.9596 1.84126V10.0671H23.9919V1.84126C23.9919 1.57465 24.2092 1.35739 24.4758 1.35739ZM9.61077 29.4219H7.72755L10.3085 21.68H12.1917L9.61077 29.4219ZM17.3527 21.68L18.3205 24.5832H12.244L13.2117 21.68H17.3527ZM11.5985 26.5187L11.9213 25.5509H18.6432L18.9659 26.5187H11.5985ZM22.8369 29.4219H20.9537L18.3732 21.68H20.2564L22.8369 29.4219ZM29.3145 20.7122H1.24997V4.26062H3.18545V13.938C3.18545 15.0055 4.05352 15.8735 5.12094 15.8735C6.18836 15.8735 7.05642 15.0055 7.05642 13.938V12.0026C7.05642 11.4688 7.49045 11.0348 8.02416 11.0348C8.55787 11.0348 8.9919 11.4688 8.9919 12.0026V13.938H9.95965V12.0026C9.95965 10.9351 9.09158 10.0671 8.02416 10.0671C6.95674 10.0671 6.08868 10.9351 6.08868 12.0026V13.938C6.08868 14.4717 5.65465 14.9058 5.12094 14.9058C4.58723 14.9058 4.15319 14.4717 4.15319 13.938V4.26062H17.7016V5.22836H18.6693V4.26062H23.0242V12.2561C22.1692 12.6645 21.5725 13.5306 21.5725 14.5395C21.5725 15.2169 21.8363 15.8542 22.3158 16.3332C23.1267 17.1442 23.7025 18.1608 23.9803 19.2732L24.0979 19.7445H25.2587L27.1114 16.0395C27.2866 15.6892 27.379 15.2967 27.379 14.9053V14.5395C27.379 13.5306 26.7824 12.6645 25.9274 12.2561V4.26062H29.3145V20.7122Z" fill="black"/>
<path d="M17.7014 12.0023C17.7014 12.536 17.2673 12.97 16.7336 12.97C16.1999 12.97 15.7659 12.536 15.7659 12.0023V8.13129C15.7659 7.08371 14.9138 6.21613 13.8662 6.19629C13.3378 6.17936 12.8477 6.38306 12.4746 6.74984C12.1006 7.11613 11.8949 7.60726 11.8949 8.13129V17.8087C11.8949 18.3424 11.4609 18.7764 10.9272 18.7764C10.3935 18.7764 9.95944 18.3424 9.95944 17.8087V14.9055H8.9917V17.8087C8.9917 18.8761 9.85976 19.7442 10.9272 19.7442C11.9946 19.7442 12.8627 18.8761 12.8627 17.8087V8.13129C12.8627 7.86903 12.9652 7.62371 13.152 7.44032C13.3383 7.25694 13.5778 7.1529 13.8483 7.16403C14.3723 7.17371 14.7982 7.60774 14.7982 8.13129V12.0023C14.7982 13.0697 15.6662 13.9377 16.7336 13.9377C17.8011 13.9377 18.6691 13.0697 18.6691 12.0023V6.19581H17.7014V12.0023Z" fill="black"/>
</g>
<defs>
<clipPath id="clip0">
<rect width="30" height="30" fill="white" transform="translate(0.282227 0.389648)"/>
</clipPath>
</defs>
</svg>
