<svg width="30" height="29" viewBox="0 0 30 29" fill="none" xmlns="http://www.w3.org/2000/svg">
<g clip-path="url(#clip0)">
<path d="M7.4292 7.57812V8.45312H3.8042V7.57812C3.8042 7.09687 4.21201 6.70312 4.71045 6.70312H6.52295C7.02139 6.70312 7.4292 7.09687 7.4292 7.57812Z" fill="#FCD770"/>
<path d="M18.5625 8.45312L19.2104 9.32812H10.1479L10.7959 8.45312L12.4136 6.26562H14.6792H16.9448L18.5625 8.45312Z" fill="#CCD1D9"/>
<path d="M9.99842 11.0781L10.1479 9.32812H19.2104L19.36 11.0781L19.6636 14.5781L19.6454 14.5869C18.6033 13.0031 16.7681 11.9531 14.6792 11.9531C12.5903 11.9531 10.7551 13.0031 9.71295 14.5869L9.69482 14.5781L9.99842 11.0781Z" fill="#AAB2BD"/>
<path d="M10.7959 8.45312L10.148 9.32812L9.99842 11.0781H1.08545V9.48125C1.08545 8.9125 1.56123 8.45312 2.15029 8.45312H3.8042H7.4292H10.7959Z" fill="#FF826E"/>
<path d="M27.3667 9.32812V11.0781H19.36L19.2105 9.32812L18.5625 8.45312H26.4605C26.9589 8.45312 27.3667 8.84687 27.3667 9.32812Z" fill="#FF826E"/>
<path d="M1.08545 22.3V11.0781H9.99842L9.69482 14.5781L9.71295 14.5869C9.12842 15.4663 8.78857 16.5163 8.78857 17.6406C8.78857 20.7819 11.4258 23.3281 14.6792 23.3281H2.15029C1.56123 23.3281 1.08545 22.8688 1.08545 22.3Z" fill="#CCD1D9"/>
<path d="M27.3667 11.0781V22.3C27.3667 22.8688 26.8909 23.3281 26.3019 23.3281H14.6792C17.9326 23.3281 20.5698 20.7819 20.5698 17.6406C20.5698 16.5163 20.23 15.4663 19.6454 14.5869L19.6636 14.5781L19.36 11.0781H27.3667Z" fill="#CCD1D9"/>
<path d="M22.8354 21.5781C23.336 21.5781 23.7417 21.1864 23.7417 20.7031C23.7417 20.2199 23.336 19.8281 22.8354 19.8281C22.3349 19.8281 21.9292 20.2199 21.9292 20.7031C21.9292 21.1864 22.3349 21.5781 22.8354 21.5781Z" fill="#FCD770"/>
<path d="M19.6454 14.5869C20.23 15.4663 20.5698 16.5163 20.5698 17.6406C20.5698 20.7819 17.9326 23.3281 14.6792 23.3281C11.4258 23.3281 8.78857 20.7819 8.78857 17.6406C8.78857 16.5163 9.12842 15.4663 9.71295 14.5869C10.7551 13.0031 12.5903 11.9531 14.6792 11.9531C16.7681 11.9531 18.6033 13.0031 19.6454 14.5869Z" fill="#69D6F4"/>
<path d="M14.6792 14.5781C16.4328 14.5781 17.8511 15.9475 17.8511 17.6406C17.8511 19.3337 16.4328 20.7031 14.6792 20.7031C12.9256 20.7031 11.5073 19.3337 11.5073 17.6406C11.5073 15.9475 12.9256 14.5781 14.6792 14.5781Z" fill="#4FC1E9"/>
<path d="M14.6792 18.9531C15.43 18.9531 16.0386 18.3655 16.0386 17.6406C16.0386 16.9158 15.43 16.3281 14.6792 16.3281C13.9284 16.3281 13.3198 16.9158 13.3198 17.6406C13.3198 18.3655 13.9284 18.9531 14.6792 18.9531Z" fill="#3BAFDA"/>
<path d="M14.6792 19.3906C15.6788 19.3906 16.4917 18.6058 16.4917 17.6406C16.4917 16.6755 15.6788 15.8906 14.6792 15.8906C13.6796 15.8906 12.8667 16.6755 12.8667 17.6406C12.8667 18.6058 13.6796 19.3906 14.6792 19.3906ZM14.6792 16.7656C15.179 16.7656 15.5854 17.1581 15.5854 17.6406C15.5854 18.1232 15.179 18.5156 14.6792 18.5156C14.1794 18.5156 13.7729 18.1232 13.7729 17.6406C13.7729 17.1581 14.1794 16.7656 14.6792 16.7656Z" fill="black"/>
<path d="M14.6792 21.1406C16.6779 21.1406 18.3042 19.5704 18.3042 17.6406C18.3042 15.7108 16.6779 14.1406 14.6792 14.1406C12.6805 14.1406 11.0542 15.7108 11.0542 17.6406C11.0542 19.5704 12.6805 21.1406 14.6792 21.1406ZM14.6792 15.0156C16.1786 15.0156 17.3979 16.1929 17.3979 17.6406C17.3979 19.0883 16.1786 20.2656 14.6792 20.2656C13.1798 20.2656 11.9604 19.0883 11.9604 17.6406C11.9604 16.1929 13.1798 15.0156 14.6792 15.0156Z" fill="black"/>
<path d="M26.4604 8.01562H18.7963L17.1782 5.82812H12.1802L10.5621 8.01562H7.88232V7.57812C7.88232 6.8545 7.27242 6.26562 6.52295 6.26562H4.71045C3.96098 6.26562 3.35107 6.8545 3.35107 7.57812V8.01562H2.14939C1.31292 8.01562 0.632324 8.67275 0.632324 9.48037V22.3009C0.632324 23.1085 1.31292 23.7656 2.14939 23.7656H26.3028C27.1392 23.7656 27.8198 23.1085 27.8198 22.3009V9.32812C27.8198 8.6045 27.2099 8.01562 26.4604 8.01562ZM26.4604 8.89062C26.7101 8.89062 26.9136 9.08706 26.9136 9.32812V10.6406H19.7782L19.6513 9.17194L19.4438 8.89062H26.4604ZM18.7936 9.76562L19.0944 13.2516C17.9512 12.1793 16.3952 11.5156 14.6792 11.5156C12.9632 11.5156 11.4072 12.1793 10.2639 13.2516L10.5648 9.76562H18.7936ZM14.6792 12.3906C17.6775 12.3906 20.1167 14.7457 20.1167 17.6406C20.1167 20.5356 17.6775 22.8906 14.6792 22.8906C11.6809 22.8906 9.2417 20.5356 9.2417 17.6406C9.2417 14.7457 11.6809 12.3906 14.6792 12.3906ZM12.6469 6.70312H16.7119L18.33 8.89062H11.0284L12.6469 6.70312ZM4.25732 7.57812C4.25732 7.33706 4.46078 7.14062 4.71045 7.14062H6.52295C6.77262 7.14062 6.97607 7.33706 6.97607 7.57812V8.01562H4.25732V7.57812ZM2.14939 8.89062H9.91459L9.7066 9.17194L9.58018 10.6406H1.53857V9.48037C1.53857 9.15531 1.81271 8.89062 2.14939 8.89062ZM2.14939 22.8906C1.81271 22.8906 1.53857 22.6259 1.53857 22.3009V11.5156H9.50451L9.24759 14.4928C8.67257 15.4142 8.33545 16.4887 8.33545 17.6406C8.33545 19.8701 9.57928 21.8192 11.4285 22.8906H2.14939ZM26.3028 22.8906H17.9299C19.7791 21.8192 21.0229 19.8701 21.0229 17.6406C21.0229 16.4887 20.6858 15.4142 20.1108 14.4928L19.8539 11.5156H26.9136V22.3009C26.9136 22.6259 26.6394 22.8906 26.3028 22.8906Z" fill="black"/>
<path d="M22.8354 19.3906C22.086 19.3906 21.4761 19.9795 21.4761 20.7031C21.4761 21.4267 22.086 22.0156 22.8354 22.0156C23.5849 22.0156 24.1948 21.4267 24.1948 20.7031C24.1948 19.9795 23.5849 19.3906 22.8354 19.3906ZM22.8354 21.1406C22.5858 21.1406 22.3823 20.9442 22.3823 20.7031C22.3823 20.4621 22.5858 20.2656 22.8354 20.2656C23.0851 20.2656 23.2886 20.4621 23.2886 20.7031C23.2886 20.9442 23.0851 21.1406 22.8354 21.1406Z" fill="black"/>
<path d="M25.1011 12.3906H26.0073V13.2656H25.1011V12.3906Z" fill="black"/>
<path d="M23.2886 12.3906H24.1948V13.2656H23.2886V12.3906Z" fill="black"/>
<path d="M21.4761 12.3906H22.3823V13.2656H21.4761V12.3906Z" fill="black"/>
<path d="M6.06982 12.3906H6.97607V13.2656H6.06982V12.3906Z" fill="black"/>
<path d="M4.25732 12.3906H5.16357V13.2656H4.25732V12.3906Z" fill="black"/>
<path d="M2.44482 12.3906H3.35107V13.2656H2.44482V12.3906Z" fill="black"/>
</g>
<defs>
<clipPath id="clip0">
<rect width="29" height="28" fill="white" transform="translate(0.179199 0.578125)"/>
</clipPath>
</defs>
</svg>
