<svg width="35" height="36" viewBox="0 0 35 36" fill="none" xmlns="http://www.w3.org/2000/svg">
<g clip-path="url(#clip0)">
<path d="M17.2553 19.8124V5.13502H19.4489V2.87695H5.19081L0.803711 7.39308V34.4899H28.2231V19.8124H17.2553Z" fill="#E6E9ED"/>
<path d="M30.4167 29.9736V32.2317H17.2554V29.9736H30.4167Z" fill="#B4DD7F"/>
<path d="M30.4167 27.7158V29.9739H17.2554V27.7158H30.4167Z" fill="#FF826E"/>
<path d="M2.99756 11.9092H15.0621V19.8124H2.99756V11.9092Z" fill="#FF826E"/>
<path d="M17.2554 22.0713H26.0296V25.4584H17.2554V22.0713Z" fill="#B4DD7F"/>
<path d="M5.19081 2.87695V7.39308H0.803711L5.19081 2.87695Z" fill="#B4DD7F"/>
<path d="M17.2554 5.13574H33.707V19.8132H17.2554V5.13574Z" fill="#FFEAA7"/>
<path d="M30.4169 16.4256V17.5546H20.5459V16.4256C20.5459 15.4209 21.1931 14.5402 22.1252 14.2693L24.3846 13.603V12.7281C23.7321 12.3329 23.2878 11.6159 23.2878 10.7804V9.65141C23.2878 8.33604 24.3793 7.28612 25.6787 7.40465C26.8304 7.50636 27.6749 8.57888 27.6749 9.76994V10.7804C27.6749 11.6159 27.2307 12.3329 26.5782 12.7281V13.603L28.8376 14.2693C29.7697 14.5402 30.4169 15.4209 30.4169 16.4256Z" fill="#ECC19C"/>
<path d="M33.7068 29.4094V30.5384C33.7068 31.4756 32.9721 32.2319 32.0617 32.2319H30.4165V27.7158H32.0617C32.9721 27.7158 33.7068 28.4722 33.7068 29.4094Z" fill="#FFEAA7"/>
<path d="M17.2552 29.9739V32.2319L13.9648 29.9739L17.2552 27.7158V29.9739Z" fill="#FFEAA7"/>
<path d="M21.6423 5.13527V6.2643C21.6423 6.57468 21.5215 6.85693 21.3188 7.06036C21.1212 7.26902 20.847 7.39333 20.5455 7.39333C19.9422 7.39333 19.4487 6.88532 19.4487 6.2643V1.74817C19.4487 1.12715 19.9422 0.619141 20.5455 0.619141C21.1488 0.619141 21.6423 1.12715 21.6423 1.74817V5.13527Z" fill="#838F9B"/>
<path d="M21.6426 2.87695H28.2232V5.13502H21.6426V2.87695Z" fill="#E6E9ED"/>
<path d="M23.8363 13.0266V13.1768L21.9772 13.7237C20.8113 14.0663 19.9976 15.1774 19.9976 16.4256V18.1191H30.9653V16.4256C30.9653 15.1774 30.1516 14.0663 28.9857 13.7237L27.1266 13.1774V13.0272C27.8099 12.4971 28.2234 11.6633 28.2234 10.7809V9.76934C28.2234 8.25192 27.1261 6.96605 25.7254 6.84063C24.9539 6.77227 24.1932 7.03827 23.6285 7.57109C23.0635 8.1039 22.7395 8.8622 22.7395 9.65136V10.7804C22.7395 11.6627 23.1529 12.4971 23.8363 13.0266ZM23.8363 9.65136C23.8363 9.17781 24.0304 8.72272 24.3705 8.4027C24.7143 8.07854 25.1628 7.92391 25.6306 7.9647C26.4695 8.03968 27.1266 8.8316 27.1266 9.76878V10.7804C27.1266 11.3832 26.8184 11.9282 26.3024 12.2374L26.0298 12.4006V14.0286L28.6845 14.8095C29.3815 15.0143 29.8685 15.6794 29.8685 16.4256V16.9901H21.0943V16.4256C21.0943 15.6794 21.5814 15.0143 22.2784 14.8095L24.933 14.0286V12.4006L24.6605 12.2374C24.1445 11.9282 23.8363 11.3832 23.8363 10.7804V9.65136Z" fill="black"/>
<path d="M34.2554 20.3773V4.57082H28.7715V2.31275H22.1909V1.74824C22.1909 0.814634 21.4526 0.0546875 20.5457 0.0546875C19.6388 0.0546875 18.9005 0.814634 18.9005 1.74824V2.31275H4.96379L0.255371 7.15965V35.0547H28.7715V32.7966H32.0618C33.2716 32.7966 34.2554 31.7839 34.2554 30.5386V29.4095C34.2554 28.1642 33.2716 27.1515 32.0618 27.1515H28.7715V20.3773H34.2554ZM33.1586 19.2482H17.8038V5.69985H18.9005V6.26436C18.9005 7.19797 19.6388 7.95791 20.5457 7.95791C21.4526 7.95791 22.1909 7.19797 22.1909 6.26436V5.69985H33.1586V19.2482ZM27.6747 3.44178V4.57082H22.1909V3.44178H27.6747ZM19.9973 1.74824C19.9973 1.43731 20.2431 1.18372 20.5457 1.18372C20.8483 1.18372 21.0941 1.43731 21.0941 1.74824V6.26436C21.0941 6.57529 20.8483 6.82888 20.5457 6.82888C20.2431 6.82888 19.9973 6.57529 19.9973 6.26436V1.74824ZM4.64247 4.24005V6.82888H2.1276L4.64247 4.24005ZM29.8683 29.4095H17.8038V28.2805H29.8683V29.4095ZM16.707 31.1775L14.9539 29.974L16.707 28.7706V31.1775ZM17.8038 30.5386H29.8683V31.6676H17.8038V30.5386ZM33.1586 29.4095V30.5386C33.1586 31.1612 32.6667 31.6676 32.0618 31.6676H30.965V28.2805H32.0618C32.6667 28.2805 33.1586 28.7868 33.1586 29.4095ZM27.6747 27.1515H17.0891L12.9762 29.974L17.0891 32.7966H27.6747V33.9257H1.35215V7.95791H5.73924V3.44178H18.9005V4.57082H16.707V20.3773H27.6747V27.1515Z" fill="black"/>
<path d="M10.0948 30.0686C9.72744 30.3203 9.40987 30.5383 9.02723 30.5383C8.83257 30.5383 8.65263 30.1996 8.42074 29.7216C8.12512 29.1135 7.71973 28.2803 6.83208 28.2803C5.8882 28.2803 5.53073 29.3856 5.2153 30.3605C5.07713 30.7878 4.81954 31.5844 4.64014 31.6674C4.40879 31.6674 4.27437 31.4951 4.00071 31.0723C3.70081 30.6089 3.29005 29.9738 2.44873 29.9738V31.1029C2.68008 31.1029 2.8145 31.2751 3.08816 31.698C3.38806 32.1613 3.79881 32.7964 4.64014 32.7964C5.58321 32.7964 5.94095 31.6916 6.25558 30.7167C6.39428 30.2889 6.65214 29.4923 6.83208 29.4093C7.02674 29.4093 7.20695 29.7481 7.43911 30.2269C7.73526 30.8347 8.13985 31.6674 9.02723 31.6674C9.74217 31.6674 10.2523 31.3168 10.7037 31.008C11.0711 30.7564 11.3884 30.5383 11.7713 30.5383H12.3197V29.4093H11.7713C11.0561 29.4093 10.5463 29.7599 10.0948 30.0686Z" fill="black"/>
<path d="M6.83594 4.57129H15.6101V5.70032H6.83594V4.57129Z" fill="black"/>
<path d="M6.83594 6.8291H13.4166V7.95813H6.83594V6.8291Z" fill="black"/>
<path d="M14.5132 6.8291H15.61V7.95813H14.5132V6.8291Z" fill="black"/>
<path d="M2.44873 9.08691H15.61V10.2159H2.44873V9.08691Z" fill="black"/>
<path d="M2.44873 20.377H15.61V11.3447H2.44873V20.377ZM3.5455 12.4738H14.5132V19.248H3.5455V12.4738Z" fill="black"/>
<path d="M2.44873 21.5059H15.61V22.6349H2.44873V21.5059Z" fill="black"/>
<path d="M4.64258 23.7646H15.6103V24.8937H4.64258V23.7646Z" fill="black"/>
<path d="M2.44873 23.7646H3.5455V24.8937H2.44873V23.7646Z" fill="black"/>
<path d="M2.44873 26.0225H15.61V27.1515H2.44873V26.0225Z" fill="black"/>
<path d="M16.707 26.022H26.578V21.5059H16.707V26.022ZM17.8038 22.6349H25.4812V24.893H17.8038V22.6349Z" fill="black"/>
</g>
<defs>
<clipPath id="clip0">
<rect width="34" height="35" fill="white" transform="translate(0.255371 0.0546875)"/>
</clipPath>
</defs>
</svg>
