<svg width="29" height="29" viewBox="0 0 29 29" fill="none" xmlns="http://www.w3.org/2000/svg">
<g clip-path="url(#clip0)">
<path d="M20.5778 8.32551C20.5778 11.8174 17.747 14.6481 14.2552 14.6481C10.7634 14.6481 7.93262 11.8174 7.93262 8.32551C7.93262 4.83367 10.7634 2.00293 14.2552 2.00293C17.747 2.00293 20.5778 4.83367 20.5778 8.32551Z" fill="#E6E9ED"/>
<path d="M27.8039 20.971C27.8039 24.4629 24.9731 27.2936 21.4813 27.2936C17.9894 27.2936 15.1587 24.4629 15.1587 20.971C15.1587 17.4792 17.9894 14.6484 21.4813 14.6484C24.9731 14.6484 27.8039 17.4792 27.8039 20.971Z" fill="#E6E9ED"/>
<path d="M13.3522 20.971C13.3522 24.4629 10.5215 27.2936 7.02961 27.2936C3.53777 27.2936 0.707031 24.4629 0.707031 20.971C0.707031 17.4792 3.53777 14.6484 7.02961 14.6484C10.5215 14.6484 13.3522 17.4792 13.3522 20.971Z" fill="#E6E9ED"/>
<path d="M5.22305 1.09961C5.71987 1.09961 6.12628 1.50602 6.12628 2.00284C6.12628 2.04804 6.12187 2.09325 6.11282 2.13823C6.06762 2.45886 5.85085 2.72546 5.55735 2.83836C5.45327 2.88357 5.34036 2.90606 5.22305 2.90606C5.02437 2.90606 4.84377 2.84277 4.6947 2.7345C4.46889 2.57176 4.31982 2.30097 4.31982 2.00284C4.31982 1.50602 4.72623 1.09961 5.22305 1.09961Z" fill="#FCD770"/>
<path d="M2.13861 6.23894C2.36441 6.40168 2.51348 6.67247 2.51348 6.97061C2.51348 7.05639 2.50003 7.14217 2.47732 7.21891C2.39154 7.52167 2.14765 7.76093 1.84047 7.8423C1.76837 7.86479 1.69163 7.87383 1.61026 7.87383C1.11344 7.87383 0.707031 7.46743 0.707031 6.97061C0.707031 6.47379 1.11344 6.06738 1.61026 6.06738C1.80894 6.06738 1.98954 6.13067 2.13861 6.23894Z" fill="#FCD770"/>
<path d="M4.65888 15.1135C4.73121 15.2445 4.77178 15.3936 4.77178 15.5517C4.77178 16.0485 4.36538 16.4549 3.86856 16.4549C3.5433 16.4549 3.25884 16.2787 3.10073 16.0214C3.01495 15.886 2.96533 15.7232 2.96533 15.5517C2.96533 15.1362 3.2498 14.7838 3.63834 14.68C3.71045 14.6575 3.78719 14.6484 3.86856 14.6484C4.04012 14.6484 4.19823 14.6936 4.33362 14.7794C4.46924 14.8608 4.58214 14.9737 4.65888 15.1135Z" fill="#FCD770"/>
<path d="M7.9555 7.87402C8.44328 7.88747 8.83624 8.28947 8.83624 8.77725C8.83624 9.22445 8.50657 9.59911 8.07745 9.66702C8.03246 9.67607 7.98263 9.68048 7.93301 9.68048C7.76145 9.68048 7.60334 9.63086 7.46795 9.54949C7.20598 9.39138 7.02979 9.10251 7.02979 8.77725C7.02979 8.69147 7.04324 8.60569 7.06595 8.52895C7.14269 8.25794 7.34137 8.04117 7.59871 7.94172C7.70279 7.89652 7.8157 7.87402 7.93301 7.87402H7.9555Z" fill="#FCD770"/>
<path d="M11.8845 2.46799C11.9568 2.59898 11.9974 2.74805 11.9974 2.90616C11.9974 3.40297 11.591 3.80938 11.0941 3.80938C10.7689 3.80938 10.4844 3.63319 10.3263 3.37585C10.2405 3.24045 10.1909 3.07772 10.1909 2.90616C10.1909 2.86095 10.1953 2.81574 10.2044 2.77076C10.2677 2.33723 10.6425 2.00293 11.0941 2.00293C11.4329 2.00293 11.7264 2.19257 11.8845 2.46799Z" fill="#FCD770"/>
<path d="M19.3088 4.53651C19.1597 4.64941 18.9701 4.7127 18.7714 4.7127C18.2746 4.7127 17.8682 4.30629 17.8682 3.80948C17.8682 3.61079 17.9315 3.42115 18.0444 3.27208C18.2113 3.05069 18.4733 2.90625 18.7714 2.90625C19.214 2.90625 19.5842 3.22688 19.6612 3.65137C19.6702 3.70098 19.6746 3.75523 19.6746 3.80948C19.6746 3.93583 19.6475 4.05336 19.6023 4.16164C19.5392 4.3107 19.4354 4.43728 19.3088 4.53651Z" fill="#FCD770"/>
<path d="M26.0201 2.20152C26.0066 2.13823 25.9976 2.07053 25.9976 2.00284C25.9976 1.50602 26.404 1.09961 26.9008 1.09961C27.3976 1.09961 27.804 1.50602 27.804 2.00284C27.804 2.49965 27.3976 2.90606 26.9008 2.90606C26.8964 2.90606 26.8873 2.90606 26.8827 2.90606C26.4626 2.89702 26.1105 2.59888 26.0201 2.20152Z" fill="#FCD770"/>
<path d="M26.815 6.07179C26.8421 6.06738 26.8693 6.06738 26.9008 6.06738C27.3976 6.06738 27.804 6.47379 27.804 6.97061C27.804 7.46743 27.3976 7.87383 26.9008 7.87383C26.6117 7.87383 26.3497 7.73381 26.1872 7.52167C26.0653 7.36798 25.9976 7.17833 25.9976 6.97061C25.9976 6.84425 26.0247 6.72672 26.0699 6.61845C26.1962 6.32031 26.4763 6.10355 26.815 6.07179Z" fill="#FCD770"/>
<path d="M23.5448 9.57627C23.6667 9.72974 23.7391 9.92402 23.7391 10.1317C23.7391 10.4929 23.5223 10.8092 23.2151 10.9492C23.0978 11.0034 22.9712 11.035 22.8358 11.035C22.339 11.035 21.9326 10.6286 21.9326 10.1317C21.9326 9.63492 22.339 9.22852 22.8358 9.22852C23.1249 9.22852 23.3823 9.36391 23.5448 9.57627Z" fill="#FCD770"/>
<path d="M26.1284 16.6937C25.9703 16.8247 25.7672 16.9061 25.5458 16.9061C25.049 16.9061 24.6426 16.4997 24.6426 16.0028C24.6426 15.8447 24.6832 15.6957 24.7555 15.5693C24.8459 15.4022 24.9903 15.2668 25.1665 15.1854C25.2838 15.1311 25.4104 15.0996 25.5458 15.0996C26.0426 15.0996 26.449 15.506 26.449 16.0028C26.449 16.2783 26.3227 16.5268 26.1284 16.6937Z" fill="#FCD770"/>
<path d="M22.3846 27.2929C22.3846 27.7897 21.9782 28.1961 21.4814 28.1961C20.9845 28.1961 20.5781 27.7897 20.5781 27.2929C20.5781 27.2658 20.5781 27.2433 20.5825 27.2205C20.6187 26.7555 21.0117 26.3896 21.4814 26.3896C21.951 26.3896 22.344 26.7555 22.3802 27.2205C22.3846 27.2433 22.3846 27.2658 22.3846 27.2929Z" fill="#FCD770"/>
<path d="M13.9708 26.4393C14.061 26.4077 14.1558 26.3896 14.2553 26.3896C14.7521 26.3896 15.1585 26.7961 15.1585 27.2929C15.1585 27.7897 14.7521 28.1961 14.2553 28.1961C13.7585 28.1961 13.3521 27.7897 13.3521 27.2929C13.3521 26.8955 13.614 26.5568 13.9708 26.4393Z" fill="#FCD770"/>
<path d="M13.1899 22.3748C13.5467 22.4968 13.804 22.8311 13.804 23.2284C13.804 23.6258 13.542 23.9645 13.1852 24.0864C13.0951 24.1136 13.0002 24.1316 12.9008 24.1316C12.7744 24.1316 12.6525 24.1045 12.544 24.0593C12.2234 23.9193 11.9976 23.5987 11.9976 23.2284C11.9976 22.7316 12.404 22.3252 12.9008 22.3252C13.0002 22.3252 13.0995 22.3433 13.1899 22.3748Z" fill="#FCD770"/>
<path d="M25.5455 23.7978V25.8076C24.6648 26.5483 23.5766 27.0495 22.3798 27.221C22.3437 26.756 21.9507 26.3902 21.481 26.3902C21.0113 26.3902 20.6184 26.756 20.5822 27.221C19.3855 27.0495 18.2972 26.5483 17.4165 25.8076V23.7978C17.4165 23.1927 17.8185 22.6643 18.4011 22.4972L20.5778 21.874L21.481 22.7772L22.3842 21.874L24.5609 22.4972C25.1435 22.6643 25.5455 23.1927 25.5455 23.7978Z" fill="#B4DD7F"/>
<path d="M22.3846 20.7275V21.8747L21.4814 22.7779L20.5781 21.8747V20.7275C20.8445 20.881 21.1517 20.9714 21.4814 20.9714C21.811 20.9714 22.1182 20.881 22.3846 20.7275Z" fill="#F0D0B4"/>
<path d="M22.3845 20.7273C22.1181 20.8808 21.8109 20.9712 21.4813 20.9712C21.1516 20.9712 20.8444 20.8808 20.578 20.7273C20.036 20.4157 19.6748 19.8331 19.6748 19.1648V18.2615C19.6748 17.2635 20.4832 16.4551 21.4813 16.4551C21.9781 16.4551 22.4297 16.6584 22.7594 16.9834C23.0844 17.3131 23.2877 17.7647 23.2877 18.2615V19.1648C23.2877 19.8331 22.9265 20.4157 22.3845 20.7273Z" fill="#F0D0B4"/>
<path d="M11.0939 23.7978V25.8031C9.99638 26.7333 8.57847 27.2934 7.02936 27.2934C5.48488 27.2934 4.06675 26.7379 2.96484 25.8076V23.7978C2.96484 23.1927 3.36684 22.6643 3.94944 22.4972L6.12613 21.874L7.02936 22.7772L7.93258 21.874L10.1093 22.4972C10.6919 22.6643 11.0939 23.1927 11.0939 23.7978Z" fill="#69D6F4"/>
<path d="M7.93292 20.7275V21.8747L7.02969 22.7779L6.12646 21.8747V20.7275C6.39285 20.881 6.70002 20.9714 7.02969 20.9714C7.35936 20.9714 7.66654 20.881 7.93292 20.7275Z" fill="#F0D0B4"/>
<path d="M7.93282 20.7273C7.66644 20.8808 7.35926 20.9712 7.0296 20.9712C6.69993 20.9712 6.39275 20.8808 6.12637 20.7273C5.58435 20.4157 5.22314 19.8331 5.22314 19.1648V18.2615C5.22314 17.2635 6.03155 16.4551 7.0296 16.4551C7.52641 16.4551 7.97803 16.6584 8.3077 16.9834C8.63273 17.3131 8.83605 17.7647 8.83605 18.2615V19.1648C8.83605 19.8331 8.47485 20.4157 7.93282 20.7273Z" fill="#F0D0B4"/>
<path d="M18.3199 11.1533V13.163C17.218 14.0934 15.7999 14.6488 14.2554 14.6488C12.7063 14.6488 11.2884 14.0934 10.1909 13.1677V11.1533C10.1909 10.5482 10.5929 10.0198 11.1755 9.85267L13.3522 9.22949L14.2554 10.1327L15.1587 9.22949L17.3354 9.85267C17.918 10.0198 18.3199 10.5482 18.3199 11.1533Z" fill="#FF826E"/>
<path d="M15.1585 8.08203V9.22915L14.2553 10.1324L13.3521 9.22915V8.08203C13.6184 8.23551 13.9256 8.32592 14.2553 8.32592C14.5849 8.32592 14.8921 8.23551 15.1585 8.08203Z" fill="#F0D0B4"/>
<path d="M13.352 8.08181C12.8099 7.77022 12.4487 7.18763 12.4487 6.51925V5.61602C12.4487 4.61798 13.2571 3.80957 14.2552 3.80957C14.752 3.80957 15.2036 4.01288 15.5333 4.33792C15.8583 4.66759 16.0616 5.1192 16.0616 5.61602V6.51925C16.0616 7.18763 15.7004 7.77022 15.1584 8.08181C14.892 8.23529 14.5849 8.3257 14.2552 8.3257C13.9255 8.3257 13.6183 8.23529 13.352 8.08181Z" fill="#F0D0B4"/>
<path d="M26.9005 8.32586C27.6474 8.32586 28.2554 7.7179 28.2554 6.97102C28.2554 6.35446 27.8395 5.83934 27.275 5.67528L27.3255 3.28314C27.8637 3.10386 28.2554 2.60131 28.2554 2.00328C28.2554 1.25639 27.6474 0.648438 26.9005 0.648438C26.2077 0.648438 25.641 1.17326 25.5616 1.84517L19.9358 3.1279C19.7001 2.72722 19.2692 2.45489 18.7715 2.45489C18.4862 2.45489 18.222 2.54486 18.0028 2.69613C16.887 1.94859 15.6007 1.55166 14.2554 1.55166C13.4917 1.55166 12.7475 1.68529 12.0339 1.93426C11.79 1.69853 11.4595 1.55166 11.0941 1.55166C10.5796 1.55166 10.1362 1.8434 9.90727 2.26701L6.55259 1.75079C6.43396 1.12453 5.88377 0.648438 5.22311 0.648438C4.47623 0.648438 3.86827 1.25639 3.86827 2.00328C3.86827 2.28774 3.95714 2.55147 4.10753 2.76956L1.9928 5.67814C1.87042 5.64154 1.74384 5.61618 1.61021 5.61618C0.863328 5.61618 0.255371 6.22414 0.255371 6.97102C0.255371 7.67909 0.803128 8.25551 1.49642 8.31461L3.1064 14.4326C2.74917 14.6764 2.51344 15.087 2.51344 15.5517C2.51344 15.6718 2.53416 15.7861 2.56349 15.8972C1.09773 17.1866 0.255371 19.0124 0.255371 20.971C0.255371 24.7063 3.29428 27.7452 7.02956 27.7452C9.36128 27.7452 11.5258 26.5357 12.7618 24.57C12.7998 24.574 12.8364 24.5808 12.8752 24.5813L13.4254 26.2309C13.1083 26.4792 12.9005 26.8609 12.9005 27.2936C12.9005 28.0405 13.5085 28.6484 14.2554 28.6484C14.8433 28.6484 15.3401 28.2696 15.5271 27.7452H20.2099C20.3969 28.2696 20.8937 28.6484 21.4816 28.6484C22.122 28.6484 22.6572 28.2004 22.7976 27.6025C25.9318 26.9816 28.2554 24.196 28.2554 20.971C28.2554 19.4021 27.7054 17.8973 26.7096 16.6851C26.8278 16.4842 26.9005 16.2531 26.9005 16.0033C26.9005 15.2564 26.2926 14.6484 25.5457 14.6484C25.5038 14.6484 25.4643 14.657 25.4233 14.6606L23.7803 11.1006C24.0327 10.8545 24.1909 10.512 24.1909 10.1323C24.1909 9.98324 24.1611 9.84233 24.1163 9.70826L26.1722 8.10953C26.383 8.24493 26.6317 8.32586 26.9005 8.32586ZM26.4222 3.26638L26.3704 5.72467C26.1788 5.80626 26.0141 5.9346 25.88 6.08984L20.3832 3.95196L25.7589 2.72634C25.9151 2.97199 26.1468 3.16164 26.4222 3.26638ZM26.9005 7.42263C26.6518 7.42263 26.4489 7.2202 26.4489 6.97102C26.4489 6.72184 26.6518 6.5194 26.9005 6.5194C27.1493 6.5194 27.3521 6.72184 27.3521 6.97102C27.3521 7.2202 27.1493 7.42263 26.9005 7.42263ZM26.9005 1.55166C27.1493 1.55166 27.3521 1.7541 27.3521 2.00328C27.3521 2.25246 27.1493 2.45489 26.9005 2.45489C26.6518 2.45489 26.4489 2.25246 26.4489 2.00328C26.4489 1.7541 26.6518 1.55166 26.9005 1.55166ZM18.7715 3.35811C19.0202 3.35811 19.2231 3.56055 19.2231 3.80973C19.2231 4.05891 19.0202 4.26134 18.7715 4.26134C18.5228 4.26134 18.3199 4.05891 18.3199 3.80973C18.3199 3.56055 18.5228 3.35811 18.7715 3.35811ZM17.4775 3.43C17.442 3.55084 17.4167 3.67698 17.4167 3.80973C17.4167 4.55661 18.0246 5.16457 18.7715 5.16457C18.9042 5.16457 19.0304 5.13921 19.1512 5.1037C19.7885 6.06559 20.1263 7.17102 20.1263 8.32586C20.1263 9.74883 19.617 11.0545 18.7715 12.0719V11.1544C18.7715 10.3522 18.2328 9.6377 17.4614 9.41696L15.6102 8.88861V8.31417C16.1553 7.90137 16.5134 7.25372 16.5134 6.5194V5.61618C16.5134 4.37116 15.5004 3.35811 14.2554 3.35811C13.0103 3.35811 11.9973 4.37116 11.9973 5.61618V6.5194C11.9973 7.25416 12.3554 7.90181 12.9005 8.31417V8.88861L11.0493 9.41696C10.278 9.63725 9.73924 10.3517 9.73924 11.1544V12.0585C9.23118 11.447 8.84329 10.7308 8.6166 9.94046C9.01618 9.70473 9.28763 9.27429 9.28763 8.77747C9.28763 8.21472 8.94252 7.73157 8.45298 7.52738C8.6391 6.17717 9.29491 4.92751 10.3029 4.00157C10.5265 4.16343 10.7984 4.26134 11.0941 4.26134C11.841 4.26134 12.4489 3.65338 12.4489 2.9065C12.4489 2.8527 12.439 2.80176 12.433 2.74972C13.0198 2.55743 13.63 2.45489 14.2554 2.45489C15.4106 2.45489 16.5161 2.79272 17.4775 3.43ZM14.2554 7.87424C13.5085 7.87424 12.9005 7.26629 12.9005 6.5194V5.61618C12.9005 4.8693 13.5085 4.26134 14.2554 4.26134C15.0023 4.26134 15.6102 4.8693 15.6102 5.61618V6.5194C15.6102 7.26629 15.0023 7.87424 14.2554 7.87424ZM14.2554 8.77747C14.4097 8.77747 14.561 8.76159 14.707 8.73182V9.04209L14.2554 9.4937L13.8038 9.04209V8.73182C13.9497 8.76159 14.101 8.77747 14.2554 8.77747ZM13.2207 9.73627L14.2554 10.7709L15.29 9.73627L17.2129 10.2858C17.5986 10.396 17.8683 10.7528 17.8683 11.1544V12.9441C16.8707 13.7258 15.6184 14.1968 14.2554 14.1968C12.9122 14.1968 11.6504 13.7285 10.6425 12.9386V11.1544C10.6425 10.7528 10.9122 10.396 11.2974 10.2858L13.2207 9.73627ZM3.86827 15.1C4.11701 15.1 4.31989 15.3025 4.31989 15.5517C4.31989 15.8008 4.11701 16.0033 3.86827 16.0033C3.61953 16.0033 3.41666 15.8008 3.41666 15.5517C3.41666 15.3025 3.61953 15.1 3.86827 15.1ZM3.98206 14.2081L2.37209 8.09013C2.50439 7.99972 2.61774 7.88505 2.7108 7.75495L6.58655 8.86237C6.60507 9.15499 6.71621 9.42049 6.89174 9.63373L4.13796 14.2239C4.08769 14.214 4.0341 14.2127 3.98206 14.2081ZM5.22311 3.35811C5.24164 3.35811 5.2584 3.3537 5.27648 3.3526L7.04169 7.76487C6.96407 7.83367 6.89263 7.90864 6.8322 7.9931L2.95645 6.88568C2.94057 6.63451 2.86075 6.40055 2.72579 6.20473L4.84096 3.29615C4.96291 3.33276 5.08948 3.35811 5.22311 3.35811ZM6.40992 2.64277L9.7646 3.15899C9.77033 3.19097 9.7807 3.22073 9.7893 3.25205C8.70966 4.20577 7.96432 5.47615 7.6556 6.86892L6.11421 3.01588C6.23417 2.91003 6.33362 2.78456 6.40992 2.64277ZM7.93279 8.32586C8.18153 8.32586 8.3844 8.52829 8.3844 8.77747C8.3844 9.02665 8.18153 9.22908 7.93279 9.22908C7.68405 9.22908 7.48118 9.02665 7.48118 8.77747C7.48118 8.52829 7.68405 8.32586 7.93279 8.32586ZM11.0941 2.45489C11.3428 2.45489 11.5457 2.65732 11.5457 2.9065C11.5457 3.15568 11.3428 3.35811 11.0941 3.35811C10.8453 3.35811 10.6425 3.15568 10.6425 2.9065C10.6425 2.65732 10.8453 2.45489 11.0941 2.45489ZM5.22311 1.55166C5.47185 1.55166 5.67473 1.7541 5.67473 2.00328C5.67473 2.25246 5.47185 2.45489 5.22311 2.45489C4.97437 2.45489 4.7715 2.25246 4.7715 2.00328C4.7715 1.7541 4.97437 1.55166 5.22311 1.55166ZM1.1586 6.97102C1.1586 6.72184 1.36147 6.5194 1.61021 6.5194C1.85895 6.5194 2.06182 6.72184 2.06182 6.97102C2.06182 7.2202 1.85895 7.42263 1.61021 7.42263C1.36147 7.42263 1.1586 7.2202 1.1586 6.97102ZM3.41666 25.5892V23.7996C3.41666 23.398 3.68635 23.0412 4.07159 22.9309L5.99491 22.3814L7.02956 23.4161L8.06422 22.3814L9.9871 22.9309C10.3728 23.0412 10.6425 23.398 10.6425 23.7996V25.5937C9.6259 26.3886 8.3586 26.842 7.02956 26.842C5.66657 26.842 4.41427 26.371 3.41666 25.5892ZM7.02956 20.5194C6.28268 20.5194 5.67473 19.9114 5.67473 19.1646V18.2613C5.67473 17.5145 6.28268 16.9065 7.02956 16.9065C7.77645 16.9065 8.3844 17.5145 8.3844 18.2613V19.1646C8.3844 19.9114 7.77645 20.5194 7.02956 20.5194ZM7.02956 21.4226C7.18392 21.4226 7.3352 21.4068 7.48118 21.377V21.6872L7.02956 22.1389L6.57795 21.6872V21.377C6.72393 21.4068 6.8752 21.4226 7.02956 21.4226ZM11.5457 24.7131V23.7991C11.5457 22.9969 11.007 22.2824 10.2356 22.0617L8.3844 21.5338V20.9593C8.92951 20.5465 9.28763 19.8989 9.28763 19.1646V18.2613C9.28763 17.0163 8.27459 16.0033 7.02956 16.0033C5.78454 16.0033 4.7715 17.0163 4.7715 18.2613V19.1646C4.7715 19.8993 5.12961 20.547 5.67473 20.9593V21.5338L3.82351 22.0621C3.05215 22.2824 2.51344 22.9969 2.51344 23.7996V24.7171C1.66798 23.6997 1.1586 22.394 1.1586 20.971C1.1586 19.3105 1.85763 17.7601 3.07751 16.6472C3.30067 16.8086 3.57256 16.9065 3.86827 16.9065C4.61516 16.9065 5.22311 16.2985 5.22311 15.5517C5.22311 15.4987 5.21363 15.4487 5.20768 15.3977C5.79755 15.2035 6.40816 15.1 7.02956 15.1C10.2667 15.1 12.9005 17.7339 12.9005 20.971C12.9005 21.2696 12.8666 21.5752 12.817 21.8828C12.1093 21.9267 11.5457 22.5106 11.5457 23.2291C11.5457 23.6013 11.6965 23.938 11.9404 24.1832C11.8185 24.3689 11.6857 24.5447 11.5457 24.7131ZM12.9005 22.7775C13.1493 22.7775 13.3521 22.9799 13.3521 23.2291C13.3521 23.4783 13.1493 23.6807 12.9005 23.6807C12.6518 23.6807 12.4489 23.4783 12.4489 23.2291C12.4489 22.9799 12.6518 22.7775 12.9005 22.7775ZM14.2554 27.7452C14.0066 27.7452 13.8038 27.5428 13.8038 27.2936C13.8038 27.0444 14.0066 26.842 14.2554 26.842C14.5041 26.842 14.707 27.0444 14.707 27.2936C14.707 27.5428 14.5041 27.7452 14.2554 27.7452ZM21.4812 20.5194C20.7343 20.5194 20.1263 19.9114 20.1263 19.1646V18.2613C20.1263 17.5145 20.7343 16.9065 21.4812 16.9065C22.2281 16.9065 22.836 17.5145 22.836 18.2613V19.1646C22.836 19.9114 22.2281 20.5194 21.4812 20.5194ZM21.4812 21.4226C21.6355 21.4226 21.7868 21.4068 21.9328 21.377V21.6872L21.4812 22.1389L21.0296 21.6872V21.377C21.1755 21.4068 21.3268 21.4226 21.4812 21.4226ZM20.4465 22.3814L21.4812 23.4161L22.5158 22.3814L24.4387 22.9309C24.8244 23.0412 25.0941 23.398 25.0941 23.7996V25.5806C24.4041 26.1236 23.5889 26.5145 22.6951 26.7033C22.4748 26.2526 22.0159 25.9388 21.4812 25.9388C20.9464 25.9388 20.4875 26.2526 20.2672 26.7033C19.3735 26.5145 18.5583 26.1236 17.8683 25.5806V23.7996C17.8683 23.398 18.138 23.0412 18.5232 22.9309L20.4465 22.3814ZM21.4812 27.7452C21.2324 27.7452 21.0296 27.5428 21.0296 27.2936C21.0296 27.0444 21.2324 26.842 21.4812 26.842C21.7299 26.842 21.9328 27.0444 21.9328 27.2936C21.9328 27.5428 21.7299 27.7452 21.4812 27.7452ZM25.9973 24.6977V23.7991C25.9973 22.9969 25.4586 22.2824 24.6872 22.0617L22.836 21.5338V20.9593C23.3811 20.5465 23.7392 19.8989 23.7392 19.1646V18.2613C23.7392 17.0163 22.7262 16.0033 21.4812 16.0033C20.2362 16.0033 19.2231 17.0163 19.2231 18.2613V19.1646C19.2231 19.8993 19.5812 20.547 20.1263 20.9593V21.5338L18.2751 22.0621C17.5038 22.2824 16.965 22.9969 16.965 23.7996V24.6981C16.1187 23.6756 15.6102 22.3719 15.6102 20.9715C15.6102 17.7343 18.244 15.1005 21.4812 15.1005C22.4318 15.1005 23.3686 15.3367 24.2129 15.7834C24.2012 15.8551 24.1909 15.9279 24.1909 16.0033C24.1909 16.7502 24.7988 17.3581 25.5457 17.3581C25.7133 17.3581 25.8723 17.3237 26.0202 17.2677C26.8785 18.3169 27.3521 19.6166 27.3521 20.971C27.3521 22.3719 26.8436 23.6752 25.9973 24.6977ZM25.9973 16.0033C25.9973 16.2525 25.7944 16.4549 25.5457 16.4549C25.297 16.4549 25.0941 16.2525 25.0941 16.0033C25.0941 15.7541 25.297 15.5517 25.5457 15.5517C25.7944 15.5517 25.9973 15.7541 25.9973 16.0033ZM24.5593 14.9441C23.6047 14.4546 22.5507 14.1968 21.4812 14.1968C17.7459 14.1968 14.707 17.2357 14.707 20.971C14.707 23.4458 16.0757 25.6625 18.128 26.842H15.5271C15.3429 26.3253 14.8574 25.9522 14.2807 25.9414L13.7305 24.2917C14.0476 24.0434 14.2554 23.6617 14.2554 23.2291C14.2554 22.777 14.0304 22.3783 13.6895 22.132C13.7581 21.7415 13.8038 21.3523 13.8038 20.971C13.8038 17.2357 10.7649 14.1968 7.02956 14.1968C6.34531 14.1968 5.67296 14.3033 5.02222 14.5066L7.6631 10.1052C7.68449 10.1098 7.70742 10.1083 7.72859 10.112C8.52531 13.0217 11.2101 15.1 14.2554 15.1C17.9907 15.1 21.0296 12.0611 21.0296 8.32586C21.0296 7.06099 20.6796 5.84706 20.017 4.77845L25.5497 6.93044C25.5492 6.94389 25.5457 6.95713 25.5457 6.97102C25.5457 7.12009 25.5755 7.26099 25.6202 7.39507L23.5644 8.99379C23.3536 8.8584 23.1048 8.77747 22.836 8.77747C22.0891 8.77747 21.4812 9.38543 21.4812 10.1323C21.4812 10.8792 22.0891 11.4871 22.836 11.4871C22.8779 11.4871 22.9174 11.4785 22.958 11.475L24.5593 14.9441ZM22.836 10.5839C22.5873 10.5839 22.3844 10.3815 22.3844 10.1323C22.3844 9.88313 22.5873 9.6807 22.836 9.6807C23.0848 9.6807 23.2876 9.88313 23.2876 10.1323C23.2876 10.3815 23.0848 10.5839 22.836 10.5839Z" fill="black"/>
</g>
<defs>
<clipPath id="clip0">
<rect width="28" height="28" fill="white" transform="translate(0.255371 0.648438)"/>
</clipPath>
</defs>
</svg>
