<svg width="29" height="29" viewBox="0 0 29 29" fill="none" xmlns="http://www.w3.org/2000/svg">
<g clip-path="url(#clip0)">
<path d="M27.8502 26.4794C27.8502 27.538 26.9926 28.3956 25.934 28.3956C25.426 28.3956 24.9387 28.1938 24.5792 27.8343L19.7212 22.9763L22.4309 20.2666L27.2889 25.1246C27.6484 25.4841 27.8502 25.9714 27.8502 26.4794Z" fill="#ECECEC"/>
<path d="M18.8179 13.0864V11.032C18.8179 5.65644 14.4603 1.29883 9.08477 1.29883C4.48374 1.29883 0.753418 5.02915 0.753418 9.63018C0.753418 12.4726 1.97187 15.0301 3.91471 16.8095C6.37735 18.8779 8.94432 19.6339 11.5921 19.3629H12.541C15.4037 19.3629 18.1486 20.5001 20.1728 22.5242L21.9792 20.7177C19.9551 18.6941 18.8179 15.9487 18.8179 13.0864ZM10.3055 17.5569C10.2824 17.5569 10.2599 17.5569 10.2373 17.5564L6.62439 16.4563C6.24503 16.207 5.88916 15.9184 5.56355 15.5928L4.52393 14.5532C3.26619 13.2955 2.55987 11.5897 2.55987 9.81128C2.55987 6.1076 5.56219 3.10528 9.26587 3.10528C11.0443 3.10528 12.7501 3.8116 14.0078 5.06934L15.0474 6.10896C16.3052 7.3667 17.0115 9.07199 17.0115 10.8509C17.0115 14.5546 14.0092 17.5569 10.3055 17.5569Z" fill="#FCD770"/>
<path d="M21.979 20.7185C21.8277 20.5672 21.6832 20.4109 21.5423 20.252L19.7061 22.0882C19.865 22.2291 20.0213 22.3736 20.1726 22.5249L21.979 20.7185Z" fill="#FFC729"/>
<path d="M12.9269 19.3736C12.445 18.6189 11.7961 17.9839 11.031 17.517C10.7921 17.5427 10.5505 17.5576 10.3053 17.5576C10.2823 17.5576 10.2597 17.5576 10.2371 17.5572L7.37388 16.6855C6.46208 16.779 5.61576 17.0857 4.87646 17.5477C7.0433 19.0565 9.28692 19.5998 11.5919 19.3641H12.5408C12.6695 19.3641 12.7982 19.369 12.9269 19.3736Z" fill="#FFC729"/>
<path d="M6.62439 28.3962C9.86683 28.3962 12.4954 25.7677 12.4954 22.5253C12.4954 19.2828 9.86683 16.6543 6.62439 16.6543C3.38194 16.6543 0.753418 19.2828 0.753418 22.5253C0.753418 25.7677 3.38194 28.3962 6.62439 28.3962Z" fill="#48C397"/>
<path d="M6.62439 27.0412C3.61122 27.0412 1.13187 24.7705 0.795418 21.8477C0.769676 22.0703 0.753418 22.2957 0.753418 22.5251C0.753418 25.7677 3.38181 28.396 6.62439 28.396C9.86697 28.396 12.4954 25.7677 12.4954 22.5251C12.4954 22.2957 12.4791 22.0703 12.4534 21.8477C12.1169 24.7705 9.63755 27.0412 6.62439 27.0412Z" fill="#0FA196"/>
<path d="M20.9433 24.1998L23.6528 21.4902L23.0142 20.8516L20.3046 23.5611L20.9433 24.1998Z" fill="#48C397"/>
<path d="M27.6081 24.8062L22.4308 19.6284L21.9945 20.0647C20.2405 18.153 19.2695 15.6971 19.2695 13.0868V11.0324C19.2695 5.41617 14.7005 0.847656 9.08473 0.847656C4.24208 0.847656 0.301758 4.78798 0.301758 9.63062C0.301758 12.4284 1.46647 15.1168 3.49873 17.0362C1.59247 18.1264 0.301758 20.1758 0.301758 22.5251C0.301758 26.0115 3.13789 28.8477 6.62434 28.8477C10.1108 28.8477 12.9469 26.0115 12.9469 22.5251C12.9469 21.5546 12.7207 20.6382 12.3282 19.8154H12.5409C15.1517 19.8154 17.6076 20.7864 19.5188 22.5404L19.0825 22.9767L24.2603 28.1549C24.7078 28.6015 25.3021 28.8477 25.934 28.8477C27.2396 28.8477 28.3018 27.7855 28.3018 26.4803C28.3018 25.8471 28.0556 25.2528 27.6081 24.8062ZM6.62434 27.9444C3.63602 27.9444 1.20498 25.5134 1.20498 22.5251C1.20498 22.0608 1.27002 21.6124 1.38021 21.182C2.26492 21.2411 3.07285 21.737 3.52944 22.5355C3.9824 23.3289 4.71447 23.9124 5.58969 24.1784L5.85208 23.314C5.19814 23.1158 4.65169 22.68 4.29944 22.0626C3.74711 21.0962 2.77434 20.4499 1.68776 20.3004C2.53905 18.4199 4.4295 17.1057 6.62434 17.1057C8.81963 17.1057 10.7096 18.4199 11.5609 20.3009C10.4743 20.4508 9.49931 21.0998 8.93524 22.0879C8.59653 22.6804 8.05053 23.1158 7.39705 23.314L7.65898 24.1784C8.53421 23.9129 9.26627 23.3294 9.73369 22.5115C10.1772 21.7357 10.9847 21.2416 11.8689 21.1824C11.9787 21.6124 12.0437 22.0608 12.0437 22.5251C12.0437 25.5134 9.61266 27.9444 6.62434 27.9444ZM3.01144 9.81217C3.01144 9.20837 3.10221 8.62624 3.26253 8.07346H3.91466V9.87991H3.0146C3.0146 9.85733 3.01144 9.83475 3.01144 9.81217ZM16.5598 10.8509C16.5598 11.4547 16.469 12.0368 16.3087 12.5896H15.6566V10.7831H16.5567C16.5567 10.8057 16.5598 10.8283 16.5598 10.8509ZM4.87569 5.36379H6.62434V7.17024H4.81789V5.42159C4.83685 5.40217 4.85627 5.38275 4.87569 5.36379ZM14.6956 15.2993H12.9469V13.4928H14.7534V15.2415C14.7344 15.2609 14.715 15.2803 14.6956 15.2993ZM12.0437 13.4928V15.2993H10.2372V13.4928H12.0437ZM10.2372 12.5896V10.7831H12.0437V12.5896H10.2372ZM12.9469 12.5896V10.7831H14.7534V12.5896H12.9469ZM12.9469 9.87991V8.07346H14.7534V9.87991H12.9469ZM12.0437 9.87991H10.2372V8.07346H12.0437V9.87991ZM9.33402 9.87991H7.52756V8.07346H9.33402V9.87991ZM10.2372 7.17024V5.36379H12.0437V7.17024H10.2372ZM9.33402 7.17024H7.52756V5.36379H9.33402V7.17024ZM6.62434 8.07346V9.87991H4.81789V8.07346H6.62434ZM6.62434 10.7831V12.5896H4.81789V10.7831H6.62434ZM7.52756 10.7831H9.33402V12.5896H7.52756V10.7831ZM9.33402 13.4928V15.2993H7.52756V13.4928H9.33402ZM7.52756 16.2025H9.33402V16.8212C8.77176 16.5529 8.16569 16.3664 7.52756 16.2748V16.2025ZM10.2463 17.1053L10.2418 17.3469C10.2404 17.346 10.239 17.3446 10.2377 17.3437V16.2025H12.0441V16.8546C11.4909 17.0149 10.9088 17.1057 10.3054 17.1057L10.2463 17.1053ZM12.9469 16.2025H13.5263C13.3394 16.3154 13.1461 16.4193 12.9469 16.5123V16.2025ZM15.6566 13.4928H15.9664C15.8729 13.692 15.7695 13.8848 15.6566 14.0722V13.4928ZM15.6566 9.87991V8.07346H15.9059C16.1877 8.64069 16.3801 9.24766 16.4781 9.87991H15.6566ZM14.7534 7.17024H12.9469V5.36379H13.6605C13.6695 5.37282 13.6794 5.3805 13.6885 5.38953L14.7281 6.42869C14.7371 6.43772 14.7443 6.44766 14.7534 6.45669V7.17024ZM12.0437 4.46056H10.2372V3.63908C10.8695 3.73708 11.4765 3.92946 12.0437 4.21127V4.46056ZM9.33402 4.46056H7.52756V3.80843C8.08034 3.64811 8.66247 3.55733 9.26582 3.55733C9.28885 3.55733 9.31098 3.56049 9.33402 3.56049V4.46056ZM6.62434 4.46056H6.04492C6.23234 4.34766 6.42518 4.24379 6.62434 4.15075V4.46056ZM3.91466 7.17024H3.60485C3.69834 6.97108 3.80176 6.77824 3.91466 6.59082V7.17024ZM3.91466 10.7831V12.5896H3.66537C3.38356 12.0224 3.19118 11.4154 3.09318 10.7831H3.91466ZM4.81789 13.4928H6.62434V15.2993H5.91124C5.90221 15.2902 5.89182 15.2826 5.88279 15.2735L4.84318 14.2344C4.83414 14.2253 4.82692 14.2154 4.81789 14.2064V13.4928ZM12.5409 18.9122H11.8057C11.5686 18.5735 11.2994 18.2596 11.0023 17.9737C14.6229 17.6219 17.463 14.5627 17.463 10.8509C17.463 8.9392 16.7188 7.14179 15.3667 5.78966L14.327 4.75049C12.9754 3.39837 11.178 2.65411 9.26582 2.65411C5.31918 2.65411 2.10821 5.86508 2.10821 9.81217C2.10821 11.7238 2.85247 13.5213 4.2046 14.8734L5.24376 15.9126C5.37473 16.0435 5.51518 16.1646 5.65608 16.2847C5.22389 16.3515 4.80614 16.4613 4.40737 16.6117L4.20144 16.4608C2.29698 14.7068 1.20498 12.2193 1.20498 9.63062C1.20498 5.28566 4.74021 1.75088 9.08518 1.75088C14.2029 1.75088 18.3663 5.91475 18.3663 11.0324V13.0868C18.3663 15.9392 19.423 18.6281 21.3483 20.7109L20.165 21.8942C18.0827 19.9689 15.3933 18.9122 12.5409 18.9122ZM25.934 27.9444C25.5429 27.9444 25.1752 27.7922 24.8984 27.5158L20.3597 22.9767L22.4308 20.9056L26.9699 25.4452C27.2463 25.7211 27.3985 26.0888 27.3985 26.4803C27.3985 27.2878 26.7414 27.9444 25.934 27.9444Z" fill="black"/>
<path d="M26.0439 27.0409C26.2933 27.0409 26.4955 26.8387 26.4955 26.5893C26.4955 26.3399 26.2933 26.1377 26.0439 26.1377C25.7945 26.1377 25.5923 26.3399 25.5923 26.5893C25.5923 26.8387 25.7945 27.0409 26.0439 27.0409Z" fill="black"/>
</g>
<defs>
<clipPath id="clip0">
<rect width="28" height="28" fill="white" transform="translate(0.301758 0.847656)"/>
</clipPath>
</defs>
</svg>
