<svg width="36" height="36" viewBox="0 0 36 36" fill="none" xmlns="http://www.w3.org/2000/svg">
<g clip-path="url(#clip0)">
<path d="M10.6733 10.6064C10.6569 10.426 10.646 10.2455 10.646 10.0596C10.646 9.68223 10.6897 9.31582 10.7663 8.96582C11.264 6.77285 13.2272 5.1377 15.5679 5.1377C16.3772 5.1377 17.1374 5.33457 17.8101 5.68457C18.3241 4.57441 19.1335 3.61738 20.1507 2.9502C21.1843 2.26113 22.4312 1.85645 23.771 1.85645C27.3968 1.85645 30.3335 4.79316 30.3335 8.41895H30.3882C32.4226 8.44629 34.1343 10.158 34.1616 12.1924C34.189 14.3307 32.4663 16.0752 30.3335 16.0752H29.7866H24.3179H23.771H21.0366C21.0366 15.4736 20.5444 14.9814 19.9429 14.9814H8.4585C8.11396 14.5275 7.91162 13.9588 7.91162 13.3408C7.91162 11.8314 9.13662 10.6064 10.646 10.6064H10.6733Z" fill="#E6E9ED"/>
<path d="M21.0366 31.3877V33.5752C21.0366 34.1768 20.5444 34.6689 19.9429 34.6689H2.44287C1.84131 34.6689 1.34912 34.1768 1.34912 33.5752V31.3877L1.46396 31.3275C2.23506 30.9447 2.63975 30.0369 2.34443 29.1619C2.19131 28.708 1.84131 28.3525 1.41475 28.1393L1.34912 28.1064V21.5439L1.46396 21.4838C2.23506 21.101 2.63975 20.1932 2.34443 19.3182C2.19131 18.8643 1.84131 18.5088 1.41475 18.2955L1.34912 18.2627V16.0752C1.34912 15.4736 1.84131 14.9814 2.44287 14.9814H8.4585H19.9429C20.5444 14.9814 21.0366 15.4736 21.0366 16.0752V18.2627L20.9218 18.3229C20.3202 18.6182 19.9429 19.2307 19.9429 19.9033C19.9429 20.576 20.3202 21.1885 20.9218 21.4838L21.0366 21.5439V28.1064L20.9218 28.1666C20.3202 28.4619 19.9429 29.0744 19.9429 29.7471C19.9429 30.4197 20.3202 31.0322 20.9218 31.3275L21.0366 31.3877Z" fill="#AAB2BD"/>
<path d="M4.63037 18.2627H17.7554V31.3877H4.63037V18.2627Z" fill="#FFEAA7"/>
<path d="M7.91162 20.4502H10.0991H12.2866H14.4741H15.5679V21.5439V23.7314V25.9189V28.1064V29.2002H14.4741H12.2866H10.0991H7.91162H6.81787V28.1064V25.9189V23.7314V21.5439V20.4502H7.91162Z" fill="#FCD770"/>
<path d="M5.72412 5.68457C6.32818 5.68457 6.81787 5.19488 6.81787 4.59082C6.81787 3.98676 6.32818 3.49707 5.72412 3.49707C5.12006 3.49707 4.63037 3.98676 4.63037 4.59082C4.63037 5.19488 5.12006 5.68457 5.72412 5.68457Z" fill="#FF826E"/>
<path d="M2.44287 10.0596C3.04693 10.0596 3.53662 9.56988 3.53662 8.96582C3.53662 8.36176 3.04693 7.87207 2.44287 7.87207C1.83881 7.87207 1.34912 8.36176 1.34912 8.96582C1.34912 9.56988 1.83881 10.0596 2.44287 10.0596Z" fill="#FF826E"/>
<path d="M29.7866 30.2939C30.3907 30.2939 30.8804 29.8043 30.8804 29.2002C30.8804 28.5961 30.3907 28.1064 29.7866 28.1064C29.1826 28.1064 28.6929 28.5961 28.6929 29.2002C28.6929 29.8043 29.1826 30.2939 29.7866 30.2939Z" fill="#FF826E"/>
<path d="M25.4116 27.0127C26.0157 27.0127 26.5054 26.523 26.5054 25.9189C26.5054 25.3149 26.0157 24.8252 25.4116 24.8252C24.8076 24.8252 24.3179 25.3149 24.3179 25.9189C24.3179 26.523 24.8076 27.0127 25.4116 27.0127Z" fill="#FF826E"/>
<path d="M18.3022 17.7158H4.0835V31.9346H18.3022V17.7158ZM17.2085 20.9971H16.1147V19.9033H15.021V18.8096H17.2085V20.9971ZM16.1147 26.4658H17.2085V27.5596H16.1147V26.4658ZM16.1147 25.3721V24.2783H17.2085V25.3721H16.1147ZM16.1147 23.1846V22.0908H17.2085V23.1846H16.1147ZM9.55225 29.7471V30.8408H8.4585V29.7471H9.55225ZM10.646 29.7471H11.7397V30.8408H10.646V29.7471ZM12.8335 29.7471H13.9272V30.8408H12.8335V29.7471ZM7.36475 28.6533V20.9971H15.021V28.6533H7.36475ZM11.7397 19.9033H10.646V18.8096H11.7397V19.9033ZM12.8335 18.8096H13.9272V19.9033H12.8335V18.8096ZM9.55225 19.9033H8.4585V18.8096H9.55225V19.9033ZM7.36475 18.8096V19.9033H6.271V20.9971H5.17725V18.8096H7.36475ZM6.271 27.5596H5.17725V26.4658H6.271V27.5596ZM6.271 25.3721H5.17725V24.2783H6.271V25.3721ZM6.271 23.1846H5.17725V22.0908H6.271V23.1846ZM5.17725 28.6533H6.271V29.7471H7.36475V30.8408H5.17725V28.6533ZM15.021 30.8408V29.7471H16.1147V28.6533H17.2085V30.8408H15.021Z" fill="black"/>
<path d="M29.7866 16.6221H30.3335C31.5137 16.6221 32.62 16.1589 33.4485 15.3189C34.277 14.4789 34.7244 13.366 34.708 12.1853C34.6773 9.99504 32.9875 8.1641 30.8541 7.90488C30.5889 4.22496 27.5176 1.30957 23.771 1.30957C22.4131 1.30957 21.1132 1.70551 20.0019 2.40332H12.0602L10.4196 4.04395H7.26412C7.03772 3.40902 6.43615 2.9502 5.72412 2.9502C4.81959 2.9502 4.0835 3.68629 4.0835 4.59082C4.0835 5.49535 4.81959 6.23145 5.72412 6.23145C6.43615 6.23145 7.03772 5.77262 7.26412 5.1377H10.8724L12.513 3.49707H18.6533C18.2322 3.93457 17.8626 4.4273 17.5612 4.96871C16.9258 4.7177 16.2575 4.59082 15.5679 4.59082C13.1239 4.59082 11.0501 6.20301 10.3512 8.41895H3.98287C3.75647 7.78402 3.1549 7.3252 2.44287 7.3252C1.53834 7.3252 0.802246 8.06129 0.802246 8.96582C0.802246 9.87035 1.53834 10.6064 2.44287 10.6064C3.1549 10.6064 3.75647 10.1476 3.98287 9.5127H10.127C10.109 9.69262 10.0991 9.87473 10.0991 10.0596C10.0991 10.076 10.1019 10.0918 10.1019 10.1088C8.55092 10.3691 7.36475 11.7171 7.36475 13.3408C7.36475 13.7198 7.43201 14.0868 7.55506 14.4346H2.44287C1.53834 14.4346 0.802246 15.1707 0.802246 16.0752V18.6007L1.17084 18.785C1.48967 18.9446 1.7292 19.2028 1.82764 19.4926C2.02889 20.0876 1.77295 20.7204 1.22006 20.9971L0.802246 21.206V28.4444L1.17084 28.6287C1.48967 28.7884 1.7292 29.0465 1.82764 29.3364C2.02889 29.9314 1.77295 30.5641 1.22006 30.8408L0.802246 31.0497V33.5752C0.802246 34.4797 1.53834 35.2158 2.44287 35.2158H19.9429C20.8474 35.2158 21.5835 34.4797 21.5835 33.5752V31.0497L21.1657 30.8408C20.749 30.6325 20.4897 30.2136 20.4897 29.7471C20.4897 29.2806 20.749 28.8617 21.1657 28.6533L21.5835 28.4444V21.206L21.1657 20.9971C20.749 20.7887 20.4897 20.3698 20.4897 19.9033C20.4897 19.4368 20.749 19.0179 21.1657 18.8096L21.5835 18.6007V16.6221H24.3179C24.6192 16.6221 24.8647 16.8671 24.8647 17.1689V24.3789C24.2298 24.6054 23.771 25.2069 23.771 25.9189C23.771 26.8235 24.5071 27.5596 25.4116 27.5596C26.3162 27.5596 27.0522 26.8235 27.0522 25.9189C27.0522 25.2069 26.5934 24.6054 25.9585 24.3789V17.1689C25.9585 16.2644 25.2224 15.5283 24.3179 15.5283H21.4829C21.2565 14.8934 20.6549 14.4346 19.9429 14.4346H8.75709C8.56459 14.1032 8.4585 13.7313 8.4585 13.3408C8.4585 12.1344 9.43959 11.1533 10.646 11.1533C11.8524 11.1533 12.8335 12.1344 12.8335 13.3408H13.9272C13.9272 11.7193 12.7438 10.3718 11.1956 10.1093C11.1956 10.0924 11.1929 10.0765 11.1929 10.0596C11.1929 7.64731 13.1556 5.68457 15.5679 5.68457C16.2657 5.68457 16.9367 5.84754 17.5618 6.1691L18.0698 6.43051L18.3088 5.91152C19.2888 3.78035 21.4331 2.40332 23.771 2.40332C26.9205 2.40332 29.5077 4.83746 29.7615 7.92293C28.8258 8.05254 27.9486 8.45449 27.2617 9.13207C26.4212 9.96059 25.9585 11.0669 25.9585 12.2471H27.0522C27.0522 11.3622 27.3995 10.5321 28.0295 9.91082C28.6595 9.28957 29.4951 8.92863 30.38 8.96637C32.1092 8.99043 33.5901 10.4714 33.6142 12.2C33.6262 13.086 33.291 13.9205 32.6692 14.5511C32.0474 15.1816 31.2183 15.5283 30.3335 15.5283H29.7866C28.8821 15.5283 28.146 16.2644 28.146 17.1689V22.3172L29.2397 23.411V27.6602C28.6048 27.8866 28.146 28.4882 28.146 29.2002C28.146 30.1047 28.8821 30.8408 29.7866 30.8408C30.6912 30.8408 31.4272 30.1047 31.4272 29.2002C31.4272 28.4882 30.9684 27.8866 30.3335 27.6602V22.9582L29.2397 21.8644V17.1689C29.2397 16.8671 29.4853 16.6221 29.7866 16.6221ZM5.72412 5.1377C5.42279 5.1377 5.17725 4.8927 5.17725 4.59082C5.17725 4.28895 5.42279 4.04395 5.72412 4.04395C6.02545 4.04395 6.271 4.28895 6.271 4.59082C6.271 4.8927 6.02545 5.1377 5.72412 5.1377ZM2.44287 9.5127C2.14154 9.5127 1.896 9.2677 1.896 8.96582C1.896 8.66395 2.14154 8.41895 2.44287 8.41895C2.7442 8.41895 2.98975 8.66395 2.98975 8.96582C2.98975 9.2677 2.7442 9.5127 2.44287 9.5127ZM25.4116 26.4658C25.1103 26.4658 24.8647 26.2208 24.8647 25.9189C24.8647 25.6171 25.1103 25.3721 25.4116 25.3721C25.713 25.3721 25.9585 25.6171 25.9585 25.9189C25.9585 26.2208 25.713 26.4658 25.4116 26.4658ZM20.4897 16.0752V17.9351C19.81 18.3557 19.396 19.0918 19.396 19.9033C19.396 20.7149 19.81 21.451 20.4897 21.8715V27.7794C19.81 28.2 19.396 28.9361 19.396 29.7476C19.396 30.5592 19.81 31.2953 20.4897 31.7158V33.5752C20.4897 33.8771 20.2442 34.1221 19.9429 34.1221H2.44287C2.14154 34.1221 1.896 33.8771 1.896 33.5752V31.7153C2.81256 31.1493 3.21834 30.0353 2.86342 28.9864C2.69772 28.4964 2.35865 28.0769 1.896 27.7838V21.8715C2.81256 21.3055 3.21834 20.1915 2.86342 19.1426C2.69772 18.6526 2.35865 18.2332 1.896 17.94V16.0752C1.896 15.7733 2.14154 15.5283 2.44287 15.5283H19.9429C20.2442 15.5283 20.4897 15.7733 20.4897 16.0752ZM29.7866 29.7471C29.4853 29.7471 29.2397 29.5021 29.2397 29.2002C29.2397 28.8983 29.4853 28.6533 29.7866 28.6533C30.088 28.6533 30.3335 28.8983 30.3335 29.2002C30.3335 29.5021 30.088 29.7471 29.7866 29.7471Z" fill="black"/>
<path d="M8.4585 22.0908H13.9272V23.1846H8.4585V22.0908Z" fill="black"/>
<path d="M8.4585 24.2783H13.9272V25.3721H8.4585V24.2783Z" fill="black"/>
<path d="M8.4585 26.4658H9.55225V27.5596H8.4585V26.4658Z" fill="black"/>
<path d="M10.646 26.4658H13.9272V27.5596H10.646V26.4658Z" fill="black"/>
<path d="M25.6169 3.85473C25.0306 3.61738 24.4094 3.49707 23.7712 3.49707C22.0195 3.49707 20.386 4.43988 19.5083 5.95746L20.4549 6.50543C21.138 5.32473 22.4084 4.59082 23.7712 4.59082C24.2683 4.59082 24.7512 4.68434 25.2067 4.86863L25.6169 3.85473Z" fill="black"/>
<path d="M28.0339 5.95746C27.726 5.42535 27.3268 4.96105 26.8477 4.57715L26.1636 5.43082C26.5371 5.72996 26.8477 6.09145 27.0872 6.50598L28.0339 5.95746Z" fill="black"/>
<path d="M31.4272 12.2471C31.4272 12.8503 30.9367 13.3408 30.3335 13.3408V14.4346C31.5399 14.4346 32.521 13.4535 32.521 12.2471H31.4272Z" fill="black"/>
<path d="M17.5372 7.43457C16.9657 7.00527 16.2848 6.77832 15.5679 6.77832C14.263 6.77832 13.0823 7.55105 12.5601 8.74707L13.5625 9.18512C13.9108 8.38723 14.6978 7.87207 15.5679 7.87207C16.0458 7.87207 16.4997 8.02301 16.8804 8.30957L17.5372 7.43457Z" fill="black"/>
<path d="M15.021 11.1533H16.1147V12.2471H15.021V11.1533Z" fill="black"/>
<path d="M17.2085 11.1533H18.3022V12.2471H17.2085V11.1533Z" fill="black"/>
<path d="M21.5835 11.1533H22.6772V12.2471H21.5835V11.1533Z" fill="black"/>
<path d="M23.771 11.1533H24.8647V12.2471H23.771V11.1533Z" fill="black"/>
<path d="M19.396 11.1533H20.4897V12.2471H19.396V11.1533Z" fill="black"/>
</g>
<defs>
<clipPath id="clip0">
<rect width="35" height="35" fill="white" transform="translate(0.255371 0.762695)"/>
</clipPath>
</defs>
</svg>
