<svg width="34" height="34" viewBox="0 0 34 34" fill="none" xmlns="http://www.w3.org/2000/svg">
<g clip-path="url(#clip0)">
<path d="M30.8577 17.1784C31.6569 17.462 32.2241 18.2252 32.2241 19.1172C32.2241 20.2567 31.3012 21.1797 30.1616 21.1797C29.2026 21.1797 28.3982 20.5248 28.1662 19.638C28.1249 19.473 28.0991 19.2977 28.0991 19.1172C28.0991 17.9777 29.0221 17.0547 30.1616 17.0547C30.404 17.0547 30.6412 17.0959 30.8577 17.1784Z" fill="#FFEAA7"/>
<path d="M22.1901 26.4442C22.4272 26.3772 22.6799 26.3359 22.9429 26.3359C24.366 26.3359 25.521 27.4909 25.521 28.9141C25.521 30.3372 24.366 31.4922 22.9429 31.4922C22.1024 31.4922 21.3496 31.0848 20.8804 30.4609C20.5555 30.033 20.3647 29.4967 20.3647 28.9141C20.3647 27.7539 21.133 26.7691 22.1901 26.4442Z" fill="#FF826E"/>
<path d="M10.9494 28.4345C11.9085 28.615 12.6304 29.4503 12.6304 30.4609C12.6304 31.6005 11.7074 32.5234 10.5679 32.5234C9.42834 32.5234 8.50537 31.6005 8.50537 30.4609C8.50537 29.3214 9.42834 28.3984 10.5679 28.3984C10.6968 28.3984 10.8257 28.4087 10.9494 28.4345Z" fill="#69D6F4"/>
<path d="M6.44287 25.3047C7.01006 25.3047 7.47412 25.7687 7.47412 26.3359C7.47412 26.6195 7.36068 26.8773 7.1699 27.063C6.98428 27.2537 6.72646 27.3672 6.44287 27.3672H3.34912C2.78193 27.3672 2.31787 26.9031 2.31787 26.3359C2.31787 26.0523 2.43131 25.7945 2.62209 25.6089C2.80771 25.4181 3.06553 25.3047 3.34912 25.3047H6.44287Z" fill="#FFC729"/>
<path d="M12.1147 17.0548L10.7638 20.2001L9.516 20.4115C8.53631 20.5714 7.65975 21.1076 7.06162 21.9017C6.65943 22.4379 6.44287 23.0876 6.44287 23.7579V25.3048H3.34912V21.2107C3.34912 20.1898 3.69459 19.1998 4.33396 18.4006C5.03006 17.5343 6.0149 16.9517 7.11318 16.7712L10.9597 16.1318L12.1147 17.0548Z" fill="#FCD770"/>
<path d="M16.7552 21.1797V30.4609H12.6302C12.6302 29.4503 11.9083 28.615 10.9492 28.4345C11.2431 26.702 11.5989 24.1703 11.5989 22.1078V20.4939L13.6614 20.1484L14.177 23.7578L16.7552 21.1797Z" fill="#FCD770"/>
<path d="M31.1929 9.32031C31.7601 9.32031 32.2241 9.78437 32.2241 10.3516C32.2241 10.6352 32.1107 10.893 31.9199 11.0786C31.7343 11.2694 31.4765 11.3828 31.1929 11.3828H28.0991C27.6041 11.3828 27.1865 11.027 27.0885 10.5578C27.073 10.4908 27.0679 10.4238 27.0679 10.3516C27.0679 10.068 27.1813 9.81016 27.3721 9.62453C27.5577 9.43375 27.8155 9.32031 28.0991 9.32031H31.1929Z" fill="#3BAFDA"/>
<path d="M31.1929 11.3828V15.4769C31.1929 16.0647 31.0794 16.6422 30.8577 17.1784C30.6412 17.0959 30.404 17.0547 30.1616 17.0547C29.0221 17.0547 28.0991 17.9777 28.0991 19.1172C28.0991 19.2977 28.1249 19.473 28.1662 19.638C27.9238 19.7102 27.6712 19.7566 27.4133 19.7772L22.7212 20.1484L21.396 17.0547L22.6851 16.0234H25.0054C25.4901 16.0234 25.9644 15.91 26.3872 15.6986C26.8152 15.4872 27.1916 15.1778 27.4804 14.7859C27.8826 14.2497 28.0991 13.6 28.0991 12.9297V11.3828H31.1929Z" fill="#4FC1E9"/>
<path d="M21.9116 22.1078C21.9116 23.9228 22.0044 25.1758 22.1901 26.4442C21.133 26.7691 20.3647 27.7539 20.3647 28.9141C20.3647 29.4967 20.5555 30.033 20.8804 30.4609H16.7554V21.1797L19.3335 23.7578L19.8491 20.1484L21.9116 20.4939V22.1078Z" fill="#4FC1E9"/>
<path d="M6.44287 28.9141V30.7188C6.44287 31.2137 6.24178 31.6675 5.91178 31.9923C5.58693 32.3223 5.13318 32.5234 4.63818 32.5234C3.64303 32.5234 2.8335 31.7139 2.8335 30.7188V30.5434C2.8335 29.4658 3.00881 28.3933 3.34912 27.3672H6.44287V28.9141Z" fill="#E6E9ED"/>
<path d="M31.7085 5.96875V6.14406C31.7085 7.22172 31.5332 8.29422 31.1929 9.32031H28.0991V7.77344V5.96875C28.0991 5.47375 28.3002 5.02 28.6302 4.69516C28.9551 4.36516 29.4088 4.16406 29.9038 4.16406C30.899 4.16406 31.7085 4.97359 31.7085 5.96875Z" fill="#E6E9ED"/>
<path d="M22.7212 20.1487L22.9429 20.6644L21.9116 20.4942L19.8491 20.1487L19.3335 23.7581L16.7554 21.18L14.1772 23.7581L13.6616 20.1487L11.5991 20.4942L10.5679 20.6644L10.7638 20.2003L12.1147 17.055L10.9597 16.132L9.53662 14.9925L12.9397 14.5078H12.9449C13.1512 15.0131 13.4605 15.4669 13.8369 15.8484C14.0896 16.1011 14.3783 16.3228 14.6929 16.5033V17.055C14.6929 18.1945 15.6158 19.1175 16.7554 19.1175C17.3226 19.1175 17.8382 18.8855 18.2146 18.5142C18.5858 18.1378 18.8179 17.6222 18.8179 17.055V16.5033C19.6016 16.0495 20.2204 15.3483 20.5658 14.5078H20.571L23.9741 14.9925L22.6851 16.0237L21.396 17.055L22.7212 20.1487Z" fill="#E6E9ED"/>
<path d="M18.8179 16.5029V17.0546C18.8179 17.6218 18.5858 18.1375 18.2146 18.5139C17.8382 18.8851 17.3226 19.1172 16.7554 19.1172C15.6158 19.1172 14.6929 18.1942 14.6929 17.0546V16.5029C15.2962 16.8536 16.0026 17.0546 16.7554 17.0546C17.5082 17.0546 18.2146 16.8536 18.8179 16.5029Z" fill="#F0D0B4"/>
<path d="M20.7929 13.7856C20.7414 14.0331 20.664 14.2755 20.5661 14.5075C20.2206 15.348 19.6019 16.0492 18.8181 16.503C18.2148 16.8536 17.5084 17.0547 16.7556 17.0547C16.0028 17.0547 15.2964 16.8536 14.6931 16.503C14.3786 16.3225 14.0898 16.1008 13.8372 15.8481C13.4608 15.4666 13.1514 15.0128 12.9451 14.5075C12.8472 14.2755 12.775 14.0331 12.7183 13.7856L12.7234 13.7753C12.9812 13.2545 13.5123 12.9297 14.0898 12.9297C14.4765 12.9297 14.8478 13.0844 15.1211 13.3577C15.5078 13.7444 16.0337 13.9609 16.5803 13.9609H16.7556H16.9309C17.4775 13.9609 18.0034 13.7444 18.3901 13.3577C18.6634 13.0844 19.0347 12.9297 19.4214 12.9297C19.9989 12.9297 20.53 13.2545 20.7878 13.7753L20.7929 13.7856Z" fill="#FF826E"/>
<path d="M16.7554 13.9609C17.3249 13.9609 17.7866 13.4992 17.7866 12.9297C17.7866 12.3601 17.3249 11.8984 16.7554 11.8984C16.1858 11.8984 15.7241 12.3601 15.7241 12.9297C15.7241 13.4992 16.1858 13.9609 16.7554 13.9609Z" fill="#FC6E51"/>
<path d="M12.6304 8.80469C12.3468 8.80469 12.089 8.69125 11.9033 8.50047C11.8776 8.47469 11.8518 8.44891 11.8312 8.42313C11.6868 8.24781 11.5991 8.02094 11.5991 7.77344C11.5991 7.20625 12.0632 6.74219 12.6304 6.74219H15.2085H20.8804C21.164 6.74219 21.4218 6.85563 21.6074 7.04641C21.7982 7.23203 21.9116 7.48984 21.9116 7.77344C21.9116 8.34063 21.4476 8.80469 20.8804 8.80469H12.6304Z" fill="#FCD770"/>
<path d="M21.396 8.80469C21.6126 8.80469 21.8137 8.84594 21.9993 8.92844C22.5562 9.16047 22.9429 9.71219 22.9429 10.3516C22.9429 10.7795 22.7676 11.1663 22.4891 11.4447C22.2107 11.7231 21.824 11.8984 21.396 11.8984H20.8804V8.80469H21.396Z" fill="#F0D0B4"/>
<path d="M20.8804 8.80469V11.8984V12.9297C20.8804 13.2236 20.8494 13.5123 20.7927 13.7856L20.7876 13.7753C20.5297 13.2545 19.9987 12.9297 19.4212 12.9297C19.0344 12.9297 18.6632 13.0844 18.3899 13.3577C18.0032 13.7444 17.4772 13.9609 16.9307 13.9609H16.7554C17.3226 13.9609 17.7866 13.4969 17.7866 12.9297C17.7866 12.3625 17.3226 11.8984 16.7554 11.8984C16.1882 11.8984 15.7241 12.3625 15.7241 12.9297C15.7241 13.4969 16.1882 13.9609 16.7554 13.9609H16.5801C16.0335 13.9609 15.5076 13.7444 15.1208 13.3577C14.8476 13.0844 14.4763 12.9297 14.0896 12.9297C13.5121 12.9297 12.981 13.2545 12.7232 13.7753L12.718 13.7856C12.6613 13.5123 12.6304 13.2236 12.6304 12.9297V11.8984V8.80469H20.8804Z" fill="#F0D0B4"/>
<path d="M12.6304 8.80469V11.8984H12.1147C11.2588 11.8984 10.5679 11.2075 10.5679 10.3516C10.5679 9.92359 10.7432 9.53687 11.0216 9.25844C11.3001 8.98 11.6868 8.80469 12.1147 8.80469H12.6304Z" fill="#F0D0B4"/>
<path d="M8.17537 10.1144C8.37646 10.3052 8.50537 10.5733 8.50537 10.8672C8.50537 11.4344 8.04131 11.8984 7.47412 11.8984C6.90693 11.8984 6.44287 11.4344 6.44287 10.8672C6.44287 10.3 6.90693 9.83594 7.47412 9.83594C7.7474 9.83594 7.9949 9.93906 8.17537 10.1144Z" fill="#FC6E51"/>
<path d="M16.7554 4.53016L15.2085 6.74219H12.6304C12.0632 6.74219 11.5991 7.20625 11.5991 7.77344C11.5991 8.02094 11.6868 8.24781 11.8312 8.42313L8.17537 10.1144C7.9949 9.93906 7.7474 9.83594 7.47412 9.83594L8.78381 4.58688C9.00553 3.70516 9.51084 2.9575 10.1915 2.42641C10.8669 1.89531 11.7229 1.58594 12.6304 1.58594C13.9246 1.58594 15.1363 2.215 15.8737 3.27719L16.7554 4.53016Z" fill="#FF826E"/>
<path d="M26.0366 9.83594C26.4955 9.83594 26.8926 10.1402 27.0215 10.563C27.0524 10.6558 27.0679 10.7589 27.0679 10.8672C27.0679 11.4344 26.6038 11.8984 26.0366 11.8984C25.4694 11.8984 25.0054 11.4344 25.0054 10.8672C25.0054 10.5733 25.1343 10.3052 25.3354 10.1144C25.5158 9.94422 25.7633 9.83594 26.0366 9.83594Z" fill="#A0D468"/>
<path d="M21.396 8.80469H20.8804C21.4476 8.80469 21.9116 8.34062 21.9116 7.77344C21.9116 7.48984 21.7982 7.23203 21.6074 7.04641C21.4218 6.85563 21.164 6.74219 20.8804 6.74219H15.2085L16.7554 4.53016L17.6371 3.27719C18.3744 2.215 19.5862 1.58594 20.8804 1.58594C21.7879 1.58594 22.6438 1.89531 23.3193 2.42641C23.9999 2.9575 24.5052 3.70516 24.7269 4.58688L26.0366 9.83594C25.7633 9.83594 25.5158 9.94422 25.3354 10.1144L22.0302 8.85109L21.9993 8.92844C21.8137 8.84594 21.6126 8.80469 21.396 8.80469Z" fill="#B4DD7F"/>
<path d="M18.8179 11.3828C19.1026 11.3828 19.3335 11.152 19.3335 10.8672C19.3335 10.5824 19.1026 10.3516 18.8179 10.3516C18.5331 10.3516 18.3022 10.5824 18.3022 10.8672C18.3022 11.152 18.5331 11.3828 18.8179 11.3828Z" fill="black"/>
<path d="M14.6929 11.3828C14.9776 11.3828 15.2085 11.152 15.2085 10.8672C15.2085 10.5824 14.9776 10.3516 14.6929 10.3516C14.4081 10.3516 14.1772 10.5824 14.1772 10.8672C14.1772 11.152 14.4081 11.3828 14.6929 11.3828Z" fill="black"/>
<path d="M31.495 16.9222C31.6368 16.4535 31.7085 15.9688 31.7085 15.4758V11.8036C32.3071 11.5901 32.7397 11.0229 32.7397 10.3516C32.7397 9.72869 32.368 9.1945 31.8364 8.94906C32.089 8.03486 32.2241 7.09436 32.2241 6.14303V5.96875C32.2241 4.68948 31.1831 3.64844 29.9038 3.64844C28.6245 3.64844 27.5835 4.68948 27.5835 5.96875V8.89956C27.2556 9.01661 26.9787 9.2373 26.7951 9.52708C26.6889 9.46675 26.5754 9.4188 26.4558 9.38477L25.225 4.46158C24.7259 2.46508 22.9393 1.07031 20.8804 1.07031C19.4206 1.07031 18.0491 1.78445 17.2122 2.98019L16.7554 3.63297L16.2985 2.98019C15.4612 1.78445 14.0901 1.07031 12.6304 1.07031C10.572 1.07031 8.78536 2.46508 8.28623 4.46209L7.05543 9.38528C6.40678 9.56936 5.92725 10.1603 5.92725 10.8672C5.92725 11.72 6.62128 12.4141 7.47412 12.4141C8.32696 12.4141 9.021 11.72 9.021 10.8672C9.021 10.6795 8.98232 10.5021 8.92096 10.3356L10.1466 9.76839C10.0909 9.95453 10.0522 10.1479 10.0522 10.3516C10.0522 11.489 10.9773 12.4141 12.1147 12.4141V12.9297C12.1147 13.3278 12.1704 13.7124 12.2653 14.0816L8.28365 14.6503L9.73514 15.8115L7.02604 16.2632C5.80504 16.4669 4.70625 17.1114 3.93281 18.0782C3.22382 18.964 2.8335 20.0773 2.8335 21.2122V24.8845C2.23486 25.0974 1.80225 25.6646 1.80225 26.3359C1.80225 26.9588 2.17401 27.493 2.70562 27.7379C2.45296 28.6526 2.31787 29.5931 2.31787 30.5445V30.7188C2.31787 31.998 3.35892 33.0391 4.63818 33.0391C5.91745 33.0391 6.9585 31.998 6.9585 30.7188V27.7879C7.55714 27.5745 7.98975 27.0073 7.98975 26.3359C7.98975 25.6646 7.55714 25.0974 6.9585 24.8839V23.7578C6.9585 23.2035 7.14154 22.6539 7.47412 22.2109C7.99284 21.5195 8.74771 21.0606 9.60056 20.9183L9.92128 20.8646L9.72276 21.3277L11.084 21.1008V22.1088C11.084 23.9553 10.7901 26.1926 10.5148 27.8885C9.11793 27.9179 7.98975 29.0579 7.98975 30.4609C7.98975 31.8825 9.14629 33.0391 10.5679 33.0391C11.8126 33.0391 12.8542 32.1517 13.0939 30.9766H20.6432C21.2099 31.6077 22.0292 32.0078 22.9429 32.0078C24.6491 32.0078 26.0366 30.6203 26.0366 28.9141C26.0366 27.2079 24.6491 25.8203 22.9429 25.8203C22.8367 25.8203 22.7315 25.8255 22.6278 25.8363C22.4865 24.703 22.4272 23.5804 22.4272 22.1088V21.1008L23.7885 21.3277L23.4791 20.6058L27.4567 20.2897C27.5887 20.2789 27.7201 20.2603 27.8506 20.2376C28.2693 21.0967 29.1433 21.6953 30.1616 21.6953C31.5832 21.6953 32.7397 20.5388 32.7397 19.1172C32.7397 18.1855 32.238 17.3749 31.495 16.9222ZM29.9038 4.67969C30.6143 4.67969 31.1929 5.25822 31.1929 5.96875V6.14303C31.1929 7.04641 31.0578 7.93895 30.8056 8.80469H28.6147V5.96875C28.6147 5.25822 29.1933 4.67969 29.9038 4.67969ZM28.0991 9.83594H31.1929C31.477 9.83594 31.7085 10.0675 31.7085 10.3516C31.7085 10.6357 31.477 10.8672 31.1929 10.8672H28.0991C27.815 10.8672 27.5835 10.6357 27.5835 10.3516C27.5835 10.0675 27.815 9.83594 28.0991 9.83594ZM16.7554 16.5391C15.092 16.5391 13.6915 15.4062 13.2754 13.8728C13.4631 13.6098 13.758 13.4453 14.0891 13.4453C14.3407 13.4453 14.5774 13.5433 14.7558 13.7217C15.2425 14.2084 15.8896 14.4766 16.5785 14.4766H16.9327C17.6211 14.4766 18.2687 14.2084 18.7555 13.7217C18.9334 13.5433 19.17 13.4453 19.4217 13.4453C19.7522 13.4453 20.0466 13.6093 20.2353 13.8733C19.8192 15.4067 18.4188 16.5391 16.7554 16.5391ZM18.2765 17.3089C18.1543 18.0406 17.5211 18.6016 16.7554 18.6016C15.9897 18.6016 15.3565 18.0406 15.2343 17.3089C15.7117 17.4754 16.2222 17.5703 16.7554 17.5703C17.2885 17.5703 17.799 17.4754 18.2765 17.3089ZM12.1147 7.77344C12.1147 7.48933 12.3463 7.25781 12.6304 7.25781H20.8804C21.1645 7.25781 21.396 7.48933 21.396 7.77344C21.396 8.05755 21.1645 8.28906 20.8804 8.28906H12.6304C12.3463 8.28906 12.1147 8.05755 12.1147 7.77344ZM21.396 9.32031C21.9647 9.32031 22.4272 9.78283 22.4272 10.3516C22.4272 10.9203 21.9647 11.3828 21.396 11.3828V9.32031ZM13.146 9.32031H20.3647V12.6482C20.0791 12.4997 19.7589 12.4141 19.4217 12.4141C19.0087 12.4141 18.6173 12.544 18.2868 12.7781C18.2094 11.9969 17.5567 11.3828 16.7554 11.3828C15.9541 11.3828 15.3013 11.9969 15.224 12.7781C14.8934 12.544 14.5021 12.4141 14.0891 12.4141C13.7519 12.4141 13.4322 12.4997 13.146 12.6487V9.32031ZM16.2397 12.9297C16.2397 12.6456 16.4713 12.4141 16.7554 12.4141C17.0395 12.4141 17.271 12.6456 17.271 12.9297C17.271 13.2138 17.0395 13.4453 16.7554 13.4453C16.4713 13.4453 16.2397 13.2138 16.2397 12.9297ZM21.396 12.9297V12.4141C22.5335 12.4141 23.4585 11.489 23.4585 10.3516C23.4585 10.2072 23.443 10.0664 23.4147 9.93081L24.5774 10.3748C24.5248 10.5305 24.4897 10.6939 24.4897 10.8672C24.4897 11.72 25.1838 12.4141 26.0366 12.4141C26.5858 12.4141 27.0663 12.1243 27.3406 11.6917C27.418 11.7355 27.4984 11.7731 27.5835 11.8036V12.9297C27.5835 13.484 27.4004 14.0336 27.0679 14.4766C26.5837 15.1221 25.8128 15.5078 25.0054 15.5078H24.1551L25.2271 14.6503L21.2454 14.0816C21.3403 13.7124 21.396 13.3278 21.396 12.9297ZM26.0366 11.3828C25.7525 11.3828 25.521 11.1513 25.521 10.8672C25.521 10.5831 25.7525 10.3516 26.0366 10.3516C26.3207 10.3516 26.5522 10.5831 26.5522 10.8672C26.5522 11.1513 26.3207 11.3828 26.0366 11.3828ZM18.0573 3.57161C18.7013 2.65122 19.7568 2.10156 20.8804 2.10156C22.4649 2.10156 23.8395 3.17509 24.2237 4.71217L25.4096 9.45592C25.3596 9.47809 25.3132 9.50697 25.2658 9.5343L22.2922 8.39889C22.3777 8.20708 22.4272 7.99619 22.4272 7.77344C22.4272 6.92059 21.7332 6.22656 20.8804 6.22656H16.199L18.0573 3.57161ZM9.28654 4.71217C9.67068 3.17509 11.0459 2.10156 12.6304 2.10156C13.7539 2.10156 14.8094 2.65122 15.4539 3.57161L16.1263 4.53273L14.9399 6.22656H12.6304C11.7775 6.22656 11.0835 6.92059 11.0835 7.77344C11.0835 7.91162 11.1077 8.04362 11.1418 8.17098L8.22332 9.52192C8.18259 9.49924 8.1434 9.47448 8.10112 9.45541L9.28654 4.71217ZM7.47412 11.3828C7.19001 11.3828 6.9585 11.1513 6.9585 10.8672C6.9585 10.5831 7.19001 10.3516 7.47412 10.3516C7.75823 10.3516 7.98975 10.5831 7.98975 10.8672C7.98975 11.1513 7.75823 11.3828 7.47412 11.3828ZM11.0835 10.3516C11.0835 9.78283 11.546 9.32031 12.1147 9.32031V11.3828C11.546 11.3828 11.0835 10.9203 11.0835 10.3516ZM12.6417 15.0695C13.0032 15.7615 13.5322 16.3529 14.1772 16.7855V17.0547C14.1772 18.4763 15.3338 19.6328 16.7554 19.6328C18.1769 19.6328 19.3335 18.4763 19.3335 17.0547V16.7855C19.9785 16.3529 20.5076 15.7615 20.869 15.0695L22.7212 15.334L20.7674 16.8969L22.0972 20.0005L19.4129 19.5529L18.9684 22.6642L16.7554 20.4506L14.5418 22.6642L14.0973 19.5529L11.413 20.0005L12.7428 16.8969L10.7891 15.334L12.6417 15.0695ZM4.63818 32.0078C3.92765 32.0078 3.34912 31.4293 3.34912 30.7188V30.5445C3.34912 29.6411 3.48421 28.7485 3.73636 27.8828H5.92725V30.7188C5.92725 31.4293 5.34871 32.0078 4.63818 32.0078ZM6.44287 26.8516H3.34912C3.06501 26.8516 2.8335 26.62 2.8335 26.3359C2.8335 26.0518 3.06501 25.8203 3.34912 25.8203H6.44287C6.72698 25.8203 6.9585 26.0518 6.9585 26.3359C6.9585 26.62 6.72698 26.8516 6.44287 26.8516ZM9.4304 19.9015C8.31511 20.0871 7.32717 20.6878 6.64912 21.5922C6.18351 22.2125 5.92725 22.9818 5.92725 23.7578V24.7891H3.86475V21.2117C3.86475 20.3098 4.17515 19.426 4.73821 18.7212C5.35284 17.9534 6.22528 17.4414 7.19568 17.2795L10.8169 16.6762L11.4867 17.212L10.4039 19.7385L9.4304 19.9015ZM10.5679 32.0078C9.71503 32.0078 9.021 31.3138 9.021 30.4609C9.021 29.6081 9.71503 28.9141 10.5679 28.9141C11.4207 28.9141 12.1147 29.6081 12.1147 30.4609C12.1147 31.3138 11.4207 32.0078 10.5679 32.0078ZM11.529 28.0726C11.8116 26.3349 12.1147 24.0295 12.1147 22.1088V20.9291L13.2259 20.744L13.8127 24.8515L16.2397 22.4244V29.9453H13.0939C12.9196 29.0909 12.3205 28.3928 11.529 28.0726ZM25.0054 28.9141C25.0054 30.0515 24.0803 30.9766 22.9429 30.9766C21.8054 30.9766 20.8804 30.0515 20.8804 28.9141C20.8804 27.7766 21.8054 26.8516 22.9429 26.8516C24.0803 26.8516 25.0054 27.7766 25.0054 28.9141ZM21.6249 26.1194C20.5772 26.6154 19.8491 27.6797 19.8491 28.9141C19.8491 29.276 19.9151 29.622 20.0296 29.9453H17.271V22.4244L19.698 24.8515L20.2848 20.744L21.396 20.9291V22.1088C21.396 23.6702 21.4656 24.8963 21.6249 26.1194ZM27.5835 19.1172C27.5835 19.1569 27.5933 19.1935 27.5954 19.2322C27.5211 19.243 27.4474 19.2554 27.3731 19.2616L23.0501 19.605L22.0245 17.2125L22.866 16.5391H25.0054C26.1356 16.5391 27.2148 15.9992 27.8929 15.0953C28.3585 14.4745 28.6147 13.7057 28.6147 12.9297V11.8984H30.6772V15.4758C30.6772 15.8507 30.6236 16.2189 30.521 16.5757C30.4024 16.5587 30.2849 16.5391 30.1616 16.5391C28.74 16.5391 27.5835 17.6956 27.5835 19.1172ZM30.1616 20.6641C29.3088 20.6641 28.6147 19.97 28.6147 19.1172C28.6147 18.2643 29.3088 17.5703 30.1616 17.5703C31.0145 17.5703 31.7085 18.2643 31.7085 19.1172C31.7085 19.97 31.0145 20.6641 30.1616 20.6641Z" fill="black"/>
</g>
<defs>
<clipPath id="clip0">
<rect width="33" height="33" fill="white" transform="translate(0.255371 0.554688)"/>
</clipPath>
</defs>
</svg>
