<svg width="32" height="30" viewBox="0 0 32 30" fill="none" xmlns="http://www.w3.org/2000/svg">
<g clip-path="url(#clip0)">
<path d="M13.8179 5.33203V6.23828C13.8179 6.4875 13.5999 6.69141 13.3335 6.69141H11.8804H9.94287H6.06787H4.13037H2.67725C2.41084 6.69141 2.19287 6.4875 2.19287 6.23828V5.33203C2.19287 5.08281 2.41084 4.87891 2.67725 4.87891H13.3335C13.5999 4.87891 13.8179 5.08281 13.8179 5.33203Z" fill="#AAB2BD"/>
<path d="M4.13037 6.69141H6.06787V10.3164H4.13037V6.69141Z" fill="#B27946"/>
<path d="M9.94287 6.69141H11.8804V10.3164H9.94287V6.69141Z" fill="#B27946"/>
<path d="M3.16162 11.2227C3.16162 10.7242 3.59756 10.3164 4.13037 10.3164H6.06787H9.94287H11.8804C12.4132 10.3164 12.8491 10.7242 12.8491 11.2227V12.1289H3.16162V11.2227Z" fill="#CCD1D9"/>
<path d="M12.8491 24.8164H14.7866C14.7866 25.8178 13.9196 26.6289 12.8491 26.6289H12.3647H3.646H3.16162C2.09115 26.6289 1.22412 25.8178 1.22412 24.8164H3.16162H5.09912H7.03662H8.97412H10.9116H12.8491Z" fill="#CCD1D9"/>
<path d="M12.8491 12.1289H3.16162C2.62881 12.1289 2.14443 12.3328 1.79084 12.6591C1.44209 12.9898 1.22412 13.443 1.22412 13.9414V24.8164H14.7866V13.9414C14.7866 12.94 13.9196 12.1289 12.8491 12.1289Z" fill="#CF9E76"/>
<path d="M12.8491 14.8477V15.7539C12.8491 16.2523 12.4132 16.6602 11.8804 16.6602H4.13037C3.59756 16.6602 3.16162 16.2523 3.16162 15.7539V14.8477C3.16162 14.3492 3.59756 13.9414 4.13037 13.9414H11.8804C12.4132 13.9414 12.8491 14.3492 12.8491 14.8477Z" fill="#FCD770"/>
<path d="M12.8491 19.3789V24.8164H10.9116V19.3789C10.9116 18.8805 11.3476 18.4727 11.8804 18.4727C12.1468 18.4727 12.389 18.5723 12.5633 18.74C12.7426 18.9031 12.8491 19.1297 12.8491 19.3789Z" fill="#FCD770"/>
<path d="M8.97412 19.3789V24.8164H7.03662V19.3789C7.03662 18.8805 7.47256 18.4727 8.00537 18.4727C8.27178 18.4727 8.51396 18.5723 8.68834 18.74C8.86756 18.9031 8.97412 19.1297 8.97412 19.3789Z" fill="#FCD770"/>
<path d="M5.09912 19.3789V24.8164H3.16162V19.3789C3.16162 18.8805 3.59756 18.4727 4.13037 18.4727C4.39678 18.4727 4.63896 18.5723 4.81334 18.74C4.99256 18.9031 5.09912 19.1297 5.09912 19.3789Z" fill="#FCD770"/>
<path d="M3.646 28.4414C4.18102 28.4414 4.61475 28.0357 4.61475 27.5352C4.61475 27.0346 4.18102 26.6289 3.646 26.6289C3.11097 26.6289 2.67725 27.0346 2.67725 27.5352C2.67725 28.0357 3.11097 28.4414 3.646 28.4414Z" fill="#838F9B"/>
<path d="M12.3647 28.4414C12.8998 28.4414 13.3335 28.0357 13.3335 27.5352C13.3335 27.0346 12.8998 26.6289 12.3647 26.6289C11.8297 26.6289 11.396 27.0346 11.396 27.5352C11.396 28.0357 11.8297 28.4414 12.3647 28.4414Z" fill="#838F9B"/>
<path d="M27.3804 18.4727V26.6289C27.3804 27.1273 27.1624 27.5805 26.8137 27.9113C26.4601 28.2375 25.9757 28.4414 25.4429 28.4414C24.3724 28.4414 23.5054 27.6303 23.5054 26.6289V16.6602H27.3804V18.4727Z" fill="#CF9E76"/>
<path d="M23.5054 16.6602V26.6289C23.5054 27.6303 22.6383 28.4414 21.5679 28.4414C21.0351 28.4414 20.5507 28.2375 20.1971 27.9113C19.8483 27.5805 19.6304 27.1273 19.6304 26.6289V18.4727V16.6602H23.5054Z" fill="#CF9E76"/>
<path d="M19.6304 16.6606V18.4731H18.6616C17.5912 18.4731 16.7241 17.662 16.7241 16.6606V13.9418C16.7241 13.1126 16.8937 12.3196 17.2085 11.5946C17.2085 11.5901 17.2085 11.5901 17.2085 11.5901C17.5524 10.7836 18.0658 10.0586 18.7101 9.4559C18.8505 9.32449 18.9958 9.20215 19.146 9.08887V13.4887C19.146 13.824 19.3397 14.114 19.6304 14.2726V16.6606Z" fill="#B4DD7F"/>
<path d="M30.2866 13.9418V16.6606C30.2866 17.662 29.4196 18.4731 28.3491 18.4731H27.3804V16.6606V14.2726C27.671 14.114 27.8647 13.824 27.8647 13.4887V9.08887C28.7124 9.75043 29.3857 10.6068 29.8022 11.5901V11.5946C30.1171 12.3196 30.2866 13.1126 30.2866 13.9418Z" fill="#B4DD7F"/>
<path d="M24.9585 9.7002V13.4883C24.9585 13.9868 25.3944 14.3946 25.9272 14.3946H26.896C27.0704 14.3946 27.2399 14.3493 27.3804 14.2722V16.6602H23.5054H19.6304V14.2722C19.7708 14.3493 19.9404 14.3946 20.1147 14.3946H21.0835C21.6163 14.3946 22.0522 13.9868 22.0522 13.4883V9.7002C22.4058 10.0763 22.9241 10.3164 23.5054 10.3164C24.0382 10.3164 24.5226 10.1125 24.8762 9.78629C24.9052 9.7591 24.9343 9.73191 24.9585 9.7002Z" fill="#B4DD7F"/>
<path d="M22.0522 9.70004V13.4882C22.0522 13.9866 21.6163 14.3944 21.0835 14.3944H20.1147C19.9404 14.3944 19.7708 14.3491 19.6304 14.2721C19.3397 14.1135 19.146 13.8235 19.146 13.4882V9.08832V9.08379C19.8483 8.53098 20.6669 8.1141 21.5679 7.86035V8.50379C21.5679 8.96145 21.7519 9.37832 22.0522 9.70004Z" fill="#969FAA"/>
<path d="M27.8647 9.08832V13.4882C27.8647 13.8235 27.671 14.1135 27.3804 14.2721C27.2399 14.3491 27.0704 14.3944 26.896 14.3944H25.9272C25.3944 14.3944 24.9585 13.9866 24.9585 13.4882V9.70004C25.2588 9.37832 25.4429 8.96145 25.4429 8.50379V7.86035C26.3438 8.1141 27.1624 8.53098 27.8647 9.08832Z" fill="#969FAA"/>
<path d="M20.1535 4.87891C20.386 6.41953 21.7955 7.59766 23.5054 7.59766C22.8321 7.59766 22.183 7.68828 21.5679 7.86047C20.6669 8.11422 19.8483 8.53109 19.146 9.08391V9.08844C18.9958 9.20172 18.8505 9.32406 18.7101 9.45547C18.0658 10.0581 17.5524 10.7831 17.2085 11.5897V6.69141C17.2085 5.69 18.0755 4.87891 19.146 4.87891H20.1487H20.1535Z" fill="#CCD1D9"/>
<path d="M27.8647 4.87891C28.9352 4.87891 29.8022 5.69 29.8022 6.69141V11.5897C29.3857 10.6064 28.7124 9.75 27.8647 9.08844C27.1624 8.53109 26.3438 8.11422 25.4429 7.86047C24.8277 7.68828 24.1787 7.59766 23.5054 7.59766C25.2152 7.59766 26.6247 6.41953 26.8572 4.87891H26.8621H27.8647Z" fill="#CCD1D9"/>
<path d="M25.4429 7.86047V8.50391C25.4429 8.96156 25.2588 9.37844 24.9585 9.70016C24.9343 9.73187 24.9052 9.75906 24.8762 9.78625C24.5226 10.1125 24.0382 10.3164 23.5054 10.3164C22.9241 10.3164 22.4058 10.0762 22.0522 9.70016C21.7519 9.37844 21.5679 8.96156 21.5679 8.50391V7.86047C22.183 7.68828 22.8321 7.59766 23.5054 7.59766C24.1787 7.59766 24.8277 7.68828 25.4429 7.86047Z" fill="#F0D0B4"/>
<path d="M26.896 4.42578C26.896 4.57984 26.8863 4.73391 26.8572 4.87891C26.6247 6.41953 25.2152 7.59766 23.5054 7.59766C21.7955 7.59766 20.386 6.41953 20.1535 4.87891C20.1244 4.73391 20.1147 4.57984 20.1147 4.42578C20.1147 2.67219 21.6308 1.25391 23.5054 1.25391C25.3799 1.25391 26.896 2.67219 26.896 4.42578Z" fill="#F0D0B4"/>
<path d="M13.3335 11.7215V11.2227C13.3335 10.6327 12.9271 10.1343 12.3647 9.94666V7.14453H13.3335C13.8678 7.14453 14.3022 6.73808 14.3022 6.23828V5.33203C14.3022 4.83223 13.8678 4.42578 13.3335 4.42578H2.67725C2.14298 4.42578 1.7085 4.83223 1.7085 5.33203V6.23828C1.7085 6.73808 2.14298 7.14453 2.67725 7.14453H3.646V9.94666C3.08364 10.1343 2.67725 10.6327 2.67725 11.2227V11.7215C1.57336 11.9318 0.739746 12.8471 0.739746 13.9414V24.8164C0.739746 25.7965 1.41254 26.6253 2.34545 26.9402C2.251 27.1205 2.19287 27.3208 2.19287 27.5352C2.19287 28.2846 2.84484 28.8945 3.646 28.8945C4.44715 28.8945 5.09912 28.2846 5.09912 27.5352C5.09912 27.3757 5.06425 27.2243 5.01 27.082H11.0012C10.9465 27.2243 10.9116 27.3757 10.9116 27.5352C10.9116 28.2846 11.5636 28.8945 12.3647 28.8945C13.1659 28.8945 13.8179 28.2846 13.8179 27.5352C13.8179 27.3208 13.7597 27.1205 13.6653 26.9402C14.5982 26.6253 15.271 25.7965 15.271 24.8164V13.9414C15.271 12.8471 14.4374 11.9318 13.3335 11.7215ZM11.396 9.86328H10.4272V7.14453H11.396V9.86328ZM9.4585 7.14453V9.86328H6.55225V7.14453H9.4585ZM2.67725 5.33203H13.3335L13.334 6.23828H2.67725V5.33203ZM5.5835 7.14453V9.86328H4.61475V7.14453H5.5835ZM4.13037 10.7695H11.8804C12.1473 10.7695 12.3647 10.9725 12.3647 11.2227V11.6758H3.646V11.2227C3.646 10.9725 3.86348 10.7695 4.13037 10.7695ZM3.16162 12.582H3.646H12.3647H12.8491C13.6503 12.582 14.3022 13.1919 14.3022 13.9414V24.3633H13.3335V19.3789C13.3335 18.6294 12.6815 18.0195 11.8804 18.0195C11.0792 18.0195 10.4272 18.6294 10.4272 19.3789V24.3633H9.4585V19.3789C9.4585 18.6294 8.80653 18.0195 8.00537 18.0195C7.20422 18.0195 6.55225 18.6294 6.55225 19.3789V24.3633H5.5835V19.3789C5.5835 18.6294 4.93153 18.0195 4.13037 18.0195C3.32921 18.0195 2.67725 18.6294 2.67725 19.3789V24.3633H1.7085V13.9414C1.7085 13.1919 2.36046 12.582 3.16162 12.582ZM12.3647 24.3633H11.396V19.3789C11.396 19.1288 11.6135 18.9258 11.8804 18.9258C12.1473 18.9258 12.3647 19.1288 12.3647 19.3789V24.3633ZM8.48975 24.3633H7.521V19.3789C7.521 19.1288 7.73848 18.9258 8.00537 18.9258C8.27226 18.9258 8.48975 19.1288 8.48975 19.3789V24.3633ZM4.61475 24.3633H3.646V19.3789C3.646 19.1288 3.86348 18.9258 4.13037 18.9258C4.39726 18.9258 4.61475 19.1288 4.61475 19.3789V24.3633ZM4.13037 27.5352C4.13037 27.7853 3.91289 27.9883 3.646 27.9883C3.37911 27.9883 3.16162 27.7853 3.16162 27.5352C3.16162 27.285 3.37911 27.082 3.646 27.082C3.91289 27.082 4.13037 27.285 4.13037 27.5352ZM12.3647 27.9883C12.0979 27.9883 11.8804 27.7853 11.8804 27.5352C11.8804 27.285 12.0979 27.082 12.3647 27.082C12.6316 27.082 12.8491 27.285 12.8491 27.5352C12.8491 27.7853 12.6316 27.9883 12.3647 27.9883ZM12.8491 26.1758H3.16162C2.53096 26.1758 1.99815 25.7956 1.79762 25.2695H14.2126C14.0126 25.7956 13.4798 26.1758 12.8491 26.1758Z" fill="black"/>
<path d="M4.13037 17.1133H11.8804C12.6815 17.1133 13.3335 16.5034 13.3335 15.7539V14.8477C13.3335 14.0982 12.6815 13.4883 11.8804 13.4883H4.13037C3.32921 13.4883 2.67725 14.0982 2.67725 14.8477V15.7539C2.67725 16.5034 3.32921 17.1133 4.13037 17.1133ZM3.646 14.8477C3.646 14.5975 3.86348 14.3945 4.13037 14.3945H11.8804C12.1473 14.3945 12.3647 14.5975 12.3647 14.8477V15.7539C12.3647 16.004 12.1473 16.207 11.8804 16.207H4.13037C3.86348 16.207 3.646 16.004 3.646 15.7539V14.8477Z" fill="black"/>
<path d="M30.2866 11.5213V6.69141C30.2866 5.44214 29.2002 4.42578 27.8647 4.42578H27.3804C27.3804 2.42705 25.6419 0.800781 23.5054 0.800781C21.3688 0.800781 19.6304 2.42705 19.6304 4.42578H19.146C17.8106 4.42578 16.7241 5.44214 16.7241 6.69141V11.5213C16.4161 12.2744 16.2397 13.0882 16.2397 13.9414V16.6602C16.2397 17.9094 17.3262 18.9258 18.6616 18.9258H19.146V26.6289C19.146 27.8782 20.2324 28.8945 21.5679 28.8945C22.3627 28.8945 23.0636 28.5293 23.5054 27.9742C23.9471 28.5293 24.648 28.8945 25.4429 28.8945C26.7783 28.8945 27.8647 27.8782 27.8647 26.6289V18.9258H28.3491C29.6845 18.9258 30.771 17.9094 30.771 16.6602V13.9414C30.771 13.0882 30.5947 12.2744 30.2866 11.5213ZM27.8647 5.33203C28.6659 5.33203 29.3179 5.94194 29.3179 6.69141V9.8805C28.4068 8.74225 27.1295 7.87452 25.6439 7.44586C26.4291 6.95784 27.0103 6.20837 27.253 5.33203H27.8647ZM26.896 16.207H20.1147V14.8477H21.0835C21.8847 14.8477 22.5366 14.2378 22.5366 13.4883V10.5774C22.834 10.6997 23.1605 10.7695 23.5054 10.7695C23.8502 10.7695 24.1767 10.6997 24.4741 10.5774V13.4883C24.4741 14.2378 25.1261 14.8477 25.9272 14.8477H26.896V16.207ZM21.0835 8.50527C21.084 9.01005 21.2676 9.47223 21.5679 9.84923V13.4883C21.5679 13.7384 21.3504 13.9414 21.0835 13.9414H20.1147C19.8479 13.9414 19.6304 13.7384 19.6304 13.4883V9.30775C20.0721 8.98377 20.5584 8.71053 21.0835 8.50527ZM24.9585 8.21527V8.50391C24.9585 9.25338 24.3065 9.86328 23.5054 9.86328C22.7042 9.86328 22.0522 9.25338 22.0522 8.50391V8.21527C22.5197 8.1115 23.0045 8.05078 23.5054 8.05078C24.0062 8.05078 24.4911 8.1115 24.9585 8.21527ZM27.3804 13.4883C27.3804 13.7384 27.1629 13.9414 26.896 13.9414H25.9272C25.6604 13.9414 25.4429 13.7384 25.4429 13.4883V9.84923C25.7427 9.47223 25.9268 9.01005 25.9272 8.50527C26.4523 8.71053 26.9386 8.98377 27.3804 9.3082V13.4883ZM23.5054 1.70703C25.1082 1.70703 26.4116 2.92639 26.4116 4.42578C26.4116 5.92517 25.1082 7.14453 23.5054 7.14453C21.9026 7.14453 20.5991 5.92517 20.5991 4.42578C20.5991 2.92639 21.9026 1.70703 23.5054 1.70703ZM17.6929 6.69141C17.6929 5.94194 18.3448 5.33203 19.146 5.33203H19.7578C20.0004 6.20837 20.5812 6.95784 21.3669 7.44586C19.8813 7.87452 18.604 8.7418 17.6929 9.8805V6.69141ZM18.6616 18.0195C17.8605 18.0195 17.2085 17.4096 17.2085 16.6602V13.9414C17.2085 12.5136 17.7549 11.2036 18.6616 10.1827V13.4883C18.6616 13.8884 18.851 14.245 19.146 14.4942V18.0195H18.6616ZM21.5679 27.9883C20.7667 27.9883 20.1147 27.3784 20.1147 26.6289V17.1133H23.021V26.6289C23.021 27.3784 22.369 27.9883 21.5679 27.9883ZM25.4429 27.9883C24.6417 27.9883 23.9897 27.3784 23.9897 26.6289V17.1133H26.896V26.6289C26.896 27.3784 26.244 27.9883 25.4429 27.9883ZM29.8022 16.6602C29.8022 17.4096 29.1503 18.0195 28.3491 18.0195H27.8647V14.4942C28.1597 14.2455 28.3491 13.8884 28.3491 13.4883V10.1827C29.2559 11.2036 29.8022 12.5136 29.8022 13.9414V16.6602Z" fill="black"/>
</g>
<defs>
<clipPath id="clip0">
<rect width="31" height="29" fill="white" transform="translate(0.255371 0.347656)"/>
</clipPath>
</defs>
</svg>
