<svg width="739" height="480" viewBox="0 0 739 480" fill="none" xmlns="http://www.w3.org/2000/svg">
<g opacity="0.4">
<path d="M55.3782 277.262C35.6054 397.838 137.872 501.583 348.64 469.327C559.414 437.077 720.948 257.536 653.01 93.0216C636.812 53.7988 613.177 31.109 586.115 19.5941C499.673 -17.221 378.213 60.2037 351.92 78.9313C317.404 103.521 280.007 142.822 280.007 142.822C280.007 142.822 78.9284 133.684 55.3782 277.262Z" fill="#E1251B"/>
<path d="M55.3782 277.262C35.6054 397.838 137.872 501.583 348.64 469.327C559.414 437.077 720.948 257.536 653.01 93.0216C636.812 53.7988 613.177 31.109 586.115 19.5941C499.673 -17.221 378.213 60.2037 351.92 78.9313C317.404 103.521 280.007 142.822 280.007 142.822C280.007 142.822 78.9284 133.684 55.3782 277.262Z" fill="url(#paint0_linear)"/>
</g>
<defs>
<linearGradient id="paint0_linear" x1="306.882" y1="74.6208" x2="431.607" y2="448.456" gradientUnits="userSpaceOnUse">
<stop offset="0.046875" stop-color="white" stop-opacity="0"/>
<stop offset="0.729167" stop-color="white"/>
</linearGradient>
</defs>
</svg>
