<svg width="90" height="90" viewBox="0 0 90 90" fill="none" xmlns="http://www.w3.org/2000/svg">
<path d="M1.7583 8.08008V32.0867C1.7583 46.5416 9.92634 59.7571 22.8553 66.2215C27.5335 63.8833 31.5877 60.6607 34.8577 56.8141H34.8612L43.9522 34.4794V8.08008H1.7583Z" fill="#FF7B79"/>
<path d="M88.2414 42.1556L76.3023 62.8376C69.0731 75.3551 55.3935 82.7162 40.9631 81.8513C32.9764 69.7539 32.5562 54.2181 39.7606 41.7407C39.7826 41.7025 51.6702 21.1127 51.7015 21.0586L88.2414 42.1556Z" fill="#FFCD69"/>
<path d="M63.1118 54.0367L67.6791 56.6739C68.5172 57.1575 69.5935 56.8741 70.0806 56.0304C70.5662 55.1895 70.2781 54.1145 69.4372 53.6289L64.8699 50.9918C64.0288 50.5062 62.9539 50.7943 62.4683 51.6352C61.9827 52.4761 62.2709 53.5512 63.1118 54.0367Z" fill="black"/>
<path d="M49.4091 46.1256L53.9764 48.7627C54.8145 49.2464 55.8908 48.963 56.378 48.1193C56.8636 47.2784 56.5754 46.2033 55.7345 45.7177L51.1672 43.0806C50.3261 42.595 49.2513 42.8832 48.7657 43.7241C48.2801 44.565 48.5682 45.64 49.4091 46.1256Z" fill="black"/>
<path d="M50.6328 65.104C54.4269 67.2941 59.1429 67.2939 62.94 65.1044C63.7811 64.6193 64.0699 63.5443 63.5849 62.7032C63.0998 61.8621 62.0251 61.5733 61.1837 62.0583C58.4701 63.623 55.1011 63.6232 52.391 62.059C49.6816 60.4936 47.9967 57.5754 47.9937 54.443C47.9928 53.4726 47.2059 52.6865 46.2356 52.6865C46.2351 52.6865 46.2344 52.6865 46.2339 52.6865C45.2631 52.6874 44.4767 53.4754 44.4775 54.4462C44.4818 58.8293 46.84 62.9129 50.6328 65.104Z" fill="black"/>
<path d="M28.1292 31.1109H33.4034C34.3744 31.1109 35.1615 30.3238 35.1615 29.3528C35.1615 28.3818 34.3744 27.5947 33.4034 27.5947H28.1292C27.1582 27.5947 26.3711 28.3818 26.3711 29.3528C26.3711 30.3238 27.1582 31.1109 28.1292 31.1109Z" fill="black"/>
<path d="M10.5483 29.3528C10.5483 30.3238 11.3354 31.1109 12.3064 31.1109H17.5807C18.5517 31.1109 19.3387 30.3238 19.3387 29.3528C19.3387 28.3818 18.5517 27.5947 17.5807 27.5947H12.3064C11.3354 27.5947 10.5483 28.3818 10.5483 29.3528Z" fill="black"/>
<path d="M22.855 38.0928C18.4753 38.0928 14.3911 40.4502 12.1965 44.245C11.7103 45.0855 11.9976 46.161 12.8382 46.6471C13.6783 47.1333 14.7541 46.8461 15.2402 46.0054C16.8086 43.2937 19.7265 41.6091 22.8552 41.6091C25.9839 41.6091 28.9017 43.2937 30.4701 46.0054C30.9569 46.8473 32.0332 47.1325 32.8722 46.6471C33.7127 46.161 34 45.0855 33.5139 44.245C31.3189 40.45 27.2347 38.0928 22.855 38.0928Z" fill="black"/>
<path d="M22.8552 9.83843C23.8262 9.83843 24.6133 9.05131 24.6133 8.08035C24.6133 7.10939 23.8262 6.32227 22.8552 6.32227C21.8843 6.32227 21.0972 7.10939 21.0972 8.08035C21.0972 9.05131 21.8843 9.83843 22.8552 9.83843Z" fill="black"/>
<path d="M22.0688 67.7942C22.3164 67.918 22.5857 67.9799 22.855 67.9799C23.1244 67.9799 23.3935 67.918 23.6411 67.7944C27.0433 66.094 30.1421 63.9483 32.8997 61.3931C33.0122 68.9802 35.2882 76.4459 39.4962 82.8199C39.801 83.2817 40.3056 83.573 40.8581 83.6061C55.9458 84.5104 70.2587 76.8176 77.8249 63.7166L89.7641 43.0345C90.2496 42.1936 89.9615 41.1185 89.1206 40.633L52.5807 19.536C51.7396 19.0506 50.6647 19.3387 50.1791 20.1795L45.7101 27.9198V8.08035C45.7101 7.10936 44.9228 6.32227 43.952 6.32227H30.7664C29.7954 6.32227 29.0083 7.10936 29.0083 8.08035C29.0083 9.05133 29.7954 9.83843 30.7664 9.83843H42.1939V34.0101L38.2382 40.8615C35.5197 45.57 33.8211 50.6825 33.1794 56.0647C30.2511 59.4137 26.7844 62.1622 22.855 64.2447C10.9033 57.9107 3.51616 45.6697 3.51616 32.0869V9.83843H14.9437C15.9147 9.83843 16.7018 9.05133 16.7018 8.08035C16.7018 7.10936 15.9147 6.32227 14.9437 6.32227H1.75808C0.787093 6.32227 0 7.10936 0 8.08035V32.0869C0 47.2008 8.53794 61.0288 22.0688 67.7942ZM41.2834 42.6194L52.3451 23.46L85.84 42.7989L74.7801 61.9583C67.9869 73.7204 55.4683 80.6273 41.9524 80.1388C37.65 73.2613 35.755 65.0801 36.6092 56.9993C36.6092 56.9989 36.6092 56.9984 36.6094 56.9981C37.1449 51.9012 38.7175 47.0635 41.2834 42.6194Z" fill="black"/>
</svg>
