<svg width="93" height="78" viewBox="0 0 93 78" fill="none" xmlns="http://www.w3.org/2000/svg">
<path d="M35.8534 21.8247C36.6558 19.2964 38.7488 17.3343 41.226 16.4541C42.3398 19.1226 43.2292 21.878 44.2448 24.5857C44.5702 25.3958 44.7526 26.3684 45.5073 26.9038C46.4303 27.4868 47.7517 27.0075 48.0968 25.976C49.3032 22.8198 50.3524 19.5991 51.6318 16.4653C53.8874 17.295 55.8457 18.9824 56.7378 21.2445C57.5767 23.1001 57.4336 25.1631 57.4168 27.1449C55.509 27.812 53.9267 29.4938 53.6125 31.5204C53.4245 32.4902 53.6069 33.4713 53.8565 34.4103C48.8964 34.4075 43.939 34.4075 38.9788 34.4131C39.3295 33.034 39.4445 31.5176 38.8077 30.203C38.1428 28.7818 36.8887 27.6971 35.427 27.1477C35.4663 25.3705 35.225 23.5346 35.8534 21.8247Z" fill="#00B0E7"/>
<path d="M12.8339 62.6398C14.8005 62.637 16.77 62.637 18.7367 62.6398C18.7395 65.454 18.7395 68.2711 18.7339 71.0853C18.703 72.0552 18.9499 73.0026 19.2024 73.9304C17.0786 73.8884 14.9548 73.9837 12.8311 73.8856C12.8339 70.1379 12.8311 66.3874 12.8339 62.6398Z" fill="#00B0E7"/>
<path d="M74.0701 62.6626C76.0536 62.615 78.0372 62.6458 80.0207 62.643C80.0151 66.3991 80.0291 70.1551 80.0151 73.9112C77.8969 73.9476 75.7759 73.9224 73.6577 73.928C74.2693 71.9126 74.0449 69.8019 74.0814 67.7333C74.0757 66.0431 74.0898 64.3528 74.0701 62.6626Z" fill="#00B0E7"/>
<path d="M41.8567 2.04893C44.3367 0.0840074 48.0793 -0.00568885 50.6576 1.82189C54.2599 4.21007 54.8182 9.61431 52.4447 13.0536C55.9629 14.1244 58.9367 16.8658 60.174 20.3415C61.0661 22.4214 60.982 24.7255 60.9595 26.9398C62.7017 26.9623 64.444 26.9454 66.1862 26.9511C67.0868 25.572 67.8611 24.1116 68.8206 22.7717C69.5585 21.7206 70.6077 20.961 71.671 20.263C70.4422 18.8055 69.5164 16.9723 69.5865 15.0242C69.5444 11.383 72.5576 8.02499 76.1908 7.67462C79.8267 7.17848 83.5469 9.80492 84.2875 13.3928C84.9636 16.1482 83.8695 19.2119 81.6195 20.9386C83.0138 22.2952 83.9032 24.1284 84.0126 26.0793C85.7941 25.4486 87.8646 25.6336 89.416 26.7492C90.9647 27.8032 91.8344 29.698 91.7895 31.5508C91.7755 38.721 91.8119 45.8911 91.7699 53.0613C91.6857 57.6302 88.0385 61.7002 83.5665 62.4879C83.5609 66.2832 83.5721 70.0785 83.5637 73.8738C85.5865 74.0336 87.6233 73.8233 89.6461 73.9467C91.0124 74.1317 91.4753 76.0798 90.4793 76.9487C89.9687 77.4813 89.1916 77.4252 88.5211 77.4392C81.6952 77.4196 74.8693 77.4505 68.0463 77.4252C64.9237 77.5093 62.0677 74.7652 62.0228 71.6482C61.9976 64.8312 62.0228 58.0114 62.0116 51.1945C61.9723 49.238 62.6204 47.3039 63.7538 45.7173C61.1643 45.751 58.5748 45.7229 55.9853 45.7314C55.9601 47.4692 56.0274 49.2071 55.9601 50.9422C55.9769 51.8812 55.096 52.596 54.2066 52.6548C53.4126 52.5399 52.5654 52.0494 52.4952 51.1692C52.3578 49.3613 52.4868 47.5421 52.4419 45.7286C51.0251 45.7286 49.6083 45.7286 48.1916 45.7258C48.1859 54.1825 48.2028 62.642 48.1831 71.0988C48.1523 71.9761 48.3038 72.9964 49.1118 73.5122C50.262 74.3671 52.153 73.6748 52.3774 72.2256C52.5822 69.7421 52.3185 67.2334 52.4896 64.7471C52.5513 63.8558 53.4014 63.354 54.201 63.2223C55.2054 63.2727 56.0863 64.1669 55.9797 65.1956C55.9881 67.4436 55.9993 69.6945 55.9713 71.9453C55.9713 74.782 53.4603 77.3383 50.6268 77.4112C49.0865 77.5233 47.5631 76.9207 46.4185 75.906C45.3271 76.817 43.9636 77.4701 42.516 77.4168C39.5533 77.5149 36.8544 74.8969 36.846 71.9369C36.8179 63.2026 36.8488 54.4684 36.8348 45.7314C34.2453 45.7229 31.6558 45.7398 29.0691 45.7229C30.2053 47.3095 30.8141 49.2408 30.8029 51.1917C30.786 58.0114 30.8225 64.834 30.786 71.6538C30.7383 74.7399 27.9468 77.4757 24.8495 77.4224C17.8301 77.4449 10.8079 77.4308 3.78561 77.4308C2.53434 77.6102 1.35602 76.2143 1.90029 75.0314C2.1556 74.255 2.99725 73.8345 3.78 73.8878C5.60079 73.9411 7.42438 73.9158 9.24517 73.9299C9.26481 70.1289 9.23395 66.3252 9.262 62.5243C6.00478 61.8264 3.03653 59.6232 1.8049 56.481C0.780885 54.1965 1.05022 51.6458 1.03619 49.2127C0.949218 48.2176 1.78526 47.3039 2.77281 47.2506C3.56958 47.3543 4.39441 47.8645 4.51224 48.7166C4.76474 50.9506 4.15594 53.3528 5.21643 55.4467C6.21239 57.5854 8.45962 59.0037 10.805 59.0906C13.4479 59.1579 16.0935 59.0934 18.7363 59.1158C18.7391 57.9245 18.7391 56.7305 18.7391 55.5392C16.4105 55.598 13.9921 55.0122 12.205 53.4565C10.1121 51.7607 8.80751 49.1398 8.82434 46.4349C8.79629 41.4764 8.83276 36.515 8.81312 31.5564C8.86362 30.6146 8.30812 29.6392 7.37669 29.3645C6.22362 28.8964 4.7956 29.7485 4.62166 30.9706C4.44491 32.4366 4.71143 33.925 4.49541 35.3882C4.32988 36.1983 3.50786 36.5795 2.77001 36.7224C1.97043 36.6215 1.16524 36.0553 1.06424 35.2116C0.982884 33.897 1.02777 32.5795 1.03619 31.2649C1.04461 29.2047 2.27623 27.1781 4.16155 26.3092C5.57834 25.5551 7.29252 25.572 8.78506 26.0877C8.9029 24.1284 9.80908 22.3205 11.1726 20.9301C8.78506 19.0633 7.72177 15.7193 8.66723 12.8294C9.74456 9.21068 13.8631 6.8281 17.5355 7.8456C21.0761 8.61643 23.66 12.3024 23.1746 15.8903C23.0568 17.5497 22.159 18.9989 21.1659 20.2798C23.8227 21.6982 25.0824 24.5292 26.6282 26.9483C28.3705 26.9511 30.1127 26.9539 31.8549 26.9511C31.8493 24.9301 31.7483 22.853 32.4469 20.9189C33.5635 17.1825 36.6636 14.1833 40.381 13.0508C38.0916 9.71802 38.5097 4.53242 41.8567 2.04893ZM45.6301 4.11477C42.2354 4.65015 41.4134 9.63113 43.9271 11.6493C45.4365 12.8939 47.8633 12.7761 49.2156 11.3494C50.4276 10.1189 50.5538 8.18757 50.0741 6.60946C49.513 4.79871 47.4593 3.70833 45.6301 4.11477ZM14.6262 11.3298C13.0214 11.8007 11.8543 13.3732 11.8459 15.0382C11.7954 17.0592 13.5545 18.8979 15.5773 18.94C17.9311 19.1642 20.0717 16.8181 19.6565 14.4972C19.3451 12.2211 16.8341 10.5786 14.6262 11.3298ZM75.4389 11.5036C74.1595 12.0501 73.2898 13.3648 73.1411 14.727C72.9111 16.905 74.8104 19.0269 77.024 18.9456C79.347 19.0437 81.367 16.7228 80.8928 14.4327C80.6095 11.9717 77.6496 10.4188 75.4389 11.5036ZM44.8782 16.0473C45.3748 17.4628 45.8405 18.8895 46.4465 20.2602C47.0104 18.8727 47.4705 17.446 48.012 16.0501C46.9683 16.0361 45.9247 16.0333 44.8782 16.0473ZM35.8528 21.8243C35.2244 23.5342 35.4657 25.3701 35.4264 27.1473C36.8881 27.6967 38.1421 28.7814 38.807 30.2026C39.4439 31.5172 39.3289 33.0336 38.9782 34.4127C43.9384 34.4071 48.8957 34.4071 53.8559 34.4099C53.6062 33.4709 53.4239 32.4898 53.6118 31.52C53.926 29.4934 55.5084 27.8116 57.4161 27.1445C57.433 25.1627 57.576 23.0997 56.7372 21.2441C55.845 18.982 53.8868 17.2946 51.6311 16.4649C50.3518 19.5987 49.3025 22.8194 48.0962 25.9756C47.7511 27.0071 46.4297 27.4864 45.5067 26.9034C44.752 26.368 44.5696 25.3954 44.2442 24.5853C43.2286 21.8776 42.3392 19.1222 41.2254 16.4537C38.7481 17.3339 36.6552 19.296 35.8528 21.8243ZM15.8522 22.5223C14.4635 22.6933 13.1813 23.6407 12.6343 24.9329C12.2695 25.7878 12.3621 26.7296 12.3509 27.6322C12.3593 32.0021 12.3537 36.3692 12.3565 40.7392C14.96 40.7448 17.5664 40.7336 20.1727 40.7448C20.1783 39.3685 20.1839 37.995 20.1699 36.6187C19.2244 35.1808 18.2593 33.7484 17.4093 32.2516C16.7556 31.192 17.7291 29.6756 18.9467 29.7261C19.6677 29.6476 20.2625 30.1605 20.6216 30.7351C21.4184 31.9685 22.1085 33.2803 23.0372 34.4267C26.5441 34.3707 30.0538 34.4352 33.5635 34.3931C34.6605 34.4408 35.8135 33.5606 35.749 32.4001C35.7715 31.3911 34.8512 30.4913 33.8525 30.4941C31.1311 30.452 28.4098 30.5277 25.6884 30.4717C25.0179 30.4913 24.3838 30.1353 24.0612 29.5495C23.2279 28.1508 22.3554 26.7773 21.4969 25.3926C20.3495 23.4809 18.0517 22.3961 15.8522 22.5223ZM72.8886 23.7136C71.4073 24.7423 70.7508 26.4914 69.7408 27.9153C69.0591 28.8711 68.6467 30.4661 67.2243 30.4633C64.4103 30.5473 61.5908 30.4324 58.7768 30.5137C57.764 30.5586 57.2001 31.5256 56.9757 32.4058C57.1749 33.4317 57.9408 34.4043 59.0742 34.3763C62.6541 34.4548 66.2395 34.3707 69.8222 34.4155C70.8069 33.1458 71.5083 31.6854 72.4566 30.3932C73.0233 29.5775 74.3251 29.4934 75.0236 30.183C75.6521 30.7127 75.7222 31.705 75.3435 32.3973C74.499 33.8409 73.5087 35.2004 72.6866 36.6523C72.5688 38.009 72.6726 39.3769 72.6417 40.7392C75.2509 40.7364 77.86 40.7504 80.472 40.7308C80.4411 35.8955 80.4832 31.0603 80.4523 26.2279C80.4271 24.1648 78.4857 22.4326 76.4517 22.5083C75.1836 22.5447 73.9239 22.9848 72.8886 23.7136ZM84.0266 31.2425C83.9677 36.1114 84.0154 40.9858 84.0042 45.8575C84.0434 47.6458 83.6731 49.4706 82.7332 51.0095C80.9854 54.0003 77.5262 55.7662 74.0782 55.528C74.0782 56.7248 74.0726 57.9217 74.0866 59.1186C76.8444 59.0794 79.6079 59.1887 82.3629 59.0626C85.5107 58.8383 88.2012 56.0409 88.2293 52.8763C88.2658 45.7678 88.2433 38.6593 88.2433 31.5508C88.3191 30.5754 87.6934 29.5971 86.7367 29.3336C85.4967 28.8964 84.0266 29.9223 84.0266 31.2425ZM23.7301 37.9081C23.7245 39.3292 23.7273 40.7476 23.7273 42.1687C38.8491 42.1603 53.9737 42.1659 69.0956 42.1659C69.0928 40.7448 69.1012 39.3264 69.0871 37.9081C53.9681 37.9137 38.8491 37.9137 23.7301 37.9081ZM12.3537 44.3018C12.3733 45.751 12.1826 47.2814 12.825 48.6353C13.5461 50.1069 14.8478 51.3542 16.4582 51.7803C17.9058 52.1671 19.4208 51.8111 20.8853 52.0326C21.7691 52.1951 22.361 53.0977 22.2769 53.9751C22.2909 59.7773 22.2656 65.5796 22.2853 71.3819C22.26 72.7302 23.486 73.9719 24.8495 73.8766C26.1794 73.9046 27.2791 72.6825 27.2539 71.3847C27.2847 64.649 27.2567 57.9161 27.2679 51.1805C27.3184 49.1847 26.1822 47.2058 24.3838 46.306C23.4945 45.7762 22.4368 45.7846 21.4464 45.6276C20.7731 45.4959 20.4252 44.8652 20.1531 44.3046C17.5552 44.2962 14.9544 44.299 12.3537 44.3018ZM72.6754 44.3074C72.3949 44.8372 72.075 45.437 71.4494 45.608C70.5292 45.8014 69.5444 45.7454 68.686 46.177C66.8736 47.0067 65.583 48.8848 65.5578 50.8917C65.5325 57.5321 65.5634 64.1725 65.5438 70.8101C65.5522 71.4324 65.555 72.0995 65.8972 72.6489C66.5453 73.913 68.4138 74.283 69.5108 73.3945C70.2458 72.8759 70.5937 71.9733 70.5432 71.0932C70.5488 65.389 70.5348 59.682 70.5488 53.9779C70.4731 53.0977 71.0286 52.1839 71.9376 52.0326C73.3347 51.8251 74.774 52.1307 76.1655 51.8336C77.745 51.486 79.044 50.3255 79.8379 48.952C80.6179 47.5309 80.4608 45.8659 80.4636 44.3074C77.8657 44.2962 75.2705 44.2934 72.6754 44.3074ZM40.3669 71.3791C40.3613 72.0238 40.4707 72.7274 40.9421 73.2123C41.6827 74.0392 43.1135 74.1148 43.9243 73.3468C44.4714 72.8563 44.6566 72.0967 44.6285 71.3847C44.6173 62.8326 44.6313 54.2806 44.6201 45.7314C43.2061 45.7286 41.7893 45.7286 40.3753 45.7314C40.3613 54.2806 40.3781 62.8298 40.3669 71.3791ZM12.8334 62.6392C12.8306 66.3869 12.8334 70.1374 12.8306 73.885C14.9544 73.9831 17.0782 73.8878 19.202 73.9299C18.9495 73.0021 18.7026 72.0546 18.7335 71.0848C18.7391 68.2705 18.7391 65.4535 18.7363 62.6392C16.7696 62.6364 14.8001 62.6364 12.8334 62.6392ZM74.0698 62.6617C74.0894 64.3519 74.0754 66.0421 74.081 67.7323C74.0445 69.801 74.269 71.9117 73.6574 73.927C75.7755 73.9214 77.8965 73.9467 80.0147 73.9102C80.0287 70.1542 80.0147 66.3981 80.0203 62.642C78.0368 62.6448 76.0533 62.614 74.0698 62.6617Z" fill="#050000"/>
<path d="M1.06402 41.6751C1.19307 40.8314 1.95337 40.2652 2.76698 40.1475C3.50203 40.3128 4.32124 40.6744 4.48677 41.4985C4.84868 42.53 4.03508 43.6008 3.00264 43.755C1.87482 43.9175 0.803103 42.7907 1.06402 41.6751Z" fill="#050000"/>
<path d="M52.5403 57.3896C52.7199 56.6075 53.5054 56.274 54.204 56.0918C55.1411 56.1787 55.9827 56.9439 55.9799 57.9166C56.0276 58.9509 55.0232 59.8254 54.0076 59.6965C52.9584 59.5311 52.1392 58.4351 52.5403 57.3896Z" fill="#050000"/>
<path d="M45.6303 4.11412C47.4595 3.70768 49.5131 4.79806 50.0742 6.60882C50.554 8.18692 50.4277 10.1182 49.2157 11.3487C47.8635 12.7755 45.4367 12.8932 43.9273 11.6487C41.4136 9.63048 42.2356 4.6495 45.6303 4.11412Z" fill="#FFC88C"/>
<path d="M14.6266 11.3288C16.8345 10.5776 19.3455 12.2202 19.6569 14.4962C20.0721 16.8171 17.9315 19.1633 15.5776 18.939C13.5548 18.897 11.7958 17.0582 11.8463 15.0372C11.8547 13.3722 13.0218 11.7997 14.6266 11.3288Z" fill="#FFC88C"/>
<path d="M75.4392 11.5028C77.65 10.418 80.6098 11.9709 80.8932 14.4319C81.3673 16.722 79.3473 19.0429 77.0243 18.9448C74.8108 19.0261 72.9114 16.9042 73.1415 14.7263C73.2902 13.364 74.1599 12.0494 75.4392 11.5028Z" fill="#FFC88C"/>
<path d="M23.7306 37.9072C38.8496 37.9128 53.9686 37.9128 69.0876 37.9072C69.1016 39.3256 69.0932 40.7439 69.096 42.165C53.9742 42.165 38.8496 42.1594 23.7278 42.1678C23.7278 40.7467 23.7249 39.3284 23.7306 37.9072Z" fill="#FFC88C"/>
<path d="M44.8779 16.0483C45.9244 16.0343 46.9681 16.0371 48.0117 16.0511C47.4703 17.447 47.0101 18.8737 46.4462 20.2612C45.8402 18.8906 45.3745 17.4638 44.8779 16.0483Z" fill="#CAC0C4"/>
<path d="M4.62143 30.9718C4.79538 29.7497 6.22339 28.8976 7.37646 29.3657C8.3079 29.6404 8.8634 30.6159 8.8129 31.5577C8.83254 36.5162 8.79606 41.4776 8.82412 46.4362C8.80729 49.1411 10.1119 51.7619 12.2048 53.4578C13.9919 55.0134 16.4103 55.5993 18.7389 55.5404C18.7389 56.7317 18.7389 57.9258 18.7361 59.1171C16.0932 59.0947 13.4476 59.1591 10.8048 59.0919C8.4594 59.005 6.21217 57.5866 5.21621 55.4479C4.15572 53.3541 4.76452 50.9519 4.51202 48.7178C4.39419 47.8657 3.56936 47.3556 2.77259 47.2519C2.76417 46.1138 2.76417 44.973 2.77259 43.835L3.00264 43.7565C4.03508 43.6023 4.84868 42.5315 4.48677 41.5C4.32124 40.6759 3.50203 40.3144 2.76698 40.149C2.76417 39.0081 2.76417 37.8645 2.76979 36.7237C3.50764 36.5807 4.32966 36.1995 4.49519 35.3894C4.71121 33.9262 4.44469 32.4378 4.62143 30.9718Z" fill="#CAC0C4"/>
<path d="M84.0267 31.2436C84.0267 29.9234 85.4968 28.8975 86.7368 29.3347C87.6935 29.5982 88.3191 30.5765 88.2434 31.5519C88.2434 38.6604 88.2658 45.7689 88.2294 52.8774C88.2013 56.042 85.5108 58.8394 82.363 59.0637C79.608 59.1898 76.8445 59.0805 74.0867 59.1197C74.0726 57.9228 74.0783 56.726 74.0783 55.5291C77.5263 55.7673 80.9855 54.0014 82.7333 51.0106C83.6732 49.4717 84.0435 47.6469 84.0042 45.8586C84.0154 40.9869 83.9678 36.1125 84.0267 31.2436Z" fill="#CAC0C4"/>
<path d="M15.8522 22.5236C18.0518 22.3974 20.3495 23.4822 21.497 25.3939C22.3555 26.7786 23.228 28.1521 24.0612 29.5508C24.3839 30.1366 25.0179 30.4926 25.6884 30.473C28.4098 30.529 31.1312 30.4533 33.8525 30.4954C34.8513 30.4926 35.7715 31.3924 35.7491 32.4015C35.8136 33.5619 34.6605 34.4421 33.5635 34.3944C30.0538 34.4365 26.5441 34.372 23.0372 34.428C22.1086 33.2816 21.4184 31.9698 20.6216 30.7365C20.2625 30.1618 19.6678 29.6489 18.9467 29.7274C17.7291 29.6769 16.7556 31.1933 17.4093 32.2529C18.2594 33.7497 19.2245 35.1821 20.1699 36.62C20.184 37.9963 20.1784 39.3698 20.1727 40.7461C17.5664 40.7349 14.9601 40.7461 12.3565 40.7405C12.3537 36.3705 12.3593 32.0034 12.3509 27.6335C12.3621 26.7309 12.2696 25.7891 12.6343 24.9342C13.1814 23.642 14.4635 22.6946 15.8522 22.5236Z" fill="#79E5F3"/>
<path d="M72.8881 23.7145C73.9233 22.9857 75.183 22.5457 76.4511 22.5092C78.4851 22.4335 80.4265 24.1658 80.4518 26.2288C80.4826 31.0613 80.4406 35.8965 80.4714 40.7317C77.8595 40.7513 75.2503 40.7373 72.6412 40.7401C72.672 39.3779 72.5682 38.01 72.6861 36.6533C73.5081 35.2013 74.4984 33.8419 75.3429 32.3983C75.7217 31.706 75.6515 30.7137 75.0231 30.1839C74.3245 29.4944 73.0227 29.5785 72.456 30.3941C71.5077 31.6863 70.8064 33.1467 69.8216 34.4165C66.239 34.3716 62.6535 34.4557 59.0736 34.3773C57.9402 34.4053 57.1743 33.4326 56.9751 32.4067C57.1995 31.5266 57.7634 30.5595 58.7762 30.5147C61.5902 30.4334 64.4098 30.5483 67.2237 30.4642C68.6461 30.467 69.0585 28.8721 69.7403 27.9163C70.7503 26.4923 71.4067 24.7432 72.8881 23.7145Z" fill="#79E5F3"/>
<path d="M12.3538 44.3026C14.9545 44.2998 17.5552 44.297 20.1531 44.3054C20.4253 44.866 20.7732 45.4967 21.4465 45.6284C22.4368 45.7854 23.4945 45.777 24.3839 46.3068C26.1822 47.2065 27.3185 49.1855 27.268 51.1812C27.2567 57.9169 27.2848 64.6498 27.2539 71.3855C27.2792 72.6833 26.1794 73.9054 24.8496 73.8774C23.4861 73.9727 22.2601 72.7309 22.2853 71.3827C22.2657 65.5804 22.2909 59.7781 22.2769 53.9759C22.3611 53.0985 21.7691 52.1959 20.8854 52.0334C19.4209 51.8119 17.9059 52.1679 16.4582 51.7811C14.8479 51.355 13.5461 50.1077 12.8251 48.6361C12.1826 47.2822 12.3734 45.7518 12.3538 44.3026Z" fill="#FFB654"/>
<path d="M72.6751 44.3073C75.2702 44.2933 77.8654 44.2961 80.4633 44.3073C80.4605 45.8658 80.6176 47.5308 79.8377 48.952C79.0437 50.3254 77.7447 51.4859 76.1652 51.8335C74.7737 52.1306 73.3344 51.8251 71.9373 52.0325C71.0283 52.1839 70.4728 53.0976 70.5485 53.9778C70.5345 59.682 70.5485 65.3889 70.5429 71.0931C70.5934 71.9733 70.2455 72.8758 69.5105 73.3944C68.4135 74.283 66.545 73.913 65.897 72.6488C65.5547 72.0994 65.5519 71.4323 65.5435 70.81C65.5631 64.1724 65.5322 57.532 65.5575 50.8917C65.5827 48.8847 66.8733 47.0067 68.6857 46.177C69.5442 45.7453 70.5289 45.8014 71.4491 45.6079C72.0747 45.437 72.3946 44.8371 72.6751 44.3073Z" fill="#FFB654"/>
<path d="M48.1913 45.7246C49.6081 45.7274 51.0249 45.7274 52.4417 45.7274C52.4865 47.541 52.3575 49.3601 52.495 51.1681C52.5651 52.0482 53.4124 52.5388 54.2063 52.6537C54.2148 53.8001 54.2148 54.9438 54.2035 56.0902C53.505 56.2724 52.7194 56.606 52.5399 57.388C52.1387 58.4335 52.9579 59.5295 54.0071 59.6949L54.2176 59.7678C54.2091 60.9198 54.2147 62.0691 54.2007 63.2211C53.4011 63.3529 52.5511 63.8546 52.4893 64.746C52.3182 67.2323 52.5819 69.741 52.3771 72.2244C52.1527 73.6736 50.2618 74.366 49.1115 73.511C48.3035 72.9953 48.152 71.975 48.1829 71.0976C48.2025 62.6409 48.1857 54.1813 48.1913 45.7246Z" fill="#FFB654"/>
<path d="M40.3669 71.3783C40.3781 62.8291 40.3613 54.2799 40.3753 45.7306C41.7893 45.7278 43.2061 45.7278 44.6201 45.7306C44.6313 54.2799 44.6173 62.8319 44.6285 71.3839C44.6566 72.0959 44.4714 72.8555 43.9243 73.3461C43.1135 74.1141 41.6827 74.0384 40.942 73.2115C40.4707 72.7266 40.3613 72.023 40.3669 71.3783Z" fill="#FFB654"/>
</svg>
