<svg width="88" height="89" viewBox="0 0 88 89" fill="none" xmlns="http://www.w3.org/2000/svg">
<g clip-path="url(#clip0)">
<path d="M77.0935 46.6777C77.0935 64.9994 62.1873 79.9056 43.8656 79.9056C38.0093 79.9056 32.2528 78.3637 27.2215 75.4451C23.5938 73.3395 20.3268 70.5161 17.7419 67.2135H16.7213L16.7208 41.0175L11.2891 40.098C14.3864 24.6452 28.0603 13.4482 43.8654 13.4482C46.8424 13.4482 49.7818 13.8384 52.6162 14.6118C52.3464 15.7756 52.2037 16.989 52.2037 18.2353C52.2037 27.0807 59.3749 34.252 68.2204 34.252C70.3347 34.252 72.3544 33.8429 74.2022 33.0968C76.1207 37.37 77.0935 41.9319 77.0935 46.6777Z" fill="#F9F5F3"/>
<path d="M83.9691 46.6774C83.9691 68.8254 66.0136 86.7808 43.8656 86.7808C21.7161 86.7808 3.76221 68.8254 3.76221 46.6774C3.76221 24.5279 21.7159 6.57227 43.8656 6.57227C47.9618 6.57227 51.9135 7.18586 55.6349 8.32728C53.4863 11.0534 52.204 14.4947 52.204 18.235C52.204 27.0804 59.3751 34.2517 68.2207 34.2517C72.8496 34.2517 77.0214 32.287 79.9436 29.1467C82.5219 34.4423 83.9691 40.3914 83.9691 46.6774Z" fill="#F9F5F3"/>
<path d="M77.0935 46.6777C77.0935 64.9994 62.1873 79.9056 43.8656 79.9056C38.0093 79.9056 32.2528 78.3637 27.2215 75.4451C23.5578 73.3187 20.3512 70.5333 17.7419 67.2135H16.7213L16.7208 41.0175L11.2891 40.098C14.3864 24.6452 28.0603 13.4482 43.8654 13.4482C46.8424 13.4482 49.7818 13.8384 52.6162 14.6118C52.3464 15.7756 52.2037 16.989 52.2037 18.2353C52.2037 27.0807 59.3749 34.252 68.2204 34.252C70.3347 34.252 72.3544 33.8429 74.2022 33.0968C76.1207 37.37 77.0935 41.9319 77.0935 46.6777Z" fill="#FF7B7B"/>
<path d="M16.7211 41.017V67.2128H9.41225C5.82316 61.207 3.76221 54.1836 3.76221 46.6772C3.76221 44.0336 4.0183 41.4482 4.50643 38.9473L16.7211 41.017Z" fill="#C1AFB4"/>
<path d="M16.7217 41.0176H30.0545V67.2139H16.7217V41.0176Z" fill="#F9F5F3"/>
<path d="M60.4391 39.9951H45.683C44.3001 39.9951 43.2741 38.7126 43.5777 37.3633L45.518 28.74C46.0946 26.1772 44.1457 23.7412 41.5188 23.7412C39.9889 23.7412 38.5864 24.593 37.8812 25.9507L30.0542 41.0177V62.6324L42.8427 66.8698H57.5375C57.5908 66.8698 57.6424 66.8681 57.6939 66.8664C59.4904 66.8064 60.8741 65.1796 60.9391 63.4283C61.0073 61.5903 59.4113 60.0407 57.6011 60.0407H58.5224C59.356 60.0407 60.1261 59.733 60.7157 59.2208C61.3052 58.7087 61.716 57.9883 61.8313 57.1633C62.1132 55.1539 60.5524 53.3594 58.5224 53.3594H59.4797C60.3133 53.3594 61.0835 53.0535 61.673 52.5395C62.2625 52.0256 62.6735 51.307 62.7887 50.482C63.0705 48.4709 61.5097 46.6781 59.4797 46.6781H60.4389C61.2725 46.6781 62.041 46.3704 62.6305 45.8583C63.2218 45.3443 63.631 44.624 63.7479 43.799C64.0282 41.7896 62.4674 39.9951 60.4391 39.9951Z" fill="#FFDAD5"/>
<path d="M68.2213 34.2521C77.067 34.2521 84.238 27.0812 84.238 18.2354C84.238 9.38967 77.067 2.21875 68.2213 2.21875C59.3755 2.21875 52.2046 9.38967 52.2046 18.2354C52.2046 27.0812 59.3755 34.2521 68.2213 34.2521Z" fill="#FFCE69"/>
<path d="M2.06185 47.8777C2.54757 64.895 13.705 80.3253 29.7494 86.0685C34.2693 87.6865 39.0658 88.5 43.8655 88.5C55.0363 88.5 65.5387 84.1497 73.4381 76.2503C81.3373 68.3509 85.6878 57.8487 85.6878 46.6777C85.6878 40.6509 84.4378 34.8521 81.9717 29.423C84.4611 26.3689 85.9563 22.4737 85.9563 18.2354C85.9563 8.45609 78.0002 0.5 68.221 0.5C63.0006 0.5 58.3004 2.76772 55.0519 6.36919C51.4252 5.36458 47.668 4.85394 43.8656 4.85394C37.7548 4.85394 31.8612 6.14506 26.3485 8.69156C25.4867 9.08963 25.1108 10.1109 25.5089 10.9725C25.9068 11.8343 26.928 12.2104 27.7898 11.8121C32.8474 9.476 38.2561 8.29144 43.8656 8.29144C46.9149 8.29144 49.9316 8.64739 52.8636 9.35156C52.27 10.3718 51.7848 11.4417 51.4104 12.5502C48.9485 12.0082 46.419 11.7295 43.8656 11.7295C27.8292 11.7295 13.8363 22.7358 9.97274 38.1308L6.57064 37.5544C8.15207 31.0558 11.4204 25.057 16.1494 20.1223C16.8061 19.4368 16.7829 18.3489 16.0977 17.6921C15.4122 17.0352 14.3243 17.0586 13.6675 17.7439C6.17155 25.5661 2.04346 35.8416 2.04346 46.6778C2.04346 47.0778 2.05068 47.4779 2.06185 47.8777ZM71.0074 73.8196C63.7572 81.0697 54.1181 85.0625 43.8655 85.0625C33.6123 85.0625 23.9728 81.0698 16.7231 73.8196C15.195 72.2915 13.8135 70.6559 12.5816 68.932H16.7197H16.7214H16.9253C19.5699 72.1225 22.7907 74.8603 26.3591 76.9316C31.651 80.0015 37.7046 81.6241 43.8655 81.6241C63.1351 81.6241 78.8121 65.9473 78.8121 46.6775C78.8121 42.2675 78.0086 37.9961 76.4249 33.9551C77.4607 33.4123 78.4481 32.7671 79.3587 32.0332C81.2787 36.6683 82.2503 41.5836 82.2503 46.6775C82.2503 56.9305 78.2575 66.5696 71.0074 73.8196ZM28.3355 62.6321V65.4947H18.5928C18.5423 65.4272 18.4902 65.3606 18.4403 65.2926V42.7359H28.3357L28.3355 62.6321ZM68.221 3.9375C76.1049 3.9375 82.5189 10.3515 82.5189 18.2354C82.5189 22.4213 80.7106 26.1927 77.8345 28.8099C75.2182 31.1809 71.7546 32.5332 68.2205 32.5332C62.0796 32.5332 56.4816 28.4448 54.6039 22.5992C54.0678 20.9304 53.8509 19.1713 53.9478 17.4221C54.2678 11.7465 58.074 6.67547 63.4264 4.76473C64.9623 4.21628 66.5903 3.9375 68.221 3.9375ZM43.8655 15.167C46.1574 15.167 48.4282 15.4114 50.6361 15.8947C49.707 23.024 53.2696 30.1594 59.5326 33.6934C63.667 36.0262 68.6889 36.5948 73.242 35.2499C74.6579 38.8787 75.3746 42.7153 75.3746 46.6777C75.3746 64.0518 61.2398 78.1868 43.8655 78.1868C38.3096 78.1868 32.8524 76.7247 28.0842 73.9587C25.7149 72.5833 23.5155 70.8821 21.5674 68.9322H30.0541C31.0034 68.9322 31.7728 68.1627 31.7728 67.2135V65.0123C31.7728 65.0123 42.6589 68.5883 42.8426 68.5883H57.5374C57.6108 68.5883 57.6818 68.5862 57.7526 68.5838C57.7593 68.5836 57.766 68.5833 57.7727 68.5831C61.6458 68.4379 63.9463 63.7479 61.7986 60.5562C61.8135 60.5435 61.8283 60.531 61.8431 60.5181C62.7643 59.7175 63.3648 58.6104 63.5335 57.4018C63.7067 56.1664 63.4169 54.9196 62.7334 53.8942C62.7568 53.8746 62.78 53.8548 62.8027 53.8349C63.7229 53.0326 64.3227 51.926 64.4908 50.7205C64.6641 49.4847 64.3744 48.2379 63.6911 47.2125C63.7136 47.1938 63.7359 47.1745 63.7581 47.1553C64.6776 46.3561 65.2783 45.2497 65.4502 44.0363C65.6525 42.5857 65.2171 41.1197 64.2553 40.0146C63.294 38.9098 61.9031 38.2762 60.4392 38.2762C59.4901 38.2762 58.7204 39.0457 58.7204 39.995C58.7204 40.9442 59.4901 41.7137 60.4392 41.7137C61.4081 41.7137 62.1805 42.5963 62.0462 43.558C61.9342 44.3501 61.2417 44.9593 60.4392 44.9593H58.2677C57.3186 44.9593 56.549 45.7287 56.549 46.678C56.549 47.6273 57.3186 48.3968 58.2677 48.3968H59.48C60.4531 48.3968 61.2217 49.2798 61.0866 50.2444C60.9763 51.0362 60.2792 51.6407 59.48 51.6407H57.3057C56.3566 51.6407 55.587 52.4102 55.587 53.3595C55.587 54.3087 56.3566 55.0782 57.3057 55.0782H58.5226C59.4953 55.0782 60.2644 55.9618 60.1293 56.9259C60.019 57.7175 59.3222 58.3222 58.5226 58.3222H55.7314C54.7823 58.3222 54.0126 59.0917 54.0126 60.0409C54.0126 60.9902 54.7823 61.7597 55.7314 61.7597H57.6014C58.3284 61.7597 58.9972 62.2784 59.1565 62.9912C59.3815 63.998 58.6862 65.0956 57.6232 65.1494C57.595 65.1504 57.5668 65.1515 57.5378 65.1515H43.1204L31.7732 61.3917V41.4374L39.4067 26.7427C39.8178 25.9514 40.6272 25.4597 41.519 25.4597C42.2461 25.4597 42.9234 25.7854 43.3777 26.3529C43.8319 26.9208 44.0009 27.6532 43.8412 28.3625L41.9009 36.9858C41.3633 39.3747 43.2373 41.7136 45.683 41.7136C46.6321 41.7136 47.4018 40.9441 47.4018 39.9948C47.4018 39.0455 46.6321 38.2761 45.683 38.2761C45.4051 38.2761 45.1934 38.0128 45.2546 37.7405L47.1948 29.1172C47.585 27.3835 47.172 25.5934 46.0619 24.2057C44.9517 22.818 43.2959 22.0222 41.5189 22.0222C39.3391 22.0222 37.3608 23.2238 36.3561 25.158L29.0105 39.2984H16.8636L16.6327 39.2594L13.3721 38.707C16.9466 24.965 29.4965 15.167 43.8655 15.167ZM15.0021 42.4698V65.4947H10.4017C7.60275 60.5273 5.9543 54.9821 5.5693 49.2759C5.38436 46.491 5.49694 43.6894 5.9103 40.9291L15.0021 42.4698Z" fill="black"/>
<path d="M60.5942 13.083H61.6758V23.8338C61.6758 24.6882 62.3683 25.3807 63.2227 25.3807C64.0771 25.3807 64.7696 24.6882 64.7696 23.8338V11.5361C64.7696 10.6817 64.0771 9.98926 63.2227 9.98926H60.5942C59.7398 9.98926 59.0474 10.6817 59.0474 11.5361C59.0474 12.3905 59.7398 13.083 60.5942 13.083Z" fill="black"/>
<path d="M72.7827 25.6314C75.5964 25.6314 77.8856 23.3422 77.8856 20.5284V14.8413C77.8856 12.0273 75.5964 9.73828 72.7827 9.73828C69.9689 9.73828 67.6797 12.0275 67.6797 14.8413V20.5284C67.6795 23.3422 69.9689 25.6314 72.7827 25.6314ZM70.7733 14.8413C70.7733 13.7333 71.6746 12.832 72.7825 12.832C73.8904 12.832 74.7917 13.7333 74.7917 14.8413V20.5284C74.7917 21.6363 73.8904 22.5376 72.7825 22.5376C71.6746 22.5376 70.7733 21.6363 70.7733 20.5284V14.8413Z" fill="black"/>
<path d="M19.6107 15.4614C20.9077 16.3257 22.6381 15.0717 22.2208 13.5735C22.0243 12.8685 21.3822 12.352 20.65 12.3155C19.916 12.2791 19.2278 12.7303 18.9633 13.4138C18.6752 14.1573 18.9505 15.0169 19.6107 15.4614Z" fill="black"/>
<path d="M51.6003 40.6521C51.9557 41.5191 52.9815 41.9396 53.8452 41.582C54.7102 41.2238 55.133 40.2022 54.7748 39.3373C54.4163 38.4717 53.3947 38.0505 52.5301 38.4074C51.666 38.7643 51.2406 39.7886 51.6003 40.6521Z" fill="black"/>
</g>
<defs>
<clipPath id="clip0">
<rect width="88" height="88" fill="white" transform="translate(0 0.5)"/>
</clipPath>
</defs>
</svg>
