<svg width="89" height="90" viewBox="0 0 89 90" fill="none" xmlns="http://www.w3.org/2000/svg">
<g clip-path="url(#clip0)">
<path d="M10.1845 28.7666V24.522C10.1845 22.1778 8.30533 20.2773 5.98703 20.2773C3.66891 20.2773 1.78955 22.1776 1.78955 24.522V32.4214" fill="#8AA8BD"/>
<path d="M83.4234 80.6712H5.40371C3.40761 80.6712 1.78955 79.035 1.78955 77.0164V32.4214C1.78955 30.4028 3.40761 28.7666 5.40371 28.7666H83.4235C85.4196 28.7666 87.0377 30.4028 87.0377 32.4214V77.0164C87.0375 79.035 85.4195 80.6712 83.4234 80.6712Z" fill="#B9F4FB"/>
<path d="M16.1519 88.1723C14.1034 88.1723 12.4429 86.4931 12.4429 84.4216V80.6709H19.8609V84.4216C19.8609 86.4929 18.2004 88.1723 16.1519 88.1723Z" fill="#8AA8BD"/>
<path d="M72.7286 88.1723C70.6801 88.1723 69.0195 86.4931 69.0195 84.4216V80.6709H76.4376V84.4216C76.4376 86.4929 74.7771 88.1723 72.7286 88.1723Z" fill="#8AA8BD"/>
<path d="M54.54 36.3154H79.3472V54.719H54.54V36.3154Z" fill="#F2EFEF"/>
<path d="M74.692 72.7913C77.2628 72.7913 79.3468 70.6838 79.3468 68.0841C79.3468 65.4844 77.2628 63.377 74.692 63.377C72.1212 63.377 70.0371 65.4844 70.0371 68.0841C70.0371 70.6838 72.1212 72.7913 74.692 72.7913Z" fill="#FF7B79"/>
<path d="M34.876 11.2415C37.4468 11.2415 39.5309 9.13399 39.5309 6.5343C39.5309 3.93461 37.4468 1.82715 34.876 1.82715C32.3052 1.82715 30.2212 3.93461 30.2212 6.5343C30.2212 9.13399 32.3052 11.2415 34.876 11.2415Z" fill="#8AA8BD"/>
<path d="M59.2759 72.7913C61.8467 72.7913 63.9308 70.6838 63.9308 68.0841C63.9308 65.4844 61.8467 63.377 59.2759 63.377C56.7051 63.377 54.6211 65.4844 54.6211 68.0841C54.6211 70.6838 56.7051 72.7913 59.2759 72.7913Z" fill="#FFC144"/>
<path d="M28.1737 73.3091C38.2248 73.3091 46.3728 65.0695 46.3728 54.9055C46.3728 44.7415 38.2248 36.502 28.1737 36.502C18.1226 36.502 9.97461 44.7415 9.97461 54.9055C9.97461 65.0695 18.1226 73.3091 28.1737 73.3091Z" fill="#80B6FF"/>
<path d="M0.0688477 77.0165C0.0688477 80.0393 2.50081 82.4986 5.49008 82.4986H10.7217V84.4219C10.7217 87.4978 13.1962 90 16.2379 90C19.2795 90 21.754 87.4978 21.754 84.4219V82.4986H67.2988V84.4219C67.2988 87.4978 69.7732 90 72.8149 90C75.8566 90 78.331 87.4978 78.331 84.4219V82.4986H83.5099C86.4992 82.4986 88.9311 80.0393 88.9311 77.0165V32.4214C88.9311 29.3985 86.4992 26.9393 83.5099 26.9393H81.2404V20.2774C81.2404 19.2681 80.4314 18.45 79.4333 18.45H76.0559C73.7356 18.45 73.7322 22.1047 76.0559 22.1047H77.6263V26.9393H36.7697V22.1047H61.2993C63.6196 22.1047 63.623 18.45 61.2993 18.45H34.9626C33.9646 18.45 33.1555 19.2681 33.1555 20.2774V26.9393H12.078C12.078 24.5127 12.1922 22.1557 10.3482 20.2633L30.122 10.8567C33.9868 15.2775 41.4244 12.4119 41.4244 6.53453C41.4245 2.93149 38.5256 0 34.9626 0C31.0608 0 27.975 3.65769 28.5793 7.55165L5.63121 18.4683C2.52629 18.6981 0.0688477 21.3244 0.0688477 24.522V77.0165ZM34.9626 3.65476C36.5328 3.65476 37.8104 4.94672 37.8104 6.53453C37.8104 8.12234 36.533 9.4143 34.9626 9.4143C33.3923 9.4143 32.1148 8.12253 32.1148 6.53453C32.1148 4.94654 33.3923 3.65476 34.9626 3.65476ZM6.07033 22.1049C6.07178 22.1049 6.07304 22.1053 6.07449 22.1053C6.07575 22.1053 6.07684 22.1051 6.0781 22.1051C7.39402 22.1078 8.46362 23.1909 8.46362 24.522V26.9393C6.93068 26.9393 5.14782 26.7282 3.68282 27.2536V24.522C3.683 23.1902 4.75388 22.1066 6.07033 22.1049ZM18.1398 84.4219C18.1398 85.4824 17.2865 86.3452 16.2379 86.3452C15.1892 86.3452 14.3359 85.4824 14.3359 84.4219V82.4986H18.1398V84.4219ZM74.7169 84.4219C74.7169 85.4824 73.8636 86.3452 72.8149 86.3452C71.7663 86.3452 70.913 85.4824 70.913 84.4219V82.4986H74.7169V84.4219ZM5.49008 78.8438C4.49366 78.8438 3.683 78.0241 3.683 77.0165V32.4214C3.683 31.4138 4.49366 30.594 5.49008 30.594H83.5099C84.5063 30.594 85.317 31.4138 85.317 32.4214V77.0165C85.317 78.0241 84.5063 78.8438 83.5099 78.8438H5.49008Z" fill="black"/>
<path d="M79.4331 34.4883H54.6259C53.6279 34.4883 52.8188 35.3064 52.8188 36.3157V54.7192C52.8188 55.7285 53.6279 56.5466 54.6259 56.5466H79.4331C80.4312 56.5466 81.2402 55.7285 81.2402 54.7192V36.3157C81.2402 35.3064 80.4312 34.4883 79.4331 34.4883ZM77.626 38.143V46.7458H70.7017L67.2287 41.099C66.6721 40.1943 65.3712 39.9681 64.5477 40.6517L60.8871 43.6901H56.433V38.143H77.626ZM56.433 52.8918V47.3448H61.5337C62.8552 47.3448 64.3099 45.5774 65.2479 44.7987C66.1188 46.2148 67.7336 50.4006 69.6975 50.4006H77.626V52.8918H56.433Z" fill="black"/>
<path d="M74.7783 61.5488C71.2153 61.5488 68.3164 64.4803 68.3164 68.0834C68.3164 71.6864 71.2153 74.6179 74.7783 74.6179C78.3415 74.6179 81.2403 71.6864 81.2403 68.0834C81.2403 64.4803 78.3415 61.5488 74.7783 61.5488ZM74.7783 70.9631C73.2082 70.9631 71.9306 69.6712 71.9306 68.0834C71.9306 66.4955 73.208 65.2036 74.7783 65.2036C76.3487 65.2036 77.6261 66.4955 77.6261 68.0834C77.6261 69.6712 76.3487 70.9631 74.7783 70.9631Z" fill="black"/>
<path d="M59.3623 61.5488C55.7991 61.5488 52.9004 64.4803 52.9004 68.0834C52.9004 71.6864 55.7993 74.6179 59.3623 74.6179C62.9253 74.6179 65.8242 71.6864 65.8242 68.0834C65.8242 64.4803 62.9255 61.5488 59.3623 61.5488ZM59.3623 70.9631C57.792 70.9631 56.5145 69.6712 56.5145 68.0834C56.5145 66.4955 57.792 65.2036 59.3623 65.2036C60.9325 65.2036 62.2101 66.4955 62.2101 68.0834C62.2101 69.6712 60.9327 70.9631 59.3623 70.9631Z" fill="black"/>
<path d="M66.9307 20.9766C67.3089 21.8949 68.3803 22.3474 69.2908 21.9652C70.2003 21.5835 70.6441 20.4986 70.2684 19.5787C69.8929 18.659 68.8173 18.2085 67.9083 18.5901C66.9965 18.9727 66.5568 20.0544 66.9307 20.9766Z" fill="black"/>
<path d="M28.2601 34.6748C17.2286 34.6748 8.25391 43.7503 8.25391 54.9057C8.25391 66.0612 17.2286 75.1367 28.2601 75.1367C39.2915 75.1367 48.2662 66.0612 48.2662 54.9057C48.2662 43.7503 39.2915 34.6748 28.2601 34.6748ZM28.2601 71.4819C19.2214 71.4819 11.8681 64.0459 11.8681 54.9057C11.8681 45.7655 19.2214 38.3296 28.2601 38.3296C37.2987 38.3296 44.6521 45.7655 44.6521 54.9057C44.6521 64.0459 37.2987 71.4819 28.2601 71.4819Z" fill="black"/>
<path d="M22.8117 56.303L29.5557 49.4832C31.2039 47.8162 28.6483 45.232 26.9999 46.8987L20.2559 53.7185C18.6079 55.3854 21.1634 57.9697 22.8117 56.303Z" fill="black"/>
<path d="M35.729 48.5704C35.0235 47.8568 33.879 47.8568 33.1734 48.5704L21.9093 59.961C20.2611 61.6279 22.8167 64.212 24.4651 62.5453L35.7291 51.1546C36.4346 50.441 36.4346 49.2841 35.729 48.5704Z" fill="black"/>
<path d="M34.8267 54.8138L28.0827 61.6335C26.4344 63.3005 28.99 65.8848 30.6384 64.218L37.3824 57.3982C39.0305 55.7313 36.4749 53.147 34.8267 54.8138Z" fill="black"/>
</g>
<defs>
<clipPath id="clip0">
<rect width="89" height="90" fill="white"/>
</clipPath>
</defs>
</svg>
