<svg width="66" height="87" viewBox="0 0 66 87" fill="none" xmlns="http://www.w3.org/2000/svg">
<path d="M40.6214 32.3016L40.6196 32.2982C42.0397 31.3923 42.9801 29.8133 42.9801 28.0168C42.9801 25.2004 40.6712 22.9178 37.8225 22.9178C45.1102 18.8012 49.1796 9.73514 48.1377 1.50195C44.7887 3.98517 40.979 5.56246 37.0471 6.23043C35.6065 3.45487 32.6649 1.50195 32.6649 1.50195C32.6649 1.50195 29.7233 3.45487 28.2826 6.23043C24.3508 5.56246 20.5411 3.98517 17.1921 1.50195C16.1502 9.73514 20.2196 18.8012 27.5073 22.9178C24.6586 22.9178 22.3497 25.2004 22.3497 28.0168C22.3497 29.8133 23.2901 31.3923 24.7101 32.2982L24.7084 32.3016C11.474 38.0822 1.71924 52.4053 1.71924 64.2197C1.71924 78.2997 15.5743 85.1256 32.6649 85.1256C49.7555 85.1256 63.6105 78.2997 63.6105 64.2197C63.6105 52.4053 53.8558 38.0822 40.6214 32.3016Z" fill="#FF9171"/>
<path d="M37.8224 22.918C40.6712 22.918 42.98 25.2006 42.98 28.017C42.98 30.8364 40.6617 33.116 37.8224 33.116H27.5072C24.6688 33.116 22.3496 30.8377 22.3496 28.017C22.3496 25.2006 24.6585 22.918 27.5072 22.918H37.8224Z" fill="#FFDA8F"/>
<path d="M32.665 76.1174C33.6145 76.1174 34.3842 75.3564 34.3842 74.4177V70.7281C37.3456 70.0178 39.6244 67.3687 39.6244 64.1228C39.6244 60.374 36.5394 57.3241 32.7476 57.3241C30.8516 57.3241 29.3091 55.7992 29.3091 53.9248C29.3091 52.5557 30.1332 51.326 31.4085 50.7922C32.8959 50.1694 34.6179 50.6448 36.1327 52.0961C36.8145 52.7493 37.9029 52.7325 38.5636 52.0584C39.2245 51.3843 39.2073 50.3083 38.5255 49.6551C37.2637 48.4464 35.8402 47.6566 34.3841 47.3157V43.8237C34.3841 42.885 33.6144 42.124 32.6649 42.124C31.7153 42.124 30.9457 42.885 30.9457 43.8237V47.3619C30.6496 47.4418 30.3565 47.5409 30.0677 47.6619C27.5181 48.7293 25.8706 51.1877 25.8706 53.9248C25.8706 57.6736 28.9555 60.7235 32.7474 60.7235C34.6433 60.7235 36.1858 62.2484 36.1858 64.1228C36.1858 66.0239 34.6139 67.5527 32.6912 67.5206C31.3292 67.5 29.9633 66.7287 28.7413 65.2901C28.1305 64.5714 27.0462 64.4779 26.3191 65.0818C25.5921 65.6855 25.4977 66.7575 26.1083 67.4764C27.7749 69.4382 29.4934 70.328 30.9458 70.6941V74.4177C30.9458 75.3564 31.7155 76.1174 32.665 76.1174Z" fill="black"/>
<path d="M56.3901 46.7138C57.3396 46.7138 58.1093 45.9528 58.1093 45.0141C58.1093 44.0754 57.3396 43.3145 56.3901 43.3145C55.4406 43.3145 54.6709 44.0754 54.6709 45.0141C54.6709 45.9528 55.4406 46.7138 56.3901 46.7138Z" fill="black"/>
<path d="M32.6649 86.8248C49.1787 86.8248 65.3297 80.3081 65.3297 64.2193C65.3297 59.9913 64.1565 55.3575 61.9372 50.8184C61.5238 49.9732 60.496 49.6193 59.6412 50.0279C58.7863 50.4365 58.4283 51.4527 58.8416 52.2978C60.8368 56.3785 61.8913 60.5009 61.8913 64.2193C61.8913 78.38 46.7938 83.4255 32.6649 83.4255C18.5359 83.4255 3.43841 78.38 3.43841 64.2193C3.43841 53.0059 12.8853 39.7148 24.6484 34.1991C25.5401 34.6039 26.5124 34.815 27.5073 34.815H37.8225C38.8179 34.815 39.7908 34.6036 40.6829 34.1986C44.0051 35.7502 47.1526 37.8892 50.0488 40.5667C50.7421 41.2078 51.8302 41.1718 52.4787 40.4861C53.1272 39.8005 53.0907 38.7249 52.3972 38.0838C49.6413 35.536 46.6678 33.4308 43.5321 31.8044C44.2819 30.7027 44.6995 29.3927 44.6995 28.0164C44.6995 25.6574 43.4774 23.576 41.6269 22.3563C47.6561 17.3722 50.8167 8.97958 49.8438 1.29062C49.7677 0.689451 49.3738 0.173772 48.8096 -0.0629912C48.2455 -0.299585 47.5967 -0.22157 47.1062 0.141819C44.3807 2.16272 41.2203 3.5986 37.9043 4.33065C36.2028 1.82109 33.7416 0.169013 33.6233 0.0904887C33.0436 -0.294486 32.2861 -0.294486 31.7064 0.0904887C31.5881 0.169013 29.1271 1.82109 27.4254 4.33065C24.1094 3.59877 20.949 2.16272 18.2236 0.141819C17.7332 -0.22157 17.0844 -0.299755 16.5203 -0.0629912C15.9563 0.173772 15.5622 0.689451 15.4861 1.29062C14.5147 8.96768 17.6646 17.3645 23.703 22.3563C21.8524 23.576 20.6304 25.6574 20.6304 28.0164C20.6304 29.3943 21.0491 30.7057 21.7993 31.8076C9.40972 38.257 0 52.0468 0 64.2193C0 80.2922 16.1239 86.8248 32.6649 86.8248ZM27.5073 31.4157C25.6392 31.4157 24.0688 29.9208 24.0688 28.0164C24.0688 26.142 25.6113 24.617 27.5073 24.617H37.8189C37.8206 24.617 37.8223 24.6174 37.824 24.6174C37.8247 24.6174 37.8256 24.6172 37.8263 24.6172C39.7205 24.6194 41.2609 26.1433 41.2609 28.0164C41.2609 29.9287 39.6811 31.4157 37.8225 31.4157H27.5073ZM18.7546 4.56503C21.602 6.21269 24.7457 7.35368 27.9916 7.90505C28.7317 8.03099 29.4692 7.66675 29.8122 7.00592C30.552 5.58075 31.7994 4.37637 32.6649 3.65061C33.5308 4.37688 34.7779 5.58092 35.5177 7.00609C35.8607 7.66692 36.5975 8.03133 37.3383 7.90522C40.5842 7.35385 43.7279 6.21286 46.5753 4.5652C46.415 11.2867 42.8162 17.9256 37.3488 21.2179H27.9812C22.5135 17.9254 18.9148 11.2867 18.7546 4.56503Z" fill="black"/>
</svg>
