<svg width="158" height="17" fill="none" xmlns="http://www.w3.org/2000/svg"><path d="M11 7.9c.6.6 1 1.2 1.3 1.7.3.6.4 1.3.4 2 0 1.5-.5 2.7-1.6 3.6a3.6 3.6 0 0 1-1.5 1l-1 .2H3l-1.4-.1-.9-.7-.4-.6a3 3 0 0 1-.2-.6V14 3c0-.8.2-1.4.7-2C1.4.8 2 .5 2.9.5H6a8.7 8.7 0 0 1 1.4.1l.5.1c1 .3 2 .8 2.7 1.7a5 5 0 0 1 .8 4.3c0 .3-.3.7-.6 1.2zM5.4 6.6H6l.8-.1L7 6c0-.2-.1-.4-.3-.5L6 5.4h-.5v1.2zm0 4.9h.8c.5 0 .8 0 1-.2l.2-.4c0-.3-.1-.5-.3-.6l-.9-.1h-.8v1.3zM58 1.7c.2-.4.5-.8 1-1a2.6 2.6 0 0 1 2.3-.2l.8.5.5.7c.2.3.3.6.3 1l1.8 10.4.1.4v.5c0 .3 0 .7-.2 1 0 .3-.3.6-.5.8a2.6 2.6 0 0 1-1.8.7c-.7 0-1.3-.2-1.8-.5-.4-.4-.7-.9-.9-1.5l-.6-3-1 2.8c-.5 1.5-1.4 2.2-2.7 2.2-.7 0-1.2-.2-1.6-.5-.5-.3-.8-.9-1-1.6l-1.1-2.9L51 14c0 .8-.4 1.4-.9 1.9-.4.4-1 .6-1.7.6-.8 0-1.4-.3-2-.8-.4-.5-.7-1.2-.7-2v-.4-.3l2-10.2c0-.8.3-1.4.8-1.8.4-.5 1-.7 1.7-.7.6 0 1 .2 1.6.5.5.3.8.7 1 1.3l2.4 5.3L58 1.7" fill="#000"/><path d="M71.5 16.8c-.9 0-1.7 0-2.4-.3-.7-.2-1.4-.5-2-.9-.5-.3-.9-.8-1.2-1.2-.3-.5-.4-1-.4-1.6 0-.4 0-.7.2-1 0-.3.3-.5.5-.7a2.4 2.4 0 0 1 2.6-.6l1 .6.6.6a12.7 12.7 0 0 0 .8.4h.2c.2 0 .4 0 .5-.2l.2-.5c0-.2-.1-.5-.4-.7H71.4l-.3-.2-.5-.2-.6-.3-.7-.2C67 9 66 7.5 66 5.3a5 5 0 0 1 1.6-3.8C68 1 68.6.6 69.3.4a7.2 7.2 0 0 1 4.4-.1l1.7.7c.4.3.8.7 1 1.1.3.4.5.9.5 1.4 0 .6-.2 1.2-.6 1.6a2 2 0 0 1-1.5.6l-1-.2-1.2-.7-.6-.5a1 1 0 0 0-.5-.1c-.2 0-.3 0-.4.2-.2 0-.2.2-.2.4 0 .3 0 .4.3.6l1.3.5a11.5 11.5 0 0 1 3.4 1.7c.5.4.8 1 1.1 1.6a5.5 5.5 0 0 1 0 4.2c-.2.7-.6 1.3-1 1.8-.6.5-1.2 1-2 1.2-.7.2-1.5.4-2.5.4zM81 5.3c-.5 0-.9 0-1.2-.2a2 2 0 0 1-.8-.5c-.5-.5-.8-1.1-.8-1.7 0-.5.2-1 .4-1.4a2.3 2.3 0 0 1 1.4-1h.5l.7-.1H89.6A2.4 2.4 0 0 1 91.5 4l-.6.8c-.5.4-1.1.6-2 .6h-1.3v9.1l-.4.9c-.2.4-.5.7-1 .9-.3.2-.7.3-1.2.3l-1.2-.3c-.4-.2-.7-.4-1-.8-.1-.3-.3-.5-.3-.8l-.1-1.3v-8H81zm14.6 9c-.3.8-.7 1.4-1.1 1.7-.5.3-1 .5-1.6.5a2.7 2.7 0 0 1-2-.8l-.5-.8-.2-1c0-.5.1-1 .4-1.4l5-10.6A2.6 2.6 0 0 1 98 .3c.5 0 1 .1 1.5.4.4.3.7.7 1 1.2l5 10.8a2.6 2.6 0 0 1 0 2.2 2.7 2.7 0 0 1-2.4 1.6c-.6 0-1-.1-1.5-.4-.4-.4-.8-1-1.1-1.8h-5 .1zm22.9-2a3 3 0 0 1 .3 2.7l-.6.8a2.6 2.6 0 0 1-1.9.8c-1 0-1.7-.5-2.2-1.3l-2.1-3.6v2.2l-.2 1a3 3 0 0 1-.6.9l-.8.5c-.3.2-.7.2-1 .2-.4 0-.8 0-1.2-.2l-.9-.7c-.4-.5-.6-1.3-.6-2.3V3.5c0-.6 0-1 .2-1.4.1-.4.3-.7.7-1 .3-.3.6-.4.9-.5l1.5-.2h2.2a14 14 0 0 1 2.5.3 6 6 0 0 1 1.7.7 6.2 6.2 0 0 1 2.2 3 5.5 5.5 0 0 1 0 3.9l-1.4 2 1.3 2zm4.2-7l-1.2-.1a2 2 0 0 1-.8-.6 2.4 2.4 0 0 1-.4-3l1-1h.4l.4-.1h9.2c.6 0 1.1.3 1.5.8a2.5 2.5 0 0 1 .4 2.6l-.6.9c-.4.4-1.1.6-2 .6h-1.2v8l-.1 1a2.6 2.6 0 0 1-2.6 2.1c-.4 0-.8 0-1.2-.2a2.7 2.7 0 0 1-1.3-1.7l-.1-1.2v-8h-1.4zm19 6.2l1.4.1.9.5c.6.5.8 1.1.8 1.8 0 .4 0 .8-.2 1.1-.1.4-.4.6-.6.9-.2 0-.3.2-.4.3l-.5.1-.5.1H136.4c-.3 0-.5 0-.7-.2-.9-.3-1.4-1-1.5-1.9v-.2l-.1-.3V4 2.7v-.4l.2-.3.5-.8a2.7 2.7 0 0 1 1.2-.7h7c.6.2 1 .5 1.4.9.3.4.4 1 .4 1.5 0 .3 0 .7-.2 1-.1.4-.3.7-.6.9-.3.2-.5.4-.8.4l-1.2.2h-2.7v1.1h2.1c.7 0 1.2.2 1.6.5.4.4.5.8.5 1.4 0 .6-.2 1.1-.7 1.5l-.6.3h-2.9v1.3h2.5zm15.7.8a3 3 0 0 1 .5 1.7c0 .3 0 .7-.2 1-.1.3-.3.6-.6.8a2.7 2.7 0 0 1-1.8.8c-1 0-1.7-.4-2.2-1.2l-2.2-3.7V14a2.7 2.7 0 0 1-1.6 2.5l-1 .2-1.2-.3-.9-.7c-.4-.5-.6-1.3-.6-2.2v-10c0-.5 0-1 .2-1.3.1-.4.4-.7.7-1 .3-.3.6-.4 1-.5l1.4-.2h2.2a13.9 13.9 0 0 1 2.6.3 5.7 5.7 0 0 1 3.8 3.7l.3 1.8c0 .8 0 1.5-.3 2.1-.3.6-.7 1.3-1.4 2l1.3 2" fill="#0087F7"/><path fill-rule="evenodd" clip-rule="evenodd" d="M29 7.4h-.6c0-.6-.2-1.2-.4-1.7l.5-.4c.2 0 .2-.2.2-.3l-.8-1.4c0-.1-.2-.2-.4 0l-.6.3c-.3-.5-.7-.9-1.2-1.2L26 2c.1-.2 0-.3 0-.4L24.6 1l-.4.1-.3.6-1.7-.4V.5L22 .2h-1.6c-.2 0-.3.2-.3.3v.7a7 7 0 0 0-1.6.4L18 1h-.3l-1.4.7c-.1 0-.1.3 0 .4l.3.6c-.5.3-1 .7-1.3 1.2l-.6-.3h-.3L13.7 5l.1.3.6.4-.4 1.7h-.7c-.2 0-.3 0-.3.2v1.6c0 .1.1.2.3.2h.7c0 .6.2 1.2.4 1.7l-.6.4c-.1 0-.2.2-.1.3l.8 1.4c0 .1.2.1.4 0l.5-.3 1.3 1.3-.4.5.1.4 1.4.8.3-.1.3-.6c.6.2 1.1.4 1.7.4v.7c0 .2.1.3.3.3H22c.1 0 .2-.1.2-.3v-.7c.6 0 1.2-.2 1.7-.4l.3.6c.1.1.3.1.4 0l1.4-.7s.1-.2 0-.4l-.3-.5c.5-.4.9-.8 1.2-1.3l.6.4.4-.1.8-1.4-.1-.3-.6-.4c.2-.5.4-1 .4-1.6h.7c.2 0 .3-.2.3-.3V7.6c0-.1-.1-.2-.3-.2zm-4.2 2.2l-1.9.1.5 1.8-1.5-1-.7 1.7-.7-1.7-1.6 1 .5-1.8-1.9-.1L19 8.4l-1.5-1.2h1.9l-.5-1.9 1.6 1 .7-1.7.6 1.7 1.6-1-.5 1.8 1.9.1-1.5 1.2 1.5 1.2z" fill="#000"/><path fill-rule="evenodd" clip-rule="evenodd" d="M45.3 9.5l-.7-.2V7.5l.7-.1.2-.3-.4-1.6c0-.1-.2-.2-.3-.1l-.7.1a7 7 0 0 0-.9-1.5l.5-.4c.1-.1.1-.3 0-.4l-1-1.1c-.2-.1-.3 0-.4 0l-.5.5-1.5-.9.1-.6-.1-.4-1.6-.4c-.1 0-.2 0-.3.2l-.2.7h-1.7l-.2-.7c0-.1-.1-.2-.3-.2l-1.5.4-.2.3.2.7a7 7 0 0 0-1.5.9l-.5-.5c-.1-.1-.3-.1-.4 0l-1 1c-.2.2-.2.3 0 .4l.4.5-.9 1.5-.6-.1-.4.1-.4 1.6s0 .2.2.3l.7.1v1.8l-.7.2-.2.2.4 1.6c0 .1.2.2.4.1l.6-.1.9 1.5-.5.5v.3l1.1 1.2h.4l.5-.5 1.5.8-.2.7c0 .1 0 .3.2.3l1.5.4c.1 0 .3 0 .3-.2l.2-.6h1.7l.2.7.3.2 1.5-.4c.2 0 .3-.2.2-.4l-.1-.6 1.5-.9.5.5h.3l1.1-1.1c.1-.1.1-.3 0-.4l-.5-.5c.4-.4.7-1 1-1.5l.6.2c.1 0 .3 0 .3-.2l.4-1.5c0-.2 0-.3-.2-.3zm-4.9 1.3l-1.8-.6-.2 2-1-1.6L36 12V10l-1.8.4 1-1.5-1.6-.8 1.7-.6-1-1.6 1.9.6.2-1.9 1 1.5 1.3-1.4v1.9l1.9-.4-1.1 1.5 1.7.8-1.8.6 1 1.6z" fill="#000"/></svg>