<svg width="158" height="17" viewBox="0 0 158 17" fill="none" xmlns="http://www.w3.org/2000/svg">
<path d="M10.9653 7.85087C11.6099 8.45717 12.0594 9.05301 12.3242 9.63491C12.589 10.2203 12.7179 10.8893 12.7179 11.6629C12.7179 13.0671 12.1848 14.2588 11.1151 15.2309C10.8572 15.4748 10.6098 15.67 10.3694 15.8233C10.1255 15.9731 9.84675 16.0916 9.56799 16.1787C9.28924 16.2658 8.94079 16.3285 8.59235 16.3599C8.20906 16.3947 7.79092 16.4087 7.26826 16.4087H3.08692C2.49456 16.4087 2.04158 16.3564 1.72798 16.2519C1.41438 16.1473 1.10078 15.9034 0.822023 15.5898C0.661738 15.4156 0.525845 15.2135 0.414342 14.9975C0.30284 14.7814 0.226182 14.5793 0.170431 14.3703C0.156493 14.2657 0.14604 14.1333 0.135586 13.9626C0.125133 13.7988 0.118164 13.4608 0.118164 12.9521V3.12944C0.125133 2.32802 0.39692 1.67294 0.891712 1.17815C1.41438 0.669422 2.04855 0.411573 2.843 0.411573H5.09396C5.52603 0.411573 5.88841 0.422026 6.18459 0.428995C6.46335 0.428995 6.70726 0.442933 6.95117 0.46384C7.16024 0.477778 7.33446 0.498684 7.50868 0.519591C7.68291 0.543982 7.82228 0.571858 7.99651 0.603218C9.08714 0.875005 9.98264 1.44645 10.6795 2.31757C11.3416 3.18868 11.69 4.21311 11.69 5.39434C11.69 5.85777 11.6308 6.25848 11.5263 6.59299C11.4217 6.92749 11.2196 7.34563 10.9339 7.84042L10.9653 7.85087ZM5.35878 6.59996H5.98598C6.34836 6.59996 6.60273 6.54769 6.75256 6.46058C6.89194 6.36998 6.96162 6.21667 6.96162 5.99018C6.96162 5.76369 6.88148 5.60689 6.72468 5.50932C6.5644 5.41176 6.30655 5.36995 5.93371 5.36995H5.3762V6.5895L5.35878 6.59996ZM5.35878 11.4782H6.24383C6.70726 11.4782 7.01041 11.4364 7.16721 11.3493C7.32401 11.2621 7.39021 11.0949 7.39021 10.8614C7.39021 10.6175 7.29962 10.4433 7.11146 10.3388C6.9233 10.2342 6.64454 10.1924 6.22641 10.1924H5.39014V11.4921L5.35878 11.4782ZM57.974 1.70082C58.183 1.28269 58.4966 0.944694 58.9148 0.679876C59.3329 0.425511 59.7859 0.286133 60.2876 0.286133C60.6012 0.286133 60.9358 0.355822 61.2738 0.477778C61.6117 0.606702 61.8905 0.780925 62.11 1.00045C62.34 1.23042 62.5107 1.46736 62.6327 1.72521C62.7581 1.98306 62.8557 2.32802 62.9358 2.76009L64.7477 13.0601C64.7826 13.2343 64.807 13.3981 64.8174 13.541C64.8279 13.6838 64.8523 13.8197 64.8523 13.9591C64.8523 14.3285 64.7826 14.6665 64.6432 14.9766C64.5108 15.2902 64.3296 15.562 64.0962 15.778C63.8662 16.008 63.5909 16.1892 63.2738 16.3251C62.9567 16.4609 62.6187 16.5202 62.2633 16.5202C61.5943 16.5202 61.0194 16.3355 60.5385 15.9696C60.0507 15.6003 59.7719 15.1125 59.6465 14.5062L59.0402 11.5095L58.0123 14.332C57.4896 15.7885 56.5837 16.5167 55.3084 16.5167C54.6463 16.5167 54.1062 16.3425 53.6707 16.001C53.2421 15.6526 52.8902 15.1055 52.6184 14.3633L51.573 11.5061L51.141 14.0497C51.012 14.8163 50.7124 15.4156 50.242 15.8616C49.7542 16.2937 49.1688 16.5132 48.4998 16.5132C47.6983 16.5132 47.0711 16.2449 46.5833 15.7118C46.0711 15.1752 45.8167 14.4853 45.8167 13.6385C45.8167 13.5201 45.8272 13.4121 45.8342 13.311C45.8342 13.2065 45.8551 13.1019 45.869 12.9835L47.7088 2.77403C47.8377 2.00745 48.1269 1.39767 48.5799 0.962116C49.0398 0.519591 49.6113 0.300071 50.2977 0.300071C50.8552 0.300071 51.3779 0.460355 51.8657 0.77744C52.3536 1.09104 52.7125 1.5266 52.9389 2.06669L55.3084 7.36305L57.9705 1.6834" fill="black"/>
<path d="M71.4798 16.8125C70.6331 16.8125 69.8421 16.7079 69.1104 16.4989C68.3717 16.2968 67.7305 16.011 67.187 15.6417C66.6434 15.2723 66.2218 14.8403 65.9186 14.3524C65.6399 13.8716 65.4656 13.342 65.4656 12.7635C65.4656 12.429 65.5353 12.1154 65.6747 11.8297C65.7932 11.5405 65.9535 11.2896 66.1765 11.0736C66.3855 10.8575 66.6469 10.6903 66.943 10.5579C67.2392 10.429 67.5563 10.3662 67.8838 10.3662C68.1974 10.3662 68.511 10.4255 68.8107 10.5474C69.1034 10.6659 69.417 10.861 69.7515 11.1328L70.4484 11.6625C70.6226 11.7879 70.769 11.8889 70.8805 11.9621C70.985 12.0318 71.0895 12.0771 71.1592 12.091C71.2429 12.1085 71.3335 12.1154 71.4275 12.1154C71.6366 12.1154 71.8108 12.0527 71.9154 11.9238C72.0443 11.7983 72.107 11.6276 72.107 11.422C72.107 11.1502 71.9676 10.9272 71.6889 10.7495C71.654 10.7356 71.6192 10.7147 71.5843 10.6903L71.4101 10.6067L71.1314 10.4673L70.6435 10.2582L69.9815 10.0317C69.7724 9.96204 69.5634 9.89235 69.3369 9.80524C67.0162 8.98988 65.8524 7.47066 65.8524 5.25107C65.8524 4.46358 65.9918 3.75275 66.2845 3.1151C66.5772 2.47744 66.9744 1.93039 67.4866 1.46347C67.9988 0.996553 68.6086 0.637654 69.3334 0.383289C70.0651 0.12544 70.8665 0 71.7307 0C72.4485 0 73.1245 0.0905957 73.7412 0.278756C74.3684 0.452978 74.9085 0.703859 75.3719 1.01746C75.8388 1.33106 76.2012 1.69344 76.466 2.11506C76.7274 2.5332 76.8563 2.99663 76.8563 3.49142C76.8563 4.12907 76.6542 4.65174 76.2709 5.05942C75.8876 5.4671 75.3928 5.67268 74.7865 5.67268C74.4137 5.67268 74.0722 5.603 73.7517 5.46362C73.4381 5.33121 73.0548 5.09775 72.6018 4.76673C72.3335 4.54024 72.114 4.39041 71.9572 4.31375C71.7934 4.23012 71.6436 4.18831 71.5042 4.18831C71.33 4.18831 71.1767 4.24406 71.0512 4.36253C70.9362 4.48449 70.877 4.63432 70.877 4.80854C70.877 5.05245 70.9815 5.24061 71.1906 5.38347C71.4136 5.52285 71.8352 5.69707 72.4589 5.90614C73.1454 6.11521 73.7935 6.35912 74.3998 6.67272C75.0061 6.96542 75.4939 7.27205 75.8632 7.59262C76.358 8.01075 76.7483 8.54387 77.0375 9.20592C77.3163 9.86796 77.4626 10.5858 77.4626 11.3523C77.4626 12.0701 77.3302 12.7635 77.0689 13.4256C76.8006 14.0876 76.4312 14.6695 75.9538 15.1678C75.4068 15.7114 74.7691 16.1086 74.0444 16.3769C73.3126 16.6452 72.4589 16.7776 71.4659 16.7776L71.4798 16.8125ZM80.968 5.29636C80.501 5.29636 80.1143 5.2441 79.8007 5.12214C79.4871 5.01761 79.2188 4.84339 78.9783 4.59947C78.4905 4.07681 78.2466 3.48445 78.2466 2.85725C78.2466 2.39033 78.379 1.95129 78.6403 1.53316C78.9086 1.11502 79.2327 0.825815 79.616 0.648108C79.7554 0.592356 79.8878 0.543574 79.9993 0.50873C80.1038 0.473885 80.2641 0.456463 80.4523 0.439041C80.6474 0.425103 80.8983 0.404196 81.2084 0.404196C81.522 0.397227 81.9401 0.390258 82.4628 0.390258H89.1181C89.2226 0.390258 89.3097 0.400712 89.362 0.407681L89.5711 0.442525C90.2087 0.512214 90.7209 0.780517 91.1286 1.22653C91.5363 1.67254 91.7279 2.21263 91.7279 2.82937C91.7279 3.18827 91.6443 3.52626 91.4945 3.86774C91.3377 4.20225 91.1251 4.49494 90.8533 4.7284C90.4352 5.11169 89.7557 5.29636 88.8149 5.29636H87.6476V13.2758C87.6476 13.7496 87.6128 14.1469 87.5571 14.443C87.5013 14.7392 87.3724 15.0354 87.1981 15.3037C86.9542 15.687 86.6581 15.9832 86.2817 16.1922C85.8985 16.3943 85.4803 16.4989 85.0273 16.4989C84.5744 16.4989 84.1562 16.4048 83.7834 16.2131C83.4106 16.025 83.0865 15.7532 82.8426 15.4013C82.6684 15.1295 82.5499 14.8507 82.4941 14.565C82.4245 14.2758 82.3896 13.8577 82.3896 13.3106V5.33121H80.9749L80.968 5.29636ZM95.6026 14.3037C95.2542 15.0912 94.8779 15.6556 94.4528 15.9971C94.0346 16.3456 93.498 16.5128 92.8604 16.5128C92.4875 16.5128 92.1461 16.4431 91.8255 16.3107C91.5014 16.1713 91.2331 15.9867 90.9892 15.7462C90.7627 15.5023 90.5711 15.2236 90.4422 14.91C90.3028 14.5859 90.2401 14.2479 90.2401 13.8751C90.2401 13.4465 90.3446 12.9691 90.5711 12.5057L95.5887 1.87812C95.8047 1.3903 96.1323 1.00004 96.5644 0.717797C96.9964 0.439041 97.4703 0.299663 98.0034 0.299663C98.547 0.299663 99.0313 0.439041 99.4669 0.717797C99.8955 1.01397 100.233 1.40772 100.47 1.91993L105.498 12.666C105.708 13.0562 105.812 13.4813 105.812 13.9273C105.812 14.2967 105.742 14.6347 105.589 14.9483C105.45 15.2619 105.258 15.5406 105.018 15.7776C104.774 16.0215 104.495 16.2097 104.181 16.3456C103.868 16.4814 103.519 16.5477 103.146 16.5477C102.533 16.5477 102.031 16.3874 101.62 16.0598C101.209 15.7323 100.829 15.1539 100.46 14.3455H95.5817L95.6026 14.3037ZM118.485 12.2548C118.659 12.5266 118.788 12.8123 118.868 13.105C118.948 13.4082 118.987 13.6904 118.987 13.9622C118.987 14.3281 118.917 14.6695 118.795 14.9796C118.656 15.2932 118.447 15.565 118.21 15.795C117.966 16.025 117.687 16.2131 117.373 16.3525C117.049 16.4919 116.711 16.5477 116.339 16.5477C115.373 16.5477 114.649 16.14 114.15 15.3281L111.973 11.7043V13.8855C111.973 14.2688 111.903 14.6173 111.77 14.9413C111.631 15.2549 111.439 15.5337 111.213 15.7776C110.976 16.0215 110.704 16.2062 110.394 16.3351C110.081 16.4745 109.746 16.5442 109.377 16.5442C108.986 16.5442 108.603 16.4605 108.227 16.2933C107.868 16.1191 107.565 15.8995 107.321 15.5964C106.903 15.0737 106.694 14.3211 106.694 13.3454V3.46703C106.694 2.88861 106.763 2.42169 106.892 2.05931C107.018 1.70041 107.241 1.38681 107.554 1.11851C107.857 0.839752 108.171 0.658561 108.495 0.560996C108.826 0.466916 109.31 0.421618 109.952 0.421618H112.157C112.812 0.421618 113.307 0.439041 113.67 0.480854C114.018 0.515699 114.373 0.578419 114.722 0.655077C115.339 0.836268 115.907 1.0976 116.419 1.44953C116.941 1.83282 117.377 2.25095 117.743 2.73878C118.112 3.2266 118.398 3.76669 118.607 4.35905C118.816 4.9514 118.921 5.56467 118.921 6.2058C118.921 6.97238 118.781 7.66927 118.527 8.29647C118.259 8.92368 117.83 9.58572 117.217 10.2826L118.471 12.2687L118.485 12.2548ZM122.687 5.33469C122.224 5.33469 121.837 5.28243 121.523 5.16047C121.21 5.05594 120.938 4.88171 120.698 4.6378C120.175 4.11514 119.931 3.52278 119.931 2.89558C119.931 2.42866 120.053 1.98962 120.314 1.57149C120.579 1.15335 120.907 0.864143 121.29 0.686437C121.429 0.651592 121.569 0.581903 121.673 0.547059C121.785 0.512214 121.935 0.512214 122.126 0.47737C122.321 0.47737 122.579 0.442525 122.882 0.442525H130.827C130.931 0.442525 131.015 0.442525 131.071 0.459947L131.28 0.494792C131.914 0.581903 132.43 0.843237 132.834 1.29622C133.228 1.74919 133.426 2.27186 133.426 2.89906C133.426 3.24751 133.35 3.59595 133.196 3.93046C133.043 4.26497 132.841 4.55766 132.569 4.79112C132.151 5.17441 131.479 5.37302 130.534 5.37302H129.36V13.3176C129.36 13.7915 129.325 14.1887 129.255 14.4849C129.186 14.788 129.071 15.0772 128.897 15.3455C128.653 15.7288 128.339 16.025 127.966 16.2341C127.593 16.4431 127.175 16.5477 126.712 16.5477C126.259 16.5477 125.851 16.4536 125.475 16.2619C125.105 16.0703 124.788 15.7985 124.534 15.4466C124.36 15.1748 124.238 14.896 124.172 14.6103C124.102 14.3211 124.074 13.903 124.074 13.3559V5.34166H122.68L122.687 5.33469ZM141.793 11.4743C142.367 11.4743 142.81 11.5196 143.117 11.6067C143.43 11.6973 143.726 11.8506 143.998 12.0736C144.556 12.5719 144.834 13.1956 144.834 13.9448C144.834 14.3141 144.765 14.6695 144.608 15.011C144.458 15.3595 144.249 15.6382 143.981 15.8821C143.841 15.9867 143.716 16.0912 143.58 16.1609C143.441 16.2306 143.301 16.3003 143.138 16.3351C142.977 16.3699 142.789 16.4048 142.573 16.4222C142.364 16.4361 142.103 16.4466 141.799 16.4466H137.688C137.082 16.4466 136.649 16.4292 136.399 16.3978C136.141 16.363 135.9 16.3142 135.677 16.2341C134.82 15.8856 134.318 15.241 134.158 14.3176L134.109 14.0876L134.074 13.8089L134.064 13.3977V4.01757C134.064 3.68306 134.064 3.41128 134.074 3.20221L134.109 2.68651C134.134 2.54713 134.158 2.43563 134.189 2.33807L134.301 2.00356C134.419 1.68996 134.59 1.43211 134.824 1.20214C135.057 0.972161 135.311 0.808392 135.58 0.679468C135.726 0.609779 135.858 0.567965 135.963 0.54009C136.078 0.505245 136.207 0.480854 136.364 0.470401C136.521 0.459947 136.712 0.435556 136.935 0.435556C137.162 0.421618 137.468 0.414649 137.852 0.414649H141.928C142.148 0.414649 142.322 0.425103 142.451 0.439041L142.765 0.50873L143.026 0.564481C143.584 0.703859 144.036 0.982615 144.361 1.40075C144.685 1.81888 144.848 2.30671 144.848 2.86422C144.848 3.24751 144.779 3.61337 144.629 3.95485C144.479 4.29633 144.256 4.58205 143.984 4.80157C143.747 5.01064 143.476 5.15002 143.172 5.24758C142.859 5.33818 142.462 5.37999 141.967 5.37999H139.319V6.49501H141.409C142.071 6.49501 142.587 6.66924 142.97 7.01768C143.354 7.36613 143.545 7.8191 143.545 8.37662C143.545 9.00382 143.315 9.50906 142.848 9.89235C142.639 10.0422 142.43 10.1537 142.186 10.206C141.963 10.2617 141.639 10.2896 141.221 10.2896H139.329V11.4917H141.754L141.793 11.4743ZM157.399 12.2583C157.574 12.5371 157.703 12.8158 157.783 13.119C157.863 13.4186 157.905 13.7009 157.905 13.9726C157.905 14.342 157.835 14.6835 157.696 14.9936C157.563 15.3072 157.382 15.579 157.138 15.8089C156.894 16.0529 156.615 16.2271 156.302 16.3665C155.978 16.5058 155.64 16.5755 155.267 16.5755C154.305 16.5755 153.577 16.1574 153.082 15.356L150.901 11.7321V13.9064C150.901 14.2897 150.831 14.6382 150.692 14.9657C150.559 15.2793 150.378 15.5581 150.141 15.802C149.904 16.0459 149.629 16.2201 149.315 16.3595C149.002 16.4989 148.664 16.5686 148.298 16.5686C147.901 16.5686 147.517 16.478 147.148 16.3107C146.782 16.1365 146.479 15.9065 146.242 15.6034C145.824 15.0807 145.615 14.3281 145.615 13.3524V3.46703C145.615 2.88861 145.685 2.42169 145.81 2.05931C145.942 1.70041 146.159 1.38681 146.486 1.11851C146.8 0.839752 147.113 0.658561 147.437 0.560996C147.768 0.466916 148.253 0.421618 148.89 0.421618H151.086C151.748 0.421618 152.249 0.439041 152.601 0.480854C152.95 0.515699 153.309 0.578419 153.661 0.655077C154.288 0.836268 154.845 1.0976 155.351 1.44953C155.863 1.83282 156.302 2.25095 156.675 2.73878C157.037 3.2266 157.326 3.76669 157.532 4.35905C157.741 4.9514 157.845 5.56467 157.845 6.2058C157.845 6.97238 157.72 7.66927 157.455 8.29647C157.19 8.92368 156.758 9.58572 156.145 10.2826L157.389 12.2687" fill="#0087F7"/>
<path fill-rule="evenodd" clip-rule="evenodd" d="M29.0843 7.37665H28.4118C28.3282 6.79127 28.1679 6.22679 27.9588 5.69366L28.5442 5.34522C28.6766 5.27553 28.7289 5.10131 28.6592 4.99677L27.8647 3.60299C27.8194 3.48104 27.6557 3.44619 27.5163 3.53331L26.9239 3.86433C26.5755 3.43226 26.1573 3.01412 25.7044 2.66568L26.0458 2.07332C26.1155 1.93394 26.0877 1.77714 25.9692 1.70745L24.5893 0.923452C24.4709 0.853763 24.3106 0.909515 24.2409 1.03844L23.8925 1.6308C23.3628 1.42173 22.8018 1.26493 22.2199 1.17782V0.505318C22.2199 0.352003 22.1049 0.226562 21.969 0.226562H20.3871C20.2477 0.226562 20.1432 0.352003 20.1432 0.505318V1.18827C19.5508 1.2719 18.9933 1.42521 18.4602 1.64125L18.1118 1.04889C18.0421 0.916484 17.9027 0.864217 17.7633 0.930421L16.4009 1.72488C16.2824 1.79456 16.2511 1.95137 16.3242 2.08377L16.6657 2.67613C16.2127 3.03851 15.7946 3.44968 15.4357 3.90963L14.8433 3.56815C14.7179 3.46362 14.5541 3.49846 14.4879 3.63784L13.7213 4.99677C13.6517 5.10131 13.7074 5.27553 13.8398 5.34522L14.4252 5.69366C14.2161 6.21633 14.0628 6.77384 13.9722 7.3662H13.2753C13.1255 7.3662 12.9966 7.47073 12.9966 7.61011V9.19205C12.9966 9.33143 13.1255 9.43596 13.2753 9.43596H13.9513C14.0349 10.0283 14.1883 10.5858 14.4043 11.1224L13.8224 11.4709C13.683 11.5406 13.6342 11.6939 13.7039 11.8193L14.4949 13.1852C14.5646 13.3002 14.7284 13.3351 14.8573 13.2549L15.4392 12.9239C15.805 13.3838 16.2197 13.795 16.6762 14.1609L16.3417 14.7393C16.272 14.8787 16.2789 15.0285 16.4113 15.0982L17.7703 15.8892C17.8853 15.9589 18.049 15.9031 18.1187 15.7742L18.4497 15.1923C18.9794 15.4118 19.5439 15.5651 20.1327 15.6453V16.3073C20.1327 16.4676 20.2442 16.5861 20.3766 16.5861H21.976C22.1154 16.5861 22.2199 16.4676 22.2199 16.3073V15.6453C22.8123 15.5686 23.3802 15.4118 23.9168 15.1923L24.2479 15.7742C24.3245 15.8996 24.4813 15.9484 24.5963 15.8857L25.9692 15.0843C26.0911 15.0146 26.1225 14.8508 26.0458 14.7184L25.7148 14.1504C26.1678 13.7915 26.5859 13.3769 26.9483 12.9169L27.5302 13.2584C27.6626 13.3385 27.8264 13.3037 27.8926 13.1887L28.6871 11.8158C28.7568 11.7009 28.7045 11.5371 28.5721 11.4674L27.9902 11.1329C28.2062 10.6102 28.3595 10.0423 28.4431 9.45339H29.1156C29.255 9.45339 29.3944 9.34885 29.3944 9.20947V7.64147C29.3944 7.50209 29.255 7.39756 29.1156 7.39756L29.0843 7.37665ZM24.8124 9.59973L22.9412 9.6973L23.4221 11.5092L21.8541 10.4883L21.1746 12.2375L20.4951 10.4883L18.9271 11.5092L19.4045 9.6973L17.5333 9.59276L18.9864 8.40805L17.5333 7.23031L19.4045 7.12577L18.9236 5.31386L20.4916 6.33829L21.1711 4.58909L21.8331 6.33829L23.4011 5.31734L22.9133 7.12926L24.7775 7.23379L23.321 8.4185L24.774 9.60322L24.8124 9.59973Z" fill="black"/>
<path fill-rule="evenodd" clip-rule="evenodd" d="M45.2765 9.46091L44.6284 9.28669C44.6981 8.71524 44.6981 8.12985 44.6284 7.54446L45.2905 7.37024C45.4299 7.32843 45.5344 7.18905 45.4995 7.05664L45.0814 5.53045C45.0466 5.39804 44.9072 5.32138 44.7678 5.3632L44.1058 5.53742C43.8793 4.99384 43.5831 4.49208 43.2347 4.02865L43.7155 3.57567C43.82 3.47114 43.834 3.29692 43.7399 3.21329L42.6249 2.09827C42.5273 1.99373 42.3601 2.00767 42.252 2.11569L41.7782 2.59654C41.3112 2.2481 40.8025 1.95889 40.2694 1.72543L40.4436 1.06338C40.4854 0.910069 40.4088 0.763722 40.2833 0.728877L38.7362 0.296806C38.5969 0.261961 38.4575 0.356041 38.4226 0.505873L38.2484 1.16792C37.677 1.09823 37.0985 1.09823 36.5062 1.16792L36.332 0.505873C36.2971 0.356041 36.1577 0.261961 36.0184 0.296806L34.4852 0.71494C34.3528 0.749784 34.2761 0.896131 34.3179 1.04248L34.4922 1.70452C33.9521 1.9345 33.4468 2.22719 32.9869 2.57564L32.4991 2.07388C32.3945 1.96934 32.2203 1.95889 32.1297 2.05645L31.0147 3.17148C30.9102 3.26904 30.9241 3.43629 31.0321 3.54431L31.4851 4.02517C31.1366 4.49208 30.8405 5.00081 30.614 5.53393L29.9519 5.35971C29.8126 5.3179 29.6592 5.39456 29.6244 5.52L29.2132 7.05315C29.1784 7.15769 29.2655 7.29707 29.4118 7.36675L30.0739 7.54098C30.0042 8.09849 30.0042 8.69085 30.0739 9.2832L29.4223 9.45742C29.2829 9.49227 29.1888 9.63165 29.2237 9.73618L29.6418 11.2693C29.6767 11.4017 29.8265 11.4784 29.9728 11.4366L30.6244 11.2624C30.8579 11.8094 31.1471 12.3147 31.4955 12.7746L31.0356 13.2729C30.9241 13.3774 30.9136 13.5517 31.0112 13.6422L32.1262 14.7677C32.2238 14.8618 32.391 14.8514 32.4991 14.7433L32.9729 14.2694C33.4399 14.6179 33.9486 14.9141 34.4852 15.1475L34.311 15.7922C34.2761 15.9385 34.3458 16.0848 34.4782 16.1197L36.0114 16.5378C36.1368 16.5727 36.2762 16.503 36.3145 16.3288L36.4888 15.7016C37.0602 15.7712 37.6456 15.7712 38.238 15.7016L38.4122 16.3636C38.447 16.51 38.5864 16.6075 38.7153 16.5727L40.2485 16.1545C40.3774 16.1197 40.4506 15.9803 40.4123 15.827L40.2729 15.1859C40.8199 14.9524 41.3182 14.6562 41.7851 14.3147L42.2555 14.7782C42.3601 14.8827 42.5343 14.8967 42.6249 14.8026L43.7399 13.6736C43.8444 13.583 43.834 13.4158 43.726 13.3077L43.2486 12.8199C43.597 12.3565 43.8862 11.8443 44.1197 11.3112L44.7643 11.4854C44.9107 11.5202 45.057 11.4505 45.0919 11.3181L45.4891 9.78496C45.5239 9.64559 45.4333 9.50621 45.287 9.47136L45.2765 9.46091ZM40.4088 10.8198L38.6247 10.2449L38.4261 12.1091L37.3459 10.5934L36.0915 11.9871V10.1055L34.2622 10.4958L35.3598 8.98005L33.6524 8.21348L35.4295 7.63157L34.4887 6.00433L36.2658 6.58275L36.4679 4.71857L37.5724 6.21689L38.8268 4.82311L38.8373 6.70471L40.6701 6.32142L39.5725 7.81973L41.2799 8.58631L39.4924 9.16821L40.4332 10.792L40.4088 10.8198Z" fill="black"/>
</svg>
