<svg width="77" height="14" viewBox="0 0 77 14" fill="none" xmlns="http://www.w3.org/2000/svg">
<path fill-rule="evenodd" clip-rule="evenodd" d="M35.0365 6.87535C35.0365 6.07468 35.548 5.41855 36.3867 5.41855C37.1883 5.41855 37.7276 6.04806 37.7276 6.87535C37.7276 7.70284 37.1883 8.33215 36.3867 8.33215C35.548 8.33215 35.0365 7.67602 35.0365 6.87535ZM38.641 6.87533V4.59313H37.6721V5.14656C37.3368 4.708 36.8155 4.46171 36.2717 4.48473C35.0238 4.48473 34.04 5.48509 34.04 6.87533C34.04 8.26575 35.0182 9.26592 36.2717 9.26592C36.8185 9.28951 37.3424 9.04075 37.6777 8.59857V9.14991H38.6466L38.641 6.87533ZM71.3548 6.87535C71.3548 6.07468 71.8663 5.41855 72.705 5.41855C73.5066 5.41855 74.0459 6.04806 74.0459 6.87535C74.0459 7.70284 73.5066 8.33215 72.705 8.33215C71.8663 8.33215 71.3548 7.67412 71.3548 6.87535ZM76.0392 8.93297V9.00513H76.1042C76.1157 9.00855 76.128 9.00855 76.1395 9.00513C76.148 8.99925 76.153 8.98918 76.1525 8.97874C76.153 8.9681 76.148 8.95785 76.1395 8.95196C76.128 8.94854 76.1157 8.94854 76.1042 8.95196L76.0392 8.93297ZM76.1042 8.88389C76.1321 8.8818 76.1596 8.88978 76.1823 8.90652C76.2009 8.92173 76.2113 8.94513 76.2102 8.96928C76.2109 8.99001 76.2028 9.01036 76.1879 9.02443C76.171 9.04003 76.1492 9.04935 76.1263 9.05106L76.2121 9.15185H76.1451L76.0651 9.05106H76.0391V9.15185H75.9833V8.8856L76.1042 8.88389ZM76.0873 9.24497C76.1169 9.24554 76.1461 9.23965 76.1729 9.22786C76.1987 9.21664 76.222 9.20047 76.2419 9.18031C76.3278 9.09207 76.3278 8.94905 76.2419 8.86081C76.222 8.84065 76.1987 8.82448 76.1729 8.81326C76.1459 8.80166 76.1169 8.79595 76.0873 8.79633C76.0574 8.79576 76.0278 8.80166 76.0001 8.81326C75.8876 8.86233 75.8355 8.99526 75.8835 9.11032C75.8943 9.13638 75.9099 9.16015 75.9294 9.18031C75.9497 9.20085 75.9737 9.21702 76.0001 9.22786C76.0289 9.24022 76.06 9.24612 76.0912 9.24497H76.0873ZM76.0873 8.73148C76.1258 8.73148 76.1638 8.73908 76.1991 8.7543C76.2331 8.76913 76.264 8.79043 76.2902 8.81706C76.3163 8.8433 76.3369 8.8743 76.3514 8.90835C76.3817 8.97986 76.3817 9.06106 76.3514 9.13276C76.3369 9.167 76.3161 9.198 76.2902 9.22424C76.264 9.25049 76.2331 9.27198 76.1991 9.287C76.164 9.30222 76.1258 9.31001 76.0873 9.30963C75.9715 9.31115 75.866 9.24136 75.8197 9.13276C75.7898 9.06106 75.7898 8.98005 75.8197 8.90835C75.8487 8.83855 75.9036 8.78321 75.9722 8.7543C76.0098 8.73832 76.0503 8.73053 76.0912 8.73148H76.0873ZM74.9556 6.87534V2.76929H73.9866V5.15038C73.6515 4.70801 73.1274 4.45925 72.5807 4.48283C71.3327 4.48283 70.3489 5.4832 70.3489 6.87343C70.3489 8.26367 71.3272 9.26422 72.5807 9.26422C73.1274 9.28781 73.6515 9.03886 73.9866 8.59649V9.14802H74.9556V6.87534ZM50.6569 5.37092C51.2818 5.37092 51.6817 5.77031 51.7839 6.47588H49.476C49.5783 5.81785 49.9688 5.37092 50.6588 5.37092H50.6569ZM50.6755 4.48476C49.3737 4.48476 48.4586 5.45659 48.4586 6.87536C48.4586 8.32265 49.409 9.26596 50.7406 9.26596C51.4055 9.28973 52.0556 9.06227 52.5669 8.62694L52.0926 7.89303C51.7227 8.19542 51.2645 8.36278 50.7908 8.36848C50.1659 8.36848 49.5987 8.07351 49.4592 7.25382H52.7659C52.7752 7.1302 52.7845 7.00658 52.7845 6.87346C52.7845 5.45469 51.9178 4.48286 50.6699 4.48286L50.6755 4.48476ZM62.3663 6.87535C62.3663 6.07468 62.8778 5.41855 63.7165 5.41855C64.5181 5.41855 65.0574 6.04806 65.0574 6.87535C65.0574 7.70284 64.5181 8.33215 63.7165 8.33215C62.8778 8.33215 62.3663 7.67412 62.3663 6.87535ZM65.9702 6.87535V4.59316H65.0013V5.14659C64.6659 4.70423 64.142 4.45547 63.5953 4.47905C62.3474 4.47905 61.3635 5.47941 61.3635 6.86965C61.3635 8.25989 62.3418 9.26025 63.5953 9.26025C64.142 9.28383 64.6659 9.03507 65.0013 8.59271V9.14424H65.9702V6.87535ZM56.8983 6.87537C56.8983 8.2561 57.8394 9.26597 59.2732 9.26597C59.8546 9.29545 60.4259 9.10146 60.8745 8.72205L60.4096 7.92138C60.0746 8.18231 59.6664 8.32571 59.2453 8.33027C58.4717 8.33027 57.9045 7.74831 57.9045 6.87347C57.9045 5.99882 58.4735 5.42618 59.2453 5.41667C59.6664 5.42124 60.0746 5.56463 60.4096 5.82556L60.8745 5.02508C60.4259 4.64548 59.8546 4.45168 59.2732 4.48097C57.8394 4.48097 56.8983 5.49084 56.8983 6.87157V6.87537ZM69.3757 4.48467C68.8944 4.47021 68.4441 4.72658 68.2022 5.15221V4.59878H67.2425V9.15175H68.2115V6.5995C68.2115 5.83877 68.5276 5.42816 69.1618 5.42816C69.3692 5.42493 69.5753 5.46373 69.7681 5.54208L70.0657 4.60828C69.8442 4.52727 69.6108 4.48562 69.3757 4.48467ZM43.4286 4.96022C42.88 4.62702 42.2493 4.46194 41.6116 4.48476C40.4846 4.48476 39.7519 5.03819 39.7519 5.94156C39.7519 6.68518 40.2912 7.14162 41.288 7.28425L41.7437 7.35082C42.2737 7.42689 42.5266 7.56953 42.5266 7.82627C42.5266 8.1783 42.1733 8.37971 41.5112 8.37971C40.9771 8.39701 40.4528 8.22946 40.0234 7.90425L39.5826 8.67449C40.1469 9.07787 40.8229 9.28536 41.5112 9.26596C42.7963 9.26596 43.5421 8.64615 43.5421 7.78063C43.5421 6.97996 42.9544 6.56175 41.9873 6.41911L41.5317 6.35236C41.1132 6.2953 40.7766 6.20972 40.7766 5.90543C40.7766 5.57261 41.0928 5.37311 41.6247 5.37311C42.1121 5.38033 42.5895 5.5146 43.012 5.76279L43.4286 4.96022ZM55.9199 4.48467C55.4386 4.47021 54.9884 4.72658 54.7464 5.15221V4.59878H53.7868V9.15175H54.7557V6.5995C54.7557 5.83877 55.0719 5.42816 55.706 5.42816C55.9134 5.42493 56.1195 5.46373 56.3123 5.54208L56.6099 4.60828C56.3884 4.52727 56.1552 4.48562 55.9199 4.48467ZM47.6572 4.59898H46.0745V3.21844H45.0963V4.59898H44.1924V5.50425H45.0963V7.57915C45.0963 8.63657 45.4961 9.26607 46.6418 9.26607C47.0697 9.2674 47.4893 9.14568 47.8525 8.91423L47.5735 8.06602C47.3135 8.22444 47.0186 8.31287 46.7162 8.32276C46.2326 8.32276 46.0727 8.01847 46.0727 7.56203V5.50425H47.6553L47.6572 4.59898ZM33.1826 9.1519V6.29916C33.1826 5.22291 32.5112 4.49813 31.4307 4.48862C30.8039 4.44716 30.2047 4.75754 29.8666 5.2988C29.5585 4.77351 28.994 4.46256 28.3955 4.48862C27.875 4.46294 27.3799 4.72045 27.0937 5.16567V4.59512H26.1248V9.1519H27.103V6.62818C27.103 5.83701 27.5307 5.41861 28.1928 5.41861C28.8549 5.41861 29.1618 5.84652 29.1618 6.61867V9.1519H30.1344V6.62818C30.1344 5.83701 30.5808 5.41861 31.2243 5.41861C31.8677 5.41861 32.2025 5.84652 32.2025 6.61867V9.1519H33.1826Z" fill="black"/>
<mask id="mask0" mask-type="alpha" maskUnits="userSpaceOnUse" x="0" y="0" width="77" height="14">
<path fill-rule="evenodd" clip-rule="evenodd" d="M0 13.6962H76.375V0H0V13.6962Z" fill="white"/>
</mask>
<g mask="url(#mask0)">
<path fill-rule="evenodd" clip-rule="evenodd" d="M7.90277 12.2289H13.7611V1.46265H7.90277V12.2289Z" fill="#FF5F00"/>
<path fill-rule="evenodd" clip-rule="evenodd" d="M8.27483 6.84963C8.27315 4.74906 9.21625 2.7645 10.832 1.46745C7.92463 -0.869132 3.71559 -0.352976 1.43086 2.61996C-0.853876 5.59309 -0.349319 9.89712 2.55788 12.2337C4.98582 14.1848 8.40408 14.1848 10.832 12.2337C9.21569 10.9363 8.2726 8.95077 8.27483 6.84963Z" fill="#EB001B"/>
<path fill-rule="evenodd" clip-rule="evenodd" d="M21.6651 6.84876C21.6651 10.63 18.6673 13.6952 14.9697 13.6952C13.4689 13.6952 12.0118 13.1794 10.8319 12.2309C13.7391 9.89454 14.2439 5.59032 11.9589 2.61719C11.6296 2.18852 11.2511 1.8015 10.8319 1.46449C13.7387 -0.872474 17.9478 -0.357269 20.2333 2.61529C21.1611 3.82238 21.6655 5.31341 21.6651 6.84876Z" fill="#F79E1B"/>
<path fill-rule="evenodd" clip-rule="evenodd" d="M21.4506 11.3323V10.8218H21.393L21.3149 11.1865L21.2368 10.8218H21.168V11.3323H21.207V10.9494L21.2795 11.2809H21.3298L21.4023 10.9494V11.336L21.4506 11.3323ZM21.0218 11.333V10.91H21.1093V10.8258H20.8917V10.9137H20.9791V11.3367L21.0218 11.333Z" fill="#F79E1B"/>
</g>
</svg>
