<svg width="77" height="14" fill="none" xmlns="http://www.w3.org/2000/svg"><path fill-rule="evenodd" clip-rule="evenodd" d="M35.04 6.88c0-.8.5-1.46 1.35-1.46.8 0 1.34.63 1.34 1.46 0 .82-.54 1.45-1.34 1.45-.84 0-1.35-.65-1.35-1.45zm3.6 0V4.59h-.97v.56a1.67 1.67 0 0 0-1.4-.67c-1.25 0-2.23 1-2.23 2.4 0 1.39.98 2.39 2.23 2.39.55.02 1.07-.23 1.4-.67v.55h.98V6.88zm32.71 0c0-.8.52-1.46 1.36-1.46.8 0 1.34.63 1.34 1.46 0 .82-.54 1.45-1.34 1.45-.84 0-1.36-.66-1.36-1.45zm4.69 2.05v.08h.1l.01-.03-.01-.03h-.04l-.06-.02zm.06-.05c.03 0 .06.01.08.03.02.01.03.04.03.06 0 .02 0 .04-.02.05a.1.1 0 0 1-.06.03l.08.1h-.06l-.08-.1h-.03v.1h-.06V8.9h.12zm-.01.36a.2.2 0 0 0 .08-.01.22.22 0 0 0 .07-.05.23.23 0 0 0 0-.32.2.2 0 0 0-.15-.06L76 8.8a.23.23 0 0 0-.07.37l.07.05c.03.01.06.02.1.01h-.01zm0-.5a.28.28 0 0 1 .2.08.3.3 0 0 1-.1.47.29.29 0 0 1-.38-.38.29.29 0 0 1 .28-.18zm-1.13-1.86V2.77h-.97v2.38c-.34-.44-.86-.7-1.4-.67-1.26 0-2.24 1-2.24 2.4 0 1.38.98 2.38 2.23 2.38.55.03 1.07-.22 1.4-.66v.55h.98V6.88zm-24.3-1.5c.62 0 1.02.39 1.12 1.1h-2.3c.1-.66.49-1.1 1.18-1.1zm.02-.9c-1.3 0-2.22.98-2.22 2.4 0 1.44.95 2.39 2.28 2.39.67.02 1.32-.2 1.83-.64l-.48-.74c-.37.3-.83.47-1.3.48-.62 0-1.2-.3-1.33-1.12h3.3c.02-.12.02-.24.02-.38 0-1.42-.86-2.39-2.11-2.39zm11.69 2.4c0-.8.5-1.46 1.35-1.46.8 0 1.34.63 1.34 1.46 0 .82-.54 1.45-1.34 1.45-.84 0-1.35-.66-1.35-1.45zm3.6 0V4.59H65v.56c-.33-.45-.86-.7-1.4-.67-1.25 0-2.24 1-2.24 2.39 0 1.39.98 2.39 2.24 2.39.54.02 1.07-.22 1.4-.67v.55h.97V6.88zm-9.07 0c0 1.38.94 2.39 2.37 2.39a2.3 2.3 0 0 0 1.6-.55l-.46-.8c-.34.26-.74.4-1.16.41-.78 0-1.35-.58-1.35-1.46 0-.87.57-1.44 1.35-1.45.42 0 .82.14 1.16.4l.46-.8a2.3 2.3 0 0 0-1.6-.54c-1.43 0-2.37 1.01-2.37 2.4zm12.48-2.4a1.3 1.3 0 0 0-1.18.67V4.6h-.96v4.55h.97V6.6c0-.76.32-1.17.95-1.17.2 0 .42.03.6.11l.3-.93a2.03 2.03 0 0 0-.68-.13zm-25.95.48a3.27 3.27 0 0 0-1.82-.48c-1.13 0-1.86.56-1.86 1.46 0 .75.54 1.2 1.54 1.34l.45.07c.53.08.79.22.79.48 0 .35-.36.55-1.02.55a2.34 2.34 0 0 1-1.49-.48l-.44.77c.57.4 1.24.62 1.93.6 1.29 0 2.03-.62 2.03-1.49 0-.8-.59-1.22-1.55-1.36l-.46-.07c-.42-.05-.75-.14-.75-.44 0-.34.31-.54.84-.54.5.01.97.14 1.4.4l.4-.81zm12.49-.48a1.3 1.3 0 0 0-1.17.67V4.6h-.96v4.55h.97V6.6c0-.76.31-1.17.95-1.17.2 0 .41.03.6.11l.3-.93a2.03 2.03 0 0 0-.69-.13zm-8.26.12h-1.59V3.22h-.97V4.6h-.9v.9h.9v2.08c0 1.06.4 1.69 1.54 1.69.43 0 .85-.12 1.21-.36l-.28-.84c-.26.15-.55.24-.85.25-.49 0-.65-.3-.65-.76V5.5h1.59v-.9zM33.18 9.15V6.3c0-1.08-.67-1.8-1.75-1.81a1.71 1.71 0 0 0-1.56.8c-.31-.52-.88-.83-1.47-.8a1.46 1.46 0 0 0-1.3.68V4.6h-.98v4.55h.98V6.63c0-.8.43-1.21 1.1-1.21.65 0 .96.43.96 1.2v2.53h.97V6.63c0-.8.45-1.21 1.1-1.21.64 0 .97.43.97 1.2v2.53h.98z" fill="#000"/><mask id="a" maskUnits="userSpaceOnUse" x="0" y="0" width="77" height="14"><path fill-rule="evenodd" clip-rule="evenodd" d="M0 13.7h76.38V0H0v13.7z" fill="#fff"/></mask><g mask="url(#a)" fill-rule="evenodd" clip-rule="evenodd"><path d="M7.9 12.23h5.86V1.46H7.9v10.77z" fill="#FF5F00"/><path d="M8.27 6.85c0-2.1.95-4.09 2.56-5.38a6.6 6.6 0 0 0-9.4 1.15 6.95 6.95 0 0 0 1.13 9.61 6.58 6.58 0 0 0 8.27 0 6.9 6.9 0 0 1-2.56-5.38z" fill="#EB001B"/><path d="M21.67 6.85c0 3.78-3 6.85-6.7 6.85a6.6 6.6 0 0 1-4.14-1.47 6.95 6.95 0 0 0 0-10.77 6.6 6.6 0 0 1 9.4 1.16 6.95 6.95 0 0 1 1.44 4.23zM21.45 11.33v-.5h-.06l-.08.36-.07-.37h-.07v.51h.04v-.38l.07.33h.05l.07-.33v.39h.05zm-.43 0v-.42h.09v-.08h-.22v.08h.09v.43h.04z" fill="#F79E1B"/></g></svg>