<svg width="60" height="46" viewBox="0 0 60 46" fill="none" xmlns="http://www.w3.org/2000/svg">
<g clip-path="url(#clip0)">
<path d="M11.2882 45.1713V42.1631C11.3386 41.1605 10.6332 40.3081 9.62554 40.258C9.52476 40.258 9.47439 40.258 9.37361 40.258C8.71865 40.2078 8.06369 40.5588 7.6606 41.1103C7.30794 40.5588 6.70334 40.2078 6.04837 40.258C5.49416 40.2078 4.93995 40.5087 4.63766 40.9599V40.3583H3.63V45.1713H4.68804V42.5141C4.58728 41.9124 5.04072 41.3109 5.64531 41.2607C5.69569 41.2607 5.79646 41.2607 5.84684 41.2607C6.5522 41.2607 6.90485 41.7119 6.90485 42.5141V45.1713H7.9629V42.5141C7.86217 41.9124 8.31562 41.3109 8.92022 41.2607C8.97058 41.2607 9.07131 41.2607 9.12173 41.2607C9.82706 41.2607 10.1798 41.7119 10.1798 42.5141V45.1713H11.2882ZM26.9572 40.4084H25.2442V38.9545H24.1861V40.4084H23.2289V41.361H24.1861V43.5669C24.1861 44.6699 24.6396 45.3217 25.8488 45.3217C26.3022 45.3217 26.7557 45.1713 27.1588 44.9707L26.8565 44.0683C26.5542 44.2187 26.2519 44.319 25.9496 44.319C25.4458 44.319 25.2442 44.0182 25.2442 43.5168V41.3109H26.9572V40.4084ZM35.875 40.258C35.3711 40.258 34.8673 40.5087 34.6154 40.9599V40.3583H33.5573V45.1713H34.6154V42.464C34.6154 41.6618 34.9681 41.2106 35.623 41.2106C35.8246 41.2106 36.0765 41.2607 36.278 41.3109L36.5803 40.3081C36.3788 40.3081 36.1269 40.258 35.875 40.258ZM22.3724 40.7594C21.7678 40.4084 21.1128 40.258 20.4075 40.258C19.1983 40.258 18.3922 40.8597 18.3922 41.8122C18.3922 42.6144 18.9968 43.0656 20.0548 43.216L20.5586 43.2661C21.1128 43.3664 21.4151 43.5168 21.4151 43.7675C21.4151 44.1185 21.0121 44.3691 20.3067 44.3691C19.7525 44.3691 19.1479 44.2187 18.6945 43.8678L18.1906 44.6699C18.7952 45.071 19.5509 45.3217 20.2563 45.2715C21.667 45.2715 22.4731 44.6198 22.4731 43.7173C22.4731 42.8149 21.8182 42.4139 20.8105 42.2634L20.3067 42.2133C19.8532 42.1632 19.5006 42.0629 19.5006 41.762C19.5006 41.4613 19.8532 41.2106 20.4075 41.2106C20.9616 41.2106 21.4655 41.361 21.919 41.6116L22.3724 40.7594ZM50.4356 40.258C49.9317 40.258 49.4279 40.5087 49.176 40.9599V40.3583H48.1179V45.1713H49.176V42.464C49.176 41.6618 49.5287 41.2106 50.1837 41.2106C50.3852 41.2106 50.6371 41.2607 50.8386 41.3109L51.1409 40.3081C50.9394 40.3081 50.6875 40.258 50.4356 40.258ZM36.933 42.7648C36.8826 44.1185 37.9406 45.2214 39.2506 45.2715C39.3514 45.2715 39.4018 45.2715 39.5025 45.2715C40.1071 45.3217 40.7621 45.1211 41.2155 44.7201L40.7117 43.8678C40.359 44.1185 39.9056 44.2689 39.4521 44.319C38.5956 44.2689 37.991 43.5168 38.0414 42.6645C38.0918 41.9124 38.6964 41.3109 39.4521 41.2607C39.9056 41.2607 40.359 41.4111 40.7117 41.7119L41.2155 40.8597C40.7117 40.4585 40.1071 40.258 39.5025 40.3081C38.1422 40.2078 37.0338 41.2607 36.933 42.5643C36.933 42.6144 36.933 42.6645 36.933 42.7648ZM46.7577 42.7648V40.3583H45.6996V40.9599C45.3469 40.5087 44.7927 40.258 44.1881 40.258C42.7774 40.258 41.669 41.361 41.669 42.7648C41.669 44.1686 42.7774 45.2715 44.1881 45.2715C44.7927 45.2715 45.3469 45.0209 45.6996 44.5697V45.1713H46.7577V42.7648ZM42.8278 42.7648C42.8781 41.9626 43.5835 41.361 44.3896 41.4111C45.1957 41.4612 45.8003 42.1632 45.75 42.9653C45.6996 43.7173 45.095 44.319 44.2889 44.319C43.4827 44.319 42.8278 43.7173 42.8278 42.9152C42.8278 42.8651 42.8278 42.8149 42.8278 42.7648ZM30.1817 40.258C28.771 40.258 27.6626 41.4111 27.7129 42.8149C27.7634 44.2187 28.8718 45.3217 30.2825 45.2715C30.9878 45.3217 31.7436 45.071 32.2978 44.6198L31.794 43.8678C31.3909 44.1686 30.8871 44.3691 30.3832 44.3691C29.6779 44.4193 29.0229 43.9179 28.9221 43.216H32.4993C32.4993 43.0656 32.4993 42.9653 32.4993 42.8149C32.4993 41.2607 31.542 40.258 30.1817 40.258ZM30.1817 41.2106C30.8367 41.2106 31.3909 41.7119 31.3909 42.3637H28.8718C28.9221 41.7119 29.5267 41.1605 30.1817 41.2106ZM56.4311 42.7648V38.4531H55.4235V40.9599C55.0708 40.5087 54.5166 40.258 53.912 40.258C52.5013 40.258 51.3929 41.361 51.3929 42.7648C51.3929 44.1686 52.5013 45.2715 53.912 45.2715C54.5166 45.2715 55.0708 45.0209 55.4235 44.5697V45.1713H56.4311V42.7648ZM58.1945 44.4694C58.2449 44.4694 58.3456 44.4694 58.396 44.5195C58.4464 44.5195 58.4968 44.5697 58.5472 44.6198C58.5976 44.6699 58.648 44.7201 58.648 44.7702C58.6983 44.8705 58.6983 45.0209 58.648 45.1211C58.5976 45.1713 58.5976 45.2214 58.5472 45.2715C58.4968 45.3217 58.4464 45.3718 58.396 45.3718C58.3456 45.422 58.2953 45.422 58.1945 45.422C57.993 45.422 57.8418 45.3217 57.7411 45.1211C57.6907 45.0209 57.6907 44.8705 57.7411 44.7702C57.7915 44.7201 57.7915 44.6699 57.8418 44.6198C57.8922 44.5697 57.9426 44.5195 57.993 44.5195C58.0938 44.4694 58.1441 44.4694 58.1945 44.4694ZM58.1945 45.3217C58.2449 45.3217 58.2953 45.3217 58.3457 45.2715C58.396 45.2715 58.4464 45.2214 58.4464 45.1713C58.5976 45.0209 58.5976 44.8203 58.4464 44.6699C58.396 44.6198 58.396 44.6198 58.3457 44.5697C58.2953 44.5697 58.2449 44.5195 58.1945 44.5195C58.1441 44.5195 58.0938 44.5195 58.0434 44.5697C57.993 44.5697 57.9426 44.6198 57.9426 44.6699C57.7915 44.8203 57.7915 45.0209 57.9426 45.1713C57.993 45.2214 58.0434 45.2214 58.0434 45.2715C58.0938 45.3217 58.1441 45.3217 58.1945 45.3217ZM58.2449 44.7201C58.2953 44.7201 58.3456 44.7201 58.396 44.7702C58.4464 44.8203 58.4464 44.8203 58.4464 44.8705C58.4464 44.9206 58.4464 44.9206 58.396 44.9707C58.3456 45.0209 58.3457 45.0209 58.2953 45.0209L58.4464 45.1713H58.3457L58.1945 45.0209H58.1441V45.1713H58.0434V44.7201H58.2449ZM58.1441 44.8203V44.9206H58.2449H58.2953V44.8705V44.8203H58.2449H58.1441ZM52.602 42.7648C52.6524 41.9626 53.3577 41.361 54.1639 41.4111C54.97 41.4612 55.5746 42.1632 55.5242 42.9653C55.4738 43.7173 54.8692 44.319 54.0631 44.319C53.257 44.319 52.602 43.7173 52.602 42.9152C52.5516 42.8651 52.602 42.8149 52.602 42.7648ZM17.183 42.7648V40.3583H16.1249V40.9599C15.7722 40.5087 15.218 40.258 14.6134 40.258C13.2027 40.258 12.0943 41.361 12.0943 42.7648C12.0943 44.1686 13.2027 45.2715 14.6134 45.2715C15.218 45.2715 15.7722 45.0209 16.1249 44.5697V45.1713H17.183V42.7648ZM13.3035 42.7648C13.3539 41.9626 14.0592 41.361 14.8654 41.4111C15.6715 41.4612 16.2761 42.1632 16.2257 42.9653C16.1753 43.7173 15.5707 44.319 14.7646 44.319C13.9585 44.319 13.3035 43.7173 13.3035 42.9152C13.3035 42.8651 13.3035 42.8149 13.3035 42.7648Z" fill="#231F20"/>
<path d="M37.8902 3.85938H22.0197V32.2361H37.8902V3.85938Z" fill="#FF5F00"/>
<path d="M23.0264 18.0471C23.0264 12.5322 25.596 7.26794 29.9792 3.85875C22.0691 -2.30792 10.6827 -0.95426 4.48559 6.91701C-1.71148 14.7883 -0.351148 26.0688 7.55892 32.2355C14.1591 37.3994 23.3791 37.3994 29.9792 32.2355C25.596 28.8263 23.0264 23.6122 23.0264 18.0471Z" fill="#EB001B"/>
<path d="M59.303 18.0491C59.303 28.026 51.1914 36.0978 41.1652 36.0978C37.0842 36.0978 33.1544 34.7442 29.9802 32.2374C37.8399 26.0707 39.2003 14.7401 33.0032 6.91895C32.0963 5.76585 31.0887 4.76314 29.9299 3.8607C37.7896 -2.30597 49.2265 -0.952306 55.4235 6.91895C57.9427 10.0775 59.303 13.9881 59.303 18.0491Z" fill="#F79E1B"/>
<path d="M57.5905 29.2293V28.6276H57.8424V28.5273H57.2378V28.6276H57.4897V29.2293H57.5905ZM58.7493 29.2293V28.5273H58.5478L58.3462 29.0287L58.1447 28.5273H57.9935V29.2293H58.1447V28.7279L58.3462 29.1791H58.4973L58.6989 28.7279V29.2794L58.7493 29.2293Z" fill="#F79E1B"/>
</g>
<defs>
<clipPath id="clip0">
<rect width="59" height="46" fill="white" transform="translate(0.607422)"/>
</clipPath>
</defs>
</svg>
