<svg width="53" height="73" viewBox="0 0 53 73" fill="none" xmlns="http://www.w3.org/2000/svg">
<path d="M5.21204 0.194804C8.00004 0.147304 10.792 0.188207 13.5814 0.175012C24.916 0.173693 36.2507 0.176331 47.5854 0.172373C49.5027 0.120915 51.3494 1.42189 51.9894 3.20182C52.3014 3.94071 52.2774 4.7614 52.2774 5.54779C52.2734 19.0497 52.28 32.5529 52.2734 46.0547C52.308 48.4179 50.2307 50.5422 47.8534 50.6187C33.984 50.6213 20.116 50.6174 6.24804 50.6213C4.70004 50.719 3.10671 50.0197 2.18938 48.7728C1.60537 48.0392 1.34537 47.1076 1.24937 46.1946C1.24404 32.5568 1.25071 18.9204 1.24537 5.28258C1.19871 4.08453 1.50004 2.8205 2.28938 1.88369C3.00271 0.979873 4.08271 0.404596 5.21204 0.194804ZM25.36 5.82619C23.9054 6.10064 22.6467 6.94772 21.4907 7.82251C18.7467 10.0524 16.768 13.0528 15.2054 16.1733C13.1854 20.4258 11.8947 25.098 12.0467 29.8256C12.12 33.9528 13.5227 38.2093 16.504 41.182C18.3827 43.1427 20.9507 44.4067 23.6294 44.8593C26.4494 45.428 29.424 45.1997 32.1427 44.2761C34.2627 43.5399 36.1734 42.2402 37.6294 40.5487C39.256 38.6804 40.364 36.3964 40.94 34.0042C41.2667 32.921 41.304 31.7823 41.5014 30.674C41.552 29.6857 41.5427 28.6922 41.5067 27.7039C41.3027 26.4425 41.2694 25.1534 40.9614 23.9092C40.1254 19.8057 38.4654 15.8698 36.1307 12.3799C34.48 9.97188 32.4334 7.71168 29.7747 6.38036C28.4307 5.66918 26.8387 5.59661 25.36 5.82619Z" fill="#E30510"/>
<path d="M43.2291 55.8158C45.9691 55.2234 48.7891 55.4992 51.5491 55.7723C51.5451 57.13 51.4211 58.4811 51.3571 59.8375C50.3145 59.7966 49.2958 59.5248 48.2505 59.5578C47.1438 59.5525 45.9718 59.4443 44.9611 59.98C44.3331 60.393 44.0238 61.1569 44.0331 61.8866C44.0091 63.2073 44.0171 64.5281 44.0291 65.8476C44.0065 66.6894 44.4051 67.613 45.2198 67.9666C46.9771 68.5471 48.8438 68.1948 50.6451 68.1025C50.9651 68.113 51.4011 67.8835 51.6225 68.2067C51.7091 69.356 51.7718 70.5078 51.8718 71.6557C51.8665 71.8048 51.8478 71.9526 51.8131 72.1004C50.7985 72.1624 49.7811 72.2297 48.7718 72.3577C46.8198 72.4052 44.8345 72.4844 42.9278 71.9882C42.1878 71.7415 41.4358 71.4539 40.8411 70.9353C40.0265 70.2387 39.4878 69.2478 39.2905 68.2054C38.8625 66.5284 39.0505 64.7841 39.0091 63.0741C38.9771 61.3258 39.0398 59.4549 39.9891 57.9217C40.6958 56.783 41.9651 56.1536 43.2291 55.8158Z" fill="#E30510"/>
<path d="M2.04668 55.7356C3.56801 55.7343 5.08934 55.7356 6.61067 55.7356C8.05067 58.7954 9.34801 61.9211 10.808 64.9717C10.872 64.9809 11.0027 65.002 11.068 65.0113C12.0493 62.883 12.9227 60.7059 13.8667 58.5592C14.252 57.6131 14.7093 56.6948 15.0693 55.7382C16.6333 55.7382 18.1973 55.7197 19.7613 55.7488C19.7307 56.7449 19.9573 57.7227 19.944 58.7175C20.032 59.5949 20.024 60.4763 20.0973 61.3538C20.2107 62.0768 20.1133 62.8197 20.288 63.5361C20.4027 65.0786 20.4627 66.6263 20.56 68.1713C20.5387 68.7651 20.748 69.3364 20.7267 69.9301C20.7227 70.6704 20.8893 71.404 20.8293 72.1455C19.2053 72.1125 17.5787 72.1811 15.9573 72.1099C15.9267 70.6783 15.7947 69.2546 15.7467 67.8243C15.636 67.1356 15.7173 66.4297 15.5627 65.7488C15.476 65.262 15.5 64.7658 15.4733 64.2763C15.3907 64.2882 15.228 64.312 15.1453 64.3238C14.296 66.3861 13.412 68.4392 12.5413 70.4949C11.496 70.5147 10.4493 70.5054 9.40401 70.5001C9.04801 69.9499 8.83601 69.3298 8.53867 68.7506C7.90934 67.4351 7.28001 66.1196 6.66934 64.7962C6.56267 64.5376 6.39601 64.3093 6.22134 64.0942C5.97601 64.878 6.11601 65.7066 6.00267 66.5088C5.84267 67.3757 5.97601 68.265 5.80134 69.1306C5.78134 70.1333 5.68001 71.1295 5.64401 72.1323C4.09601 72.1574 2.54934 72.1178 1.00268 72.1534C0.944009 71.0569 1.14001 69.9684 1.13201 68.8733C1.26001 67.9523 1.19334 67.0168 1.36934 66.1024C1.38268 65.0007 1.53734 63.9108 1.55068 62.8104C1.66001 61.9502 1.58801 61.0767 1.73734 60.2217C1.79867 59.7744 1.76801 59.3231 1.80534 58.8758C1.97467 57.8361 1.90934 56.7779 2.04668 55.7356Z" fill="#E30510"/>
<path d="M22.4199 55.7353C27.4519 55.7406 32.4853 55.7234 37.5173 55.7432C37.5186 56.3845 37.3893 57.0165 37.3906 57.6591C37.4066 58.4006 37.1986 59.125 37.2199 59.8678C35.6293 59.9219 34.0333 59.8084 32.4453 59.9298C32.4386 63.999 32.4586 68.0668 32.4359 72.136C30.7826 72.1426 29.1279 72.1387 27.4746 72.1373C27.3466 71.405 27.5253 70.6675 27.4453 69.9339C27.3653 69.0986 27.5279 68.2634 27.4586 67.4282C27.3546 66.4611 27.5493 65.4926 27.4293 64.5255C27.4426 62.9804 27.5506 61.4274 27.4079 59.8863C25.8386 59.8665 24.2693 59.8863 22.6999 59.8757C22.5373 59.0656 22.6679 58.2317 22.4853 57.4255C22.4079 56.8661 22.4319 56.2987 22.4199 55.7353Z" fill="#E30510"/>
</svg>
