<svg width="59" height="84" viewBox="0 0 59 84" fill="none" xmlns="http://www.w3.org/2000/svg">
<path d="M21.0515 0.259268C21.1255 0.179316 21.2198 0.114075 21.3337 0.133264C33.2138 0.137102 39.4322 0.128147 51.3123 0.133264C51.3224 0.158848 55.208 0.15565 58.9146 0.133264C58.01 6.46815 58.5189 3.17763 57.916 7.89827C57.3131 12.6189 56.6314 15.9338 56.5845 16.3028C56.1738 16.7589 56.1335 16.8023 55.7082 17.2449C51.933 21.0628 48.1489 24.871 44.3781 28.6927C44.304 28.7944 44.1794 28.7989 44.0661 28.797C37.2504 28.7944 30.4348 28.7964 23.6191 28.7957C18.4787 28.7912 13.3377 28.806 8.19736 28.7887C8.19293 23.659 8.19863 18.5293 8.19483 13.3995C8.17648 13.1674 8.41951 13.049 8.54546 12.8891C12.7118 8.67661 16.8902 4.47625 21.0515 0.259268ZM14.0966 13.2882C14.1004 16.4697 14.0884 19.6511 14.1023 22.8326C16.263 22.8403 18.4243 22.8345 20.585 22.8358C21.3939 22.7757 22.2476 22.665 22.9242 22.1719C23.6033 21.7158 23.9552 20.8677 23.9128 20.0579C23.9413 19.4669 23.7577 18.8491 23.3362 18.4256C23.0995 18.1596 22.7704 18.0137 22.4736 17.8321C22.8666 17.5992 23.2299 17.2737 23.3938 16.833C23.5742 16.4409 23.5356 16.0002 23.5318 15.5806C23.5229 14.8201 23.0457 14.1121 22.3919 13.7558C21.7236 13.3874 20.9508 13.2959 20.2021 13.2607C18.3022 13.2582 16.4022 13.2633 14.5023 13.2588C14.3662 13.2582 14.2308 13.2697 14.0966 13.2882ZM25.0374 13.2697C25.0362 13.8613 25.0324 14.4523 25.0374 15.0433C26.526 15.051 28.0152 15.044 29.5038 15.0472C30.0247 15.0555 30.5569 15.1783 30.9892 15.484C31.5537 15.8659 31.9328 16.4857 32.0822 17.1502C30.0582 17.1745 28.0329 17.1458 26.0083 17.1637C25.9994 17.7515 26.0039 18.3393 26.0083 18.9265C28.0355 18.938 30.0626 18.9149 32.0898 18.9373C31.9797 19.3627 31.7999 19.7733 31.5215 20.1136C31.0892 20.6777 30.3911 20.9873 29.6981 21.0397C28.1456 21.0442 26.5931 21.0327 25.0406 21.0455C25.0324 21.6416 25.0317 22.2384 25.0406 22.8351C26.614 22.8371 28.1874 22.8358 29.7607 22.8364C30.7955 22.7987 31.8537 22.5153 32.6759 21.8559C33.6087 21.1306 34.1632 19.9895 34.3087 18.8222C34.4328 17.7771 34.3239 16.6801 33.8644 15.7245C33.6315 15.2058 33.26 14.7638 32.8531 14.3756C31.9797 13.5844 30.7835 13.2646 29.6316 13.2595C28.1 13.2678 26.5684 13.2467 25.0374 13.2697ZM35.4733 13.271C35.4612 16.4569 35.4625 19.6441 35.4733 22.83C37.1757 22.8441 38.8782 22.8319 40.5807 22.8364C41.0092 22.8313 41.4408 22.8614 41.8655 22.7865C42.6345 22.743 43.4136 22.4942 43.9996 21.9755C44.5047 21.4804 44.8078 20.773 44.8028 20.0605C44.8066 19.6351 44.8236 19.1964 44.6667 18.7921C44.4407 18.0591 43.8471 17.4643 43.1338 17.2104C42.3402 16.9117 41.4807 16.8931 40.644 16.9033C39.6023 16.8982 38.5605 16.9123 37.5194 16.8963C37.5181 16.2804 37.5131 15.6638 37.5219 15.0478C39.7693 15.0363 42.018 15.0645 44.2654 15.0338C44.299 14.4683 44.2857 13.901 44.2806 13.3349C44.2439 13.876 44.3053 14.421 44.2439 14.9615C44.2123 14.3961 44.242 13.8287 44.2237 13.2627C41.3066 13.2633 38.3896 13.2499 35.4733 13.271Z" fill="#0080BF"/>
<path d="M16.1706 15.0498C17.4934 15.0421 18.8155 15.0485 20.1382 15.0466C20.5857 15.0376 21.0673 15.2244 21.292 15.6363C21.4585 16.0098 21.492 16.4812 21.2534 16.8311C21.0173 17.1682 20.5914 17.2929 20.1996 17.2865C18.8566 17.2846 17.5136 17.2891 16.1706 17.284C16.1662 16.5388 16.1681 15.7943 16.1706 15.0498Z" fill="#0080BF"/>
<path d="M37.5242 18.6944C38.7969 18.6733 40.0703 18.6906 41.3437 18.6848C41.7703 18.6944 42.2595 18.816 42.4987 19.208C42.6696 19.4556 42.6646 19.7703 42.65 20.0594C42.6494 20.3664 42.462 20.6453 42.2247 20.8231C41.981 20.9734 41.6893 21.0341 41.407 21.0425C40.1121 21.0361 38.8172 21.0444 37.5229 21.0386C37.5172 20.257 37.5128 19.4754 37.5242 18.6944Z" fill="#0080BF"/>
<path d="M16.1727 18.7585C17.6012 18.7412 19.0296 18.7566 20.458 18.7508C20.8732 18.7515 21.3428 18.8628 21.5884 19.2325C21.808 19.5209 21.7795 19.9085 21.7371 20.2488C21.6162 20.7637 21.0789 21.0528 20.584 21.0477C19.1125 21.0483 17.6404 21.0598 16.1689 21.0419C16.1689 20.2808 16.1651 19.5197 16.1727 18.7585Z" fill="#0080BF"/>
<path d="M11.7004 26.3188C12.5696 26.2184 13.441 26.1409 14.317 26.134C23.6475 26.1363 32.9802 26.1363 42.3107 26.134C44.6044 26.1112 46.959 26.1933 49.1376 26.9964C52.1989 28.071 54.7657 30.5009 56.0345 33.5148C56.9036 35.502 57.152 37.706 57.17 39.8597C57.1678 48.9106 57.1745 57.9592 57.1745 67.01C57.1994 69.5699 57.2355 72.1959 56.4137 74.6531C55.3188 78.0458 52.6346 80.8726 49.3159 82.0955C47.5889 82.7686 45.7264 82.9625 43.891 83.0195C33.8787 83.015 23.8687 83.0241 13.8587 83.015C10.461 82.9807 6.9415 81.929 4.51462 79.4238C1.98389 76.9986 0.85059 73.4348 0.816727 69.9714C0.796409 60.8476 0.818986 51.7214 0.814471 42.5976C0.830273 40.5488 0.712879 38.484 1.09215 36.4603C1.56172 33.4418 3.19394 30.6195 5.60728 28.7715C7.35914 27.398 9.50609 26.5812 11.7004 26.3188ZM21.4463 42.2052C21.4373 44.4023 21.4667 46.6017 21.435 48.7988C18.1435 48.8193 14.8542 48.7965 11.5627 48.8102C11.5447 51.1191 11.5311 53.428 11.5763 55.7369C12.2851 55.7347 12.9963 55.7369 13.7074 55.7255C13.7751 56.6838 13.7616 57.6443 13.7571 58.6025C13.0279 58.6368 12.2987 58.6391 11.5695 58.6436C11.5469 60.948 11.5424 63.2546 11.5763 65.5612C17.2428 65.5589 22.9115 65.5635 28.578 65.5589C28.6096 64.6053 28.6051 63.6516 28.5938 62.6979C27.763 62.2211 27.0993 61.5229 26.4807 60.7974C26.3475 59.8756 26.0495 58.9174 26.3949 58.0025C26.6884 56.8709 27.623 56.0951 28.5825 55.5339C28.6276 52.5702 28.6073 49.6042 28.6005 46.6382C27.7765 46.6222 26.9525 46.6222 26.1308 46.6496C26.1285 47.4367 26.1285 48.2238 26.1217 49.011C25.2955 49.0247 24.4715 49.0247 23.6475 48.9996C23.6475 47.4801 23.6452 45.9583 23.652 44.4365C27.8646 44.3361 32.0795 44.4068 36.2943 44.3977C36.3214 45.9355 36.3146 47.4755 36.3011 49.0133C35.4771 49.0247 34.6531 49.0269 33.8291 48.9927C33.8313 48.2056 33.8313 47.4207 33.8223 46.6359C32.9983 46.6222 32.1765 46.6199 31.3548 46.661C31.3548 49.6156 31.3661 52.5679 31.357 55.5225C32.0546 56.0039 32.7974 56.5013 33.2082 57.277C34.0458 58.7257 33.7501 60.7609 32.4745 61.8515C32.1382 62.1891 31.6302 62.3671 31.3954 62.7892C31.3141 63.7063 31.3841 64.6326 31.3706 65.5544C34.4206 65.5681 37.4705 65.5589 40.5182 65.5612C42.4394 65.5407 44.5254 65.0159 45.8325 63.4964C46.9004 62.3123 47.1509 60.608 46.9794 59.0657C46.862 58.1417 46.2615 57.3911 45.6745 56.7157C46.7446 54.7513 46.5685 52.05 44.8843 50.4894C43.1844 48.8878 40.7146 48.7577 38.5158 48.7919C38.4909 46.5948 38.5338 44.3954 38.4977 42.196C32.8132 42.1938 27.1286 42.1801 21.4463 42.2052ZM28.4109 57.0694C27.474 57.3796 27.9933 58.9607 28.9324 58.5774C29.9415 58.3219 29.3681 56.6541 28.4109 57.0694Z" fill="#22AC45"/>
<path d="M13.7458 51.0509C15.3916 50.9664 17.0374 51.0029 18.6831 51.0143C18.717 52.7346 18.6899 54.4549 18.7102 56.1752C19.6178 56.1843 20.5276 56.1843 21.4374 56.1775C21.4554 54.4572 21.4306 52.7369 21.4622 51.0143C23.1102 51.0029 24.7605 50.9642 26.4085 51.0531C26.4108 51.8654 26.4108 52.6776 26.413 53.4921C25.6816 53.5081 24.9524 53.5218 24.2232 53.5537C24.2006 55.9744 24.2029 58.3974 24.2255 60.8181C24.9772 60.8227 25.729 60.8249 26.4808 60.7976C26.4063 61.644 26.4108 62.495 26.4085 63.3438C24.7582 63.4168 23.1034 63.3894 21.4509 63.3711C21.4238 61.7239 21.4487 60.0743 21.4374 58.4271C20.5276 58.4179 19.6178 58.4179 18.7102 58.4271C18.6989 60.0743 18.7215 61.7216 18.6944 63.3689C17.0419 63.3917 15.3871 63.4168 13.7368 63.3415C13.7368 62.5224 13.7368 61.7056 13.7368 60.8865C14.4683 60.8478 15.1997 60.8158 15.9334 60.793C15.9583 58.386 15.956 55.9767 15.9379 53.5697C15.2065 53.5286 14.475 53.5081 13.7413 53.4875C13.7436 52.6753 13.7436 51.8631 13.7458 51.0509Z" fill="#22AC45"/>
<path d="M33.5698 51.0256C35.5835 50.98 37.5995 51.0074 39.6133 51.0051C40.9023 51.0279 42.3856 51.304 43.1667 52.4539C44.0471 53.7795 43.7672 55.5956 42.7355 56.7523C43.2683 57.2018 43.862 57.6444 44.1374 58.3129C44.7921 59.8461 44.3068 61.888 42.8461 62.7664C41.8167 63.4258 40.5479 63.387 39.374 63.3893C37.437 63.3642 35.4977 63.4258 33.5585 63.3528C33.5517 62.5542 33.554 61.758 33.5653 60.9594C34.2854 60.9572 35.0056 60.9549 35.7258 60.9435C35.7235 58.4726 35.7416 56.0017 35.7258 53.5308C35.0033 53.5171 34.2832 53.5125 33.5608 53.5057C33.5585 52.6775 33.5585 51.8516 33.5698 51.0256ZM38.2655 53.5285C38.2158 54.3156 38.2136 55.1073 38.2587 55.8967C39.0557 55.8762 39.8864 56.0245 40.6608 55.7872C41.5232 55.4815 41.609 54.1285 40.803 53.7064C40.0038 53.3688 39.1076 53.549 38.2655 53.5285ZM38.2791 58.1942C38.27 59.1114 38.2723 60.0286 38.2768 60.9458C39.1482 60.9252 40.049 61.069 40.9046 60.8454C41.9815 60.4689 42.0244 58.7555 40.9633 58.3311C40.0987 58.0596 39.1685 58.2399 38.2791 58.1942Z" fill="#22AC45"/>
</svg>
