<svg width="19" height="36" viewBox="0 0 19 36" fill="none" xmlns="http://www.w3.org/2000/svg">
<path d="M4.59884 6.97202C4.59884 7.87923 4.59884 11.9285 4.59884 11.9285H0.866699V17.9893H4.59884V35.9998H12.2655V17.9898H17.4101C17.4101 17.9898 17.8919 15.0837 18.1255 11.9061C17.4559 11.9061 12.2945 11.9061 12.2945 11.9061C12.2945 11.9061 12.2945 8.38017 12.2945 7.76214C12.2945 7.14277 13.1303 6.30963 13.9565 6.30963C14.7811 6.30963 16.5216 6.30963 18.1336 6.30963C18.1336 5.48444 18.1336 2.63325 18.1336 2.165e-08C15.9816 2.165e-08 13.5334 2.165e-08 12.4542 2.165e-08C4.40934 -0.000418472 4.59884 6.0664 4.59884 6.97202Z" fill="black"/>
</svg>
