<svg width="32" height="33" viewBox="0 0 32 33" fill="none" xmlns="http://www.w3.org/2000/svg">
<path d="M21.8561 0.455566H10.0145C4.56537 0.455566 0.146484 4.87446 0.146484 10.3236V22.1652C0.146484 27.6143 4.56537 32.0332 10.0145 32.0332H21.8561C27.3052 32.0332 31.7241 27.6143 31.7241 22.1652V10.3236C31.7241 4.87446 27.3052 0.455566 21.8561 0.455566ZM28.7637 22.1652C28.7637 25.9742 25.6651 29.0728 21.8561 29.0728H10.0145C6.20544 29.0728 3.10688 25.9742 3.10688 22.1652V10.3236C3.10688 6.51452 6.20544 3.41597 10.0145 3.41597H21.8561C25.6651 3.41597 28.7637 6.51452 28.7637 10.3236V22.1652Z" fill="black"/>
<path d="M15.9354 8.3501C11.5757 8.3501 8.04102 11.8848 8.04102 16.2445C8.04102 20.6042 11.5757 24.1389 15.9354 24.1389C20.2951 24.1389 23.8298 20.6042 23.8298 16.2445C23.8298 11.8848 20.2951 8.3501 15.9354 8.3501ZM15.9354 21.1785C13.2158 21.1785 11.0014 18.9641 11.0014 16.2445C11.0014 13.5229 13.2158 11.3105 15.9354 11.3105C18.655 11.3105 20.8694 13.5229 20.8694 16.2445C20.8694 18.9641 18.655 21.1785 15.9354 21.1785Z" fill="black"/>
<path d="M24.422 8.80991C25.003 8.80991 25.474 8.33895 25.474 7.75798C25.474 7.17702 25.003 6.70605 24.422 6.70605C23.8411 6.70605 23.3701 7.17702 23.3701 7.75798C23.3701 8.33895 23.8411 8.80991 24.422 8.80991Z" fill="black"/>
</svg>
