<svg width="35" height="30" viewBox="0 0 35 30" fill="none" xmlns="http://www.w3.org/2000/svg">
<path d="M1.4491 14.6814L9.11682 17.5432L12.0847 27.0879C12.2746 27.6992 13.0221 27.9252 13.5183 27.5195L17.7924 24.0352C18.2404 23.6701 18.8786 23.6519 19.3468 23.9918L27.0557 29.5887C27.5865 29.9745 28.3385 29.6836 28.4716 29.0423L34.1188 1.87803C34.2641 1.17744 33.5757 0.592978 32.9086 0.850987L1.44012 12.9906C0.663538 13.2901 0.670305 14.3896 1.4491 14.6814ZM11.6064 16.0198L26.592 6.79018C26.8613 6.62479 27.1384 6.98896 26.9071 7.20348L14.5397 18.6996C14.105 19.1043 13.8245 19.6458 13.7451 20.2336L13.3238 23.3556C13.268 23.7725 12.6825 23.8139 12.5674 23.4104L10.9472 17.7173C10.7616 17.0679 11.032 16.3743 11.6064 16.0198Z" fill="black"/>
</svg>
