<svg width="33" height="28" viewBox="0 0 33 28" fill="none" xmlns="http://www.w3.org/2000/svg">
<path fill-rule="evenodd" clip-rule="evenodd" d="M21.5124 0.110101C18.9868 0.481565 16.7903 2.39275 15.9886 4.91644C15.8501 5.35229 15.793 5.78955 15.7536 6.7171C15.7034 7.90205 15.6949 7.9472 15.4944 8.09613C15.1781 8.33124 14.5502 8.36833 13.5876 8.20871C9.72479 7.56825 6.15537 5.74711 3.16365 2.89037C2.29953 2.06512 1.84406 1.94991 1.35916 2.4337C1.04406 2.7481 0.912756 3.15928 0.828931 4.09407C0.666227 5.90879 1.21517 7.72072 2.33975 9.08108C3.00985 9.89161 3.11511 10.1628 2.79844 10.2631C2.61199 10.3221 1.6178 10.0456 1.13761 9.80123C0.968886 9.71537 0.80544 9.64506 0.774449 9.64506C0.674058 9.64506 0.820524 10.9095 0.993942 11.54C1.36081 12.8734 2.23713 14.1773 3.37935 15.0895C3.58335 15.2523 4.10262 15.576 4.53328 15.8087C5.3618 16.2563 5.59201 16.4287 5.4931 16.5273C5.45972 16.5606 5.01686 16.6077 4.50897 16.6321L3.58541 16.6763L3.55945 17.0379C3.52327 17.5431 3.89063 18.2508 4.57861 19.0012C5.41092 19.9091 6.46116 20.5912 7.58294 20.9523C8.83141 21.3543 8.95084 21.7714 7.985 22.3567C6.08968 23.5055 3.96176 24.0961 1.4218 24.1786C0.63977 24.204 0 24.2549 0 24.2918C0 24.4318 0.476324 24.791 1.0715 25.1002C2.63779 25.9136 4.65238 26.5866 6.51144 26.9175C7.94528 27.1728 11.0376 27.2373 12.5283 27.0432C15.2144 26.6934 17.6078 25.9142 19.799 24.6761C23.982 22.3126 27.5116 17.6101 28.7985 12.6856C29.1958 11.1658 29.3333 10.2937 29.4519 8.5416L29.5534 7.04201L29.8221 6.70369C29.9698 6.51759 30.3562 6.11997 30.6808 5.82014C31.6699 4.9064 32.0627 4.41455 32.0627 4.0893C32.0627 3.81586 32.0519 3.80624 31.7461 3.80624C31.5719 3.80624 31.2474 3.86134 31.0249 3.92869C30.8023 3.99604 30.4626 4.05155 30.27 4.05204C29.7847 4.05328 29.8062 3.8717 30.3651 3.2467C31.0156 2.51923 31.3327 2.02515 31.3814 1.66306C31.42 1.37614 31.4024 1.33469 31.2106 1.26199C30.9819 1.17523 30.8207 1.21356 29.6724 1.62778C29.1414 1.81931 28.967 1.84481 28.436 1.8087C27.7014 1.75879 26.9782 1.50303 26.0744 0.973753C24.7396 0.191927 23.0851 -0.121231 21.5124 0.110101Z" fill="black"/>
</svg>
