<svg width="73" height="17" viewBox="0 0 73 17" fill="none" xmlns="http://www.w3.org/2000/svg">
<path fill-rule="evenodd" clip-rule="evenodd" d="M23.88 1.27827C19.2792 2.89675 17.14 7.96073 19.2163 12.3188C19.8472 13.6427 21.336 15.1673 22.6812 15.8668C25.2354 17.1948 28.4329 17.1117 30.7168 15.6579C31.4158 15.2131 32.9707 13.7493 32.846 13.6537C32.8093 13.6255 32.3543 13.2776 31.8351 12.8806L30.8908 12.1586L30.1192 12.845C27.9413 14.7825 24.7013 14.686 22.7288 12.6249C21.3877 11.2234 20.9524 8.98206 21.6215 6.92302C22.0366 5.64609 23.0657 4.43212 24.2609 3.80974C24.9577 3.44686 25.1932 3.40689 26.6401 3.40598C28.023 3.40508 28.3554 3.45542 29.032 3.76872L29.8179 4.1325V5.45917V6.78583H31.1087H32.3995V4.82912V2.8724L31.4843 2.28713C29.9884 1.33056 28.9656 1.04672 26.7806 0.981957C25.0883 0.931919 24.7736 0.964075 23.88 1.27827ZM0.508301 2.49404V3.76932L1.90711 3.81244L3.30607 3.85572L4.17458 6.25991C4.65234 7.58222 5.69169 10.456 6.48442 12.646L7.9256 16.628H9.17528H10.4248L12.8481 10.2043L15.2714 3.78059H16.546H17.8207V2.50336V1.22613H15.5585H13.2964L12.6962 2.91658C12.3661 3.8464 11.4929 6.34812 10.7557 8.47628C10.0186 10.6043 9.37604 12.3452 9.3279 12.3448C9.27976 12.3445 8.378 9.85944 7.32392 6.82264L5.4074 1.30126L2.95785 1.25994L0.508301 1.21862V2.49404ZM49.1384 1.53597C47.9304 1.77158 46.1337 3.0132 45.5773 3.99681C45.285 4.51372 45.156 4.17157 45.156 2.87902V1.52666H42.7262H40.2964V2.65362V3.78059H41.5873H42.8781V8.96463V14.1487H41.5873H40.2964V15.3508V16.5529H46.2191H52.1418V15.3538V14.1545L48.8387 14.1141L45.5357 14.0735L45.4944 11.16C45.4478 7.87117 45.6037 6.91716 46.3846 5.71296C47.1013 4.60793 48.4364 3.78059 49.5033 3.78059C49.8507 3.78059 49.8638 3.82161 49.8638 4.90755V6.03452H51.1546H52.4455V3.70546V1.37639L51.1167 1.39292C50.3859 1.40194 49.4955 1.46625 49.1384 1.53597ZM55.3628 2.76632L55.4068 4.00598L56.5837 4.04986L57.7607 4.09373L57.7625 8.18206C57.7645 12.5915 57.8535 13.2842 58.5744 14.5015C59.4827 16.0349 60.9308 16.8686 62.8683 16.973C64.8481 17.0797 66.3324 16.4181 67.365 14.9688C67.925 14.1825 68.0268 14.263 68.1724 15.6089L68.2746 16.5529H70.3829H72.4914V15.3508V14.1487H71.5242H70.557L70.4628 13.5852C70.411 13.2753 70.3679 10.4352 70.367 7.27418L70.3653 1.52666H67.6257H64.8859L64.9301 2.76632L64.9742 4.00598L66.3127 4.04956L67.6512 4.09313L67.6035 7.73098C67.5496 11.8436 67.4656 12.2094 66.3133 13.3496C64.292 15.3496 61.3427 14.8361 60.6485 12.3633C60.56 12.048 60.4956 9.65719 60.4951 6.67313L60.4942 1.52666H57.9065H55.3186L55.3628 2.76632ZM34.9812 15.3508V16.7031H36.2721H37.5629V15.3508V13.9984H36.2721H34.9812V15.3508Z" fill="black"/>
</svg>
