<svg width="39" height="23" viewBox="0 0 39 23" fill="none" xmlns="http://www.w3.org/2000/svg">
<path d="M38.6524 20.2216C38.5476 20.0461 37.8992 18.6371 34.7789 15.7411C31.5125 12.7086 31.9512 13.2011 35.8857 7.95761C38.2819 4.76425 39.2399 2.8141 38.9401 1.98042C38.6549 1.18573 36.8924 1.39537 36.8924 1.39537L31.0322 1.4295C31.0322 1.4295 30.5983 1.371 30.2741 1.56357C29.9596 1.75371 29.7573 2.1925 29.7573 2.1925C29.7573 2.1925 28.8286 4.6643 27.5902 6.76558C24.9795 11.1997 23.9337 11.4337 23.5071 11.1583C22.515 10.5172 22.7636 8.57922 22.7636 7.20437C22.7636 2.90674 23.4145 1.11504 21.4936 0.651881C20.8549 0.498307 20.3869 0.395925 18.7561 0.378861C16.6645 0.356922 14.8923 0.386174 13.8905 0.876148C13.2225 1.2028 12.7082 1.93166 13.0226 1.9731C13.4102 2.0243 14.2878 2.20956 14.7534 2.84336C15.3555 3.65998 15.3336 5.49799 15.3336 5.49799C15.3336 5.49799 15.6797 10.5562 14.5267 11.1851C13.7344 11.6166 12.6497 10.7366 10.3217 6.71195C9.12966 4.65211 8.22772 2.37288 8.22772 2.37288C8.22772 2.37288 8.05464 1.94873 7.74506 1.72202C7.36965 1.44657 6.84312 1.35881 6.84312 1.35881L1.27058 1.39294C1.27058 1.39294 0.434452 1.41731 0.127304 1.78053C-0.145717 2.10474 0.105365 2.77266 0.105365 2.77266C0.105365 2.77266 4.46881 12.9792 9.40756 18.1252C13.9392 22.8421 19.0827 22.5325 19.0827 22.5325H21.4131C21.4131 22.5325 22.1176 22.4545 22.476 22.0669C22.8075 21.711 22.7953 21.0431 22.7953 21.0431C22.7953 21.0431 22.749 17.9155 24.2018 17.4548C25.6328 17.0014 27.4708 20.4775 29.4185 21.8158C30.8908 22.8275 32.0097 22.6056 32.0097 22.6056L37.2191 22.5325C37.2191 22.5325 39.9444 22.3643 38.6524 20.2216Z" fill="black"/>
</svg>
