<svg width="27" height="32" viewBox="0 0 27 32" fill="none" xmlns="http://www.w3.org/2000/svg">
<path d="M22.8897 23.0041H21.1568L21.1649 22.0214C21.1649 21.5847 21.5322 21.2275 21.981 21.2275H22.0915C22.5413 21.2275 22.9097 21.5847 22.9097 22.0214L22.8897 23.0041ZM16.3896 20.8983C15.95 20.8983 15.5904 21.1867 15.5904 21.5398V26.3189C15.5904 26.6713 15.95 26.959 16.3896 26.959C16.831 26.959 17.191 26.6713 17.191 26.3189V21.5398C17.191 21.1864 16.831 20.8983 16.3896 20.8983ZM26.946 18.225V27.3166C26.946 29.4973 25.0089 31.2818 22.6409 31.2818H4.93678C2.56811 31.2818 0.631348 29.4973 0.631348 27.3166V18.225C0.631348 16.0443 2.56811 14.2595 4.93678 14.2595H22.6409C25.0089 14.2595 26.946 16.0443 26.946 18.225ZM6.11778 28.3037L6.11638 18.7268L8.31102 18.7275V17.3085L2.46074 17.2999V18.695L4.28698 18.7001V28.3037H6.11778ZM12.6964 20.1534H10.8667V25.2674C10.8667 26.0072 10.9127 26.3771 10.8639 26.5076C10.7151 26.9042 10.0464 27.3255 9.78569 26.5504C9.74149 26.4148 9.78043 26.0055 9.77973 25.3026L9.77236 20.1534H7.95279L7.9584 25.2218C7.95981 25.9986 7.94051 26.5778 7.96472 26.8415C8.00928 27.3063 7.99349 27.8482 8.43523 28.1578C9.25835 28.7366 10.8362 28.0715 11.2309 27.244L11.2274 28.2999L12.6968 28.3016L12.6964 20.1534ZM18.5499 26.0096L18.546 21.7532C18.5446 20.1311 17.3015 19.1597 15.6142 20.4722L15.6216 17.3078L13.7939 17.3105L13.7852 28.2331L15.2883 28.2119L15.4251 27.5317C17.3454 29.2514 18.5527 28.0728 18.5499 26.0096ZM24.2763 25.4455L22.9044 25.4527C22.9037 25.5057 22.9016 25.5671 22.9009 25.6338V26.3812C22.9009 26.7812 22.5623 27.107 22.1511 27.107H21.8824C21.4705 27.107 21.1319 26.7812 21.1319 26.3812V26.2983V25.4763V24.4155H24.2735V23.2613C24.2735 22.4177 24.2514 21.5744 24.1798 21.0922C23.9549 19.5666 21.7613 19.3245 20.6533 20.1054C20.3056 20.3493 20.04 20.6757 19.8856 21.1141C19.7298 21.5529 19.6523 22.1522 19.6523 22.9136V25.4516C19.653 29.6706 24.9026 29.0743 24.2763 25.4455ZM17.2387 11.667C17.3331 11.891 17.4798 12.0726 17.6787 12.2096C17.8752 12.3445 18.1264 12.4123 18.4274 12.4123C18.6913 12.4123 18.925 12.3428 19.1285 12.1993C19.3313 12.0565 19.5021 11.8431 19.6418 11.5585L19.607 12.2592H21.6466V3.79209H20.041V10.3819C20.041 10.7388 19.74 11.031 19.372 11.031C19.006 11.031 18.7039 10.7388 18.7039 10.3819V3.79209H17.0282V9.50307C17.0282 10.2306 17.0419 10.7155 17.064 10.9615C17.0868 11.2057 17.1443 11.44 17.2387 11.667ZM11.0579 6.88494C11.0579 6.07216 11.1274 5.4375 11.2653 4.9799C11.4042 4.52403 11.6537 4.15754 12.0151 3.88114C12.3754 3.60336 12.8368 3.46431 13.3978 3.46431C13.8697 3.46431 14.2739 3.55473 14.6115 3.7318C14.9507 3.90991 15.2125 4.1411 15.3939 4.42641C15.5788 4.71275 15.7044 5.00696 15.7714 5.30803C15.8398 5.6132 15.8735 6.07353 15.8735 6.6945V8.83586C15.8735 9.62123 15.8412 10.199 15.7784 10.5659C15.7163 10.9337 15.583 11.2749 15.3763 11.5948C15.1728 11.9112 14.91 12.1479 14.5915 12.299C14.2694 12.4514 13.901 12.526 13.4848 12.526C13.0199 12.526 12.6284 12.4634 12.3056 12.3325C11.9817 12.2024 11.7316 12.0061 11.5533 11.7455C11.3733 11.4845 11.2467 11.1666 11.1702 10.796C11.0934 10.4258 11.0569 9.86887 11.0569 9.12665L11.0579 6.88494ZM12.6554 10.2484C12.6554 10.7279 13.021 11.1194 13.4662 11.1194C13.9118 11.1194 14.276 10.7279 14.276 10.2484V5.74096C14.276 5.26213 13.9118 4.87064 13.4662 4.87064C13.021 4.87064 12.6554 5.26213 12.6554 5.74096V10.2484ZM7.01072 12.5243H8.93485L8.93696 6.03038L11.2105 0.467357H9.10607L7.89735 4.59938L6.67144 0.456055H4.58872L7.00757 6.03346L7.01072 12.5243Z" fill="black"/>
</svg>
