<svg width="32" height="32" viewBox="0 0 32 32" fill="none" xmlns="http://www.w3.org/2000/svg">
<path fill-rule="evenodd" clip-rule="evenodd" d="M14.7727 0.20647C14.7492 0.229935 14.4694 0.273754 14.1508 0.303879C13.8323 0.334067 13.4037 0.388031 13.1983 0.423821C12.9929 0.459672 12.7128 0.504798 12.5759 0.524093C12.4389 0.543326 12.3003 0.584282 12.2678 0.614967C12.2352 0.645715 12.1298 0.670861 12.0335 0.670861C11.9372 0.670861 11.8097 0.695447 11.7503 0.725448C11.5687 0.817193 11.2054 0.919831 11.0621 0.919831C10.9875 0.919831 10.9265 0.94784 10.9265 0.982074C10.9265 1.01631 10.8581 1.04432 10.7745 1.04432C10.6909 1.04432 10.6087 1.06679 10.5917 1.09423C10.5748 1.12168 10.4191 1.18274 10.2457 1.22999C10.0725 1.27717 9.9306 1.33872 9.9306 1.36679C9.9306 1.3948 9.88821 1.41777 9.83637 1.41777C9.78458 1.41777 9.69352 1.4446 9.63408 1.47746C9.57464 1.51026 9.25995 1.66419 8.93474 1.81955C8.26968 2.13729 7.97976 2.29832 7.94927 2.36697C7.93781 2.39268 7.88765 2.41365 7.83773 2.41365C7.78781 2.41365 7.68679 2.46967 7.61335 2.53814C7.53984 2.6066 7.44299 2.66262 7.39805 2.66262C7.35318 2.66262 7.31645 2.68721 7.31645 2.71733C7.31645 2.7474 7.23243 2.80684 7.12973 2.84935C7.02703 2.89186 6.943 2.94657 6.943 2.97085C6.943 2.99518 6.86601 3.05481 6.77184 3.10336C6.67767 3.15191 6.53638 3.25473 6.45783 3.33173C6.37922 3.40878 6.28916 3.47177 6.2576 3.47177C6.22604 3.47177 6.10828 3.56283 5.99587 3.67406C5.88353 3.78529 5.66581 3.97438 5.51207 4.0942C5.14186 4.38282 4.14979 5.37571 3.95734 5.65026C3.87331 5.77008 3.72648 5.94237 3.63107 6.03312C3.53559 6.12386 3.45748 6.22893 3.45748 6.26652C3.45748 6.30418 3.42947 6.33493 3.39523 6.33493C3.361 6.33493 3.33299 6.36667 3.33299 6.40545C3.33299 6.44423 3.28376 6.52122 3.22363 6.57662C3.16351 6.63195 3.07475 6.75426 3.02639 6.84843C2.97809 6.94254 2.91523 7.0196 2.88678 7.0196C2.85834 7.0196 2.83506 7.06161 2.83506 7.11296C2.83506 7.16431 2.80705 7.20632 2.77282 7.20632C2.73858 7.20632 2.71058 7.24834 2.71058 7.29969C2.71058 7.35104 2.68257 7.39305 2.64833 7.39305C2.6141 7.39305 2.58609 7.42977 2.58609 7.47465C2.58609 7.51959 2.53008 7.61644 2.46161 7.68995C2.39314 7.76339 2.33713 7.86672 2.33713 7.9195C2.33713 7.97228 2.31615 8.01573 2.29045 8.01597C2.26474 8.01622 2.21295 8.07927 2.17524 8.15602C1.99131 8.53059 1.80334 8.85787 1.76139 8.87648C1.73575 8.88793 1.71471 8.95092 1.71471 9.01652C1.71471 9.08213 1.6867 9.13584 1.65247 9.13584C1.61824 9.13584 1.59023 9.17823 1.59023 9.23008C1.59023 9.28186 1.56222 9.37989 1.52799 9.44793C1.49375 9.51589 1.43774 9.62718 1.4035 9.69515C1.36927 9.76318 1.34126 9.86122 1.34126 9.913C1.34126 9.96485 1.31325 10.0072 1.27902 10.0072C1.24479 10.0072 1.21678 10.0756 1.21678 10.1592C1.21678 10.2428 1.18877 10.3284 1.15454 10.3496C1.1203 10.3707 1.09229 10.4424 1.09229 10.5088C1.09229 10.5753 1.06429 10.6297 1.03005 10.6297C0.99582 10.6297 0.967812 10.7137 0.967812 10.8164C0.967812 10.9191 0.939803 11.0031 0.90557 11.0031C0.871337 11.0031 0.843328 11.0855 0.843328 11.1862C0.843328 11.2869 0.81532 11.3865 0.781087 11.4077C0.746854 11.4289 0.718845 11.5269 0.718845 11.6255C0.718845 11.7242 0.690837 11.8222 0.656604 11.8434C0.622371 11.8646 0.594362 11.9766 0.594362 12.0924C0.594362 12.2081 0.566353 12.3202 0.53212 12.3413C0.497888 12.3625 0.469879 12.4885 0.469879 12.6214C0.469879 12.7543 0.44187 12.8804 0.407637 12.9015C0.373404 12.9227 0.345396 13.0727 0.345396 13.2351C0.345396 13.3974 0.319441 13.5568 0.287698 13.5893C0.145911 13.7345 0.0924458 16.8036 0.214004 17.8187C0.250913 18.1268 0.298154 18.5399 0.319005 18.7367C0.339856 18.9336 0.382305 19.0946 0.413426 19.0946C0.444484 19.0946 0.469879 19.219 0.469879 19.3711C0.469879 19.5231 0.497888 19.6648 0.53212 19.6859C0.566353 19.7071 0.594362 19.8191 0.594362 19.9349C0.594362 20.0507 0.622371 20.1627 0.656604 20.1839C0.690837 20.205 0.718845 20.3047 0.718845 20.4054C0.718845 20.5061 0.746854 20.5885 0.781087 20.5885C0.81532 20.5885 0.843328 20.6725 0.843328 20.7752C0.843328 20.8779 0.871337 20.9619 0.90557 20.9619C0.939803 20.9619 0.967812 21.0459 0.967812 21.1486C0.967812 21.2513 0.99582 21.3354 1.03005 21.3354C1.06429 21.3354 1.09229 21.4194 1.09229 21.5221C1.09229 21.6248 1.1203 21.7088 1.15454 21.7088C1.18877 21.7088 1.21678 21.7648 1.21678 21.8333C1.21678 21.9018 1.24479 21.9578 1.27902 21.9578C1.31325 21.9578 1.34126 22.0261 1.34126 22.1097C1.34126 22.1933 1.36927 22.279 1.4035 22.3001C1.43774 22.3213 1.46574 22.3929 1.46574 22.4594C1.46574 22.5259 1.49375 22.5802 1.52799 22.5802C1.56222 22.5802 1.59023 22.6362 1.59023 22.7047C1.59023 22.7732 1.61824 22.8292 1.65247 22.8292C1.6867 22.8292 1.71471 22.8852 1.71471 22.9537C1.71471 23.0221 1.74272 23.0782 1.77695 23.0782C1.81119 23.0782 1.83919 23.1342 1.83919 23.2026C1.83919 23.2711 1.8672 23.3271 1.90144 23.3271C1.93567 23.3271 1.96368 23.3808 1.96368 23.4465C1.96368 23.5121 1.98471 23.575 2.01036 23.5865C2.0688 23.6125 2.2709 23.944 2.31708 24.0896C2.33613 24.1495 2.3764 24.1985 2.40665 24.1985C2.43684 24.1985 2.46161 24.2484 2.46161 24.3093C2.46161 24.3702 2.51763 24.4604 2.58609 24.5097C2.65456 24.5591 2.71058 24.6431 2.71058 24.6965C2.71058 24.7498 2.76659 24.8338 2.83506 24.8832C2.90353 24.9326 2.9596 25.0018 2.95967 25.037C2.95979 25.0722 3.04376 25.1991 3.14627 25.3189C3.24878 25.4387 3.33274 25.5605 3.33287 25.5896C3.33293 25.6187 3.41111 25.7167 3.50658 25.8074C3.602 25.8982 3.74889 26.0705 3.83292 26.1903C4.03109 26.4729 5.4156 27.8574 5.69817 28.0556C5.81799 28.1396 5.99027 28.2865 6.08102 28.3819C6.17177 28.4774 6.2698 28.5556 6.29887 28.5556C6.32793 28.5558 6.44974 28.6397 6.56956 28.7422C6.68937 28.8447 6.81622 28.9287 6.85145 28.9288C6.88668 28.9289 6.95589 28.985 7.00525 29.0534C7.0546 29.1219 7.14479 29.1779 7.20573 29.1779C7.2666 29.1779 7.31645 29.2012 7.31645 29.2297C7.31645 29.2581 7.39345 29.3211 7.48762 29.3696C7.58173 29.4181 7.67279 29.4719 7.6899 29.489C7.75121 29.5505 8.09653 29.7465 8.2034 29.7803C8.26334 29.7994 8.31232 29.8396 8.31232 29.8699C8.31232 29.9001 8.36834 29.9248 8.4368 29.9248C8.50527 29.9248 8.56129 29.9528 8.56129 29.9871C8.56129 30.0213 8.6173 30.0493 8.68577 30.0493C8.75424 30.0493 8.81025 30.0773 8.81025 30.1116C8.81025 30.1458 8.86627 30.1738 8.93474 30.1738C9.0032 30.1738 9.05922 30.2018 9.05922 30.2361C9.05922 30.2703 9.11524 30.2983 9.1837 30.2983C9.25217 30.2983 9.30819 30.3263 9.30819 30.3605C9.30819 30.3948 9.34491 30.4228 9.38985 30.4228C9.43479 30.4228 9.58746 30.4788 9.72919 30.5473C9.87091 30.6157 10.0302 30.6717 10.0832 30.6717C10.1362 30.6717 10.1796 30.6998 10.1796 30.734C10.1796 30.7682 10.244 30.7962 10.3227 30.7962C10.4015 30.7962 10.4925 30.8194 10.525 30.8476C10.5576 30.8759 10.7102 30.9347 10.8642 30.9782C11.0183 31.0217 11.1929 31.0826 11.2524 31.1135C11.3118 31.1444 11.4292 31.1697 11.5132 31.1697C11.5972 31.1697 11.6833 31.1977 11.7045 31.2319C11.7256 31.2662 11.8377 31.2942 11.9535 31.2942C12.0692 31.2942 12.1795 31.3192 12.1984 31.3498C12.2173 31.3804 12.338 31.4214 12.4666 31.4408C12.5952 31.4602 12.8684 31.5062 13.0738 31.543C14.704 31.8354 17.3212 31.8353 18.7689 31.5428C18.9572 31.5047 19.2303 31.4584 19.3758 31.4399C19.5212 31.4213 19.6403 31.3809 19.6403 31.3501C19.6403 31.3194 19.7523 31.2942 19.8893 31.2942C20.0262 31.2942 20.1382 31.2662 20.1382 31.2319C20.1382 31.1977 20.1967 31.1697 20.2682 31.1697C20.4092 31.1697 21.5812 30.7919 21.632 30.73C21.6491 30.7092 21.7962 30.6534 21.9588 30.6061C22.1214 30.5588 22.2544 30.4982 22.2544 30.4715C22.2544 30.4447 22.3105 30.4228 22.3789 30.4228C22.4474 30.4228 22.5034 30.3948 22.5034 30.3605C22.5034 30.3263 22.5398 30.2983 22.5844 30.2983C22.6988 30.2983 23.0003 30.1519 23.0008 30.096C23.0011 30.0703 23.0574 30.0493 23.1258 30.0493C23.1943 30.0493 23.2503 30.0213 23.2503 29.9871C23.2503 29.9528 23.3063 29.9248 23.3748 29.9248C23.4433 29.9248 23.4993 29.8968 23.4993 29.8626C23.4993 29.8284 23.5553 29.8004 23.6238 29.8004C23.6922 29.8004 23.7482 29.7758 23.7482 29.7456C23.7482 29.7156 23.8323 29.6561 23.935 29.6136C24.0377 29.5711 24.1217 29.5117 24.1217 29.4816C24.1217 29.4515 24.1777 29.4269 24.2462 29.4269C24.3146 29.4269 24.3707 29.4036 24.3707 29.3752C24.3707 29.3467 24.4477 29.2837 24.5418 29.2351C24.6359 29.1866 24.7673 29.0978 24.8337 29.0379C24.9 28.9779 24.9783 28.929 25.0076 28.929C25.0369 28.929 25.131 28.8589 25.2166 28.7734C25.3022 28.6878 25.3954 28.6177 25.4237 28.6177C25.4521 28.6177 25.5978 28.5057 25.7476 28.3688C25.8974 28.2318 26.0403 28.1198 26.0652 28.1198C26.1158 28.1198 27.9807 26.2737 27.9807 26.2236C27.9807 26.185 28.1478 25.9782 28.3386 25.7807C28.4155 25.701 28.4786 25.6065 28.4786 25.5707C28.4786 25.5349 28.5066 25.5056 28.5408 25.5056C28.5751 25.5056 28.6031 25.4698 28.6031 25.426C28.6031 25.3822 28.6591 25.306 28.7276 25.2566C28.796 25.2073 28.852 25.1364 28.852 25.0991C28.852 25.0617 28.901 24.9769 28.961 24.9105C29.0208 24.8441 29.1097 24.7128 29.1582 24.6187C29.2068 24.5245 29.2698 24.4475 29.2983 24.4475C29.3267 24.4475 29.35 24.3915 29.35 24.323C29.35 24.2545 29.378 24.1985 29.4122 24.1985C29.4465 24.1985 29.4745 24.1565 29.4745 24.1052C29.4745 24.0538 29.5025 24.0118 29.5367 24.0118C29.5709 24.0118 29.5989 23.9698 29.5989 23.9184C29.5989 23.8671 29.627 23.8251 29.6612 23.8251C29.6954 23.8251 29.7234 23.7691 29.7234 23.7006C29.7234 23.6321 29.7514 23.5761 29.7857 23.5761C29.8199 23.5761 29.8479 23.5201 29.8479 23.4516C29.8479 23.3832 29.8759 23.3271 29.9102 23.3271C29.9444 23.3271 29.9724 23.2711 29.9724 23.2026C29.9724 23.1342 30.0004 23.0782 30.0346 23.0782C30.0689 23.0782 30.0969 23.0221 30.0969 22.9537C30.0969 22.8852 30.1249 22.8292 30.1591 22.8292C30.1934 22.8292 30.2214 22.7732 30.2214 22.7047C30.2214 22.6362 30.2494 22.5802 30.2836 22.5802C30.3178 22.5802 30.3458 22.5242 30.3458 22.4557C30.3458 22.3873 30.3739 22.3313 30.4081 22.3313C30.4423 22.3313 30.4703 22.2612 30.4703 22.1756C30.4703 22.0901 30.4983 22.02 30.5326 22.02C30.5668 22.02 30.5948 21.95 30.5948 21.8644C30.5948 21.7789 30.6228 21.7088 30.6571 21.7088C30.6913 21.7088 30.7193 21.6405 30.7193 21.5569C30.7193 21.4733 30.7473 21.3877 30.7815 21.3665C30.8158 21.3453 30.8438 21.2613 30.8438 21.1798C30.8438 21.0982 30.8718 21.0142 30.906 20.993C30.9403 20.9719 30.9683 20.8878 30.9683 20.8063C30.9683 20.7248 30.9963 20.6407 31.0305 20.6196C31.0647 20.5984 31.0927 20.4988 31.0927 20.3981C31.0927 20.2974 31.1208 20.215 31.155 20.215C31.1892 20.215 31.2172 20.103 31.2172 19.966C31.2172 19.8291 31.2424 19.7171 31.2732 19.7171C31.3272 19.7171 31.3693 19.4894 31.4429 18.799C31.462 18.6193 31.501 18.4722 31.5296 18.4722C31.6104 18.4722 31.6612 17.5153 31.6618 15.9825C31.6624 14.4675 31.6148 13.6205 31.5238 13.5271C31.4921 13.4946 31.4662 13.3352 31.4662 13.1728C31.4662 13.0105 31.4382 12.8604 31.404 12.8393C31.3697 12.8181 31.3417 12.6921 31.3417 12.5592C31.3417 12.4263 31.3137 12.3003 31.2795 12.2791C31.2452 12.2579 31.2172 12.1443 31.2172 12.0264C31.2172 11.9086 31.1892 11.8123 31.155 11.8123C31.1208 11.8123 31.0927 11.7142 31.0927 11.5944C31.0927 11.4746 31.0647 11.3766 31.0305 11.3766C30.9963 11.3766 30.9683 11.2925 30.9683 11.1898C30.9683 11.0871 30.9403 11.0031 30.906 11.0031C30.8718 11.0031 30.8438 10.9191 30.8438 10.8164C30.8438 10.7137 30.8158 10.6297 30.7815 10.6297C30.7473 10.6297 30.7193 10.5613 30.7193 10.4777C30.7193 10.3941 30.6913 10.3085 30.6571 10.2873C30.6228 10.2662 30.5948 10.1945 30.5948 10.128C30.5948 10.0616 30.5668 10.0072 30.5326 10.0072C30.4983 10.0072 30.4703 9.93721 30.4703 9.85163C30.4703 9.76605 30.4423 9.69602 30.4081 9.69602C30.3739 9.69602 30.3458 9.626 30.3458 9.54042C30.3458 9.45483 30.3178 9.38481 30.2836 9.38481C30.2494 9.38481 30.2214 9.32879 30.2214 9.26033C30.2214 9.19186 30.1934 9.13584 30.1591 9.13584C30.1249 9.13584 30.0969 9.07982 30.0969 9.01136C30.0969 8.94289 30.0689 8.88687 30.0346 8.88687C30.0004 8.88687 29.9724 8.83085 29.9724 8.76239C29.9724 8.69392 29.9444 8.6379 29.9102 8.6379C29.8759 8.6379 29.8479 8.58188 29.8479 8.51342C29.8479 8.44495 29.8199 8.38893 29.7857 8.38893C29.7514 8.38893 29.7234 8.34692 29.7234 8.29557C29.7234 8.24422 29.6954 8.2022 29.6612 8.2022C29.627 8.2022 29.5989 8.16019 29.5989 8.10884C29.5989 8.05749 29.5709 8.01548 29.5367 8.01548C29.5025 8.01548 29.4745 7.95946 29.4745 7.89099C29.4745 7.82252 29.4465 7.76651 29.4122 7.76651C29.378 7.76651 29.35 7.72449 29.35 7.67314C29.35 7.62179 29.322 7.57978 29.2877 7.57978C29.2535 7.57978 29.2255 7.53777 29.2255 7.48642C29.2255 7.43507 29.1975 7.39305 29.1633 7.39305C29.129 7.39305 29.101 7.35633 29.101 7.31145C29.101 7.26651 29.045 7.16966 28.9765 7.09616C28.9081 7.02271 28.852 6.93339 28.852 6.89773C28.852 6.86206 28.824 6.83287 28.7898 6.83287C28.7556 6.83287 28.7276 6.79702 28.7276 6.75326C28.7276 6.70944 28.6715 6.63326 28.6031 6.5839C28.5346 6.53454 28.4786 6.46172 28.4786 6.42207C28.4786 6.38242 28.3666 6.23447 28.2296 6.09337C28.0927 5.95226 27.9807 5.80886 27.9807 5.77468C27.9807 5.74045 27.9527 5.7125 27.9184 5.7125C27.8842 5.7125 27.8562 5.68375 27.8562 5.64858C27.8562 5.57146 26.2574 3.96971 26.1805 3.96971C26.1508 3.96971 25.993 3.84367 25.83 3.68962C25.6669 3.53557 25.5086 3.40953 25.4782 3.40953C25.4479 3.40953 25.3531 3.33951 25.2675 3.25393C25.1819 3.16834 25.0895 3.09832 25.0622 3.09832C25.0348 3.09832 24.9311 3.02836 24.8316 2.94277C24.7321 2.85725 24.6158 2.78723 24.5729 2.78717C24.5302 2.78717 24.4951 2.76252 24.4951 2.7324C24.4951 2.70233 24.4111 2.64289 24.3084 2.60038C24.2057 2.55787 24.1217 2.49843 24.1217 2.46836C24.1217 2.43824 24.0657 2.41365 23.9972 2.41365C23.9287 2.41365 23.8727 2.38907 23.8727 2.35894C23.8727 2.32888 23.7887 2.26944 23.686 2.22692C23.5833 2.18441 23.4993 2.12497 23.4993 2.09491C23.4993 2.06478 23.4433 2.0402 23.3748 2.0402C23.3063 2.0402 23.2503 2.01219 23.2503 1.97795C23.2503 1.94372 23.1943 1.91571 23.1258 1.91571C23.0574 1.91571 23.0013 1.8877 23.0013 1.85347C23.0013 1.81924 22.9453 1.79123 22.8769 1.79123C22.8084 1.79123 22.7524 1.76322 22.7524 1.72898C22.7524 1.69475 22.7156 1.66674 22.6707 1.66674C22.6258 1.66674 22.4731 1.61072 22.3314 1.54226C22.1896 1.47379 22.0304 1.41777 21.9773 1.41777C21.9244 1.41777 21.881 1.3948 21.881 1.36679C21.881 1.33872 21.7409 1.27766 21.5698 1.23104C21.3986 1.18442 21.2586 1.12336 21.2586 1.09529C21.2586 1.06728 21.1745 1.04432 21.0718 1.04432C20.9691 1.04432 20.8851 1.01631 20.8851 0.982074C20.8851 0.94784 20.8028 0.919831 20.7021 0.919831C20.6014 0.919831 20.5037 0.895059 20.485 0.864747C20.4663 0.834497 20.3736 0.794164 20.279 0.775242C20.1845 0.756258 19.9811 0.709265 19.827 0.670799C19.2159 0.518118 18.3581 0.363445 17.7108 0.28919C17.0388 0.212072 14.8293 0.149891 14.7727 0.20647ZM17.1817 1.04818C17.5925 1.07892 18.1107 1.13345 18.3332 1.16936C18.5557 1.20528 18.8498 1.25071 18.9868 1.27038C19.1237 1.28999 19.2623 1.33119 19.2949 1.36188C19.3273 1.39263 19.4464 1.41777 19.5594 1.41777C19.6723 1.41777 19.7648 1.44578 19.7648 1.48001C19.7648 1.51425 19.8258 1.54226 19.9004 1.54226C20.0437 1.54226 20.407 1.64489 20.5886 1.73664C20.648 1.76664 20.7514 1.79123 20.8183 1.79123C20.8852 1.79123 20.9539 1.8137 20.9709 1.84114C20.9878 1.86859 21.1436 1.92965 21.3169 1.9769C21.4902 2.02408 21.632 2.08563 21.632 2.1137C21.632 2.14171 21.688 2.16468 21.7565 2.16468C21.825 2.16468 21.881 2.19269 21.881 2.22692C21.881 2.26116 21.93 2.28954 21.9899 2.28998C22.0498 2.29041 22.3229 2.4068 22.5968 2.54859C22.8706 2.69044 23.1575 2.83709 23.2342 2.87456C23.311 2.91203 23.374 2.96369 23.3743 2.98939C23.3745 3.0151 23.4308 3.03608 23.4993 3.03608C23.5677 3.03608 23.6238 3.06066 23.6238 3.09079C23.6238 3.12085 23.7078 3.18029 23.8105 3.2228C23.9132 3.26532 23.9972 3.32133 23.9972 3.34729C23.9972 3.37324 24.0812 3.42926 24.1839 3.47177C24.2866 3.51429 24.3707 3.57186 24.3707 3.59962C24.3707 3.62738 24.4275 3.66815 24.4971 3.69025C24.5667 3.71234 24.6914 3.79824 24.7744 3.88121C24.8573 3.96411 24.95 4.03196 24.9803 4.03196C25.0107 4.03196 25.169 4.158 25.332 4.31205C25.4951 4.4661 25.6512 4.59214 25.6789 4.59214C25.775 4.59214 27.3582 6.21237 27.3582 6.31065C27.3582 6.33076 27.4423 6.42574 27.545 6.52166C27.6477 6.61757 27.7317 6.72687 27.7317 6.76446C27.7317 6.80212 27.7597 6.83287 27.7939 6.83287C27.8282 6.83287 27.8562 6.86872 27.8562 6.91248C27.8562 6.9563 27.9122 7.03248 27.9807 7.08184C28.0491 7.1312 28.1051 7.20738 28.1051 7.2512C28.1051 7.29496 28.1332 7.33081 28.1674 7.33081C28.2016 7.33081 28.2296 7.36 28.2296 7.39567C28.2296 7.43133 28.2856 7.52065 28.3541 7.5941C28.4226 7.6676 28.4786 7.76445 28.4786 7.80939C28.4786 7.85427 28.5066 7.89099 28.5408 7.89099C28.5751 7.89099 28.6031 7.93301 28.6031 7.98436C28.6031 8.03571 28.6311 8.07772 28.6653 8.07772C28.6996 8.07772 28.7276 8.11973 28.7276 8.17108C28.7276 8.22243 28.7556 8.26445 28.7898 8.26445C28.824 8.26445 28.852 8.32046 28.852 8.38893C28.852 8.4574 28.873 8.51366 28.8987 8.51391C28.9244 8.51416 28.9763 8.57721 29.0141 8.65396C29.0518 8.7307 29.1709 8.95739 29.2786 9.15775C29.3863 9.35805 29.4745 9.56108 29.4745 9.60901C29.4745 9.65687 29.5025 9.69602 29.5367 9.69602C29.5709 9.69602 29.5989 9.75036 29.5989 9.81684C29.5989 9.88331 29.627 9.95495 29.6612 9.97612C29.6954 9.99728 29.7234 10.0689 29.7234 10.1354C29.7234 10.2019 29.7514 10.2562 29.7857 10.2562C29.8199 10.2562 29.8479 10.3262 29.8479 10.4118C29.8479 10.4974 29.8759 10.5674 29.9102 10.5674C29.9444 10.5674 29.9724 10.6374 29.9724 10.723C29.9724 10.8086 30.0004 10.8786 30.0346 10.8786C30.0689 10.8786 30.0969 10.9627 30.0969 11.0654C30.0969 11.1681 30.1249 11.2521 30.1591 11.2521C30.1934 11.2521 30.2214 11.3361 30.2214 11.4388C30.2214 11.5415 30.2494 11.6255 30.2836 11.6255C30.3178 11.6255 30.3458 11.7219 30.3458 11.8397C30.3458 11.9575 30.3739 12.0712 30.4081 12.0924C30.4423 12.1135 30.4703 12.2256 30.4703 12.3413C30.4703 12.4571 30.4983 12.5691 30.5326 12.5903C30.5668 12.6115 30.5948 12.7335 30.5948 12.8616C30.5948 12.9897 30.6203 13.1211 30.6516 13.1536C30.6828 13.1861 30.7255 13.3808 30.7464 13.5862C30.7673 13.7916 30.8138 14.2397 30.8498 14.5821C30.9578 15.6113 30.9096 17.93 30.7774 18.0645C30.7454 18.097 30.7193 18.2861 30.7193 18.4847C30.7193 18.6838 30.6914 18.8457 30.6571 18.8457C30.6228 18.8457 30.5948 18.97 30.5948 19.1221C30.5948 19.2741 30.5668 19.4158 30.5326 19.437C30.4983 19.4581 30.4703 19.5702 30.4703 19.6859C30.4703 19.8017 30.4423 19.9138 30.4081 19.9349C30.3739 19.9561 30.3458 20.0557 30.3458 20.1564C30.3458 20.2571 30.3178 20.3395 30.2836 20.3395C30.2494 20.3395 30.2214 20.4235 30.2214 20.5262C30.2214 20.6289 30.1934 20.7129 30.1591 20.7129C30.1249 20.7129 30.0969 20.797 30.0969 20.8997C30.0969 21.0024 30.0689 21.0864 30.0346 21.0864C30.0004 21.0864 29.9724 21.1704 29.9724 21.2731C29.9724 21.3758 29.9444 21.4599 29.9102 21.4599C29.8759 21.4599 29.8479 21.5022 29.8479 21.5541C29.8479 21.6059 29.8155 21.7109 29.776 21.7875C29.625 22.0795 29.5989 22.1456 29.5989 22.237C29.5989 22.2889 29.5709 22.3313 29.5367 22.3313C29.5025 22.3313 29.4745 22.3873 29.4745 22.4557C29.4745 22.5242 29.4465 22.5802 29.4122 22.5802C29.378 22.5802 29.35 22.6362 29.35 22.7047C29.35 22.7732 29.322 22.8292 29.2877 22.8292C29.2535 22.8292 29.2255 22.8852 29.2255 22.9537C29.2255 23.0221 29.2007 23.0782 29.1705 23.0782C29.1403 23.0782 29.1 23.1271 29.081 23.1871C29.0348 23.3327 28.8327 23.6642 28.7742 23.6902C28.7485 23.7016 28.7276 23.7585 28.7276 23.8165C28.7276 23.8746 28.6715 23.9624 28.6031 24.0118C28.5346 24.0612 28.4786 24.1513 28.4786 24.2123C28.4786 24.2732 28.4553 24.323 28.4269 24.323C28.3984 24.323 28.3356 24.4001 28.2873 24.4942C28.2389 24.5883 28.1501 24.7107 28.09 24.766C28.0299 24.8214 27.9807 24.8984 27.9807 24.9372C27.9807 24.9759 27.9527 25.0077 27.9184 25.0077C27.8842 25.0077 27.8562 25.0384 27.8562 25.0761C27.8562 25.1137 27.7722 25.223 27.6695 25.3189C27.5668 25.4148 27.4827 25.5241 27.4827 25.5617C27.4827 25.5994 27.4547 25.6301 27.4205 25.6301C27.3863 25.6301 27.3582 25.6588 27.3582 25.6939C27.3582 25.7653 25.6381 27.4974 25.5672 27.4974C25.5423 27.4974 25.3995 27.6094 25.2497 27.7464C25.0999 27.8833 24.9542 27.9953 24.9258 27.9953C24.8975 27.9953 24.8042 28.0653 24.7186 28.1509C24.6331 28.2365 24.539 28.3065 24.5097 28.3065C24.4804 28.3065 24.4021 28.3555 24.3357 28.4155C24.2693 28.4753 24.138 28.5642 24.0439 28.6127C23.9498 28.6613 23.8727 28.7243 23.8727 28.7527C23.8727 28.7812 23.8167 28.8045 23.7482 28.8045C23.6798 28.8045 23.6238 28.8292 23.6238 28.8594C23.6238 28.8897 23.5747 28.93 23.5148 28.949C23.3692 28.9952 23.0377 29.1973 23.0117 29.2557C23.0003 29.2814 22.9373 29.3024 22.8717 29.3024C22.8061 29.3024 22.7524 29.3304 22.7524 29.3647C22.7524 29.3989 22.6964 29.4269 22.6279 29.4269C22.5594 29.4269 22.5034 29.4549 22.5034 29.4891C22.5034 29.5234 22.4474 29.5514 22.3789 29.5514C22.3105 29.5514 22.2544 29.5794 22.2544 29.6136C22.2544 29.6479 22.2111 29.6759 22.1581 29.6759C22.1051 29.6759 21.9458 29.7319 21.8041 29.8004C21.6623 29.8688 21.5097 29.9248 21.4647 29.9248C21.4198 29.9248 21.3831 29.9528 21.3831 29.9871C21.3831 30.0213 21.3147 30.0493 21.2311 30.0493C21.1475 30.0493 21.0619 30.0773 21.0407 30.1116C21.0196 30.1458 20.9355 30.1738 20.854 30.1738C20.7725 30.1738 20.6884 30.2018 20.6673 30.2361C20.6461 30.2703 20.5621 30.2983 20.4806 30.2983C20.399 30.2983 20.3169 30.3232 20.2981 30.3537C20.2793 30.3841 20.1726 30.4241 20.061 30.4426C19.7229 30.4985 19.4912 30.5539 19.3602 30.6099C19.1474 30.7011 18.2735 30.8423 17.3685 30.9317C16.4811 31.0194 15.2965 31.0199 14.4742 30.9327C13.2495 30.803 13.136 30.7876 13.0116 30.7339C12.9431 30.7044 12.8031 30.666 12.7004 30.6487C12.5977 30.6314 12.3876 30.5854 12.2335 30.5466C12.0795 30.5078 11.8624 30.461 11.7512 30.4426C11.6399 30.4242 11.5489 30.3842 11.5489 30.3538C11.5489 30.3233 11.4649 30.2983 11.3622 30.2983C11.2595 30.2983 11.1754 30.2703 11.1754 30.2361C11.1754 30.2018 11.0914 30.1738 10.9887 30.1738C10.886 30.1738 10.802 30.1458 10.802 30.1116C10.802 30.0773 10.7336 30.0493 10.6501 30.0493C10.5665 30.0493 10.4808 30.0213 10.4597 29.9871C10.4385 29.9528 10.3669 29.9248 10.3004 29.9248C10.2339 29.9248 10.1796 29.8968 10.1796 29.8626C10.1796 29.8284 10.1362 29.8004 10.0832 29.8004C10.0302 29.8004 9.87091 29.7443 9.72919 29.6759C9.58746 29.6074 9.43479 29.5514 9.38985 29.5514C9.34491 29.5514 9.30819 29.5234 9.30819 29.4891C9.30819 29.4549 9.25217 29.4269 9.1837 29.4269C9.11524 29.4269 9.05922 29.3989 9.05922 29.3647C9.05922 29.3304 9.0032 29.3024 8.93474 29.3024C8.86627 29.3024 8.81025 29.2778 8.81025 29.2477C8.81025 29.2176 8.72623 29.1582 8.62353 29.1157C8.52083 29.0732 8.4368 29.0137 8.4368 28.9837C8.4368 28.9535 8.38079 28.929 8.31232 28.929C8.24385 28.929 8.18784 28.9009 8.18784 28.8667C8.18784 28.8325 8.15111 28.8045 8.10624 28.8045C8.0613 28.8045 7.96445 28.7485 7.89094 28.68C7.8175 28.6115 7.72034 28.5555 7.67515 28.5555C7.6299 28.5555 7.55254 28.4995 7.50318 28.431C7.45382 28.3626 7.37739 28.3065 7.33326 28.3065C7.28919 28.3065 7.16515 28.2225 7.05772 28.1198C6.95022 28.0171 6.8357 27.9331 6.80315 27.9331C6.7706 27.9331 6.6697 27.855 6.57895 27.7595C6.48821 27.6641 6.31592 27.5172 6.19611 27.4331C5.91378 27.2352 4.65332 25.9747 4.45533 25.6923C4.37131 25.5725 4.22442 25.4002 4.129 25.3095C4.03352 25.2187 3.95535 25.1207 3.95528 25.0916C3.95516 25.0626 3.8712 24.9408 3.76868 24.821C3.66617 24.7011 3.58221 24.5743 3.58208 24.5391C3.58202 24.5038 3.52594 24.4346 3.45748 24.3853C3.38901 24.3359 3.33299 24.2585 3.33299 24.2133C3.33299 24.1681 3.27697 24.0709 3.20851 23.9975C3.14004 23.924 3.08403 23.8271 3.08403 23.7822C3.08403 23.7373 3.05602 23.7006 3.02178 23.7006C2.98755 23.7006 2.95954 23.6446 2.95954 23.5761C2.95954 23.5076 2.93153 23.4516 2.8973 23.4516C2.86307 23.4516 2.83506 23.4096 2.83506 23.3583C2.83506 23.3069 2.80705 23.2649 2.77282 23.2649C2.73858 23.2649 2.71058 23.2229 2.71058 23.1715C2.71058 23.1202 2.68257 23.0782 2.64833 23.0782C2.6141 23.0782 2.58609 23.0221 2.58609 22.9537C2.58609 22.8852 2.55808 22.8292 2.52385 22.8292C2.48962 22.8292 2.46161 22.7732 2.46161 22.7047C2.46161 22.6362 2.4336 22.5802 2.39937 22.5802C2.36514 22.5802 2.33713 22.5378 2.33713 22.486C2.33713 22.4342 2.30912 22.3362 2.27489 22.2681C2.24065 22.2002 2.18463 22.0889 2.1504 22.0209C2.11617 21.9529 2.08816 21.8548 2.08816 21.8031C2.08816 21.7512 2.06015 21.7088 2.02592 21.7088C1.99169 21.7088 1.96368 21.6545 1.96368 21.588C1.96368 21.5215 1.93567 21.4499 1.90144 21.4287C1.8672 21.4076 1.83919 21.3219 1.83919 21.2383C1.83919 21.1547 1.81119 21.0864 1.77695 21.0864C1.74272 21.0864 1.71471 21.0024 1.71471 20.8997C1.71471 20.797 1.6867 20.7129 1.65247 20.7129C1.61824 20.7129 1.59023 20.6289 1.59023 20.5262C1.59023 20.4235 1.56222 20.3395 1.52799 20.3395C1.49375 20.3395 1.46574 20.2431 1.46574 20.1253C1.46574 20.0075 1.43774 19.8938 1.4035 19.8727C1.36927 19.8515 1.34126 19.7435 1.34126 19.6325C1.34126 19.5215 1.31612 19.4041 1.28537 19.3716C1.22941 19.3124 1.17725 19.0224 1.118 18.4411C1.10057 18.2699 1.06155 18.0739 1.03136 18.0054C0.969368 17.8649 0.886649 16.6271 0.892064 15.9203C0.898475 15.0793 0.980073 13.9908 1.03678 13.9908C1.06734 13.9908 1.09229 13.8244 1.09229 13.621C1.09229 13.4176 1.1203 13.2339 1.15454 13.2127C1.18877 13.1916 1.21678 13.0499 1.21678 12.8978C1.21678 12.7458 1.24479 12.6214 1.27902 12.6214C1.31325 12.6214 1.34126 12.5094 1.34126 12.3725C1.34126 12.2355 1.36927 12.1235 1.4035 12.1235C1.43774 12.1235 1.46574 12.0271 1.46574 11.9093C1.46574 11.7915 1.49375 11.6778 1.52799 11.6567C1.56222 11.6355 1.59023 11.5515 1.59023 11.4699C1.59023 11.3884 1.61824 11.3044 1.65247 11.2832C1.6867 11.262 1.71471 11.19 1.71471 11.1231C1.71471 11.0561 1.74272 10.9458 1.77695 10.8778C1.81119 10.8098 1.8672 10.6985 1.90144 10.6305C1.93567 10.5625 1.96368 10.4505 1.96368 10.3816C1.96368 10.3126 1.99169 10.2562 2.02592 10.2562C2.06015 10.2562 2.08816 10.2002 2.08816 10.1317C2.08816 10.0633 2.11617 10.0072 2.1504 10.0072C2.18463 10.0072 2.21264 9.9529 2.21264 9.88642C2.21264 9.81995 2.24065 9.74831 2.27489 9.72715C2.30912 9.70598 2.33713 9.63434 2.33713 9.56787C2.33713 9.50139 2.36514 9.44705 2.39937 9.44705C2.4336 9.44705 2.46161 9.39104 2.46161 9.32257C2.46161 9.2541 2.48962 9.19808 2.52385 9.19808C2.55808 9.19808 2.58609 9.14207 2.58609 9.0736C2.58609 9.00513 2.6141 8.94911 2.64833 8.94911C2.68257 8.94911 2.71058 8.9071 2.71058 8.85575C2.71058 8.8044 2.73858 8.76239 2.77282 8.76239C2.80705 8.76239 2.83506 8.70637 2.83506 8.6379C2.83506 8.56943 2.86307 8.51342 2.8973 8.51342C2.93153 8.51342 2.95954 8.47022 2.95954 8.41744C2.95954 8.36466 3.01556 8.26133 3.08403 8.18789C3.15249 8.11438 3.20851 8.01753 3.20851 7.97259C3.20851 7.92772 3.23652 7.89099 3.27075 7.89099C3.30498 7.89099 3.33299 7.84898 3.33299 7.79763C3.33299 7.74628 3.361 7.70426 3.39523 7.70426C3.42947 7.70426 3.45748 7.66225 3.45748 7.6109C3.45748 7.55955 3.48075 7.51754 3.5092 7.51754C3.53764 7.51754 3.60051 7.44054 3.64881 7.34637C3.69717 7.2522 3.78592 7.12989 3.84605 7.07456C3.90617 7.01916 3.95541 6.94217 3.95541 6.90339C3.95541 6.86461 3.98342 6.83287 4.01765 6.83287C4.05188 6.83287 4.07989 6.80393 4.07989 6.76857C4.07989 6.73316 4.17095 6.61216 4.28218 6.49969C4.3934 6.38715 4.55448 6.20111 4.64007 6.08621C4.85797 5.79373 5.67421 4.97723 6.00938 4.71662C6.16343 4.59681 6.38146 4.40771 6.49381 4.29649C6.60622 4.18526 6.72398 4.0942 6.75553 4.0942C6.78709 4.0942 6.88288 4.02418 6.96846 3.93859C7.05404 3.85301 7.14635 3.78292 7.17361 3.78292C7.20081 3.78286 7.30444 3.71284 7.40397 3.62732C7.50343 3.54173 7.60644 3.47177 7.63289 3.47177C7.65934 3.47177 7.71885 3.43679 7.76515 3.39397C7.88061 3.28722 8.19574 3.09801 8.32788 3.05612C8.38782 3.03707 8.4368 2.9968 8.4368 2.96655C8.4368 2.93636 8.49046 2.91159 8.55612 2.91159C8.62172 2.91159 8.68471 2.88626 8.69616 2.85526C8.72175 2.78574 9.73112 2.28917 9.84683 2.28917C9.89288 2.28917 9.9306 2.26116 9.9306 2.22692C9.9306 2.19269 9.97299 2.16468 10.0248 2.16468C10.0766 2.16468 10.1677 2.13997 10.2271 2.10972C10.5902 1.92492 11.7281 1.54226 11.9142 1.54226C11.9871 1.54226 12.0468 1.51425 12.0468 1.48001C12.0468 1.44578 12.1589 1.41777 12.2958 1.41777C12.4327 1.41777 12.5447 1.39256 12.5447 1.36182C12.5447 1.33101 12.6778 1.28849 12.8404 1.26733C13.003 1.24617 13.3321 1.1998 13.5717 1.16438C14.682 1.00019 15.9823 0.958297 17.1817 1.04818ZM10.3024 6.10152C10.2813 7.08016 10.3036 9.76941 10.3332 9.81727C10.3555 9.85331 10.442 9.88275 10.5256 9.88275C10.6092 9.88275 10.6775 9.90572 10.6775 9.93373C10.6775 9.9618 10.8175 10.0229 10.9887 10.0695C11.1599 10.1161 11.2999 10.1721 11.2999 10.194C11.2999 10.2158 11.44 10.2718 11.6111 10.3184C11.7823 10.3651 11.9223 10.4261 11.9223 10.4542C11.9223 10.4822 11.9787 10.5052 12.0477 10.5052C12.1687 10.5052 12.2287 10.5273 12.5283 10.6822C12.6049 10.7218 12.7239 10.7541 12.7928 10.7541C12.8618 10.7541 12.9182 10.7771 12.9182 10.8051C12.9182 10.8332 13.0582 10.8943 13.2294 10.9409C13.4006 10.9875 13.5406 11.0486 13.5406 11.0766C13.5406 11.1046 13.609 11.1276 13.6925 11.1276C13.7761 11.1276 13.8618 11.1556 13.8829 11.1898C13.9041 11.2241 13.9757 11.2521 14.0422 11.2521C14.1087 11.2521 14.163 11.2801 14.163 11.3143C14.163 11.3486 14.2471 11.3766 14.3498 11.3766C14.4525 11.3766 14.5365 11.3995 14.5365 11.4275C14.5365 11.4556 14.6765 11.5167 14.8477 11.5633C15.0189 11.6099 15.1589 11.6659 15.1589 11.6878C15.1589 11.7096 15.2989 11.7656 15.4701 11.8123C15.6413 11.8589 15.7813 11.9199 15.7813 11.948C15.7813 11.976 15.8377 11.999 15.9067 11.999C15.9756 11.999 16.0876 12.027 16.1556 12.0612C16.2236 12.0955 16.3349 12.1515 16.4029 12.1857C16.4709 12.22 16.5829 12.248 16.6518 12.248C16.7208 12.248 16.7772 12.2709 16.7772 12.2989C16.7772 12.327 16.9172 12.3881 17.0884 12.4347C17.2757 12.4857 17.3996 12.5546 17.3996 12.6077C17.3996 12.6947 17.0533 13.0571 16.9703 13.0571C16.9468 13.0571 16.8304 13.1481 16.7116 13.2594C16.5929 13.3706 16.37 13.5589 16.2163 13.6778C16.0626 13.7966 15.8949 13.938 15.8436 13.9919C15.7922 14.0459 15.6522 14.1574 15.5323 14.2397C15.4125 14.3221 15.2725 14.4336 15.2211 14.4875C15.1698 14.5415 15.0017 14.682 14.8477 14.7999C14.6936 14.9178 14.5256 15.0578 14.4742 15.1111C14.4229 15.1644 14.2551 15.3053 14.1015 15.4241C13.9478 15.543 13.7249 15.7312 13.6062 15.8425C13.4874 15.9538 13.3703 16.0448 13.346 16.0448C13.3217 16.0448 13.1852 16.1568 13.0427 16.2937C12.9001 16.4307 12.7637 16.5427 12.7394 16.5427C12.715 16.5427 12.598 16.6337 12.4792 16.745C12.3605 16.8563 12.1376 17.0445 11.9839 17.1634C11.8302 17.2822 11.6625 17.4236 11.6111 17.4775C11.5598 17.5315 11.4197 17.6438 11.2999 17.7272C11.1801 17.8106 10.9901 17.9704 10.8777 18.0821C10.7653 18.194 10.6516 18.2855 10.625 18.2855C10.5984 18.2855 10.4869 18.3732 10.3773 18.4804C10.2297 18.6248 10.1949 18.6959 10.2435 18.7544C10.2864 18.8061 10.3064 19.4288 10.3011 20.5559C10.2937 22.1602 10.3009 22.2843 10.4075 22.3651C10.4704 22.4128 10.5849 22.4527 10.6619 22.4537C10.739 22.4549 10.802 22.4787 10.802 22.5067C10.802 22.5348 10.942 22.5958 11.1132 22.6425C11.2844 22.6891 11.4244 22.7501 11.4244 22.7782C11.4244 22.8062 11.4808 22.8292 11.5498 22.8292C11.6187 22.8292 11.7307 22.8572 11.7987 22.8914C11.8667 22.9257 11.978 22.9817 12.0459 23.0159C12.114 23.0502 12.226 23.0782 12.2949 23.0782C12.3639 23.0782 12.4203 23.1011 12.4203 23.1291C12.4203 23.1572 12.5603 23.2183 12.7315 23.2649C12.9026 23.3115 13.0427 23.3675 13.0427 23.3894C13.0427 23.4112 13.1827 23.4672 13.3539 23.5139C13.5251 23.5605 13.6651 23.6215 13.6651 23.6496C13.6651 23.6776 13.7491 23.7006 13.8518 23.7006C13.9545 23.7006 14.0385 23.7286 14.0385 23.7628C14.0385 23.7971 14.0929 23.8251 14.1594 23.8251C14.2258 23.8251 14.2975 23.8531 14.3186 23.8873C14.3398 23.9215 14.4254 23.9496 14.509 23.9496C14.5926 23.9496 14.661 23.9725 14.661 24.0005C14.661 24.0286 14.801 24.0897 14.9722 24.1363C15.1433 24.1829 15.2834 24.2389 15.2834 24.2608C15.2834 24.2826 15.4252 24.3391 15.5985 24.3863C15.7719 24.4336 15.9276 24.4946 15.9445 24.5221C15.9615 24.5495 16.0437 24.572 16.1273 24.572C16.2109 24.572 16.2792 24.5949 16.2792 24.623C16.2792 24.651 16.4193 24.7121 16.5905 24.7587C16.7616 24.8053 16.9017 24.8613 16.9017 24.8832C16.9017 24.905 17.0435 24.9616 17.2168 25.0087C17.3901 25.056 17.5459 25.117 17.5628 25.1445C17.5798 25.1719 17.662 25.1944 17.7456 25.1944C17.8292 25.1944 17.8975 25.2174 17.8975 25.2454C17.8975 25.2735 18.0376 25.3345 18.2087 25.3811C18.3799 25.4278 18.5199 25.4838 18.5199 25.5056C18.5199 25.5275 18.66 25.5835 18.8311 25.6301C19.0023 25.6767 19.1424 25.7378 19.1424 25.7659C19.1424 25.7939 19.1987 25.8168 19.2677 25.8168C19.3366 25.8168 19.4486 25.8448 19.5167 25.8791C19.5846 25.9133 19.6959 25.9693 19.7639 26.0036C19.8319 26.0378 19.944 26.0658 20.0129 26.0658C20.0818 26.0658 20.1382 26.0888 20.1382 26.1168C20.1382 26.1449 20.2783 26.2059 20.4494 26.2525C20.6206 26.2991 20.7606 26.3602 20.7606 26.3883C20.7606 26.477 21.3245 26.4445 21.4186 26.3503C21.4912 26.2778 21.5075 25.9615 21.5075 24.6342C21.5075 22.9368 21.4913 22.8292 21.2355 22.8292C21.1838 22.8292 21.1241 22.8012 21.103 22.7669C21.0818 22.7327 20.9962 22.7047 20.9126 22.7047C20.829 22.7047 20.7606 22.6817 20.7606 22.6537C20.7606 22.6257 20.6206 22.5646 20.4494 22.518C20.2783 22.4714 20.1382 22.4153 20.1382 22.3935C20.1382 22.3716 19.9982 22.3156 19.827 22.269C19.6559 22.2224 19.5158 22.1664 19.5158 22.1445C19.5158 22.1227 19.374 22.0662 19.2007 22.019C19.0273 21.9717 18.8716 21.9107 18.8547 21.8832C18.8377 21.8558 18.7555 21.8333 18.6719 21.8333C18.5883 21.8333 18.5199 21.8053 18.5199 21.7711C18.5199 21.7368 18.4656 21.7088 18.3991 21.7088C18.3327 21.7088 18.261 21.6808 18.2399 21.6466C18.2187 21.6124 18.133 21.5843 18.0495 21.5843C17.9659 21.5843 17.8975 21.5614 17.8975 21.5334C17.8975 21.5053 17.7575 21.4442 17.5863 21.3976C17.4152 21.351 17.2751 21.295 17.2751 21.2731C17.2751 21.2513 17.1351 21.1953 16.9639 21.1486C16.7927 21.102 16.6527 21.041 16.6527 21.0129C16.6527 20.9849 16.5963 20.9619 16.5273 20.9619C16.4584 20.9619 16.3464 20.9339 16.2784 20.8997C16.2104 20.8654 16.0991 20.8094 16.0311 20.7752C15.9631 20.741 15.8511 20.7129 15.7822 20.7129C15.7132 20.7129 15.6568 20.69 15.6568 20.662C15.6568 20.6339 15.5168 20.5728 15.3456 20.5262C15.1745 20.4796 15.0344 20.4236 15.0344 20.4017C15.0344 20.3799 14.8944 20.3239 14.7232 20.2772C14.5359 20.2263 14.412 20.1574 14.412 20.1042C14.412 20.0122 14.7604 19.6548 14.8501 19.6548C14.8784 19.6548 15.0454 19.5148 15.2211 19.3436C15.3968 19.1724 15.5636 19.0324 15.5917 19.0324C15.6197 19.0324 15.7918 18.8924 15.9741 18.7212C16.1564 18.55 16.3259 18.41 16.3505 18.41C16.3752 18.41 16.5392 18.2699 16.7149 18.0988C16.8906 17.9276 17.0596 17.7875 17.0904 17.7875C17.1212 17.7875 17.2385 17.6961 17.3509 17.5842C17.4632 17.4724 17.652 17.3123 17.7704 17.2284C17.8888 17.1446 18.1109 16.956 18.2639 16.8093C18.417 16.6627 18.5643 16.5427 18.5913 16.5427C18.6182 16.5427 18.7322 16.4512 18.8447 16.3394C18.957 16.2276 19.147 16.0676 19.2668 15.9839C19.3867 15.9002 19.5547 15.7596 19.6403 15.6713C19.7259 15.583 19.8939 15.443 20.0137 15.3601C20.1336 15.2772 20.3016 15.1371 20.3872 15.0489C20.4728 14.9606 20.6408 14.82 20.7606 14.7363C20.8805 14.6526 21.0705 14.4926 21.1828 14.3808C21.2952 14.269 21.4143 14.1775 21.4474 14.1775C21.4848 14.1775 21.5075 13.4596 21.5075 12.2791C21.5075 10.4222 21.5048 10.3807 21.3831 10.3807C21.3146 10.3807 21.2586 10.3577 21.2586 10.3297C21.2586 10.3016 21.1185 10.2406 20.9474 10.194C20.7762 10.1473 20.6362 10.0863 20.6362 10.0582C20.6362 10.0302 20.5521 10.0072 20.4494 10.0072C20.3467 10.0072 20.2627 9.97923 20.2627 9.94499C20.2627 9.91076 20.2084 9.88275 20.1419 9.88275C20.0754 9.88275 20.0038 9.85474 19.9826 9.82051C19.9615 9.78628 19.8758 9.75827 19.7922 9.75827C19.7086 9.75827 19.6403 9.7353 19.6403 9.70729C19.6403 9.67922 19.5002 9.61816 19.3291 9.57154C19.1579 9.52492 19.0179 9.4689 19.0179 9.44705C19.0179 9.42521 18.8778 9.36919 18.7067 9.32257C18.5355 9.27595 18.3955 9.21993 18.3955 9.19808C18.3955 9.17624 18.2554 9.12022 18.0843 9.0736C17.9131 9.02698 17.773 8.96592 17.773 8.93785C17.773 8.90984 17.689 8.88687 17.5863 8.88687C17.4836 8.88687 17.3996 8.85886 17.3996 8.82463C17.3996 8.7904 17.3453 8.76239 17.2788 8.76239C17.2123 8.76239 17.1407 8.73438 17.1195 8.70014C17.0983 8.66591 17.0127 8.6379 16.9291 8.6379C16.8455 8.6379 16.7772 8.61493 16.7772 8.58692C16.7772 8.55885 16.6371 8.49779 16.466 8.45117C16.2948 8.40455 16.1548 8.34854 16.1548 8.32669C16.1548 8.30484 16.0147 8.24882 15.8436 8.2022C15.6724 8.15558 15.5323 8.09452 15.5323 8.06645C15.5323 8.03844 15.464 8.01548 15.3804 8.01548C15.2968 8.01548 15.2112 7.98747 15.19 7.95323C15.1689 7.919 15.0972 7.89099 15.0307 7.89099C14.9643 7.89099 14.9099 7.86298 14.9099 7.82875C14.9099 7.79452 14.8259 7.76651 14.7232 7.76651C14.6205 7.76651 14.5365 7.7385 14.5365 7.70426C14.5365 7.67003 14.4821 7.64202 14.4157 7.64202C14.3492 7.64202 14.2776 7.61401 14.2564 7.57978C14.2352 7.54555 14.1496 7.51754 14.066 7.51754C13.9824 7.51754 13.9141 7.49457 13.9141 7.46656C13.9141 7.43849 13.774 7.37743 13.6029 7.33081C13.4317 7.28419 13.2916 7.22923 13.2916 7.20869C13.2916 7.18809 13.1586 7.13244 12.996 7.08495C12.7122 7.00211 12.6322 6.97049 12.3589 6.83287C12.2909 6.79864 12.1928 6.77063 12.1411 6.77063C12.0892 6.77063 12.0468 6.74262 12.0468 6.70838C12.0468 6.67415 11.9785 6.64614 11.8949 6.64614C11.8113 6.64614 11.7291 6.62367 11.7121 6.59622C11.6952 6.56877 11.5394 6.50771 11.3661 6.46047C11.1928 6.41329 11.051 6.35678 11.051 6.33493C11.051 6.31308 10.9109 6.25706 10.7397 6.21044C10.5686 6.16382 10.4285 6.10276 10.4285 6.07469C10.4285 5.99073 10.3042 6.01718 10.3024 6.10152Z" fill="black"/>
</svg>
