<svg width="40" height="41" viewBox="0 0 40 41" fill="none" xmlns="http://www.w3.org/2000/svg">
<g clip-path="url(#clip0)">
<path d="M22.822 39.9917H16.425L18.9838 36.1535L18.3441 33.5948L20.2632 32.9551L21.6129 24.8692L25.0928 25.7969C26.7689 26.2445 27.9396 27.7672 27.9396 29.507V39.9917H22.822Z" fill="#B27946"/>
<path d="M14.506 28.477C14.6597 28.477 14.813 28.4514 14.9473 28.4002L17.583 29.4494L14.506 39.9916L11.3203 29.4941L14.0646 28.4002C14.1989 28.4514 14.3523 28.477 14.506 28.477Z" fill="#E6E9ED"/>
<path d="M6.18984 39.9917H1.07227V29.507C1.07227 27.7672 2.24296 26.2445 3.91904 25.7969L7.39896 24.8692L8.74863 32.9551L10.6677 33.5948L10.028 36.1535L12.5868 39.9917H6.18984Z" fill="#B27946"/>
<path d="M14.5059 39.9916L17.5828 29.4494L18.344 29.7565V23.9992L21.6128 24.8691L20.2631 32.955L18.344 33.5947L18.9837 36.1535L16.425 39.9916H14.5059Z" fill="#CF9E76"/>
<path d="M11.3207 29.4941L14.5064 39.9916H12.5873L10.0285 36.1535L10.6682 33.5947L8.74909 32.955L7.39941 24.8691L10.6682 23.9992V29.7565L11.3207 29.4941Z" fill="#CF9E76"/>
<path d="M14.9475 28.4003C15.4338 28.2148 15.7856 27.7478 15.7856 27.1978C15.7856 26.6733 15.4595 26.2126 15.005 26.0208L18.3443 24.639V29.7566L17.5831 29.4495L14.9475 28.4003Z" fill="#FF826E"/>
<path d="M10.6682 24.639L14.065 25.9952V26.0015C13.5787 26.1807 13.227 26.6477 13.227 27.1978C13.227 27.7478 13.5787 28.2148 14.065 28.4003L11.3207 29.4942L10.6682 29.7566V24.639Z" fill="#FF826E"/>
<path d="M25.3809 7.3672H24.4788C23.4556 7.3672 22.5151 6.81059 22.0162 5.92163C21.2741 4.59101 20.2059 3.51621 18.9393 2.76781C17.6789 2.01942 16.214 1.60992 14.6916 1.60992C13.4184 1.60992 12.184 1.89791 11.0646 2.43516C9.94509 2.97896 8.94712 3.75922 8.15375 4.75718L8.10908 4.80841C7.32851 5.2051 6.68882 5.79982 6.24122 6.51635C5.79986 7.23289 5.55029 8.07093 5.55029 8.94739V15.0436C5.55029 13.6299 6.69538 12.4848 8.10908 12.4848V9.92599L8.73597 10.5529C9.58026 11.3972 10.6423 11.9988 11.8001 12.2864C12.3246 12.4207 12.8621 12.4848 13.3994 12.4848H13.5465C13.9879 12.4848 14.3908 12.3058 14.6788 12.0178C14.9668 11.7298 15.1458 11.3269 15.1458 10.8855C15.1458 10.7768 15.1329 10.6681 15.1139 10.5657H15.1458L16.2843 10.8471C17.2248 11.0839 18.1971 11.2054 19.1695 11.2054C19.7645 11.2054 20.3464 11.1285 20.903 10.9814V12.4848C22.3167 12.4848 23.4618 13.6299 23.4618 15.0436V9.71109C24.2524 9.08919 24.9152 8.29801 25.3809 7.3672Z" fill="#FCD770"/>
<path d="M14.065 25.9952L10.6682 24.639V22.0802C12.9584 23.2187 13.7196 23.3596 14.5064 23.3596C15.9457 23.3596 17.2763 22.8798 18.3446 22.0802V24.639L15.0052 26.0208C14.8519 25.9568 14.6854 25.9184 14.5064 25.9184C14.3527 25.9184 14.1994 25.944 14.065 26.0015V25.9952Z" fill="#F0D0B4"/>
<path d="M23.462 15.0435C23.462 16.4572 22.3169 17.6023 20.9032 17.6023H20.8713C20.8904 17.3912 20.9032 17.18 20.9032 16.9626V12.4847C22.3169 12.4847 23.462 13.6298 23.462 15.0435Z" fill="#F0D0B4"/>
<path d="M15.1458 10.8855C15.1458 10.7768 15.133 10.6681 15.1139 10.5657H15.1458L16.2843 10.8471C17.2248 11.0839 18.1972 11.2054 19.1695 11.2054C19.7645 11.2054 20.3465 11.1285 20.9031 10.9814V16.9626C20.9031 17.18 20.8903 17.3912 20.8712 17.6023C20.6919 19.4318 19.7389 21.031 18.3443 22.0802C17.276 22.8798 15.9454 23.3596 14.5061 23.3596C13.7193 23.3596 12.9581 23.2187 10.6679 22.0802C10.4249 21.8947 10.1944 21.6963 9.98356 21.4852C8.96622 20.4682 8.28811 19.1119 8.14099 17.6023C8.12194 17.3912 8.10913 17.18 8.10913 16.9626V9.92596L8.73602 10.5529C9.58031 11.3971 10.6423 11.9987 11.8002 12.2864C12.3246 12.4207 12.8622 12.4848 13.3994 12.4848H13.5466C13.9879 12.4848 14.3908 12.3058 14.6788 12.0178C14.9668 11.7298 15.1458 11.3269 15.1458 10.8855Z" fill="#F0D0B4"/>
<path d="M8.10908 12.4847V16.9626C8.10908 17.18 8.12189 17.3912 8.14094 17.6023H8.10908C6.69538 17.6023 5.55029 16.4572 5.55029 15.0435C5.55029 13.6298 6.69538 12.4847 8.10908 12.4847Z" fill="#F0D0B4"/>
<path d="M15.7853 27.1978C15.7853 27.7478 15.4336 28.2148 14.9473 28.4003C14.813 28.4516 14.6596 28.4772 14.506 28.4772C14.3523 28.4772 14.1989 28.4516 14.0646 28.4003C13.5783 28.2148 13.2266 27.7478 13.2266 27.1978C13.2266 26.6477 13.5783 26.1808 14.0646 26.0015C14.1989 25.944 14.3523 25.9184 14.506 25.9184C14.6849 25.9184 14.8514 25.9568 15.0048 26.0208C15.4593 26.2126 15.7853 26.6734 15.7853 27.1978Z" fill="#FF826E"/>
<path d="M38.1749 37.433L38.8146 39.9918H31.1382L31.7779 37.433H38.1749Z" fill="#FCD770"/>
<path d="M34.9763 27.8375L38.1748 24.639L36.8954 37.4329H33.0572L31.7778 24.639L34.9763 27.8375Z" fill="#FFEAA7"/>
<path d="M38.1748 24.639L34.9763 27.8375L31.7778 24.639H38.1748Z" fill="#FFC729"/>
<path d="M38.1748 18.1461L36.8954 19.8859L36.9529 22.0801L34.9763 21.3446L32.9998 22.0801L33.0572 19.8859L31.7778 18.1461L33.7928 17.5254L34.9763 15.715L36.1598 17.5254L38.1748 18.1461Z" fill="#FF826E"/>
<path d="M32.3353 23.0104L34.9765 22.0271L37.6178 23.0104L37.541 20.0874L39.2236 17.7988L36.5714 16.9804L34.9765 14.5441L33.3817 16.9804L30.7295 17.7988L32.4121 20.0874L32.3353 23.0104ZM34.1994 18.0668L34.9765 16.8801L35.7537 18.0668L37.1265 18.4909L36.2503 19.6826L36.289 21.15L34.9765 20.6621L33.664 21.1506L33.7028 19.6832L32.8266 18.4916L34.1994 18.0668Z" fill="black"/>
<path d="M38.6743 36.7931H37.6023L38.8817 23.9992H31.071L32.3504 36.7931H31.2784L30.3188 40.6313H39.6338L38.6743 36.7931ZM34.9763 26.9328L33.3221 25.2786H36.6305L34.9763 26.9328ZM32.5928 26.3584L34.3366 28.1023V32.3153H35.616V28.1023L37.3599 26.3584L36.3166 36.7931H35.616V33.5947H34.3366V36.7931H33.636L32.5928 26.3584ZM31.9574 39.3519L32.2773 38.0725H37.6754L37.9952 39.3519H31.9574Z" fill="black"/>
<path d="M18.3441 13.764C18.3441 14.1173 18.0577 14.4037 17.7044 14.4037C17.3511 14.4037 17.0647 14.1173 17.0647 13.764C17.0647 13.4108 17.3511 13.1243 17.7044 13.1243C18.0577 13.1243 18.3441 13.4108 18.3441 13.764Z" fill="black"/>
<path d="M11.9476 13.764C11.9476 14.1173 11.6612 14.4037 11.3079 14.4037C10.9546 14.4037 10.6682 14.1173 10.6682 13.764C10.6682 13.4108 10.9546 13.1243 11.3079 13.1243C11.6612 13.1243 11.9476 13.4108 11.9476 13.764Z" fill="black"/>
<path d="M25.2543 25.1809L18.9826 23.5074V22.386C20.2442 21.3428 21.1307 19.8663 21.4274 18.1883C22.9404 17.9362 24.1002 16.6269 24.1002 15.0435V10.0272C24.8539 9.38029 25.4877 8.5813 25.9521 7.65392L26.4147 6.72749H24.4775C23.6882 6.72749 22.9589 6.29894 22.5753 5.60802C20.986 2.74719 17.9656 0.970215 14.6928 0.970215C11.9606 0.970215 9.41402 2.1837 7.69327 4.30239C5.97252 5.22101 4.90928 6.98799 4.90928 8.94862V15.0435C4.90928 16.6269 6.06904 17.9362 7.58207 18.1889C7.87881 19.8663 8.76464 21.3428 10.0269 22.3866V23.508L3.75513 25.1809C1.79856 25.7023 0.431396 27.4811 0.431396 29.5064V40.6314H28.5781V29.5064C28.5781 27.4811 27.2109 25.7023 25.2543 25.1809ZM20.8833 25.339L19.6945 32.4703L17.5786 33.1753L18.2929 36.0345L16.0815 39.352H15.3581L17.9962 30.3066L18.9826 30.7014V24.832L20.8833 25.339ZM9.315 32.4703L8.12619 25.339L10.0269 24.832V30.7014L11.0139 30.3066L13.652 39.352H12.9286L10.7165 36.0339L11.4309 33.1743L9.315 32.4703ZM14.1005 29.0722C14.2308 29.1003 14.366 29.1169 14.5047 29.1169C14.6434 29.1169 14.7787 29.1003 14.9089 29.0722L16.8024 29.8287L14.5047 37.7069L12.2071 29.8287L14.1005 29.0722ZM17.7032 28.8117L16.1411 28.1867C16.317 27.8968 16.4238 27.5611 16.4238 27.1978C16.4238 26.8352 16.317 26.4987 16.1411 26.2089L17.7032 25.5839V28.8117ZM15.1444 27.1978C15.1444 27.5508 14.8571 27.8375 14.5047 27.8375C14.1524 27.8375 13.865 27.5508 13.865 27.1978C13.865 26.8448 14.1524 26.5581 14.5047 26.5581C14.8571 26.5581 15.1444 26.8448 15.1444 27.1978ZM12.8683 28.1867L11.3062 28.8117V25.5839L12.8683 26.2089C12.6925 26.4987 12.5856 26.8352 12.5856 27.1978C12.5856 27.5611 12.6925 27.8968 12.8683 28.1867ZM21.5414 16.8449V13.2428C22.2842 13.5077 22.8208 14.2114 22.8208 15.0442C22.8208 15.8772 22.2842 16.58 21.5414 16.8449ZM22.8208 12.5013C22.4472 12.2186 22.0168 12.0069 21.5414 11.9103V11.4659C21.9859 11.3206 22.4138 11.1363 22.8208 10.913V12.5013ZM8.39356 5.38094L8.51975 5.31753L8.65094 5.15386C10.1274 3.30817 12.3298 2.24961 14.6928 2.24961C17.5011 2.24961 20.0924 3.77451 21.4571 6.22991C22.029 7.25849 23.0832 7.92192 24.2479 7.9997C23.0735 9.60425 21.2087 10.5657 19.1694 10.5657C18.2489 10.5657 17.329 10.4526 16.436 10.2293L15.6101 10.0225C15.2719 9.21537 14.4735 8.64658 13.5452 8.64658H13.2253V9.92597H13.5452C14.0743 9.92597 14.5047 10.3564 14.5047 10.8855C14.5047 11.1413 14.4051 11.3825 14.2239 11.5643C14.0421 11.7454 13.801 11.8451 13.5452 11.8451H13.3974C12.9117 11.8451 12.4257 11.7857 11.9538 11.6673C10.9071 11.4056 9.95064 10.8643 9.18819 10.1012L8.74746 9.6611V9.28628H7.46806V11.9097C6.99266 12.0069 6.56224 12.218 6.18867 12.5007V8.94862C6.18867 7.42809 7.03358 6.06093 8.39356 5.38094ZM6.18867 15.0435C6.18867 14.2108 6.72529 13.5071 7.46806 13.2422V16.8443C6.72529 16.58 6.18867 15.8763 6.18867 15.0435ZM8.74746 16.9626V11.4112C9.588 12.1196 10.5719 12.6409 11.6433 12.9089C12.2164 13.0523 12.8071 13.1245 13.3974 13.1245H13.5452C14.1433 13.1245 14.7056 12.8918 15.1285 12.4682C15.4343 12.1624 15.6364 11.7829 15.7273 11.3709L16.1258 11.4709C17.1197 11.7192 18.1439 11.8451 19.1694 11.8451C19.5392 11.8451 19.9037 11.8182 20.262 11.767V16.9626C20.262 20.1368 17.6789 22.7199 14.5047 22.7199C11.3306 22.7199 8.74746 20.1368 8.74746 16.9626ZM14.5047 23.9993C15.6567 23.9993 16.7424 23.7154 17.7032 23.2228V24.2061L14.9089 25.3234C14.7787 25.2953 14.6434 25.2787 14.5047 25.2787C14.366 25.2787 14.2308 25.2953 14.1005 25.3234L11.3062 24.2061V23.2228C12.267 23.7154 13.3528 23.9993 14.5047 23.9993ZM1.71079 29.5064C1.71079 28.0596 2.68689 26.7889 4.08529 26.416L6.88459 25.6695L8.17991 33.4392L9.90222 34.0136L9.33718 36.2719L11.39 39.352H6.82837V31.036H5.54897V39.352H1.71079V29.5064ZM27.2987 39.352H23.4605V31.036H22.1811V39.352H17.6195L19.6723 36.2732L19.1072 34.0152L20.8295 33.4405L22.1249 25.6707L24.9242 26.4172C26.3226 26.7889 27.2987 28.0602 27.2987 29.5064V39.352Z" fill="black"/>
<path d="M14.5059 20.8008C16.2694 20.8008 17.7043 19.3659 17.7043 17.6024H16.4249C16.4249 18.6603 15.5638 19.5214 14.5059 19.5214C13.4479 19.5214 12.5868 18.6603 12.5868 17.6024H11.3074C11.3074 19.3659 12.7423 20.8008 14.5059 20.8008Z" fill="black"/>
</g>
<defs>
<clipPath id="clip0">
<rect width="39.6612" height="39.6612" fill="white" transform="translate(0.192871 0.970215)"/>
</clipPath>
</defs>
</svg>
