<svg width="41" height="42" viewBox="0 0 41 42" fill="none" xmlns="http://www.w3.org/2000/svg">
<g clip-path="url(#clip0)">
<path d="M29.5689 34.104V35.4033H26.2928C26.7637 34.8707 27.0243 34.1754 27.0243 33.4543V33.1295C27.0243 31.5116 25.7458 30.2059 24.1617 30.2059C23.5448 30.2059 22.9403 30.4137 22.4443 30.7905L20.6629 32.1549L18.8818 30.7905C18.3854 30.4137 17.7813 30.2059 17.1641 30.2059C16.3754 30.2059 15.6566 30.5307 15.1413 31.0634C14.6195 31.5896 14.3014 32.3237 14.3014 33.1295V33.4543C14.3014 34.1754 14.5623 34.8707 15.0332 35.4033H11.7568V34.104H7.93994V31.0634C7.93994 29.3874 8.98983 27.8996 10.5482 27.3667L17.4821 25.0084L20.6629 28.2568L23.8436 25.0084L30.7779 27.3667C32.3362 27.8996 33.3858 29.3874 33.3858 31.0634V34.104H29.5689Z" fill="#B4DD7F"/>
<path d="M33.3853 34.1038V38.6515C33.3853 39.0087 33.0992 39.3012 32.7491 39.3012H24.4792C23.9512 39.3012 23.4741 39.0804 23.1308 38.7296L22.9398 38.5085C22.7109 38.1836 22.5708 37.7874 22.5708 37.3522C22.5708 36.2736 23.4234 35.4031 24.4792 35.4031H29.5684V34.1038H33.3853Z" fill="#F0D0B4"/>
<path d="M18.7544 37.3522C18.7544 37.7811 18.6147 38.1836 18.3854 38.5021C18.3283 38.5802 18.2646 38.6579 18.1947 38.7296C17.8512 39.0804 17.374 39.3012 16.846 39.3012H8.57609C8.22633 39.3012 7.93994 39.0087 7.93994 38.6515V34.1038H11.7568V35.4031H16.846C17.9021 35.4031 18.7544 36.2736 18.7544 37.3522Z" fill="#F0D0B4"/>
<path d="M23.8434 23.0593V25.0084L20.6627 28.2568L17.4819 25.0084V23.0593L17.5776 22.8906C18.4936 23.4165 19.5432 23.709 20.6627 23.709C21.7824 23.709 22.832 23.4165 23.748 22.8906L23.8434 23.0593Z" fill="#F0D0B4"/>
<path d="M14.3012 17.2121C14.3012 17.6604 14.3459 18.0956 14.4285 18.5115H14.3012C13.6017 18.5115 12.9655 18.219 12.5008 17.7514C12.4884 17.7384 12.4819 17.7317 12.4757 17.7187C12.0302 17.2511 11.7566 16.6145 11.7566 15.9128C11.7566 14.477 12.8953 13.314 14.3012 13.314V17.2121Z" fill="#F0D0B4"/>
<path d="M29.5688 15.9128C29.5688 17.3485 28.4301 18.5115 27.0243 18.5115H26.8972C26.9798 18.0956 27.0243 17.6604 27.0243 17.2121V13.314C27.7241 13.314 28.3602 13.6065 28.8246 14.0741C29.2828 14.5484 29.5688 15.198 29.5688 15.9128Z" fill="#F0D0B4"/>
<path d="M27.0242 13.314V17.2121C27.0242 17.6604 26.9798 18.0956 26.8972 18.5115C26.5216 20.4022 25.345 21.9874 23.7481 22.8905C22.8321 23.4165 21.7825 23.709 20.6627 23.709C19.5433 23.709 18.4937 23.4165 17.5777 22.8905C17.0558 22.598 16.5852 22.2342 16.1653 21.8053C15.3002 20.9218 14.683 19.7849 14.4286 18.5115C14.346 18.0956 14.3013 17.6604 14.3013 17.2121V12.0147H15.5736C17.5777 12.0147 19.4606 11.0532 20.6627 9.41595C21.2607 10.2344 22.0369 10.8841 22.9085 11.326C23.7801 11.7742 24.7468 12.0147 25.7519 12.0147H27.0242V13.314Z" fill="#F0D0B4"/>
<path d="M29.5687 10.7153V15.9128C29.5687 15.198 29.2826 14.5484 28.8245 14.0741C28.3601 13.6065 27.7239 13.314 27.0241 13.314V12.0147H25.7518C24.7467 12.0147 23.78 11.7742 22.9084 11.326C22.0368 10.8841 21.2606 10.2344 20.6627 9.41593C19.4606 11.0531 17.5776 12.0147 15.5735 12.0147H14.3012V13.314C12.8953 13.314 11.7566 14.477 11.7566 15.9128V10.7153C11.7566 5.69327 15.7452 1.61975 20.6627 1.61975C23.1184 1.61975 25.3449 2.63964 26.9608 4.28351C27.673 5.01758 28.2709 5.87504 28.7102 6.81721C29.2634 7.99951 29.5687 9.32489 29.5687 10.7153Z" fill="#B27946"/>
<path d="M12.4758 17.7188C12.4056 17.8228 12.3295 17.9269 12.2404 18.0179L7.30369 23.0593L2.36734 18.0179C1.86476 17.5047 1.57837 16.803 1.57837 16.0689C1.57837 14.5484 2.7873 13.3141 4.27578 13.3141C4.99455 13.3141 5.68164 13.6066 6.18422 14.1198L7.30369 15.2631L8.42347 14.1198C8.92605 13.6066 9.61314 13.3141 10.3319 13.3141C10.8534 13.3141 11.3433 13.4765 11.7567 13.7363V15.9128C11.7567 16.6145 12.0304 17.2512 12.4758 17.7188Z" fill="#EF7385"/>
<path d="M39.7471 8.27275C39.7471 9.00681 39.461 9.70852 38.9585 10.2218L34.0218 15.2632L29.5688 10.7154C29.5688 9.32499 29.2634 7.99962 28.7102 6.81731C29.1935 6.03756 30.0331 5.51794 30.9939 5.51794C31.7126 5.51794 32.3997 5.81043 32.9023 6.3237L34.0218 7.46699L35.1416 6.3237C35.6441 5.81043 36.3312 5.51794 37.05 5.51794C38.5385 5.51794 39.7471 6.75228 39.7471 8.27275Z" fill="#EF7385"/>
<path d="M27.0242 33.1293V33.4542C27.0242 34.1752 26.7636 34.8706 26.2927 35.4032H24.4796C23.4238 35.4032 22.5712 36.2737 22.5712 37.3522C22.5712 37.7875 22.7113 38.1837 22.9402 38.5085L20.6627 40.6007L18.3853 38.5022C18.6145 38.1837 18.7543 37.7811 18.7543 37.3522C18.7543 36.2737 17.902 35.4032 16.8459 35.4032H15.0331C14.5622 34.8706 14.3013 34.1752 14.3013 33.4542V33.1293C14.3013 32.3236 14.6193 31.5895 15.1412 31.0632C15.6565 30.5306 16.3753 30.2057 17.1639 30.2057C17.7811 30.2057 18.3853 30.4135 18.8817 30.7904L20.6627 32.1548L22.4441 30.7904C22.9402 30.4135 23.5447 30.2057 24.1616 30.2057C25.7457 30.2057 27.0242 31.5115 27.0242 33.1293Z" fill="#EF7385"/>
<path d="M20.6628 19.8108C19.9611 19.8108 19.3905 19.2281 19.3905 18.5115H18.1182C18.1182 19.9447 19.2594 21.1102 20.6628 21.1102C22.0661 21.1102 23.2073 19.9447 23.2073 18.5115H21.935C21.935 19.2281 21.3644 19.8108 20.6628 19.8108Z" fill="black"/>
<path d="M18.1182 13.9638C18.1182 14.3226 17.8334 14.6135 17.4821 14.6135C17.1308 14.6135 16.8459 14.3226 16.8459 13.9638C16.8459 13.605 17.1308 13.3141 17.4821 13.3141C17.8334 13.3141 18.1182 13.605 18.1182 13.9638Z" fill="black"/>
<path d="M24.4796 13.9638C24.4796 14.3226 24.1947 14.6135 23.8434 14.6135C23.4921 14.6135 23.2073 14.3226 23.2073 13.9638C23.2073 13.605 23.4921 13.3141 23.8434 13.3141C24.1947 13.3141 24.4796 13.605 24.4796 13.9638Z" fill="black"/>
<path d="M37.0483 4.86831C36.1574 4.86831 35.3197 5.22233 34.6901 5.86567L34.0213 6.54834L33.3528 5.86567C32.7229 5.22233 31.8858 4.86831 30.9946 4.86831C30.183 4.86831 29.4232 5.17094 28.8278 5.69913C27.156 2.87104 24.1268 0.970215 20.6622 0.970215C15.4006 0.970215 11.12 5.34193 11.12 10.7154V12.7711C10.8613 12.7048 10.5972 12.6645 10.3301 12.6645C9.43925 12.6645 8.60151 13.0185 7.97188 13.6619L7.30312 14.3445L6.63467 13.6619C6.00473 13.0185 5.16762 12.6645 4.27645 12.6645C2.4379 12.6645 0.94165 14.1926 0.94165 16.0702C0.94165 16.9797 1.2883 17.8353 1.91824 18.4786L7.30312 23.9781L12.5495 18.6201C12.953 18.8929 13.4229 19.0614 13.9261 19.1223C14.3868 20.8147 15.4395 22.2552 16.8453 23.1939V24.5399L10.3478 26.7523C8.52727 27.3721 7.30312 29.1061 7.30312 31.0662V38.6518C7.30312 39.3684 7.87373 39.9511 8.57541 39.9511H16.8453C17.4333 39.9511 17.9682 39.738 18.3997 39.395L20.6622 41.4754L22.9244 39.395C23.3559 39.738 23.8914 39.9511 24.4791 39.9511H32.749C33.4507 39.9511 34.0213 39.3684 34.0213 38.6518V31.0662C34.0213 29.1054 32.7975 27.3715 30.9769 26.7523L24.4791 24.5399V23.1939C25.885 22.2552 26.9373 20.8141 27.3986 19.1223C28.9741 18.9307 30.2044 17.573 30.2044 15.9129V12.2838L34.0213 16.1819L39.4065 10.6825C40.0361 10.0391 40.3828 9.18355 40.3828 8.27406C40.3828 6.39639 38.8865 4.86831 37.0483 4.86831ZM20.6622 2.26958C25.2221 2.26958 28.9321 6.05855 28.9321 10.7154V13.331C28.5606 13.0439 28.1326 12.8288 27.6598 12.7308V10.7154H26.3875V11.3651H25.7514C23.9594 11.3651 22.247 10.4905 21.1713 9.02557L20.6622 8.3337L20.1534 9.02557C19.0777 10.4905 17.3653 11.3651 15.573 11.3651H14.9369V10.7154H13.6646V12.7302C13.1921 12.8288 12.7638 13.0433 12.3923 13.3304V10.7154C12.3923 6.05855 16.1023 2.26958 20.6622 2.26958ZM2.81779 17.5599C2.42827 17.1621 2.21394 16.6327 2.21394 16.0702C2.21394 14.9086 3.13897 13.9639 4.27645 13.9639C4.82718 13.9639 5.34591 14.1827 5.73512 14.5805L7.30312 16.1819L8.87143 14.5805C9.45136 13.9886 10.3522 13.8094 11.12 14.1348V15.9129C11.12 16.5737 11.3166 17.1875 11.6499 17.7014L7.30312 22.1407L2.81779 17.5599ZM12.3923 15.9129C12.3923 15.0672 12.9263 14.3525 13.6646 14.0835V17.2123C13.6646 17.394 13.6779 17.5723 13.6913 17.7509C12.939 17.4895 12.3923 16.7685 12.3923 15.9129ZM16.8453 38.6518H8.57541V34.7537H11.12V36.053H16.8453C17.547 36.053 18.1176 36.6358 18.1176 37.3524C18.1176 38.069 17.547 38.6518 16.8453 38.6518ZM19.1865 38.3698C19.3169 38.0573 19.3899 37.7137 19.3899 37.3524C19.3899 35.9192 18.2487 34.7537 16.8453 34.7537H15.3485C15.0866 34.373 14.9369 33.9222 14.9369 33.4518V33.1295C14.9369 31.8755 15.9358 30.8556 17.1634 30.8556C17.6424 30.8556 18.1164 31.0174 18.5 31.3105L20.6622 32.9671L22.8254 31.3105C23.208 31.0174 23.682 30.8556 24.161 30.8556C25.3889 30.8556 26.3875 31.8755 26.3875 33.1295V33.4518C26.3875 33.9222 26.2381 34.373 25.976 34.7537H24.4791C23.0757 34.7537 21.9345 35.9192 21.9345 37.3524C21.9345 37.7137 22.0078 38.0573 22.1383 38.3698L20.6622 39.7262L19.1865 38.3698ZM24.4791 38.6518C23.7774 38.6518 23.2068 38.069 23.2068 37.3524C23.2068 36.6358 23.7774 36.053 24.4791 36.053H30.2044V34.7537H32.749V38.6518H24.4791ZM30.574 27.9847C31.8749 28.4278 32.749 29.666 32.749 31.0662V33.4543H30.2044V30.8556H28.9321V34.7537H27.4175C27.5753 34.3426 27.6598 33.9019 27.6598 33.4518V33.1295C27.6598 31.1595 26.09 29.5562 24.161 29.5562C23.4087 29.5562 22.6635 29.8103 22.0619 30.2716L20.6622 31.3428L19.2635 30.2716C18.6609 29.8103 17.916 29.5562 17.1634 29.5562C15.2348 29.5562 13.6646 31.1595 13.6646 33.1295V33.4518C13.6646 33.9019 13.7494 34.3426 13.9072 34.7537H12.3923V30.8556H11.12V33.4543H8.57541V31.0662C8.57541 29.666 9.4495 28.4272 10.7504 27.9847L17.3097 25.7517L20.6622 29.1756L24.0147 25.7517L30.574 27.9847ZM23.2068 24.7394L20.6622 27.3382L18.1176 24.7394V23.8623C18.9078 24.1789 19.7642 24.3588 20.6622 24.3588C21.5605 24.3588 22.4169 24.1789 23.2068 23.8623V24.7394ZM20.6622 23.0594C17.5051 23.0594 14.9369 20.4366 14.9369 17.2123V12.6645H15.573C17.4995 12.6645 19.3498 11.8387 20.6622 10.4217C21.9746 11.8387 23.8252 12.6645 25.7514 12.6645H26.3875V17.2123C26.3875 20.4366 23.8196 23.0594 20.6622 23.0594ZM27.6331 17.7509C27.6465 17.5723 27.6598 17.394 27.6598 17.2123V14.0835C28.3985 14.3525 28.9321 15.0672 28.9321 15.9129C28.9321 16.7685 28.3857 17.4895 27.6331 17.7509ZM38.5069 9.76376L34.0213 14.3445L30.1904 10.4322C30.1556 9.18926 29.9003 8.00093 29.4487 6.91601C29.8382 6.45032 30.3895 6.16767 30.9946 6.16767C31.5454 6.16767 32.0641 6.38656 32.4533 6.78436L34.0213 8.38573L35.5896 6.78436C35.9788 6.38656 36.4972 6.16767 37.0483 6.16767C38.1858 6.16767 39.1105 7.11237 39.1105 8.27406C39.1105 8.83651 38.8961 9.36596 38.5069 9.76376Z" fill="black"/>
</g>
<defs>
<clipPath id="clip0">
<rect width="39.6612" height="40.5051" fill="white" transform="translate(0.80127 0.970215)"/>
</clipPath>
</defs>
</svg>
