<svg width="42" height="42" viewBox="0 0 42 42" fill="none" xmlns="http://www.w3.org/2000/svg">
<g clip-path="url(#clip0)">
<path d="M21.3262 1.57465C26.6757 1.57465 31.0173 3.59687 31.0173 6.09719C31.0173 8.5975 26.6757 10.6197 21.3262 10.6197C15.9766 10.6197 11.635 8.5975 11.635 6.09719C11.635 3.59687 15.9766 1.57465 21.3262 1.57465ZM28.3749 6.09719C27.858 5.45111 25.4029 4.15895 21.3262 4.15895C17.2494 4.15895 14.7943 5.45111 14.2775 6.09719C14.7943 6.74326 17.2494 8.03542 21.3262 8.03542C25.4029 8.03542 27.858 6.74326 28.3749 6.09719Z" fill="#FCD770"/>
<path d="M10.3426 28.0638C8.20409 28.0638 6.46614 26.3259 6.46614 24.1874V23.9677C4.96078 23.4379 3.88183 21.9972 3.88183 20.3109V19.7876C3.58464 19.6196 3.31975 19.4129 3.0807 19.1738C2.37648 18.4761 1.9436 17.5069 1.9436 16.4344H11.3182C12.3196 16.4344 13.2758 16.8156 13.9929 17.5005H13.9994C13.3146 18.7151 12.9269 20.1106 12.9269 21.6031V21.7387C12.9269 23.341 13.3856 24.9045 14.2384 26.2484L15.3949 28.0638H10.3426Z" fill="#E6E9ED"/>
<path d="M38.7702 19.7876V20.3109C38.7702 21.9972 37.6912 23.4379 36.1859 23.9677V24.1874C36.1859 26.3259 34.4479 28.0638 32.3094 28.0638H27.2571L28.4136 26.2484C29.2664 24.9045 29.7251 23.341 29.7251 21.7387V21.6031C29.7251 20.1106 29.3374 18.7151 28.6526 17.5005H28.6591C29.3762 16.8156 30.3324 16.4344 31.3338 16.4344H40.7084C40.7084 17.5069 40.2755 18.4761 39.5713 19.1738C39.3322 19.4129 39.0674 19.6196 38.7702 19.7876Z" fill="#E6E9ED"/>
<path d="M16.8489 36.4628H25.8035C25.4869 38.653 23.6068 40.3392 21.3262 40.3392C20.1891 40.3392 19.1425 39.9193 18.3542 39.2215C17.5531 38.5302 17.0104 37.5611 16.8489 36.4628Z" fill="#CF9E76"/>
<path d="M26.4946 33.8784C27.2053 33.8784 27.7868 34.4599 27.7868 35.1706C27.7868 35.5259 27.6446 35.849 27.4056 36.0815C27.173 36.3206 26.85 36.4627 26.4946 36.4627H25.8033H16.8487H16.1574C15.4467 36.4627 14.8652 35.8813 14.8652 35.1706C14.8652 34.8152 15.0074 34.4922 15.2464 34.2596C15.479 34.0206 15.802 33.8784 16.1574 33.8784H26.4946Z" fill="#CF9E76"/>
<path d="M26.4949 31.2941C27.2056 31.2941 27.787 31.8756 27.787 32.5863C27.787 32.9416 27.6449 33.2647 27.4058 33.4973C27.1732 33.7363 26.8502 33.8784 26.4949 33.8784H16.1576C15.4469 33.8784 14.8655 33.297 14.8655 32.5863C14.8655 32.2309 15.0076 31.9079 15.2467 31.6753C15.4793 31.4363 15.8023 31.2941 16.1576 31.2941H17.2753H25.3772H26.4949Z" fill="#CF9E76"/>
<path d="M25.3769 31.2941H17.2751C17.1782 30.9581 17.0296 30.6415 16.8422 30.3443L15.395 28.0637L14.2385 26.2482C13.3857 24.9044 12.927 23.3409 12.927 21.7386V21.6029C12.927 20.1105 13.3146 18.715 13.9995 17.5003C15.4338 14.9354 18.1796 13.2039 21.326 13.2039C24.4724 13.2039 27.2182 14.9354 28.6525 17.5003C29.3374 18.715 29.725 20.1105 29.725 21.6029V21.7386C29.725 23.3409 29.2663 24.9044 28.4135 26.2482L27.257 28.0637L25.8098 30.3443C25.6224 30.6415 25.4738 30.9581 25.3769 31.2941Z" fill="#FCD770"/>
<path d="M27.3566 19.2842C27.1848 18.839 26.9625 18.4107 26.6957 18.0127L25.6226 18.7324C25.8364 19.0509 26.0141 19.3927 26.151 19.7487L27.3566 19.2842Z" fill="black"/>
<path d="M25.8669 24.2106L27.0021 24.8283C27.2308 24.407 27.413 23.9606 27.5429 23.5012L26.2998 23.1491C26.1958 23.5161 26.0504 23.8734 25.8669 24.2106Z" fill="black"/>
<path d="M26.4948 21.603V21.7413C26.4948 21.8343 26.4922 21.9273 26.4877 22.0197L27.7779 22.0869C27.7837 21.9713 27.7869 21.8569 27.7869 21.7413V21.603C27.7869 21.2909 27.7643 20.977 27.7197 20.6707L26.4412 20.8561C26.4767 21.1016 26.4948 21.3523 26.4948 21.603Z" fill="black"/>
<path d="M16.9656 24.5161C16.4371 23.6859 16.1574 22.7265 16.1574 21.7412V21.603H14.8652V21.7412C14.8652 22.972 15.2148 24.1718 15.8751 25.21L17.089 27.1185L18.1796 26.4253L16.9656 24.5161Z" fill="black"/>
<path d="M17.9233 28.415L19.0139 27.7211L19.8362 29.0134L18.7456 29.7073L17.9233 28.415Z" fill="black"/>
<path d="M21.326 19.0188C22.0386 19.0188 22.6182 19.5983 22.6182 20.3109H23.9103C23.9103 19.1105 23.0833 18.1071 21.9721 17.8183V16.4344H20.6799V17.7266H18.7417V20.3109C18.7417 21.7362 19.9008 22.8952 21.326 22.8952C22.0386 22.8952 22.6182 23.4747 22.6182 24.1874V25.4795H21.326C20.6134 25.4795 20.0339 24.9 20.0339 24.1874H18.7417C18.7417 25.3878 19.5687 26.3911 20.6799 26.6799V28.0638H21.9721V26.7717H23.9103V24.1874C23.9103 22.7621 22.7513 21.6031 21.326 21.6031C20.6134 21.6031 20.0339 21.0235 20.0339 20.3109V19.0188H21.326Z" fill="black"/>
<path d="M21.3264 8.68143C25.5601 8.68143 28.2052 7.34341 28.8784 6.50028L29.2001 6.09713L28.8784 5.69397C28.2052 4.85084 25.5601 3.51282 21.3264 3.51282C17.0926 3.51282 14.4476 4.85084 13.7744 5.69397L13.4526 6.09713L13.7744 6.50028C14.4476 7.34341 17.0926 8.68143 21.3264 8.68143ZM21.3264 4.80497C24.3939 4.80497 26.4181 5.55054 27.3426 6.09713C26.4181 6.64371 24.3939 7.38928 21.3264 7.38928C18.2588 7.38928 16.2346 6.64371 15.3101 6.09713C16.2346 5.55054 18.2588 4.80497 21.3264 4.80497Z" fill="black"/>
<path d="M21.326 11.2658C27.1226 11.2658 31.6632 8.99545 31.6632 6.09714C31.6632 3.19884 27.1226 0.928528 21.326 0.928528C15.5294 0.928528 10.9888 3.19884 10.9888 6.09714C10.9888 8.99545 15.5294 11.2658 21.326 11.2658ZM21.326 2.22068C26.6561 2.22068 30.3711 4.26358 30.3711 6.09714C30.3711 7.93071 26.6561 9.97361 21.326 9.97361C15.9959 9.97361 12.2809 7.93071 12.2809 6.09714C12.2809 4.26358 15.9959 2.22068 21.326 2.22068Z" fill="black"/>
<path d="M31.3305 15.7883C30.4279 15.7883 29.5615 16.0564 28.8244 16.5494C27.1975 14.1427 24.4433 12.5579 21.326 12.5579C18.2087 12.5579 15.4544 14.1427 13.8276 16.5494C13.0898 16.0564 12.2241 15.7883 11.3215 15.7883H1.29761V16.4344C1.29761 17.9675 2.06579 19.3223 3.23584 20.1403V20.3108C3.23584 22.1147 4.29993 23.6704 5.83048 24.396C5.94096 26.7923 7.91925 28.7098 10.3427 28.7098H15.039L16.2724 30.6481H16.1574C15.0888 30.6481 14.2191 31.5177 14.2191 32.5863C14.2191 33.0844 14.4136 33.5347 14.7231 33.8785C14.413 34.2222 14.2191 34.6725 14.2191 35.1706C14.2191 36.2392 15.0888 37.1088 16.1574 37.1088H16.3241C16.9049 39.3533 18.962 40.9853 21.326 40.9853C23.69 40.9853 25.7465 39.3533 26.3279 37.1088H26.4946C27.5632 37.1088 28.4328 36.2392 28.4328 35.1706C28.4328 34.6725 28.2384 34.2222 27.9289 33.8785C28.239 33.5347 28.4328 33.0844 28.4328 32.5863C28.4328 31.5177 27.5632 30.6481 26.4946 30.6481H26.3796L27.613 28.7098H32.3093C34.7327 28.7098 36.711 26.7923 36.8215 24.396C38.3521 23.6704 39.4161 22.1147 39.4161 20.3108V20.1403C40.5862 19.3217 41.3544 17.9669 41.3544 16.4344V15.7883H31.3305ZM10.3427 27.4177C8.7682 27.4177 7.45731 26.2838 7.17303 24.7914C7.36556 24.8159 7.55939 24.8334 7.75838 24.8334H10.9888V23.5412H7.75838C6.13737 23.5412 4.80451 22.3369 4.57516 20.7786C4.9712 20.8923 5.38792 20.9569 5.82015 20.9569H8.40445V19.6648H5.82015C4.25987 19.6648 2.95479 18.5529 2.65502 17.0805H11.3215C11.9992 17.0805 12.6427 17.2988 13.1861 17.6858C12.6117 18.8733 12.2809 20.1984 12.2809 21.603V21.7413C12.2809 23.4643 12.77 25.1435 13.6945 26.5978L14.2166 27.4177H10.3427ZM21.326 39.6932C19.6682 39.6932 18.2145 38.6226 17.675 37.1088H24.9763C24.4375 38.6226 22.9838 39.6932 21.326 39.6932ZM26.4946 35.8167H16.1574C15.8014 35.8167 15.5113 35.5266 15.5113 35.1706C15.5113 34.8146 15.8014 34.5245 16.1574 34.5245H26.4946C26.8506 34.5245 27.1407 34.8146 27.1407 35.1706C27.1407 35.5266 26.8506 35.8167 26.4946 35.8167ZM27.1407 32.5863C27.1407 32.9423 26.8506 33.2324 26.4946 33.2324H16.1574C15.8014 33.2324 15.5113 32.9423 15.5113 32.5863C15.5113 32.2303 15.8014 31.9402 16.1574 31.9402H26.4946C26.8506 31.9402 27.1407 32.2303 27.1407 32.5863ZM17.7228 30.6481C17.6266 30.42 17.5187 30.1997 17.3882 29.9949L14.7845 25.9039C13.9924 24.6577 13.5731 23.2182 13.5731 21.7413V21.603C13.5731 17.3279 17.0509 13.8501 21.326 13.8501C25.6011 13.8501 29.0789 17.3279 29.0789 21.603V21.7413C29.0789 23.2182 28.6596 24.6577 27.8669 25.9033L25.2632 29.9949C25.1333 30.1997 25.0254 30.42 24.9285 30.6481H17.7228ZM36.8318 19.6648H34.2475V20.9569H36.8318C37.2641 20.9569 37.6808 20.8923 38.0768 20.7786C37.8475 22.3369 36.5146 23.5412 34.8936 23.5412H31.6632V24.8334H34.8936C35.0926 24.8334 35.2864 24.8159 35.479 24.7914C35.1947 26.2838 33.8838 27.4177 32.3093 27.4177H28.4354L28.9575 26.5972C29.882 25.1435 30.3711 23.4643 30.3711 21.7413V21.603C30.3711 20.1984 30.0403 18.8733 29.4666 17.6858C30.0099 17.2988 30.6534 17.0805 31.3305 17.0805H39.997C39.6972 18.5529 38.3921 19.6648 36.8318 19.6648Z" fill="black"/>
</g>
<defs>
<clipPath id="clip0">
<rect width="41.3489" height="41.3489" fill="white" transform="translate(0.651855 0.282471)"/>
</clipPath>
</defs>
</svg>
