<svg width="351" height="106" viewBox="0 0 351 106" fill="none" xmlns="http://www.w3.org/2000/svg">
<g clip-path="url(#clip0)">
<path d="M156.996 0H158.587C165.022 0.233852 171.326 2.89248 175.902 7.36633C180.917 12.1718 183.843 19.0129 183.799 25.9096C180.106 25.9154 176.413 25.9135 172.72 25.9115C172.771 19.3675 168.242 12.9884 161.848 11.0677C158.725 10.0997 155.265 10.2703 152.249 11.5143C148.64 12.9826 145.692 15.8866 144.082 19.379C142.629 22.4574 142.318 25.9997 143.032 29.3081C143.619 32.1259 145.191 34.7346 147.454 36.5595C150.206 38.7427 153.385 40.326 156.633 41.662C160.475 43.2434 164.329 44.796 168.152 46.4253C170.76 47.493 173.309 48.7408 175.588 50.397C182.299 55.1507 186.933 62.6397 188.135 70.7018C189.033 76.5289 188.172 82.611 185.671 87.9666C183.445 92.7663 179.935 96.9756 175.598 100.067C170.966 103.393 165.381 105.402 159.666 105.808C158.108 106.027 156.524 105.998 154.968 105.793C147.837 105.275 140.951 102.193 135.825 97.2881C130.631 92.3753 127.244 85.6357 126.495 78.5723C130.229 78.5703 133.962 78.5684 137.696 78.5742C138.672 84.1789 142.11 89.3141 146.956 92.4002C150.289 94.5432 154.301 95.6626 158.282 95.4632C162.324 95.2907 166.27 93.7803 169.436 91.3076C173.852 87.8937 176.782 82.6666 177.302 77.1519C177.698 73.2109 176.841 69.1626 174.886 65.7027C172.932 62.2065 169.873 59.3178 166.239 57.5544C161.288 55.3174 156.209 53.3738 151.207 51.2576C147.538 49.7012 144.012 47.7748 140.854 45.3538C138.075 43.2012 135.753 40.4602 134.186 37.3339C132.453 33.9066 131.639 30.071 131.582 26.2546C131.411 19.4998 134.11 12.7468 138.886 7.90495C143.567 3.06307 150.217 0.17443 156.996 0Z" fill="black"/>
<path d="M214.567 0H216.545C220.887 0.25302 225.118 2.04716 228.247 5.03356C231.767 8.32857 233.873 13.0401 233.924 17.8283C233.929 20.5349 233.929 23.2414 233.926 25.946C230.231 25.948 226.538 25.9518 222.845 25.9441C222.828 23.3622 222.861 20.7802 222.83 18.1983C222.738 15.992 222.209 13.6305 220.576 12.0146C219.055 10.4965 216.766 10.0422 214.674 10.186C212.694 10.301 210.763 11.2019 209.482 12.7027C207.847 14.5736 207.215 17.1153 207.267 19.5439C207.316 22.7488 207.067 25.992 207.728 29.1548C208.267 31.9208 209.468 34.5545 211.205 36.7914C213.568 39.866 216.638 42.2907 219.403 44.9896C222.065 47.5352 224.698 50.1363 226.898 53.0882C229.047 55.9461 230.76 59.1262 231.899 62.5017C233.346 66.7474 233.916 71.2424 233.927 75.7085C233.929 78.8425 233.927 81.9765 233.929 85.1105C233.916 87.0964 234.007 89.0956 233.682 91.0661C233.148 94.6946 231.51 98.2005 228.856 100.794C225.931 103.698 221.904 105.385 217.801 105.787C217.13 105.898 216.455 105.958 215.78 106H215.331C212.877 105.812 210.408 105.385 208.15 104.38C203.881 102.544 200.383 99.0515 198.581 94.8192C197.571 92.4864 197.087 89.9409 197.132 87.405C197.134 81.0009 197.128 74.5949 197.136 68.1908C200.825 68.208 204.543 68.139 208.214 68.2253C208.224 74.1751 208.216 80.1249 208.218 86.0766C208.208 88.072 208.556 90.1153 209.548 91.8769C210.361 93.3375 211.677 94.5566 213.288 95.1125C215.456 95.883 218.027 95.4594 219.782 93.972C221.614 92.4539 222.511 90.1058 222.756 87.8094C222.915 86.2146 222.816 84.6102 222.843 83.0116C222.839 80.3875 222.853 77.7634 222.837 75.1392C222.775 70.9491 222.013 66.6957 220.055 62.9425C218.31 59.5402 215.675 56.6956 212.939 54.0447C209.634 50.8493 206.205 47.7268 203.5 44.0005C200.41 39.8315 198.4 34.9129 197.624 29.8103C196.97 25.9135 197.155 21.9514 197.132 18.0162C197.14 13.9678 198.592 9.94637 201.171 6.79703C204.391 2.79089 209.391 0.264521 214.567 0Z" fill="black"/>
<path d="M293.308 0H293.325C308.616 28.0929 323.893 56.1915 339.179 84.2863C343.072 91.4264 346.934 98.5858 350.851 105.712C350.887 105.712 350.963 105.711 351 105.709V106H338.183C336.799 103.138 335.195 100.365 333.726 97.5353C330.341 91.2079 326.973 84.869 323.578 78.5473C303.396 78.5416 283.215 78.5435 263.036 78.5473C258.317 87.3091 253.634 96.0939 248.93 104.865C248.687 105.231 248.574 105.693 248.257 106H235.693C235.701 105.636 235.946 105.356 236.1 105.042C255.169 70.0271 274.247 35.0183 293.308 0ZM268.584 68.1505C285.067 68.1505 301.551 68.1563 318.035 68.1486C309.79 53.3527 301.559 38.5529 293.322 23.7532C285.065 38.5453 276.831 53.3527 268.584 68.1505Z" fill="black"/>
<path d="M21.3925 10.7023C29.1962 4.86941 38.6509 1.20637 48.4011 0.280551C57.107 -0.572433 66.025 0.694584 74.1106 3.99726C79.7966 6.30894 85.0743 9.59437 89.6363 13.6599C87.0325 16.2361 84.4228 18.8047 81.8132 21.3732C79.3046 19.2225 76.5589 17.3345 73.6186 15.801C66.9389 12.2856 59.2889 10.6045 51.7283 10.963C43.5726 11.3099 35.5473 14.0625 28.922 18.7606C22.0323 23.6178 16.6438 30.5222 13.7055 38.3581C10.7322 46.2113 10.25 54.9482 12.3015 63.0793C13.9369 69.6061 17.2097 75.7207 21.7309 80.7524C25.7737 85.2742 30.8083 88.9334 36.3971 91.383C44.7355 95.0691 54.2913 95.9662 63.1936 93.9497C70.0756 92.4162 76.5103 89.1097 81.8229 84.5477C84.4248 87.122 87.0364 89.6828 89.6344 92.259C80.7203 100.241 69.006 105.123 56.9768 105.798C54.8396 106.018 52.6792 106.029 50.5421 105.805C40.891 105.268 31.4169 102.069 23.4499 96.6754C14.8431 90.8866 7.99619 82.5906 4.0331 73.087C1.52651 67.1391 0.198349 60.7331 0 54.3022V51.6455C0.167236 46.3589 1.07147 41.0838 2.80217 36.0714C6.22272 26.0272 12.8091 17.0738 21.3925 10.7023Z" fill="black"/>
<path d="M96.8625 26.0966C104.861 25.3778 113.079 28.4045 118.663 34.0878C124.048 39.4396 126.961 47.0935 126.44 54.6189C126.026 61.9124 122.389 68.9356 116.695 73.5992C110.895 78.4487 102.978 80.6991 95.4488 79.6429C88.6116 78.7554 82.208 75.1576 77.8949 69.8614C74.7719 66.068 72.7242 61.4217 72.0708 56.5779C71.3008 51.0536 72.3198 45.2993 74.9839 40.3769C77.7296 35.2418 82.2022 31.0286 87.5324 28.5617C90.459 27.1988 93.6364 26.3592 96.8625 26.0966ZM96.5611 37.1337C92.1313 37.8161 88.0671 40.4268 85.6053 44.1166C83.2328 47.6072 82.3675 52.0408 83.2348 56.1542C83.9835 59.8269 86.1089 63.2005 89.0958 65.5141C91.7774 67.6187 95.1532 68.8455 98.5796 68.9548C102.072 69.0851 105.596 68.0615 108.452 66.0776C111.603 63.9174 113.938 60.6262 114.891 56.9593C115.813 53.4707 115.494 49.6735 113.981 46.3881C112.448 43.0164 109.693 40.2044 106.331 38.577C103.332 37.1068 99.865 36.6046 96.5611 37.1337Z" fill="black"/>
</g>
<defs>
<clipPath id="clip0">
<rect width="351" height="106" fill="white"/>
</clipPath>
</defs>
</svg>
