<svg width="202" height="44" viewBox="0 0 202 44" fill="none" xmlns="http://www.w3.org/2000/svg">
<g clip-path="url(#clip0)">
<path d="M95.0616 2.71867C99.3274 2.08377 103.573 1.30806 107.811 0.522461C107.715 5.03594 107.723 9.54942 107.735 14.0654C109.886 12.9537 112.289 12.4102 114.707 12.2867C117.312 12.4028 119.957 13.223 121.901 14.9844C124.867 17.44 126.296 21.2691 126.457 24.9921C126.611 28.7966 125.892 32.7937 123.602 35.9534C121.081 39.5652 116.686 41.6601 112.289 41.9664C109.828 42.4877 107.354 41.917 104.891 41.7836C102.937 41.6255 101.051 41.045 99.0977 40.9066C99.1406 30.9952 99.2517 21.0839 99.1355 11.1725C99.0068 8.99357 99.5217 6.25386 97.6059 4.66538C96.8789 4.13917 95.9324 4.15152 95.0767 4.03047C95.0666 3.59321 95.0616 3.15594 95.0616 2.71867ZM107.72 15.9651C107.642 23.9051 107.662 31.8426 107.819 39.7801C108.851 39.9061 109.896 40.0123 110.939 39.9283C112.309 39.8567 113.427 38.9179 114.26 37.9248C116.047 35.6594 116.742 32.7789 117.12 29.9947C117.703 26.8153 117.421 23.5074 116.439 20.4317C115.861 18.5813 114.75 16.7483 112.91 15.8836C111.282 15.0461 109.379 15.4513 107.72 15.9651Z" fill="#1F191A"/>
<path d="M11.5824 1.38125C23.0168 1.38125 34.4538 1.35161 45.8908 1.3936C45.9211 5.09925 45.9034 8.80242 45.9665 12.5056C45.3658 12.6884 44.7701 12.8786 44.1769 13.0787C43.1571 10.7936 42.2914 8.3281 40.421 6.55186C39.0125 5.09925 37.0058 4.20742 34.9536 4.18766C32.3739 4.13578 29.7942 4.18766 27.217 4.18025C27.0782 9.53614 26.9924 14.8945 26.9848 20.2504C29.1834 20.0799 31.5132 20.5987 33.6007 19.7267C35.519 18.7632 36.034 16.5176 36.5615 14.6524C37.0966 14.6499 37.6292 14.6475 38.1618 14.6425C38.177 19.1585 38.177 23.6719 38.1618 28.1879C37.6318 28.183 37.1017 28.1805 36.5741 28.183C36.0441 26.3178 35.5342 24.0573 33.6007 23.1037C31.5207 22.2169 29.1834 22.7777 26.9873 22.5899C27.0025 26.1201 27.0454 29.6529 27.1918 33.1806C27.2473 34.364 27.4897 35.535 27.8405 36.6689C28.1939 37.7262 28.8603 38.8305 30.0138 39.1739C31.1825 39.5371 32.4042 39.7125 33.6108 39.92C33.5931 40.4141 33.5754 40.9081 33.5628 41.4047C26.2402 41.4195 18.9201 41.4047 11.5975 41.4121C11.5874 40.9032 11.5773 40.3918 11.5647 39.8829C12.9681 39.5371 14.5584 39.4802 15.7296 38.5662C17.0749 37.2074 17.3122 35.194 17.3678 33.3881C17.3678 31.9627 17.6833 30.5595 17.6757 29.1365C17.7388 23.7288 17.7439 18.3235 17.6858 12.9182C17.6984 11.5051 17.3854 10.1192 17.345 8.71102C17.2643 7.125 16.9513 5.40558 15.8002 4.20496C14.6997 3.13032 13.0464 3.03397 11.5849 2.97962C11.5824 2.44601 11.5824 1.91239 11.5824 1.38125Z" fill="#1F191A"/>
<path d="M55.0006 12.0716C58.8045 11.7306 62.8709 12.3112 65.9959 14.6013C68.9693 16.6567 70.6327 20.0758 71.2562 23.5072C71.5213 25.7281 71.5465 27.991 71.2638 30.2119C70.6479 33.5322 68.9744 36.7487 66.2558 38.8856C64.5394 40.2864 62.4545 41.2202 60.2837 41.6994C58.2997 42.0255 56.2652 42.4208 54.2635 41.9885C50.8635 41.6896 47.4887 40.2345 45.2699 37.6455C42.7458 34.7081 41.6427 30.7752 41.8017 26.9806C41.6831 23.7567 42.6499 20.4908 44.5278 17.8376C46.9031 14.5025 50.8887 12.4174 55.0006 12.0716ZM55.0082 14.0726C53.2261 14.6779 52.3628 16.5134 51.8302 18.1488C51.2042 20.3772 50.8938 22.6944 50.8988 25.0067C50.8786 27.3882 50.7827 29.7969 51.2421 32.1488C51.6359 34.5154 52.224 37.0007 53.8571 38.8659C54.8769 40.0566 56.6463 40.5952 58.1482 40.0146C59.7385 39.518 60.6396 37.9987 61.2025 36.5609C61.9976 34.2783 62.3005 31.8548 62.3131 29.451C62.3308 26.3704 62.4772 23.2354 61.6922 20.2215C61.2908 18.4156 60.6472 16.5776 59.3523 15.1892C58.2896 14.0356 56.5151 13.4772 55.0082 14.0726Z" fill="#1F191A"/>
<path d="M90.6215 12.4418C92.5525 11.6908 95.0413 11.466 96.7401 12.8321C95.9551 15.4063 94.8091 17.8669 93.7717 20.3546C91.6741 19.4553 89.3443 18.6228 87.0372 19.2454C86.0477 19.5048 84.6342 19.9025 84.5686 21.1081C84.4651 23.7243 84.5004 26.3429 84.4979 28.9591C84.513 31.5456 84.5181 34.1396 84.874 36.7064C85.0709 37.5908 85.2274 38.6432 86.0705 39.1793C87.2013 39.8759 88.5946 39.7574 89.8718 39.8833C89.8517 40.3898 89.834 40.8987 89.8163 41.4076C83.7836 41.4101 77.7483 41.4224 71.7155 41.4002C71.7004 40.916 71.6852 40.4293 71.665 39.9451C72.811 39.7351 74.1539 39.661 74.9717 38.742C75.7668 37.7193 75.8829 36.3803 75.9233 35.1426C76.0243 30.1968 76.0975 25.2485 75.9385 20.3052C75.888 19.0477 75.787 17.7013 75.0348 16.6341C74.222 15.7003 72.8463 15.8115 71.718 15.6608C71.7054 15.2853 71.6903 14.9098 71.6802 14.5342C74.4214 13.8672 77.2207 13.4744 79.9796 12.8815C81.5699 12.5974 83.1525 12.254 84.7655 12.1157C84.8387 14.2724 84.6342 16.4192 84.5433 18.5734C85.9569 16.0634 87.7818 13.5115 90.6215 12.4418Z" fill="#1F191A"/>
<path d="M135.731 14.2133C138.891 12.1826 142.849 11.6638 146.542 12.1678C149.616 12.6545 152.496 14.4505 154.023 17.1383C155.614 19.6853 156.096 22.7141 156.013 25.6588C150.005 25.6514 143.995 25.6662 137.987 25.6539C137.899 28.0922 138.29 30.5775 139.373 32.791C140.481 35.0069 142.531 36.7609 144.957 37.4625C146.512 37.9888 148.188 37.964 149.811 37.8702C151.716 37.7837 153.395 36.798 155 35.8839C155.258 36.2026 155.515 36.5213 155.778 36.8375C152.832 40.4073 148.099 42.2231 143.48 42.1662C141.685 41.9612 139.863 41.7463 138.174 41.0743C132.924 39.1894 129.221 33.915 129.196 28.4578C129.158 26.2888 129.12 24.0555 129.862 21.9803C130.862 18.8503 132.881 15.9871 135.731 14.2133ZM142.377 14.0033C140.85 14.5666 139.926 16.0118 139.303 17.4076C138.482 19.3864 138.073 21.5159 137.967 23.6429C140.024 23.5787 142.087 23.6825 144.139 23.4873C145.161 23.4107 146.188 23.4231 147.213 23.4256C147.183 21.9705 147.191 20.503 146.898 19.0702C146.613 17.4842 146.247 15.7722 145.035 14.5938C144.366 13.9045 143.283 13.6278 142.377 14.0033Z" fill="#1F191A"/>
<path d="M168.363 12.0872C172.092 11.8031 175.923 12.1465 179.409 13.5349C179.439 16.0127 179.49 18.4906 179.52 20.9684C179.084 21.0499 178.649 21.1315 178.22 21.213C177.296 18.9896 176.35 16.5636 174.252 15.1407C172.591 14.0512 170.274 13.5621 168.467 14.6046C166.107 15.8447 165.728 19.5306 167.843 21.1661C170.845 23.5723 174.904 24.0886 178.033 26.2873C179.533 27.3668 180.777 28.985 180.921 30.8526C181.09 32.8611 181.085 35.0276 179.997 36.8138C178.21 39.9364 174.591 41.6484 171.044 41.9399C169.27 42.3105 167.46 42.1894 165.683 41.9226C163.181 41.8213 160.745 41.221 158.373 40.4774C158.239 37.6092 158.257 34.7386 158.236 31.868C158.648 31.8334 159.059 31.7988 159.473 31.7642C160.425 34.1185 161.614 36.5148 163.699 38.1107C165.337 39.3608 167.601 39.7462 169.6 39.2521C171.637 38.758 173.129 36.7051 172.922 34.6596C172.841 33.3576 171.922 32.2682 170.85 31.5765C167.871 29.6792 164.075 29.3432 161.336 27.0358C158.252 24.6172 157.941 19.8592 160.001 16.7168C161.838 13.982 165.1 12.4207 168.363 12.0872Z" fill="#1F191A"/>
</g>
<defs>
<clipPath id="clip0">
<rect width="200.671" height="42.4497" fill="white" transform="translate(0.362427 0.59082)"/>
</clipPath>
</defs>
</svg>
