<svg width="214" height="114" viewBox="0 0 214 114" fill="none" xmlns="http://www.w3.org/2000/svg">
<path d="M105.097 39.7643C110.466 38.9652 115.81 37.9888 121.144 37C121.023 42.6811 121.033 48.3621 121.048 54.0463C123.756 52.647 126.78 51.963 129.824 51.8075C133.103 51.9536 136.432 52.986 138.879 55.2031C142.612 58.2939 144.411 63.1135 144.614 67.7996C144.807 72.5883 143.902 77.6194 141.02 81.5965C137.847 86.1426 132.315 88.7794 126.78 89.165C123.683 89.8211 120.569 89.1028 117.469 88.9349C115.009 88.7359 112.635 88.0052 110.177 87.831C110.231 75.3557 110.371 62.8804 110.224 50.4051C110.062 47.6625 110.71 44.214 108.299 42.2146C107.384 41.5523 106.193 41.5679 105.116 41.4155C105.103 40.8651 105.097 40.3147 105.097 39.7643ZM121.03 56.4375C120.931 66.4314 120.957 76.4223 121.154 86.4131C122.453 86.5717 123.768 86.7054 125.081 86.5996C126.806 86.5095 128.213 85.3279 129.261 84.0779C131.511 81.2264 132.385 77.6008 132.861 74.0963C133.595 70.0945 133.24 65.9309 132.004 62.0595C131.277 59.7304 129.878 57.4233 127.562 56.3349C125.513 55.2807 123.118 55.7907 121.03 56.4375Z" fill="black"/>
<path d="M0.022279 38.0821C14.4146 38.0821 28.8102 38.0448 43.2058 38.0977C43.244 42.7619 43.2217 47.4231 43.3011 52.0842C42.545 52.3143 41.7952 52.5537 41.0486 52.8056C39.765 49.9293 38.6753 46.826 36.3211 44.5903C34.5482 42.7619 32.0224 41.6394 29.4393 41.6145C26.1923 41.5492 22.9452 41.6145 19.7014 41.6052C19.5267 48.3466 19.4187 55.0911 19.4091 61.8325C22.1764 61.6179 25.1089 62.2709 27.7364 61.1733C30.151 59.9606 30.7992 57.1341 31.4632 54.7864C32.1367 54.7832 32.8071 54.7802 33.4774 54.7739C33.4966 60.4581 33.4966 66.1391 33.4774 71.8233C32.8103 71.8172 32.1431 71.814 31.479 71.8172C30.8119 69.4695 30.1701 66.6242 27.7364 65.4239C25.1184 64.3077 22.1764 65.0136 19.4122 64.7772C19.4314 69.2206 19.4854 73.6673 19.6696 78.1076C19.7395 79.5971 20.0446 81.071 20.4862 82.4983C20.931 83.8291 21.7698 85.219 23.2217 85.6513C24.6927 86.1084 26.2304 86.3292 27.7492 86.5904C27.7269 87.2123 27.7046 87.8341 27.6887 88.4592C18.4719 88.4778 9.25815 88.4592 0.0412846 88.4685C0.0285719 87.8279 0.0158595 87.1842 0 86.5437C1.76644 86.1084 3.76813 86.0368 5.24231 84.8864C6.93562 83.1761 7.23431 80.6418 7.30429 78.3688C7.30429 76.5746 7.70141 74.8084 7.69184 73.0173C7.77126 66.2107 7.77768 59.4071 7.70455 52.6035C7.72041 50.8249 7.32644 49.0805 7.27559 47.308C7.17402 45.3117 6.78005 43.1475 5.33117 41.6363C3.94599 40.2837 1.865 40.1624 0.0254252 40.094C0.0222785 39.4223 0.022279 38.7507 0.022279 38.0821Z" fill="black"/>
<path d="M54.6723 51.5363C59.4602 51.1071 64.5786 51.8379 68.512 54.7204C72.2545 57.3075 74.3483 61.6111 75.133 65.9302C75.4667 68.7256 75.4984 71.5739 75.1426 74.3693C74.3674 78.5485 72.261 82.5971 68.8391 85.2868C66.6787 87.05 64.0544 88.2253 61.3221 88.8285C58.8248 89.2389 56.2641 89.7365 53.7445 89.1924C49.465 88.8161 45.2172 86.9846 42.4244 83.7259C39.2473 80.0286 37.8589 75.0783 38.059 70.3021C37.9097 66.2442 39.1266 62.1335 41.4903 58.7939C44.4801 54.5961 49.4967 51.9716 54.6723 51.5363ZM54.6819 54.055C52.4388 54.8168 51.3521 57.1272 50.6818 59.1856C49.8938 61.9905 49.5031 64.9071 49.5094 67.8176C49.484 70.8151 49.3633 73.8469 49.9415 76.8073C50.4372 79.7861 51.1774 82.9143 53.233 85.262C54.5166 86.7607 56.7437 87.4386 58.6342 86.7078C60.6359 86.0828 61.7701 84.1705 62.4786 82.3607C63.4794 79.4876 63.8606 76.4372 63.8765 73.4116C63.8987 69.5341 64.083 65.5881 63.0949 61.7945C62.5897 59.5214 61.7796 57.208 60.1497 55.4604C58.8121 54.0084 56.5786 53.3055 54.6819 54.055Z" fill="black"/>
<path d="M99.5078 52.0023C101.938 51.057 105.071 50.774 107.209 52.4935C106.221 55.7336 104.779 58.8308 103.473 61.962C100.833 60.8301 97.9002 59.7822 94.9963 60.5659C93.7508 60.8924 91.9716 61.393 91.8891 62.9104C91.7588 66.2034 91.8032 69.4994 91.8001 72.7924C91.8191 76.048 91.8255 79.313 92.2735 82.5438C92.5213 83.657 92.7183 84.9816 93.7795 85.6564C95.2028 86.5332 96.9565 86.3841 98.5641 86.5425C98.5388 87.1801 98.5166 87.8206 98.4943 88.4612C90.901 88.4643 83.3044 88.4798 75.711 88.4518C75.692 87.8424 75.6729 87.2298 75.6475 86.6203C77.0899 86.356 78.7802 86.2627 79.8096 85.106C80.8103 83.8187 80.9565 82.1334 81.0073 80.5755C81.1345 74.3503 81.2266 68.1219 81.0265 61.8998C80.9629 60.317 80.8358 58.6223 79.889 57.2791C78.8659 56.1037 77.1344 56.2437 75.7142 56.054C75.6983 55.5813 75.6793 55.1087 75.6666 54.6359C79.1169 53.7964 82.6404 53.302 86.1129 52.5557C88.1146 52.1981 90.1066 51.7659 92.1369 51.5918C92.229 54.3064 91.9716 57.0086 91.8572 59.72C93.6365 56.5607 95.9335 53.3487 99.5078 52.0023Z" fill="black"/>
<path d="M156.287 54.2332C160.264 51.6772 165.246 51.0242 169.894 51.6586C173.764 52.2712 177.389 54.5318 179.311 57.9149C181.313 61.1208 181.92 64.9331 181.815 68.6395C174.253 68.6302 166.688 68.6489 159.126 68.6334C159.016 71.7024 159.508 74.8307 160.871 77.6168C162.265 80.4059 164.846 82.6136 167.899 83.4967C169.857 84.1592 171.966 84.128 174.009 84.0099C176.407 83.901 178.52 82.6603 180.54 81.5098C180.865 81.9109 181.189 82.312 181.52 82.71C177.812 87.2033 171.854 89.4888 166.04 89.4172C163.781 89.1592 161.488 88.8887 159.362 88.0428C152.754 85.6703 148.093 79.0315 148.061 72.1626C148.013 69.4325 147.965 66.6215 148.899 64.0095C150.158 60.0698 152.699 56.4659 156.287 54.2332ZM164.652 53.9689C162.73 54.6779 161.567 56.497 160.783 58.2539C159.749 60.7446 159.235 63.4249 159.101 66.1022C161.69 66.0214 164.287 66.152 166.87 65.9063C168.156 65.8099 169.449 65.8255 170.739 65.8286C170.701 63.9971 170.711 62.15 170.342 60.3466C169.984 58.3503 169.523 56.1954 167.998 54.7122C167.155 53.8446 165.792 53.4963 164.652 53.9689Z" fill="black"/>
<path d="M197.36 51.5564C202.054 51.1988 206.876 51.631 211.263 53.3786C211.301 56.4973 211.365 59.6162 211.403 62.735C210.854 62.8376 210.307 62.9403 209.767 63.0429C208.604 60.2443 207.413 57.1907 204.772 55.3998C202.682 54.0284 199.765 53.4128 197.491 54.725C194.52 56.2859 194.043 60.9253 196.706 62.9839C200.484 66.0125 205.593 66.6624 209.532 69.4299C211.42 70.7886 212.985 72.8254 213.167 75.1761C213.379 77.7042 213.373 80.4312 212.004 82.6794C209.754 86.6098 205.199 88.7647 200.735 89.1316C198.502 89.5981 196.223 89.4456 193.987 89.1098C190.838 88.9823 187.771 88.2267 184.786 87.2908C184.617 83.6806 184.64 80.0674 184.613 76.4542C185.132 76.4107 185.649 76.3671 186.17 76.3236C187.369 79.2869 188.865 82.3031 191.49 84.3118C193.551 85.8853 196.401 86.3704 198.917 85.7485C201.481 85.1266 203.359 82.5426 203.098 79.968C202.996 78.3292 201.84 76.9579 200.49 76.0873C196.741 73.6992 191.963 73.2763 188.515 70.372C184.633 67.3277 184.242 61.3389 186.835 57.3836C189.147 53.9413 193.253 51.9761 197.36 51.5564Z" fill="black"/>
</svg>
