<svg width="482" height="167" viewBox="0 0 482 167" fill="none" xmlns="http://www.w3.org/2000/svg">
<path d="M0.890114 0.390427C38.7201 0.370427 76.5501 0.380432 114.38 0.380432C114.37 13.1304 114.36 25.8704 114.38 38.6104C107.26 38.6504 100.13 38.6104 93.0101 38.6304C92.9901 68.3804 93.0001 98.1304 93.0101 127.87C100.13 127.87 107.25 127.88 114.37 127.87C114.37 139.74 114.37 151.62 114.37 163.49C76.5401 163.5 38.7001 163.53 0.870117 163.48C0.880117 151.61 0.860112 139.74 0.880112 127.88C8.01011 127.86 15.1401 127.88 22.2601 127.87C22.2301 98.1304 22.2801 68.3904 22.2301 38.6404C15.1201 38.6004 8.00011 38.6604 0.890114 38.6104C0.870114 25.8704 0.860114 13.1304 0.890114 0.390427Z" fill="black"/>
<path d="M120.38 74.2704C120.36 62.3804 120.37 50.5004 120.38 38.6104C143.68 38.6404 166.99 38.6104 190.29 38.6304C190.33 46.8504 190.17 55.0703 190.38 63.2803C194.67 58.3003 199.1 53.3403 204.61 49.6703C213.15 43.6303 223.56 40.6404 233.93 40.0704C245.89 39.3904 258.37 40.3503 269.26 45.7303C277.53 49.7603 284.19 57.1204 286.89 65.9704C289.01 72.0704 289.1 78.6103 289.01 85.0103C289.01 99.2803 289 113.55 289.02 127.82C293.78 127.83 298.53 127.82 303.3 127.82C297.85 115.43 297.11 101.23 299.98 88.1004C303.18 73.4004 312.91 60.5304 325.68 52.7404C343.24 41.6904 364.64 38.6103 385.06 39.6203C401.4 40.7003 418.36 45.9604 430.03 57.9604C438.85 66.7504 443.39 79.0003 444.71 91.2003C428.76 93.1003 412.78 94.7503 396.82 96.5103C396.25 88.7203 395.67 79.9804 390.04 73.9704C385.46 69.0604 378.12 68.6203 371.88 69.6503C366.4 70.4503 361.35 73.9003 358.92 78.9203C354.86 86.9703 355.16 96.2803 355.09 105.06C355.28 113.61 355.51 122.98 360.89 130.11C366.84 137.43 377.9 138.21 386.27 135.15C393.54 132.63 397.76 124.96 397.67 117.5C413.56 117.53 429.45 117.48 445.34 117.54C444.01 132.75 435.75 147.49 422.67 155.63C408.56 164.51 391.37 166.62 375.01 166.47C356.72 166.14 337.92 161.9 322.72 151.32C314.51 145.52 307.7 137.7 303.48 128.55C303.53 140.2 303.5 151.85 303.5 163.5C274.58 163.5 245.67 163.52 216.75 163.49C216.74 151.61 216.75 139.74 216.75 127.86C222.27 127.88 227.78 127.88 233.3 127.87C233.24 115.25 233.37 102.62 233.24 90.0004C233.24 84.8004 230.71 79.4104 225.96 76.9604C216.09 71.7304 202.25 74.5304 195.99 84.0504C192.95 88.3904 191.87 93.7803 192.11 99.0103C192.15 108.63 192.1 118.25 192.14 127.86C197.76 127.88 203.38 127.87 209 127.87C209.01 139.75 209.02 151.62 208.99 163.5C179.45 163.51 149.92 163.51 120.38 163.5C120.36 151.63 120.37 139.75 120.38 127.88C125.68 127.86 130.98 127.88 136.28 127.87C136.22 110 136.28 92.1303 136.25 74.2603C130.96 74.2503 125.67 74.2404 120.38 74.2704Z" fill="black"/>
<path d="M455.32 124.551C462.06 122.301 469.91 123.961 475.15 128.771C481.15 134.091 483.42 143.141 480.59 150.651C477.58 159.381 468.05 165.181 458.92 163.801C449.91 162.731 442.27 154.951 441.49 145.901C440.32 136.681 446.47 127.291 455.32 124.551Z" fill="black"/>
</svg>
