<svg width="578" height="176" viewBox="0 0 578 176" fill="none" xmlns="http://www.w3.org/2000/svg">
<path d="M80.4403 0.42015C89.1703 -0.00984997 98.1303 -0.219848 106.54 2.57015C102.59 7.88015 98.8403 13.5302 96.9503 19.9302C94.6903 28.9102 95.4403 38.8302 99.9103 47.0302C108.31 63.9002 125.53 74.3702 142.86 80.2202C153.21 84.0202 164.23 85.3401 175.15 86.1402C175.18 86.9202 175.22 88.4801 175.25 89.2601C158.68 89.7901 142.07 87.4701 126.2 82.7301C109.18 77.0801 92.4303 68.0802 81.5903 53.3902C74.5803 43.9502 70.8703 31.7602 72.9203 20.0402C73.9603 13.0302 77.0703 6.58015 80.4403 0.42015Z" fill="black"/>
<path d="M48.6504 9.63004C55.7404 5.83004 63.5604 3.79004 71.2404 1.54004C65.5604 12.53 61.8604 25.09 64.1904 37.51C66.5304 53.98 77.0904 68.04 89.6904 78.33C112.67 96.84 142.33 105.44 171.45 106.92C172.87 107 173.54 108.43 172.6 109.56C168.27 110.97 163.66 110.08 159.23 109.81C132.24 108.61 105.21 101.76 81.7504 88.15C66.8604 79.21 53.1604 67.04 45.7504 51.05C42.1004 43.61 40.2204 35.31 40.3404 27.02C40.4404 22.66 40.2104 18.09 41.9504 14C43.6304 11.86 46.3504 10.95 48.6504 9.63004Z" fill="black"/>
<path d="M114.06 4.2002C121.14 6.1202 127.6 9.5902 133.98 13.1202C130.94 18.5602 127.23 24.2602 127.65 30.7702C128.67 40.9602 135.54 49.6702 143.95 55.0702C152.49 60.8202 162.63 63.6302 172.69 65.3102C172.73 66.0602 172.82 67.5702 172.87 68.3202C163.15 68.4902 153.4 67.3002 143.95 65.0402C130.63 61.1802 117.25 54.4802 109.35 42.6402C105.36 35.8902 103.07 27.5102 105.53 19.8102C106.92 13.9302 110.07 8.6802 114.06 4.2002Z" fill="black"/>
<path d="M264.42 14.1203C269.96 13.5203 275.55 13.5803 281.1 13.9803C281.55 25.8503 281.02 37.7203 281.39 49.5903C288.22 38.0303 293.75 25.7703 300.35 14.0803C305.83 13.5203 311.36 13.5903 316.85 13.9503C317.66 25.9503 317.04 37.9903 317.23 50.0003C317.09 59.4803 317.61 68.9903 316.84 78.4503C311.35 78.4403 305.86 78.4703 300.37 78.2903C300.44 66.0903 300.42 53.8903 300.41 41.6903C293.55 53.6403 287.61 66.1003 281.29 78.3403C275.68 78.4703 270.06 78.4403 264.45 78.4103C264.45 56.9803 264.51 35.5503 264.42 14.1203Z" fill="black"/>
<path d="M342.88 14.7203C349.1 12.5703 356.04 13.8803 362.51 14.2303C369.47 35.5603 375.39 57.2203 382.79 78.4003C376.81 78.4403 370.84 78.4803 364.88 78.3203C363.92 74.4703 362.81 70.6703 361.75 66.8503C355.26 66.5803 348.76 66.5603 342.27 66.8603C341.17 70.7503 339.94 74.6003 338.6 78.4103C332.96 78.4403 327.32 78.4303 321.68 78.4003C329.32 57.3703 335.29 35.7603 342.88 14.7203ZM346.61 53.1203C350.4 53.1903 354.19 53.1503 357.98 52.9003C356.36 46.3603 354.76 39.8103 352.8 33.3603C349.55 39.5203 348.28 46.4303 346.61 53.1203Z" fill="black"/>
<path d="M207.45 14.31C216.97 14.19 226.49 14.23 236 14.24C243.32 14.18 251.59 17.02 255.03 23.98C259.67 33.42 257.66 46.51 249 53C241.69 57.64 232.6 57.34 224.27 57.38C224.28 64.35 224.28 71.33 224.25 78.3C218.66 78.47 213.06 78.45 207.47 78.36C207.34 57.01 207.39 35.66 207.45 14.31ZM224.29 28.06C224.26 33.07 224.26 38.08 224.28 43.09C228.38 43.16 232.59 43.68 236.6 42.56C241.66 41.2 241.45 34.25 239.7 30.39C235.6 26.69 229.37 27.83 224.29 28.06Z" fill="black"/>
<path d="M136.73 27.0098C136.72 23.4898 138.33 20.2398 139.72 17.0898C150.32 24.9898 159.44 35.1698 165.21 47.1199C157.68 46.8199 150.21 44.3498 144.11 39.8998C140.02 36.8398 136.92 32.2398 136.73 27.0098Z" fill="black"/>
<path d="M15.3202 39.3498C19.8502 32.4898 25.4602 26.4198 31.4802 20.8398C31.3602 29.2698 30.8502 37.8698 33.3302 46.0398C38.9102 67.0499 53.8402 84.3599 71.3902 96.5999C89.4902 109.34 110.38 117.71 131.85 122.75C142.82 125.59 154.15 126.44 165.37 127.78C154.17 150.97 131.41 167.84 106.39 173.29C99.6302 174.34 92.8602 176.02 85.9702 175.63C71.3002 174.42 56.5802 170.83 43.9202 163.11C25.0602 152 10.3802 133.65 4.44019 112.52C1.47019 102.66 -0.099808 92.2598 0.680192 81.9698C2.27019 66.9198 6.88019 52.0098 15.3202 39.3498Z" fill="black"/>
<path d="M282.39 99.48C290.94 98.73 301.1 100 306.59 107.41C311.25 113.18 311.65 120.9 311.51 128C311.32 136 312.45 144.79 307.94 151.9C303.66 159.03 295.05 162.27 287.02 162.07C278.7 162.41 269.45 159.54 264.94 152.06C259.63 144.03 261.78 134.02 261.32 124.99C260.99 118.52 262.32 111.68 266.75 106.73C270.58 102.14 276.58 100.01 282.39 99.48ZM280.47 110.51C276.3 111.8 273.62 115.95 273.41 120.21C272.98 126.47 273.14 132.77 273.25 139.04C273.33 143.24 274.58 148.31 278.82 150.14C283.17 151.83 288.14 151.86 292.62 150.58C296.25 149.56 298.88 146.19 299.35 142.49C300.09 137.02 299.67 131.47 299.78 125.97C299.71 121.42 299.9 116.09 296.28 112.72C292.07 108.94 285.62 108.96 280.47 110.51Z" fill="black"/>
<path d="M390.4 99.4498C397.88 98.8898 406.17 99.8498 412.03 104.98C416.85 109.21 418.76 115.74 418.98 121.97C419.31 129.98 419.65 138.14 418 146.04C416.3 153.96 409.38 160.08 401.47 161.4C393.43 162.74 384.37 162.42 377.53 157.47C372.22 153.78 369.53 147.28 369.29 140.96C369.03 134.33 369.06 127.67 369.27 121.04C369.46 115.13 371.55 109.06 375.98 104.99C379.9 101.46 385.23 99.9298 390.4 99.4498ZM388.39 110.4C382.44 111.93 380.78 118.62 380.64 123.98C380.52 131.39 379.77 139.19 382.62 146.22C384.22 150.33 389.06 151.28 392.98 151.43C397.5 151.61 403.09 150.86 405.45 146.43C408.07 141.39 407.36 135.48 407.53 130C407.34 124.67 408.07 118.72 404.98 114.04C401.17 109.12 393.92 108.79 388.39 110.4Z" fill="black"/>
<path d="M437.5 101.48C445.85 98.2996 455.7 98.4296 463.84 102.2C470.91 105.71 473.89 113.77 474.33 121.22C470.54 121.41 466.75 121.47 462.96 121.4C461.75 117.41 460.78 112.32 456.35 110.71C450.73 108.64 443.01 108.99 439.17 114.17C436.31 119.27 437.47 125.41 437.19 131C437.47 136.71 436.27 143.24 439.83 148.19C443.96 152.19 450.56 151.95 455.81 150.79C460.59 149.82 461.63 144.45 463 140.55C466.71 140.4 470.42 140.34 474.15 140.31C473.89 146.26 472.23 152.51 467.54 156.54C460.76 162.52 450.87 162.92 442.38 161.48C434.15 160.12 427.09 153.27 426.08 144.9C425.14 136.63 425.6 128.26 425.69 119.96C425.65 112.18 430.13 104.4 437.5 101.48Z" fill="black"/>
<path d="M207.35 100.119C211.16 99.9593 214.97 99.9593 218.79 100.109C218.93 108.269 218.52 116.449 219.3 124.579C227.12 124.729 234.95 124.709 242.77 124.649C242.94 116.499 242.51 108.339 243.27 100.219C247.05 100.019 250.85 99.9393 254.64 100.079C254.59 120.439 254.59 140.799 254.64 161.159C250.82 161.349 246.99 161.359 243.17 161.209C242.51 152.739 243.01 144.249 242.86 135.779C234.95 135.309 227.01 135.309 219.1 135.779C218.57 144.249 218.96 152.729 218.79 161.199C214.97 161.349 211.15 161.349 207.34 161.179C207.36 140.829 207.34 120.469 207.35 100.119Z" fill="black"/>
<path d="M318.26 100.209C326.52 100.149 334.77 100.009 343.03 100.189C348 100.339 353.36 101.339 357.07 104.929C361.33 108.909 362.13 115.379 360.81 120.809C359.89 124.819 356.31 127.229 353.3 129.649C356.63 131.509 360.7 133.329 361.72 137.409C363.69 144.469 362.44 153.589 355.94 157.929C351.61 160.959 346.12 161.319 341.01 161.409C333.42 161.439 325.84 161.529 318.26 161.129C318.23 140.819 318.22 120.519 318.26 100.209ZM329.94 110.279C329.61 115.239 329.61 120.219 329.88 125.189C335.76 125.199 342.23 126.489 347.65 123.619C351.08 120.209 350.79 112.099 345.35 110.789C340.29 109.689 335.06 110.309 329.94 110.279ZM329.84 135.759C329.62 140.829 329.62 145.919 329.87 150.989C335.86 151.049 342.13 151.929 347.9 149.919C352.9 146.959 352.4 136.789 345.94 135.959C340.62 135.029 335.19 135.599 329.84 135.759Z" fill="black"/>
<path d="M474.88 100.12C482.92 99.7697 490.96 100.28 499 100.17C507.4 100.28 515.8 99.7997 524.19 100.13C524.25 103.51 524.29 106.88 524.31 110.25C517.97 110.43 511.63 110.44 505.3 110.34C505.05 127.33 505.54 144.32 505.07 161.3C501.33 161.36 497.58 161.34 493.85 161.23C493.3 144.28 493.78 127.32 493.63 110.36C487.35 110.44 481.07 110.43 474.79 110.25C474.81 106.87 474.83 103.49 474.88 100.12Z" fill="black"/>
<path d="M530.05 100.11C533.76 99.9599 537.48 99.9099 541.19 99.9999C541.79 114.09 541.08 128.19 541.52 142.29C550.14 128.66 557.2 114.11 565.42 100.24C569.52 99.9399 573.64 99.8899 577.75 100.14C577.78 120.5 577.74 140.86 577.77 161.22C573.82 161.39 569.87 161.34 565.93 161.07C565.04 147.02 565.79 132.93 565.57 118.86C559.67 128.34 554.61 138.3 549.02 147.97C546.38 152.36 544.59 157.47 540.76 161.02C537.25 161.86 533.6 161.31 530.05 161.17C529.45 150.46 529.91 139.73 529.77 129C529.89 119.37 529.47 109.73 530.05 100.11Z" fill="black"/>
</svg>
