<svg width="172" height="48" viewBox="0 0 172 48" fill="none" xmlns="http://www.w3.org/2000/svg">
<path d="M0.745902 0.381836C17.6331 0.417799 34.5231 0.38615 51.4131 0.397659C50.893 1.58875 50.295 2.74963 49.6769 3.89325C49.2014 4.90597 48.7014 5.90718 48.2043 6.90839C47.6957 7.69094 47.3369 8.55261 46.9637 9.40421C46.262 10.814 45.5502 12.218 44.8687 13.6363C44.2448 14.6778 43.8082 15.8142 43.2102 16.8701C42.6122 18.1015 41.9595 19.3055 41.3788 20.5455C40.8673 21.4432 40.3385 22.3465 40.0575 23.3478C39.8558 24.1504 40.0374 24.9934 40.3918 25.7256C41.1195 27.459 42.2016 29.0126 42.9609 30.7302C43.4955 31.9702 44.1353 33.1613 44.8139 34.328C45.19 34.9278 45.2966 35.6514 45.6914 36.2412C46.0415 36.7475 46.1712 37.3603 46.4868 37.8854C47.1078 38.9053 47.4839 40.0504 48.0703 41.089C48.6279 42.2398 49.223 43.3719 49.772 44.5256C50.3699 45.5613 50.9434 46.6129 51.4247 47.709C34.5274 47.7436 17.6302 47.6961 0.734375 47.7335C0.763192 31.9501 0.74302 16.1652 0.745902 0.381836ZM5.76162 5.4037C5.62761 6.04815 5.67516 6.70843 5.67228 7.36152C5.6694 19.084 5.6766 30.805 5.66796 42.5275C18.1158 42.5304 30.5636 42.5304 43.0099 42.5261C42.9379 42.0772 42.7203 41.6773 42.507 41.2817C41.2261 38.6823 39.9639 36.0729 38.6455 33.4907C38.2305 32.7384 37.7968 31.9947 37.5029 31.1834C36.7954 29.7822 36.0937 28.3783 35.3819 26.98C35.0807 26.3758 34.7176 25.7976 34.4784 25.1646C34.4194 24.5518 34.4525 23.9332 34.4496 23.319C34.4266 22.7925 34.7695 22.3552 34.9914 21.9049C35.8041 20.5239 36.4683 19.0667 37.206 17.6455C37.5821 16.9665 37.7723 16.2041 38.1541 15.528C39.6368 12.7157 40.9999 9.8444 42.4206 7.00045C42.6612 6.49265 43.0906 5.99924 42.9263 5.3965C37.9265 5.4411 32.9237 5.4037 27.9239 5.41665C20.5365 5.40801 13.1476 5.43391 5.76162 5.4037Z" fill="black"/>
<path d="M11.3813 10.9941C15.361 11.0344 19.3422 10.9941 23.3233 11.0128C24.0697 11.0186 24.7613 11.3451 25.4789 11.5077C26.4328 11.7379 27.2641 12.273 28.0854 12.7865C28.6114 13.1203 29.0494 13.5705 29.4485 14.0452C30.0667 14.6983 30.3203 15.583 30.6617 16.3943C30.9701 17.0819 30.7655 17.8602 31.009 18.5636C31.2381 19.2296 31.2179 19.9575 31.009 20.6264C30.7885 21.2968 30.9384 22.0218 30.7208 22.695C30.5119 23.3611 30.3116 24.0415 29.9456 24.6428C29.3102 25.6052 28.4644 26.4222 27.5221 27.0825C27.0696 27.2868 26.6287 27.5213 26.159 27.6838C26.2483 28.3412 26.8765 28.6678 27.2238 29.1741C27.7051 29.8574 28.2194 30.5162 28.6892 31.2082C28.9701 31.6311 29.3909 31.9375 29.692 32.3475C30.084 32.8682 30.4456 33.4149 30.9067 33.8795C31.3879 34.3657 31.6905 34.9943 32.1646 35.4878C32.4398 35.7841 32.6948 36.1006 32.9772 36.3911C32.6415 36.4415 32.3029 36.4803 31.9629 36.4789C29.8448 36.4703 27.7281 36.4746 25.61 36.476C25.329 36.4717 24.9847 36.4731 24.8089 36.2128C23.7873 34.8045 22.8277 33.3458 21.6995 32.0181C20.8709 30.7852 19.9992 29.5798 19.1232 28.3815C18.724 28.1657 18.1909 28.3297 17.7442 28.3556C17.7716 31.0643 17.7356 33.773 17.7601 36.4818C15.6362 36.466 13.5109 36.476 11.3856 36.476C11.4 27.983 11.4087 19.4871 11.3813 10.9941ZM17.737 16.9597C17.7817 18.9621 17.7255 20.9659 17.7687 22.9698C19.2269 22.9554 20.6865 22.9899 22.1461 22.9612C23.3449 22.8101 24.3075 21.8693 24.8002 20.8135C24.8507 20.0108 24.9962 19.1117 24.5193 18.4025C24.0524 17.5006 23.0496 16.8604 22.0208 16.9367C20.5929 16.9467 19.1649 16.9165 17.737 16.9597Z" fill="black"/>
<path d="M101.085 14.6679C101.697 14.4435 102.356 14.5011 102.996 14.4939C103.824 14.4421 104.584 14.8406 105.401 14.9039C105.967 15.1498 106.53 15.4088 107.088 15.6778C107.913 16.1496 108.545 16.8818 109.194 17.5608C108.209 18.4743 107.049 19.1705 106.072 20.0955C105.532 19.5819 104.932 19.1072 104.246 18.808C103.605 18.6627 102.971 18.3721 102.301 18.4858C101.757 18.6167 101.205 18.8699 100.898 19.3618C100.617 19.6654 100.529 20.1444 100.761 20.5011C101.113 21.2031 101.893 21.5311 102.621 21.6908C103.15 21.8893 103.72 21.8864 104.272 21.9828C105.431 22.3712 106.648 22.6977 107.643 23.44C108.169 23.873 108.7 24.342 108.974 24.9821C109.183 25.4669 109.478 25.9402 109.488 26.4825C109.542 27.4837 109.572 28.4921 109.452 29.489C108.873 31.0929 107.604 32.3862 106.086 33.1414C105.15 33.4219 104.209 33.6981 103.255 33.9167C102.525 33.9772 101.775 34.0203 101.053 33.8779C100.333 33.6492 99.5809 33.5082 98.898 33.1759C98.0767 32.7343 97.2554 32.2567 96.6084 31.5763C96.2352 31.2684 95.9831 30.8484 95.6099 30.5434C96.6199 29.5552 97.6458 28.5784 98.6746 27.6117C99.4426 28.3842 100.383 28.9596 101.417 29.3063C102.215 29.3725 103.027 29.394 103.824 29.2962C104.216 29.1092 104.602 28.8301 104.814 28.4446C104.875 28.1051 104.938 27.6822 104.633 27.4377C103.928 26.7371 102.921 26.4753 101.983 26.2523C100.427 26.1833 98.9585 25.4784 97.7438 24.5362C97.0378 23.8917 96.4557 23.0861 96.107 22.1957C95.7741 20.6925 95.6992 19.0151 96.4268 17.6112C97.1977 16.2805 98.5637 15.4131 99.9801 14.8967C100.349 14.8247 100.729 14.7974 101.085 14.6679Z" fill="black"/>
<path d="M148.265 14.6868C148.95 14.4322 149.69 14.4984 150.408 14.497C151.051 14.484 151.633 14.8077 152.268 14.8465C152.745 14.8853 153.141 15.1831 153.576 15.3529C154.706 15.783 155.602 16.6547 156.352 17.5768C155.563 18.3637 154.578 18.9003 153.755 19.6468C153.532 19.8252 153.186 20.0597 152.94 19.7893C152.161 19.1534 151.257 18.6715 150.264 18.4831C149.35 18.3579 148.249 18.7506 147.915 19.6771C147.725 20.0683 147.95 20.4841 148.163 20.8135C148.742 21.3601 149.512 21.6277 150.267 21.8262C150.821 21.901 151.382 21.9629 151.905 22.1786C153.275 22.5037 154.641 23.0878 155.624 24.1264C156.167 24.8557 156.656 25.6771 156.671 26.6121C157.036 27.7284 156.782 28.9023 156.49 29.9984C156.076 30.8716 155.369 31.5434 154.676 32.1936C153.791 33.0222 152.621 33.4537 151.457 33.7112C150.421 34.068 149.301 33.9759 148.228 33.9141C146.578 33.5055 144.961 32.7704 143.764 31.5376C143.457 31.2125 143.104 30.9248 142.849 30.5566C143.374 29.8574 144.082 29.3324 144.695 28.7167C145.074 28.3758 145.399 27.9557 145.842 27.6953C146.265 27.7802 146.551 28.1629 146.891 28.4074C147.401 28.8721 148.055 29.1267 148.715 29.2979C149.37 29.3942 150.039 29.3568 150.7 29.3381C151.108 29.3583 151.406 29.0418 151.696 28.8016C152.197 28.4606 151.914 27.7946 151.928 27.2969C151.474 27.1746 151.143 26.8121 150.696 26.6726C150.085 26.4683 149.464 26.2568 148.819 26.2079C147.417 26.1446 146.19 25.3678 145.056 24.6155C144.057 23.9653 143.516 22.8404 143.143 21.7485C143.071 20.8005 143.052 19.8382 143.142 18.8902C143.461 17.8329 144.026 16.8015 144.921 16.1196C145.512 15.5989 146.275 15.3586 146.971 15.0119C147.371 14.8019 147.845 14.8451 148.265 14.6868Z" fill="black"/>
<path d="M62.3859 14.8721C64.1524 14.7757 65.9233 14.8476 67.6927 14.8261C69.0918 14.8491 70.4952 14.77 71.8914 14.8879C73.5066 15.2289 75.0945 16.0416 76.0772 17.401C76.4057 17.9707 76.6665 18.5835 76.8668 19.2078C77.0382 20.6247 76.9965 22.0661 76.8596 23.4845C76.3971 25.0079 75.4086 26.55 73.8049 27.0348C73.4778 27.3196 73.8179 27.685 74.0037 27.9396C75.1867 29.3162 76.263 30.7821 77.4086 32.189C77.7745 32.6277 78.201 33.0478 78.384 33.6045C76.3826 33.6419 74.3798 33.6073 72.3784 33.6217C71.2891 31.9617 70.0442 30.4038 68.8771 28.7955C68.6422 28.4862 68.465 28.1295 68.1869 27.8561C67.9938 27.6548 67.6898 27.7051 67.4405 27.6533C67.2345 29.5968 67.4319 31.5618 67.3353 33.5124C67.184 33.7008 66.8973 33.5829 66.6898 33.6246C65.2547 33.6073 63.8196 33.6462 62.3859 33.5944C62.3844 27.3541 62.3859 21.1124 62.3859 14.8721ZM67.3411 19.4667C67.3757 20.8261 67.3382 22.1855 67.3627 23.5464C68.7243 23.5046 70.1508 23.7161 71.4404 23.1838C71.8871 22.7192 72.3741 22.1539 72.2891 21.4605C72.4087 20.619 71.7358 19.94 71.0932 19.5099C69.8554 19.3329 68.586 19.3934 67.3411 19.4667Z" fill="black"/>
<path d="M79.0283 14.8649C80.6767 14.7844 82.3279 14.8448 83.9792 14.8261C83.9676 19.0064 83.9849 23.1882 83.9748 27.3685C83.8653 28.21 84.6059 28.8056 85.1924 29.2788C85.8278 29.4428 86.4978 29.4414 87.1505 29.4097C88.3465 29.4486 89.4026 28.2489 89.2802 27.0779C89.2715 22.9954 89.2787 18.9115 89.2758 14.829C90.9213 14.8448 92.5668 14.7786 94.2109 14.8692C94.2757 18.9834 94.2137 23.0975 94.2426 27.2117C94.293 28.0475 93.9602 28.83 93.8492 29.6457C93.2656 31.1949 91.9687 32.4004 90.5192 33.1513C89.5812 33.5368 88.6188 33.9871 87.5814 33.9626C86.6289 33.9641 85.6664 34.0216 84.7212 33.8864C83.6895 33.5757 82.6391 33.2362 81.7616 32.5917C80.7386 31.8437 79.815 30.8612 79.4015 29.6457C79.3582 28.9624 79.0038 28.3409 79.0196 27.6519C79.0297 23.3896 79.0139 19.1272 79.0283 14.8649Z" fill="black"/>
<path d="M111.239 14.8564C113.436 14.7916 115.637 14.842 117.836 14.8261C118.791 14.8448 119.756 14.7672 120.706 14.9225C121.312 15.134 121.919 15.3685 122.485 15.6777C123.227 16.2316 123.948 16.8602 124.409 17.6773C125.005 18.726 125.201 19.9746 124.992 21.1614C124.747 22.1281 124.151 23.0545 123.246 23.5162C123.909 24.1578 124.729 24.6627 125.203 25.4798C125.906 26.5774 125.87 27.9411 125.716 29.184C125.331 30.3794 124.853 31.6769 123.753 32.399C123.201 32.7313 122.667 33.1787 122.007 33.255C121.374 33.3283 120.792 33.6606 120.142 33.6146C117.173 33.6146 114.202 33.6477 111.232 33.5959C111.243 27.3499 111.232 21.1024 111.239 14.8564ZM116.276 19.0223C116.147 20.048 116.194 21.0995 116.275 22.1295C117.216 22.0777 118.158 22.1482 119.099 22.1007C119.42 22.0518 119.737 21.9324 120.014 21.7612C120.602 21.4016 120.513 20.6032 120.464 20.0134C120.413 19.2855 119.609 19.0165 118.995 18.9518C118.128 18.9274 117.259 18.9288 116.392 18.9504L116.276 19.0223ZM116.225 25.7186C116.197 26.9313 116.217 28.1439 116.212 29.3566C117.238 29.3379 118.263 29.3695 119.291 29.3465C120.125 29.3997 120.835 28.5884 120.902 27.7972C121.072 26.8708 120.377 25.8509 119.422 25.7675C118.36 25.6539 117.289 25.7603 116.225 25.7186Z" fill="black"/>
<path d="M131.903 15.2346C132.073 14.7009 132.671 14.8318 133.106 14.8217C134.281 14.8591 135.462 14.7527 136.632 14.898C136.692 15.3036 136.845 15.6863 137.009 16.0603C137.31 16.8874 137.519 17.7477 137.869 18.559C138.041 18.9273 138.147 19.3185 138.234 19.7156C138.451 20.3384 138.794 20.9196 138.921 21.5727C139.07 22.0532 139.32 22.4933 139.483 22.9695C139.871 24.5173 140.603 25.9501 141.054 27.4807C141.629 29.0271 142.131 30.5994 142.745 32.1314C142.922 32.6147 143.141 33.0923 143.175 33.616C141.427 33.6231 139.68 33.6217 137.934 33.6145C137.892 33.1211 137.659 32.6694 137.538 32.1947C137.27 31.4654 137.13 30.6857 136.745 30.0038C135.156 30.0585 133.562 29.9794 131.973 30.0384C131.616 30.5073 131.538 31.1733 131.305 31.7243C131.001 32.3285 131.204 33.1772 130.591 33.6044C128.894 33.6231 127.194 33.6548 125.498 33.5786C125.593 33.3757 125.695 33.1743 125.74 32.9542C125.93 32.1242 126.416 31.3891 126.545 30.5418C127.142 28.8271 127.812 27.1369 128.334 25.3977C129.021 23.5981 129.623 21.7698 130.296 19.9659C130.469 19.0625 130.939 18.2555 131.168 17.3693C131.426 16.6616 131.735 15.9711 131.903 15.2346ZM133.65 22.8141C133.519 23.7233 133.149 24.5849 133.166 25.5171C134.016 25.507 134.868 25.5559 135.712 25.4222C135.39 24.8108 135.352 24.1088 135.12 23.4658C134.933 22.9997 135.019 22.4732 134.822 22.01C134.62 21.5036 134.544 20.9613 134.466 20.4248C133.918 21.1196 133.992 22.0316 133.65 22.8141Z" fill="black"/>
<path d="M158.38 14.8926C160.134 14.753 161.898 14.8595 163.655 14.8264C166.327 14.858 169.002 14.7617 171.671 14.8782C171.645 16.2016 171.677 17.5279 171.662 18.8514C171.671 19.0671 171.587 19.2872 171.409 19.4138C168.726 19.4671 166.04 19.3678 163.36 19.4671C163.341 20.3949 163.315 21.3256 163.423 22.2506C165.984 22.2491 168.549 22.1916 171.108 22.2837C171.072 23.0633 171.103 23.843 171.093 24.6241C171.08 25.2297 171.159 25.8512 170.981 26.441C168.449 26.4323 165.916 26.4352 163.384 26.4424C163.325 27.2955 163.35 28.1514 163.347 29.0073C165.514 29.0246 167.683 29.0116 169.851 29.0159C170.495 29.0246 171.157 28.9483 171.783 29.144C171.773 30.5925 171.76 32.044 171.792 33.4926C171.256 33.6623 170.69 33.6249 170.139 33.6206C166.223 33.6177 162.305 33.6249 158.389 33.6149C158.386 27.3775 158.402 21.1329 158.38 14.8926Z" fill="black"/>
</svg>
