<svg width="245" height="114" viewBox="0 0 245 114" fill="none" xmlns="http://www.w3.org/2000/svg">
<path d="M86.9684 24.1059C87.3862 24.0398 87.8168 24.4363 87.7593 24.8669C87.772 43.4919 87.7614 62.1168 87.7656 80.7417C87.8232 82.9566 89.7887 84.6385 91.7754 85.2653C92.3318 85.4934 93.1568 85.4443 93.4296 86.086C93.8155 86.7745 93.2485 87.8127 92.4256 87.7104C86.1647 87.7168 79.9017 87.7168 73.6387 87.7104C72.6261 87.8148 72.1379 86.3461 72.9139 85.7513C73.4575 85.4251 74.1098 85.374 74.6917 85.1352C76.1051 84.5852 77.3841 83.5407 78.0194 82.1423C78.4415 81.2299 78.305 80.2067 78.3242 79.2346C78.32 64.4489 78.3221 49.6632 78.3221 34.8775C78.3669 33.1828 77.1198 31.633 75.5444 31.1086C75.133 30.921 74.502 30.872 74.3869 30.3433C74.161 29.7507 74.5212 29.0131 75.1799 28.947C79.3325 28.0069 83.5064 26.6576 86.9684 24.1059Z" fill="black"/>
<path d="M110.929 24.1756C111.183 23.9666 111.509 24.2161 111.72 24.3717C111.833 24.668 111.775 24.9941 111.795 25.3032C111.78 31.8413 111.801 38.3793 111.79 44.9152C111.799 54.2223 111.799 63.5295 111.788 72.8387C111.763 74.1881 111.876 75.5354 111.795 76.8848C111.918 78.4857 111.596 80.1143 111.965 81.6939C112.485 83.329 113.916 84.5185 115.468 85.141C116.009 85.3712 116.614 85.4223 117.152 85.6675C117.74 86.0533 117.787 86.9615 117.277 87.4326C116.975 87.7843 116.474 87.699 116.067 87.7203C109.929 87.7054 103.792 87.7289 97.657 87.7097C96.5271 87.7672 96.2031 85.9467 97.2711 85.6014C98.467 85.2774 99.6864 84.8745 100.633 84.0367C101.588 83.2139 102.417 82.0542 102.372 80.7432C102.37 65.3841 102.37 50.0249 102.374 34.6658C102.362 33.2653 101.419 31.9947 100.207 31.3574C99.7269 31.1016 99.1769 31.0078 98.7122 30.7264C98.1195 30.2126 98.4286 29.021 99.2536 28.957C103.357 28.0084 107.501 26.7038 110.929 24.1756Z" fill="black"/>
<path d="M138.359 25.117C139.109 24.8527 139.757 24.3794 140.452 24C140.635 27.1997 140.478 30.4144 140.533 33.6184C141.806 32.3244 143.776 31.6955 145.538 32.237C146.999 32.6271 148.175 33.985 148.214 35.5199C148.246 37.6708 148.186 39.826 148.237 41.9769C148.314 42.9958 149.663 42.8274 149.962 43.6865C149.627 43.84 149.282 43.9828 148.911 43.9381C147.197 43.9082 145.479 43.9722 143.767 43.9104C143.449 43.8038 143.483 43.5032 143.498 43.2389C144.134 42.9831 145.05 42.7507 145.067 41.9044C145.14 40.0647 145.097 38.2186 145.091 36.3768C145.099 35.2214 144.285 34.1065 143.153 33.8358C142.236 33.5523 141.301 33.9594 140.535 34.4455C140.527 36.6603 140.535 38.8731 140.529 41.0858C140.486 41.7125 140.74 42.4352 141.35 42.7081C141.831 42.9319 142.324 43.1365 142.782 43.4094C142.624 43.6759 142.477 44.0191 142.1 43.9295C139.921 43.9381 137.741 43.9402 135.562 43.9253C135.541 43.7036 135.528 43.484 135.528 43.2623C136.108 42.9276 136.869 42.8424 137.278 42.2604C137.604 41.8703 137.521 41.3288 137.54 40.8599C137.489 36.1551 137.606 31.4483 137.478 26.7457C135.46 26.7158 133.439 26.7158 131.418 26.7371C131.055 26.686 130.906 27.1294 130.953 27.4172C130.953 31.9748 130.957 36.5324 130.951 41.0901C130.957 41.8063 131.39 42.5695 132.102 42.7891C132.688 42.9745 133.298 43.0598 133.906 43.16C133.98 43.4286 134.014 43.9914 133.586 43.9253C130.655 43.9359 127.724 43.9487 124.792 43.9189C124.424 43.9551 124.294 43.3753 124.594 43.1898C125.296 42.9447 126.106 43.0044 126.739 42.5674C127.223 42.2391 127.472 41.6443 127.444 41.0688C127.446 36.5943 127.438 32.1198 127.446 27.6474C127.457 27.3298 127.374 27.0249 127.291 26.7244C125.822 26.7542 124.351 26.6775 122.885 26.7563C121.761 26.9354 121.495 28.1547 121.1 29.0309C120.992 29.389 120.55 29.988 120.271 29.4146C120.252 27.916 120.175 26.4025 120.312 24.9081C120.932 24.8058 121.209 25.5775 121.819 25.5221C126.3 25.5668 130.78 25.5263 135.261 25.5412C136.302 25.5284 137.372 25.4922 138.359 25.117Z" fill="black"/>
<path d="M0.264713 31.9656C-0.315118 31.3943 0.117623 30.1877 0.980974 30.2559C8.01782 30.2431 15.0568 30.2559 22.0936 30.2495C22.9037 30.1174 23.5731 31.179 23.0401 31.8292C22.7481 32.3408 22.1107 32.264 21.614 32.328C20.3712 32.4218 19.073 32.8972 18.3056 33.9246C17.8174 34.5599 17.7279 35.4488 18.0391 36.18C22.8632 47.5571 27.7171 58.9235 32.5413 70.3005C32.6457 70.5585 32.8184 70.7802 32.991 70.9976C33.1957 70.9848 33.4025 70.9741 33.6093 70.9656C33.8246 70.5968 34.0207 70.2174 34.1891 69.8251C39.107 58.5952 44.0569 47.3801 48.979 36.1523C49.4011 35.2634 49.0536 34.1932 48.3374 33.5644C47.3824 32.6094 45.9967 32.3386 44.6985 32.2534C43.8586 32.247 43.5751 31.0489 44.1379 30.5309C44.4214 30.1813 44.9074 30.2623 45.3061 30.2453C50.0641 30.2602 54.8242 30.2389 59.5844 30.2559C60.7249 30.2154 60.8613 32.1297 59.7272 32.2406C56.1182 32.5326 53.0634 35.1888 51.5755 38.3842C44.4384 54.8391 37.2886 71.2896 30.1622 87.7487C29.932 88.2113 29.7721 88.9852 29.1028 88.9212C28.7489 88.9852 28.4462 88.6803 28.3247 88.3776C21.8229 72.509 15.3339 56.6319 8.79164 40.7782C8.13293 39.303 7.70019 37.6978 6.67483 36.4166C5.26575 34.5961 3.43886 32.9249 1.15151 32.3557C0.844544 32.2576 0.490676 32.2214 0.264713 31.9656Z" fill="black"/>
<path d="M150.983 40.9377C149.537 37.5205 151.68 33.0481 155.287 32.1208C157.638 31.4749 160.426 33.0055 160.893 35.4527C161.047 35.9196 160.769 36.6081 160.202 36.5399C158.073 36.5783 155.941 36.5037 153.814 36.5719C153.394 36.7765 153.513 37.2881 153.477 37.6676C153.441 39.0234 154.086 40.3834 155.189 41.1828C156.357 42.0995 158.041 42.1783 159.356 41.5388C159.872 41.2787 160.237 40.814 160.68 40.4559C161.098 41.0634 160.691 41.7584 160.29 42.2508C158.938 43.8326 156.655 44.4721 154.654 43.9988C153.033 43.6471 151.614 42.4704 150.983 40.9377ZM155.282 33.3103C154.466 33.7495 153.997 34.5851 153.698 35.4314C153.918 35.5977 154.172 35.7064 154.455 35.6723C155.31 35.668 156.165 35.6787 157.02 35.668C157.374 35.7064 157.661 35.4783 157.953 35.3142C157.964 34.777 158.032 34.1886 157.704 33.7239C157.231 32.884 156.037 32.8605 155.282 33.3103Z" fill="black"/>
<path d="M64.1654 37.6005C65.5148 37.0911 67.1115 37.2808 68.269 38.1527C69.87 39.3315 70.4263 41.5869 69.8422 43.4436C69.2688 45.5881 67.1968 47.349 64.9243 47.2381C63.1742 47.2296 61.5775 45.974 61.036 44.3304C60.0746 41.7297 61.5477 38.5321 64.1654 37.6005Z" fill="black"/>
<path d="M129.394 53.1684C132.008 52.1516 134.826 51.5589 137.638 51.7018C140.575 51.851 143.438 53.3006 145.227 55.6476C146.717 57.5598 147.587 59.9644 147.599 62.3924C147.61 68.2291 147.582 74.0636 147.61 79.8982C147.578 81.6611 149.256 83.2471 151.029 82.9657C152.24 82.7121 153.347 82.1131 154.493 81.6654C154.973 83.0915 154.434 84.6349 153.472 85.7263C151.2 88.3036 147.602 89.6914 144.191 89.2181C141.893 88.9197 139.678 87.4445 138.94 85.1806C138.849 84.6349 138.26 84.4686 137.862 84.8374C135.559 86.5876 132.982 88.067 130.138 88.7065C128.22 89.1797 126.135 88.8813 124.421 87.9007C120.812 85.8926 119.294 81.0131 120.938 77.2612C121.714 75.4024 123.315 73.9101 125.238 73.2983C129.386 72.0044 133.566 70.817 137.736 69.5998C138.305 69.4548 138.951 69.0477 138.94 68.389C138.953 65.8927 138.934 63.3964 138.949 60.9002C138.992 60.0304 138.676 59.1777 138.173 58.4785C136.572 56.285 133.475 55.2255 130.899 56.1677C130.45 56.3681 129.887 56.5365 129.676 57.0268C129.556 58.3357 129.759 59.6659 129.584 60.9663C128.987 61.7209 128.032 62.0598 127.197 62.4819C125.108 63.3645 122.931 64.053 120.708 64.4964C120.249 62.6439 120.763 60.6913 121.756 59.101C123.517 56.3106 126.378 54.3877 129.394 53.1684ZM132.673 73.5904C131.622 74.0338 130.543 74.6328 129.993 75.6816C129.077 77.3763 129.407 79.4441 130.187 81.1239C130.784 82.339 131.782 83.5008 133.148 83.827C134.645 84.07 136.252 83.601 137.382 82.5906C138.474 81.4906 138.885 79.8918 138.947 78.3847C138.942 76.2977 138.951 74.2107 138.94 72.1238C136.806 72.3817 134.668 72.7675 132.673 73.5904Z" fill="black"/>
<path d="M170.419 52.1912C174.071 51.298 177.891 51.7606 181.504 52.609C182.905 52.9181 184.227 53.4958 185.578 53.9499C189.044 53.9861 192.515 53.9499 195.981 53.9669C196.569 55.7192 195.823 57.6015 194.527 58.8251C192.692 58.8358 190.848 58.7463 189.017 58.8742C189.2 60.2662 189.692 61.607 189.756 63.0182C190.04 66.0986 188.955 69.1917 187.083 71.6177C183.5 76.2989 177.294 78.6204 171.498 77.8849C170.641 77.8125 169.748 77.5204 168.919 77.8956C167.588 78.3475 166.832 79.9549 167.328 81.2701C167.729 82.5897 169.053 83.5809 170.439 83.5575C174.139 83.5575 177.842 83.5532 181.543 83.5575C184.738 83.5852 187.989 84.3484 190.688 86.107C193.067 87.6461 194.949 90.055 195.542 92.8582C196.267 96.124 195.273 99.5348 193.493 102.291C190.688 106.608 186.267 109.678 181.5 111.483C177.654 112.922 173.476 113.589 169.379 113.125C165.858 112.72 162.293 111.441 159.769 108.87C157.563 106.659 156.54 103.4 156.96 100.319C157.154 98.987 157.938 97.7719 159.051 97.0236C160.549 96.0281 162.078 95.0752 163.587 94.0925C164.269 93.6427 165.018 93.2718 165.583 92.6664C165.003 92.0375 164.071 92.0333 163.348 91.6431C160.729 90.5453 158.812 88.0768 158.247 85.3119C158.17 85.2693 158.015 85.1797 157.938 85.1371C157.989 85.0795 158.092 84.9644 158.145 84.9069C158.06 84.0478 157.795 82.9265 158.59 82.3083C160.978 80.7138 163.415 79.1896 165.789 77.578C166.41 77.2092 166.111 76.2606 165.493 76.0559C162.517 74.4699 160.01 71.8244 159.032 68.5522C158.145 65.6616 158.514 62.4363 159.965 59.7929C162.076 55.8492 166.12 53.1824 170.419 52.1912ZM173.617 54.0479C172.598 54.1566 171.652 54.6725 170.965 55.4271C169.403 57.0664 168.763 59.3367 168.458 61.526C168.074 65.2054 168.661 69.0809 170.601 72.2742C171.507 73.6897 172.773 75.0561 174.48 75.4249C176.032 75.7639 177.588 74.8963 178.511 73.6812C180.132 71.5729 180.66 68.8443 180.754 66.2414C180.756 62.9053 180.029 59.4455 178.083 56.6827C177.051 55.2566 175.478 53.9392 173.617 54.0479ZM175.619 92.7495C173.753 92.7751 171.841 92.6216 170.021 93.0906C167.787 93.7386 165.938 95.5719 165.295 97.8081C164.645 99.8503 165.035 102.155 166.224 103.924C167.262 105.527 168.857 106.693 170.556 107.52C174.218 109.251 178.575 109.388 182.372 108.006C184.617 107.154 186.8 105.691 187.834 103.449C189.3 100.402 188.33 96.3756 185.525 94.4421C184.218 93.4445 182.538 93.2696 180.963 93.0629C179.187 92.8859 177.403 92.7687 175.619 92.7495Z" fill="black"/>
<path d="M211.159 51.7258C213.578 51.5702 216.064 52.2161 218.064 53.6018C220.654 55.3562 222.455 58.2191 222.954 61.3058C223.039 62.1585 223.163 63.0389 222.962 63.8874C222.662 65.0278 221.513 65.8464 220.338 65.7697C215.152 65.7782 209.965 65.774 204.779 65.7676C204.386 65.7697 203.875 65.7548 203.655 66.1491C203.346 66.7673 203.427 67.4836 203.412 68.153C203.38 71.5978 204.348 75.0704 206.309 77.9163C209.27 82.3503 214.246 85.1599 219.43 86.0979C224.996 87.0934 230.841 86.0766 235.855 83.5036C237.217 82.7383 238.645 81.8792 239.445 80.4829C240.428 78.7924 240.523 76.5136 239.392 74.8679C238.799 73.9918 238.541 72.8449 238.976 71.8473C239.411 70.694 240.609 69.8626 241.849 69.9287C243.444 69.8477 244.866 71.2546 244.962 72.8172C245.262 76.0809 243.755 79.2081 241.832 81.7492C239.617 84.6526 236.512 86.7225 233.293 88.3618C227.931 91.0691 221.822 92.3758 215.823 91.8216C210.875 91.3633 205.955 89.5918 202.172 86.3132C199.281 83.8638 197.177 80.5149 196.203 76.8547C194.476 70.4446 196.264 63.3885 200.315 58.2106C202.92 54.7955 206.772 52.0541 211.159 51.7258ZM210.183 54.674C208.974 55.0748 207.944 55.904 207.175 56.9059C205.876 58.5367 204.838 60.4233 204.395 62.474C204.619 62.6638 204.832 62.9558 205.173 62.9025C207.663 62.9089 210.153 62.8961 212.645 62.9068C213.971 62.9622 215.254 61.9688 215.531 60.6727C215.723 58.9609 215.371 57.068 214.158 55.7783C213.19 54.6932 211.57 54.22 210.183 54.674Z" fill="black"/>
<path d="M63.8519 54.037C65.2759 53.73 66.8875 54.3653 67.5334 55.7083C67.9384 56.4864 67.9725 57.4542 67.5867 58.2472C64.3848 65.4844 61.1467 72.7067 57.9278 79.9354C57.5313 80.6282 57.8574 81.6152 58.6014 81.9094C59.4626 82.1652 60.3004 81.7048 61.0828 81.3978C63.1484 80.4684 65.0904 79.2618 66.8661 77.8548C67.3095 77.5159 67.8297 77.0299 68.4394 77.2452C69.0298 77.4925 68.9744 78.2684 68.855 78.7885C68.5651 79.7095 67.8084 80.3682 67.1667 81.0524C64.0181 84.1072 60.1171 86.3157 56.0156 87.8164C53.9585 88.4709 51.765 89.2255 49.5927 88.6947C48.5205 88.4496 47.3992 87.8719 46.9259 86.8273C46.5273 85.9959 46.717 85.0281 47.0965 84.2287C50.2941 77.0491 53.4981 69.8736 56.7042 62.6982C56.8939 62.2442 57.154 61.7773 57.0772 61.2678C56.9003 60.7349 56.3055 60.4471 55.7705 60.5537C53.8882 60.7434 52.1615 61.5982 50.52 62.485C49.9466 62.8261 49.0001 62.873 48.7017 62.1525C48.4096 61.4085 49.0299 60.7072 49.5671 60.2638C53.7155 57.0577 58.6398 54.7746 63.8519 54.037Z" fill="black"/>
<path d="M154.711 32.699C155.453 32.257 156.626 32.2801 157.091 33.1053C157.413 33.562 157.346 34.1401 157.336 34.6679C157.049 34.8292 156.766 35.0533 156.418 35.0156C155.578 35.0261 154.738 35.0156 153.898 35.0198C153.62 35.0533 153.371 34.9465 153.155 34.7831C153.448 33.9516 153.909 33.1305 154.711 32.699Z" fill="white"/>
</svg>
