<svg width="1151" height="420" viewBox="0 0 1151 420" fill="none" xmlns="http://www.w3.org/2000/svg">
<path d="M408.93 1.38945C410.89 1.07945 412.91 2.93946 412.64 4.95946C412.7 92.3295 412.65 179.699 412.67 267.069C412.94 277.459 422.16 285.349 431.48 288.289C434.09 289.359 437.96 289.129 439.24 292.139C441.05 295.369 438.39 300.239 434.53 299.759C405.16 299.789 375.78 299.789 346.4 299.759C341.65 300.249 339.36 293.359 343 290.569C345.55 289.039 348.61 288.799 351.34 287.679C357.97 285.099 363.97 280.199 366.95 273.639C368.93 269.359 368.29 264.559 368.38 259.999C368.36 190.639 368.37 121.279 368.37 51.9195C368.58 43.9695 362.73 36.6995 355.34 34.2395C353.41 33.3595 350.45 33.1294 349.91 30.6494C348.85 27.8694 350.54 24.4095 353.63 24.0995C373.11 19.6895 392.69 13.3595 408.93 1.38945Z" fill="#171715"/>
<path d="M521.33 1.70957C522.52 0.729567 524.05 1.89956 525.04 2.62957C525.57 4.01957 525.3 5.54956 525.39 6.99956C525.32 37.6696 525.42 68.3396 525.37 98.9996C525.41 142.66 525.41 186.32 525.36 229.99C525.24 236.32 525.77 242.64 525.39 248.97C525.97 256.48 524.46 264.12 526.19 271.53C528.63 279.2 535.34 284.78 542.62 287.7C545.16 288.78 548 289.02 550.52 290.17C553.28 291.98 553.5 296.24 551.11 298.45C549.69 300.1 547.34 299.7 545.43 299.8C516.64 299.73 487.85 299.84 459.07 299.75C453.77 300.02 452.25 291.48 457.26 289.86C462.87 288.34 468.59 286.45 473.03 282.52C477.51 278.66 481.4 273.22 481.19 267.07C481.18 195.02 481.18 122.97 481.2 50.9196C481.14 44.3496 476.72 38.3896 471.03 35.3996C468.78 34.1996 466.2 33.7596 464.02 32.4396C461.24 30.0296 462.69 24.4396 466.56 24.1396C485.81 19.6896 505.25 13.5696 521.33 1.70957Z" fill="#171715"/>
<path d="M650 6.12965C653.52 4.88965 656.56 2.66965 659.82 0.889648C660.68 15.8996 659.94 30.9796 660.2 46.0096C666.17 39.9396 675.41 36.9896 683.68 39.5296C690.53 41.3596 696.05 47.7296 696.23 54.9296C696.38 65.0196 696.1 75.1297 696.34 85.2197C696.7 89.9996 703.03 89.2097 704.43 93.2397C702.86 93.9597 701.24 94.6296 699.5 94.4196C691.46 94.2796 683.4 94.5796 675.37 94.2896C673.88 93.7896 674.04 92.3796 674.11 91.1396C677.09 89.9397 681.39 88.8497 681.47 84.8797C681.81 76.2497 681.61 67.5896 681.58 58.9496C681.62 53.5296 677.8 48.2996 672.49 47.0296C668.19 45.6996 663.8 47.6096 660.21 49.8896C660.17 60.2796 660.21 70.6596 660.18 81.0396C659.98 83.9796 661.17 87.3696 664.03 88.6496C666.29 89.6996 668.6 90.6597 670.75 91.9397C670.01 93.1897 669.32 94.7997 667.55 94.3797C657.33 94.4197 647.1 94.4296 636.88 94.3596C636.78 93.3196 636.72 92.2896 636.72 91.2496C639.44 89.6796 643.01 89.2797 644.93 86.5497C646.46 84.7197 646.07 82.1796 646.16 79.9796C645.92 57.9096 646.47 35.8297 645.87 13.7697C636.4 13.6297 626.92 13.6296 617.44 13.7296C615.74 13.4896 615.04 15.5696 615.26 16.9196C615.26 38.2996 615.28 59.6796 615.25 81.0596C615.28 84.4196 617.31 87.9996 620.65 89.0296C623.4 89.8997 626.26 90.2997 629.11 90.7697C629.46 92.0297 629.62 94.6696 627.61 94.3596C613.86 94.4097 600.11 94.4697 586.36 94.3297C584.63 94.4996 584.02 91.7797 585.43 90.9097C588.72 89.7597 592.52 90.0397 595.49 87.9897C597.76 86.4497 598.93 83.6597 598.8 80.9597C598.81 59.9697 598.77 38.9796 598.81 17.9996C598.86 16.5096 598.47 15.0796 598.08 13.6696C591.19 13.8096 584.29 13.4497 577.41 13.8197C572.14 14.6597 570.89 20.3797 569.04 24.4897C568.53 26.1697 566.46 28.9796 565.15 26.2896C565.06 19.2596 564.7 12.1596 565.34 5.14964C568.25 4.66964 569.55 8.28965 572.41 8.02965C593.43 8.23965 614.45 8.04964 635.47 8.11964C640.35 8.05964 645.37 7.88965 650 6.12965Z" fill="#171715"/>
<path d="M2.19978 38.2601C-0.52022 35.5801 1.50978 29.9201 5.55978 30.2401C38.5698 30.1801 71.5898 30.2401 104.6 30.2101C108.4 29.5901 111.54 34.5701 109.04 37.6201C107.67 40.0201 104.68 39.6601 102.35 39.9601C96.5198 40.4001 90.4298 42.6301 86.8298 47.4501C84.5398 50.4301 84.1198 54.6001 85.5798 58.0301C108.21 111.4 130.98 164.72 153.61 218.09C154.1 219.3 154.91 220.34 155.72 221.36C156.68 221.3 157.65 221.25 158.62 221.21C159.63 219.48 160.55 217.7 161.34 215.86C184.41 163.18 207.63 110.57 230.72 57.9001C232.7 53.7301 231.07 48.7101 227.71 45.7601C223.23 41.2801 216.73 40.0101 210.64 39.6101C206.7 39.5801 205.37 33.9601 208.01 31.5301C209.34 29.8901 211.62 30.2701 213.49 30.1901C235.81 30.2601 258.14 30.1601 280.47 30.2401C285.82 30.0501 286.46 39.0301 281.14 39.5501C264.21 40.9201 249.88 53.3801 242.9 68.3701C209.42 145.56 175.88 222.73 142.45 299.94C141.37 302.11 140.62 305.74 137.48 305.44C135.82 305.74 134.4 304.31 133.83 302.89C103.33 228.45 72.8898 153.97 42.1998 79.6001C39.1098 72.6801 37.0798 65.1501 32.2698 59.1401C25.6598 50.6001 17.0898 42.7601 6.35978 40.0901C4.91978 39.6301 3.25978 39.4601 2.19978 38.2601Z" fill="#171715"/>
<path d="M709.22 80.3393C702.44 64.3093 712.49 43.3293 729.41 38.9793C740.44 35.9493 753.52 43.1293 755.71 54.6093C756.43 56.7993 755.13 60.0293 752.47 59.7093C742.48 59.8893 732.48 59.5393 722.5 59.8593C720.53 60.8193 721.09 63.2193 720.92 64.9993C720.75 71.3593 723.78 77.7393 728.95 81.4893C734.43 85.7893 742.33 86.1593 748.5 83.1593C750.92 81.9393 752.63 79.7593 754.71 78.0793C756.67 80.9293 754.76 84.1893 752.88 86.4993C746.54 93.9193 735.83 96.9193 726.44 94.6993C718.84 93.0493 712.18 87.5293 709.22 80.3393ZM729.39 44.5593C725.56 46.6193 723.36 50.5393 721.96 54.5093C722.99 55.2893 724.18 55.7993 725.51 55.6393C729.52 55.6193 733.53 55.6693 737.54 55.6193C739.2 55.7993 740.55 54.7293 741.92 53.9593C741.97 51.4393 742.29 48.6793 740.75 46.4993C738.53 42.5593 732.93 42.4493 729.39 44.5593Z" fill="#171715"/>
<path d="M301.96 64.6899C308.29 62.2999 315.78 63.1899 321.21 67.2799C328.72 72.8099 331.33 83.3899 328.59 92.0999C325.9 102.16 316.18 110.42 305.52 109.9C297.31 109.86 289.82 103.97 287.28 96.2599C282.77 84.0599 289.68 69.0599 301.96 64.6899Z" fill="#171715"/>
<path d="M607.95 137.719C620.21 132.949 633.43 130.169 646.62 130.839C660.4 131.539 673.83 138.339 682.22 149.349C689.21 158.319 693.29 169.599 693.35 180.989C693.4 208.369 693.27 235.739 693.4 263.109C693.25 271.379 701.12 278.819 709.44 277.499C715.12 276.309 720.31 273.499 725.69 271.399C727.94 278.089 725.41 285.329 720.9 290.449C710.24 302.539 693.36 309.049 677.36 306.829C666.58 305.429 656.19 298.509 652.73 287.889C652.3 285.329 649.54 284.549 647.67 286.279C636.87 294.489 624.78 301.429 611.44 304.429C602.44 306.649 592.66 305.249 584.62 300.649C567.69 291.229 560.57 268.339 568.28 250.739C571.92 242.019 579.43 235.019 588.45 232.149C607.91 226.079 627.52 220.509 647.08 214.799C649.75 214.119 652.78 212.209 652.73 209.119C652.79 197.409 652.7 185.699 652.77 173.989C652.97 169.909 651.49 165.909 649.13 162.629C641.62 152.339 627.09 147.369 615.01 151.789C612.9 152.729 610.26 153.519 609.27 155.819C608.71 161.959 609.66 168.199 608.84 174.299C606.04 177.839 601.56 179.429 597.64 181.409C587.84 185.549 577.63 188.779 567.2 190.859C565.05 182.169 567.46 173.009 572.12 165.549C580.38 152.459 593.8 143.439 607.95 137.719ZM623.33 233.519C618.4 235.599 613.34 238.409 610.76 243.329C606.46 251.279 608.01 260.979 611.67 268.859C614.47 274.559 619.15 280.009 625.56 281.539C632.58 282.679 640.12 280.479 645.42 275.739C650.54 270.579 652.47 263.079 652.76 256.009C652.74 246.219 652.78 236.429 652.73 226.639C642.72 227.849 632.69 229.659 623.33 233.519Z" fill="#171715"/>
<path d="M800.4 133.13C817.53 128.94 835.45 131.11 852.4 135.09C858.97 136.54 865.17 139.25 871.51 141.38C887.77 141.55 904.05 141.38 920.31 141.46C923.07 149.68 919.57 158.51 913.49 164.25C904.88 164.3 896.23 163.88 887.64 164.48C888.5 171.01 890.81 177.3 891.11 183.92C892.44 198.37 887.35 212.88 878.57 224.26C861.76 246.22 832.65 257.11 805.46 253.66C801.44 253.32 797.25 251.95 793.36 253.71C787.12 255.83 783.57 263.37 785.9 269.54C787.78 275.73 793.99 280.38 800.49 280.27C817.85 280.27 835.22 280.25 852.58 280.27C867.57 280.4 882.82 283.98 895.48 292.23C906.64 299.45 915.47 310.75 918.25 323.9C921.65 339.22 916.99 355.22 908.64 368.15C895.48 388.4 874.74 402.8 852.38 411.27C834.34 418.02 814.74 421.15 795.52 418.97C779 417.07 762.28 411.07 750.44 399.01C740.09 388.64 735.29 373.35 737.26 358.9C738.17 352.65 741.85 346.95 747.07 343.44C754.1 338.77 761.27 334.3 768.35 329.69C771.55 327.58 775.06 325.84 777.71 323C774.99 320.05 770.62 320.03 767.23 318.2C754.94 313.05 745.95 301.47 743.3 288.5C742.94 288.3 742.21 287.88 741.85 287.68C742.09 287.41 742.57 286.87 742.82 286.6C742.42 282.57 741.18 277.31 744.91 274.41C756.11 266.93 767.54 259.78 778.68 252.22C781.59 250.49 780.19 246.04 777.29 245.08C763.33 237.64 751.57 225.23 746.98 209.88C742.82 196.32 744.55 181.19 751.36 168.79C761.26 150.29 780.23 137.78 800.4 133.13ZM815.4 141.84C810.62 142.35 806.18 144.77 802.96 148.31C795.63 156 792.63 166.65 791.2 176.92C789.4 194.18 792.15 212.36 801.25 227.34C805.5 233.98 811.44 240.39 819.45 242.12C826.73 243.71 834.03 239.64 838.36 233.94C845.96 224.05 848.44 211.25 848.88 199.04C848.89 183.39 845.48 167.16 836.35 154.2C831.51 147.51 824.13 141.33 815.4 141.84ZM824.79 323.39C816.04 323.51 807.07 322.79 798.53 324.99C788.05 328.03 779.38 336.63 776.36 347.12C773.31 356.7 775.14 367.51 780.72 375.81C785.59 383.33 793.07 388.8 801.04 392.68C818.22 400.8 838.66 401.44 856.47 394.96C867 390.96 877.24 384.1 882.09 373.58C888.97 359.29 884.42 340.4 871.26 331.33C865.13 326.65 857.25 325.83 849.86 324.86C841.53 324.03 833.16 323.48 824.79 323.39Z" fill="#171715"/>
<path d="M991.51 130.949C1002.86 130.219 1014.52 133.249 1023.9 139.749C1036.05 147.979 1044.5 161.409 1046.84 175.889C1047.24 179.889 1047.82 184.019 1046.88 187.999C1045.47 193.349 1040.08 197.189 1034.57 196.829C1010.24 196.869 985.91 196.849 961.58 196.819C959.74 196.829 957.34 196.759 956.31 198.609C954.86 201.509 955.24 204.869 955.17 208.009C955.02 224.169 959.56 240.459 968.76 253.809C982.65 274.609 1005.99 287.789 1030.31 292.189C1056.42 296.859 1083.84 292.089 1107.36 280.019C1113.75 276.429 1120.45 272.399 1124.2 265.849C1128.81 257.919 1129.26 247.229 1123.95 239.509C1121.17 235.399 1119.96 230.019 1122 225.339C1124.04 219.929 1129.66 216.029 1135.48 216.339C1142.96 215.959 1149.63 222.559 1150.08 229.889C1151.49 245.199 1144.42 259.869 1135.4 271.789C1125.01 285.409 1110.44 295.119 1095.34 302.809C1070.19 315.509 1041.53 321.639 1013.39 319.039C990.18 316.889 967.1 308.579 949.35 293.199C935.79 281.709 925.92 265.999 921.35 248.829C913.25 218.759 921.64 185.659 940.64 161.369C952.86 145.349 970.93 132.489 991.51 130.949ZM986.93 144.779C981.26 146.659 976.43 150.549 972.82 155.249C966.73 162.899 961.86 171.749 959.78 181.369C960.83 182.259 961.83 183.629 963.43 183.379C975.11 183.409 986.79 183.349 998.48 183.399C1004.7 183.659 1010.72 178.999 1012.02 172.919C1012.92 164.889 1011.27 156.009 1005.58 149.959C1001.04 144.869 993.44 142.649 986.93 144.779Z" fill="#171715"/>
<path d="M300.49 141.8C307.17 140.36 314.73 143.34 317.76 149.64C319.66 153.29 319.82 157.83 318.01 161.55C302.99 195.5 287.8 229.38 272.7 263.29C270.84 266.54 272.37 271.17 275.86 272.55C279.9 273.75 283.83 271.59 287.5 270.15C297.19 265.79 306.3 260.13 314.63 253.53C316.71 251.94 319.15 249.66 322.01 250.67C324.78 251.83 324.52 255.47 323.96 257.91C322.6 262.23 319.05 265.32 316.04 268.53C301.27 282.86 282.97 293.22 263.73 300.26C254.08 303.33 243.79 306.87 233.6 304.38C228.57 303.23 223.31 300.52 221.09 295.62C219.22 291.72 220.11 287.18 221.89 283.43C236.89 249.75 251.92 216.09 266.96 182.43C267.85 180.3 269.07 178.11 268.71 175.72C267.88 173.22 265.09 171.87 262.58 172.37C253.75 173.26 245.65 177.27 237.95 181.43C235.26 183.03 230.82 183.25 229.42 179.87C228.05 176.38 230.96 173.09 233.48 171.01C252.94 155.97 276.04 145.26 300.49 141.8Z" fill="#171715"/>
</svg>
