<svg width="160" height="36" viewBox="0 0 160 36" fill="none" xmlns="http://www.w3.org/2000/svg">
<g clip-path="url(#clip0)">
<path d="M47.861 7.02388C50.6382 3.24238 55.2236 0.854787 59.9422 0.596016C62.6406 0.45628 65.3319 0.999698 67.8621 1.90195C69.3059 2.42294 70.6498 3.19235 71.8623 4.1222C72.2408 4.4241 72.7016 4.7812 72.6368 5.3229C72.6508 7.65011 72.6262 9.97732 72.642 12.3063C70.9406 12.3097 69.2393 12.3045 67.5397 12.3097C67.5292 10.8985 67.5432 9.48911 67.5379 8.07794C67.5099 7.67081 67.5432 7.13947 67.1139 6.9221C65.8576 6.11128 64.349 5.81111 62.8982 5.52129C61.3317 5.3643 59.7057 5.3367 58.1901 5.81801C55.0835 6.55982 52.5778 8.97501 51.3671 11.8387C50.4314 14.147 50.1125 16.7537 50.7626 19.1775C51.3531 21.779 52.937 24.1925 55.2254 25.6468C56.8917 26.668 58.8471 27.3081 60.8253 27.1838C62.8947 27.3115 64.9324 26.6335 66.6829 25.5864C67.7832 24.9205 68.6873 24.001 69.5757 23.0901C70.9424 24.101 72.3336 25.0844 73.6285 26.185C72.1129 27.8877 70.4641 29.5369 68.4017 30.591C66.4971 31.5968 64.3735 32.1402 62.2341 32.3627C60.8832 32.3593 59.5059 32.4887 58.1813 32.1574C54.5245 31.5795 51.1341 29.668 48.7143 26.9165C46.5626 24.572 45.2643 21.5461 44.7964 18.4374C44.7246 17.2333 44.7509 16.0239 44.7754 14.8181C45.0873 12.0164 46.1544 9.29071 47.861 7.02388Z" fill="black"/>
<path d="M9.23601 1.3179C12.4162 1.30755 15.5982 1.32308 18.7784 1.30928C19.8665 4.57496 21.0877 7.79925 22.146 11.0753C23.1868 14.1184 24.2697 17.146 25.3385 20.1806C25.7695 21.3537 26.1077 22.5613 26.6614 23.686C27.7986 20.7309 28.7658 17.7119 29.8556 14.7395C30.6231 12.5934 31.3012 10.418 32.0949 8.28228C32.9307 5.96715 33.6754 3.61924 34.5409 1.31445C37.5529 1.34378 40.5702 1.2558 43.5804 1.36103C43.5769 3.06719 43.5857 4.77163 43.5752 6.47606C41.8843 6.48986 40.1935 6.49332 38.5026 6.48124C35.2068 14.9689 32.0353 23.5049 28.8078 32.0202C27.1748 32.0305 25.54 32.015 23.907 32.0305C20.7461 23.5394 17.7043 15.0034 14.6099 6.48814C12.8192 6.48814 11.0285 6.48469 9.23777 6.48469C9.22725 4.763 9.22901 3.03959 9.23601 1.3179Z" fill="black"/>
<path d="M88.4396 1.75033C91.5988 1.75206 94.758 1.74516 97.9171 1.75551C97.996 3.18565 98.024 4.61579 98.0363 6.04765C98.0188 6.56174 98.2501 7.03098 98.4603 7.48814C99.9549 5.06605 102.231 3.02176 105.026 2.19887C105.87 1.9884 106.717 1.72963 107.596 1.721C109.268 1.6727 110.945 1.67787 112.616 1.75033C112.607 4.8228 112.627 7.897 112.606 10.9712C110.901 10.9798 109.198 10.9712 107.493 10.9764C107.481 9.46688 107.498 7.95565 107.503 6.44616C106.519 6.47548 105.49 6.45651 104.577 6.88089C102.366 7.75899 100.573 9.55313 99.6798 11.7285C99.1612 12.981 98.7161 14.3093 98.7547 15.6791C98.774 19.5003 98.7494 23.3232 98.7687 27.1461C103.158 27.1375 107.547 27.1306 111.935 27.1495C111.921 28.7608 111.947 30.3721 111.915 31.9834C104.092 32.0024 96.2683 31.9799 88.4431 31.9955C88.4309 30.3255 88.4291 28.6573 88.4414 26.9891C90.0884 26.9943 91.7355 26.977 93.3825 26.9943C93.5297 23.9184 93.4123 20.8355 93.4508 17.7579C93.4526 14.004 93.4456 10.2484 93.4544 6.49446C91.7828 6.49619 90.1112 6.48756 88.4396 6.49446C88.4309 4.91424 88.4326 3.33228 88.4396 1.75033Z" fill="black"/>
<path d="M118.523 1.74839C121.857 1.75874 125.193 1.73631 128.529 1.76046C128.528 7.32231 128.529 12.8859 128.529 18.4477C128.538 19.6898 128.459 20.944 128.706 22.1723C128.936 24.0855 129.752 26.1056 131.508 27.1338C132.848 28.005 134.518 28.0102 136.057 27.8342C138.165 27.3529 140.067 26.0573 141.25 24.2701C142.019 23.1694 142.48 21.8911 142.759 20.5903C142.925 19.5984 142.862 18.5875 142.873 17.5869C142.874 14.0434 142.864 10.5 142.878 6.95658C141.091 6.9514 139.304 6.94278 137.516 6.95313C137.518 5.21936 137.52 3.48733 137.516 1.75356C141.101 1.75011 144.688 1.74149 148.275 1.75701C148.424 8.60754 148.24 15.465 148.371 22.3172C148.581 23.8647 148.506 25.4294 148.532 26.9872C149.755 27.0061 150.98 26.9389 152.201 27.013C152.555 27.0475 152.539 27.4978 152.552 27.7617C152.55 28.9124 152.559 30.0614 152.55 31.212C152.529 31.5087 152.473 32.0349 152.059 31.978C149.536 31.9901 147.006 32.0228 144.485 31.9625C144.115 31.5812 144.076 31.0274 144.015 30.5323C143.95 29.3558 143.63 28.2172 143.43 27.0596C142.657 28.3483 141.797 29.6283 140.6 30.5754C138.795 32.0642 136.419 32.863 134.07 32.794C131.214 32.794 128.286 31.7779 126.269 29.7439C124.308 27.7359 123.385 24.9601 123.099 22.2379C123.07 17.1452 123.096 12.0509 123.085 6.9583C121.564 6.9514 120.044 6.9445 118.524 6.95485C118.509 5.21937 118.51 3.48388 118.523 1.74839Z" fill="black"/>
<path d="M77.7776 26.8018C79.5263 26.8069 81.275 26.7983 83.0237 26.8104C83.0342 28.5493 83.0184 30.2883 83.0342 32.0289C81.2802 32.0462 79.5245 32.0289 77.7706 32.041C77.7776 30.2934 77.7688 28.5476 77.7776 26.8018Z" fill="black"/>
</g>
<defs>
<clipPath id="clip0">
<rect width="158.221" height="34.7315" fill="white" transform="translate(0.90271 0.449219)"/>
</clipPath>
</defs>
</svg>
