<svg width="180" height="114" viewBox="0 0 180 114" fill="none" xmlns="http://www.w3.org/2000/svg">
<path d="M48.4236 58.0846C51.9048 53.3445 57.6526 50.3517 63.5674 50.0273C66.9498 49.8522 70.3233 50.5333 73.4949 51.6643C75.3047 52.3174 76.9893 53.2818 78.5091 54.4474C78.9836 54.8258 79.5612 55.2734 79.48 55.9525C79.4975 58.8696 79.4667 61.7868 79.4865 64.7061C77.3538 64.7104 75.2212 64.7039 73.0908 64.7104C73.0776 62.9414 73.0952 61.1748 73.0885 59.4059C73.0534 58.8956 73.0952 58.2295 72.557 57.957C70.9823 56.9407 69.0913 56.5644 67.2727 56.2011C65.3091 56.0043 63.2709 55.9698 61.3711 56.5731C57.477 57.5029 54.3361 60.5304 52.8185 64.12C51.6456 67.0134 51.2459 70.2809 52.0608 73.3191C52.8009 76.5801 54.7864 79.6054 57.6549 81.4284C59.7436 82.7085 62.1946 83.5108 64.6743 83.355C67.2683 83.5151 69.8225 82.6652 72.0168 81.3527C73.396 80.518 74.5293 79.3654 75.6429 78.2236C77.3561 79.4907 79.0999 80.7234 80.7231 82.103C78.8233 84.2373 76.7565 86.3046 74.1713 87.6259C71.7839 88.8867 69.122 89.5678 66.4402 89.8467C64.7469 89.8425 63.0205 90.0047 61.3601 89.5894C56.7763 88.865 52.5264 86.4689 49.4932 83.02C46.7961 80.0811 45.1687 76.2882 44.5821 72.3914C44.4921 70.8821 44.5251 69.3661 44.5558 67.8547C44.9468 64.3427 46.2844 60.9261 48.4236 58.0846Z" fill="black"/>
<path d="M0.00713209 50.9328C3.99349 50.9198 7.98211 50.9393 11.9685 50.922C13.3324 55.0155 14.8632 59.0572 16.1898 63.1637C17.4944 66.9782 18.8518 70.7733 20.1915 74.5771C20.7318 76.0476 21.1557 77.5613 21.8498 78.9711C23.2753 75.2669 24.4876 71.4826 25.8537 67.7567C26.8158 65.0666 27.6658 62.3397 28.6607 59.6626C29.7083 56.7606 30.6418 53.8175 31.7267 50.9285C35.5022 50.9652 39.2844 50.855 43.0577 50.9869C43.0533 53.1255 43.0643 55.262 43.0512 57.3985C40.9316 57.4158 38.8122 57.4202 36.6927 57.405C32.5614 68.0443 28.586 78.7441 24.5403 89.418C22.4933 89.4309 20.4441 89.4115 18.3972 89.4309C14.435 78.7874 10.6221 68.0875 6.74328 57.4137C4.49865 57.4137 2.25401 57.4094 0.00933885 57.4094C-0.00384793 55.2512 -0.00164238 53.0909 0.00713209 50.9328Z" fill="black"/>
<path d="M99.2885 51.4738C103.249 51.4759 107.209 51.4673 111.169 51.4803C111.267 53.2729 111.303 55.0656 111.318 56.8604C111.296 57.5049 111.586 58.093 111.849 58.6661C113.723 55.63 116.576 53.0675 120.08 52.036C121.137 51.7722 122.199 51.4478 123.301 51.437C125.397 51.3765 127.499 51.3829 129.594 51.4738C129.582 55.3251 129.607 59.1786 129.581 63.0321C127.444 63.0429 125.309 63.0321 123.172 63.0386C123.157 61.1464 123.178 59.2521 123.184 57.36C121.951 57.3967 120.661 57.373 119.517 57.9049C116.745 59.0056 114.498 61.2546 113.378 63.9814C112.728 65.5514 112.17 67.2164 112.218 68.9334C112.243 73.7233 112.212 78.5153 112.236 83.3073C117.738 83.2965 123.24 83.2878 128.74 83.3115C128.722 85.3313 128.755 87.3511 128.715 89.3708C118.909 89.3946 109.102 89.3664 99.2929 89.386C99.2776 87.2926 99.2754 85.2016 99.2908 83.1105C101.355 83.117 103.42 83.0953 105.484 83.117C105.669 79.2614 105.522 75.397 105.57 71.5392C105.572 66.8337 105.564 62.1261 105.575 57.4205C103.479 57.4227 101.384 57.4119 99.2885 57.4205C99.2776 55.4397 99.2798 53.4567 99.2885 51.4738Z" fill="black"/>
<path d="M136.998 51.4711C141.177 51.4841 145.359 51.456 149.54 51.4863C149.539 58.458 149.54 65.432 149.54 72.4037C149.552 73.9606 149.453 75.5328 149.762 77.0724C150.051 79.4706 151.073 82.0028 153.275 83.2916C154.954 84.3837 157.048 84.3902 158.977 84.1696C161.619 83.5663 164.003 81.9423 165.486 79.702C166.45 78.3223 167.028 76.7199 167.378 75.0894C167.586 73.8461 167.507 72.5789 167.521 71.3246C167.522 66.8829 167.509 62.4412 167.527 57.9996C165.287 57.9931 163.047 57.9823 160.806 57.9953C160.808 55.822 160.811 53.6509 160.806 51.4776C165.299 51.4733 169.796 51.4625 174.292 51.4819C174.479 60.0691 174.248 68.6649 174.412 77.2541C174.675 79.1938 174.581 81.1552 174.614 83.1079C176.147 83.1316 177.683 83.0473 179.213 83.1402C179.657 83.1835 179.637 83.7479 179.653 84.0787C179.651 85.5211 179.662 86.9614 179.651 88.4037C179.624 88.7756 179.554 89.4352 179.035 89.3638C175.873 89.379 172.701 89.42 169.541 89.3444C169.077 88.8664 169.028 88.1723 168.952 87.5517C168.871 86.0769 168.469 84.6497 168.219 83.1986C167.25 84.814 166.172 86.4185 164.671 87.6057C162.409 89.4719 159.43 90.4732 156.486 90.3867C152.906 90.3867 149.236 89.113 146.707 86.5634C144.249 84.0464 143.092 80.5669 142.734 77.1547C142.698 70.771 142.73 64.3853 142.716 58.0017C140.81 57.9931 138.904 57.9844 136.999 57.9974C136.98 55.822 136.982 53.6466 136.998 51.4711Z" fill="black"/>
<path d="M85.9238 82.876C88.1158 82.8824 90.3078 82.8716 92.4998 82.8868C92.5129 85.0665 92.4931 87.2463 92.5129 89.4281C90.3143 89.4498 88.1135 89.4281 85.915 89.4433C85.9238 87.2527 85.9128 85.0643 85.9238 82.876Z" fill="black"/>
</svg>
