<svg width="1268" height="231" viewBox="0 0 1268 231" fill="none" xmlns="http://www.w3.org/2000/svg">
<path d="M959.23 2.14998C960.46 0.469977 962.61 0.789977 964.44 0.789977C964.58 6.68998 964.53 12.61 965.13 18.49C965.72 28.65 965.36 38.84 965.85 49.01C966.49 56.45 966.65 63.92 966.5 71.38C965.55 71.46 963.63 71.62 962.68 71.7C960.64 67.31 960.33 62.43 959.18 57.8C956.66 47.23 952.11 37.1 945.6 28.4C941.47 22.83 935.48 18.51 928.68 16.93C922.64 15.49 915.99 18.49 912.68 23.65C909.37 28.76 907.76 34.75 906.89 40.72C905.23 55.76 905.78 70.9 905.7 86C905.69 103.34 905.72 120.67 905.69 138C905.56 144.88 906.1 151.74 906.67 158.59C907.65 166.52 909.74 174.76 915.08 180.93C919.39 185.92 926.64 187.59 932.9 185.94C941.38 184.02 947.81 177.31 952 170.01C959.65 157.4 961.67 142.56 964.79 128.42C966.09 128.77 967.4 129.12 968.73 129.48C967.21 144.3 963.49 158.96 957.64 172.66C952.7 183.2 945.43 193.32 934.9 198.81C922.34 205 907.19 204.06 894.64 198.34C882.36 192.2 872.83 181.5 866.46 169.48C858.51 155.4 854.43 139.49 852.08 123.59C851.18 113.76 849.91 103.86 851.25 94C851.49 80.88 854.61 68.04 858.53 55.59C863.63 41.43 871.29 27.74 882.88 17.87C892.44 9.43998 905.27 4.54997 918.07 5.37997C928.59 5.41997 937.99 10.9 946.14 17.05C950.85 12.39 954.7 6.96998 959.23 2.14998Z" fill="black"/>
<path d="M456.47 5.87996C467.76 4.32996 479.63 5.70996 489.66 11.38C503.83 19.41 513.5 33.45 519.8 48.15C530.14 73.88 533.16 102.48 528.46 129.81C525.25 147.49 519.52 165.14 508.72 179.73C502.85 187.51 495.37 194.23 486.55 198.49C472.64 204.79 455.95 204.58 442.27 197.76C429.37 191.11 419.91 179.38 413.29 166.71C405.58 150.88 400.91 133.59 399.8 116.01C397.84 89.13 402.35 61.27 415.53 37.55C424.14 22.11 438.47 8.67996 456.47 5.87996ZM461.35 13.16C455.63 16.04 455.1 23.31 454.95 28.96C454.9 78.64 454.96 128.33 454.92 178.02C455.04 183.02 455.01 188.64 458.36 192.73C461.68 196.92 469.25 196.78 472.2 192.21C475.19 188.14 475.47 182.86 475.56 177.99C475.52 128.66 475.54 79.33 475.55 30C475.45 25.4 475.09 20.48 472.48 16.53C470.26 12.84 465.25 11.14 461.35 13.16Z" fill="black"/>
<path d="M764.46 5.84968C774.51 4.61968 785.04 5.28968 794.27 9.78968C809.29 16.7197 820.02 30.6697 826.57 45.5297C836.69 67.0297 839.6 91.2897 838.34 114.83C837.12 130.71 834.05 146.65 827.28 161.16C821.38 175.36 811.68 188.42 798.35 196.39C784.04 204.71 765.67 205.2 750.78 198.11C737.91 191.56 728.14 180.05 721.72 167.29C713.06 150.89 709.36 132.34 707.92 113.98C706.63 94.7297 709.15 75.2797 714.99 56.9097C720.14 42.4897 727.31 28.2397 739.07 18.0597C746.15 11.6897 755.07 7.41968 764.46 5.84968ZM769.34 13.1197C763.49 16.3897 762.9 23.9897 762.6 29.9697C762.62 79.6497 762.59 129.34 762.61 179.03C762.92 184.68 763.61 191.64 768.93 194.92C772.42 196.29 777.36 196.14 779.72 192.79C782.75 188.54 783.19 183.08 783.35 178.03C783.33 129.02 783.31 79.9997 783.36 30.9897C783.24 25.8797 782.85 20.4297 780.04 15.9997C777.89 12.4597 772.97 11.3697 769.34 13.1197Z" fill="black"/>
<path d="M0.149902 9.19047C6.7599 8.65047 13.3799 8.92046 19.9999 8.88046C42.6599 8.87046 65.3299 8.90047 87.9899 8.87047C96.7699 8.95047 105.91 9.22047 114.01 13.0105C122.5 17.0305 129.73 24.1805 132.91 33.1305C137.84 46.6505 137.57 61.9205 132.3 75.3005C128.98 83.4405 122.31 89.9505 114.35 93.5705C108.52 96.5605 102 97.6605 95.5899 98.6505C95.4999 99.2105 95.3099 100.35 95.2199 100.92C101.27 102.38 107.61 102.96 113.29 105.69C120.97 109.08 127.99 114.48 132.03 121.97C139.28 134.56 140.52 149.72 138.82 163.9C137.26 174.93 131.94 186.23 122 192.01C112.52 198.02 100.97 199.18 89.9999 198.89C60.0699 198.77 30.1399 199.04 0.219902 198.76C0.239902 196.61 0.259897 194.47 0.269897 192.32C4.3299 192.23 8.3899 192.16 12.4399 191.9C12.9399 136.61 12.4399 81.3005 12.6899 26.0105C12.7199 22.7905 12.5999 19.5705 12.3099 16.3705C8.5899 16.3305 4.8399 16.6405 1.1399 16.1105C-0.5701 14.5005 0.559902 11.4005 0.149902 9.19047ZM65.5099 16.5105C65.2199 42.8305 65.4899 69.1705 65.3699 95.4905C70.8899 97.1405 78.4099 97.3305 82.0699 92.0705C85.7499 86.4805 85.7999 79.4705 85.9699 73.0205C85.9499 60.6505 86.0799 48.2805 85.8999 35.9205C85.5799 30.0805 85.2399 23.5105 81.0999 18.9505C76.9799 14.9105 70.6699 16.6305 65.5099 16.5105ZM65.4299 103.31C65.3599 132.8 65.3699 162.3 65.4199 191.8C70.6499 192.3 76.8999 192.9 81.1099 189.11C85.3399 184.19 85.6399 177.25 85.9299 171.07C86.0499 156.38 85.9499 141.68 85.9799 126.98C85.7899 120.02 85.9099 112.29 81.5299 106.46C77.7199 101.51 70.7799 103.49 65.4299 103.31Z" fill="black"/>
<path d="M147.75 9.22961C150.49 9.02961 153.24 8.85961 155.99 8.84961C185.99 8.91961 216 8.85961 246 8.87961C252.6 8.90961 259.21 8.70961 265.81 9.08961C265.86 31.7496 265.97 54.4096 265.75 77.0596C264.43 76.9896 263.11 76.9096 261.79 76.8196C260.53 64.2996 257.98 51.7796 252.8 40.2496C248.63 31.3496 242.03 23.0396 232.71 19.2396C226.73 16.2696 219.95 16.0996 213.42 16.4096C213.35 44.1996 213.26 71.9996 213.46 99.7996C217.7 99.6496 222.19 99.2796 225.78 96.7596C232.01 92.5496 235.18 85.2496 237.14 78.2296C238.98 72.0596 238.52 65.5496 239.42 59.2296C240.79 59.2196 242.16 59.2296 243.53 59.2396C243.66 88.3596 243.71 117.48 243.51 146.6C242.16 146.59 240.81 146.59 239.46 146.58C238.5 140.33 239.01 133.87 237.18 127.76C235.7 122.47 233.6 117.19 230.02 112.95C225.94 108.28 219.5 105.91 213.36 106.73C213.4 135.09 213.3 163.46 213.41 191.82C222.81 192.08 232.6 190.04 240.14 184.15C249.47 177.18 255.15 166.58 258.75 155.73C262.39 146.07 263.42 135.73 264.89 125.59C266.33 125.59 267.78 125.59 269.23 125.6C269.46 150 269.46 174.41 269.22 198.81C236.48 198.97 203.74 198.83 171 198.87C163.25 198.8 155.51 199.07 147.77 198.71C147.8 196.59 147.84 194.47 147.89 192.36C152.39 192.28 156.89 192.09 161.37 191.62C161.35 133.25 161.37 74.8796 161.36 16.4996C156.87 16.4196 152.39 16.3796 147.92 16.0696C147.85 13.7896 147.79 11.5096 147.75 9.22961Z" fill="black"/>
<path d="M292.73 9.19952C299.14 8.66952 305.57 8.89952 312 8.87952C334.66 8.87952 357.33 8.87952 380 8.87952C386.04 8.88952 392.09 8.71952 398.13 9.13952C398.12 11.4995 398.09 13.8595 398.05 16.2295C393.84 16.3595 389.63 16.3895 385.43 16.4395C385.33 74.8795 385.35 133.32 385.42 191.76C390.67 192.29 395.95 192.23 401.22 192.23C401.46 204.94 401.53 217.68 401.18 230.39C399.92 230.28 398.67 230.16 397.42 230.05C396.43 221.91 396.56 212.74 390.82 206.21C386.95 201.33 380.51 199.92 374.62 199.43C362.1 198.41 349.54 199.05 337 198.87C325.37 199.06 313.64 198.23 302.11 200.09C296.18 200.92 290.66 204.64 288.11 210.12C285.25 216.22 284.93 223.07 284.32 229.67C283.19 230.08 282.06 230.48 280.93 230.88C280.26 227.63 280.14 224.3 280.23 220.99C280.4 211.5 280.1 202 280.37 192.51C284.49 191.64 289.03 191.2 292.38 188.37C296.28 184.96 298.56 180.13 300.47 175.4C304.11 165.64 306.05 155.33 307.37 145.02C310.96 112.81 309.74 80.3395 309.97 47.9995C309.83 40.5595 310.42 33.0595 309.33 25.6695C308.75 22.1395 307.25 17.9495 303.46 16.8295C299.97 16.1295 296.37 16.3495 292.84 16.0595C292.79 13.7695 292.75 11.4895 292.73 9.19952ZM319.79 16.9095C316.19 19.2395 315.42 23.9695 315.36 27.9395C315.22 51.9595 315.46 75.9795 315.25 99.9995C314.19 111.14 314.99 122.35 313.76 133.47C313.05 146.61 311.27 159.77 307.47 172.4C305.38 179.26 301.68 185.46 298.49 191.84C309.83 192.39 321.24 192.52 332.57 191.76C332.62 133.32 332.65 74.8795 332.56 16.4395C328.31 16.4695 323.93 15.7895 319.79 16.9095Z" fill="black"/>
<path d="M534.77 9.12958C546.5 8.56958 558.25 9.02958 570 8.87958C580.22 9.03958 590.45 8.52958 600.66 9.17958C605.58 32.2696 610.83 55.2796 615.55 78.4196C616.07 81.0696 616.69 83.7096 617.5 86.2996C619.42 83.3496 619.85 79.8096 620.52 76.4296C625.07 53.9296 630.56 31.6396 635.3 9.16958C644.85 8.54958 654.43 9.01958 664 8.87958C676.37 8.99958 688.76 8.62958 701.13 9.05958C701.13 11.4596 701.13 13.8596 701.12 16.2496C696.9 16.3596 692.68 16.3896 688.47 16.4396C688.38 74.8796 688.41 133.31 688.45 191.75C692.65 192.12 696.87 192.27 701.09 192.29C701.11 194.45 701.12 196.62 701.14 198.79C675.07 198.93 649 198.92 622.93 198.8C622.93 196.62 622.95 194.45 622.98 192.28C627.19 192.26 631.4 192.12 635.59 191.76C635.71 142.51 635.59 93.2596 635.65 43.9996C635.67 39.8796 635.74 35.7496 635.36 31.6396C633.5 36.1696 632.88 41.0596 631.82 45.7996C629.69 56.1896 626.96 66.4296 624.79 76.7996C619.76 100.61 614 124.25 609.09 148.09C604.87 164.91 601.6 181.95 597.71 198.85C595.25 198.85 592.8 198.84 590.36 198.82C586.16 177.87 580.93 157.15 576.79 136.19C571.71 114.09 567.04 91.8996 562.27 69.7296C559.05 56.8096 556.68 43.7096 553.55 30.7796C553.22 73.8496 553.51 116.93 553.41 160C553.51 167.4 552.93 174.95 554.78 182.19C555.65 185.23 556.92 188.57 559.79 190.25C562.88 191.72 566.38 191.9 569.71 192.5C569.74 194.58 569.77 196.67 569.81 198.75C558.15 198.97 546.48 198.95 534.81 198.76C534.75 196.85 534.7 194.95 534.66 193.05C537.46 191.79 540.57 190.98 542.97 188.97C544.9 186.96 545.81 184.22 546.57 181.59C548.45 174.22 548.39 166.55 548.31 159C548.29 117 548.31 74.9996 548.3 32.9996C548.25 27.4596 548.65 21.8996 547.87 16.3996C543.5 16.3996 539.14 16.3796 534.78 16.2296C534.76 13.8596 534.75 11.4896 534.77 9.12958Z" fill="black"/>
<path d="M976.53 9.18985C989.67 8.48985 1002.84 9.05984 1016 8.87984C1046.22 9.05984 1076.46 8.51984 1106.66 9.14984C1106.69 31.7498 1106.72 54.3598 1106.65 76.9698C1105.18 76.9598 1103.74 76.9598 1102.3 76.9498C1100.99 63.6898 1098.09 50.5298 1092.71 38.2998C1088.22 27.9698 1079.98 17.3398 1067.92 16.2798C1067.58 71.5098 1067.92 126.76 1067.75 181.99C1067.71 185.27 1067.82 188.55 1068.08 191.82C1073.1 192.28 1078.15 192.22 1083.19 192.24C1083.2 194.43 1083.22 196.61 1083.23 198.8C1055.39 198.93 1027.53 198.92 999.69 198.8C999.67 196.61 999.68 194.42 999.71 192.24C1004.87 192.2 1010.04 192.29 1015.2 191.89C1015.57 167.93 1015.24 143.96 1015.35 120C1015.25 85.4098 1015.55 50.8098 1015.21 16.2198C1006.13 17.1898 998.74 23.6198 994.07 31.1098C985.74 44.9598 982.23 61.0598 980.66 76.9898C979.27 76.9598 977.9 76.9298 976.54 76.8998C976.51 54.3298 976.54 31.7598 976.53 9.18985Z" fill="black"/>
<path d="M1115.78 9.13984C1125.51 8.57984 1135.26 9.00984 1145 8.87984C1159.18 8.95984 1173.36 8.71984 1187.54 8.98984C1187.52 11.3398 1187.5 13.6898 1187.46 16.0498C1185.42 16.2598 1183.4 16.4498 1181.38 16.6598C1181.24 47.1098 1181.37 77.5498 1181.32 108C1181.45 119.43 1181.05 130.87 1181.54 142.29C1183.83 133.95 1184.65 125.3 1186.39 116.83C1191.02 92.7998 1194.44 68.5498 1199.18 44.5298C1200.97 35.3698 1202.49 26.0998 1201.63 16.7298C1199.5 16.3898 1197.39 16.0098 1195.3 15.6198C1195.26 13.4698 1195.24 11.3198 1195.22 9.17984C1207.13 8.51984 1219.07 9.04984 1231 8.87984C1243.1 9.04984 1255.22 8.51984 1267.32 9.17984C1267.3 11.4998 1267.27 13.8298 1267.25 16.1598C1262.99 16.3698 1258.73 16.3998 1254.48 16.4498C1254.4 74.8798 1254.43 133.31 1254.47 191.74C1258.71 192.11 1262.97 192.27 1267.24 192.33C1267.27 194.47 1267.29 196.6 1267.32 198.74C1243.29 198.96 1219.25 198.96 1195.23 198.74C1195.24 196.68 1195.27 194.62 1195.3 192.56C1197.41 192.21 1199.54 191.86 1201.68 191.53C1201.87 162.35 1201.7 133.18 1201.76 104C1201.55 88.8598 1202.18 73.6898 1201.42 58.5699C1195.9 83.0499 1192.8 108.01 1187.99 132.63C1185.93 142.9 1184.41 153.26 1182.51 163.56C1180.65 172.75 1181.39 182.18 1181.4 191.49C1183.45 191.84 1185.51 192.21 1187.58 192.58C1187.59 194.63 1187.61 196.68 1187.66 198.73C1163.7 198.98 1139.73 198.94 1115.77 198.76C1115.77 196.61 1115.8 194.47 1115.85 192.33C1120.08 192.27 1124.32 192.11 1128.55 191.74C1128.59 133.31 1128.62 74.8798 1128.53 16.4498C1124.29 16.3898 1120.04 16.3598 1115.81 16.2298C1115.77 13.8598 1115.76 11.4998 1115.78 9.13984Z" fill="black"/>
</svg>
