<svg width="295" height="114" viewBox="0 0 295 114" fill="none" xmlns="http://www.w3.org/2000/svg">
<path d="M187.012 3.78608C189.323 2.10375 191.608 -0.472482 194.75 0.0749041C214.315 1.05919 233.84 4.20792 252.542 10.1438C263.237 13.6189 273.681 18.0683 283.187 24.1247C287.262 26.8014 291.371 29.5434 294.829 33.0085C294.493 33.7266 293.832 34.2187 293.295 34.7762C288.244 39.5118 283.618 44.6994 278.331 49.189C276.277 47.1953 274.638 44.825 272.613 42.8011C262.144 31.9187 249.029 23.9389 235.323 17.8373C219.928 11.0276 203.575 6.59834 187.012 3.78608Z" fill="black"/>
<path d="M154.027 3.5791C172.915 4.12147 191.743 7.40578 209.759 13.1106C227.83 18.916 245.25 27.649 259.383 40.5C264.209 45.0197 268.779 49.8709 272.528 55.3397C265.642 61.5669 259.513 68.5523 252.903 75.0607C246.388 59.1463 234.651 45.778 220.804 35.8046C208.792 27.1217 195.271 20.6887 181.279 15.9279C171.126 12.5331 160.707 9.80624 150.093 8.35492C151.12 6.54704 152.764 5.21624 154.027 3.5791Z" fill="black"/>
<path d="M0.00501253 50.7234C6.61011 50.7787 13.2202 50.6079 19.8253 50.869C22.9424 50.9494 26.1498 52.1898 28.019 54.7861C31.1562 58.6128 30.2341 65.0057 26.0445 67.6874C25.5083 67.8631 25.0222 68.8474 25.9293 68.9428C28.3097 69.9573 30.3544 71.8505 31.2214 74.3363C32.5243 78.4442 31.2414 83.3205 27.8787 86.0775C25.6837 87.9657 22.6718 88.4278 19.8754 88.4679C13.2503 88.6286 6.62514 88.5081 0 88.5433C0.0100229 75.9383 0.00501253 63.3284 0.00501253 50.7234ZM7.68256 57.2569C7.68757 60.0943 7.68256 62.9316 7.68757 65.769C11.2557 65.7288 14.8289 65.8443 18.392 65.6183C20.582 65.4376 22.2408 63.6849 22.5265 61.5406C22.2058 60.5111 22.1306 59.3108 21.3137 58.5224C20.1561 57.3674 18.4121 57.277 16.8736 57.2569C13.8116 57.2468 10.7446 57.2619 7.68256 57.2569ZM7.68256 72.2874C7.69258 75.5567 7.68256 78.8259 7.68757 82.1002C11.2557 82.1102 14.8239 82.1002 18.392 82.0098C19.705 81.9746 21.1233 81.7989 22.1506 80.8899C23.9046 79.5892 24.1402 77.013 23.3534 75.1097C22.5265 73.4123 20.6522 72.5234 18.833 72.428C15.1246 72.1368 11.396 72.3376 7.68256 72.2874Z" fill="black"/>
<path d="M38.092 50.7266C47.4384 50.7416 56.7898 50.7215 66.1361 50.7366C66.1361 52.9111 66.1361 55.0805 66.1361 57.255C59.3506 57.2651 52.5651 57.255 45.7796 57.26C45.7896 59.997 45.7846 62.7339 45.7846 65.4708C52.084 65.4759 58.3884 65.4909 64.6878 65.4608C64.743 67.6302 64.7129 69.7947 64.7279 71.9591C58.4135 71.9591 52.0991 71.9641 45.7896 71.9541C45.7846 75.3388 45.7846 78.7186 45.7846 82.0983C52.8057 82.1084 59.8267 82.0983 66.8428 82.1033C66.8428 84.2527 66.8428 86.4021 66.8478 88.5514C57.2609 88.5464 47.6739 88.5514 38.092 88.5464C38.0971 75.9364 38.0971 63.3315 38.092 50.7266Z" fill="black"/>
<path d="M78.8953 53.4365C82.8945 50.4334 88.1766 49.7152 93.0176 50.4635C96.0145 50.9908 98.9111 52.3166 101.066 54.4961C102.94 56.2939 103.978 58.7546 104.77 61.1852C102.219 61.8682 99.6779 62.6215 97.0619 63.0182C96.4906 60.3767 94.6313 57.9762 92.0103 57.1476C89.0936 56.2989 85.6207 56.6706 83.3104 58.7848C80.6544 61.0346 79.9277 64.7357 79.7974 68.0552C79.7022 71.907 79.8174 76.1555 82.1879 79.3846C85.0644 83.3217 91.7397 83.7988 94.8969 79.9721C96.2199 78.4555 96.8514 76.507 97.3876 74.6037C99.8883 75.367 102.359 76.2107 104.85 77.0092C103.847 80.7806 101.818 84.4617 98.4801 86.6311C94.8067 89.0366 90.2062 89.4534 85.9465 88.896C80.4739 88.1126 75.6028 84.2357 73.498 79.1284C71.7139 74.89 71.5084 70.1493 72.0998 65.6346C72.7663 60.9291 74.9513 56.2487 78.8953 53.4365Z" fill="black"/>
<path d="M107.436 50.7502C117.469 50.695 127.497 50.7502 137.53 50.7251C137.535 52.9046 137.535 55.0841 137.53 57.2636C133.816 57.2536 130.103 57.2586 126.389 57.2586C126.394 67.6891 126.389 78.1145 126.394 88.545C123.829 88.55 121.268 88.545 118.712 88.55C118.707 78.1195 118.717 67.6891 118.702 57.2636C114.948 57.2385 111.195 57.3038 107.441 57.2234C107.446 55.064 107.451 52.9096 107.436 50.7502Z" fill="black"/>
<path d="M142.22 50.7246C144.601 50.7297 146.986 50.7196 149.367 50.7347C149.407 59.066 149.286 67.3923 149.432 75.7186C154.463 67.3722 159.57 59.076 164.611 50.7347C167.137 50.8452 169.788 50.4836 172.234 50.8904C172.314 63.4401 172.264 75.9948 172.259 88.5445C169.853 88.5445 167.443 88.5445 165.037 88.5495C164.997 80.399 165.118 72.2535 164.977 64.108C160.016 72.2786 154.894 80.3437 149.933 88.5143C147.287 88.5445 144.749 88.5276 142.118 88.4917C142.118 82.9218 142.313 77.2941 142.225 71.5906C142.16 67.3495 142.16 63.1945 142.16 58.9605C142.16 56.247 142.16 53.4954 142.22 50.7246Z" fill="black"/>
<path d="M117.193 7.52752C117.975 7.23123 118.832 7.50241 119.644 7.51748C136.954 9.52121 154.033 13.5638 170.42 19.5198C192.25 27.4946 213.083 39.2257 229.445 55.9486C236.561 63.17 242.715 71.3407 247.707 80.1742C239.538 88.0887 231.845 96.4903 223.356 104.068C216.992 85.1358 206.187 67.7299 192.009 53.6887C180.192 41.8019 166.185 32.2151 151.186 24.8229C139.098 18.9322 126.369 14.2167 113.189 11.4797C114.587 10.2293 115.825 8.8081 117.193 7.52752Z" fill="black"/>
</svg>
