<svg width="589" height="208" viewBox="0 0 589 208" fill="none" xmlns="http://www.w3.org/2000/svg">
<path d="M373.56 8.00009C378.17 4.65009 382.73 -0.479907 389 0.610093C428.04 2.57009 467 8.84009 504.32 20.6601C525.66 27.5801 546.5 36.4401 565.47 48.5001C573.6 53.8301 581.8 59.2901 588.7 66.1901C588.03 67.6201 586.71 68.6001 585.64 69.7101C575.56 79.1401 566.33 89.4701 555.78 98.4101C551.68 94.4401 548.41 89.7201 544.37 85.6901C523.48 64.0201 497.31 48.1301 469.96 35.9801C439.24 22.4201 406.61 13.6001 373.56 8.00009Z" fill="black"/>
<path d="M307.74 7.58984C345.43 8.66984 383 15.2098 418.95 26.5698C455.01 38.1298 489.77 55.5198 517.97 81.1098C527.6 90.1098 536.72 99.7699 544.2 110.66C530.46 123.06 518.23 136.97 505.04 149.93C492.04 118.24 468.62 91.6198 440.99 71.7598C417.02 54.4698 390.04 41.6598 362.12 32.1798C341.86 25.4198 321.07 19.9898 299.89 17.0998C301.94 13.4998 305.22 10.8498 307.74 7.58984Z" fill="black"/>
<path d="M0.400139 101.47C13.5801 101.58 26.7701 101.24 39.9501 101.76C46.1701 101.92 52.5701 104.39 56.3001 109.56C62.5601 117.18 60.7201 129.91 52.3601 135.25C51.2901 135.6 50.3201 137.56 52.1301 137.75C56.8801 139.77 60.9601 143.54 62.6901 148.49C65.2901 156.67 62.7301 166.38 56.0201 171.87C51.6401 175.63 45.6301 176.55 40.0501 176.63C26.8301 176.95 13.6101 176.71 0.390137 176.78C0.410137 151.68 0.400139 126.57 0.400139 101.47ZM15.7201 114.48C15.7301 120.13 15.7201 125.78 15.7301 131.43C22.8501 131.35 29.9801 131.58 37.0901 131.13C41.4601 130.77 44.7701 127.28 45.3401 123.01C44.7001 120.96 44.5501 118.57 42.9201 117C40.6101 114.7 37.1301 114.52 34.0601 114.48C27.9501 114.46 21.8301 114.49 15.7201 114.48ZM15.7201 144.41C15.7401 150.92 15.7201 157.43 15.7301 163.95C22.8501 163.97 29.9701 163.95 37.0901 163.77C39.7101 163.7 42.5401 163.35 44.5901 161.54C48.0901 158.95 48.5601 153.82 46.9901 150.03C45.3401 146.65 41.6001 144.88 37.9701 144.69C30.5701 144.11 23.1301 144.51 15.7201 144.41Z" fill="black"/>
<path d="M76.3999 101.47C95.0499 101.5 113.71 101.46 132.36 101.49C132.36 105.82 132.36 110.14 132.36 114.47C118.82 114.49 105.28 114.47 91.7399 114.48C91.7599 119.93 91.7499 125.38 91.7499 130.83C104.32 130.84 116.9 130.87 129.47 130.81C129.58 135.13 129.52 139.44 129.55 143.75C116.95 143.75 104.35 143.76 91.7599 143.74C91.7499 150.48 91.7499 157.21 91.7499 163.94C105.76 163.96 119.77 163.94 133.77 163.95C133.77 168.23 133.77 172.51 133.78 176.79C114.65 176.78 95.5199 176.79 76.3999 176.78C76.4099 151.67 76.4099 126.57 76.3999 101.47Z" fill="black"/>
<path d="M157.82 106.87C165.8 100.89 176.34 99.46 186 100.95C191.98 102 197.76 104.64 202.06 108.98C205.8 112.56 207.87 117.46 209.45 122.3C204.36 123.66 199.29 125.16 194.07 125.95C192.93 120.69 189.22 115.91 183.99 114.26C178.17 112.57 171.24 113.31 166.63 117.52C161.33 122 159.88 129.37 159.62 135.98C159.43 143.65 159.66 152.11 164.39 158.54C170.13 166.38 183.45 167.33 189.75 159.71C192.39 156.69 193.65 152.81 194.72 149.02C199.71 150.54 204.64 152.22 209.61 153.81C207.61 161.32 203.56 168.65 196.9 172.97C189.57 177.76 180.39 178.59 171.89 177.48C160.97 175.92 151.25 168.2 147.05 158.03C143.49 149.59 143.08 140.15 144.26 131.16C145.59 121.79 149.95 112.47 157.82 106.87Z" fill="black"/>
<path d="M214.77 101.52C234.79 101.41 254.8 101.52 274.82 101.47C274.83 105.81 274.83 110.15 274.82 114.49C267.41 114.47 260 114.48 252.59 114.48C252.6 135.25 252.59 156.01 252.6 176.78C247.48 176.79 242.37 176.78 237.27 176.79C237.26 156.02 237.28 135.25 237.25 114.49C229.76 114.44 222.27 114.57 214.78 114.41C214.79 110.11 214.8 105.82 214.77 101.52Z" fill="black"/>
<path d="M284.18 101.469C288.93 101.479 293.69 101.459 298.44 101.489C298.52 118.079 298.28 134.659 298.57 151.239C308.61 134.619 318.8 118.099 328.86 101.489C333.9 101.709 339.19 100.989 344.07 101.799C344.23 126.789 344.13 151.789 344.12 176.779C339.32 176.779 334.51 176.779 329.71 176.789C329.63 160.559 329.87 144.339 329.59 128.119C319.69 144.389 309.47 160.449 299.57 176.719C294.29 176.779 289.226 176.746 283.976 176.674C283.976 165.583 284.365 154.377 284.19 143.019C284.06 134.574 284.06 126.301 284.06 117.869C284.06 112.466 284.06 106.987 284.18 101.469Z" fill="black"/>
<path d="M234.24 15.4503C235.8 14.8603 237.51 15.4003 239.13 15.4303C273.67 19.4203 307.75 27.4703 340.45 39.3303C384.01 55.2103 425.58 78.5703 458.23 111.87C472.43 126.25 484.71 142.52 494.67 160.11C478.37 175.87 463.02 192.6 446.08 207.69C433.38 169.99 411.82 135.33 383.53 107.37C359.95 83.7003 332 64.6103 302.07 49.8903C277.95 38.1603 252.55 28.7703 226.25 23.3203C229.04 20.8303 231.51 18.0003 234.24 15.4503Z" fill="black"/>
</svg>
