<svg width="496" height="496" viewBox="0 0 496 496" fill="none" xmlns="http://www.w3.org/2000/svg">
<path d="M280 328H336.398C361.754 328 386.07 338.07 404 356C421.93 373.93 432 398.238 432 423.602V488H64V423.602C64 398.246 74.0703 373.93 92 356C109.93 338.07 134.238 328 159.602 328H216L248 360L280 328Z" fill="#EDEBED"/>
<path d="M159.602 328C154.336 328 149.129 328.535 144 329.383V488H176V328H159.602Z" fill="#00AAF0"/>
<path d="M128 424H192V456H128V424Z" fill="#999999"/>
<path d="M335.602 328C330.336 328 325.129 328.535 320 329.383V488H352V328H335.602Z" fill="#00AAF0"/>
<path d="M304 424H368V456H304V424Z" fill="#999999"/>
<path d="M216 288V328L248 360L280 328V288" fill="#FCC062"/>
<path d="M236 348L256 328V288H216V328L236 348Z" fill="#FDD089"/>
<path d="M136 152L107.801 123.801C95.1211 111.121 88 93.9297 88 76C88 58.0703 95.1211 40.8789 107.801 28.1992L108.199 27.8008C120.879 15.1211 138.07 8 156 8H340C357.93 8 375.121 15.1211 387.801 27.8008L388.199 28.1992C400.879 40.8789 408 58.0703 408 76C408 93.9297 400.879 111.121 388.199 123.801L360 152" fill="#A7755D"/>
<path d="M248.008 28.5039C248.016 46.0977 241.031 62.9609 228.602 75.3984L228.098 75.9023C215.184 88.8164 197.824 96.0078 179.703 96.0078C159.551 96 136 96 136 96V233.375C136 247.863 141.754 261.762 152 272C162.246 282.246 176.137 288 190.625 288H305.367C319.855 288 333.754 282.246 343.992 272C354.238 261.754 359.992 247.863 359.992 233.375V96H316.281C298.168 96 280.801 88.8086 267.992 76C255.191 63.1914 248 45.8242 248 27.7109" fill="#FDD089"/>
<path d="M328 160C328 177.672 313.672 192 296 192C278.328 192 264 177.672 264 160C264 142.328 278.328 128 296 128C313.672 128 328 142.328 328 160Z" fill="#B3B3B3"/>
<path d="M304 160C304 143.641 295.047 130.375 284 130.375C272.953 130.375 264 143.641 264 160C264 176.359 272.953 189.625 284 189.625C295.047 189.625 304 176.359 304 160Z" fill="#CCCCCC"/>
<path d="M232 160C232 177.672 217.672 192 200 192C182.328 192 168 177.672 168 160C168 142.328 182.328 128 200 128C217.672 128 232 142.328 232 160Z" fill="#B3B3B3"/>
<path d="M208 160C208 143.641 199.047 130.375 188 130.375C176.953 130.375 168 143.641 168 160C168 176.359 176.953 189.625 188 189.625C199.047 189.625 208 176.359 208 160Z" fill="#CCCCCC"/>
<path d="M136 152H120C111.16 152 104 159.16 104 168V184C104 192.84 111.16 200 120 200H136" fill="#FDD089"/>
<path d="M360 152H376C384.84 152 392 159.16 392 168V184C392 192.84 384.84 200 376 200H360" fill="#FDD089"/>
<path d="M136 208H120C106.77 208 96 197.23 96 184V168C96 154.77 106.77 144 120 144H136V160H120C115.586 160 112 163.586 112 168V184C112 188.414 115.586 192 120 192H136V208Z" fill="black"/>
<path d="M376 208H360V192H376C380.414 192 384 188.414 384 184V168C384 163.586 380.414 160 376 160H360V144H376C389.23 144 400 154.77 400 168V184C400 197.23 389.23 208 376 208Z" fill="black"/>
<path d="M305.375 296H190.625C174.137 296 158 289.312 146.344 277.656C134.688 266 128 249.855 128 233.375V96C128 93.8711 128.84 91.8398 130.344 90.3438C131.848 88.8477 133.871 88 136 88L179.711 88.0078C195.816 88.0078 210.984 81.6953 222.449 70.2383C233.887 58.793 239.953 44.2656 240.008 28.7852C240 28.4336 240 28.0781 240 27.7188V8C240 3.58594 243.574 0 248 0C252.414 0 256 3.57422 256 8L256.008 28.5039V28.6875C256.258 44.4258 262.504 59.1836 273.656 70.3359C285.047 81.7266 300.176 88 316.281 88H360C364.426 88 368 91.5742 368 96V233.375C368 249.863 361.312 266 349.656 277.656C338 289.312 321.855 296 305.375 296ZM144 104V233.375C144 245.648 148.977 257.664 157.656 266.344C166.336 275.023 178.352 280 190.625 280H305.375C317.648 280 329.664 275.023 338.344 266.344C347.023 257.664 352 245.648 352 233.375V104H316.281C295.902 104 276.754 96.0625 262.344 81.6562C256.496 75.8086 251.711 69.168 248.098 61.9922C244.574 68.9531 239.93 75.3828 234.266 81.0547C219.289 96.0312 200.098 104.008 179.719 104.008L144 104Z" fill="black"/>
<path d="M432 496H64C59.5742 496 56 492.426 56 488V423.602C56 395.93 66.7773 369.91 86.3438 350.344C105.91 330.777 131.93 320 159.602 320H216V336H159.602C136.199 336 114.199 345.113 97.6562 361.656C81.1133 378.199 72 400.199 72 423.602V480H424V423.602C424 400.199 414.887 378.199 398.344 361.656C381.801 345.113 359.801 336 336.398 336H280V320H336.398C364.07 320 390.09 330.777 409.656 350.344C429.223 369.91 440 395.93 440 423.602V488C440 492.426 436.426 496 432 496Z" fill="black"/>
<path d="M136 456H152V488H136V456Z" fill="black"/>
<path d="M136 328H152V424H136V328Z" fill="black"/>
<path d="M168 456H184V488H168V456Z" fill="black"/>
<path d="M168 328H184V424H168V328Z" fill="black"/>
<path d="M248 368C245.953 368 243.902 367.215 242.344 365.656L210.344 333.656C208.84 332.16 208 330.129 208 328V288H224V324.688L248 348.688L272 324.688V288H288V328C288 330.129 287.16 332.16 285.656 333.656L253.656 365.656C252.098 367.215 250.047 368 248 368Z" fill="black"/>
<path d="M200 200C177.945 200 160 182.055 160 160C160 137.945 177.945 120 200 120C222.055 120 240 137.945 240 160C240 182.055 222.055 200 200 200ZM200 136C186.77 136 176 146.77 176 160C176 173.23 186.77 184 200 184C213.23 184 224 173.23 224 160C224 146.77 213.23 136 200 136Z" fill="black"/>
<path d="M296 200C273.945 200 256 182.055 256 160C256 137.945 273.945 120 296 120C318.055 120 336 137.945 336 160C336 182.055 318.055 200 296 200ZM296 136C282.77 136 272 146.77 272 160C272 173.23 282.77 184 296 184C309.23 184 320 173.23 320 160C320 146.77 309.23 136 296 136Z" fill="black"/>
<path d="M328 144H360V160H328V144Z" fill="black"/>
<path d="M365.656 157.656L354.344 146.344L382.543 118.145C393.809 106.879 400 91.9219 400 76C400 60.0781 393.809 45.1211 382.543 33.8555C370.879 22.1914 355.922 16 340 16H156C140.078 16 125.121 22.1914 113.855 33.457C102.191 45.1211 96 60.0781 96 76C96 91.9219 102.191 106.879 113.457 118.145L141.656 146.344L130.344 157.656L102.145 129.457C87.8555 115.176 80 96.1914 80 76C80 55.8086 87.8555 36.8242 102.145 22.543C116.824 7.85547 135.809 0 156 0H340C360.191 0 379.176 7.85547 393.457 22.1445C408.145 36.8242 416 55.8086 416 76C416 96.1914 408.145 115.176 393.855 129.457L365.656 157.656Z" fill="black"/>
<path d="M136 144H168V160H136V144Z" fill="black"/>
<path d="M232 144H264V160H232V144Z" fill="black"/>
<path d="M176 256C167.176 256 160 248.824 160 240C160 231.176 167.176 224 176 224C184.824 224 192 231.176 192 240C192 248.824 184.824 256 176 256ZM176 239.984V240V239.984Z" fill="black"/>
<path d="M320 256C311.176 256 304 248.824 304 240C304 231.176 311.176 224 320 224C328.824 224 336 231.176 336 240C336 248.824 328.824 256 320 256ZM320 239.984V240V239.984Z" fill="black"/>
<path d="M248 264C230.352 264 216 249.648 216 232H232C232 240.824 239.176 248 248 248C256.824 248 264 240.824 264 232H280C280 249.648 265.648 264 248 264Z" fill="black"/>
<path d="M192 464H128C123.574 464 120 460.426 120 456V424C120 419.574 123.574 416 128 416H192C196.426 416 200 419.574 200 424V456C200 460.426 196.426 464 192 464ZM136 448H184V432H136V448Z" fill="black"/>
<path d="M312 456H328V488H312V456Z" fill="black"/>
<path d="M312 328H328V424H312V328Z" fill="black"/>
<path d="M344 456H360V488H344V456Z" fill="black"/>
<path d="M344 328H360V424H344V328Z" fill="black"/>
<path d="M368 464H304C299.574 464 296 460.426 296 456V424C296 419.574 299.574 416 304 416H368C372.426 416 376 419.574 376 424V456C376 460.426 372.426 464 368 464ZM312 448H360V432H312V448Z" fill="black"/>
</svg>
