<svg width="496" height="496" viewBox="0 0 496 496" fill="none" xmlns="http://www.w3.org/2000/svg">
<path d="M176 344L44.8789 375.215C23.2578 380.367 8 399.688 8 421.91V488H488V421.91C488 399.688 472.742 380.367 451.121 375.215L320 344L248 384L176 344Z" fill="#5789D6"/>
<path d="M472 437.91C472 415.688 456.742 396.367 435.121 391.215L304 360L232 400L160 360L28.8789 391.215C23.9102 392.398 19.3359 394.398 15.1523 396.945C10.6562 404.297 8 412.824 8 421.91V488H472V437.91Z" fill="#699CE6"/>
<path d="M96 488V352L144 336V424H352V336L400 352V488" fill="#EEBC5A"/>
<path d="M96 488V352L144 336V424H352V336L400 352V488" fill="#EEBC5A"/>
<path d="M352 424H336V440H128V352L96 362.664V488H384V368L352 357.336V424Z" fill="#F8CF6A"/>
<path d="M296 304L313.457 347.641L248 384L182.543 347.641L200 304" fill="#CEB2AA"/>
<path d="M289.457 339.641L275.199 304H200L182.543 347.641L228.801 373.336L289.457 339.641Z" fill="#E5C7BD"/>
<path d="M248 312C199.398 312 160 272.602 160 224V168H336V224C336 272.602 296.602 312 248 312Z" fill="#CEB2AA"/>
<path d="M240 311.602C284.848 307.551 320 269.902 320 224V168H160V224C160 269.902 195.152 307.551 240 311.602Z" fill="#E5C7BD"/>
<path d="M160 232C142.328 232 128 217.672 128 200V168H160" fill="#CEB2AA"/>
<path d="M336 232C353.672 232 368 217.672 368 200V168H336" fill="#CEB2AA"/>
<path d="M352 200V168H336V227.559C345.527 222.016 352 211.816 352 200Z" fill="#E5C7BD"/>
<path d="M160 200L176 216H232L248 200L264 216H320L336 200V168H160V200Z" fill="#ABB2BC"/>
<path d="M160 168H320V200H160V168Z" fill="#CDD1D8"/>
<path d="M144 136V96C144 56.2305 176.23 24 216 24H280C319.77 24 352 56.2305 352 96V136" fill="#EEBC5A"/>
<path d="M328 96C328 69.4883 306.512 48 280 48H168C165.992 48 164.023 48.1602 162.07 48.3984C150.863 61.0977 144 77.7266 144 96V136H328V96Z" fill="#F8CF6A"/>
<path d="M264 104L288 8H208L232 104" fill="#EEBC5A"/>
<path d="M244 104L264 24H212L232 104H244Z" fill="#F8CF6A"/>
<path d="M128 136H368V168H128V136Z" fill="#EEBC5A"/>
<path d="M128 152H368V168H128V152Z" fill="#F8CF6A"/>
<path d="M368 176H128C123.574 176 120 172.414 120 168V136C120 131.586 123.574 128 128 128H368C372.426 128 376 131.586 376 136V168C376 172.414 372.426 176 368 176ZM136 160H360V144H136V160Z" fill="black"/>
<path d="M248 320C195.062 320 152 276.938 152 224V168C152 163.586 155.574 160 160 160H336C340.426 160 344 163.586 344 168V224C344 276.938 300.938 320 248 320ZM168 176V224C168 268.113 203.887 304 248 304C292.113 304 328 268.113 328 224V176H168Z" fill="black"/>
<path d="M288.414 298.527L274.23 256H221.762L207.586 298.527L192.414 293.465L208.414 245.465C209.504 242.199 212.551 240 216 240H280C283.449 240 286.496 242.199 287.586 245.473L303.586 293.473L288.414 298.527Z" fill="black"/>
<path d="M160 240C137.945 240 120 222.055 120 200V168H136V200C136 213.23 146.77 224 160 224V240Z" fill="black"/>
<path d="M336 240V224C349.23 224 360 213.23 360 200V168H376V200C376 222.055 358.055 240 336 240Z" fill="black"/>
<path d="M232 272H264V288H232V272Z" fill="black"/>
<path d="M320 224H264C261.871 224 259.84 223.16 258.344 221.656L248 211.312L237.656 221.656C236.16 223.16 234.129 224 232 224H176C173.871 224 171.84 223.16 170.344 221.656L154.344 205.656L165.656 194.344L179.312 208H228.688L242.344 194.344C245.473 191.215 250.527 191.215 253.656 194.344L267.312 208H316.688L330.344 194.344L341.656 205.656L325.656 221.656C324.16 223.16 322.129 224 320 224Z" fill="black"/>
<path d="M271.762 105.945L256.246 102.062L277.754 16H218.246L239.754 102.055L224.238 105.938L200.238 9.9375C199.641 7.54297 200.176 5.01562 201.695 3.07031C203.215 1.12891 205.535 0 208 0H288C290.465 0 292.793 1.13672 294.305 3.07812C295.816 5.02344 296.359 7.55078 295.762 9.94531L271.762 105.945Z" fill="black"/>
<path d="M360 136H344V96C344 60.7109 315.289 32 280 32V16C324.113 16 360 51.8867 360 96V136Z" fill="black"/>
<path d="M152 136H136V96C136 51.8867 171.887 16 216 16V32C180.711 32 152 60.7109 152 96V136Z" fill="black"/>
<path d="M153.602 52.8008L166.398 43.1992L190.398 75.1992L177.602 84.8008L153.602 52.8008Z" fill="black"/>
<path d="M305.613 75.1953L329.621 43.1992L342.418 52.8008L318.41 84.7969L305.613 75.1953Z" fill="black"/>
<path d="M176.582 341.055L192.57 301.051L207.426 306.988L191.438 346.992L176.582 341.055Z" fill="black"/>
<path d="M288.582 306.973L303.438 301.031L319.438 341.031L304.582 346.973L288.582 306.973Z" fill="black"/>
<path d="M248 392C246.664 392 245.32 391.664 244.121 390.992L174.832 352.496L145.855 359.391L142.152 343.832L174.152 336.215C176.098 335.742 178.145 336.039 179.887 337.008L248 374.848L316.121 337.008C317.863 336.039 319.91 335.754 321.855 336.215L353.855 343.832L350.152 359.391L321.176 352.496L251.887 390.992C250.68 391.664 249.336 392 248 392Z" fill="black"/>
<path d="M488 496H8C3.57422 496 0 492.426 0 488V421.91C0 395.863 17.6953 373.465 43.0312 367.434L94.1523 355.266L97.8555 370.824L46.7344 382.992C28.6406 387.312 16 403.312 16 421.91V480H480V421.91C480 403.312 467.359 387.312 449.266 383L398.145 370.832L401.848 355.273L452.969 367.441C478.305 373.473 496 395.863 496 421.91V488C496 492.426 492.426 496 488 496Z" fill="black"/>
<path d="M408 488H392V357.769L360 347.105V424C360 428.425 356.426 432 352 432H144C139.574 432 136 428.425 136 424V347.105L104 357.769V488H88V352C88 348.55 90.1992 345.504 93.4727 344.414L141.473 328.414C143.902 327.586 146.586 328.007 148.68 329.511C150.77 331.015 152 333.433 152 336V416H344V336C344 333.433 345.23 331.015 347.32 329.504C349.414 328 352.098 327.574 354.527 328.406L402.527 344.406C405.801 345.504 408 348.55 408 352V488Z" fill="black"/>
</svg>
