<svg width="512" height="512" viewBox="0 0 512 512" fill="none" xmlns="http://www.w3.org/2000/svg">
<path d="M173.419 421.161H338.58V512H173.419V421.161Z" fill="#E4BF98"/>
<path d="M173.419 421.161H313.806V512H173.419V421.161Z" fill="#F9DAAE"/>
<path d="M123.871 222.968V322.065C123.871 395.04 183.024 454.194 256 454.194C328.976 454.194 388.129 395.04 388.129 322.065V222.968" fill="#E4BF98"/>
<path d="M243.613 453.565C310.766 447.315 363.355 390.855 363.355 322.065V222.968H123.871V322.065C123.871 390.855 176.46 447.315 243.613 453.565Z" fill="#F9DAAE"/>
<path d="M355.097 272.517H388.129V305.549H355.097V272.517Z" fill="#999999"/>
<path d="M123.871 272.517H156.903V305.549H123.871V272.517Z" fill="#999999"/>
<path d="M156.903 256V322.065H231.226L239.484 289.032H272.516L280.774 322.065H355.097V256H156.903Z" fill="#B3B3B3"/>
<path d="M156.903 256V322.065H214.71L222.968 289.032H272.516L280.774 322.065H338.581V256H156.903Z" fill="#CCCCCC"/>
<path d="M90.8389 189.936H421.161V222.968H90.8389V189.936Z" fill="#EB9238"/>
<path d="M90.8389 206.451H421.161V222.967H90.8389V206.451Z" fill="#F3A546"/>
<path d="M107.354 189.935V156.903C107.354 93.0521 159.117 41.29 222.967 41.29H289.032C352.883 41.29 404.645 93.0521 404.645 156.903V189.935" fill="#F3A546"/>
<path d="M297.291 24.7744H330.323L313.807 189.936H280.774" fill="#F4B23E"/>
<path d="M214.71 24.7744H181.678L198.194 189.936H231.226" fill="#F4B23E"/>
<path d="M231.226 189.935L214.71 8.25781H297.291L280.774 189.935" fill="#F3A546"/>
<path d="M421.162 231.226H90.8391C86.2706 231.226 82.5811 227.537 82.5811 222.968V189.936C82.5811 185.367 86.2706 181.678 90.8391 181.678H421.162C425.73 181.678 429.42 185.367 429.42 189.936V222.968C429.42 227.537 425.73 231.226 421.162 231.226ZM99.0972 214.71H412.904V198.194H99.0972V214.71Z" fill="black"/>
<path d="M412.903 189.936H396.387V156.904C396.387 112.69 368.657 72.3835 327.375 56.5932L333.278 41.1738C380.903 59.3754 412.903 105.896 412.903 156.904V189.936Z" fill="black"/>
<path d="M115.613 189.935H99.0967V156.903C99.0967 105.903 131.097 59.3828 178.73 41.165L184.633 56.5844C143.343 72.3908 115.613 112.697 115.613 156.903V189.935Z" fill="black"/>
<path d="M189.975 190.763L173.459 25.6013C173.229 23.2787 173.988 20.9602 175.556 19.2343C177.121 17.5005 179.346 16.5166 181.677 16.5166H214.709V33.0327H190.802L206.411 189.109L189.975 190.763Z" fill="black"/>
<path d="M289 190.685L272.549 189.185L288.246 16.5161H223.746L239.444 189.185L222.992 190.685L206.476 9.00806C206.271 6.69758 207.037 4.40323 208.609 2.68548C210.178 0.975806 212.392 0 214.71 0H297.291C299.609 0 301.823 0.975806 303.383 2.68548C304.944 4.40323 305.722 6.68952 305.517 9.00806L289 190.685Z" fill="black"/>
<path d="M322.024 190.763L305.588 189.117L321.197 33.0327H297.29V16.5166H330.322C332.653 16.5166 334.879 17.5005 336.443 19.2343C338.004 20.9602 338.77 23.2706 338.54 25.6013L322.024 190.763Z" fill="black"/>
<path d="M355.097 330.323H280.775C276.984 330.323 273.69 327.746 272.762 324.065L266.069 297.291H245.932L239.23 324.065C238.311 327.746 235.016 330.323 231.226 330.323H156.904C152.335 330.323 148.646 326.633 148.646 322.065V256C148.646 251.432 152.335 247.742 156.904 247.742H355.097C359.666 247.742 363.355 251.432 363.355 256V322.065C363.355 326.633 359.666 330.323 355.097 330.323ZM287.222 313.807H346.839V264.258H165.162V313.807H224.779L231.48 287.033C232.4 283.351 235.694 280.774 239.484 280.774H272.516C276.307 280.774 279.601 283.351 280.529 287.033L287.222 313.807Z" fill="black"/>
<path d="M355.097 264.258H388.129V280.774H355.097V264.258Z" fill="black"/>
<path d="M355.097 297.29H388.129V313.806H355.097V297.29Z" fill="black"/>
<path d="M123.871 264.258H156.903V280.774H123.871V264.258Z" fill="black"/>
<path d="M123.871 297.29H156.903V313.806H123.871V297.29Z" fill="black"/>
<path d="M256 379.871C253.887 379.871 251.77 379.061 250.161 377.452L236.065 363.355H222.968V346.839H239.484C241.681 346.839 243.778 347.706 245.323 349.258L256 359.936L266.677 349.258C268.222 347.706 270.319 346.839 272.516 346.839H289.032V363.355H275.936L261.839 377.452C260.23 379.061 258.113 379.871 256 379.871Z" fill="black"/>
<path d="M256 412.904C232.919 412.904 210.044 405.275 191.58 391.424L184.979 386.476L194.883 373.267L201.488 378.218C217.113 389.94 236.467 396.388 256 396.388C275.532 396.388 294.887 389.94 310.504 378.218L317.117 373.267L327.02 386.476L320.411 391.432C301.955 405.275 279.08 412.904 256 412.904Z" fill="black"/>
<path d="M256 462.452C178.589 462.452 115.613 399.476 115.613 322.065V222.968H132.129V322.065C132.129 390.367 187.698 445.936 256 445.936C324.303 445.936 379.871 390.367 379.871 322.065V222.968H396.387V322.065C396.387 399.476 333.412 462.452 256 462.452Z" fill="black"/>
<path d="M165.161 421.161H181.677V512H165.161V421.161Z" fill="black"/>
<path d="M330.322 421.161H346.838V512H330.322V421.161Z" fill="black"/>
</svg>
