<svg width="512" height="512" viewBox="0 0 512 512" fill="none" xmlns="http://www.w3.org/2000/svg">
<path d="M409.599 196.267L392.533 366.933L351.574 319.146C345.087 311.562 335.608 307.2 325.633 307.2H116.191C102.62 307.204 90.341 315.246 84.916 327.679L42.666 443.733V503.467H93.866V443.733L127.999 358.4V503.467H315.733V366.933L370.704 415.037C383.879 426.554 402.362 429.804 418.67 423.462C434.983 417.125 446.42 402.246 448.358 384.854L469.333 196.267H409.599Z" fill="#EBEBEB"/>
<path d="M196.267 264.533H247.467V307.2H196.267V264.533Z" fill="#F9D7C0"/>
<path d="M196.267 285.671C212.817 291.621 230.917 291.621 247.467 285.671V264.533H196.267V285.671Z" fill="#EECDB8"/>
<path d="M153.6 204.8H130.917C119.175 204.8 108.938 196.804 106.088 185.412L101.821 168.346C99.9084 160.7 101.625 152.596 106.475 146.383C111.325 140.167 118.767 136.533 126.65 136.533H153.6V204.8Z" fill="#EECDB8"/>
<path d="M281.6 204.8H312.816C324.558 204.8 334.795 196.804 337.645 185.412L341.912 168.346C343.825 160.7 342.108 152.596 337.258 146.383C332.408 140.167 324.966 136.533 317.083 136.533H281.6V204.8Z" fill="#EECDB8"/>
<path d="M170.667 85.333C170.696 67.3288 156.704 52.4122 138.733 51.2955C120.767 50.1747 105.029 63.2413 102.825 81.108C102.683 81.108 102.546 81.0663 102.4 81.0663C93.1415 81.0497 84.9373 87.0163 82.0957 95.8247C79.2582 104.633 82.4332 114.271 89.9582 119.662C81.6498 134.266 85.2332 152.746 98.3999 163.183C111.567 173.621 130.379 172.891 142.7 161.471C155.021 150.046 157.167 131.346 147.754 117.429C161.442 112.691 170.633 99.8163 170.667 85.333Z" fill="#B9B9B9"/>
<path d="M273.066 85.333C273.037 67.3288 287.029 52.4122 305 51.2955C322.966 50.1747 338.704 63.2413 340.908 81.108C341.05 81.108 341.187 81.0663 341.333 81.0663C350.591 81.0497 358.796 87.0163 361.637 95.8247C364.475 104.633 361.3 114.271 353.775 119.662C362.083 134.266 358.5 152.746 345.333 163.183C332.166 173.621 313.354 172.891 301.033 161.471C288.712 150.046 286.566 131.346 295.979 117.429C282.291 112.691 273.1 99.8163 273.066 85.333Z" fill="#B9B9B9"/>
<path d="M221.866 42.666C264.283 42.666 298.666 77.0494 298.666 119.466V196.266C298.666 238.683 264.283 273.066 221.866 273.066C179.45 273.066 145.066 238.683 145.066 196.266V119.466C145.066 77.0494 179.45 42.666 221.866 42.666Z" fill="#F9D7C0"/>
<path d="M204.801 162.133C204.801 176.271 193.338 187.733 179.201 187.733C165.063 187.733 153.601 176.271 153.601 162.133C153.601 147.996 165.063 136.533 179.201 136.533C193.338 136.533 204.801 147.996 204.801 162.133Z" fill="#EBEBEB"/>
<path d="M290.133 162.133C290.133 176.271 278.67 187.733 264.533 187.733C250.395 187.733 238.933 176.271 238.933 162.133C238.933 147.996 250.395 136.533 264.533 136.533C278.67 136.533 290.133 147.996 290.133 162.133Z" fill="#EBEBEB"/>
<path d="M324.267 153.6H297.454C293.625 138.546 280.067 128.009 264.533 128.009C249 128.009 235.442 138.546 231.613 153.6H212.121C208.292 138.546 194.733 128.009 179.2 128.009C163.667 128.009 150.108 138.546 146.279 153.6H119.467V170.667H146.279C150.108 185.721 163.667 196.259 179.2 196.259C194.733 196.259 208.292 185.721 212.121 170.667H231.613C235.442 185.721 249 196.259 264.533 196.259C280.067 196.259 293.625 185.721 297.454 170.667H324.267V153.6ZM179.2 179.2C169.775 179.2 162.133 171.559 162.133 162.134C162.133 152.709 169.775 145.067 179.2 145.067C188.625 145.067 196.267 152.709 196.267 162.134C196.267 171.559 188.625 179.2 179.2 179.2ZM264.533 179.2C255.108 179.2 247.467 171.559 247.467 162.134C247.467 152.709 255.108 145.067 264.533 145.067C273.958 145.067 281.6 152.709 281.6 162.134C281.6 171.559 273.958 179.2 264.533 179.2Z" fill="#428DC5"/>
<path d="M221.867 213.334H216.617C188.867 213.334 163.909 230.23 153.601 256.001H180.667C196.121 256.001 210.942 249.863 221.867 238.934C232.792 249.863 247.613 256.001 263.067 256.001H290.134C279.826 230.23 254.867 213.334 227.117 213.334H221.867Z" fill="#B9B9B9"/>
<path d="M435.199 136.533H452.266C461.691 136.533 469.333 144.175 469.333 153.6V179.2C469.333 188.625 461.691 196.267 452.266 196.267H435.199V136.533Z" fill="#EECDB8"/>
<path d="M477.866 68.266C477.866 82.4035 466.404 93.866 452.266 93.866C438.129 93.866 426.666 82.4035 426.666 68.266C426.666 54.1285 438.129 42.666 452.266 42.666C466.404 42.666 477.866 54.1285 477.866 68.266Z" fill="#34B2A6"/>
<path d="M401.066 25.5999C401.066 35.0249 393.424 42.6665 383.999 42.6665C374.574 42.6665 366.933 35.0249 366.933 25.5999C366.933 16.1749 374.574 8.5332 383.999 8.5332C393.424 8.5332 401.066 16.1749 401.066 25.5999Z" fill="#34B2A6"/>
<path d="M247.467 460.8H264.533V477.866H247.467V460.8Z" fill="#C3C3C3"/>
<path d="M247.467 426.666H264.533V443.733H247.467V426.666Z" fill="#C3C3C3"/>
<path d="M213.334 392.533H230.401V503.467H213.334V392.533Z" fill="#DEDEDC"/>
<path d="M196.267 443.734H179.2V426.667H128V409.601H187.733C192.446 409.601 196.267 413.421 196.267 418.134V443.734Z" fill="#DEDEDC"/>
<path d="M218.054 221.013L200.988 212.48C198.538 211.255 196.825 208.925 196.388 206.221C195.946 203.517 196.834 200.767 198.767 198.825L215.834 181.759L227.9 193.825L219.204 202.521L225.679 205.755L218.054 221.013Z" fill="#C17450"/>
<path d="M221.867 409.6L162.134 307.2H281.6L221.867 409.6Z" fill="#69B0BB"/>
<path d="M204.8 307.2H238.933V341.334H204.8V307.2Z" fill="#EA6B65"/>
<path d="M204.8 341.333L162.134 349.866V298.666L204.8 307.199V341.333Z" fill="#B6534F"/>
<path d="M238.933 341.333L281.599 349.866V298.666L238.933 307.199V341.333Z" fill="#B6534F"/>
<path d="M435.2 182.8V119.467H401.067V182.8C382.55 190.883 372.237 210.846 376.366 230.625C380.496 250.4 397.929 264.571 418.133 264.571C438.337 264.571 455.771 250.4 459.9 230.625C464.029 210.846 453.717 190.883 435.2 182.8Z" fill="#DEDEDC"/>
<path d="M376.32 230.399C380.358 250.287 397.841 264.574 418.133 264.574C438.424 264.574 455.908 250.287 459.945 230.399H376.32Z" fill="#34B2A6"/>
<path d="M452.266 128H443.733V119.466C443.733 114.754 439.912 110.933 435.199 110.933H401.066C396.354 110.933 392.533 114.754 392.533 119.466V177.57C373.454 188.562 363.554 210.533 367.966 232.108C368.529 234.775 369.308 237.395 370.295 239.941C370.433 240.308 370.549 240.683 370.695 241.05C371.662 243.408 372.804 245.687 374.108 247.875C374.358 248.295 374.595 248.729 374.854 249.095C376.199 251.237 377.699 253.279 379.349 255.195C379.57 255.454 379.799 255.7 380.033 255.958C383.674 260.033 387.937 263.504 392.67 266.241L392.987 266.429C393.308 266.616 393.624 266.82 393.958 266.991L386.029 346.25L358.033 313.583C349.929 304.116 338.091 298.67 325.633 298.666H290.133C290.133 296.104 288.983 293.675 286.995 292.054C285.012 290.433 282.404 289.791 279.891 290.304L255.999 295.083V274.425C261.979 271.787 267.629 268.47 272.845 264.533H290.133C292.962 264.533 295.608 263.125 297.195 260.783C298.779 258.441 299.104 255.462 298.054 252.833C296.679 249.425 295.062 246.12 293.212 242.945C299.154 233.945 303.324 223.895 305.491 213.333H312.833C328.499 213.354 342.162 202.683 345.941 187.479L350.208 170.412L349.995 170.358C360.624 162.358 366.895 149.837 366.933 136.533C366.933 131.429 365.987 126.366 364.133 121.608C370.87 113.658 372.966 102.77 369.662 92.887C366.354 83.0079 358.129 75.5704 347.962 73.2745C343.783 58.9287 332.37 47.8287 317.912 44.0495C303.454 40.2662 288.074 44.3537 277.399 54.8162C245.512 27.237 198.212 27.237 166.324 54.8162C155.654 44.3537 140.27 40.2662 125.812 44.0495C111.358 47.8287 99.9495 58.9287 95.7703 73.2745C85.6036 75.5704 77.3786 83.0079 74.0703 92.887C70.7661 102.77 72.862 113.658 79.5995 121.608C77.7453 126.366 76.7995 131.429 76.7995 136.533C76.8411 149.841 83.1203 162.362 93.7536 170.358L93.5411 170.412L97.8078 187.479C101.587 202.683 115.249 213.354 130.916 213.333H138.258C140.42 223.895 144.583 233.945 150.52 242.945C148.67 246.12 147.054 249.425 145.679 252.833C144.629 255.462 144.954 258.441 146.537 260.783C148.124 263.125 150.77 264.533 153.599 264.533H170.887C176.104 268.47 181.754 271.787 187.733 274.425V295.083L163.841 290.304C161.329 289.791 158.72 290.433 156.737 292.054C154.749 293.675 153.599 296.104 153.599 298.666H116.191C99.0703 298.725 83.6328 308.979 76.937 324.737L34.687 440.787C34.3286 441.729 34.1411 442.725 34.1328 443.733V503.466C34.1328 508.179 37.9536 512 42.6661 512H93.8661C98.5786 512 102.399 508.179 102.399 503.466V445.37L119.466 402.704V503.466C119.466 508.179 123.287 512 127.999 512H315.733C320.445 512 324.266 508.179 324.266 503.466V385.708L365.091 421.416C380.649 435.041 402.487 438.891 421.766 431.408C441.045 423.925 454.566 406.345 456.858 385.791L477.816 197.204C478.083 194.791 477.308 192.383 475.691 190.575C475.57 190.437 475.383 190.387 475.254 190.258C476.949 186.816 477.845 183.037 477.866 179.2V153.6C477.866 139.462 466.404 128 452.266 128ZM452.266 145.066C456.979 145.066 460.799 148.887 460.799 153.6V179.2C460.795 182.645 458.716 185.75 455.533 187.066C452.095 183.329 448.12 180.129 443.733 177.57V145.066H452.266ZM445.987 241.491C444.883 243.087 443.645 244.587 442.291 245.975C442.224 246.041 442.137 246.091 442.07 246.162C440.766 247.429 439.362 248.591 437.87 249.633C437.399 249.966 436.924 250.283 436.445 250.6C434.979 251.541 433.445 252.375 431.854 253.091C431.591 253.2 431.333 253.329 431.062 253.441C429.354 254.125 427.591 254.675 425.795 255.079C425.266 255.195 424.729 255.308 424.199 255.404C420.195 256.22 416.07 256.22 412.066 255.404C411.537 255.308 410.999 255.195 410.47 255.079C408.674 254.675 406.912 254.125 405.204 253.441C404.933 253.329 404.674 253.2 404.412 253.091C402.82 252.375 401.287 251.541 399.82 250.6C399.341 250.283 398.866 249.966 398.395 249.633C396.912 248.591 395.508 247.433 394.204 246.17L393.974 245.975C392.62 244.587 391.383 243.087 390.279 241.491C390.008 241.1 389.741 240.708 389.479 240.308C389.212 239.904 389.008 239.395 388.745 238.95H447.52C447.258 239.395 447.062 239.87 446.779 240.308C446.499 240.741 446.291 241.083 445.987 241.491V241.491ZM404.479 190.616C407.587 189.262 409.599 186.191 409.599 182.8V128H426.666V182.8C426.666 186.191 428.679 189.262 431.787 190.616C444.212 196.041 452.254 208.308 452.266 221.866H383.999C384.012 208.308 392.054 196.041 404.479 190.616V190.616ZM221.866 392.67L197.812 351.429L205.654 349.866H238.079L245.912 351.429L221.866 392.67ZM230.399 332.8H213.333V315.733H230.399V332.8ZM247.466 334.345V314.187L273.066 309.07V339.445L247.466 334.345ZM171.716 242.425C182.958 229.337 199.366 221.825 216.616 221.866H227.116C244.366 221.825 260.774 229.337 272.016 242.425C270.399 244.191 268.691 245.875 266.895 247.466H263.099C249.899 247.504 237.233 242.258 227.924 232.9C224.591 229.57 219.191 229.57 215.858 232.9C206.545 242.266 193.866 247.512 180.658 247.466H176.862C175.058 245.879 173.341 244.195 171.716 242.425ZM221.866 250.325C228.095 255.183 235.145 258.891 242.679 261.266C229.145 265.625 214.587 265.625 201.054 261.266C208.587 258.891 215.637 255.183 221.866 250.325ZM329.387 183.337C327.487 190.941 320.649 196.275 312.816 196.266H307.199V175.487C312.57 177.891 318.383 179.158 324.266 179.2C326.379 179.145 328.483 178.933 330.562 178.558L329.387 183.337ZM332.458 82.1662C332.991 86.437 336.62 89.6412 340.924 89.6412H341.699C347.162 89.8245 351.904 93.4579 353.504 98.6787C355.108 103.904 353.216 109.57 348.799 112.783C345.258 115.337 344.216 120.158 346.383 123.945C348.633 127.762 349.837 132.104 349.866 136.533C349.866 150.67 338.404 162.133 324.266 162.133V153.6H307.199V119.466C307.204 100.57 300.899 82.212 289.279 67.312C296.112 60.3454 306.337 57.9329 315.562 61.1037C324.787 64.2787 331.366 72.4745 332.466 82.1662H332.458ZM221.866 51.1995C259.549 51.2412 290.091 81.7829 290.133 119.466V139.791C281.891 130.2 268.987 125.995 256.674 128.904C244.362 131.808 234.695 141.333 231.612 153.6H212.12C209.037 141.333 199.37 131.808 187.058 128.904C174.745 125.995 161.841 130.2 153.599 139.791V119.466C153.641 81.7829 184.183 51.2412 221.866 51.1995ZM281.599 162.133C281.599 171.558 273.958 179.2 264.533 179.2C255.108 179.2 247.466 171.558 247.466 162.133C247.466 152.708 255.108 145.066 264.533 145.066C273.958 145.066 281.599 152.708 281.599 162.133ZM196.266 162.133C196.266 171.558 188.624 179.2 179.199 179.2C169.774 179.2 162.133 171.558 162.133 162.133C162.133 152.708 169.774 145.066 179.199 145.066C188.624 145.066 196.266 152.708 196.266 162.133ZM89.5995 102.4C89.5953 95.4662 95.1161 89.787 102.049 89.5995H102.824C107.129 89.5995 110.758 86.3954 111.291 82.1245C112.445 72.4495 119.029 64.287 128.241 61.112C137.454 57.937 147.67 60.312 154.537 67.2245C142.874 82.1412 136.537 100.533 136.533 119.466V153.6H119.466V162.133C105.329 162.133 93.8661 150.67 93.8661 136.533C93.8953 132.091 95.1036 127.737 97.3661 123.912C99.5328 120.12 98.4911 115.304 94.9495 112.75C91.5953 110.37 89.5995 106.512 89.5995 102.4ZM130.916 196.266C123.087 196.266 116.262 190.937 114.362 183.337L113.17 178.558C115.249 178.933 117.354 179.145 119.466 179.2C125.345 179.187 131.158 177.958 136.533 175.583V196.266H130.916ZM153.599 196.266V184.475C161.841 194.066 174.745 198.27 187.058 195.362C199.37 192.458 209.037 182.933 212.12 170.666H231.612C234.695 182.933 244.362 192.458 256.674 195.362C268.987 198.27 281.891 194.066 290.133 184.475V196.266C290.141 207.462 287.374 218.483 282.087 228.35C267.762 213.304 247.891 204.791 227.116 204.8H223.879L219.204 202.462L227.899 193.766L215.833 181.7L198.766 198.766C196.829 200.704 195.937 203.458 196.379 206.166C196.524 206.629 196.712 207.083 196.941 207.512C183.479 211.07 171.262 218.283 161.645 228.35C156.358 218.483 153.591 207.462 153.599 196.266ZM204.799 279.891C216.062 282.191 227.67 282.191 238.933 279.891V298.495L238.079 298.666H205.654L204.799 298.495V279.891ZM170.666 309.079L196.266 314.195V334.354L170.666 339.475V309.079ZM136.533 426.666H179.199V443.733H196.266V418.133C196.266 413.42 192.445 409.6 187.733 409.6H136.533V358.4C136.537 354.304 133.633 350.787 129.612 350.012C125.591 349.237 121.587 351.429 120.07 355.233L85.937 440.566C85.537 441.575 85.3328 442.65 85.3328 443.733V494.933H51.1995V445.233L92.7328 331.091C96.8036 321.766 106.012 315.733 116.191 315.733H153.599V349.866C153.599 352.429 154.749 354.858 156.737 356.479C158.72 358.1 161.329 358.741 163.841 358.229L180.154 354.97L213.333 411.904V494.933H136.533V426.666ZM439.899 383.904C438.337 398.154 428.979 410.354 415.616 415.554C402.258 420.754 387.116 418.095 376.329 408.654L321.358 360.55C318.841 358.345 315.274 357.816 312.224 359.187C309.179 360.562 307.212 363.591 307.199 366.933V494.933H230.399V411.904L263.612 354.987L279.929 358.245C282.437 358.745 285.037 358.095 287.016 356.475C288.991 354.85 290.137 352.425 290.133 349.866V315.733H325.633C333.104 315.733 340.204 318.995 345.07 324.666L386.029 372.454C388.241 375.091 391.816 376.145 395.104 375.125C398.387 374.104 400.737 371.212 401.066 367.787L410.608 272.441C415.849 273.308 421.204 273.27 426.437 272.341C426.779 272.283 427.129 272.245 427.47 272.179C430.079 271.695 432.645 271.008 435.149 270.12L436.004 269.8C438.524 268.858 440.97 267.716 443.316 266.383L443.629 266.195C447.354 264.058 450.791 261.466 453.87 258.475L439.899 383.904Z" fill="black"/>
<path d="M452.266 42.666C438.129 42.666 426.666 54.1285 426.666 68.266C426.666 82.4035 438.129 93.866 452.266 93.866C466.404 93.866 477.866 82.4035 477.866 68.266C477.866 54.1285 466.404 42.666 452.266 42.666ZM452.266 76.7993C447.554 76.7993 443.733 72.9785 443.733 68.266C443.733 63.5535 447.554 59.7327 452.266 59.7327C456.979 59.7327 460.799 63.5535 460.799 68.266C460.799 72.9785 456.979 76.7993 452.266 76.7993Z" fill="black"/>
<path d="M383.999 51.2C398.137 51.2 409.599 39.7375 409.599 25.6C409.599 11.4625 398.137 0 383.999 0C369.862 0 358.399 11.4625 358.399 25.6C358.399 39.7375 369.862 51.2 383.999 51.2ZM383.999 17.0667C388.712 17.0667 392.533 20.8875 392.533 25.6C392.533 30.3125 388.712 34.1333 383.999 34.1333C379.287 34.1333 375.466 30.3125 375.466 25.6C375.466 20.8875 379.287 17.0667 383.999 17.0667Z" fill="black"/>
<path d="M247.467 460.8H264.533V477.866H247.467V460.8Z" fill="black"/>
<path d="M247.467 426.666H264.533V443.733H247.467V426.666Z" fill="black"/>
</svg>
