<svg width="512" height="512" viewBox="0 0 512 512" fill="none" xmlns="http://www.w3.org/2000/svg">
<g clip-path="url(#clip0)">
<path d="M184 8C230.678 8 275.444 26.5428 308.451 59.5492C341.457 92.5556 360 137.322 360 184V345C360 355.343 355.891 365.263 348.577 372.577C341.263 379.891 331.343 384 321 384H47C36.6566 384 26.7368 379.891 19.4228 372.577C12.1089 365.263 8 355.343 8 345V184C8 137.322 26.5428 92.5556 59.5492 59.5492C92.5556 26.5428 137.322 8 184 8Z" fill="#FFD740"/>
<path d="M232.594 14.7998C215.769 39.8103 193.049 60.2984 166.439 74.4586C139.829 88.6189 110.144 96.0166 80.0002 95.9998C64.8032 96.0057 49.6638 94.1311 34.9272 90.4188C17.287 118.44 7.95056 150.888 8.0002 184V345C8.0002 355.343 12.1091 365.263 19.423 372.577C26.737 379.891 36.6568 384 47.0002 384H321C331.344 384 341.263 379.891 348.577 372.577C355.891 365.263 360 355.343 360 345V184C359.997 145.792 347.566 108.623 324.583 78.1007C301.6 47.5786 269.313 25.3606 232.594 14.7998Z" fill="#FFC400"/>
<path d="M102.25 336C89.9837 336 78.2199 340.873 69.5463 349.546C60.8728 358.22 56 369.984 56 382.25V512H160V336H102.25Z" fill="#F5F5F5"/>
<path d="M312 382.25C312 369.984 307.127 358.22 298.454 349.546C289.78 340.873 278.016 336 265.75 336H208V512H312V382.25Z" fill="#F5F5F5"/>
<path d="M312 390.809C301.761 408.229 287.147 422.671 269.606 432.703C252.065 442.735 232.207 448.008 212 448C210.661 448 209.328 447.969 208 447.924V512H312V390.809Z" fill="#EDEDED"/>
<path d="M56 439.741V512H160V374C149.583 392.812 134.594 408.697 116.418 420.187C98.2409 431.677 77.4621 438.402 56 439.741Z" fill="#EDEDED"/>
<path d="M56 168H312V244C312 259.913 305.679 275.174 294.426 286.426C283.174 297.679 267.913 304 252 304H116C100.087 304 84.8258 297.679 73.5736 286.426C62.3214 275.174 56 259.913 56 244V168Z" fill="#FFE7DE"/>
<path d="M48 128V200C48 208.487 51.3714 216.626 57.3726 222.627C63.3737 228.629 71.5131 232 80 232H160C162.122 232 164.157 231.157 165.657 229.657C167.157 228.157 168 226.122 168 224C168 219.757 169.686 215.687 172.686 212.686C175.687 209.686 179.757 208 184 208C188.243 208 192.313 209.686 195.314 212.686C198.314 215.687 200 219.757 200 224C200 226.122 200.843 228.157 202.343 229.657C203.843 231.157 205.878 232 208 232H288C296.487 232 304.626 228.629 310.627 222.627C316.629 216.626 320 208.487 320 200V128C320 125.878 319.157 123.843 317.657 122.343C316.157 120.843 314.122 120 312 120H56C53.8783 120 51.8434 120.843 50.3431 122.343C48.8429 123.843 48 125.878 48 128Z" fill="#0277BD"/>
<path d="M160 336H208V512H160V336Z" fill="#0277BD"/>
<path d="M488 256H412C403.163 256 396 263.163 396 272C396 280.837 403.163 288 412 288H488C496.837 288 504 280.837 504 272C504 263.163 496.837 256 488 256Z" fill="#F5F5F5"/>
<path d="M416 288H484V470C484 479.017 480.418 487.665 474.042 494.042C467.665 500.418 459.017 504 450 504C440.983 504 432.335 500.418 425.958 494.042C419.582 487.665 416 479.017 416 470V288Z" fill="#F5F5F5"/>
<path d="M416 336V470C416 479.017 419.582 487.665 425.958 494.042C432.335 500.418 440.983 504 450 504C459.017 504 467.665 500.418 474.042 494.042C480.418 487.665 484 479.017 484 470V336H416Z" fill="#CE93D8"/>
<path d="M440 216C448.837 216 456 208.837 456 200C456 191.163 448.837 184 440 184C431.163 184 424 191.163 424 200C424 208.837 431.163 216 440 216Z" fill="#CE93D8"/>
<path d="M488 136C496.837 136 504 128.837 504 120C504 111.163 496.837 104 488 104C479.163 104 472 111.163 472 120C472 128.837 479.163 136 488 136Z" fill="#CE93D8"/>
<path d="M424 72C432.837 72 440 64.8366 440 56C440 47.1634 432.837 40 424 40C415.163 40 408 47.1634 408 56C408 64.8366 415.163 72 424 72Z" fill="#CE93D8"/>
<path d="M160 304H208V344C208 350.365 205.471 356.47 200.971 360.971C196.47 365.471 190.365 368 184 368C177.635 368 171.53 365.471 167.029 360.971C162.529 356.47 160 350.365 160 344V304Z" fill="#F4C2B5"/>
<path d="M472 392H504V440H472C465.635 440 459.53 437.471 455.029 432.971C450.529 428.47 448 422.365 448 416C448 409.635 450.529 403.53 455.029 399.029C459.53 394.529 465.635 392 472 392Z" fill="#FFE7DE"/>
<path d="M432 208C429.872 207.997 427.753 207.711 425.7 207.147C426.639 209.024 427.938 210.699 429.524 212.075C431.109 213.451 432.95 214.501 434.942 215.165C436.933 215.829 439.036 216.095 441.13 215.946C443.224 215.798 445.269 215.239 447.147 214.3C449.025 213.362 450.699 212.062 452.075 210.477C453.451 208.891 454.501 207.05 455.165 205.058C455.829 203.067 456.095 200.964 455.947 198.87C455.798 196.776 455.239 194.731 454.3 192.854C452.523 197.318 449.449 201.148 445.474 203.848C441.499 206.548 436.805 207.994 432 208Z" fill="#C087CC"/>
<path d="M480 128C477.872 127.997 475.753 127.711 473.7 127.147C474.639 129.024 475.938 130.699 477.524 132.075C479.109 133.451 480.95 134.501 482.942 135.165C484.933 135.829 487.036 136.095 489.13 135.946C491.224 135.798 493.269 135.239 495.147 134.3C497.025 133.362 498.699 132.062 500.075 130.477C501.451 128.891 502.501 127.05 503.165 125.058C503.829 123.067 504.095 120.964 503.947 118.87C503.798 116.776 503.239 114.731 502.3 112.854C500.523 117.318 497.449 121.148 493.474 123.848C489.499 126.548 484.805 127.994 480 128Z" fill="#C087CC"/>
<path d="M424.001 71.9996C427.531 72.0002 430.963 70.8324 433.76 68.6785C436.558 66.5245 438.564 63.5054 439.465 60.092C440.367 56.6786 440.114 53.0626 438.746 49.808C437.378 46.5534 434.971 43.8431 431.901 42.0996C431.399 47.7125 428.941 52.9708 424.957 56.9556C420.972 60.9403 415.714 63.3982 410.101 63.8996C411.494 66.3581 413.515 68.4031 415.957 69.826C418.399 71.2489 421.174 71.9989 424.001 71.9996Z" fill="#C087CC"/>
<path d="M312 223.581C295.315 258.891 266.891 287.315 231.581 304H252C267.913 304 283.174 297.679 294.426 286.426C305.679 275.174 312 259.913 312 244V223.581Z" fill="#F9D8CD"/>
<path d="M320 128C320 125.878 319.157 123.843 317.657 122.343C316.157 120.843 314.122 120 312 120H307.847C298.769 144.455 284.916 166.858 267.094 185.906C249.272 204.953 227.838 220.264 204.04 230.946C205.245 231.637 206.611 232 208 232H288C296.487 232 304.626 228.629 310.627 222.627C316.629 216.626 320 208.487 320 200V128Z" fill="#0469BC"/>
<path d="M484 420.462C464.577 439.834 441.45 455.095 416 465.332V470C416 479.017 419.582 487.665 425.958 494.042C432.335 500.418 440.983 504 450 504C459.017 504 467.665 500.418 474.042 494.042C480.418 487.665 484 479.017 484 470V420.462Z" fill="#C087CC"/>
<path d="M472 440H504V392H493.952C491.498 401.478 486.905 410.268 480.526 417.695C474.147 425.122 466.151 430.99 457.152 434.847C461.379 438.19 466.611 440.006 472 440Z" fill="#F9D8CD"/>
<path d="M488.001 256H479.901C458.633 272.897 433.107 283.584 406.145 286.878C408.009 287.617 409.995 287.998 412.001 288H488.001C492.244 288 496.314 286.314 499.314 283.314C502.315 280.313 504.001 276.243 504.001 272C504.001 267.757 502.315 263.687 499.314 260.686C496.314 257.686 492.244 256 488.001 256Z" fill="#EDEDED"/>
<path d="M76 264C82.6274 264 88 258.627 88 252C88 245.373 82.6274 240 76 240C69.3726 240 64 245.373 64 252C64 258.627 69.3726 264 76 264Z" fill="#FFF5F2"/>
<path d="M292 264C298.627 264 304 258.627 304 252C304 245.373 298.627 240 292 240C285.373 240 280 245.373 280 252C280 258.627 285.373 264 292 264Z" fill="#FFF5F2"/>
<path d="M108 56C114.627 56 120 50.6274 120 44C120 37.3726 114.627 32 108 32C101.373 32 96 37.3726 96 44C96 50.6274 101.373 56 108 56Z" fill="#FFE7A4"/>
<path d="M136 72C140.418 72 144 68.4183 144 64C144 59.5817 140.418 56 136 56C131.582 56 128 59.5817 128 64C128 68.4183 131.582 72 136 72Z" fill="#FFE7A4"/>
<path d="M460 424C466.627 424 472 418.627 472 412C472 405.373 466.627 400 460 400C453.373 400 448 405.373 448 412C448 418.627 453.373 424 460 424Z" fill="#FFF5F2"/>
<path d="M208 437.677C194.916 452.645 178.423 463.569 160 468.706V512H208V437.677Z" fill="#0469BC"/>
<path d="M125.07 205.07C126.189 203.951 126.952 202.526 127.261 200.974C127.57 199.422 127.412 197.813 126.807 196.351C126.201 194.889 125.176 193.639 123.86 192.76C122.544 191.88 120.998 191.411 119.415 191.411C117.833 191.411 116.286 191.88 114.97 192.76C113.654 193.639 112.629 194.889 112.024 196.351C111.418 197.813 111.26 199.422 111.569 200.974C111.878 202.526 112.641 203.951 113.76 205.07C115.26 206.569 117.294 207.411 119.415 207.411C121.536 207.411 123.57 206.569 125.07 205.07Z" fill="black"/>
<path d="M152 192C153.58 191.996 155.124 191.524 156.436 190.644C157.749 189.764 158.772 188.515 159.377 187.056C159.981 185.596 160.141 183.99 159.835 182.439C159.529 180.889 158.771 179.464 157.657 178.343L125.657 146.343C124.157 144.843 122.122 144 120 144C117.878 144 115.844 144.843 114.343 146.343C112.843 147.844 112 149.878 112 152C112 154.122 112.843 156.157 114.343 157.657C146.742 188.9 146.1 192 152 192Z" fill="black"/>
<path d="M192.711 151.89C191.721 141.353 175.829 142.801 176.771 153.34C177.166 157.55 193.656 162.492 192.711 151.89Z" fill="black"/>
<path d="M234.793 158.074C293.383 207.352 290.615 208 296 208C297.633 207.997 299.227 207.495 300.566 206.561C301.905 205.626 302.927 204.305 303.494 202.773C304.061 201.242 304.146 199.573 303.738 197.992C303.33 196.411 302.448 194.992 301.21 193.926L245.21 145.926C244.413 145.243 243.488 144.723 242.49 144.396C241.491 144.07 240.438 143.943 239.39 144.024C238.343 144.104 237.321 144.39 236.384 144.865C235.447 145.341 234.613 145.996 233.929 146.793C232.548 148.404 231.864 150.498 232.026 152.613C232.189 154.729 233.185 156.693 234.796 158.074H234.793Z" fill="black"/>
<path d="M312 112H56C51.7605 112.013 47.6981 113.702 44.7003 116.7C41.7025 119.698 40.0127 123.76 40 128V200C39.9908 208.648 42.7992 217.063 48 223.972V244C48.0204 262.028 55.1912 279.313 67.9393 292.061C80.6873 304.809 97.9716 311.98 116 312H152V344C152 352.487 155.371 360.626 161.373 366.627C167.374 372.629 175.513 376 184 376C192.487 376 200.626 372.629 206.627 366.627C212.629 360.626 216 352.487 216 344V312H252C270.028 311.98 287.313 304.809 300.061 292.061C312.809 279.313 319.98 262.028 320 244V223.972C325.201 217.063 328.009 208.648 328 200V128C327.995 123.758 326.308 119.691 323.308 116.692C320.309 113.692 316.242 112.005 312 112ZM200 344C200 348.243 198.314 352.313 195.314 355.314C192.313 358.314 188.243 360 184 360C179.757 360 175.687 358.314 172.686 355.314C169.686 352.313 168 348.243 168 344V312H200V344ZM304 244C303.984 257.786 298.501 271.004 288.752 280.752C279.004 290.501 265.786 295.984 252 296H116C102.214 295.984 88.9962 290.501 79.2477 280.752C69.4992 271.004 64.0156 257.786 64 244V236.65C77.183 242.428 81.154 238.961 160 240C164.242 239.995 168.309 238.308 171.308 235.308C174.308 232.309 175.995 228.242 176 224C176 221.878 176.843 219.843 178.343 218.343C179.843 216.843 181.878 216 184 216C186.122 216 188.157 216.843 189.657 218.343C191.157 219.843 192 221.878 192 224C192.005 228.242 193.692 232.309 196.692 235.308C199.691 238.308 203.758 239.995 208 240C287.06 238.958 290.849 242.414 304 236.65V244ZM312 200C311.993 206.363 309.462 212.463 304.962 216.962C300.463 221.462 294.363 223.993 288 224H282.9C211.015 164.957 214.643 165.1 209.329 165.1C207.687 165.106 206.087 165.615 204.744 166.56C203.401 167.505 202.381 168.84 201.822 170.383C201.262 171.927 201.19 173.605 201.615 175.191C202.04 176.776 202.942 178.193 204.199 179.25L257.9 224H208C208 217.635 205.471 211.53 200.971 207.029C196.47 202.529 190.365 200 184 200C177.635 200 171.53 202.529 167.029 207.029C162.529 211.53 160 217.635 160 224H80C73.6371 223.993 67.5369 221.462 63.0376 216.962C58.5384 212.463 56.0074 206.363 56 200V147.32C92.168 182.384 90.962 184.79 96.79 184.79C98.3708 184.786 99.9152 184.314 101.229 183.435C102.542 182.555 103.566 181.306 104.171 179.846C104.776 178.385 104.935 176.778 104.629 175.227C104.323 173.677 103.565 172.251 102.45 171.13L59.32 128H312V200Z" fill="black"/>
<path d="M184 0C130.777 0 96.6251 22.836 91.1781 25.1C89.4072 26.2011 88.1362 27.9503 87.636 29.9747C87.1357 31.9992 87.4457 34.1389 88.5 35.9382C89.5542 37.7374 91.2694 39.0539 93.28 39.6071C95.2906 40.1603 97.4378 39.9066 99.2641 38.9C124.794 23.9963 153.805 16.092 183.367 15.9852C212.929 15.8784 241.996 23.5729 267.633 38.2918C293.271 53.0106 314.571 74.2329 329.384 99.8161C344.197 125.399 351.998 154.438 352 184V345C351.99 349.914 350.817 354.756 348.577 359.13C346.338 363.503 343.095 367.285 339.114 370.166C337.748 371.16 336.731 372.56 336.209 374.166C335.687 375.773 335.686 377.503 336.207 379.11C336.727 380.717 337.743 382.119 339.108 383.114C340.473 384.108 342.118 384.646 343.807 384.65C351.228 384.65 368 367.208 368 345V184C368 135.2 348.614 88.399 314.108 53.8924C279.601 19.3857 232.8 0 184 0V0Z" fill="black"/>
<path d="M28.8864 370.166C24.9055 367.285 21.6627 363.503 19.4231 359.129C17.1835 354.755 16.0107 349.914 16.0004 345V184C15.9243 149.41 26.5965 115.65 46.5414 87.3896C47.763 85.6547 48.2454 83.5056 47.8824 81.415C47.5194 79.3245 46.3408 77.4637 44.6059 76.2421C42.871 75.0206 40.7219 74.5382 38.6313 74.9012C36.5408 75.2641 34.68 76.4427 33.4584 78.1776C11.6106 109.133 -0.0808212 146.111 0.000420545 184V345C0.0141814 352.445 1.78937 359.781 5.18091 366.409C8.57245 373.036 13.4841 378.767 19.5144 383.134C21.2341 384.376 23.377 384.885 25.4718 384.548C27.5666 384.211 29.4416 383.055 30.6844 381.336C31.9272 379.616 32.436 377.473 32.0988 375.378C31.7616 373.283 30.6061 371.408 28.8864 370.166Z" fill="black"/>
<path d="M204 252C201.878 252 199.843 252.843 198.343 254.343C196.843 255.843 196 257.878 196 260C196 263.183 194.736 266.235 192.485 268.485C190.235 270.736 187.183 272 184 272C180.817 272 177.765 270.736 175.515 268.485C173.264 266.235 172 263.183 172 260C172 257.878 171.157 255.843 169.657 254.343C168.157 252.843 166.122 252 164 252C147.774 252 156.963 288 184 288C191.423 287.992 198.54 285.039 203.79 279.79C209.039 274.54 211.991 267.423 212 260C212 257.878 211.157 255.843 209.657 254.343C208.157 252.843 206.122 252 204 252Z" fill="black"/>
<path d="M275.764 328.942C274.073 328.036 272.11 327.773 270.24 328.201C265.94 327.846 265.377 328.068 244 328.001C241.878 328.001 239.843 328.844 238.343 330.344C236.843 331.845 236 333.88 236 336.001C236 338.123 236.843 340.158 238.343 341.658C239.843 343.158 241.878 344.001 244 344.001H264V392.001C247.548 392.933 241.033 389.584 237.195 395.795C233.208 402.247 239.514 406.563 249.895 429.681L216 455.753V393.053C216 390.932 215.157 388.897 213.657 387.396C212.157 385.896 210.122 385.053 208 385.053C205.878 385.053 203.843 385.896 202.343 387.396C200.843 388.897 200 390.932 200 393.053V504C200 506.122 200.843 508.157 202.343 509.657C203.843 511.157 205.878 512 208 512C210.122 512 212.157 511.157 213.657 509.657C215.157 508.157 216 506.122 216 504V475.939L264.878 438.339C266.35 437.207 267.382 435.598 267.797 433.789C268.213 431.979 267.986 430.081 267.155 428.42L256.944 408H272C274.122 408 276.157 407.157 277.657 405.657C279.157 404.157 280 402.122 280 400V346.764C287.081 349.614 293.149 354.515 297.425 360.838C301.702 367.161 303.991 374.617 304 382.25V504C304 506.122 304.843 508.157 306.343 509.657C307.843 511.157 309.878 512 312 512C314.122 512 316.157 511.157 317.657 509.657C319.157 508.157 320 506.122 320 504V382.25C319.982 369.606 315.554 357.363 307.479 347.632C299.405 337.901 288.189 331.292 275.764 328.942Z" fill="black"/>
<path d="M160 385.05C157.878 385.05 155.843 385.893 154.343 387.393C152.843 388.894 152 390.928 152 393.05V455.75L118.1 429.68C128.678 406.127 134.774 402.224 130.8 395.794C126.958 389.578 120.283 392.922 103.995 392V344H123.995C126.117 344 128.152 343.157 129.652 341.657C131.152 340.157 131.995 338.122 131.995 336C131.995 333.878 131.152 331.844 129.652 330.343C128.152 328.843 126.117 328 123.995 328C102.146 328.069 102.054 327.846 97.755 328.2C95.8843 327.772 93.9218 328.035 92.23 328.941C79.8063 331.292 68.5915 337.902 60.5179 347.633C52.4443 357.364 48.0174 369.606 48 382.25V504C48 506.122 48.8429 508.157 50.3431 509.657C51.8434 511.157 53.8783 512 56 512C58.1217 512 60.1566 511.157 61.6569 509.657C63.1571 508.157 64 506.122 64 504V382.25C64.0088 374.617 66.2983 367.161 70.5745 360.838C74.8508 354.515 80.9189 349.614 88 346.764V400C88 402.122 88.8429 404.157 90.3431 405.657C91.8434 407.157 93.8783 408 96 408H111.056L100.845 428.422C100.015 430.083 99.7877 431.981 100.203 433.791C100.619 435.6 101.651 437.209 103.123 438.341L152 475.939V504C152 506.122 152.843 508.157 154.343 509.657C155.843 511.157 157.878 512 160 512C162.122 512 164.157 511.157 165.657 509.657C167.157 508.157 168 506.122 168 504V393.05C168 390.928 167.157 388.894 165.657 387.393C164.157 385.893 162.122 385.05 160 385.05Z" fill="black"/>
<path d="M104 456C101.878 456 99.8434 456.843 98.3431 458.343C96.8429 459.843 96 461.878 96 464V504C96 506.122 96.8429 508.157 98.3431 509.657C99.8434 511.157 101.878 512 104 512C106.122 512 108.157 511.157 109.657 509.657C111.157 508.157 112 506.122 112 504V464C112 461.878 111.157 459.843 109.657 458.343C108.157 456.843 106.122 456 104 456Z" fill="black"/>
<path d="M264 456C261.878 456 259.843 456.843 258.343 458.343C256.843 459.843 256 461.878 256 464V504C256 506.122 256.843 508.157 258.343 509.657C259.843 511.157 261.878 512 264 512C266.122 512 268.157 511.157 269.657 509.657C271.157 508.157 272 506.122 272 504V464C272 461.878 271.157 459.843 269.657 458.343C268.157 456.843 266.122 456 264 456Z" fill="black"/>
<path d="M504 384H472C463.513 384 455.374 387.371 449.373 393.373C443.371 399.374 440 407.513 440 416C440 424.487 443.371 432.626 449.373 438.627C455.374 444.629 463.513 448 472 448H504C506.122 448 508.157 447.157 509.657 445.657C511.157 444.157 512 442.122 512 440V392C512 389.878 511.157 387.843 509.657 386.343C508.157 384.843 506.122 384 504 384ZM496 432H472C467.757 432 463.687 430.314 460.686 427.314C457.686 424.313 456 420.243 456 416C456 411.757 457.686 407.687 460.686 404.686C463.687 401.686 467.757 400 472 400H496V432Z" fill="black"/>
<path d="M416 200C416 204.747 417.408 209.387 420.045 213.334C422.682 217.28 426.43 220.357 430.816 222.173C435.201 223.99 440.027 224.465 444.682 223.539C449.338 222.613 453.614 220.327 456.971 216.971C460.327 213.614 462.613 209.338 463.539 204.682C464.465 200.027 463.99 195.201 462.173 190.816C460.357 186.43 457.28 182.682 453.334 180.045C449.387 177.408 444.747 176 440 176C433.637 176.007 427.537 178.538 423.037 183.037C418.538 187.537 416.007 193.637 416 200ZM448 200C448 201.582 447.531 203.129 446.652 204.445C445.773 205.76 444.523 206.786 443.061 207.391C441.6 207.997 439.991 208.155 438.439 207.846C436.887 207.538 435.462 206.776 434.343 205.657C433.224 204.538 432.462 203.113 432.154 201.561C431.845 200.009 432.003 198.4 432.609 196.939C433.214 195.477 434.24 194.227 435.555 193.348C436.871 192.469 438.418 192 440 192C442.121 192.002 444.154 192.846 445.654 194.346C447.154 195.846 447.998 197.879 448 200Z" fill="black"/>
<path d="M488 144C492.747 144 497.387 142.592 501.334 139.955C505.28 137.318 508.357 133.57 510.173 129.184C511.99 124.799 512.465 119.973 511.539 115.318C510.613 110.662 508.327 106.386 504.971 103.029C501.614 99.673 497.338 97.3872 492.682 96.4612C488.027 95.5351 483.201 96.0104 478.816 97.8269C474.43 99.6434 470.682 102.72 468.045 106.666C465.408 110.613 464 115.253 464 120C464.007 126.363 466.538 132.463 471.037 136.963C475.537 141.462 481.637 143.993 488 144ZM488 112C489.582 112 491.129 112.469 492.445 113.348C493.76 114.227 494.786 115.477 495.391 116.939C495.997 118.4 496.155 120.009 495.846 121.561C495.538 123.113 494.776 124.538 493.657 125.657C492.538 126.776 491.113 127.538 489.561 127.846C488.009 128.155 486.4 127.997 484.939 127.391C483.477 126.786 482.227 125.76 481.348 124.445C480.469 123.129 480 121.582 480 120C480.002 117.879 480.846 115.846 482.346 114.346C483.846 112.846 485.879 112.002 488 112Z" fill="black"/>
<path d="M424 80C428.747 80 433.387 78.5924 437.334 75.9553C441.28 73.3181 444.357 69.5698 446.173 65.1844C447.99 60.799 448.465 55.9734 447.539 51.3178C446.613 46.6623 444.327 42.3859 440.971 39.0294C437.614 35.673 433.338 33.3872 428.682 32.4612C424.027 31.5351 419.201 32.0104 414.816 33.8269C410.43 35.6434 406.682 38.7195 404.045 42.6663C401.408 46.6131 400 51.2533 400 56C400.007 62.363 402.538 68.4634 407.037 72.9627C411.537 77.462 417.637 79.9929 424 80ZM424 48C425.582 48 427.129 48.4692 428.445 49.3483C429.76 50.2273 430.786 51.4767 431.391 52.9385C431.997 54.4004 432.155 56.0089 431.846 57.5607C431.538 59.1126 430.776 60.538 429.657 61.6569C428.538 62.7757 427.113 63.5376 425.561 63.8463C424.009 64.155 422.4 63.9965 420.939 63.391C419.477 62.7855 418.227 61.7602 417.348 60.4446C416.469 59.129 416 57.5823 416 56C416.002 53.879 416.846 51.8456 418.346 50.3458C419.846 48.846 421.879 48.0024 424 48Z" fill="black"/>
<path d="M488 48C492.418 48 496 44.4183 496 40C496 35.5817 492.418 32 488 32C483.582 32 480 35.5817 480 40C480 44.4183 483.582 48 488 48Z" fill="black"/>
<path d="M488 16C492.418 16 496 12.4183 496 8C496 3.58172 492.418 0 488 0C483.582 0 480 3.58172 480 8C480 12.4183 483.582 16 488 16Z" fill="black"/>
<path d="M488 80C492.418 80 496 76.4183 496 72C496 67.5817 492.418 64 488 64C483.582 64 480 67.5817 480 72C480 76.4183 483.582 80 488 80Z" fill="black"/>
<path d="M424 144C428.418 144 432 140.418 432 136C432 131.582 428.418 128 424 128C419.582 128 416 131.582 416 136C416 140.418 419.582 144 424 144Z" fill="black"/>
<path d="M424 112C428.418 112 432 108.418 432 104C432 99.5817 428.418 96 424 96C419.582 96 416 99.5817 416 104C416 108.418 419.582 112 424 112Z" fill="black"/>
<path d="M488 248H412C405.987 248.006 400.195 250.27 395.771 254.343C391.347 258.415 388.612 264 388.11 269.993C387.607 275.985 389.371 281.948 393.055 286.701C396.738 291.454 402.072 294.651 408 295.66V470C408.004 480.923 412.263 491.416 419.874 499.251C427.486 507.086 437.85 511.648 448.769 511.968C459.688 512.288 470.302 508.342 478.359 500.966C486.416 493.59 491.283 483.365 491.927 472.461C492.537 461.897 476.563 460.961 475.954 471.539C475.552 478.288 472.537 484.615 467.548 489.178C462.559 493.742 455.988 496.182 449.23 495.982C442.472 495.781 436.058 492.957 431.347 488.106C426.637 483.256 424.002 476.761 424 470V344H476V360C476 362.122 476.843 364.157 478.343 365.657C479.843 367.157 481.878 368 484 368C486.122 368 488.157 367.157 489.657 365.657C491.157 364.157 492 362.122 492 360V295.66C497.928 294.651 503.262 291.454 506.945 286.701C510.629 281.948 512.394 275.985 511.891 269.993C511.388 264 508.654 258.415 504.229 254.343C499.805 250.27 494.013 248.006 488 248ZM488 280H448C445.878 280 443.843 280.843 442.343 282.343C440.843 283.843 440 285.878 440 288C440 290.122 440.843 292.157 442.343 293.657C443.843 295.157 445.878 296 448 296H476V328H424V288C422.888 285.723 421.19 283.783 419.082 282.377C416.974 280.972 414.53 280.151 412 280C409.878 280 407.843 279.157 406.343 277.657C404.843 276.157 404 274.122 404 272C404 269.878 404.843 267.843 406.343 266.343C407.843 264.843 409.878 264 412 264H488C490.122 264 492.157 264.843 493.657 266.343C495.157 267.843 496 269.878 496 272C496 274.122 495.157 276.157 493.657 277.657C492.157 279.157 490.122 280 488 280Z" fill="black"/>
<path d="M64 64C68.4183 64 72 60.4183 72 56C72 51.5817 68.4183 48 64 48C59.5817 48 56 51.5817 56 56C56 60.4183 59.5817 64 64 64Z" fill="black"/>
</g>
<defs>
<clipPath id="clip0">
<rect width="512" height="512" fill="white"/>
</clipPath>
</defs>
</svg>
