<svg width="512" height="512" viewBox="0 0 512 512" fill="none" xmlns="http://www.w3.org/2000/svg">
<g clip-path="url(#clip0)">
<path d="M196.266 366.933L170.666 503.467V341.333L196.266 366.933Z" fill="#F5F5F5"/>
<path d="M238.933 341.333V503.467L213.333 366.933L238.933 341.333Z" fill="#F5F5F5"/>
<path d="M213.333 366.933L238.933 503.467H170.666L196.266 366.933L170.666 341.333L204.117 307.883H205.482L238.933 341.333L213.333 366.933Z" fill="#00448F"/>
<path d="M281.6 195.925V248.149C281.617 250.752 281.421 253.346 281.003 255.914C280.397 261.264 279.015 266.495 276.907 271.445C267.546 293.546 245.871 307.899 221.867 307.882H205.483L204.8 307.2L204.117 307.883H187.733C163.729 307.9 142.054 293.547 132.693 271.446C130.585 266.497 129.203 261.266 128.597 255.915C128.179 253.346 127.983 250.752 128 248.15V195.926C128 181.786 139.46 170.326 153.6 170.326H256C270.139 170.325 281.6 181.786 281.6 195.925Z" fill="#D3D3D3"/>
<path d="M128 162.133H102.4C92.988 162.107 85.359 154.479 85.333 145.066C85.401 135.671 93.004 128.068 102.4 127.999H128V162.133Z" fill="#FED8B5"/>
<path d="M332.8 256L315.733 221.867H341.333L298.666 162.133H281.6V195.925V248.149V256H307.2H332.8Z" fill="#C4C4C4"/>
<path d="M128.597 255.915C128.179 253.346 127.983 250.752 128 248.15V256L128.597 255.915Z" fill="#FED8B5"/>
<path d="M281.002 255.915L281.6 256V248.149C281.617 250.752 281.412 253.346 281.002 255.915Z" fill="#FED8B5"/>
<path d="M68.2656 221.867H93.8656L76.7996 256H102.4H128V248.149V195.925V162.133H110.933L68.2656 221.867Z" fill="#C4C4C4"/>
<path d="M281.6 128V110.933L290.133 102.4V68.2672C290.133 35.2772 263.39 8.53418 230.4 8.53418H179.2C146.21 8.53418 119.467 35.2772 119.467 68.2672V110.934L128 119.467V195.926C128 181.786 139.46 170.326 153.6 170.326H256C270.14 170.326 281.6 181.786 281.6 195.926V128ZM174.933 145.067C167.867 145.067 162.133 139.333 162.133 132.267C162.133 125.201 167.867 119.467 174.933 119.467C181.999 119.467 187.733 125.201 187.733 132.267C187.733 139.332 181.999 145.067 174.933 145.067ZM234.666 145.067C227.6 145.067 221.866 139.333 221.866 132.267C221.866 125.201 227.6 119.467 234.666 119.467C241.732 119.467 247.466 125.201 247.466 132.267C247.466 139.332 241.732 145.067 234.666 145.067Z" fill="#FED8B5"/>
<path d="M324.266 145.067C324.198 154.462 316.595 162.065 307.199 162.134H281.599V128H307.199C316.612 128.026 324.232 135.654 324.266 145.067Z" fill="#FED8B5"/>
<path d="M413.098 268.032C416.341 264.875 418.158 260.531 418.133 256V238.933H427.434C441.13 238.916 452.249 250.001 452.266 263.697C452.266 263.723 452.266 263.74 452.266 263.765V264.533C452.266 278.673 440.806 290.133 426.666 290.133H401.066V307.2H349.866V264.533C349.866 250.393 361.326 238.933 375.466 238.933H384V256C384.026 265.412 391.654 273.041 401.067 273.067C405.589 273.092 409.933 271.275 413.098 268.032Z" fill="#FED8B5"/>
<path d="M401.066 307.2V452.267C401.066 480.546 378.145 503.467 349.866 503.467V307.2H401.066Z" fill="#F5F5F5"/>
<path d="M315.733 503.467H238.933V341.333L205.482 307.882H221.866C245.87 307.899 267.545 293.546 276.906 271.445L281.599 273.066C319.299 273.066 349.866 303.632 349.866 341.333V503.466H315.733V503.467Z" fill="#F5F5F5"/>
<path d="M132.693 271.445C142.054 293.546 163.729 307.899 187.733 307.882H204.117L170.666 341.333V503.466H59.7334V341.333C59.7334 303.633 90.2994 273.066 128 273.066L132.693 271.445Z" fill="#F5F5F5"/>
<path d="M234.666 145.067C241.735 145.067 247.466 139.336 247.466 132.267C247.466 125.198 241.735 119.467 234.666 119.467C227.597 119.467 221.866 125.198 221.866 132.267C221.866 139.336 227.597 145.067 234.666 145.067Z" fill="#454545"/>
<path d="M174.933 145.067C182.002 145.067 187.733 139.336 187.733 132.267C187.733 125.198 182.002 119.467 174.933 119.467C167.864 119.467 162.133 125.198 162.133 132.267C162.133 139.336 167.864 145.067 174.933 145.067Z" fill="#454545"/>
<path d="M409.6 179.2V256C409.617 258.304 408.661 260.506 406.955 262.059C405.428 263.672 403.286 264.568 401.067 264.534C396.357 264.534 392.534 260.711 392.534 256.001V179.201H409.6V179.2Z" fill="#168DE2"/>
<path d="M409.6 145.067H392.533V162.134H409.6V145.067Z" fill="#F5F5F5"/>
<path d="M418.133 128H384C379.29 128 375.467 131.823 375.467 136.533V256C375.51 270.123 386.944 281.557 401.067 281.6C415.207 281.6 426.667 270.14 426.667 256V136.533C426.666 131.823 422.843 128 418.133 128ZM392.533 145.067H409.6V162.134H392.533V145.067ZM409.6 256C409.617 258.304 408.661 260.506 406.955 262.059C405.428 263.672 403.286 264.568 401.067 264.534C396.357 264.534 392.534 260.711 392.534 256.001V179.201H409.6V256Z" fill="#454545"/>
<path d="M409.6 59.7334H392.533V93.8664H409.6V59.7334Z" fill="#168DE2"/>
<path d="M418.133 68.2666H384V85.3336H418.133V68.2666Z" fill="#168DE2"/>
<path d="M102.4 349.867H85.333V503.467H102.4V349.867Z" fill="#D3D3D3"/>
<path d="M324.267 349.867H307.2V503.467H324.267V349.867Z" fill="#D3D3D3"/>
<path d="M238.933 34.1328H170.666V51.1998H238.933V34.1328Z" fill="#EBB691"/>
<path d="M238.933 68.2666H170.666V85.3336H238.933V68.2666Z" fill="#EBB691"/>
<path d="M204.8 223.616H204.732C192.871 223.642 181.496 218.906 173.159 210.475L185.259 198.443C190.405 203.648 197.419 206.567 204.732 206.55C212.096 206.576 219.162 203.649 224.359 198.426L236.425 210.492C228.053 218.914 216.67 223.633 204.8 223.616Z" fill="#B0B0B0"/>
<path d="M234.666 145.067C241.735 145.067 247.466 139.336 247.466 132.267C247.466 125.198 241.735 119.467 234.666 119.467C227.597 119.467 221.866 125.198 221.866 132.267C221.866 139.336 227.597 145.067 234.666 145.067Z" fill="black"/>
<path d="M174.933 145.067C182.002 145.067 187.733 139.336 187.733 132.267C187.733 125.198 182.002 119.467 174.933 119.467C167.864 119.467 162.133 125.198 162.133 132.267C162.133 139.336 167.864 145.067 174.933 145.067Z" fill="black"/>
<path d="M384 128C379.29 128 375.467 131.823 375.467 136.533V230.4C356.617 230.4 341.334 245.683 341.334 264.533V293.205C328.176 276.872 308.899 266.641 288.001 264.891C288.001 264.78 288.001 264.678 288.069 264.567H332.8C337.51 264.593 341.35 260.795 341.376 256.076C341.385 254.736 341.077 253.414 340.48 252.219L329.54 230.399H341.333C346.043 230.399 349.866 226.568 349.858 221.857C349.858 220.082 349.303 218.35 348.271 216.908L314.428 169.514C318.498 168.379 322.202 166.212 325.18 163.216C330.087 158.454 332.834 151.901 332.8 145.066C332.8 130.926 321.34 119.466 307.2 119.466H290.133V114.465L296.166 108.432C297.762 106.836 298.666 104.66 298.666 102.399V68.267C298.624 30.583 268.083 0.043 230.4 0H179.2C141.517 0.043 110.976 30.583 110.933 68.267V110.934C110.933 113.195 111.829 115.371 113.433 116.967L115.933 119.467H102.4C88.2942 119.544 76.8772 130.961 76.8002 145.067C76.8682 156.365 84.3352 166.289 95.1812 169.472L61.3292 216.875C58.5732 220.698 59.4352 226.031 63.2582 228.788C64.7172 229.838 66.4672 230.401 68.2672 230.401H80.0602L69.1632 252.187C67.0552 256.402 68.7622 261.531 72.9862 263.639C74.1642 264.228 75.4692 264.535 76.8002 264.535H121.549C121.549 264.646 121.549 264.748 121.617 264.859C81.8432 268.204 51.2512 301.424 51.2002 341.335V503.468C51.2002 508.178 55.0232 512.001 59.7332 512.001H349.866C382.839 511.967 409.565 485.24 409.599 452.268V298.668H426.666C445.627 298.557 460.91 283.095 460.799 264.134C460.799 264.015 460.799 263.895 460.799 263.767C460.782 245.344 445.857 230.419 427.434 230.402H426.666V136.535C426.666 131.825 422.843 128.002 418.133 128.002H384V128ZM392.533 179.2H409.6V256C409.6 258.295 408.661 260.497 406.989 262.076C405.427 263.672 403.294 264.559 401.067 264.534C396.357 264.534 392.534 260.711 392.534 256.001V179.2H392.533ZM409.6 145.067V162.134H392.533V145.067H409.6ZM308.053 225.681L318.95 247.467H290.133V195.926C290.107 186.266 285.969 177.084 278.75 170.667H294.281L324.754 213.334H315.734C311.024 213.308 307.184 217.106 307.158 221.825C307.14 223.164 307.456 224.486 308.053 225.681ZM307.2 136.533C311.91 136.533 315.733 140.356 315.733 145.066C315.733 147.361 314.794 149.563 313.122 151.142C311.56 152.738 309.427 153.625 307.2 153.6H290.133V136.533H307.2ZM128 68.267C128.026 40.005 150.938 17.093 179.2 17.067H230.4C258.662 17.093 281.574 40.005 281.6 68.267V98.868L275.567 104.901C273.963 106.497 273.067 108.673 273.067 110.934V166.537C267.904 163.465 262.008 161.827 256 161.792H153.6C147.593 161.826 141.696 163.465 136.533 166.537V119.467C136.533 117.206 135.637 115.03 134.033 113.434L128 107.401V68.267ZM183.808 316.126L179.2 320.734V315.785C180.719 315.972 182.263 316.041 183.808 316.126ZM226.867 341.333L207.3 360.9C205.713 362.479 204.808 364.629 204.8 366.873C204.791 364.629 203.887 362.478 202.3 360.9L182.733 341.333L204.8 319.266L226.867 341.333ZM179.2 361.933L187.051 369.784L179.2 411.649V361.933ZM204.646 368.503C204.748 368 204.8 367.488 204.8 366.976C204.8 367.488 204.851 368 204.954 368.503L228.694 494.933H180.907L204.646 368.503ZM222.566 369.783L230.417 361.932V411.656L222.566 369.783ZM230.4 320.734L225.792 316.126C227.337 316.041 228.881 315.972 230.4 315.785V320.734ZM221.866 299.349H208.102C205.986 298.462 203.613 298.462 201.497 299.349H187.733C167.159 299.4 148.565 287.095 140.561 268.134C138.769 263.944 137.6 259.515 137.079 254.993C137.07 254.822 137.045 254.66 137.019 254.49C136.678 252.391 136.516 250.275 136.533 248.15V195.926C136.533 186.497 144.17 178.859 153.6 178.859H256C265.429 178.859 273.067 186.496 273.067 195.926V248.15C273.076 250.437 272.888 252.724 272.521 254.977C272.009 259.5 270.831 263.92 269.048 268.11C261.051 287.078 242.449 299.392 221.866 299.349ZM96.4862 138.991C98.0392 137.395 100.172 136.508 102.4 136.533H119.467V153.6H102.4C97.6902 153.6 93.8672 149.777 93.8672 145.067C93.8582 142.763 94.8052 140.57 96.4862 138.991ZM101.128 217.378C99.5662 214.861 96.8192 213.333 93.8662 213.333H84.8462L115.319 170.666H130.85C123.631 177.083 119.492 186.265 119.467 195.925V247.466H90.6072L101.547 225.68C102.852 223.027 102.698 219.887 101.128 217.378ZM68.2662 341.333C68.3002 308.361 95.0272 281.634 128 281.6V280.943C135.526 294.699 147.593 305.425 162.133 311.288V494.934H102.4V349.867H85.3332V494.934H68.2662V341.333ZM341.333 494.933H324.266V349.867H307.2V494.934H247.467V311.287C262.008 305.425 274.074 294.707 281.6 280.951V281.6C314.573 281.634 341.299 308.361 341.333 341.333V494.933ZM358.4 494.08V349.867H375.467V332.8H358.4V315.733H392.533V452.266C392.507 472.533 378.248 489.992 358.4 494.071V494.08ZM427.434 247.467C436.539 247.569 443.844 255.036 443.741 264.15C443.741 264.278 443.732 264.406 443.732 264.534C443.732 273.963 436.095 281.601 426.665 281.601H401.065C396.355 281.601 392.532 285.424 392.532 290.134V298.667H358.4V264.534C358.4 255.105 366.037 247.467 375.467 247.467V256C375.467 270.14 386.927 281.6 401.067 281.6C415.173 281.532 426.599 270.106 426.667 256V247.467H427.434Z" fill="black"/>
<path d="M392.533 59.7334V68.2674H384V85.3334H392.533V93.8674H409.6V85.3334H418.133V68.2674H409.6V59.7334H392.533Z" fill="black"/>
<path d="M238.933 34.1328H170.666V51.1998H238.933V34.1328Z" fill="black"/>
<path d="M238.933 68.2666H170.666V85.3336H238.933V68.2666Z" fill="black"/>
<path d="M204.8 206.549C197.487 206.566 190.473 203.648 185.327 198.442L173.227 210.474C181.564 218.905 192.939 223.641 204.8 223.615C216.687 223.649 228.087 218.922 236.467 210.491L224.401 198.425C219.213 203.639 212.155 206.566 204.8 206.549Z" fill="black"/>
</g>
<defs>
<clipPath id="clip0">
<rect width="512" height="512" fill="white"/>
</clipPath>
</defs>
</svg>
