<svg width="512" height="512" viewBox="0 0 512 512" fill="none" xmlns="http://www.w3.org/2000/svg">
<g clip-path="url(#clip0)">
<path d="M312 176C312 144.174 299.357 113.652 276.853 91.1472C254.348 68.6428 223.826 56 192 56C160.174 56 129.652 68.6428 107.147 91.1472C84.6428 113.652 72 144.174 72 176V192H312V176Z" fill="#E09F2C"/>
<path d="M112 160L136 104H248L272 160H112Z" fill="#F7CCA9"/>
<path d="M296 240C313.673 240 328 225.673 328 208C328 190.327 313.673 176 296 176C278.327 176 264 190.327 264 208C264 225.673 278.327 240 296 240Z" fill="#F0C6A4"/>
<path d="M88 240C105.673 240 120 225.673 120 208C120 190.327 105.673 176 88 176C70.3269 176 56 190.327 56 208C56 225.673 70.3269 240 88 240Z" fill="#F0C6A4"/>
<path d="M88 176V192.181C88 219.716 98.938 246.122 118.408 265.592C137.878 285.062 164.284 296 191.819 296H192.181C205.815 296 219.315 293.315 231.911 288.097C244.507 282.88 255.952 275.233 265.592 265.592C275.233 255.952 282.88 244.507 288.097 231.911C293.315 219.315 296 205.815 296 192.181V176H88Z" fill="#F7CCA9"/>
<path d="M65.731 296H318.269C327.215 296 335.795 299.554 342.12 305.88C348.446 312.205 352 320.785 352 329.731V504H32V329.731C32 320.785 35.5538 312.205 41.8796 305.88C48.2054 299.554 56.785 296 65.731 296Z" fill="#E1E3E6"/>
<path d="M144 296H240V504H144V296Z" fill="#E09F2C"/>
<path d="M120 504L88 424L112 392H88L144 296V504H120Z" fill="#D0D2D4"/>
<path d="M264 504L296 424L272 392H296L240 296V504H264Z" fill="#D0D2D4"/>
<path d="M432 369.119V248H384V369.119C356.039 378.651 336 404.351 336 434.576C336 472.918 368.236 504 408 504C447.764 504 480 472.918 480 434.576C480 404.351 459.961 378.651 432 369.119Z" fill="#67C5E0"/>
<path d="M462.05 388.72C456.53 400.62 438.62 430.44 400 424C368 418.67 346.67 427.56 336 434.07C336.23 404.06 356.2 378.6 384 369.12V248H432V369.12C443.506 373.021 453.842 379.762 462.05 388.72Z" fill="#E9EEF2"/>
<path d="M432 248H384C375.163 248 368 255.163 368 264V272C368 280.837 375.163 288 384 288H432C440.837 288 448 280.837 448 272V264C448 255.163 440.837 248 432 248Z" fill="#DADCDE"/>
<path d="M376 216C384.837 216 392 208.837 392 200C392 191.163 384.837 184 376 184C367.163 184 360 191.163 360 200C360 208.837 367.163 216 376 216Z" fill="#67C5E0"/>
<path d="M440 176C448.837 176 456 168.837 456 160C456 151.163 448.837 144 440 144C431.163 144 424 151.163 424 160C424 168.837 431.163 176 440 176Z" fill="#67C5E0"/>
<path d="M88 40H248C256.487 40 264.626 43.3714 270.627 49.3726C276.629 55.3737 280 63.5131 280 72C280 80.4869 276.629 88.6263 270.627 94.6274C264.626 100.629 256.487 104 248 104H120C111.513 104 103.374 100.629 97.3726 94.6274C91.3714 88.6263 88 80.4869 88 72V40Z" fill="#F7B030"/>
<path d="M144 296L192 360L240 296H144Z" fill="#F7CCA9"/>
<path d="M192 360L144 384V296L192 360Z" fill="#F7B030"/>
<path d="M192 360L240 384V296L192 360Z" fill="#F7B030"/>
<path d="M264 152H120C111.513 152 103.374 155.371 97.3726 161.373C91.3714 167.374 88 175.513 88 184V192H113.01C114.952 199.547 119.582 206.125 126.03 210.502C132.478 214.878 140.301 216.751 148.032 215.769C155.762 214.787 162.869 211.018 168.018 205.169C173.168 199.32 176.006 191.793 176 184H208C207.994 191.793 210.832 199.32 215.982 205.169C221.131 211.018 228.238 214.787 235.968 215.769C243.699 216.751 251.522 214.878 257.97 210.502C264.418 206.125 269.048 199.547 270.99 192H296V184C296 175.513 292.629 167.374 286.627 161.373C280.626 155.371 272.487 152 264 152Z" fill="#E9EEF2"/>
<path d="M240 192C244.418 192 248 188.418 248 184C248 179.582 244.418 176 240 176C235.582 176 232 179.582 232 184C232 188.418 235.582 192 240 192Z" fill="black"/>
<path d="M144 192C148.418 192 152 188.418 152 184C152 179.582 148.418 176 144 176C139.582 176 136 179.582 136 184C136 188.418 139.582 192 144 192Z" fill="black"/>
<path d="M227.562 254.738C234.955 250.007 238.207 245.163 238.784 244.238H238.778C239.343 243.348 239.726 242.355 239.906 241.316C240.085 240.277 240.057 239.213 239.824 238.185C239.59 237.156 239.156 236.185 238.545 235.325C237.934 234.466 237.159 233.736 236.265 233.177C235.371 232.618 234.375 232.242 233.335 232.069C232.295 231.897 231.231 231.932 230.205 232.173C229.178 232.414 228.21 232.855 227.354 233.472C226.499 234.088 225.774 234.868 225.222 235.766H225.216L225.291 235.649C224.95 236.147 216.647 248 192 248C167.353 248 159.05 236.147 158.709 235.643L158.784 235.76H158.778C158.225 234.862 157.501 234.082 156.645 233.466C155.79 232.849 154.822 232.408 153.795 232.167C152.769 231.926 151.705 231.891 150.664 232.063C149.624 232.236 148.629 232.612 147.734 233.171C146.84 233.73 146.066 234.46 145.455 235.319C144.844 236.179 144.41 237.15 144.176 238.179C143.943 239.207 143.915 240.271 144.094 241.31C144.274 242.349 144.657 243.342 145.222 244.232H145.216C145.793 245.155 149.045 249.999 156.438 254.732C163.04 258.963 174.568 264 192 264C209.432 264 220.96 258.963 227.562 254.738Z" fill="black"/>
<path d="M440 363.611V294.624C444.676 292.965 448.723 289.9 451.588 285.849C454.453 281.799 455.994 276.961 456 272V264C455.993 257.637 453.462 251.537 448.963 247.037C444.463 242.538 438.363 240.007 432 240H384C377.637 240.007 371.537 242.538 367.037 247.037C362.538 251.537 360.007 257.637 360 264V272C360.006 276.961 361.547 281.799 364.412 285.849C367.277 289.9 371.324 292.965 376 294.624V363.611C370.338 366.004 364.97 369.039 360 372.657V329.731C359.988 318.667 355.587 308.06 347.764 300.236C339.94 292.413 329.333 288.012 318.269 288H249.762C266.017 278.189 279.528 264.43 289.043 248H296C304.397 248.003 312.582 245.362 319.394 240.452C326.206 235.542 331.3 228.613 333.953 220.645C336.605 212.678 336.682 204.078 334.173 196.065C331.663 188.051 326.695 181.031 319.972 176H320C319.948 143.175 307.332 111.615 284.741 87.8C287.36 81.716 288.427 75.0766 287.846 68.4782C287.265 61.8798 285.054 55.5291 281.411 49.9968C277.768 44.4644 272.808 39.9236 266.976 36.7823C261.145 33.6411 254.624 31.9978 248 32H88C85.8783 32 83.8434 32.8429 82.3431 34.3431C80.8429 35.8434 80 37.8783 80 40V72C79.9938 81.7864 83.5909 91.2326 90.105 98.536C73.1551 120.802 63.9838 148.017 64 176H64.028C57.305 181.031 52.3365 188.051 49.8271 196.065C47.3178 204.078 47.3949 212.678 50.0475 220.645C52.7001 228.613 57.7936 235.542 64.6058 240.452C71.4179 245.362 79.6029 248.003 88 248H94.957C104.472 264.43 117.983 278.189 134.238 288H65.731C54.6671 288.012 44.0599 292.413 36.2365 300.236C28.4131 308.06 24.0124 318.667 24 329.731V504C24 506.122 24.8429 508.157 26.3431 509.657C27.8434 511.157 29.8783 512 32 512H352C354.122 512 356.157 511.157 357.657 509.657C359.157 508.157 360 506.122 360 504V496.473C373.95 506.606 390.759 512.043 408 512C452.112 512 488 477.268 488 434.576C488 403.677 468.938 375.833 440 363.611ZM376 264C376.002 261.879 376.846 259.846 378.346 258.346C379.846 256.846 381.879 256.002 384 256H432C434.121 256.002 436.154 256.846 437.654 258.346C439.154 259.846 439.998 261.879 440 264V272C439.998 274.121 439.154 276.154 437.654 277.654C436.154 279.154 434.121 279.998 432 280H384C381.879 279.998 379.846 279.154 378.346 277.654C376.846 276.154 376.002 274.121 376 272V264ZM386.582 376.691C388.162 376.152 389.534 375.132 390.506 373.774C391.478 372.417 392 370.789 392 369.119V296H424V369.119C424 370.789 424.522 372.417 425.494 373.774C426.466 375.132 427.838 376.152 429.418 376.691C438.999 379.94 447.674 385.411 454.734 392.656C449.786 401.296 434.395 421.622 401.315 416.109C374.529 411.645 356.557 416.503 345.26 422.484C349.642 401.625 365.152 384 386.582 376.691ZM265.6 396.8L286.9 425.2L258.584 496H248V325.591L282.072 384H272C270.514 384 269.058 384.414 267.794 385.195C266.53 385.976 265.509 387.093 264.845 388.422C264.18 389.751 263.899 391.239 264.032 392.718C264.166 394.198 264.709 395.611 265.6 396.8ZM119.155 388.422C118.491 387.093 117.469 385.976 116.206 385.195C114.942 384.414 113.486 384 112 384H101.928L136 325.591V496H125.416L97.1 425.2L118.4 396.8C119.291 395.611 119.834 394.198 119.968 392.718C120.101 391.238 119.82 389.751 119.155 388.422ZM232 371.056L204.151 357.131L232 320V371.056ZM224 304L192 346.667L160 304H224ZM152 320L179.849 357.131L152 371.056V320ZM152 388.944L184 372.944V496H152V388.944ZM200 372.944L232 388.944V496H200V372.944ZM242.725 112L256.737 144.7C253.847 144.239 250.926 144.005 248 144H136C133.074 144.003 130.153 144.236 127.263 144.695L141.275 112H242.725ZM136 160H248C255.78 160.009 263.389 162.283 269.897 166.545C276.406 170.807 281.532 176.872 284.65 184H270.992C269.217 184 267.493 184.59 266.09 185.677C264.688 186.764 263.686 188.287 263.244 190.006C261.788 195.668 258.316 200.604 253.479 203.887C248.642 207.171 242.773 208.575 236.973 207.838C231.174 207.101 225.843 204.272 221.981 199.883C218.12 195.494 215.993 189.846 216 184C216 181.878 215.157 179.843 213.657 178.343C212.157 176.843 210.122 176 208 176H176C173.878 176 171.843 176.843 170.343 178.343C168.843 179.843 168 181.878 168 184C168.007 189.846 165.88 195.494 162.019 199.883C158.157 204.272 152.826 207.101 147.027 207.838C141.227 208.575 135.358 207.171 130.521 203.887C125.684 200.604 122.212 195.668 120.756 190.006C120.314 188.287 119.312 186.764 117.91 185.677C116.507 184.59 114.783 184 113.008 184H99.35C102.468 176.872 107.594 170.807 114.103 166.545C120.611 162.283 128.22 160.009 136 160ZM296.673 231.983C301.528 219.276 304.011 205.786 304 192.183H303.991C303.991 192.122 304 192.063 304 192.002V185.378C309.284 187.244 313.747 190.901 316.617 195.714C319.486 200.526 320.581 206.192 319.711 211.727C318.841 217.263 316.061 222.319 311.853 226.019C307.645 229.719 302.274 231.83 296.673 231.985V231.983ZM296 168H293.918C289.539 161.737 283.935 156.427 277.444 152.394L259.417 110.331C265.354 108.553 270.798 105.42 275.317 101.178C292.077 119.898 302.086 143.69 303.751 168.761C301.198 168.256 298.602 168.001 296 168ZM96 48H248C254.365 48 260.47 50.5286 264.971 55.0294C269.471 59.5303 272 65.6348 272 72C272 78.3652 269.471 84.4697 264.971 88.9706C260.47 93.4714 254.365 96 248 96H120C113.637 95.9926 107.537 93.4617 103.038 88.9624C98.5384 84.4631 96.0074 78.3629 96 72V48ZM102.894 108.149C108.238 110.69 114.082 112.006 120 112H123.868L106.556 152.394C100.065 156.427 94.4602 161.736 90.082 168H88C85.3937 168.001 82.7937 168.256 80.237 168.762C81.6459 146.765 89.5288 125.677 102.894 108.149ZM64 208C64.0064 203.039 65.5476 198.201 68.4122 194.151C71.2768 190.1 75.3245 187.035 80 185.376V192.181C79.989 205.784 82.4724 219.274 87.327 231.981C81.0844 231.8 75.1578 229.195 70.8032 224.718C66.4487 220.242 64.0085 214.245 64 208ZM96.321 200H107.321C110.723 207.79 116.518 214.295 123.866 218.57C131.213 222.846 139.731 224.67 148.186 223.779C156.64 222.887 164.59 219.326 170.884 213.613C177.179 207.899 181.489 200.329 183.192 192H200.8C202.503 200.329 206.813 207.899 213.108 213.613C219.402 219.326 227.352 222.887 235.806 223.779C244.261 224.67 252.779 222.846 260.126 218.57C267.474 214.295 273.269 207.79 276.671 200H287.671C285.679 223.968 274.758 246.314 257.071 262.612C239.385 278.91 216.222 287.971 192.171 288H191.809C167.76 287.968 144.6 278.906 126.916 262.608C109.232 246.311 98.3126 223.966 96.321 200ZM40 329.731C40.0077 322.909 42.7211 316.369 47.5449 311.545C52.3687 306.721 58.9091 304.008 65.731 304H130.072L81.09 387.969C80.3809 389.185 80.005 390.566 80.0003 391.973C79.9955 393.38 80.3621 394.764 81.063 395.984C81.7639 397.205 82.7743 398.219 83.9923 398.924C85.2103 399.629 86.5927 400 88 400H96L81.6 419.2C80.7763 420.298 80.249 421.59 80.069 422.951C79.889 424.312 80.0622 425.696 80.572 426.971L108.184 496H40V329.731ZM275.816 496L303.428 426.971C303.938 425.696 304.111 424.312 303.931 422.951C303.751 421.59 303.224 420.298 302.4 419.2L288 400H296C297.407 400 298.79 399.629 300.008 398.924C301.226 398.219 302.236 397.205 302.937 395.984C303.638 394.764 304.004 393.38 304 391.973C303.995 390.566 303.619 389.185 302.91 387.969L253.928 304H318.269C325.091 304.008 331.631 306.721 336.455 311.545C341.279 316.369 343.992 322.909 344 329.731V388.175C333.633 401.42 328.001 417.755 328.001 434.575C328.001 451.395 333.633 467.73 344 480.975V496H275.816ZM408 496C375.459 496 348.532 472.565 344.532 442.36C349.587 437.42 365.113 426.297 398.685 431.891C426.619 436.548 444.92 426.334 455.352 416.946C458.872 413.767 462.046 410.226 464.822 406.381C469.521 415.038 471.988 424.731 472 434.581C472 468.445 443.29 496 408 496Z" fill="black"/>
<path d="M376 224C380.747 224 385.387 222.592 389.334 219.955C393.28 217.318 396.357 213.57 398.173 209.184C399.99 204.799 400.465 199.973 399.539 195.318C398.613 190.662 396.327 186.386 392.971 183.029C389.614 179.673 385.338 177.387 380.682 176.461C376.027 175.535 371.201 176.01 366.816 177.827C362.43 179.643 358.682 182.72 356.045 186.666C353.408 190.613 352 195.253 352 200C352.007 206.363 354.538 212.463 359.037 216.963C363.537 221.462 369.637 223.993 376 224ZM376 192C377.582 192 379.129 192.469 380.445 193.348C381.76 194.227 382.786 195.477 383.391 196.939C383.997 198.4 384.155 200.009 383.846 201.561C383.538 203.113 382.776 204.538 381.657 205.657C380.538 206.776 379.113 207.538 377.561 207.846C376.009 208.155 374.4 207.997 372.939 207.391C371.477 206.786 370.227 205.76 369.348 204.445C368.469 203.129 368 201.582 368 200C368.002 197.879 368.846 195.846 370.346 194.346C371.846 192.846 373.879 192.002 376 192Z" fill="black"/>
<path d="M440 184C444.747 184 449.387 182.592 453.334 179.955C457.28 177.318 460.357 173.57 462.173 169.184C463.99 164.799 464.465 159.973 463.539 155.318C462.613 150.662 460.327 146.386 456.971 143.029C453.614 139.673 449.338 137.387 444.682 136.461C440.027 135.535 435.201 136.01 430.816 137.827C426.43 139.643 422.682 142.72 420.045 146.666C417.408 150.613 416 155.253 416 160C416.007 166.363 418.538 172.463 423.037 176.963C427.537 181.462 433.637 183.993 440 184ZM440 152C441.582 152 443.129 152.469 444.445 153.348C445.76 154.227 446.786 155.477 447.391 156.939C447.997 158.4 448.155 160.009 447.846 161.561C447.538 163.113 446.776 164.538 445.657 165.657C444.538 166.776 443.113 167.538 441.561 167.846C440.009 168.155 438.4 167.997 436.939 167.391C435.477 166.786 434.227 165.76 433.348 164.445C432.469 163.129 432 161.582 432 160C432.002 157.879 432.846 155.846 434.346 154.346C435.846 152.846 437.879 152.002 440 152Z" fill="black"/>
</g>
<defs>
<clipPath id="clip0">
<rect width="512" height="512" fill="white"/>
</clipPath>
</defs>
</svg>
