<svg width="512" height="512" viewBox="0 0 512 512" fill="none" xmlns="http://www.w3.org/2000/svg">
<path d="M16 464H496V496H16V464Z" fill="#8892A0"/>
<path d="M352 336H160C124.656 336 96 364.656 96 400V464H416V400C416 364.656 387.344 336 352 336Z" fill="#EFBE9A"/>
<path d="M376 344V340.696C368.584 337.688 360.496 336 352 336H336C325.88 371.432 300.336 400.424 266.472 414.944L264 416H248L245.528 414.944C211.664 400.424 186.12 371.432 176 336H160C151.504 336 143.416 337.688 136 340.696V344C156.488 364.488 168 392.28 168 421.256V464H344V421.256C344 392.28 355.512 364.488 376 344Z" fill="#E39854"/>
<path d="M256 464C269.255 464 280 453.255 280 440C280 426.745 269.255 416 256 416C242.745 416 232 426.745 232 440C232 453.255 242.745 464 256 464Z" fill="#4472B2"/>
<path d="M337.984 312C318.952 336.344 289.304 352 256 352C198.56 352 152 305.44 152 248V152C152 94.56 198.56 48 256 48C313.44 48 360 94.56 360 152V248C360 260.072 357.944 271.656 354.168 282.432" fill="#EFBE9A"/>
<path d="M256 48C198.56 48 152 94.56 152 152H200C230.928 152 256 126.928 256 96L259.352 119.456C266.904 172.336 307.448 214.448 360 224V152C360 94.56 313.44 48 256 48Z" fill="#F5B953"/>
<path d="M400 264H376C367.16 264 360 256.84 360 248V200C360 191.16 367.16 184 376 184H400C408.84 184 416 191.16 416 200V248C416 256.84 408.84 264 400 264Z" fill="#4D5D7A"/>
<path d="M136 264H112C103.16 264 96 256.84 96 248V200C96 191.16 103.16 184 112 184H136C144.84 184 152 191.16 152 200V248C152 256.84 144.84 264 136 264Z" fill="#4D5D7A"/>
<path d="M344 312H328C319.16 312 312 304.84 312 296C312 287.16 319.16 280 328 280H344C352.84 280 360 287.16 360 296C360 304.84 352.84 312 344 312Z" fill="#4D5D7A"/>
<path d="M432 464V432H368V464" fill="#4D5D7A"/>
<path d="M144 464V432H80V464" fill="#4D5D7A"/>
<path d="M400 272H376C362.768 272 352 261.232 352 248V200C352 186.768 362.768 176 376 176H400C413.232 176 424 186.768 424 200V248C424 261.232 413.232 272 400 272ZM376 192C371.584 192 368 195.584 368 200V248C368 252.416 371.584 256 376 256H400C404.416 256 408 252.416 408 248V200C408 195.584 404.416 192 400 192H376Z" fill="black"/>
<path d="M136 272H112C98.768 272 88 261.232 88 248V200C88 186.768 98.768 176 112 176H136C149.232 176 160 186.768 160 200V248C160 261.232 149.232 272 136 272ZM112 192C107.584 192 104 195.584 104 200V248C104 252.416 107.584 256 112 256H136C140.416 256 144 252.416 144 248V200C144 195.584 140.416 192 136 192H112Z" fill="black"/>
<path d="M400 184H384V120C384 67.064 340.936 24 288 24H224C171.064 24 128 67.064 128 120V184H112V120C112 58.24 162.24 8 224 8H288C349.76 8 400 58.24 400 120V184Z" fill="black"/>
<path d="M212 232C205.384 232 200 226.616 200 220C200 213.384 205.384 208 212 208C218.616 208 224 213.384 224 220C224 226.616 218.616 232 212 232Z" fill="black"/>
<path d="M300 232C293.384 232 288 226.616 288 220C288 213.384 293.384 208 300 208C306.616 208 312 213.384 312 220C312 226.616 306.616 232 300 232Z" fill="black"/>
<path d="M344 320H328C314.768 320 304 309.232 304 296C304 282.768 314.768 272 328 272H344C357.232 272 368 282.768 368 296C368 309.232 357.232 320 344 320ZM328 288C323.584 288 320 291.584 320 296C320 300.416 323.584 304 328 304H344C348.416 304 352 300.416 352 296C352 291.584 348.416 288 344 288H328Z" fill="black"/>
<path d="M392 304H360V288H384V264H400V296C400 300.424 396.424 304 392 304Z" fill="black"/>
<path d="M424 432H408V400C408 369.128 382.872 344 352 344H312V328H352C391.704 328 424 360.296 424 400V432Z" fill="black"/>
<path d="M104 432H88V400C88 360.296 120.296 328 160 328H200V344H160C129.128 344 104 369.128 104 400V432Z" fill="black"/>
<path d="M256 328C225.128 328 200 302.872 200 272H216C216 294.056 233.944 312 256 312C278.056 312 296 294.056 296 272H312C312 302.872 286.872 328 256 328Z" fill="black"/>
<path d="M496 504H16C11.576 504 8 500.424 8 496V464C8 459.576 11.576 456 16 456H496C500.424 456 504 459.576 504 464V496C504 500.424 500.424 504 496 504ZM24 488H488V472H24V488Z" fill="black"/>
<path d="M440 464H424V440H376V464H360V432C360 427.576 363.576 424 368 424H432C436.424 424 440 427.576 440 432V464Z" fill="black"/>
<path d="M152 464H136V440H88V464H72V432C72 427.576 75.576 424 80 424H144C148.424 424 152 427.576 152 432V464Z" fill="black"/>
<path d="M464 408C450.768 408 440 397.232 440 384C440 370.768 450.768 360 464 360C477.232 360 488 370.768 488 384C488 397.232 477.232 408 464 408ZM464 376C459.584 376 456 379.584 456 384C456 388.416 459.584 392 464 392C468.416 392 472 388.416 472 384C472 379.584 468.416 376 464 376Z" fill="black"/>
<path d="M488 384H472V336C472 331.576 475.576 328 480 328H504V344H488V384Z" fill="black"/>
<path d="M32 408C18.768 408 8 397.232 8 384C8 370.768 18.768 360 32 360C45.232 360 56 370.768 56 384C56 397.232 45.232 408 32 408ZM32 376C27.584 376 24 379.584 24 384C24 388.416 27.584 392 32 392C36.416 392 40 388.416 40 384C40 379.584 36.416 376 32 376Z" fill="black"/>
<path d="M56 384H40V336C40 331.576 43.576 328 48 328H72V344H56V384Z" fill="black"/>
<path d="M256 360C194.24 360 144 309.76 144 248V152C144 90.24 194.24 40 256 40C317.76 40 368 90.24 368 152V248C368 260.712 365.88 273.184 361.712 285.088L346.616 279.792C350.184 269.6 352 258.904 352 248V152C352 99.064 308.936 56 256 56C203.064 56 160 99.064 160 152V248C160 300.936 203.064 344 256 344C285.752 344 313.336 330.536 331.68 307.072L344.288 316.928C322.88 344.296 290.704 360 256 360Z" fill="black"/>
<path d="M358.568 231.864C306.12 222.336 265.04 182.536 253.4 131.24C241.928 148.56 222.28 160 200 160H152V144H200C226.472 144 248 122.472 248 95.9998C248 91.8078 251.24 88.3198 255.432 88.0238C259.704 87.6718 263.32 90.7197 263.928 94.8637L267.28 118.32C274.36 167.864 312.192 207.176 361.44 216.136L358.568 231.864Z" fill="black"/>
<path d="M256 472C238.352 472 224 457.648 224 440C224 422.352 238.352 408 256 408C273.648 408 288 422.352 288 440C288 457.648 273.648 472 256 472ZM256 424C247.176 424 240 431.176 240 440C240 448.824 247.176 456 256 456C264.824 456 272 448.824 272 440C272 431.176 264.824 424 256 424Z" fill="black"/>
<path d="M267.144 423.36L260.864 408.64L263.336 407.584C295.12 393.96 318.816 367.072 328.312 333.8L343.704 338.192C332.872 376.104 305.872 406.76 269.624 422.296L267.144 423.36Z" fill="black"/>
<path d="M244.856 423.36L242.384 422.304C206.136 406.768 179.136 376.112 168.296 338.192L183.688 333.8C193.192 367.064 216.88 393.96 248.672 407.592L251.136 408.64L244.856 423.36Z" fill="black"/>
<path d="M176 464H160V421.256C160 394.208 149.472 368.776 130.344 349.656L141.656 338.344C163.808 360.496 176 389.936 176 421.256V464Z" fill="black"/>
<path d="M352 464H336V421.256C336 389.936 348.192 360.488 370.344 338.344L381.656 349.656C362.528 368.784 352 394.208 352 421.256V464Z" fill="black"/>
<path d="M280 272H256C251.576 272 248 268.424 248 264V200H264V256H280V272Z" fill="black"/>
<path d="M184 176H240V192H184V176Z" fill="black"/>
<path d="M272 176H288V192H272V176Z" fill="black"/>
</svg>
