<svg width="512" height="512" viewBox="0 0 512 512" fill="none" xmlns="http://www.w3.org/2000/svg">
<path d="M338.659 402.462L310.346 383.59H201.799L173.486 402.462C179.846 416.615 189.723 429.944 202.017 440.307L201.799 440.56V502.956H310.346V440.56L310.129 440.307C322.422 429.944 332.301 416.615 338.659 402.462Z" fill="#FFC2A6"/>
<path d="M442.412 238.903H460.503H478.594C473.049 200.109 446.057 167.771 408.87 155.382L388.138 148.474L424.32 139.43L442.411 130.387L430.543 120.892C408.951 103.619 382.122 94.2151 354.461 94.2151H351.955C365.044 87.6677 375.049 79.6014 388.138 73.0549C362.82 52.8074 303.436 46.8669 256.073 94.2151C208.466 46.6226 147.616 53.3592 124.008 72.2407C137.096 78.7882 147.101 87.6677 160.19 94.2151H157.685C130.023 94.2151 103.194 103.62 81.6024 120.892L69.7333 130.387L105.916 139.43L124.007 148.474L103.275 155.382C66.0886 167.77 39.0958 200.109 33.5508 238.903H51.6425H69.7333L56.4998 252.133C41.8094 266.819 33.5508 286.749 33.5508 307.521V311.247H51.6425H69.7333L64.9756 317.596C50.8191 336.459 45.9166 360.703 51.6425 383.591L69.7333 374.548L87.8242 365.505C82.0982 388.393 87.0008 412.637 101.157 431.5L105.915 437.849L150.13 399.678C154.684 406.378 164.035 408.762 171.396 403.856C184.282 395.266 195.761 387.615 201.798 383.59C201.798 390.725 205.734 397.29 212.029 400.654C218.325 404.028 225.959 403.657 231.902 399.696L246.04 390.281C252.11 386.23 260.034 386.23 266.104 390.281L280.242 399.696C286.185 403.657 293.82 404.027 300.116 400.654C306.412 397.29 310.346 390.726 310.346 383.59C315.274 386.875 302.536 378.384 340.748 403.856C348.22 408.838 357.555 406.243 362.014 399.678L406.229 437.849L410.987 431.5C425.144 412.637 430.046 388.393 424.32 365.505L442.411 374.548L460.502 383.591C466.228 360.703 461.325 336.459 447.169 317.596L442.411 311.247H460.502H478.593V307.521C478.593 286.75 470.334 266.819 455.644 252.133L442.412 238.903Z" fill="white"/>
<path d="M201.795 332.344C223.442 332.344 240.99 314.801 240.99 293.161C240.99 271.521 223.442 253.978 201.795 253.978C180.149 253.978 162.601 271.521 162.601 293.161C162.601 314.801 180.149 332.344 201.795 332.344Z" fill="#D4E9FF"/>
<path d="M310.342 332.344C331.989 332.344 349.537 314.801 349.537 293.161C349.537 271.521 331.989 253.978 310.342 253.978C288.696 253.978 271.147 271.521 271.147 293.161C271.147 314.801 288.696 332.344 310.342 332.344Z" fill="#D4E9FF"/>
<path d="M373.114 310.143C369.595 303.099 367.614 295.493 367.026 287.734C366.655 282.978 366.809 278.166 367.442 273.392C374.932 216.883 330.943 166.559 273.775 166.559H238.371C181.203 166.559 137.214 216.883 144.703 273.392C146.377 285.97 144.712 298.785 139.032 310.143C133.297 321.601 135.549 335.445 144.613 344.506L157.521 357.41C159.845 353.828 162.55 350.483 165.617 347.418C176.091 336.946 189.949 330.616 204.612 329.513L204.585 329.224C183.656 330.864 165.617 314.287 165.617 293.16C165.617 273.184 181.817 256.988 201.799 256.988C215.186 256.988 226.883 264.258 233.142 275.074C240.092 287.11 239.624 302.395 231.316 314.085L234.436 329.684C234.853 331.764 235.558 333.727 236.499 335.535C240.217 342.688 247.679 347.418 256.073 347.418C264.468 347.418 271.93 342.688 275.648 335.535C276.589 333.727 277.294 331.764 277.71 329.684L280.831 314.085C276.634 308.18 274.164 300.955 274.164 293.16C274.164 273.173 290.373 256.988 310.347 256.988C330.412 256.988 346.529 273.274 346.529 293.16C346.529 314.581 328.072 330.98 307.47 329.214L307.443 329.504C322.143 330.598 336.028 336.919 346.529 347.418C349.596 350.483 352.301 353.829 354.625 357.41L367.533 344.506C376.596 335.444 378.849 321.6 373.114 310.143Z" fill="#FFC2A6"/>
<path d="M279.004 229.859H233.144C228.148 229.859 224.098 233.908 224.098 238.903C224.098 243.897 228.148 247.946 233.144 247.946H279.004C284 247.946 288.05 243.897 288.05 238.903C288.05 233.907 283.999 229.859 279.004 229.859Z" fill="black"/>
<path d="M478.594 247.945C481.216 247.945 483.709 246.807 485.428 244.827C487.145 242.847 487.92 240.219 487.549 237.624C484.59 216.926 475.943 197.499 462.542 181.447C451.003 167.623 436.373 156.82 419.864 149.866C432.609 146.561 421.87 150.294 446.457 138.476C449.216 137.098 451.081 134.408 451.406 131.342C451.731 128.275 450.471 125.255 448.063 123.328L436.194 113.833C419.923 100.816 400.711 91.9189 380.431 87.7957C384.235 85.4474 388.046 83.214 392.184 81.1443C394.942 79.7648 396.807 77.0745 397.132 74.0088C397.457 70.9432 396.195 67.9218 393.787 65.9959C378.248 53.5668 354.271 47.3143 329.653 49.2727C310.634 50.7843 283.017 57.7768 256.064 81.7883C206.984 38.2674 145.452 43.5086 118.354 65.1809C115.945 67.1068 114.685 70.1272 115.01 73.1938C115.334 76.2604 117.199 78.9497 119.958 80.3292C124.329 82.5156 128.357 85.0033 132.408 87.6537C111.869 91.7144 92.4065 100.665 75.948 113.832L64.0817 123.327C61.397 125.475 60.1627 128.958 60.8966 132.317C61.6304 135.675 64.2047 138.327 67.541 139.161L99.4408 147.133C59.5049 160.843 30.5793 195.781 24.5982 237.623C24.2272 240.218 25.0009 242.846 26.7192 244.826C28.4366 246.806 30.9304 247.854 33.5536 247.854H47.9761C21.3832 276.423 24.7683 309.798 24.5086 311.245C24.5086 316.239 28.5588 320.198 33.5545 320.198H52.3212C40.7128 339.861 37.2508 363.322 42.87 385.782C43.536 388.443 45.3737 390.658 47.8657 391.804C50.3577 392.95 53.2361 392.903 55.69 391.677L76.4791 381.285C75.0504 418.521 96.7552 439.737 98.6789 443.268C101.835 447.478 107.88 448.099 111.83 444.69L149.955 411.777C155.605 415.306 162.634 416.507 169.449 414.583C175.549 425.634 183.472 435.699 192.756 444.189V502.954C192.756 507.949 196.806 511.998 201.802 511.998H310.349C315.344 511.998 319.395 507.949 319.395 502.954V444.189C328.686 435.691 336.61 425.622 342.712 414.565C349.309 416.389 356.404 415.337 362.182 411.763L400.321 444.689C404.307 448.131 410.345 447.438 413.472 443.267C415.282 439.941 437.097 418.464 435.672 381.284L456.461 391.676C458.914 392.902 461.793 392.95 464.285 391.803C466.777 390.656 468.615 388.442 469.281 385.782C474.9 363.321 471.437 339.947 459.83 320.287H478.596C483.592 320.287 487.642 316.239 487.642 311.244V307.518C487.642 285.541 479.124 264.003 464.175 247.943H478.594V247.945V247.945ZM153.671 272.204C146.904 221.16 186.676 175.601 238.371 175.601H273.775C325.489 175.601 365.239 221.175 358.475 272.203C358.188 274.369 357.994 276.535 357.885 278.691H353.19C347.071 260.714 329.867 247.945 310.347 247.945C296.076 247.945 282.669 254.763 274.183 266.031H237.964C229.482 254.766 216.073 247.945 201.799 247.945C179.958 247.945 161.684 263.503 157.481 284.117H154.345C154.42 280.195 154.205 276.215 153.671 272.204ZM361.136 338.111L355.502 343.743C354.667 342.814 353.808 341.907 352.924 341.024C348.298 336.399 343.082 332.48 337.455 329.329C347.541 321.754 354.358 310.064 355.416 296.778H359.148C360.336 302.878 362.289 308.713 365.025 314.189C369.022 322.176 367.46 331.79 361.136 338.111ZM228.935 293.16C228.935 308.192 216.756 320.289 201.798 320.289C186.835 320.289 174.662 308.119 174.662 293.16C174.662 278.202 186.836 266.031 201.798 266.031C216.502 266.031 228.935 277.926 228.935 293.16ZM244.523 331.363C243.955 330.27 243.545 329.11 243.305 327.911L240.899 315.884C244.916 309.003 247.027 301.226 247.027 293.159C247.027 290.112 246.712 286.992 246.107 284.026H266.038C265.433 286.992 265.118 290.112 265.118 293.159C265.118 301.225 267.229 309 271.245 315.884L268.839 327.911C268.6 329.11 268.19 330.27 267.62 331.366C265.373 335.689 260.947 338.374 256.071 338.374C251.196 338.374 246.772 335.689 244.523 331.363ZM308.174 320.198C294.385 319.12 283.208 307.579 283.208 293.16C283.208 277.958 295.61 266.031 310.345 266.031C324.951 266.031 337.482 277.949 337.482 293.16C337.483 309.057 323.777 321.535 308.174 320.198ZM147.122 314.187C149.035 310.362 150.571 306.352 151.73 302.202H157.481C159.728 313.226 166 322.802 174.69 329.328C169.064 332.478 163.848 336.396 159.221 341.023C158.337 341.907 157.479 342.813 156.643 343.742L151.01 338.11C144.686 331.79 143.124 322.176 147.122 314.187ZM210.844 493.913V457.649C225.04 466.025 240.412 470.401 256.072 470.401C271.732 470.401 287.107 466.024 301.3 457.65V493.913H210.844ZM256.072 452.316C226.204 452.316 199.5 431.634 185.144 405.56L196.62 397.91C199.22 402.362 203.031 406.1 207.756 408.624C217.008 413.581 228.182 413.042 236.916 407.222L251.063 397.802C254.106 395.77 258.038 395.771 261.089 397.807L275.225 407.219C283.962 413.041 295.136 413.581 304.379 408.628C309.108 406.101 312.922 402.361 315.523 397.909L327 405.559C312.66 431.606 285.966 452.316 256.072 452.316ZM345.766 396.331C344.886 395.744 350.085 399.21 315.364 376.065C312.588 374.215 309.019 374.043 306.078 375.616C303.136 377.189 301.3 380.254 301.3 383.589C301.3 387.399 299.213 390.882 295.842 392.683C292.487 394.481 288.432 394.284 285.256 392.168L271.126 382.759C261.981 376.656 250.164 376.656 241.026 382.754L226.884 392.171C223.712 394.284 219.658 394.481 216.292 392.678C212.931 390.883 210.843 387.4 210.843 383.589C210.843 380.254 209.007 377.189 206.066 375.616C203.125 374.043 199.556 374.214 196.779 376.065C163.708 398.108 165.354 397.416 162.928 397.416C159.661 397.416 156.569 394.864 156.569 391.076C156.569 363.547 177.821 340.596 205.3 338.528C213.703 337.884 222.266 339.312 230.231 342.651C235.964 351.239 245.573 356.46 256.071 356.46C266.568 356.46 276.18 351.238 281.911 342.651C289.855 339.323 298.396 337.894 306.769 338.521C334.394 340.578 355.573 363.618 355.573 391.077C355.574 396.159 349.979 399.139 345.766 396.331ZM469.34 302.202H442.412C438.986 302.202 435.854 304.137 434.322 307.199C432.791 310.262 433.119 313.928 435.173 316.668L439.934 323.021C450.184 336.678 454.936 353.33 453.597 370.026L428.367 357.415C425.206 355.836 421.416 356.239 418.661 358.45C415.906 360.66 414.689 364.272 415.547 367.699C420.49 387.461 416.568 408.115 404.789 424.656L372.905 397.131C373.399 395.173 373.667 393.146 373.667 391.078C373.667 381.739 371.853 372.625 368.274 363.987C367.561 362.268 366.765 360.579 365.914 358.915L373.93 350.901C385.771 339.065 388.693 321.06 381.207 306.103C378.456 300.594 376.767 294.551 376.153 288.119C376.158 287.99 376.172 287.865 376.172 287.735C376.172 287.112 376.108 286.504 375.988 285.917C375.774 282.211 375.902 278.408 376.41 274.581C384.609 212.719 336.415 157.516 273.774 157.516H238.37C175.93 157.516 127.508 212.507 135.736 274.584C137.243 285.915 135.584 296.812 130.942 306.096C123.453 321.059 126.377 339.064 138.216 350.9L146.222 358.903C141.141 368.838 138.48 379.826 138.48 391.076C138.48 393.143 138.748 395.171 139.242 397.129L107.358 424.656C95.5789 408.119 91.6563 387.463 96.6005 367.699C97.4583 364.272 96.2412 360.661 93.486 358.45C90.7298 356.24 86.9393 355.837 83.7804 357.415L58.5503 370.027C56.0158 338.449 75.2585 319.85 76.9732 316.668C79.0272 313.928 79.3566 310.262 77.8238 307.199C76.2909 304.137 73.1592 302.202 69.7343 302.202H42.8049C45.4769 268.217 69.728 253.398 76.129 245.296C78.716 242.71 79.4896 238.819 78.0889 235.442C76.6891 232.062 73.3909 229.859 69.7316 229.859H44.5603C52.4914 198.969 75.3408 174.22 106.136 163.961L126.868 157.052C130.339 155.895 132.77 152.763 133.03 149.115C133.29 145.465 131.325 142.022 128.053 140.385C103.222 128.076 115.074 132.499 89.6955 126.055C109.186 111.332 133.207 103.258 157.685 103.258H160.19C164.384 103.258 168.029 100.375 168.994 96.2944C169.958 92.2138 167.988 88.0047 164.238 86.1286C158.201 83.1081 152.82 79.5151 147.126 75.7104C145.501 74.6239 143.859 73.5285 142.188 72.4357C167.002 62.8896 211.95 62.8914 249.678 100.61C253.211 104.142 258.938 104.142 262.471 100.61C287.488 75.6 313.594 68.6925 331.091 67.3013C345.054 66.1904 358.937 68.2936 370.073 72.9369C368.429 73.9591 366.812 74.9813 365.211 75.9953C359.471 79.6282 354.049 83.0584 347.911 86.1286C344.16 88.0047 342.191 92.2138 343.155 96.2944C344.12 100.376 347.764 103.258 351.959 103.258H354.464C396.888 103.258 425.22 128.337 425.727 128.618L421.167 130.898L385.948 139.7C382.046 140.676 379.257 144.108 379.103 148.126C378.95 152.144 381.466 155.78 385.282 157.052L406.015 163.962C436.809 174.22 459.658 198.97 467.59 229.86H442.416C438.758 229.86 435.46 232.064 434.059 235.443C432.658 238.821 433.433 242.711 436.019 245.297L449.253 258.527C460.893 270.165 468.054 285.847 469.34 302.202Z" fill="black"/>
<path d="M219.891 211.773H292.256C297.251 211.773 301.302 207.724 301.302 202.73C301.302 197.735 297.251 193.687 292.256 193.687H219.891C214.895 193.687 210.845 197.735 210.845 202.73C210.845 207.725 214.894 211.773 219.891 211.773Z" fill="black"/>
</svg>
