<svg width="496" height="496" viewBox="0 0 496 496" fill="none" xmlns="http://www.w3.org/2000/svg">
<g clip-path="url(#clip0)">
<path d="M328 104L312 8H184L168 104H328Z" fill="#BC8F6F"/>
<path d="M184 8L168 104H304L288 8H184Z" fill="#DBAF89"/>
<path d="M168 104L88 136H408L328 104" fill="#CB9E78"/>
<path d="M88 136V168H408V136" fill="#BC8F6F"/>
<path d="M344 216C361.672 216 376 201.672 376 184V168H344" fill="#DCB29C"/>
<path d="M152 216C134.328 216 120 201.672 120 184V168H152" fill="#DCB29C"/>
<path d="M360 184V168H344V211.559C353.527 206.016 360 195.816 360 184Z" fill="#F3C6B0"/>
<path d="M248 312C194.984 312 152 269.016 152 216V168H344V216C344 269.016 301.016 312 248 312Z" fill="#DCB29C"/>
<path d="M236 311.168C283.344 305.258 320 264.945 320 216V168H152V216C152 264.945 188.656 305.258 236 311.168Z" fill="#F3C6B0"/>
<path d="M288 264H208C208 246.328 222.328 232 240 232H256C273.672 232 288 246.328 288 264Z" fill="#575C61"/>
<path d="M216 304L208 344H288L280 304" fill="#DCB29C"/>
<path d="M216 304L208 344H272L264 304H216Z" fill="#F3C6B0"/>
<path d="M344 344H152C98.9844 344 56 386.984 56 440V488H440V440C440 386.984 397.016 344 344 344Z" fill="#599072"/>
<path d="M312 344H152C98.9844 344 56 386.984 56 440V488H408V440C408 386.984 365.016 344 312 344Z" fill="#70B48F"/>
<path d="M352 488V328H320V440H176V328H144V488" fill="#EEBC5A"/>
<path d="M320 328V440H160V328H144V488H336V328H320Z" fill="#F8CF6A"/>
<path d="M328 112H168C165.649 112 163.414 110.969 161.895 109.168C160.375 107.367 159.727 105 160.113 102.68L176.113 6.67969C176.754 2.83203 180.09 0 184 0H312C315.91 0 319.246 2.83203 319.887 6.6875L335.887 102.688C336.274 105.008 335.625 107.375 334.106 109.176C332.586 110.977 330.352 112 328 112ZM177.449 96H318.559L305.223 16H190.777L177.449 96Z" fill="black"/>
<path d="M176 64H320V80H176V64Z" fill="black"/>
<path d="M408 144H88.0001C84.168 144 80.8711 141.281 80.1446 137.512C79.4141 133.742 81.4727 130 85.0235 128.566L165.023 96.5664L170.969 111.426L129.535 128H366.457L325.023 111.434L330.969 96.5742L410.969 128.574C414.527 130.008 416.574 133.754 415.848 137.52C415.121 141.289 411.832 144 408 144Z" fill="black"/>
<path d="M408 176H88C83.5859 176 80 172.426 80 168V136H96V160H400V136H416V168C416 172.426 412.414 176 408 176Z" fill="black"/>
<path d="M248 320C190.656 320 144 273.344 144 216V168C144 163.574 147.586 160 152 160H344C348.414 160 352 163.574 352 168V216C352 273.344 305.344 320 248 320ZM160 176V216C160 264.52 199.48 304 248 304C296.52 304 336 264.52 336 216V176H160Z" fill="black"/>
<path d="M288 272H208C203.586 272 200 268.426 200 264C200 241.945 217.945 224 240 224H256C278.055 224 296 241.945 296 264C296 268.426 292.414 272 288 272ZM217.367 256H278.625C275.32 246.688 266.426 240 255.992 240H239.992C229.566 240 220.672 246.688 217.367 256Z" fill="black"/>
<path d="M200 216C191.176 216 184 208.824 184 200C184 191.176 191.176 184 200 184C208.824 184 216 191.176 216 200C216 208.824 208.824 216 200 216Z" fill="black"/>
<path d="M296 216C287.176 216 280 208.824 280 200C280 191.176 287.176 184 296 184C304.824 184 312 191.176 312 200C312 208.824 304.824 216 296 216Z" fill="black"/>
<path d="M152 224C129.945 224 112 206.055 112 184V168H128V184C128 197.23 138.77 208 152 208V224Z" fill="black"/>
<path d="M344 224V208C357.23 208 368 197.23 368 184V168H384V184C384 206.055 366.055 224 344 224Z" fill="black"/>
<path d="M440 496H56C51.5859 496 48 492.426 48 488V440C48 386.289 89.8789 340.77 143.344 336.352L144.656 352.305C99.4336 356.031 64 394.551 64 440V480H432V440C432 394.551 396.566 356.031 351.344 352.305L352.656 336.352C406.121 340.77 448 386.289 448 440V488C448 492.426 444.414 496 440 496Z" fill="black"/>
<path d="M176 336H320V352H176V336Z" fill="black"/>
<path d="M200.137 342.441L208.145 302.441L223.832 305.586L215.824 345.582L200.137 342.441Z" fill="black"/>
<path d="M272.156 305.574L287.844 302.438L295.844 342.438L280.156 345.574L272.156 305.574Z" fill="black"/>
<path d="M360 488H344V336H328V440C328 444.426 324.414 448 320 448H176C171.586 448 168 444.426 168 440V336H152V488H136V328C136 323.574 139.586 320 144 320H176C180.414 320 184 323.574 184 328V432H312V328C312 323.574 315.586 320 320 320H352C356.414 320 360 323.574 360 328V488Z" fill="black"/>
</g>
<defs>
<clipPath id="clip0">
<rect width="496" height="496" fill="white"/>
</clipPath>
</defs>
</svg>
