<svg width="496" height="496" viewBox="0 0 496 496" fill="none" xmlns="http://www.w3.org/2000/svg">
<path d="M384 320V112H384.062C384.062 54.5586 337.504 8 280.062 8C268.871 8 258.105 9.79297 248 13.0625C237.895 9.79297 227.129 8 215.938 8C158.496 8 111.938 54.5586 111.938 112H112V320" fill="#976947"/>
<path d="M192 296L121.879 317.574C101.742 323.77 88 342.375 88 363.449V488H408V363.449C408 342.375 394.258 323.77 374.121 317.566L304 296" fill="#C16B3F"/>
<path d="M342.121 317.574L272 296H192L121.879 317.574C101.742 323.77 88 342.375 88 363.449V488H376V363.449C376 342.375 362.258 323.77 342.121 317.574Z" fill="#E39854"/>
<path d="M176 296L192 368L224 336L208 304" fill="#C16B3F"/>
<path d="M320 296L304 368L272 336L288 304" fill="#C16B3F"/>
<path d="M288 304L272 336L288 344L248 376L208 344L224 336L208 304" fill="#DB9B7C"/>
<path d="M143.938 144C126.266 144 111.938 158.328 111.938 176C111.938 193.672 126.266 208 143.938 208" fill="#DB9B7C"/>
<path d="M351.938 144C369.609 144 383.938 158.328 383.938 176C383.938 193.672 369.609 208 351.938 208" fill="#EFBE9A"/>
<path d="M248 56C248 86.9297 273.07 112 304 112H352V208C352 265.441 305.441 312 248 312C190.559 312 144 265.441 144 208V112H192C222.93 112 248 86.9297 248 56Z" fill="#DB9B7C"/>
<path d="M236 311.258C287.777 305.297 328 261.375 328 208V112H280C262.129 112 246.258 103.602 236 90.5664C225.742 103.602 209.871 112 192 112H144V208C144 261.375 184.223 305.297 236 311.258Z" fill="#EFBE9A"/>
<path d="M328 176C328 193.672 313.672 208 296 208C278.328 208 264 193.672 264 176C264 158.328 278.328 144 296 144C313.672 144 328 158.328 328 176Z" fill="#B8CBD9"/>
<path d="M232 176C232 193.672 217.672 208 200 208C182.328 208 168 193.672 168 176C168 158.328 182.328 144 200 144C217.672 144 232 158.328 232 176Z" fill="#B8CBD9"/>
<path d="M248 320C186.238 320 136 269.762 136 208V112C136 107.586 139.586 104 144 104H192C218.473 104 240 82.4727 240 56C240 51.5859 243.586 48 248 48C252.414 48 256 51.5859 256 56C256 82.4727 277.527 104 304 104H352C356.414 104 360 107.586 360 112V208C360 269.762 309.762 320 248 320ZM152 120V208C152 260.938 195.062 304 248 304C300.938 304 344 260.938 344 208V120H304C279.938 120 258.93 106.648 248 86.9609C237.07 106.648 216.062 120 192 120H152Z" fill="black"/>
<path d="M408 496H88C83.5859 496 80 492.426 80 488V363.457C80 338.719 95.8867 317.207 119.527 309.93L189.648 288.359L194.352 303.656L124.23 325.223C107.344 330.414 96 345.785 96 363.457V480H400V363.457C400 345.785 388.656 330.414 371.762 325.223L301.648 303.656L306.352 288.359L376.473 309.93C400.113 317.199 416 338.719 416 363.457V488C416 492.426 412.414 496 408 496Z" fill="black"/>
<path d="M120 320H104V113C103.961 112.672 103.938 112.336 103.938 112C103.938 50.2383 154.176 0 215.938 0C239.902 0 262.77 7.46484 282.047 21.5859L272.594 34.4883C256.07 22.3906 236.48 16 215.938 16C163.32 16 120.457 58.543 119.938 111.039C119.984 111.352 120 111.672 120 112V320Z" fill="black"/>
<path d="M392 320H376V112C376 111.672 376.016 111.352 376.055 111.031C375.535 58.543 332.672 16 280.062 16C269.688 16 259.488 17.6484 249.734 20.8789L244.688 5.70312C256.062 1.92188 267.969 0 280.062 0C341.824 0 392.062 50.2383 392.062 112C392.062 112.336 392.047 112.672 392 113V320Z" fill="black"/>
<path d="M143.938 216C121.879 216 103.938 198.055 103.938 176C103.938 153.945 121.879 136 143.938 136V152C130.703 152 119.938 162.77 119.938 176C119.938 189.23 130.703 200 143.938 200V216Z" fill="black"/>
<path d="M351.938 216V200C365.168 200 375.938 189.23 375.938 176C375.938 162.77 365.168 152 351.938 152V136C373.992 136 391.938 153.945 391.938 176C391.938 198.055 373.992 216 351.938 216Z" fill="black"/>
<path d="M240 192H256V224H240V192Z" fill="black"/>
<path d="M204 192C197.383 192 192 186.617 192 180C192 173.383 197.383 168 204 168C210.617 168 216 173.383 216 180C216 186.617 210.617 192 204 192ZM204 176C201.793 176 200 177.793 200 180C200 182.207 201.793 184 204 184C206.207 184 208 182.207 208 180C208 177.793 206.207 176 204 176Z" fill="black"/>
<path d="M292 192C285.383 192 280 186.617 280 180C280 173.383 285.383 168 292 168C298.617 168 304 173.383 304 180C304 186.617 298.617 192 292 192ZM292 176C289.793 176 288 177.793 288 180C288 182.207 289.793 184 292 184C294.207 184 296 182.207 296 180C296 177.793 294.207 176 292 176Z" fill="black"/>
<path d="M248 288C217.121 288 192 262.871 192 232H208C208 254.055 225.945 272 248 272C270.055 272 288 254.055 288 232H304C304 262.871 278.879 288 248 288Z" fill="black"/>
<path d="M296 216C273.945 216 256 198.055 256 176C256 153.945 273.945 136 296 136C318.055 136 336 153.945 336 176C336 198.055 318.055 216 296 216ZM296 152C282.77 152 272 162.77 272 176C272 189.23 282.77 200 296 200C309.23 200 320 189.23 320 176C320 162.77 309.23 152 296 152Z" fill="black"/>
<path d="M200 216C177.945 216 160 198.055 160 176C160 153.945 177.945 136 200 136C222.055 136 240 153.945 240 176C240 198.055 222.055 216 200 216ZM200 152C186.77 152 176 162.77 176 176C176 189.23 186.77 200 200 200C213.23 200 224 189.23 224 176C224 162.77 213.23 152 200 152Z" fill="black"/>
<path d="M232 168H264V184H232V168Z" fill="black"/>
<path d="M328 168H352V184H328V168Z" fill="black"/>
<path d="M144 168H168V184H144V168Z" fill="black"/>
<path d="M192 376C191.258 376 190.496 375.895 189.762 375.68C186.961 374.863 184.824 372.586 184.191 369.734L168.191 297.734L183.809 294.266L196.648 352.039L214.266 334.426L200.84 307.586L215.152 300.426L231.152 332.426C232.688 335.504 232.09 339.223 229.648 341.656L197.648 373.656C196.137 375.176 194.09 376 192 376Z" fill="black"/>
<path d="M248 384C246.23 384 244.465 383.414 243 382.246L203 350.246L212.992 337.754L248 365.762L283 337.754L292.992 350.246L252.992 382.246C251.535 383.414 249.77 384 248 384Z" fill="black"/>
<path d="M304 376C301.91 376 299.863 375.176 298.344 373.656L266.344 341.656C263.91 339.215 263.305 335.496 264.84 332.426L280.84 300.426L295.152 307.586L281.726 334.426L299.344 352.039L312.183 294.266L327.801 297.734L311.801 369.734C311.168 372.586 309.031 374.871 306.23 375.68C305.504 375.895 304.742 376 304 376Z" fill="black"/>
<path d="M344 392H360V488H344V392Z" fill="black"/>
<path d="M136 392H152V488H136V392Z" fill="black"/>
</svg>
