<svg width="512" height="512" viewBox="0 0 512 512" fill="none" xmlns="http://www.w3.org/2000/svg">
<path d="M256 232C344.366 232 416 214.091 416 192C416 169.909 344.366 152 256 152C167.634 152 96 169.909 96 192C96 214.091 167.634 232 256 232Z" fill="#243242"/>
<path d="M360 176C360 189.256 313.44 200 256 200C198.56 200 152 189.256 152 176C167.744 128.76 171.328 78.32 162.424 29.328C161.16 22.392 166.496 16 173.552 16H338.456C345.512 16 350.84 22.392 349.584 29.328C340.672 78.32 344.256 128.76 360 176Z" fill="#243242"/>
<path d="M274.944 16H173.544C166.488 16 161.16 22.392 162.416 29.328C170.176 72 168.44 115.776 157.456 157.576C221.912 140.824 270.232 84.488 274.944 16Z" fill="#4D5D7A"/>
<path d="M356.448 324.976L356.416 325.032C349.016 320.936 344 313.056 344 304C344 297.824 346.4 292.256 350.232 288C346.4 283.744 344 278.176 344 272C344 267.704 345.224 263.728 347.2 260.24C340.488 255.984 336 248.536 336 240C336 234.76 337.68 229.912 340.528 225.968C316 229.792 287.032 232 256 232C224.968 232 196 229.792 171.472 225.968C174.32 229.912 176 234.76 176 240C176 248.536 171.512 255.984 164.8 260.24C166.776 263.728 168 267.704 168 272C168 278.176 165.6 283.744 161.768 288C165.6 292.256 168 297.824 168 304C168 313.088 162.944 321 155.496 325.072L155.648 325.352C164.576 361.52 189.4 392.352 224 408.624V456H288V408.624C322.728 392.296 347.6 361.304 356.448 324.976Z" fill="#FADFB2"/>
<path d="M194.184 496H80C80 473.912 97.912 456 120 456H184.576L184.64 455.584C182.512 469.52 185.696 484.152 194.184 496Z" fill="#243242"/>
<path d="M317.816 496H432C432 473.912 414.088 456 392 456H327.424C329.424 469.808 326.216 484.264 317.816 496Z" fill="#243242"/>
<path d="M240 480L194.184 496C180.608 477.04 180.608 450.96 194.184 432L240 448H272L317.816 432C331.392 450.96 331.392 477.04 317.816 496L272 480H240Z" fill="#E47C6E"/>
<path d="M372.352 219.456C362.928 221.952 352.232 224.144 340.528 225.968V225.96C337.68 229.912 336 234.76 336 240C336 248.536 340.488 255.984 347.2 260.24C345.224 263.728 344 267.704 344 272C344 278.176 346.4 283.744 350.232 288C346.4 292.256 344 297.824 344 304C344 317.256 354.744 328 368 328C378.488 328 387.312 321.232 390.576 311.856C391.056 311.888 391.512 312 392 312C405.256 312 416 301.256 416 288C416 281.824 413.6 276.256 409.768 272C413.6 267.744 416 262.176 416 256C416 242.744 405.256 232 392 232C388.84 232 385.84 232.648 383.072 233.76C381.44 227.728 377.552 222.616 372.352 219.456Z" fill="#976947"/>
<path d="M139.648 219.456C149.072 221.952 159.768 224.144 171.472 225.968V225.96C174.32 229.912 176 234.76 176 240C176 248.536 171.512 255.984 164.8 260.24C166.776 263.728 168 267.704 168 272C168 278.176 165.6 283.744 161.768 288C165.6 292.256 168 297.824 168 304C168 317.256 157.256 328 144 328C133.512 328 124.688 321.232 121.424 311.856C120.944 311.888 120.488 312 120 312C106.744 312 96 301.256 96 288C96 281.824 98.4 276.256 102.232 272C98.4 267.744 96 262.176 96 256C96 242.744 106.744 232 120 232C123.16 232 126.16 232.648 128.928 233.76C130.56 227.728 134.448 222.616 139.648 219.456Z" fill="#976947"/>
<path d="M353.256 152.52C338.36 161.568 300.432 168 256 168C211.56 168 173.624 161.568 158.736 152.52L158.76 152.528C156.84 160.424 154.584 168.256 152 176C152 189.256 198.56 200 256 200C313.44 200 360 189.256 360 176C357.416 168.256 355.16 160.424 353.24 152.528L353.256 152.52Z" fill="#758190"/>
<path d="M224 344H192C192 326.328 206.328 312 224 312H256C256 329.672 241.672 344 224 344Z" fill="#CBC3B6"/>
<path d="M320 344H288C270.328 344 256 329.672 256 312H288C305.672 312 320 326.328 320 344Z" fill="#CBC3B6"/>
<path d="M256 375.984C248.696 375.984 241.84 373.152 236.68 367.992L234.336 365.648L245.656 354.328L248 356.672C252.272 360.952 259.728 360.952 264 356.672L266.336 354.336L277.664 365.64L275.328 367.984C270.152 373.152 263.296 375.984 256 375.984Z" fill="#EFBE9A"/>
<path d="M256 488C247.16 488 240 480.84 240 472V456C240 447.16 247.16 440 256 440C264.84 440 272 447.16 272 456V472C272 480.84 264.84 488 256 488Z" fill="#F7D881"/>
<path d="M208 455.992H240V471.984H208V455.992Z" fill="#C66B60"/>
<path d="M272 455.992H304V471.984H272V455.992Z" fill="#C66B60"/>
<path d="M288 287.984C279.176 287.984 272 280.816 272 271.992C272 263.16 279.176 255.992 288 255.992C296.824 255.992 304 263.16 304 271.992C303.992 280.816 296.816 287.984 288 287.984Z" fill="#243242"/>
<path d="M224 287.984C215.176 287.984 208 280.816 208 271.992C208 263.16 215.176 255.992 224 255.992C232.824 255.992 240 263.16 240 271.992C240 280.816 232.824 287.984 224 287.984ZM224 271.976V271.992V271.976Z" fill="#243242"/>
<path d="M256 40L238.792 75.712L200 88L230.792 99.712L224 136L254.792 115.712L288 136L278.792 99.712L312 88L270.792 75.712L256 40Z" fill="#F2C351"/>
<path d="M264.912 61.512L256 40L238.792 75.712L200 88L230.792 99.712L227.288 118.432C243.696 102.576 256.584 83.2 264.912 61.512Z" fill="#F7D881"/>
<path d="M256 335.752C263.296 345.552 274.864 351.992 287.992 351.992H319.992C322.12 351.992 324.152 351.152 325.656 349.648C327.16 348.144 328 346.112 328 343.984C328 321.936 310.056 304 288 304H256H224C213.312 304 203.272 308.16 195.712 315.712C188.152 323.264 184 333.312 184 344C184 348.416 187.584 351.992 192 351.992H224C237.128 351.992 248.704 345.552 256 335.752ZM288 320C298.424 320 307.32 326.688 310.624 335.992H287.992C277.568 335.992 268.672 329.312 265.368 320H288ZM224 335.992H201.352C202.528 332.656 204.448 329.6 207.016 327.024C211.552 322.496 217.584 320 224 320H246.632C243.328 329.312 234.432 335.992 224 335.992Z" fill="black"/>
<path d="M264 356.672C259.728 360.976 252.304 360.976 247.992 356.672L245.656 354.336L234.352 365.656L236.688 367.992C241.856 373.16 248.712 375.992 256.008 375.992C263.296 375.992 270.16 373.16 275.312 368L277.656 365.664L266.36 354.328L264 356.672Z" fill="black"/>
<path d="M392 448H333.736C331.856 440.68 328.824 433.624 324.328 427.336C322.264 424.456 318.56 423.28 315.184 424.448L296 431.144V413.448C327.624 397.08 350.992 369.264 361.64 335.36C363.688 335.776 365.816 336 368 336C379.584 336 390.112 329.672 395.728 319.784C411.624 317.928 424 304.384 424 288C424 282.352 422.48 276.84 419.64 271.992C422.48 267.144 424 261.632 424 256C424 238.352 409.648 224 392 224C390.592 224 389.184 224.096 387.792 224.28C387.624 223.984 387.368 223.76 387.192 223.472C409.648 215.808 424 205.384 424 191.992C424 175.472 403.072 162.648 361.888 153.84C351.632 113.712 350.032 71.576 357.456 30.76C358.48 25.104 356.96 19.336 353.28 14.928C349.6 10.52 344.2 8 338.456 8H173.544C167.8 8 162.4 10.52 158.72 14.928C155.04 19.336 153.52 25.096 154.552 30.76C161.976 71.576 160.368 113.712 150.112 153.84C108.928 162.648 88 175.472 88 191.992C88 205.384 102.352 215.808 124.808 223.472C124.632 223.76 124.368 223.984 124.208 224.28C114.376 222.984 104.408 226.32 97.368 233.368C91.328 239.416 88 247.448 88 256C88 261.632 89.52 267.144 92.36 271.992C89.52 276.84 88 282.352 88 288C88 304.384 100.376 317.928 116.272 319.784C121.88 329.664 132.416 336 144 336C146.176 336 148.304 335.776 150.36 335.36C161.016 369.256 184.4 397.096 216 413.456V431.152L196.816 424.456C193.472 423.288 189.744 424.464 187.672 427.344C183.168 433.632 180.144 440.688 178.264 448.008H120C107.176 448.008 95.128 453 86.056 462.064C76.984 471.128 72 483.168 72 496C72 500.416 75.584 503.992 80 503.992H192V503.48C192.72 503.688 193.416 504 194.176 504C195.056 504 195.944 503.848 196.816 503.544L238.944 488.832C243.296 493.24 249.328 495.984 256 495.984C262.672 495.984 268.704 493.24 273.056 488.832L315.176 503.536C316.04 503.84 316.928 503.992 317.808 503.992C318.568 503.992 319.272 503.68 319.992 503.464V503.992L431.992 503.984C434.112 503.984 436.152 503.152 437.648 501.64C439.16 500.144 440 498.112 440 495.984C439.992 469.52 418.464 448 392 448ZM375.352 235.832C375.952 238.032 377.464 239.888 379.504 240.904C381.544 241.928 383.928 242.024 386.056 241.168C387.992 240.392 389.992 240 392 240C400.824 240 408 247.168 408 256C408 260.96 405.728 264.52 403.824 266.64C401.088 269.688 401.088 274.312 403.824 277.352C405.728 279.464 408 283.024 408 288C408 296.824 400.824 304 392.32 304C392.112 303.968 391.304 303.872 391.096 303.864C387.64 303.632 384.208 305.808 383.024 309.216C380.776 315.664 374.736 320 368 320C359.176 320 352 312.824 352 304C352 299.024 354.264 295.464 356.168 293.352C358.912 290.312 358.912 285.688 356.168 282.64C354.264 280.528 352 276.96 352 272C352 269.336 352.72 266.704 354.16 264.176C356.264 260.464 355.088 255.752 351.488 253.472C346.8 250.496 344 245.464 344 240C344 237.64 344.672 235.432 345.64 233.344C354.512 231.888 362.944 230.2 370.768 228.248C372.952 230.28 374.552 232.888 375.352 235.832ZM351.568 175.976C345.88 182.112 311.48 192 256 192C200.504 192 166.112 182.112 160.424 175.968C161.728 171.936 162.824 167.84 163.96 163.76C183.72 171.312 217.992 175.992 256.008 175.992C294.016 175.992 328.28 171.312 348.04 163.76C349.168 167.848 350.264 171.936 351.568 175.976ZM171 25.176C171.376 24.744 172.192 24 173.544 24L338.44 23.992C339.784 23.992 340.608 24.736 340.976 25.176C341.344 25.616 341.936 26.56 341.696 27.888C334.456 67.696 335.432 108.688 344.144 148.104C329.552 154.208 298.16 159.992 256 159.992C213.832 159.992 182.44 154.208 167.84 148.112C176.552 108.696 177.528 67.704 170.296 27.888C170.048 26.568 170.632 25.624 171 25.176ZM104 191.992C104 189.048 111.976 179.656 145.016 171.432C144.8 172.104 144.632 172.792 144.408 173.464C144.136 174.28 144 175.136 144 176C144 207.104 244.536 208 256 208C267.464 208 368 207.104 368 176C368 175.136 367.856 174.272 367.584 173.464C367.36 172.792 367.2 172.104 366.976 171.432C400.016 179.648 407.992 189.048 407.992 191.992C407.992 202.856 354.344 223.992 255.992 223.992C157.648 223.992 104 202.856 104 191.992ZM128.976 309.208C127.792 305.816 124.6 303.64 120.904 303.864C120.688 303.872 120.2 303.968 120 304C111.176 304 104 296.824 104 288C104 283.024 106.264 279.464 108.168 277.352C110.912 274.312 110.912 269.688 108.168 266.64C106.264 264.528 104 260.968 104 255.992C104 251.72 105.664 247.704 108.68 244.68C113.12 240.24 119.872 238.736 125.936 241.176C128.08 242.024 130.448 241.928 132.488 240.912C134.536 239.888 136.048 238.048 136.648 235.84C137.432 232.936 139.056 230.296 141.24 228.256C149.056 230.2 157.488 231.896 166.352 233.344C167.328 235.432 168 237.64 168 240C168 245.464 165.2 250.496 160.512 253.48C156.912 255.76 155.728 260.472 157.84 264.184C159.272 266.704 160 269.336 160 272C160 276.96 157.728 280.52 155.824 282.64C153.088 285.688 153.088 290.312 155.824 293.352C157.728 295.464 160 299.024 160 304C160 312.824 152.824 320 144 320C137.264 320 131.224 315.664 128.976 309.208ZM164.84 328.088C171.616 322.208 176 313.648 176 304C176 298.352 174.48 292.84 171.632 287.992C174.48 283.144 176 277.632 176 272C176 268.808 175.512 265.68 174.544 262.64C180.552 256.704 184 248.624 184 240C184 238.584 183.856 237.184 183.672 235.8C206.64 238.616 231.592 239.992 256 239.992C280.408 239.992 305.352 238.616 328.328 235.8C328.144 237.184 328 238.584 328 240C328 248.624 331.44 256.704 337.448 262.64C336.488 265.68 336 268.808 336 272C336 277.632 337.52 283.144 340.36 287.992C337.52 292.84 336 298.352 336 304C336 313.64 340.376 322.2 347.152 328.072C337.6 360.976 314.656 387.816 283.248 402.08C266.04 409.92 245.992 409.936 228.744 402.08C197.36 387.824 174.4 360.984 164.84 328.088ZM232 420.328C239.752 422.712 247.776 423.992 256 423.992C264.224 423.992 272.248 422.712 280 420.328V436.728L273.056 439.152C268.704 434.744 262.664 432 255.992 432C249.32 432 243.288 434.744 238.936 439.152L232 436.728V420.328ZM97.368 473.368C103.408 467.32 111.448 464 120 464H176.088C176.088 472.2 177.824 480.336 180.928 487.992H89C90.408 482.504 93.256 477.48 97.368 473.368ZM197.576 486.328C190.2 472.528 190.2 455.456 197.576 441.656L232.224 453.752C232.152 454.496 232 455.224 232 455.984V456H208V471.992H232C232 472.76 232.152 473.488 232.224 474.24L197.576 486.328ZM264 471.992C264 476.408 260.416 479.992 256 479.992H255.992C251.584 479.992 248 476.408 248 471.992V455.984C248 451.576 251.584 448 256 448C260.408 448 264 451.576 264 455.984V471.992ZM314.416 486.336L279.768 474.24C279.84 473.488 280 472.76 280 471.992H304V456H280V455.984C280 455.224 279.848 454.496 279.776 453.752L314.424 441.656C321.8 455.456 321.8 472.528 314.416 486.336ZM331.064 487.992C334.168 480.336 335.904 472.2 335.904 464H392C406.88 464 419.424 474.208 422.992 487.992H331.064Z" fill="black"/>
<path d="M288 287.992C296.824 287.992 304 280.824 304 272C304 263.168 296.824 256 288 256C279.176 256 272 263.168 272 272C272 280.824 279.176 287.992 288 287.992Z" fill="black"/>
<path d="M224 287.992C232.824 287.992 240 280.824 240 272C240 263.168 232.824 256 224 256C215.176 256 208 263.168 208 272C208 280.824 215.176 287.992 224 287.992Z" fill="black"/>
<path d="M197.152 95.48L221.696 104.808L216.136 134.528C215.544 137.688 216.896 140.888 219.576 142.664C222.248 144.448 225.728 144.456 228.408 142.688L254.96 125.184L283.832 142.824C285.112 143.608 286.552 144 288 144C289.672 144 291.344 143.472 292.752 142.44C295.368 140.512 296.56 137.184 295.76 134.032L288.352 104.824L314.672 95.544C317.936 94.392 320.096 91.272 320.008 87.8C319.92 84.336 317.616 81.32 314.296 80.328L276.736 69.128L263.4 36.944C262.184 34.024 259.376 32.088 256.224 32C253.2 32.144 250.16 33.68 248.792 36.52L233.08 69.12L197.576 80.36C194.328 81.392 192.088 84.36 191.992 87.768C191.904 91.168 193.976 94.264 197.152 95.48ZM241.208 83.336C243.312 82.664 245.04 81.168 246 79.176L255.448 59.568L263.4 78.76C264.32 80.984 266.2 82.68 268.504 83.368L286.144 88.624L276.136 92.152C272.232 93.528 270.024 97.656 271.04 101.656L275.416 118.912L258.96 108.88C256.32 107.264 252.976 107.328 250.392 109.024L235.328 118.952L238.656 101.176C239.368 97.368 237.256 93.6 233.64 92.224L224.312 88.688L241.208 83.336Z" fill="black"/>
</svg>
