<svg width="163" height="200" viewBox="0 0 163 200" fill="none" xmlns="http://www.w3.org/2000/svg">
<path d="M29.2014 178.886V198.351H16.2246V172.397V159.421V120.49H29.2014V159.421V178.886Z" fill="#969FAA"/>
<path d="M28.5851 100.117L35.6899 110.758L29.2015 120.491H16.2247L9.73633 110.758L16.8411 100.117C18.6903 100.701 20.6693 101.026 22.7131 101.026C24.757 101.026 26.7359 100.701 28.5851 100.117Z" fill="#CCD1D9"/>
<path d="M29.2014 55.6056C29.2014 59.1742 26.2816 62.094 22.713 62.094C22.6806 62.094 22.6806 62.094 22.6481 62.094C19.1119 62.0615 16.2246 59.1418 16.2246 55.6056C16.2246 52.037 19.1444 49.1172 22.713 49.1172C26.2816 49.1172 29.2014 52.037 29.2014 55.6056Z" fill="#FFC729"/>
<path d="M22.7134 62.0947C33.4517 62.0947 42.1786 70.8216 42.1786 81.5599C42.1786 90.2543 36.4363 97.6511 28.5854 100.117C26.7362 100.701 24.7572 101.025 22.7134 101.025C22.7134 101.025 29.2018 94.5367 29.2018 81.5599C29.2018 68.5831 22.7134 62.0947 22.7134 62.0947Z" fill="#FCD770"/>
<path d="M22.713 62.0947C22.713 62.0947 29.2014 68.5831 29.2014 81.5599C29.2014 94.5367 22.713 101.025 22.713 101.025C22.713 101.025 16.2246 91.2925 16.2246 81.5599C16.2246 68.5831 22.713 62.0947 22.713 62.0947Z" fill="#FCD770"/>
<path d="M22.6483 62.0947H22.7132C22.7132 62.0947 16.2248 68.5831 16.2248 81.5599C16.2248 91.2925 22.7132 101.025 22.7132 101.025C20.6694 101.025 18.6904 100.701 16.8412 100.117C8.99027 97.6511 3.24805 90.2543 3.24805 81.5599C3.24805 70.8541 11.9425 62.1272 22.6483 62.0947Z" fill="#FCD770"/>
<path d="M123.057 91.293H123.024C122.473 95.478 120.721 99.2737 118.158 102.388C117.704 102.972 117.217 103.524 116.698 104.043C114.459 106.281 111.799 108.065 108.782 109.233C106.252 110.207 103.494 110.758 100.574 110.758C97.6545 110.758 94.8969 110.207 92.3664 109.233L84.5155 104.108C84.483 104.075 84.483 104.075 84.4506 104.043C83.9315 103.524 83.4449 102.972 82.9907 102.388C80.4278 99.2737 78.6759 95.478 78.1244 91.293H78.0919C74.134 93.2719 71.3765 97.3596 71.3765 101.804V101.999C71.3765 105.405 72.1875 108.714 73.7123 111.667H73.7447C74.718 113.613 76.0157 115.397 77.5729 116.955L77.8649 117.247C78.9679 118.317 80.2007 119.258 81.5308 120.069C82.8609 120.912 84.3208 121.561 85.8456 122.08L90.8416 123.735L100.574 126.979L110.307 123.735L115.303 122.08C116.828 121.561 118.288 120.912 119.618 120.069C120.948 119.258 122.181 118.317 123.284 117.247C123.381 117.149 123.478 117.052 123.576 116.955C125.133 115.397 126.43 113.613 127.436 111.667C128.961 108.714 129.772 105.405 129.772 101.999V101.804C129.772 97.3596 127.014 93.2719 123.057 91.293Z" fill="#CF9E76"/>
<path d="M87.597 139.956V152.933V172.398V185.375V198.352H68.1318V162.666V139.956H77.7671C81.7575 139.956 85.3261 137.523 86.786 133.825L87.597 131.846V139.956Z" fill="#4FC1E9"/>
<path d="M114.362 133.825C115.822 137.523 119.39 139.956 123.381 139.956H133.016V172.398V185.375V198.352H113.551V185.375V172.398V152.933V139.956V131.846L114.362 133.825Z" fill="#4FC1E9"/>
<path d="M87.5972 185.374H113.551V198.351H87.5972V185.374Z" fill="#CCD1D9"/>
<path d="M87.5972 152.933H113.551V172.398H87.5972V152.933Z" fill="#CCD1D9"/>
<path d="M110.307 123.734L113.551 131.845V139.955H87.5972V131.845L90.8414 123.734L100.574 126.979L110.307 123.734Z" fill="#CCD1D9"/>
<path d="M87.5972 172.398H113.551V185.375H87.5972V172.398Z" fill="#AAB2BD"/>
<path d="M87.5972 139.955H113.551V152.932H87.5972V139.955Z" fill="#AAB2BD"/>
<path d="M56.6798 139.955H68.1318V162.665C68.1318 171.619 60.8648 178.886 51.9108 178.886H42.1782V159.42H45.4224C47.2067 159.42 48.6666 157.96 48.6666 156.176V137.619V137.587C51.0349 139.112 53.7924 139.955 56.6798 139.955Z" fill="#4FC1E9"/>
<path d="M29.2017 159.42H42.1784V178.885H29.2017V159.42Z" fill="#3BAFDA"/>
<path d="M133.016 172.398H152.481V185.375H133.016V172.398Z" fill="#3BAFDA"/>
<path d="M152.481 137.619V172.397H133.016V139.955H144.468C147.355 139.955 150.113 139.112 152.481 137.587V137.619Z" fill="#4FC1E9"/>
<path d="M133.016 185.374H152.481V198.351H133.016V185.374Z" fill="#F0D0B4"/>
<path d="M16.2248 159.421V172.398C16.2248 175.966 13.3051 178.886 9.73644 178.886C7.95213 178.886 6.33003 178.172 5.16212 176.972C3.96177 175.804 3.24805 174.182 3.24805 172.398V159.421C3.24805 155.852 6.16782 152.933 9.73644 152.933C11.5207 152.933 13.1428 153.646 14.3108 154.847C15.5111 156.015 16.2248 157.637 16.2248 159.421Z" fill="#F0D0B4"/>
<path d="M77.8644 130.223V117.246C78.9674 118.317 80.2002 119.258 81.5303 120.069C82.8604 120.912 84.3203 121.561 85.8451 122.08L90.8412 123.735L87.597 131.845L86.7859 133.824C85.326 137.522 81.7574 139.956 77.7671 139.956H68.1318H56.6798C53.7924 139.956 51.0349 139.112 48.6666 137.587C46.9147 136.517 45.39 135.057 44.2221 133.273C42.8919 131.294 42.1782 128.958 42.1782 126.557C42.1782 122.729 43.9625 119.128 47.0121 116.857L55.9012 110.012C56.3229 110.433 56.8095 110.79 57.2962 111.115L61.6434 114.002C61.6434 116.922 62.5518 119.712 64.109 122.048C65.6986 124.383 67.9371 126.265 70.6947 127.336L77.8644 130.223Z" fill="#3BAFDA"/>
<path d="M123.283 117.246V130.223L130.453 127.336C133.211 126.265 135.449 124.383 137.039 122.048C138.596 119.712 139.504 116.922 139.504 114.002L143.852 111.115C144.338 110.79 144.825 110.433 145.247 110.012L154.136 116.857C157.185 119.128 158.97 122.729 158.97 126.557C158.97 128.958 158.256 131.294 156.926 133.273C155.758 135.057 154.233 136.517 152.481 137.587C150.113 139.112 147.355 139.956 144.468 139.956H133.016H123.381C119.39 139.956 115.822 137.522 114.362 133.824L113.551 131.845L110.307 123.735L115.303 122.08C116.827 121.561 118.287 120.912 119.617 120.069C120.948 119.258 122.18 118.317 123.283 117.246Z" fill="#3BAFDA"/>
<path d="M113.551 40.1635C113.551 41.7856 113.161 43.3753 112.448 44.8352L110.307 49.1175H108.392C107.549 49.1175 106.705 49.4744 106.122 50.0583L100.574 55.6059L95.0264 50.0583C94.4424 49.4744 93.5989 49.1175 92.7554 49.1175H90.8414L88.7002 44.8352C87.9865 43.3753 87.5972 41.7856 87.5972 40.1635C87.5972 36.1732 89.8032 32.7343 93.0799 30.9176C94.5722 30.1065 96.2592 29.6523 98.1084 29.6523H100.574H103.04C104.889 29.6523 106.576 30.1065 108.068 30.9176C108.944 31.4042 109.755 32.0206 110.469 32.7343C112.383 34.6484 113.551 37.2438 113.551 40.1635Z" fill="#FCD770"/>
<path d="M85.0015 26.4082C85.9099 26.4082 86.7859 26.538 87.5969 26.7975C89.8678 27.4139 91.8144 28.8738 93.0796 30.9176C89.8029 32.7344 87.5969 36.1732 87.5969 40.1636C87.5969 41.7857 87.9862 43.3753 88.6999 44.8352L90.8411 49.1176H77.8643L76.2098 45.7761C75.1716 43.6998 74.6201 41.4288 74.6201 39.093V38.1522C74.6201 34.7782 75.9502 31.5665 78.3509 29.1658C80.1028 27.4139 82.5035 26.4082 85.0015 26.4082Z" fill="#FCD770"/>
<path d="M113.551 40.1636C113.551 37.2438 112.383 34.6485 110.469 32.7344C109.755 32.0207 108.944 31.4043 108.068 30.9176C109.333 28.8738 111.28 27.4139 113.551 26.7975C114.362 26.538 115.238 26.4082 116.146 26.4082C118.644 26.4082 121.045 27.4139 122.797 29.1658C125.197 31.5665 126.527 34.7782 126.527 38.1522V39.093C126.527 41.4288 125.976 43.6998 124.938 45.7761L123.283 49.1176H110.306L112.448 44.8352C113.161 43.3753 113.551 41.7857 113.551 40.1636Z" fill="#FCD770"/>
<path d="M113.551 26.7662V26.7986C111.28 27.415 109.333 28.8749 108.068 30.9188C106.576 30.1077 104.889 29.6535 103.04 29.6535H100.574H98.1084C96.2592 29.6535 94.5722 30.1077 93.0799 30.9188C91.8146 28.8749 89.8681 27.415 87.5972 26.7986V26.7662L89.349 21.1213C90.2574 18.4611 92.723 16.6768 95.513 16.6768H100.574H105.635C108.425 16.6768 110.89 18.4611 111.799 21.1213L113.551 26.7662Z" fill="#FFEAA7"/>
<path d="M100.574 16.676C104.157 16.676 107.062 13.7711 107.062 10.1876C107.062 6.60417 104.157 3.69922 100.574 3.69922C96.9904 3.69922 94.0854 6.60417 94.0854 10.1876C94.0854 13.7711 96.9904 16.676 100.574 16.676Z" fill="#FFC729"/>
<path d="M129.772 49.1172L126.528 58.8498L123.284 68.5824H77.8649L74.6207 58.8498L71.3765 49.1172H77.8649H90.8416H92.7557C93.5992 49.1172 94.4427 49.4741 95.0267 50.058L100.574 55.6056L106.122 50.058C106.706 49.4741 107.549 49.1172 108.393 49.1172H110.307H123.284H129.772Z" fill="#FFEAA7"/>
<path d="M77.8647 88.0493C77.8647 89.1524 77.9296 90.2554 78.1242 91.2935H78.0918C74.1339 93.2725 71.3763 97.3602 71.3763 101.805V101.999C71.3763 105.406 72.1874 108.715 73.7121 111.667H73.7446C74.7178 113.614 76.0155 115.398 77.5727 116.955L77.8647 117.247V130.224L70.695 127.337C67.9375 126.266 65.699 124.384 64.1093 122.049C62.5521 119.713 61.6437 116.923 61.6437 114.003L57.2965 111.116C56.8099 110.791 56.3232 110.434 55.9015 110.013C53.371 107.742 51.9111 104.497 51.9111 101.026C51.9111 96.9709 53.9225 93.1752 57.2965 90.9367L61.6437 88.0493L59.0808 80.3606C58.6266 78.998 58.3995 77.5706 58.3995 76.1431C58.3995 71.4715 60.8651 67.0918 64.8879 64.6911L74.6205 58.8516L77.8647 68.5842V88.0493Z" fill="#B27946"/>
<path d="M149.237 101.026C149.237 104.497 147.777 107.742 145.247 110.013C144.825 110.434 144.338 110.791 143.852 111.116L139.504 114.003C139.504 116.923 138.596 119.713 137.039 122.049C135.449 124.384 133.211 126.266 130.453 127.337L123.283 130.224V117.247L123.575 116.955C125.133 115.398 126.43 113.614 127.436 111.667C128.961 108.715 129.772 105.406 129.772 101.999V101.805C129.772 97.3602 127.014 93.2725 123.056 91.2935H123.024C123.219 90.2554 123.283 89.1524 123.283 88.0493V68.5842L126.528 58.8516L136.26 64.6911C140.283 67.0918 142.749 71.4715 142.749 76.1431C142.749 77.5706 142.522 78.998 142.067 80.3606L139.504 88.0493L143.852 90.9367C147.226 93.1752 149.237 96.9709 149.237 101.026Z" fill="#B27946"/>
<path d="M82.9906 102.387C80.4277 99.2721 78.6758 95.4764 78.1243 91.2914C77.9296 90.2533 77.8647 89.1502 77.8647 88.0472V68.582H123.283V88.0472C123.283 89.1502 123.219 90.2533 123.024 91.2914C122.472 95.4764 120.721 99.2721 118.158 102.387C117.703 102.97 117.217 103.522 116.698 104.041L112.999 96.6768C111.345 93.3677 107.971 91.2914 104.305 91.2914H96.8433C93.1773 91.2914 89.8034 93.3677 88.1488 96.6768L84.4505 104.041C83.9314 103.522 83.4448 102.97 82.9906 102.387Z" fill="#F0D0B4"/>
<path d="M116.697 104.043C114.459 106.281 111.799 108.065 108.782 109.233C106.251 110.207 103.494 110.758 100.574 110.758C97.6541 110.758 94.8965 110.207 92.366 109.233L84.5151 104.108C84.4826 104.075 84.4826 104.075 84.4502 104.043L88.1486 96.6783C89.8031 93.3693 93.1771 91.293 96.843 91.293H104.305C107.971 91.293 111.345 93.3693 112.999 96.6783L116.697 104.043Z" fill="#CF9E76"/>
<path d="M90.8414 84.8038C92.6331 84.8038 94.0856 83.3513 94.0856 81.5596C94.0856 79.7679 92.6331 78.3154 90.8414 78.3154C89.0496 78.3154 87.5972 79.7679 87.5972 81.5596C87.5972 83.3513 89.0496 84.8038 90.8414 84.8038Z" fill="black"/>
<path d="M110.306 84.8038C112.098 84.8038 113.55 83.3513 113.55 81.5596C113.55 79.7679 112.098 78.3154 110.306 78.3154C108.514 78.3154 107.062 79.7679 107.062 81.5596C107.062 83.3513 108.514 84.8038 110.306 84.8038Z" fill="black"/>
<path d="M156.102 114.284L149.908 109.509C151.553 107.03 152.481 104.097 152.481 101.025C152.481 95.8734 149.921 91.0947 145.639 88.2398L143.365 86.7247L145.14 81.3978C145.707 79.7043 145.993 77.9362 145.993 76.1487C145.993 70.348 142.904 64.8945 137.931 61.9099L130.427 57.4069L134.271 45.8738H128.435C129.298 43.7197 129.772 41.4098 129.772 39.0967V38.1656C129.772 33.9027 128.111 29.8897 125.094 26.8758C122.699 24.4816 119.52 23.1644 116.133 23.1644C116.033 23.1644 115.932 23.1807 115.828 23.1839L114.861 20.0857C113.956 17.3671 111.925 15.2875 109.401 14.2202C109.969 12.9907 110.307 11.6313 110.307 10.1877C110.307 4.82177 105.94 0.455078 100.574 0.455078C95.2081 0.455078 90.8414 4.82177 90.8414 10.1877C90.8414 11.6313 91.1788 12.9907 91.7433 14.2234C89.2193 15.294 87.1852 17.3865 86.2638 20.1473L85.3165 23.1839C85.216 23.1807 85.1154 23.1644 85.0148 23.1644C81.6311 23.1644 78.4486 24.4816 76.0544 26.8758C73.0372 29.8929 71.3762 33.9027 71.3762 38.1689V39.0999C71.3762 41.413 71.8499 43.7229 72.7128 45.8771H66.8765L70.7209 57.4102L63.2203 61.9131C58.2437 64.8913 55.1552 70.348 55.1552 76.1487C55.1552 77.9395 55.4407 79.7043 56.0085 81.401L57.783 86.728L55.5089 88.243C51.2265 91.0947 48.6668 95.8734 48.6668 101.025C48.6668 104.097 49.5947 107.03 51.2395 109.509L45.082 114.258C41.2312 117.142 38.9343 121.739 38.9343 126.554C38.9343 129.597 39.8264 132.546 41.5134 135.076C42.597 136.702 43.9336 138.09 45.4227 139.264V156.176H32.4459V121.473L39.5896 110.758L33.4581 101.56C40.5726 97.7226 45.4227 90.196 45.4227 81.56C45.4227 71.9993 39.476 63.8142 31.093 60.4727C31.93 59.0355 32.4459 57.3875 32.4459 55.6064C32.4459 51.3825 29.724 47.8138 25.9575 46.4707V39.3854H32.4459V32.897H25.9575V26.4086H19.4691V32.897H12.9807V39.3854H19.4691V46.4707C15.7026 47.8138 12.9807 51.3825 12.9807 55.6064C12.9807 57.3875 13.4965 59.0355 14.3335 60.4727C5.95052 63.8142 0.00390625 71.9993 0.00390625 81.56C0.00390625 90.196 4.85398 97.7226 11.9685 101.56L5.83697 110.758L12.9807 121.473V150.288C11.962 149.922 10.8785 149.688 9.7365 149.688C4.37059 149.688 0.00390625 154.055 0.00390625 159.421V172.397C0.00390625 177.763 4.37059 182.13 9.7365 182.13C10.8785 182.13 11.962 181.896 12.9807 181.533V201.595H32.4459V182.13H51.911C56.9006 182.13 61.4393 180.229 64.8878 177.134V201.595H133.016H136.26H155.725V139.264C157.214 138.09 158.551 136.702 159.635 135.076C161.322 132.546 162.214 129.597 162.214 126.554C162.214 121.739 159.917 117.142 156.102 114.284ZM134.593 67.4737C137.623 69.2904 139.504 72.6125 139.504 76.1487C139.504 77.2387 139.329 78.3125 138.985 79.3474L135.644 89.3752L142.038 93.6381C144.513 95.2862 145.993 98.0502 145.993 101.025C145.993 104 144.513 106.764 142.038 108.412L136.26 112.266V114.002C136.26 118.579 133.512 122.638 129.262 124.338L126.528 125.431V118.521C130.703 113.999 133.016 108.169 133.016 101.791C133.016 96.9699 130.495 92.3794 126.45 89.5569C126.479 89.0541 126.528 88.5577 126.528 88.0484V69.1087L128.325 63.7137L134.593 67.4737ZM74.6204 101.791C74.6204 100.081 75.2401 98.4428 76.2587 97.038C76.9141 98.8029 77.7446 100.48 78.7503 102.041L75.0551 105.736C74.7859 104.461 74.6204 103.15 74.6204 101.791ZM110.307 40.1511C110.307 41.2703 110.041 42.3928 109.541 43.3953L108.295 45.8836C106.605 45.9128 105.019 46.5746 103.818 47.7749L100.574 51.0191L97.3298 47.7749C96.1294 46.5746 94.543 45.9128 92.8528 45.8836L91.607 43.3953C91.1042 42.3928 90.8414 41.2703 90.8414 40.1511C90.8414 36.151 94.0953 32.897 98.0954 32.897H103.053C107.053 32.897 110.307 36.151 110.307 40.1511ZM92.7425 52.3622L100.574 60.1937L108.405 52.3622H125.272L120.948 65.339H80.2037L75.8792 52.3622H92.7425ZM114.219 110.083C115.65 109.194 116.986 108.172 118.213 107.03L123.339 112.156C122.725 113.038 122.054 113.888 121.278 114.664C120.863 115.079 120.419 115.459 119.968 115.828L114.219 110.083ZM100.574 107.514C96.0029 107.514 91.8049 105.921 88.4796 103.273L91.0555 98.1248C92.1585 95.9123 94.3841 94.5368 96.8561 94.5368H104.292C106.764 94.5368 108.989 95.9123 110.096 98.1216L112.672 103.27C109.343 105.921 105.145 107.514 100.574 107.514ZM81.1802 115.828C80.726 115.459 80.2815 115.076 79.8695 114.664C79.0942 113.888 78.4226 113.038 77.8095 112.156L82.9321 107.033C84.1584 108.175 85.495 109.197 86.9257 110.086L81.1802 115.828ZM120.039 71.8274V88.0484C120.039 91.6819 119.02 95.072 117.282 97.9853L115.9 95.2213C113.687 90.7962 109.236 88.0484 104.292 88.0484H96.8561C91.912 88.0484 87.461 90.7962 85.2484 95.2213L83.8664 97.9853C82.1275 95.072 81.1088 91.6819 81.1088 88.0484V71.8274H120.039ZM126.112 105.752L122.401 102.041C123.403 100.483 124.234 98.8126 124.886 97.051C125.905 98.4784 126.528 100.169 126.528 101.989C126.528 103.273 126.372 104.529 126.112 105.752ZM93.2518 112.935C94.569 113.324 95.9315 113.603 97.3298 113.778V122.479L87.1138 119.073L93.2518 112.935ZM110.307 182.13H90.8414V175.642H110.307V182.13ZM110.307 169.153H90.8414V156.176H110.307V169.153ZM110.307 149.688H90.8414V143.2H110.307V149.688ZM90.8414 188.618H110.307V195.107H90.8414V188.618ZM110.307 132.471V136.711H90.8414V132.474L92.7198 127.78L100.574 130.398L108.431 127.78L110.307 132.471ZM103.818 122.476V113.775C105.213 113.6 106.576 113.321 107.896 112.931L114.034 119.069L103.818 122.476ZM123.283 38.1689V39.0999C123.283 40.9102 122.855 42.7205 122.047 44.3426L121.278 45.8738H115.526C116.344 44.083 116.795 42.117 116.795 40.1511C116.795 36.4397 115.303 33.0787 112.902 30.6034C113.865 30.0065 114.975 29.6528 116.133 29.6528C117.758 29.6528 119.355 30.3147 120.506 31.4631C122.297 33.2539 123.283 35.6351 123.283 38.1689ZM100.574 6.94347C102.362 6.94347 103.818 8.40011 103.818 10.1877C103.818 11.9752 102.362 13.4319 100.574 13.4319C98.7864 13.4319 97.3298 11.9752 97.3298 10.1877C97.3298 8.40011 98.7864 6.94347 100.574 6.94347ZM92.4408 22.1393C92.882 20.8124 94.118 19.9203 95.5163 19.9203H105.628C107.027 19.9203 108.266 20.8124 108.688 22.0809L109.603 25.0104C108.659 25.5781 107.796 26.2691 107.023 27.064C105.758 26.6779 104.444 26.4086 103.053 26.4086H98.0954C96.7037 26.4086 95.3898 26.6779 94.1245 27.064C93.3557 26.2691 92.4894 25.5781 91.5454 25.0104L92.4408 22.1393ZM79.1007 44.3393C78.2896 42.7172 77.8646 40.9037 77.8646 39.0967V38.1656C77.8646 35.6351 78.8509 33.2539 80.6416 31.4631C81.7933 30.3147 83.3862 29.6528 85.0148 29.6528C86.1762 29.6528 87.2825 30.0065 88.2493 30.6034C85.8486 33.0787 84.3562 36.4397 84.3562 40.1511C84.3562 42.1203 84.8072 44.083 85.6247 45.8738H79.8728L79.1007 44.3393ZM59.1099 93.6381L65.5042 89.3752L62.1627 79.3474C61.8188 78.3158 61.6436 77.2387 61.6436 76.1487C61.6436 72.6157 63.5253 69.2904 66.5553 67.4737L72.8199 63.7137L74.6204 69.1087V88.0484C74.6204 88.5577 74.6691 89.0541 74.6983 89.5569C70.6528 92.3826 68.132 96.9959 68.132 101.989C68.132 108.179 70.4451 113.999 74.6204 118.521V125.431L71.8856 124.338C67.6357 122.638 64.8878 118.579 64.8878 114.002V112.266L59.1099 108.412C56.6346 106.764 55.1552 104 55.1552 101.025C55.1552 98.0502 56.6346 95.2862 59.1099 93.6381ZM49.0075 119.423L55.9241 114.09L58.487 115.799C59.1391 122.294 63.3047 127.897 69.4719 130.362L81.1088 135.015V123.511C82.3059 124.147 83.5355 124.721 84.8234 125.149L86.5526 125.726L83.7918 132.633C82.799 135.109 80.434 136.711 77.764 136.711H56.693C52.7545 136.711 49.0983 134.755 46.9117 131.478C45.9385 130.015 45.4227 128.312 45.4227 126.554C45.4227 123.773 46.7495 121.116 49.0075 119.423ZM22.7133 67.7754C24.2413 70.5881 25.9575 75.1202 25.9575 81.56C25.9575 87.6169 24.4392 91.9901 22.989 94.832C21.3442 91.4126 19.4691 86.4425 19.4691 81.56C19.4691 75.1202 21.1853 70.5881 22.7133 67.7754ZM38.9343 81.56C38.9343 88.1003 35.0218 93.716 29.432 96.2821C31.0249 92.7103 32.4459 87.8537 32.4459 81.56C32.4459 75.2662 31.0249 70.4097 29.432 66.8378C35.0218 69.404 38.9343 75.0197 38.9343 81.56ZM19.4691 55.6064C19.4691 53.8189 20.9257 52.3622 22.7133 52.3622C24.5008 52.3622 25.9575 53.8189 25.9575 55.6064C25.9575 57.394 24.5008 58.8506 22.7133 58.8506C20.9257 58.8506 19.4691 57.394 19.4691 55.6064ZM6.4923 81.56C6.4923 75.0197 10.4048 69.404 15.9945 66.8378C14.4016 70.4097 12.9807 75.2662 12.9807 81.56C12.9807 87.127 14.8429 92.5805 16.6531 96.5806C10.7065 94.1734 6.4923 88.3598 6.4923 81.56ZM22.7133 104.269C24.2381 104.269 25.7271 104.114 27.1708 103.825L31.7905 110.758L27.466 117.246H17.9605L13.636 110.758L18.259 103.825C19.6994 104.114 21.1885 104.269 22.7133 104.269ZM9.7365 175.642C7.94894 175.642 6.4923 174.185 6.4923 172.397V159.421C6.4923 157.633 7.94894 156.176 9.7365 156.176C11.524 156.176 12.9807 157.633 12.9807 159.421V172.397C12.9807 174.185 11.524 175.642 9.7365 175.642ZM19.4691 195.107V123.735H25.9575V195.107H19.4691ZM32.4459 162.665H38.9343V175.642H32.4459V162.665ZM51.911 175.642H45.4227V162.665C49.001 162.665 51.911 159.755 51.911 156.176V142.548C53.452 142.966 55.0547 143.2 56.693 143.2H64.8878V162.665C64.8878 169.822 59.0677 175.642 51.911 175.642ZM71.3762 143.2H77.764C80.1518 143.2 82.4 142.528 84.353 141.376V195.107H71.3762V143.2ZM116.795 195.107V141.376C118.748 142.528 120.996 143.2 123.384 143.2H129.772V195.107H116.795ZM136.26 175.642H149.237V182.13H136.26V175.642ZM136.26 195.107V188.618H149.237V195.107H136.26ZM149.237 169.153H136.26V143.2H144.455C146.093 143.2 147.696 142.966 149.237 142.548V169.153ZM154.236 131.478C152.05 134.755 148.393 136.711 144.455 136.711H123.384C120.714 136.711 118.349 135.109 117.359 132.633L114.595 125.723L116.321 125.149C117.606 124.721 118.839 124.147 120.036 123.511V135.015L131.666 130.362C137.834 127.897 142.002 122.294 142.654 115.799L145.217 114.09L152.17 119.449C154.398 121.116 155.725 123.773 155.725 126.554C155.725 128.312 155.21 130.015 154.236 131.478Z" fill="black"/>
</svg>
