<svg width="512" height="512" viewBox="0 0 512 512" fill="none" xmlns="http://www.w3.org/2000/svg">
<g clip-path="url(#clip0)">
<path d="M424.339 408.307H87.6623C72.6383 418.323 63.6143 435.185 63.6143 453.242V504.5H448.388V453.241C448.387 435.185 439.363 418.323 424.339 408.307Z" fill="#E5646E"/>
<path d="M424.34 408.307H271.056L257.457 416.323H254.545L240.946 408.307H87.6626C80.3156 413.205 74.4326 419.755 70.3086 427.266L78.7316 430.635L231.612 491.787C239.402 494.904 247.609 496.484 256.002 496.484C264.395 496.484 272.602 494.903 280.394 491.786L433.272 430.635L441.695 427.266C437.57 419.755 431.687 413.204 424.34 408.307Z" fill="#DB4655"/>
<path d="M352.195 432.355H159.808L191.872 336.162H320.13L352.195 432.355Z" fill="#FFC269"/>
<path d="M181.231 368.081C202.295 383.243 228.065 392.273 256.001 392.273C283.937 392.273 309.707 383.243 330.771 368.081L320.13 336.16H191.871L181.231 368.081Z" fill="#FFA95F"/>
<path d="M368.228 70.9783C354.946 81.2723 336.518 87.6613 316.121 87.6613C291.218 87.6613 269.252 78.1373 256 63.6133C242.748 78.1383 220.782 87.6613 195.879 87.6613C175.475 87.6613 157.043 81.2683 143.759 70.9683L135.758 87.6643V119.726L143.774 127.742H368.226L376.242 119.726V87.6653L368.228 70.9783Z" fill="#FFF0A0"/>
<path d="M151.791 231.951V264.015C151.791 321.568 198.447 368.225 256.001 368.225C313.555 368.225 360.211 321.569 360.211 264.015V231.951H151.791Z" fill="#966A5B"/>
<path d="M183.855 264.017V231.953H151.79V264.017C151.79 321.57 198.446 368.227 256 368.227C261.467 368.227 266.793 367.68 272.032 366.868C222.111 359.139 183.855 316.103 183.855 264.017Z" fill="#785353"/>
<path d="M371.091 199.888H360.21V143.775H151.791V199.888H140.91C130.427 199.888 120.875 207.43 119.831 217.861C118.63 229.857 128.017 239.969 139.768 239.969H148.225C151.089 239.969 153.696 241.524 155.131 244.003C159.279 251.165 166.966 256.002 175.841 256.002H231.956L256 247.984L280.046 256H336.162C345.037 256 352.724 251.163 356.872 244.001C358.308 241.522 360.914 239.967 363.778 239.967H372.235C383.985 239.967 393.373 229.855 392.171 217.859C391.126 207.43 381.574 199.887 371.091 199.888Z" fill="#FFE09F"/>
<path d="M151.791 143.775V199.888H140.91C130.427 199.888 120.875 207.43 119.831 217.861C118.63 229.857 128.017 239.969 139.768 239.969H148.224C151.089 239.969 153.695 241.524 155.131 244.003C159.279 251.164 166.966 256.001 175.84 256.001H183.856V191.872C183.856 183.018 191.034 175.84 199.888 175.84H344.178V143.775H151.791Z" fill="#F6D190"/>
<path d="M256 7.5L231.952 47.581L256 87.662L280.049 47.581L256 7.5Z" fill="#FFE07D"/>
<path d="M256 247.984H231.952C218.67 247.984 207.904 258.751 207.904 272.032H231.952C245.233 272.033 256 261.266 256 247.984Z" fill="#785353"/>
<path d="M256 247.984H280.048C293.33 247.984 304.096 258.751 304.096 272.032H280.048C266.767 272.033 256 261.266 256 247.984Z" fill="#785353"/>
<path d="M247.984 440.371L194.493 353.448C189.066 344.628 176.825 343.191 169.502 350.514L135.758 384.258L231.952 440.371H247.984Z" fill="#FFD064"/>
<path d="M151.791 199.888H135.759V151.791L167.824 143.775V183.856C167.823 192.71 160.645 199.888 151.791 199.888Z" fill="#785353"/>
<path d="M360.211 199.888H376.243V151.791L344.178 143.775V183.856C344.179 192.71 351.357 199.888 360.211 199.888Z" fill="#966A5B"/>
<path d="M264.017 440.371L317.508 353.448C322.935 344.628 335.176 343.191 342.499 350.514L376.243 384.258L280.049 440.371H264.017Z" fill="#FFD064"/>
<path d="M398.199 382.167C390.093 374.061 377.392 372.803 367.855 379.162L264.017 440.372H247.985L144.147 379.162C134.609 372.804 121.909 374.061 113.803 382.167L87.6631 408.307L240.543 469.459C245.46 471.426 250.706 472.436 256.002 472.436C261.297 472.436 266.544 471.426 271.461 469.459L424.341 408.307L398.199 382.167Z" fill="#FFE07D"/>
<path d="M256 472.436C269.281 472.436 280.048 461.669 280.048 448.388C280.048 435.107 269.281 424.34 256 424.34C242.719 424.34 231.952 435.107 231.952 448.388C231.952 461.669 242.719 472.436 256 472.436Z" fill="#FFF5D7"/>
<path d="M256 456.403C260.427 456.403 264.016 452.814 264.016 448.387C264.016 443.96 260.427 440.371 256 440.371C251.573 440.371 247.984 443.96 247.984 448.387C247.984 452.814 251.573 456.403 256 456.403Z" fill="white"/>
<path d="M183.855 119.726V86.8387C168.294 84.8637 154.369 79.1958 143.76 70.9688L135.759 87.6647V151.791H376.243V119.726H183.855Z" fill="#FFE07D"/>
<path d="M135.758 7.5V87.662L167.823 47.581L135.758 7.5Z" fill="#FFD064"/>
<path d="M376.243 87.662V7.5L344.179 47.581L376.243 87.662Z" fill="#FFE07D"/>
<path d="M207.904 200.404C203.762 200.404 200.404 203.762 200.404 207.904V215.92C200.404 220.062 203.762 223.42 207.904 223.42C212.046 223.42 215.404 220.062 215.404 215.92V207.904C215.404 203.762 212.046 200.404 207.904 200.404Z" fill="black"/>
<path d="M304.098 200.404C299.956 200.404 296.598 203.762 296.598 207.904V215.92C296.598 220.062 299.956 223.42 304.098 223.42C308.24 223.42 311.598 220.062 311.598 215.92V207.904C311.598 203.762 308.24 200.404 304.098 200.404Z" fill="black"/>
<path d="M199.888 191.355H215.92C220.062 191.355 223.42 187.998 223.42 183.855C223.42 179.713 220.062 176.355 215.92 176.355H199.888C195.746 176.355 192.388 179.713 192.388 183.855C192.388 187.998 195.746 191.355 199.888 191.355Z" fill="black"/>
<path d="M296.081 191.355H312.113C316.255 191.355 319.613 187.998 319.613 183.855C319.613 179.713 316.255 176.355 312.113 176.355H296.081C291.939 176.355 288.581 179.713 288.581 183.855C288.581 187.998 291.939 191.355 296.081 191.355Z" fill="black"/>
<path d="M239.969 303.582H272.033C276.175 303.582 279.533 300.224 279.533 296.082C279.533 291.94 276.175 288.582 272.033 288.582H239.969C235.827 288.582 232.469 291.94 232.469 296.082C232.469 300.224 235.827 303.582 239.969 303.582Z" fill="black"/>
<path d="M429.162 402.523L403.503 376.865C395.048 368.41 382.681 365.652 371.693 369.103L348.155 345.565C345.312 342.723 341.88 340.711 338.163 339.619C356.496 319.71 367.711 293.151 367.711 264.017V247.469H372.235C387.421 247.469 399.776 235.115 399.776 219.929C399.776 208.85 393.197 199.284 383.743 194.917V7.50048C383.743 4.31548 381.731 1.47748 378.725 0.423477C375.72 -0.631523 372.376 0.328477 370.386 2.81548L338.322 42.8965C336.131 45.6355 336.131 49.5275 338.322 52.2665L349.895 66.7335C344.293 73.7985 330.607 80.1615 312.114 80.1615C295.11 80.1615 282.414 74.7375 276.131 68.6895L286.481 51.4395C287.906 49.0645 287.906 46.0965 286.481 43.7215L262.433 3.64148C261.076 1.38348 258.634 0.000477203 256 0.000477203C253.366 0.000477203 250.924 1.38248 249.569 3.64248L225.521 43.7225C224.096 46.0975 224.096 49.0655 225.521 51.4405L235.877 68.7005C228.77 75.5785 214.738 80.1625 199.888 80.1625C185.796 80.1625 168.857 75.4875 162.087 66.7585L173.68 52.2665C175.871 49.5275 175.871 45.6355 173.68 42.8965L141.615 2.81548C139.626 0.329477 136.283 -0.630523 133.276 0.423477C130.27 1.47748 128.258 4.31548 128.258 7.50048V194.916C118.804 199.283 112.225 208.849 112.225 219.928C112.225 235.114 124.579 247.468 139.766 247.468H144.29V264.016C144.29 293.149 155.505 319.71 173.838 339.618C170.12 340.71 166.689 342.721 163.846 345.564L140.308 369.102C129.319 365.65 116.953 368.408 108.498 376.863L82.8393 402.522C66.0913 414.003 56.1133 432.898 56.1133 453.241V504.5C56.1133 508.642 59.4713 512 63.6133 512C67.7553 512 71.1133 508.642 71.1133 504.5V453.241C71.1133 438.897 77.6843 425.514 88.8383 416.732L232.849 469.789C236.986 474.261 242.397 477.534 248.501 479.027V504.5C248.501 508.642 251.859 512 256.001 512C260.143 512 263.501 508.642 263.501 504.5V479.027C269.605 477.534 275.016 474.26 279.153 469.789L423.164 416.732C434.318 425.514 440.889 438.897 440.889 453.241V504.5C440.889 508.642 444.247 512 448.389 512C452.531 512 455.889 508.642 455.889 504.5V453.241C455.887 432.899 445.909 414.004 429.162 402.523ZM270.372 420.317C266.059 418.1 261.175 416.839 256 416.839C250.825 416.839 245.942 418.099 241.628 420.317L209.77 365.703C223.865 372.137 239.521 375.727 256 375.727C272.479 375.727 288.134 372.137 302.23 365.703L270.372 420.317ZM351.677 159.29H368.741V192.387H360.209C355.504 192.387 351.677 188.559 351.677 183.854V159.29ZM368.742 28.8815V66.2805L353.782 47.5805L368.742 28.8815ZM256 22.0785L271.302 47.5815L256 73.0845L240.698 47.5815L256 22.0785ZM199.887 95.1625C217.344 95.1625 233.404 90.0915 243.707 81.7515L249.569 91.5215C250.924 93.7805 253.366 95.1625 256 95.1625C258.634 95.1625 261.076 93.7805 262.431 91.5215L268.276 81.7785C278.555 90.1795 294.456 95.1625 312.112 95.1625C331.938 95.1625 349.531 88.7725 359.388 78.6025L368.741 90.2925V112.226H344.175C340.033 112.226 336.675 115.584 336.675 119.726C336.675 123.869 340.033 127.226 344.175 127.226H368.741V144.29H143.259V127.226H312.11C316.252 127.226 319.61 123.869 319.61 119.726C319.61 115.584 316.252 112.226 312.11 112.226H143.259V90.2925L152.604 78.6115C162.444 88.7875 179.995 95.1625 199.887 95.1625ZM160.323 159.29V183.854C160.323 188.559 156.495 192.387 151.791 192.387H143.259V159.29H160.323ZM143.259 28.8815L158.219 47.5815L143.259 66.2815V28.8815ZM159.291 258.803C164.105 261.781 169.774 263.5 175.839 263.5C179.981 263.5 183.339 260.142 183.339 256C183.339 251.858 179.981 248.5 175.839 248.5C166.714 248.5 159.291 241.076 159.291 231.952C159.291 227.81 155.933 224.452 151.791 224.452C147.649 224.452 144.291 227.81 144.291 231.952V232.468H139.767C132.852 232.468 127.226 226.843 127.226 219.928C127.226 213.013 132.851 207.387 139.767 207.387H151.791C164.767 207.387 175.323 196.83 175.323 183.854V159.29H336.677V183.854C336.677 196.83 347.234 207.387 360.209 207.387H372.233C379.148 207.387 384.774 213.012 384.774 219.928C384.774 226.843 379.149 232.468 372.233 232.468H367.709V231.952C367.709 227.81 364.351 224.452 360.209 224.452C356.067 224.452 352.709 227.81 352.709 231.952C352.709 241.077 345.286 248.5 336.161 248.5H301.031C295.451 243.519 288.099 240.484 280.048 240.484H231.951C214.555 240.484 200.403 254.637 200.403 272.033C200.403 276.174 203.761 279.533 207.903 279.533H231.951C241.579 279.533 250.208 275.193 255.999 268.371C261.791 275.193 270.419 279.533 280.047 279.533H304.095C308.237 279.533 311.595 276.174 311.595 272.033C311.595 269.076 311.177 266.216 310.413 263.5H336.16C342.225 263.5 347.894 261.78 352.708 258.803V264.016C352.708 317.342 309.324 360.725 255.998 360.725C202.672 360.725 159.289 317.341 159.289 264.016V258.803H159.291ZM294.798 264.533H280.049C273.622 264.533 268.039 260.851 265.3 255.485H280.049C286.475 255.484 292.058 259.166 294.798 264.533ZM246.701 255.484C243.962 260.85 238.379 264.533 231.952 264.533H217.203C219.942 259.167 225.525 255.484 231.952 255.484H246.701ZM101.253 405.322L119.105 387.47C124.664 381.911 133.444 381.043 139.986 385.404L195.727 422.564C199.174 424.861 203.83 423.931 206.127 420.483C208.425 417.037 207.494 412.38 204.047 410.083L153.943 376.68L174.452 356.171C176.338 354.286 178.938 353.401 181.58 353.743C184.225 354.086 186.512 355.602 187.855 357.905L230.126 430.369C226.555 435.482 224.452 441.692 224.452 448.388C224.452 449.182 224.492 449.967 224.549 450.747L101.253 405.322ZM256 464.936C246.875 464.936 239.452 457.512 239.452 448.388C239.452 439.263 246.875 431.84 256 431.84C265.125 431.84 272.548 439.263 272.548 448.388C272.549 457.512 265.125 464.936 256 464.936ZM287.451 450.747C287.509 449.967 287.548 449.184 287.548 448.388C287.548 441.692 285.445 435.482 281.874 430.369L324.145 357.905C325.488 355.602 327.776 354.086 330.42 353.743C333.064 353.401 335.662 354.285 337.548 356.171L358.057 376.68L307.953 410.083C304.506 412.382 303.575 417.037 305.873 420.483C308.171 423.93 312.828 424.861 316.273 422.564L372.014 385.404C378.555 381.044 387.337 381.913 392.895 387.47L410.747 405.322L287.451 450.747Z" fill="black"/>
</g>
<defs>
<clipPath id="clip0">
<rect width="512" height="512" fill="white"/>
</clipPath>
</defs>
</svg>
