<svg width="512" height="512" viewBox="0 0 512 512" fill="none" xmlns="http://www.w3.org/2000/svg">
<g clip-path="url(#clip0)">
<path d="M49.9512 230.828C49.9512 117.212 142.384 24.7793 256 24.7793C369.615 24.7793 462.049 117.212 462.049 230.828H49.9512Z" fill="#E8A882"/>
<path d="M49.9511 230.828C72.0721 298.43 -3.4939 397.342 114.463 429.902H397.537C515.493 397.341 439.927 298.43 462.049 230.828H49.9511Z" fill="#E8A882"/>
<path d="M422.907 294.243C448.203 294.243 468.708 273.737 468.708 248.442C468.708 223.146 448.203 202.641 422.907 202.641C397.612 202.641 377.106 223.146 377.106 248.442C377.106 273.737 397.612 294.243 422.907 294.243Z" fill="#FFCABD"/>
<path d="M121.243 230.828H49.9511C72.0721 298.431 -3.4939 397.342 114.463 429.902H258.417C181.47 394.853 126.765 319.506 121.243 230.828Z" fill="#E3986D"/>
<path d="M120.764 216.007C120.764 139.867 156.996 72.2004 213.149 29.2734C120.03 49.0484 49.9512 131.903 49.9512 230.828H121.243C120.938 225.925 120.764 220.987 120.764 216.007Z" fill="#E3986D"/>
<path d="M153.164 362.297L177.884 445.48L153.164 504.5H87.5225C87.5225 418.779 137.096 376.809 153.144 362.297H153.164Z" fill="#C7C5CB"/>
<path d="M424.478 504.501H358.837L336.866 447.683L358.837 362.297H358.857C374.904 376.81 424.478 418.78 424.478 504.501Z" fill="#C7C5CB"/>
<path d="M131.706 383.427C142.329 392.096 153.866 399.684 166.155 406.013L153.164 362.297H153.144C148.295 366.682 140.384 373.58 131.706 383.427Z" fill="#B2B0BC"/>
<path d="M380.294 383.427C371.616 373.579 363.705 366.682 358.856 362.297H358.836L347.862 404.947C359.396 398.838 370.256 391.619 380.294 383.427Z" fill="#B2B0BC"/>
<path d="M358.856 362.298H358.836V504.501H153.164V362.298H153.144C156.246 359.499 158.095 358.09 158.095 358.09H353.904C353.904 358.09 355.754 359.499 358.856 362.298Z" fill="#FB8978"/>
<path d="M158.096 358.09C158.096 358.09 156.247 359.499 153.145 362.298H153.165V398.682C183.115 417.099 218.337 427.735 256.001 427.735C293.665 427.735 328.887 417.098 358.837 398.682V362.298H358.857C355.755 359.499 353.906 358.09 353.906 358.09H158.096Z" fill="#F67561"/>
<path d="M193.203 352.191V409.335C193.203 428.082 208.4 443.279 227.147 443.279H284.853C303.6 443.279 318.797 428.082 318.797 409.335V352.191H193.203Z" fill="#C7C5CB"/>
<path d="M193.203 409.334C193.203 412.262 193.574 415.103 194.271 417.813C213.696 424.242 234.447 427.734 256 427.734C277.553 427.734 298.304 424.242 317.729 417.813C318.426 415.103 318.797 412.262 318.797 409.334V352.191H193.203V409.334Z" fill="#B2B0BC"/>
<path d="M129.473 121.979C104.309 151.203 89.0928 189.237 89.0928 230.827C89.0928 323.007 163.82 397.734 256 397.734C348.18 397.734 422.907 323.007 422.907 230.827C422.907 189.237 407.691 151.202 382.527 121.979H129.473Z" fill="#FFDCCE"/>
<path d="M192.915 385.387C148.446 342.642 120.764 282.56 120.764 216.007C120.764 182.57 127.765 150.773 140.356 121.979H129.472C110.106 144.469 96.642 172.181 91.461 202.713C90.676 202.672 89.888 202.64 89.093 202.64C63.798 202.64 43.292 223.146 43.292 248.441C43.292 273.736 63.798 294.242 89.093 294.242C93.189 294.242 97.158 293.7 100.937 292.691C117.714 334.698 151.07 368.29 192.915 385.387Z" fill="#FFCABD"/>
<path d="M156.484 282.416C176.764 282.416 193.204 269.324 193.204 253.174C193.204 237.024 176.764 223.932 156.484 223.932C136.204 223.932 119.764 237.024 119.764 253.174C119.764 269.324 136.204 282.416 156.484 282.416Z" fill="#FFB2C1"/>
<path d="M355.516 282.416C375.796 282.416 392.236 269.324 392.236 253.174C392.236 237.024 375.796 223.932 355.516 223.932C335.236 223.932 318.796 237.024 318.796 253.174C318.796 269.324 335.236 282.416 355.516 282.416Z" fill="#FFB2C1"/>
<path d="M256 265.205L183.2 291.394C183.2 291.394 188.024 319.615 206.259 342.422C231.88 374.47 280.121 374.47 305.742 342.422C323.976 319.614 328.801 291.394 328.801 291.394L256 265.205Z" fill="#E3986D"/>
<path d="M256 286.448C230.583 318.219 193.134 305.053 173.383 294.619C168.593 292.089 168.251 285.436 172.69 282.33C184.012 274.408 190.604 257.061 199.956 248.345C214.485 234.804 239.516 226.578 256 241.523C272.484 226.577 297.515 234.804 312.044 248.345C321.396 257.061 327.988 274.408 339.31 282.33C343.749 285.436 343.407 292.089 338.617 294.619C318.866 305.053 281.417 318.219 256 286.448Z" fill="#E8A882"/>
<path d="M441.357 64.3015C431.08 58.6185 418.463 59.5435 409.037 66.5475C393.96 77.7505 367.49 91.3145 334.116 83.2995C309.126 77.2975 294.584 49.7385 287.124 29.5755C282.748 17.7495 272.202 9.07947 259.668 7.70147C244.476 6.03147 230.248 14.8865 225.103 28.9585C217.713 49.1725 203.13 77.2365 177.884 83.2995C144.511 91.3145 118.041 77.7505 102.963 66.5475C93.5366 59.5435 80.9196 58.6185 70.6426 64.3015C60.0046 70.1845 54.0036 81.9375 55.4776 94.0045L58.7176 120.529C61.3256 141.877 79.4506 157.923 100.958 157.923H411.043C432.549 157.923 450.675 141.877 453.283 120.529L456.523 94.0045C457.996 81.9375 451.996 70.1835 441.357 64.3015Z" fill="#F8D070"/>
<path d="M256 121.979C266.518 121.979 275.044 110.484 275.044 96.3039C275.044 82.124 266.518 70.6289 256 70.6289C245.482 70.6289 236.956 82.124 236.956 96.3039C236.956 110.484 245.482 121.979 256 121.979Z" fill="#FB8978"/>
<path d="M160.216 85.6746C135.169 86.4036 115.269 75.6916 102.962 66.5466C93.5357 59.5426 80.9187 58.6176 70.6417 64.3006C60.0037 70.1836 54.0027 81.9366 55.4767 94.0036L58.7167 120.529C61.3247 141.876 79.4507 157.923 100.957 157.923H128.007C134.647 131.818 145.66 107.463 160.216 85.6746Z" fill="#F2C13B"/>
<path d="M177.884 232.527C182.026 232.527 185.384 229.169 185.384 225.027V210.016C185.384 205.874 182.026 202.516 177.884 202.516C173.742 202.516 170.384 205.874 170.384 210.016V225.027C170.384 229.169 173.742 232.527 177.884 232.527Z" fill="black"/>
<path d="M326.616 225.027C326.616 229.169 329.974 232.527 334.116 232.527C338.258 232.527 341.616 229.169 341.616 225.027V210.016C341.616 205.874 338.258 202.516 334.116 202.516C329.974 202.516 326.616 205.874 326.616 210.016V225.027Z" fill="black"/>
<path d="M256 129.48C270.884 129.48 282.544 114.908 282.544 96.3059C282.544 77.7039 270.884 63.1309 256 63.1309C241.116 63.1309 229.456 77.7029 229.456 96.3049C229.456 114.907 241.116 129.48 256 129.48ZM256 78.1309C262.15 78.1309 267.544 86.6239 267.544 96.3049C267.544 105.986 262.15 114.48 256 114.48C249.85 114.48 244.456 105.987 244.456 96.3059C244.456 86.6249 249.85 78.1309 256 78.1309Z" fill="black"/>
<path d="M93.6259 430.773C85.5779 450.828 80.0239 475.194 80.0239 504.501C80.0239 508.643 83.3809 512.001 87.5239 512.001H424.477C428.619 512.001 431.977 508.643 431.977 504.501C431.977 475.194 426.423 450.828 418.375 430.774C446.314 419.365 463.2 402.018 469.875 377.912C476.138 355.291 472.624 329.668 469.225 304.888C468.077 296.522 466.916 287.913 466.139 279.562C472.465 270.799 476.207 260.053 476.207 248.444C476.207 238.97 473.711 230.073 469.359 222.355C468.304 195.435 462.292 169.402 451.455 144.875C456.36 138.172 459.657 130.184 460.725 121.442L463.965 94.9168C467.949 62.3038 430.902 40.9608 404.563 60.5308C401.322 62.9388 397.645 65.3768 393.566 67.6408C364.08 42.7368 328.749 26.3868 290.864 20.1408C284.341 9.19479 273.066 1.63379 260.487 0.250785C244.208 -1.54021 228.817 6.46379 220.952 20.1698C183.136 26.4388 147.871 42.7778 118.434 67.6408C114.355 65.3768 110.678 62.9398 107.437 60.5308C81.0539 40.9288 44.0559 62.3448 48.0349 94.9158L51.2749 121.441C52.3429 130.183 55.6389 138.171 60.5449 144.874C49.7079 169.402 43.6959 195.435 42.6409 222.356C38.2899 230.073 35.7939 238.97 35.7939 248.444C35.7939 260.053 39.5359 270.799 45.8619 279.562C45.0849 287.913 43.9239 296.521 42.7769 304.888C39.3779 329.668 35.8629 355.291 42.1269 377.913C48.7999 402.017 65.6869 419.365 93.6259 430.773ZM50.7929 248.443C50.7929 229.658 64.5069 213.71 82.7369 210.682C79.8109 236.298 82.4909 262.312 90.7389 286.689C68.8119 287.632 50.7929 270.044 50.7929 248.443ZM421.261 286.69C425.897 272.99 428.779 258.822 429.885 244.356C429.897 244.204 429.906 244.051 429.917 243.898C430.726 232.929 430.535 221.83 429.263 210.682C447.494 213.698 461.206 229.665 461.206 248.443C461.207 270.271 443.035 287.621 421.261 286.69ZM311.297 396.341V409.334C311.297 423.915 299.435 435.778 284.853 435.778H227.148C212.567 435.778 200.704 423.915 200.704 409.334V396.341C218.708 402.347 237.508 405.234 256 405.234C274.456 405.235 293.258 402.36 311.297 396.341ZM153.165 461.627C149.022 461.627 145.665 464.985 145.665 469.127V497.001H95.1569C96.7639 452.2 112.807 412.399 145.665 379.547V439.128C145.665 443.27 149.022 446.628 153.165 446.628C157.307 446.628 160.665 443.27 160.665 439.128V376.908C168.682 382.169 177.049 386.72 185.704 390.544V409.335C185.704 432.187 204.295 450.779 227.148 450.779H284.853C307.705 450.779 326.297 432.187 326.297 409.335V390.544C334.952 386.72 343.319 382.169 351.336 376.908V497.001H160.665V469.127C160.665 464.985 157.306 461.627 153.165 461.627ZM366.336 497.001V379.547C399.054 412.259 415.231 452.044 416.844 497.001H366.336ZM412.207 417.097C398.817 390.49 381.578 372.971 370.304 362.555C389.731 345.682 405.226 324.715 415.599 301.24C428.498 303.012 441.655 300.037 452.488 292.794C453.077 297.541 453.726 302.272 454.364 306.926C460.845 354.181 466.472 395.224 412.207 417.097ZM426.789 195.281C424.743 185.394 421.73 175.265 417.544 164.998C425.392 163.972 433.2 160.995 439.977 156.196C446.283 171.657 450.563 187.732 452.774 204.245C445.158 199.083 436.246 195.955 426.789 195.281ZM335.868 76.0098C318.042 71.7278 305.879 53.5498 298.199 36.8048C327.291 43.1198 354.526 55.9268 378.102 74.3848C364.746 78.7308 350.57 79.5398 335.868 76.0098ZM133.898 74.3838C157.473 55.9278 184.709 43.1198 213.801 36.8038C206.273 53.3728 193.984 71.7238 176.133 76.0088C162.085 79.3818 147.912 78.9448 133.898 74.3838ZM98.4899 72.5698C112.124 82.6998 132.378 93.2538 157.594 93.2528C168.767 93.2518 182.008 91.1998 191.905 85.9098C212.468 74.9158 224.981 51.1358 232.147 31.5368C236.144 20.6058 247.124 13.8728 258.848 15.1598C268.979 16.2738 276.889 23.5278 280.09 32.1808C288.585 55.1418 304.55 83.9138 332.364 90.5938C361.339 97.5558 389.402 90.4818 413.509 72.5698C429.378 60.7758 451.451 73.6578 449.075 93.0958L445.835 119.621C443.691 137.174 428.705 150.425 411.041 150.425C400.194 150.425 364.981 150.425 349.159 150.425C345.017 150.425 341.659 153.783 341.659 157.925C341.659 162.067 345.017 165.425 349.159 165.425H401.392C412.656 190.422 416.887 217.134 414.951 242.901C414.934 243.124 414.913 243.346 414.896 243.569C408.323 326.296 338.87 390.235 256 390.235C158.568 390.235 82.1429 302.371 98.8579 203.959C101.113 190.68 105.036 177.776 110.608 165.425H319.16C323.302 165.425 326.66 162.067 326.66 157.925C326.66 153.783 323.302 150.425 319.16 150.425C307.323 150.425 113.125 150.425 100.959 150.425C83.3579 150.425 68.3159 137.242 66.1639 119.622L62.9239 93.0968C60.5459 73.6328 82.6449 60.7978 98.4899 72.5698ZM72.0219 156.196C78.688 160.91 86.4429 163.95 94.4559 164.998C90.4129 174.908 87.3299 185.044 85.2109 195.281C75.7549 195.955 66.8419 199.083 59.2239 204.246C61.4359 187.733 65.716 171.658 72.0219 156.196ZM57.6369 306.925C58.2749 302.272 58.9239 297.54 59.5129 292.794C70.6289 300.227 83.8729 302.968 96.4019 301.24C106.774 324.715 122.269 345.682 141.697 362.555C130.423 372.972 113.184 390.491 99.7939 417.097C45.5279 395.224 51.1549 354.18 57.6369 306.925Z" fill="black"/>
<path d="M317.157 242.862C300.988 227.793 275.112 219.813 256 232.102C236.889 219.814 211.011 227.793 194.843 242.862C184.722 252.296 178.034 269.442 168.391 276.188C159.336 282.524 160.149 296.114 169.88 301.254C172.593 302.687 175.704 304.203 179.108 305.67C182.734 317.41 189.204 333.104 200.4 347.109C214.043 364.174 234.309 373.961 256 373.961C277.691 373.961 297.956 364.173 311.599 347.109C322.795 333.105 329.266 317.41 332.892 305.67C336.296 304.203 339.407 302.688 342.12 301.254C351.852 296.113 352.662 282.522 343.609 276.189C333.959 269.435 327.283 252.299 317.157 242.862ZM299.883 337.742C289.102 351.227 273.108 358.961 256 358.961C238.892 358.961 222.897 351.227 212.116 337.742C205.307 329.225 200.492 319.793 197.2 311.728C201.462 312.728 207.057 313.641 212.255 313.857C229.473 314.581 244.153 309.112 256 297.605C267.424 308.702 281.919 314.598 299.745 313.857C304.898 313.643 310.49 312.739 314.801 311.728C311.508 319.793 306.692 329.225 299.883 337.742ZM299.121 298.87C283.953 299.496 271.613 293.962 261.856 281.766C258.857 278.017 253.144 278.014 250.143 281.766C240.14 294.27 227.624 299.491 212.878 298.87C200.748 298.365 188.142 293.876 177.34 288.23C190 279.144 196.699 261.635 205.068 253.836C217.819 241.953 238.237 235.548 250.961 247.084C253.82 249.676 258.178 249.677 261.036 247.084C273.76 235.548 294.178 241.953 306.929 253.836C315.387 261.719 321.954 279.105 334.657 288.23C323.879 293.864 311.277 298.364 299.121 298.87Z" fill="black"/>
</g>
<defs>
<clipPath id="clip0">
<rect width="512" height="512" fill="white"/>
</clipPath>
</defs>
</svg>
