<svg width="512" height="512" viewBox="0 0 512 512" fill="none" xmlns="http://www.w3.org/2000/svg">
<g clip-path="url(#clip0)">
<path d="M144.961 456.282C138.515 471.065 134.927 487.369 134.927 504.5H185.287L185.289 407C167.972 419.501 153.845 435.907 144.961 456.282Z" fill="#9EA2E3"/>
<path d="M367.038 456.281C358.38 436.424 344.638 419.797 326.914 407L326.696 504.5H377.072C377.072 487.369 373.484 471.064 367.038 456.281Z" fill="#D4D4FF"/>
<path d="M157.165 401.416C136.809 412.401 138.188 442.115 159.323 451.513L255.999 494.501V380.67C216.199 380.67 180.641 388.747 157.165 401.416Z" fill="#8288CB"/>
<path d="M354.832 401.416C331.356 388.747 295.798 380.67 255.998 380.67V494.501L352.674 451.513C373.81 442.116 375.188 412.401 354.832 401.416Z" fill="#9EA2E3"/>
<path d="M255.999 407L235.999 463.132L255.999 504.5H336.697V504.486C336.697 472.614 333.131 438.26 326.915 407H255.999Z" fill="#55DAFE"/>
<path d="M205.929 407V504.5H255.999V407C245.66 407 217.07 407 205.929 407Z" fill="#FF8E9E"/>
<path d="M185.188 407C178.838 438.921 175.287 469.066 175.287 504.5H185.287H205.928C205.972 465.605 223.151 430.735 250.313 407H185.188Z" fill="#EA5B70"/>
<path d="M110.872 215.047C90.945 215.047 74.791 231.201 74.791 251.128C74.791 271.055 90.945 287.209 110.872 287.209C130.799 287.209 146.953 271.055 146.953 251.128C146.953 232.712 133.157 217.519 115.336 215.32C113.874 215.14 112.384 215.047 110.872 215.047Z" fill="#FFBF9D"/>
<path d="M401.128 215.047C399.616 215.047 398.126 215.14 396.663 215.32C378.842 217.519 365.046 232.712 365.046 251.128C365.046 271.055 381.2 287.209 401.127 287.209C421.054 287.209 437.208 271.055 437.208 251.128C437.208 231.201 421.055 215.047 401.128 215.047Z" fill="#FFBF9D"/>
<path d="M255.999 123.129C236.62 123.129 218.281 127.437 201.853 135.123L147.824 204.014V298.246L201.851 367.134C218.298 374.824 236.644 379.128 255.999 379.128C326.534 379.128 384 321.956 384 251.129C384 180.749 326.957 123.129 255.999 123.129Z" fill="#FFD4BD"/>
<path d="M231.428 125.492C172.336 136.979 128 189.091 128 251.129C128 313.418 172.498 365.307 231.437 376.764C219.38 369.775 208.417 361.106 198.88 351.069C174.154 325.046 158.981 289.86 158.981 251.13C158.981 197.461 188.117 150.603 231.428 125.492Z" fill="#FFBF9D"/>
<path d="M303.87 294.692C296.984 294.692 290.527 291.738 285.666 286.862C282.052 283.237 277.055 280.994 271.532 280.994C265.257 280.994 259.661 283.89 256 288.417C252.339 283.891 246.743 280.994 240.468 280.994C234.945 280.994 229.948 283.237 226.334 286.862C221.472 291.738 215.015 294.692 208.13 294.692C205.031 294.692 202.721 297.534 203.326 300.573C206.059 314.3 218.173 324.646 232.703 324.646C242.115 324.646 250.509 320.301 256 313.512C261.491 320.301 269.885 324.646 279.297 324.646C293.827 324.646 305.941 314.3 308.674 300.573C309.279 297.534 306.969 294.692 303.87 294.692Z" fill="#D6948C"/>
<path d="M384 182.723C376.311 168.363 366.353 155.554 354.656 144.701H228.414C236.691 202.163 287.262 250.659 371.128 251.117V251.129C371.128 276.545 363.016 300.632 347.669 320.785C330.828 342.9 305.481 357.918 286.894 362.019C280.242 363.487 273.908 359.768 271.269 353.959C269.631 350.353 266.086 347.997 262.125 347.997L249.87 348C245.953 348.001 242.369 350.277 240.778 353.857C238.067 359.957 231.289 363.826 224.204 361.79C215.276 359.224 206.77 355.603 198.841 351.06V407H314.415L347.533 389.501C380.207 356.841 401.128 307.048 401.128 251.129C401.128 238.771 399.577 226.775 396.663 215.321C393.745 203.849 389.461 192.922 384 182.723Z" fill="#E8B5B1"/>
<path d="M198.843 351.057C185.446 343.382 173.693 333.079 164.331 320.785C148.984 300.632 140.872 276.545 140.872 251.129C140.872 251.125 140.872 251.121 140.872 251.117C224.738 250.658 275.308 202.163 283.586 144.701H157.352C145.589 155.615 135.638 168.456 128 182.723C122.539 192.922 118.255 203.849 115.337 215.321C112.424 226.775 110.872 238.771 110.872 251.129C110.872 318.136 140.905 376.523 185.188 407C206.155 421.431 230.318 429.449 255.999 429.449C281.697 429.449 305.941 421.443 326.915 407C334.223 401.967 341.073 395.958 347.533 389.501C333.78 393.827 319.136 396.161 303.955 396.161C262.586 396.162 225.265 378.84 198.843 351.057Z" fill="#D6948C"/>
<path d="M361.203 66.4513C359.754 67.6733 358.248 68.8283 356.693 69.9193C346.305 77.2123 333.657 81.5003 320 81.5003C301.799 81.5003 285.382 73.8943 273.732 61.6953H253.732L233.608 99.2493L251.693 151.064L271.693 157.064C310.328 158.917 348.344 167.588 384 182.723V87.5003V66.4513H361.203Z" fill="#FFCE71"/>
<path d="M273.732 61.6954C270.361 58.1654 267.385 54.2534 264.885 50.0254H247.115C244.615 54.2524 241.639 58.1644 238.268 61.6954C226.618 73.8944 210.201 81.5004 192 81.5004C178.343 81.5004 165.695 77.2124 155.307 69.9194C153.752 68.8284 152.246 67.6734 150.797 66.4514H128V87.5004V182.723C173.815 163.276 222.954 154.728 271.693 157.064C242.91 134.987 241.01 83.8514 273.732 61.6954Z" fill="#FFB357"/>
<path d="M256 7.5C239.431 7.5 226 20.931 226 37.5C226 47.433 230.831 56.235 238.268 61.695C243.236 65.342 249.365 67.5 256 67.5C262.635 67.5 268.764 65.342 273.732 61.695C281.169 56.235 286 47.433 286 37.5C286 20.931 272.569 7.5 256 7.5Z" fill="#FFCE71"/>
<path d="M128 27.5C111.431 27.5 98 40.931 98 57.5C98 74.069 111.431 87.5 128 87.5C140.137 87.5 150.583 80.288 155.307 69.919C157.032 66.134 158 61.931 158 57.5C158 40.931 144.569 27.5 128 27.5Z" fill="#FFCE71"/>
<path d="M384 27.5C367.431 27.5 354 40.931 354 57.5C354 61.931 354.968 66.134 356.693 69.919C361.417 80.288 371.863 87.5 384 87.5C400.569 87.5 414 74.069 414 57.5C414 40.931 400.569 27.5 384 27.5Z" fill="#FFCE71"/>
<path d="M201.051 278.5V266.5C201.051 262.358 197.693 259 193.551 259C189.409 259 186.051 262.358 186.051 266.5V278.5C186.051 282.642 189.409 286 193.551 286C197.693 286 201.051 282.642 201.051 278.5Z" fill="black"/>
<path d="M318.449 286C322.591 286 325.949 282.642 325.949 278.5V266.5C325.949 262.358 322.591 259 318.449 259C314.307 259 310.949 262.358 310.949 266.5V278.5C310.949 282.642 314.307 286 318.449 286Z" fill="black"/>
<path d="M221.023 281.568C217.407 285.196 212.828 287.193 208.13 287.193C200.306 287.193 194.44 294.356 195.971 302.038C201.52 329.912 234.602 341.155 256 324.038C262.588 329.309 270.692 332.147 279.109 332.147C296.711 332.147 312.421 320.164 316.029 302.039C317.561 294.351 311.689 287.193 303.869 287.193C299.172 287.193 294.593 285.195 290.976 281.568C281.651 272.216 266.954 270.809 255.999 278.317C245.066 270.821 230.362 272.202 221.023 281.568ZM261.832 293.135C266.52 287.338 275.127 286.915 280.355 292.159C285.981 297.802 293.052 301.234 300.547 302.02C295.199 317.991 273.36 323.05 261.832 308.797C258.829 305.085 253.166 305.091 250.169 308.797C238.642 323.052 216.797 317.983 211.454 302.02C218.949 301.234 226.02 297.802 231.646 292.159C236.891 286.897 245.491 287.353 250.168 293.135C253.171 296.847 258.835 296.841 261.832 293.135Z" fill="black"/>
<path d="M273.192 179.406C269.597 177.351 265.015 178.6 262.96 182.197C241.155 220.358 195.499 243.319 140.832 243.617C136.706 243.639 133.373 247.003 133.373 251.129C133.373 305.361 169.429 353.852 222.134 368.999C232.48 371.969 243.2 366.877 247.633 356.903C248.012 356.051 248.891 355.5 249.873 355.5L262.129 355.497C263.118 355.497 264.004 356.097 264.442 357.062C268.651 366.327 278.778 371.493 288.511 369.342C327.769 360.68 378.629 317.335 378.629 251.117C378.629 246.991 375.296 243.639 371.17 243.617C327.932 243.381 290.805 229.467 266.054 204.34C269.72 199.696 273.04 194.79 275.984 189.638C278.038 186.042 276.789 181.46 273.192 179.406ZM363.387 258.438C361.992 279.493 354.567 299.347 341.702 316.241C325.347 337.717 300.989 351.229 285.278 354.696C281.884 355.444 279.176 353.231 278.097 350.858C275.238 344.565 268.971 340.499 262.128 340.499C262.127 340.499 262.125 340.499 262.124 340.499L249.868 340.501C242.966 340.503 236.707 344.55 233.925 350.812C232.756 353.442 229.753 355.582 226.276 354.583C182.669 342.054 151.703 303.314 148.623 258.435C192.165 256.592 230.146 241.183 256.036 215.541C282.078 241.59 319.752 256.641 363.387 258.438Z" fill="black"/>
<path d="M402.259 207.574C399.523 198.371 395.925 189.433 391.5 180.905V147.952C391.5 143.81 388.143 140.452 384 140.452C379.857 140.452 376.5 143.81 376.5 147.952V171.593C301.034 142.464 214.899 140.946 135.5 171.593V94.221C144.351 92.402 152.28 87.431 157.772 80.269C183.381 94.298 216.187 91.586 239.302 71.078C244.457 73.654 250.129 75 256 75C261.872 75 267.544 73.654 272.698 71.079C295.785 91.563 328.584 94.318 354.228 80.27C359.719 87.432 367.648 92.403 376.5 94.222V117.953C376.5 122.095 379.857 125.453 384 125.453C388.143 125.453 391.5 122.095 391.5 117.953V94.245C408.596 90.761 421.5 75.61 421.5 57.5C421.5 36.822 404.678 20 384 20C359.672 20 341.604 42.989 347.665 66.748C327.99 77.855 302.935 76.279 284.708 61.597C290.31 54.904 293.5 46.366 293.5 37.5C293.5 16.822 276.678 0 256 0C235.322 0 218.5 16.822 218.5 37.5C218.5 46.366 221.691 54.905 227.292 61.598C209.092 76.258 184.041 77.874 164.335 66.749C170.401 42.973 152.307 20 128 20C107.322 20 90.5 36.822 90.5 57.5C90.5 75.61 103.404 90.761 120.5 94.245V180.905C116.075 189.432 112.477 198.37 109.742 207.572C85.958 208.204 67.291 227.662 67.291 251.128C67.291 273.742 84.79 292.995 107.695 294.586C110.868 310.472 115.747 325.913 122.263 340.41C123.962 344.19 128.403 345.874 132.179 344.176C135.957 342.478 137.643 338.039 135.945 334.26C124.449 308.682 118.372 279.936 118.372 251.128C118.372 229.42 123.57 207.87 133.399 188.614C212.095 155.967 300.175 156.079 378.599 188.614C388.429 207.87 393.627 229.421 393.627 251.129C393.627 333.281 341.008 421.949 255.998 421.949C214.56 421.949 175.835 399.19 149.755 359.508C147.479 356.046 142.828 355.085 139.368 357.36C135.907 359.635 134.945 364.285 137.22 367.747C143.297 376.994 150.018 385.4 157.264 392.928C156.013 393.548 154.786 394.176 153.602 394.815C134.538 405.103 129.821 429.294 141.49 446.146C132.282 464.007 127.426 484.067 127.426 504.5C127.426 508.642 130.784 512 134.926 512H377.072C381.215 512 384.572 508.642 384.572 504.5C384.572 484.12 379.715 464.057 370.509 446.14C382.179 429.276 377.448 405.098 358.393 394.815C357.207 394.175 355.979 393.546 354.727 392.925C379.549 366.739 396.548 331.5 404.134 294.598C427.18 293.085 444.707 273.737 444.707 251.129C444.709 227.618 426.007 208.208 402.259 207.574ZM384 35C396.406 35 406.5 45.093 406.5 57.5C406.5 69.907 396.406 80 384 80C375.207 80 367.168 74.823 363.519 66.81C356.747 51.951 367.678 35 384 35ZM256 15C268.407 15 278.5 25.093 278.5 37.5C278.5 50.202 268.175 60 256 60C243.829 60 233.5 50.206 233.5 37.5C233.5 25.093 243.593 15 256 15ZM105.163 279.137C91.763 276.454 82.291 264.542 82.291 251.129C82.291 237.421 92.092 225.394 106.001 222.981C102.532 241.459 102.74 260.115 105.163 279.137ZM128 80C115.593 80 105.5 69.907 105.5 57.5C105.5 45.093 115.593 35 128 35C144.324 35 155.252 51.952 148.482 66.81C144.832 74.823 136.792 80 128 80ZM167.847 497H142.674C143.598 482.954 147.118 469.258 153.014 456.688C155.34 458.019 154.864 457.737 169.413 464.206C168.519 475.008 168.006 485.837 167.847 497ZM170.987 448.491L162.371 444.66C146.918 437.789 145.823 416.059 160.727 408.016C163.304 406.626 166.095 405.28 169.039 403.987C171.617 406.17 174.249 408.247 176.928 410.225C174.387 423.519 172.425 436.158 170.987 448.491ZM248.499 497H182.842C183.239 469.972 185.787 445.463 190.528 419.146C208.457 429.485 228.099 435.523 248.5 436.715V497H248.499ZM263.499 497V436.729C284.921 435.546 304.374 429.322 321.584 419.348C326 444.574 328.686 471.514 329.13 497H263.499ZM369.325 497H344.125C343.946 486.378 343.393 475.417 342.465 464.26C357.178 457.718 356.674 458.011 358.984 456.688C364.879 469.292 368.399 482.987 369.325 497ZM349.628 444.66L340.915 448.534C339.454 435.582 337.54 422.795 335.194 410.352C337.886 408.34 340.515 406.238 343.074 404.039C345.974 405.316 348.727 406.643 351.271 408.016C366.151 416.047 365.102 437.779 349.628 444.66ZM406.746 279.157C409.289 260.002 409.47 241.468 405.999 222.982C419.915 225.399 429.708 237.419 429.708 251.13C429.709 264.724 420.046 276.54 406.746 279.157Z" fill="black"/>
</g>
<defs>
<clipPath id="clip0">
<rect width="512" height="512" fill="white"/>
</clipPath>
</defs>
</svg>
