<svg width="512" height="512" viewBox="0 0 512 512" fill="none" xmlns="http://www.w3.org/2000/svg">
<path d="M441.613 502V409.836C441.613 384.794 425.626 362.548 401.892 354.562L317.493 326.163C309.582 323.501 304.253 316.085 304.253 307.738V276.082H217.746V307.738C217.746 316.085 212.417 323.501 204.506 326.163L120.107 354.562C96.3727 362.548 80.3857 384.794 80.3857 409.836V502C80.3857 507.523 84.8627 512 90.3857 512H431.613C437.136 512 441.613 507.523 441.613 502Z" fill="#FF8087"/>
<path d="M401.893 354.562L317.494 326.163C309.583 323.501 304.254 316.086 304.254 307.738V291.082H274.254V322.738C274.254 331.085 279.583 338.501 287.494 341.163L371.893 369.562C395.627 377.548 411.614 399.794 411.614 424.836V512H431.614C437.137 512 441.614 507.523 441.614 502V409.836C441.613 384.794 425.627 362.548 401.893 354.562Z" fill="#E6646E"/>
<path d="M236 381.086H286V512.001H236V381.086Z" fill="#F7C663"/>
<path d="M441.613 409.836C441.613 384.794 425.626 362.548 401.892 354.562L317.493 326.163C309.582 323.501 304.253 316.086 304.253 307.738V276.082H261V408.367C261 424.936 274.431 438.367 291 438.367H441.613V409.836Z" fill="#FBD268"/>
<path d="M425.639 369.749C419.102 362.84 410.927 357.599 401.893 354.562L317.494 326.163C313.189 324.713 309.428 321.692 307.084 317.839C305.253 314.829 304.253 311.309 304.254 307.738V291.082H274.254V322.738C274.254 331.085 279.583 338.501 287.494 341.163L371.893 369.562C395.627 377.548 411.614 399.794 411.614 424.836V438.368H441.614V409.836C441.618 394.774 435.834 380.524 425.639 369.749Z" fill="#F7C663"/>
<path d="M80.3867 409.836C80.3867 384.794 96.3737 362.548 120.108 354.562L204.507 326.163C212.418 323.501 217.747 316.086 217.747 307.738V276.082H261V408.367C261 424.936 247.569 438.367 231 438.367H80.3867V409.836Z" fill="#FFE179"/>
<path d="M303.953 296.775L267.442 321.911C263.499 324.37 258.501 324.37 254.558 321.911L217.121 296.351C194.295 282.115 176.977 262.347 169.613 237.58C168.817 234.903 167.2 232.419 166.667 229.619C165.435 223.153 164.799 216.526 164.799 209.811V158.76H357.2V209.811C357.2 216.526 356.563 223.153 355.332 229.618C349.865 258.321 329.246 281 303.953 296.775Z" fill="#FFCEBF"/>
<path d="M327.201 158.759V209.811C327.201 246.334 308.368 280.277 277.378 299.605L248.5 317.615L254.559 321.91C258.502 324.369 263.5 324.369 267.443 321.91L303.954 296.774C325.426 283.382 342.202 264.685 350.515 241.871C351.95 237.931 354.442 234.207 355.259 230.003C356.539 223.416 357.201 216.658 357.201 209.81V158.758H327.201V158.759Z" fill="#FFB09E"/>
<path d="M214.623 299.604L254.559 324.512C258.502 326.971 263.5 326.971 267.443 324.512L307.379 299.604C332.67 283.83 349.859 258.321 355.328 229.621L339.783 243.194C324.989 256.11 302.718 255.357 288.832 241.47C285.419 238.057 280.791 236.14 275.965 236.14H246.04C241.214 236.14 236.585 238.057 233.173 241.47C219.286 255.357 197.015 256.11 182.222 243.194L166.677 229.621C172.142 258.321 189.331 283.83 214.623 299.604Z" fill="#E19974"/>
<path d="M310.842 297.337C332.593 282.637 350.21 257.959 355.326 229.622V229.621L339.781 243.194C333.555 248.63 326.003 251.635 318.31 252.268C309.877 271.517 295.768 288.134 277.378 299.604L246 319.174L254.558 324.512C258.501 326.971 263.499 326.971 267.442 324.512C270.852 322.385 307.516 299.585 310.842 297.337Z" fill="#DC8758"/>
<path d="M372.201 83.8046C332.37 92.8016 291.131 76.1816 268.671 42.0786L261 30.4316L253.33 42.0786C230.87 76.1816 189.631 92.8026 149.8 83.8046L164.8 158.759H357.201L372.201 83.8046Z" fill="#FFE179"/>
<path d="M372.201 83.8047C362.046 86.0987 351.802 86.7177 341.798 85.8167L327.201 158.759H357.201L372.201 83.8047Z" fill="#FBD268"/>
<path d="M363.791 195.985H357.201V158.758H363.791C374.071 158.758 382.404 167.092 382.404 177.371C382.405 187.652 374.071 195.985 363.791 195.985Z" fill="#FFCEBF"/>
<path d="M158.209 195.985H164.799V158.758H158.209C147.929 158.758 139.596 167.092 139.596 177.371C139.595 187.652 147.929 195.985 158.209 195.985Z" fill="#FFB09E"/>
<path d="M261 53.364C273.665 53.364 283.932 43.097 283.932 30.432C283.932 17.767 273.665 7.5 261 7.5C248.335 7.5 238.068 17.767 238.068 30.432C238.068 43.097 248.335 53.364 261 53.364Z" fill="#FF8087"/>
<path d="M261 7.5C256.546 7.5 252.392 8.774 248.873 10.971C255.36 15.022 259.678 22.221 259.678 30.432C259.678 38.643 255.36 45.842 248.873 49.893C252.391 52.09 256.546 53.364 261 53.364C273.665 53.364 283.932 43.097 283.932 30.432C283.932 17.767 273.665 7.5 261 7.5Z" fill="#E6646E"/>
<path d="M149.799 102.19C159.952 102.19 168.183 93.9591 168.183 83.8059C168.183 73.6527 159.952 65.4219 149.799 65.4219C139.646 65.4219 131.415 73.6527 131.415 83.8059C131.415 93.9591 139.646 102.19 149.799 102.19Z" fill="#FF8087"/>
<path d="M372.201 102.19C382.355 102.19 390.585 93.9591 390.585 83.8059C390.585 73.6527 382.355 65.4219 372.201 65.4219C362.048 65.4219 353.817 73.6527 353.817 83.8059C353.817 93.9591 362.048 102.19 372.201 102.19Z" fill="#FF8087"/>
<path d="M372.201 65.4219C368.693 65.4219 365.426 66.4219 362.637 68.1269C367.92 71.3569 371.457 77.1599 371.457 83.8059C371.457 90.4509 367.919 96.2549 362.637 99.4849C365.426 101.19 368.692 102.19 372.201 102.19C382.354 102.19 390.585 93.9589 390.585 83.8059C390.585 73.6519 382.354 65.4219 372.201 65.4219Z" fill="#E6646E"/>
<path d="M149.799 65.4219C146.291 65.4219 143.024 66.4219 140.235 68.1269C145.518 71.3569 149.055 77.1599 149.055 83.8059C149.055 90.4509 145.517 96.2549 140.235 99.4849C143.024 101.19 146.29 102.19 149.799 102.19C159.952 102.19 168.183 93.9589 168.183 83.8059C168.183 73.6519 159.953 65.4219 149.799 65.4219Z" fill="#E6646E"/>
<path d="M261 130.775C269.284 130.775 276 124.06 276 115.775C276 107.491 269.284 100.775 261 100.775C252.716 100.775 246 107.491 246 115.775C246 124.06 252.716 130.775 261 130.775Z" fill="#FF8087"/>
<path d="M261 100.775C257.598 100.775 254.471 101.921 251.954 103.83C255.565 106.569 257.908 110.893 257.908 115.775C257.908 120.657 255.565 124.981 251.954 127.72C254.471 129.629 257.597 130.775 261 130.775C269.284 130.775 276 124.059 276 115.775C276 107.491 269.284 100.775 261 100.775Z" fill="#E6646E"/>
<path d="M261 398C272.599 398 282.001 388.598 282.001 376.999C282.001 365.401 272.599 355.998 261 355.998C249.401 355.998 239.999 365.401 239.999 376.999C239.999 388.598 249.401 398 261 398Z" fill="#B3E59F"/>
<path d="M261 355.998C257.17 355.998 253.591 357.04 250.5 358.83C256.771 362.463 261 369.23 261 376.998C261 384.766 256.771 391.533 250.5 395.166C253.591 396.957 257.171 397.998 261 397.998C272.598 397.998 282.001 388.596 282.001 376.997C282.001 365.398 272.598 355.998 261 355.998Z" fill="#95D6A4"/>
<path d="M135.387 459.5C131.245 459.5 127.887 462.858 127.887 467V504.5C127.887 508.642 131.245 512 135.387 512C139.529 512 142.887 508.642 142.887 504.5V467C142.887 462.858 139.529 459.5 135.387 459.5ZM376.613 459.5C372.471 459.5 369.113 462.858 369.113 467V504.5C369.113 508.642 372.471 512 376.613 512C380.755 512 384.113 508.642 384.113 504.5V467C384.113 462.858 380.755 459.5 376.613 459.5ZM265.221 263.713C263.759 264.751 260.692 266.515 256.572 266.663C251.906 266.826 248.431 264.883 246.773 263.708C243.394 261.312 238.713 262.11 236.317 265.49C233.921 268.869 234.719 273.551 238.099 275.946C241.172 278.125 247.489 281.674 256.007 281.674C263.442 281.674 270.406 278.43 273.909 275.941C277.286 273.542 278.078 268.86 275.679 265.483C273.279 262.106 268.597 261.314 265.221 263.713ZM212.122 216.262C216.264 216.262 219.622 212.904 219.622 208.762V193.239C219.622 189.097 216.264 185.739 212.122 185.739C207.98 185.739 204.622 189.097 204.622 193.239V208.762C204.622 212.904 207.98 216.262 212.122 216.262ZM399.282 347.452L314.881 319.052C309.202 317.143 306.174 311.538 306.75 305.708C339.913 284.834 359.701 249.024 359.701 209.811V203.463C373.68 202.981 384.905 191.467 384.905 177.373C384.905 163.829 374.54 152.663 361.325 151.384L369.693 109.567C382.8 108.309 393.085 97.237 393.085 83.806C393.085 69.534 381.474 57.922 367.201 57.922C354.703 57.922 344.245 66.827 341.838 78.625C318.128 77.637 295.542 67.253 279.358 49.914C283.77 44.632 286.432 37.839 286.432 30.434C286.432 13.651 272.78 0 256 0C239.22 0 225.568 13.651 225.568 30.432C225.568 37.836 228.229 44.629 232.641 49.911C216.452 67.249 193.873 77.623 170.161 78.62C167.753 66.824 157.296 57.921 144.799 57.921C130.527 57.921 118.915 69.533 118.915 83.805C118.915 97.237 129.2 108.308 142.307 109.566L150.675 151.383C137.461 152.662 127.095 163.827 127.095 177.372C127.095 191.466 138.32 202.98 152.299 203.462V209.81C152.299 249.024 172.087 284.833 205.25 305.707C205.564 311.41 202.943 317.17 197.118 319.051L112.718 347.451C85.9047 356.475 67.8896 381.547 67.8896 409.839V504.499C67.8896 508.641 71.2476 511.999 75.3896 511.999C79.5316 511.999 82.8896 508.641 82.8896 504.499V445.869H223.5V504.499C223.5 508.641 226.858 511.999 231 511.999C235.142 511.999 238.5 508.641 238.5 504.499V443.719C245.528 441.226 251.601 436.7 256 430.843C260.399 436.7 266.472 441.226 273.5 443.719V504.499C273.5 508.641 276.858 511.999 281 511.999C285.142 511.999 288.5 508.641 288.5 504.499V445.869H329.161C333.303 445.869 336.661 442.511 336.661 438.369C336.661 434.227 333.303 430.869 329.161 430.869H286C271.56 430.833 262.062 418.754 263.5 404.491C275.587 401.19 284.5 390.119 284.5 376.999C284.5 363.879 275.587 352.808 263.5 349.507V332.352C264.502 331.942 265.478 331.457 266.411 330.875L292.629 314.523C294.878 323.177 301.333 330.32 310.098 333.268L394.498 361.668C415.2 368.635 429.11 387.994 429.11 409.839V430.869H364.161C360.019 430.869 356.661 434.227 356.661 438.369C356.661 442.511 360.019 445.869 364.161 445.869H429.11V504.499C429.11 508.641 432.468 511.999 436.61 511.999C440.752 511.999 444.11 508.641 444.11 504.499V409.839C444.11 381.547 426.095 356.476 399.282 347.452ZM369.904 177.372C369.904 183.194 365.404 187.984 359.7 188.448V166.295C365.405 166.76 369.904 171.55 369.904 177.372ZM367.201 72.92C373.202 72.92 378.085 77.803 378.085 83.804C378.085 89.805 373.203 94.688 367.201 94.688C360.969 94.688 356.317 89.728 356.317 83.804C356.316 77.803 361.199 72.92 367.201 72.92ZM256 15C264.509 15 271.432 21.923 271.432 30.432C271.432 38.941 264.509 45.864 256 45.864C247.491 45.864 240.568 38.941 240.568 30.432C240.568 21.923 247.491 15 256 15ZM152.299 188.448C146.595 187.984 142.095 183.194 142.095 177.372C142.095 171.55 146.595 166.76 152.299 166.295V188.448ZM144.799 94.688C138.798 94.688 133.915 89.806 133.915 83.804C133.915 77.802 138.797 72.92 144.799 72.92C150.801 72.92 155.683 77.803 155.683 83.804C155.684 89.683 150.977 94.688 144.799 94.688ZM167.299 209.81V166.26H201.485C205.627 166.26 208.985 162.902 208.985 158.76C208.985 154.618 205.627 151.26 201.485 151.26H165.948L157.015 106.618C162.262 103.797 166.427 99.219 168.723 93.677C197.733 93.032 225.48 80.31 244.891 58.755C248.335 60.111 252.08 60.864 256 60.864C259.92 60.864 263.664 60.111 267.108 58.755C286.512 80.311 314.257 93.032 343.277 93.676C345.573 99.219 349.738 103.796 354.985 106.617L346.052 151.259H236.485C232.343 151.259 228.985 154.617 228.985 158.759C228.985 162.901 232.343 166.259 236.485 166.259H344.701V209.809C344.701 215.187 344.27 220.491 343.435 225.682L329.849 237.544C318.072 247.825 300.187 247.22 289.133 236.166C284.279 231.312 277.826 228.64 270.963 228.64H241.038C234.174 228.64 227.721 231.313 222.867 236.166C211.813 247.22 193.929 247.826 182.152 237.544L168.566 225.682C167.73 220.491 167.299 215.188 167.299 209.81ZM226 430.87H82.8896V409.84C82.8896 387.995 96.7996 368.636 117.502 361.669L201.9 333.27C210.666 330.322 217.122 323.179 219.371 314.525L245.589 330.877C246.522 331.459 247.498 331.944 248.5 332.354V349.509C236.413 352.81 227.5 363.881 227.5 377.001C227.5 390.121 236.413 401.192 248.5 404.493C249.303 418.189 240.417 431.018 226 430.87ZM269.5 377C269.5 384.443 263.446 390.498 256.004 390.5C256.002 390.5 256.001 390.5 255.999 390.5C255.997 390.5 255.996 390.5 255.994 390.5C248.552 390.497 242.498 384.442 242.498 377C242.498 369.558 248.552 363.502 255.994 363.5H255.999C255.999 363.5 256.002 363.5 256.004 363.5C263.447 363.502 269.5 369.557 269.5 377ZM258.473 318.148C256.97 319.085 255.029 319.085 253.527 318.148C223.236 299.26 191.888 284.222 176.896 252.356C194.398 264.024 218.245 262.002 233.474 246.773C235.495 244.753 238.181 243.64 241.038 243.64H270.963C273.82 243.64 276.507 244.753 278.527 246.773C287.219 255.466 298.72 259.858 310.248 259.858C318.913 259.858 327.59 257.368 335.101 252.362C322.512 283.587 286.129 300.915 258.473 318.148ZM299.878 216.262C304.02 216.262 307.378 212.904 307.378 208.762V193.239C307.378 189.097 304.02 185.739 299.878 185.739C295.736 185.739 292.378 189.097 292.378 193.239V208.762C292.378 212.904 295.736 216.262 299.878 216.262ZM256 138.276C268.407 138.276 278.5 128.183 278.5 115.776C278.5 103.369 268.407 93.276 256 93.276C243.593 93.276 233.5 103.369 233.5 115.776C233.5 128.183 243.593 138.276 256 138.276ZM256 108.276C260.136 108.276 263.5 111.64 263.5 115.776C263.5 119.912 260.136 123.276 256 123.276C251.864 123.276 248.5 119.912 248.5 115.776C248.5 111.64 251.864 108.276 256 108.276Z" fill="black"/>
</svg>
