<svg width="512" height="512" viewBox="0 0 512 512" fill="none" xmlns="http://www.w3.org/2000/svg">
<g clip-path="url(#clip0)">
<path d="M354.5 392.5C398.683 392.5 434.5 428.317 434.5 472.5V484.5C434.5 495.546 425.546 504.5 414.5 504.5H97.5C86.454 504.5 77.5 495.546 77.5 484.5V472.5C77.5 428.317 113.317 392.5 157.5 392.5H354.5Z" fill="#FC8D94"/>
<path d="M434.5 472.5V484.5C434.5 495.55 425.55 504.5 414.5 504.5H384.5C395.55 504.5 404.5 495.55 404.5 484.5V472.5C404.5 428.32 368.68 392.5 324.5 392.5H354.5C398.68 392.5 434.5 428.32 434.5 472.5Z" fill="#FC7585"/>
<path d="M212.5 330.5H299.5V482.499H212.5V330.5Z" fill="#ECBD83"/>
<path d="M178.5 259.5H122C105.155 259.5 91.5 245.845 91.5 229C91.5 212.155 105.155 198.5 122 198.5H178.5V259.5Z" fill="#ECBD83"/>
<path d="M353.5 198.5H390C406.845 198.5 420.5 212.155 420.5 229C420.5 245.845 406.845 259.5 390 259.5H353.5V198.5Z" fill="#ECBD83"/>
<path d="M373.5 154.5V240C373.5 304.893 320.894 357.5 256 357.5C191.107 357.5 138.5 304.894 138.5 240V154.5H373.5Z" fill="#F6D190"/>
<path d="M373.5 154.5V240C373.5 304.89 320.89 357.5 256 357.5C250.92 357.5 245.91 357.18 241 356.55C298.81 349.18 343.5 299.81 343.5 240V154.5H373.5Z" fill="#ECBD83"/>
<path d="M309.5 504.5V427.5C309.5 424.739 311.739 422.5 314.5 422.5H330.5C341.546 422.5 350.5 413.546 350.5 402.5V392.5H299.5C288.454 392.5 279.5 401.455 279.5 412.501V449.5C279.5 455.023 275.023 459.5 269.5 459.5H242.5C236.977 459.5 232.5 455.023 232.5 449.5V412.5C232.5 401.454 223.546 392.5 212.5 392.5H161.5V402.5C161.5 413.546 170.454 422.5 181.5 422.5H197.5C200.261 422.5 202.5 424.739 202.5 427.5V504.5H309.5Z" fill="#FAF2F3"/>
<path d="M350.5 392.5V396.82C342.35 394.02 333.6 392.5 324.5 392.5H350.5Z" fill="#F0E5E0"/>
<path d="M312.951 301.119C307.701 301.74 296.995 301.338 292.681 288.961C290.651 279.419 288.425 273.112 286.45 268.962C284.279 264.401 280.204 261.039 275.331 259.713C267.742 257.648 259.965 260.938 256 267.279C252.035 260.938 244.258 257.648 236.669 259.713C231.795 261.039 227.72 264.402 225.55 268.962C223.574 273.112 221.348 279.419 219.319 288.961C215.005 301.339 204.299 301.74 199.049 301.119C197.594 300.947 196.454 302.372 196.943 303.753C199.894 312.079 207.149 318.28 216.027 319.778C229.778 322.098 243.535 315.699 250.619 303.687L254.707 296.756C255.177 295.959 256.823 295.959 257.293 296.756L261.381 303.687C268.465 315.698 282.223 322.098 295.973 319.778C304.851 318.28 312.106 312.079 315.057 303.753C315.546 302.372 314.406 300.947 312.951 301.119Z" fill="#6F6571"/>
<path d="M403.5 159V201.65C399.43 199.63 394.85 198.5 390 198.5H363.5C352.45 198.5 343.5 189.55 343.5 178.5V159H403.5Z" fill="#5D5360"/>
<path d="M168.5 162.83V178.5C168.5 189.55 159.55 198.5 148.5 198.5H122C117.15 198.5 112.57 199.63 108.5 201.65V162.83H168.5Z" fill="#6F6571"/>
<path d="M380 105.001L329.068 53.1337C327.108 51.1377 323.893 51.1377 321.933 53.1337L271 105.001L325.5 121.668L380 105.001Z" fill="#FFC269"/>
<path d="M132 105.001L182.932 53.1337C184.892 51.1377 188.107 51.1377 190.067 53.1337L241 105.001L186.5 121.668L132 105.001Z" fill="#FFC269"/>
<path d="M403.5 143.499V42.9102L325.5 109.999V143.499H403.5Z" fill="#FFE07D"/>
<path d="M403.5 42.9102V143.5H373.5V68.7102L403.5 42.9102Z" fill="#FFD064"/>
<path d="M108.5 143.999V42.9102L186.5 109.999V143.999H108.5Z" fill="#FFE07D"/>
<path d="M186.5 147.666V109.999L256 42.9102L325.5 109.999V145.255L186.5 147.666Z" fill="#FFD064"/>
<path d="M103.5 168.5H408.5C414.023 168.5 418.5 164.023 418.5 158.5V143.5C418.5 137.977 414.023 133.5 408.5 133.5H103.5C97.977 133.5 93.5 137.977 93.5 143.5V158.5C93.5 164.023 97.977 168.5 103.5 168.5Z" fill="#FAF2F3"/>
<path d="M418.5 143.5V158.5C418.5 164.02 414.02 168.5 408.5 168.5H378.5C384.02 168.5 388.5 164.02 388.5 158.5V143.5C388.5 137.98 384.02 133.5 378.5 133.5H408.5C414.02 133.5 418.5 137.98 418.5 143.5Z" fill="#F0E5E0"/>
<path d="M403.5 52.5C395.216 52.5 388.5 45.784 388.5 37.5C388.5 29.216 395.216 22.5 403.5 22.5C411.784 22.5 418.5 29.216 418.5 37.5C418.5 45.784 411.784 52.5 403.5 52.5Z" fill="#CCF49F"/>
<path d="M256 52.5C243.574 52.5 233.5 42.426 233.5 30C233.5 17.574 243.574 7.5 256 7.5C268.426 7.5 278.5 17.574 278.5 30C278.5 42.426 268.426 52.5 256 52.5Z" fill="#CCF49F"/>
<path d="M108.5 52.5C116.784 52.5 123.5 45.784 123.5 37.5C123.5 29.216 116.784 22.5 108.5 22.5C100.216 22.5 93.5 29.216 93.5 37.5C93.5 45.784 100.216 52.5 108.5 52.5Z" fill="#CCF49F"/>
<path d="M315.5 251.5C319.642 251.5 323 248.143 323 244V229C323 224.857 319.642 221.5 315.5 221.5C311.358 221.5 308 224.857 308 229V244C308 248.143 311.358 251.5 315.5 251.5Z" fill="black"/>
<path d="M196.5 251.5C200.642 251.5 204 248.143 204 244V229C204 224.857 200.642 221.5 196.5 221.5C192.358 221.5 189 224.857 189 229V244C189 248.143 192.358 251.5 196.5 251.5Z" fill="black"/>
<path d="M354.5 385H307V354.114C342.619 338.132 369.444 305.95 378.054 267H390C410.953 267 428 249.953 428 229C428 215.806 421.238 204.166 411 197.35V175.8C419.466 174.58 426 167.298 426 158.5V143.5C426 134.702 419.466 127.419 411 126.2V58.71C419.729 55.614 426 47.277 426 37.5C426 25.094 415.907 15 403.5 15C391.093 15 381 25.094 381 37.5C381 41.876 382.26 45.961 384.43 49.42L358.139 72.034L334.419 47.878C328.473 42.89 322.528 42.89 316.582 47.878L294.86 69.998L276.291 52.073C282.255 46.586 286 38.723 286 30C286 13.458 272.542 0 256 0C239.458 0 226 13.458 226 30C226 38.723 229.745 46.586 235.709 52.073L217.14 69.998L195.419 47.878C189.473 42.89 183.528 42.89 177.582 47.878L153.861 72.034L127.57 49.42C129.74 45.961 131 41.876 131 37.5C131 25.094 120.907 15 108.5 15C96.093 15 86 25.094 86 37.5C86 47.277 92.271 55.614 101 58.71V126.2C92.534 127.42 86 134.702 86 143.5V158.5C86 167.298 92.534 174.581 101 175.8V197.35C90.763 204.165 84 215.806 84 229C84 249.953 101.047 267 122 267H133.946C142.556 305.949 169.381 338.132 205 354.114V385H157.5C109.252 385 70 424.252 70 472.5V484.5C70 499.663 82.336 512 97.5 512H354.5C358.642 512 362 508.643 362 504.5C362 500.357 358.642 497 354.5 497H317V430H330.5C345.664 430 358 417.663 358 402.5V400.089C396.357 401.922 427 433.697 427 472.5V484.5C427 491.393 421.393 497 414.5 497H389.5C385.358 497 382 500.357 382 504.5C382 508.643 385.358 512 389.5 512H414.5C429.664 512 442 499.663 442 484.5V472.5C442 424.252 402.748 385 354.5 385ZM390 252H380.421C380.799 248.05 381 244.048 381 240V236.5H390.5C394.642 236.5 398 233.143 398 229C398 224.857 394.642 221.5 390.5 221.5H381V206H390C402.682 206 413 216.317 413 229C413 241.683 402.682 252 390 252ZM390 191H363.5C356.607 191 351 185.393 351 178.5V176H396V191.478C394.045 191.167 392.042 191 390 191ZM333 113.441L396 59.253V126H333V113.441ZM403.5 30C407.636 30 411 33.364 411 37.5C411 41.636 407.636 45 403.5 45C399.364 45 396 41.636 396 37.5C396 33.364 399.364 30 403.5 30ZM325.5 60.204L346.742 81.836L325.791 99.856L305.652 80.415L325.5 60.204ZM256 15C264.271 15 271 21.729 271 30C271 38.271 264.271 45 256 45C247.729 45 241 38.271 241 30C241 21.729 247.729 15 256 15ZM186.5 60.204L206.347 80.416L186.208 99.856L165.257 81.836L186.5 60.204ZM179 113.442V126H116V59.255L179 113.442ZM108.5 30C112.636 30 116 33.364 116 37.5C116 41.636 112.636 45 108.5 45C104.364 45 101 41.636 101 37.5C101 33.364 104.364 30 108.5 30ZM101 143.5C101 142.121 102.122 141 103.5 141H186.5C190.642 141 194 137.643 194 133.5V113.185L249.774 59.346C251.783 59.772 253.865 60 256 60C258.135 60 260.217 59.772 262.226 59.346L318 113.185V126H221.5C217.358 126 214 129.357 214 133.5C214 137.643 217.358 141 221.5 141H408.5C409.878 141 411 142.121 411 143.5V158.5C411 159.879 409.878 161 408.5 161H103.5C102.122 161 101 159.879 101 158.5V143.5ZM116 176H161V178.5C161 185.393 155.393 191 148.5 191H122C119.958 191 117.955 191.167 116 191.478V176ZM122 252C109.318 252 99 241.683 99 229C99 216.317 109.318 206 122 206H131V221.5H121.5C117.358 221.5 114 224.857 114 229C114 233.143 117.358 236.5 121.5 236.5H131V240C131 244.048 131.201 248.05 131.579 252H122ZM146 240V206H148.5C163.664 206 176 193.663 176 178.5V176H336V178.5C336 193.663 348.336 206 363.5 206H366V240C366 300.654 316.654 350 256 350C195.346 350 146 300.654 146 240ZM256 365C268.511 365 280.594 363.144 292 359.708V386.048C280.472 389.322 272 399.937 272 412.501V449.5C272 450.879 270.878 452 269.5 452H242.5C241.122 452 240 450.879 240 449.5V412.5C240 399.937 231.528 389.322 220 386.048V359.708C231.406 363.144 243.489 365 256 365ZM85 484.5V472.5C85 433.697 115.643 401.922 154 400.089V402.5C154 417.663 166.336 430 181.5 430H195V497H97.5C90.607 497 85 491.393 85 484.5ZM330.5 415H314.5C307.607 415 302 420.607 302 427.5V497H210V427.5C210 420.607 204.393 415 197.5 415H181.5C174.607 415 169 409.393 169 402.5V400H212.5C219.393 400 225 405.607 225 412.5V449.5C225 459.149 232.851 467 242.5 467H269.5C279.149 467 287 459.149 287 449.5V412.501C287 405.608 292.607 400 299.5 400H343V402.5C343 409.393 337.393 415 330.5 415Z" fill="black"/>
<path d="M297.221 327.173C308.697 325.236 318.24 317.223 322.127 306.258C323.228 303.15 322.655 299.754 320.594 297.174C318.532 294.593 315.342 293.278 312.072 293.67H312.071C303.195 294.714 300.82 289.429 299.915 286.918C298.05 278.274 295.799 271.15 293.223 265.737C290.119 259.217 284.316 254.383 277.302 252.475C269.748 250.417 261.98 251.994 256.002 256.411C250.024 251.995 242.252 250.421 234.702 252.474C227.686 254.383 221.883 259.218 218.78 265.737C216.203 271.15 213.953 278.274 212.088 286.918C211.183 289.43 208.81 294.716 199.93 293.67C196.66 293.281 193.469 294.593 191.408 297.173C189.347 299.754 188.775 303.15 189.876 306.259C193.762 317.223 203.306 325.237 214.781 327.173C217.032 327.553 219.287 327.737 221.529 327.737C235.239 327.737 248.359 320.809 256.002 309.227C264.892 322.702 281.193 329.878 297.221 327.173ZM248.247 292.947L244.16 299.877C238.692 309.148 227.889 314.172 217.276 312.382C213.951 311.821 210.931 310.303 208.534 308.095C216.903 306.162 223.294 300.343 226.401 291.429C226.505 291.132 226.589 290.828 226.655 290.521C228.296 282.808 230.202 276.638 232.322 272.184C233.544 269.618 235.846 267.709 238.639 266.949C242.819 265.812 247.344 267.582 249.64 271.255C251.011 273.447 253.414 274.779 255.999 274.779C258.584 274.779 260.988 273.447 262.358 271.255C264.654 267.583 269.178 265.807 273.36 266.95C276.152 267.71 278.454 269.618 279.676 272.185C281.796 276.638 283.703 282.808 285.343 290.521C285.408 290.829 285.493 291.131 285.597 291.429C288.704 300.344 295.094 306.162 303.464 308.095C301.068 310.303 298.047 311.822 294.723 312.382C284.113 314.172 273.306 309.148 267.839 299.878L263.753 292.949C262.17 290.262 259.271 288.658 255.999 288.658C252.727 288.658 249.829 290.263 248.247 292.947Z" fill="black"/>
<path d="M342 462C336.486 462 332 466.486 332 472C332 477.514 336.486 482 342 482C347.514 482 352 477.514 352 472C352 466.486 347.514 462 342 462Z" fill="black"/>
<path d="M170 462C164.486 462 160 466.486 160 472C160 477.514 164.486 482 170 482C175.514 482 180 477.514 180 472C180 466.486 175.514 462 170 462Z" fill="black"/>
</g>
<defs>
<clipPath id="clip0">
<rect width="512" height="512" fill="white"/>
</clipPath>
</defs>
</svg>
