<svg width="512" height="512" viewBox="0 0 512 512" fill="none" xmlns="http://www.w3.org/2000/svg">
<path d="M352 304H160C124.656 304 96 332.656 96 368V496H416V368C416 332.656 387.344 304 352 304Z" fill="#4D5D7A"/>
<path d="M256 416C264.837 416 272 405.255 272 392C272 378.745 264.837 368 256 368C247.163 368 240 378.745 240 392C240 405.255 247.163 416 256 416Z" fill="#F5B953"/>
<path d="M216 496L215.472 494.232C200.128 443.088 170.864 397.208 130.952 361.736L120 352V332.848C120 314.824 129.008 298 144 288L185.504 335.44C194.848 346.112 200 359.824 200 374.008C200 395.024 211.264 414.432 229.512 424.864L256 440L282.488 424.864C300.736 414.432 312 395.024 312 374.008C312 359.824 317.152 346.112 326.496 335.44L368 288C382.992 297.992 392 314.824 392 332.848V352L381.048 361.736C341.136 397.216 311.872 443.088 296.528 494.232L296 496" fill="#4472B2"/>
<path d="M312 16H200C173.488 16 152 37.488 152 64V96H360V64C360 37.488 338.512 16 312 16Z" fill="#976947"/>
<path d="M360 128V216C360 273.44 313.44 320 256 320C198.56 320 152 273.44 152 216V128" fill="#EFBE9A"/>
<path d="M152 152C134.328 152 120 166.328 120 184C120 201.672 134.328 216 152 216" fill="#DB9B7C"/>
<path d="M360 152C377.672 152 392 166.328 392 184C392 201.672 377.672 216 360 216" fill="#DB9B7C"/>
<path d="M256 320C313.44 320 360 273.44 360 216H349.104C336.304 216 324.736 223.632 319.688 235.392L304 272L299.968 269.312C286.952 260.632 271.648 256 256 256C240.352 256 225.048 260.632 212.032 269.312L208 272L192.312 235.392C187.272 223.632 175.704 216 162.896 216H152C152 273.44 198.56 320 256 320Z" fill="#8892A0"/>
<path d="M136 96H376V128H136V96Z" fill="#F5B953"/>
<path d="M360 96L368 16L296 64L256 16L216 64L144 16L152 96" fill="#F9D18B"/>
<path d="M256 328C194.24 328 144 277.76 144 216V128H160V216C160 268.936 203.064 312 256 312C308.936 312 352 268.936 352 216V128H368V216C368 277.76 317.76 328 256 328Z" fill="black"/>
<path d="M173.336 34.184L162.664 22.264C172.944 13.064 186.2 8 200 8H312C325.808 8 339.064 13.064 349.336 22.264L338.664 34.184C331.336 27.616 321.856 24 312 24H200C190.144 24 180.672 27.616 173.336 34.184Z" fill="black"/>
<path d="M152 224C129.944 224 112 206.056 112 184C112 161.944 129.944 144 152 144V160C138.768 160 128 170.768 128 184C128 197.232 138.768 208 152 208V224Z" fill="black"/>
<path d="M360 224V208C373.232 208 384 197.232 384 184C384 170.768 373.232 160 360 160V144C382.056 144 400 161.944 400 184C400 206.056 382.056 224 360 224Z" fill="black"/>
<path d="M272 160H328V176H272V160Z" fill="black"/>
<path d="M184 160H240V176H184V160Z" fill="black"/>
<path d="M248 200H264V232H248V200Z" fill="black"/>
<path d="M220 208C213.384 208 208 202.616 208 196C208 189.384 213.384 184 220 184C226.616 184 232 189.384 232 196C232 202.616 226.616 208 220 208Z" fill="black"/>
<path d="M292 208C285.384 208 280 202.616 280 196C280 189.384 285.384 184 292 184C298.616 184 304 189.384 304 196C304 202.616 298.616 208 292 208Z" fill="black"/>
<path d="M312 296H352V312H312V296Z" fill="black"/>
<path d="M416 504H96C91.584 504 88 500.416 88 496V368C88 344.864 99.232 322.992 118.032 309.488L127.368 322.488C112.736 332.992 104 350.008 104 368V488H408V368C408 350.008 399.264 332.992 384.624 322.488L393.96 309.488C412.768 323 424 344.864 424 368V496C424 500.416 420.416 504 416 504Z" fill="black"/>
<path d="M160 296H200V312H160V296Z" fill="black"/>
<path d="M256 360C229.528 360 208 338.472 208 312H224C224 329.648 238.352 344 256 344C273.648 344 288 329.648 288 312H304C304 338.472 282.472 360 256 360Z" fill="black"/>
<path d="M304 280C302.44 280 300.888 279.544 299.56 278.656L295.528 275.968C272.032 260.312 239.96 260.312 216.464 275.968L212.432 278.656C210.456 279.984 208.008 280.352 205.712 279.664C203.432 278.992 201.576 277.328 200.64 275.152L184.952 238.544C181.168 229.712 172.512 224 162.896 224H152V208H162.896C178.92 208 193.352 217.512 199.664 232.24L211.616 260.128C238.488 244.232 273.504 244.232 300.384 260.128L312.336 232.24C318.648 217.512 333.08 208 349.104 208H360V224H349.104C339.488 224 330.832 229.712 327.04 238.544L311.352 275.152C310.416 277.336 308.56 278.992 306.28 279.664C305.528 279.888 304.768 280 304 280Z" fill="black"/>
<path d="M376 136H136C131.584 136 128 132.416 128 128V96C128 91.584 131.584 88 136 88H376C380.416 88 384 91.584 384 96V128C384 132.416 380.416 136 376 136ZM144 120H368V104H144V120Z" fill="black"/>
<path d="M144.04 96.8002L136.04 16.8002C135.728 13.7202 137.224 10.7442 139.88 9.14422C142.536 7.55222 145.864 7.64022 148.44 9.34422L214.456 53.3522L249.856 10.8722L262.144 21.1122L222.144 69.1122C219.528 72.2642 214.968 72.9202 211.56 70.6482L153.64 32.0322L159.96 95.1922L144.04 96.8002Z" fill="black"/>
<path d="M367.96 96.8L352.04 95.208L358.36 32.048L300.44 70.664C297.048 72.936 292.472 72.28 289.856 69.128L249.856 21.128L262.144 10.888L297.544 53.368L363.56 9.35997C366.128 7.64797 369.464 7.55997 372.12 9.15997C374.776 10.752 376.272 13.736 375.96 16.816L367.96 96.8Z" fill="black"/>
<path d="M248 56H264V72H248V56Z" fill="black"/>
<path d="M240 280H272V296H240V280Z" fill="black"/>
<path d="M303.664 498.304L288.344 493.696L288.872 491.928C304.648 439.328 334.688 392.24 375.728 355.752L384 348.408V332.848C384 319.816 378.512 307.576 369.048 298.952L332.512 340.712C324.448 349.928 320 361.752 320 374.008C320 397.84 307.152 419.992 286.456 431.808L259.968 446.944C257.504 448.352 254.488 448.352 252.032 446.944L225.544 431.808C204.848 419.992 192 397.84 192 374.008C192 361.752 187.552 349.928 179.488 340.704L142.952 298.944C133.488 307.568 128 319.816 128 332.84V348.4L136.264 355.744C177.312 392.232 207.352 439.32 223.128 491.928L223.656 493.688L208.336 498.296L207.808 496.528C192.88 446.76 164.464 402.216 125.64 367.704L114.688 357.968C112.976 356.464 112 354.288 112 352V332.84C112 312.096 122.304 292.848 139.56 281.336C142.896 279.112 147.376 279.712 150.016 282.72L191.52 330.16C202.152 342.304 208 357.872 208 374.008C208 392.112 217.76 408.936 233.48 417.92L256 430.784L278.52 417.92C294.24 408.936 304 392.112 304 374.008C304 357.872 309.848 342.304 320.472 330.168L361.976 282.728C364.624 279.712 369.104 279.112 372.432 281.344C389.696 292.848 400 312.104 400 332.84V352C400 354.288 399.024 356.464 397.312 357.984L386.36 367.72C347.536 402.232 319.12 446.776 304.192 496.536L303.664 498.304Z" fill="black"/>
<path d="M256 424C242.544 424 232 409.944 232 392C232 374.056 242.544 360 256 360C269.456 360 280 374.056 280 392C280 409.944 269.456 424 256 424ZM256 376C252.736 376 248 382.232 248 392C248 401.768 252.736 408 256 408C259.264 408 264 401.768 264 392C264 382.232 259.264 376 256 376Z" fill="black"/>
<path d="M248 456H264V472H248V456Z" fill="black"/>
<path d="M144 328H160V344H144V328Z" fill="black"/>
<path d="M352 328H368V344H352V328Z" fill="black"/>
</svg>
