<svg width="512" height="512" viewBox="0 0 512 512" fill="none" xmlns="http://www.w3.org/2000/svg">
<path d="M416.673 356.315C405.629 345.271 405.629 327.365 416.673 316.321L416.679 316.315C427.723 305.271 427.723 287.365 416.679 276.321L396.676 256.318H256.011H115.324L95.3211 276.321C84.2771 287.365 84.2771 305.271 95.3211 316.315L95.3271 316.321C106.371 327.365 106.371 345.271 95.3271 356.315L95.3211 356.321C84.2771 367.365 84.2771 385.271 95.3211 396.315L95.3271 396.321C133.2 434.194 194.606 453.129 256.01 453.127C317.407 453.125 378.803 434.189 416.672 396.321L416.678 396.315C427.722 385.271 427.722 367.365 416.678 356.321L416.673 356.315Z" fill="#D6948C"/>
<path d="M115.324 256.318L95.3211 276.321C84.2771 287.365 84.2771 305.271 95.3211 316.315L95.3271 316.321C106.371 327.365 106.371 345.271 95.3271 356.315L95.3211 356.321C84.2771 367.365 84.2771 385.271 95.3211 396.315L95.3271 396.321C133.2 434.194 194.606 453.129 256.01 453.127V256.318H115.324Z" fill="#BD7669"/>
<path d="M296.709 390.472C294.175 389.565 291.601 388.743 288.993 388.004H237.607L200.938 424.674V504.501H377.085C377.085 452.475 343.905 407.368 296.709 390.472Z" fill="#FF8E9E"/>
<path d="M288.993 388.003C278.503 385.027 267.441 383.426 256.01 383.426C189.266 383.426 134.938 437.766 134.938 504.501H200.938C200.938 483.878 206.152 464.429 215.314 447.39C215.31 447.388 215.303 447.385 215.298 447.383C230.658 418.811 257.156 397.041 288.993 388.003Z" fill="#EA5B70"/>
<path d="M256.011 373.918C238.612 359.65 204.093 361.447 172.219 379.849C135.134 401.26 115.696 437.022 128.803 459.724C141.91 482.427 182.6 483.474 219.685 462.062C235.298 453.048 247.765 441.721 256.011 429.665V373.918Z" fill="#D4D4FF"/>
<path d="M339.803 379.85C307.929 361.447 273.41 359.651 256.011 373.919V429.666C264.257 441.722 276.724 453.049 292.337 462.063C329.422 483.474 370.112 482.428 383.219 459.726C396.326 437.023 376.888 401.261 339.803 379.85Z" fill="#EFEDFF"/>
<path d="M110.872 215.047C90.945 215.047 74.791 231.201 74.791 251.128C74.791 271.055 90.945 287.209 110.872 287.209C130.799 287.209 146.953 271.055 146.953 251.128C146.953 232.711 133.169 217.517 115.347 215.32C113.886 215.14 112.383 215.047 110.872 215.047Z" fill="#FFBF9D"/>
<path d="M401.128 215.047C399.62 215.047 398.133 215.14 396.674 215.32C378.849 217.515 365.047 232.709 365.047 251.128C365.047 271.055 381.201 287.209 401.128 287.209C421.055 287.209 437.209 271.055 437.209 251.128C437.209 231.201 421.055 215.047 401.128 215.047Z" fill="#FFBF9D"/>
<path d="M164.056 189.439L111.011 251.13L233.975 394.135H280.02C285.706 393.188 291.217 391.931 296.659 390.345C333.171 379.702 363.778 355.116 382.204 322.707V209.893L368.283 189.439H164.056Z" fill="#FFD4BD"/>
<path d="M159.077 251.13C159.077 229.065 164.006 208.158 172.817 189.439H143.727L129.806 209.893V322.707C154.739 366.573 201.948 396.129 256.009 396.129C264.198 396.129 272.201 395.439 280.019 394.135C211.379 382.683 159.077 323.021 159.077 251.13Z" fill="#FFBF9D"/>
<path d="M387.375 189.439H322.906C324.497 191.699 326.705 193.558 329.402 194.73L359.231 207.692C366.933 211.039 372.082 218.4 372.714 226.774C374.391 248.999 372.14 271.518 365.871 293.274C363.177 302.625 366.42 312.79 374.329 318.835C376.703 320.65 379.355 321.907 382.204 322.707C394.215 301.579 401.128 277.172 401.128 251.131C401.128 238.774 399.582 226.776 396.674 215.323C394.389 206.325 391.252 197.672 387.375 189.439Z" fill="#D6948C"/>
<path d="M115.348 215.322C112.435 226.774 110.873 238.769 110.873 251.13C110.873 277.173 117.794 301.577 129.807 322.706C132.663 321.908 135.314 320.653 137.693 318.834C145.602 312.789 148.845 302.624 146.151 293.273C139.882 271.518 137.632 248.998 139.308 226.773C139.94 218.399 145.089 211.038 152.791 207.691L182.62 194.729C185.318 193.557 187.526 191.698 189.117 189.438H124.648C120.767 197.675 117.635 206.328 115.348 215.322Z" fill="#BD7669"/>
<path d="M286.011 309.668H226.011C209.442 309.668 196.011 322.054 196.011 349.668C196.011 380.762 212.964 414.674 231.628 408.78C237.072 421.423 245.961 429.668 256.011 429.668C266.061 429.668 274.95 421.423 280.394 408.78C299.057 414.674 316.011 380.764 316.011 349.668C316.011 322.053 302.579 309.668 286.011 309.668Z" fill="#BD7669"/>
<path d="M303.881 294.694C296.995 294.694 290.538 291.74 285.677 286.864C282.063 283.239 277.066 280.996 271.543 280.996C265.268 280.996 259.672 283.892 256.011 288.419C252.35 283.893 246.754 280.996 240.479 280.996C234.956 280.996 229.959 283.239 226.345 286.864C221.483 291.74 215.026 294.694 208.141 294.694C205.042 294.694 202.732 297.536 203.337 300.575C206.07 314.302 218.184 324.648 232.714 324.648C242.126 324.648 250.52 320.303 256.011 313.514C261.502 320.303 269.896 324.648 279.308 324.648C293.838 324.648 305.952 314.302 308.685 300.575C309.29 297.536 306.98 294.694 303.881 294.694Z" fill="#D6948C"/>
<path d="M256.011 504.5C264.295 504.5 271.011 497.784 271.011 489.5C271.011 481.216 264.295 474.5 256.011 474.5C247.726 474.5 241.011 481.216 241.011 489.5C241.011 497.784 247.726 504.5 256.011 504.5Z" fill="#FFCE71"/>
<path d="M227.155 80.892C161.312 42.997 88.3696 117.916 128.011 182.722H256.011V97.5L227.155 80.892Z" fill="#EA5B70"/>
<path d="M284.867 80.892L256.011 97.5V182.723H384.011C423.652 117.916 350.709 42.997 284.867 80.892Z" fill="#FF8E9E"/>
<path d="M276 27.5H271V22.5C271 14.216 264.284 7.5 256 7.5C247.716 7.5 241 14.216 241 22.5V27.5H236C227.716 27.5 221 34.216 221 42.5C221 50.784 227.716 57.5 236 57.5H241V87.5H271V57.5H276C284.284 57.5 291 50.784 291 42.5C291 34.216 284.284 27.5 276 27.5Z" fill="#FFB357"/>
<path d="M256.011 73.5C239.443 73.5 226.011 86.932 226.011 103.5V156.695H286.011V103.5C286.011 86.932 272.579 73.5 256.011 73.5Z" fill="#FFCE71"/>
<path d="M395.733 160.51C360.89 145.72 323.737 136.677 286.01 133.455L263.263 141.303V185.957L285.348 193.634C315.234 196.634 344.7 204.031 372.288 215.741C380.429 219.196 389.24 218.779 396.672 215.321C403.165 212.3 408.606 206.959 411.625 199.848C418.1 184.596 410.985 166.984 395.733 160.51Z" fill="#FFCE71"/>
<path d="M268.848 163.564C268.848 151.209 275.394 139.769 286.011 133.455C275.647 132.57 265.208 132.098 254.8 132.098C206.507 132.098 160.702 141.658 116.288 160.51C101.037 166.984 93.9206 184.596 100.395 199.847C103.414 206.958 108.854 212.299 115.348 215.32C122.78 218.778 131.591 219.195 139.733 215.74C176.693 200.051 214.605 192.096 254.801 192.097C264.994 192.097 275.196 192.613 285.35 193.633C275.599 187.057 268.848 175.278 268.848 163.564Z" fill="#FFB357"/>
<path d="M430.142 283.629C439.4 275.364 444.709 263.534 444.709 251.129C444.709 232.588 432.89 215.67 414.659 209.724C427.65 191.272 421.453 165.793 401.935 155.189C410.63 94.017 343.864 38.28 280.233 74.906C279.668 74.426 279.093 73.958 278.5 73.512V64.862C289.734 63.614 298.5 54.062 298.5 42.5C298.5 30.896 289.67 21.314 278.375 20.125C277.186 8.83 267.604 0 256 0C244.396 0 234.814 8.83 233.625 20.125C222.33 21.314 213.5 30.896 213.5 42.5C213.5 54.062 222.266 63.614 233.5 64.862V73.529C232.915 73.97 232.347 74.432 231.788 74.905C204.994 59.479 177.217 59.9 153.614 72.359C149.951 74.293 148.549 78.83 150.482 82.493C152.415 86.156 156.953 87.558 160.616 85.625C179.433 75.693 201.612 75.264 222.426 86.844C219.925 91.866 218.51 97.52 218.51 103.501V126.446C186.494 129.706 155.024 137.286 124.507 149.109C123.141 131.818 129.158 115.332 139.752 102.591C142.4 99.406 141.965 94.677 138.781 92.029C135.597 89.382 130.868 89.815 128.219 93C114.019 110.076 106.81 132.431 110.079 155.192C90.65 165.752 84.318 191.194 97.357 209.718C79.101 215.664 67.29 232.595 67.29 251.129C67.29 263.534 72.599 275.363 81.858 283.63C76.89 296.611 79.858 311.461 90.023 321.626C98.125 329.729 98.125 342.912 90.017 351.02C76.066 364.971 76.066 387.67 90.023 401.626C98.844 410.448 109.125 418.486 120.633 425.593C116.01 438.305 115.625 451.902 122.307 463.475C124.576 467.406 127.551 470.858 131.162 473.805C128.696 483.823 127.437 494.122 127.437 504.5C127.437 508.642 130.795 512 134.937 512H377.083C381.226 512 384.583 508.642 384.583 504.5C384.583 494.149 383.32 483.857 380.848 473.827C383.178 471.926 385.248 469.809 387.027 467.492C389.55 464.208 388.934 459.499 385.649 456.975C382.365 454.451 377.656 455.068 375.132 458.353C358.45 480.066 301.836 470.826 268.786 433.81C274.97 430.458 280.48 424.704 284.723 416.99H284.851C296.01 416.989 306.533 408.157 314.138 392.134C320.044 389.698 325.772 386.894 331.295 383.755C351.833 394.403 373.812 414.016 378.872 436.048C379.799 440.086 383.821 442.606 387.859 441.68C391.896 440.753 394.418 436.729 393.491 432.692C392.953 430.347 392.236 427.972 391.37 425.587C402.875 418.481 413.155 410.443 421.98 401.618C435.93 387.668 435.93 364.969 421.974 351.012C413.871 342.91 413.871 329.727 421.979 321.618C432.142 311.46 435.11 296.61 430.142 283.629ZM429.709 251.129C429.709 265.012 419.707 276.901 406.003 279.277C409.564 260.341 409.434 241.197 406.026 222.951C419.455 225.234 429.709 237.067 429.709 251.129ZM387.514 149.118C357.658 137.634 325.8 130.042 293.511 126.645V103.5C293.511 97.52 292.097 91.867 289.597 86.846C338.564 59.639 391.189 101.111 387.514 149.118ZM241 50H236C231.864 50 228.5 46.636 228.5 42.5C228.5 38.364 231.864 35 236 35H241C245.142 35 248.5 31.642 248.5 27.5V22.5C248.5 18.364 251.864 15 256 15C260.136 15 263.5 18.364 263.5 22.5V27.5C263.5 31.642 266.858 35 271 35H276C280.136 35 283.5 38.364 283.5 42.5C283.5 46.636 280.136 50 276 50H271C266.858 50 263.5 53.358 263.5 57.5V66.753C261.079 66.26 258.575 66 256.011 66C253.439 66 250.928 66.261 248.5 66.757V57.5C248.5 53.358 245.142 50 241 50ZM233.511 103.5C233.511 91.093 243.604 81 256.011 81C268.418 81 278.511 91.093 278.511 103.5V125.37C270.611 124.86 262.7 124.598 254.801 124.598C247.683 124.598 240.587 124.835 233.511 125.255V103.5ZM120.343 166.951C163.384 149.495 204.27 139.597 254.801 139.597C300.832 139.597 346.562 148.382 391.622 166.925C405.043 172.396 409.347 186.023 404.724 196.917C399.83 208.448 386.55 213.645 375.221 208.836C300.729 177.216 214.584 175.821 136.803 208.836C125.469 213.648 112.193 208.442 107.3 196.917C102.704 186.092 106.919 172.39 120.343 166.951ZM320.912 372.357C322.613 364.904 323.511 357.189 323.511 349.667C323.511 331.082 317.992 319.907 311.853 313.22C313.802 309.809 315.242 306.054 316.04 302.04C317.572 294.352 311.7 287.194 303.88 287.194C299.183 287.194 294.604 285.196 290.987 281.569C281.408 271.96 266.64 270.995 256.01 278.301C245.385 270.999 230.618 271.954 221.033 281.568C217.417 285.196 212.838 287.193 208.14 287.193C200.316 287.193 194.45 294.356 195.981 302.038C196.78 306.051 198.219 309.807 200.169 313.218C194.03 319.905 188.511 331.081 188.511 349.666C188.511 357.203 189.412 364.931 191.119 372.396C170.579 361.391 153.026 345.263 140.337 325.612C151.699 318.154 157.129 304.281 153.358 291.195C147.369 270.412 145.159 248.926 146.787 227.337C146.992 224.624 147.892 222.08 149.393 219.881C219.175 192.145 295.691 193.53 362.641 219.897C364.135 222.093 365.032 224.631 365.236 227.338C366.865 248.926 364.654 270.412 358.665 291.197C354.894 304.287 360.318 318.163 371.674 325.612C358.995 345.233 341.45 361.349 320.912 372.357ZM211.479 302.018C218.968 301.229 226.034 297.798 231.657 292.158C236.886 286.912 245.503 287.352 250.179 293.135C253.181 296.848 258.846 296.84 261.842 293.135C266.519 287.352 275.135 286.913 280.365 292.159C285.988 297.799 293.053 301.23 300.542 302.018C294.834 318.584 272.97 322.557 261.842 308.796C258.841 305.084 253.176 305.09 250.179 308.796C239.067 322.537 217.197 318.615 211.479 302.018ZM135.298 455.975C124.154 436.674 144.112 402.746 180.692 383.773C186.231 386.923 191.977 389.734 197.902 392.175C205.538 408.238 216.128 417.094 227.298 416.99C231.541 424.705 237.051 430.459 243.235 433.811C208.877 472.289 149.505 480.582 135.298 455.975ZM105.976 222.951C102.521 241.437 102.478 260.581 106.006 279.309C92.62 277.041 82.291 265.238 82.291 251.128C82.291 237.085 92.529 225.236 105.976 222.951ZM100.63 361.62C114.58 347.67 114.581 324.971 100.624 311.014C95.433 305.822 93.477 298.524 95.045 291.712C101.578 294.257 108.848 295.292 116.297 294.364C120.776 293.807 123.754 289.44 122.638 285.067C117.751 265.926 116.924 245.41 120.878 224.922C124.727 225.666 128.323 225.787 131.92 225.412C129.923 245.147 131.944 271.06 138.943 295.35C141.066 302.718 137.399 310.622 130.224 314.146L126.499 315.975C122.622 317.878 121.152 322.661 123.285 326.413C134.101 345.442 148.892 361.854 166.423 374.582C149.806 384.579 135.959 397.865 127.262 412.037C117.256 405.739 108.307 398.697 100.624 391.014C92.522 382.911 92.522 369.728 100.63 361.62ZM248.511 489.5C248.511 485.364 251.875 482 256.011 482C260.147 482 263.511 485.364 263.511 489.5C263.511 493.636 260.147 497 256.011 497C251.875 497 248.511 493.636 248.511 489.5ZM367.192 481.369C368.268 486.523 368.987 491.744 369.336 497H277.221C278.054 494.653 278.511 492.129 278.511 489.5C278.511 477.093 268.418 467 256.011 467C243.604 467 233.511 477.093 233.511 489.5C233.511 492.129 233.969 494.653 234.801 497H142.684C143.031 491.737 143.747 486.514 144.818 481.366C179.245 493.604 229.294 473.325 256.011 441.977C282.825 473.437 332.871 493.56 367.192 481.369ZM282.652 401.626C278.982 400.467 275.027 402.276 273.505 405.812C269.096 416.052 262.556 422.166 256.011 422.166C249.466 422.166 242.926 416.052 238.517 405.812C236.995 402.275 233.04 400.468 229.37 401.626C218.598 405.036 203.512 378.107 203.512 349.666C203.512 338.683 205.809 330.163 210.191 324.592C223.935 334.946 242.783 334.566 256.012 324.024C269.217 334.547 288.064 334.965 301.834 324.592C306.215 330.163 308.512 338.683 308.512 349.666C308.511 378.07 293.444 405.038 282.652 401.626ZM411.369 311.019C397.419 324.97 397.419 347.669 411.375 361.625C419.478 369.728 419.478 382.911 411.369 391.019C403.695 398.694 394.753 405.731 384.753 412.027C376.051 397.852 362.196 384.563 345.572 374.566C363.115 361.837 377.911 345.429 388.723 326.412C390.859 322.659 389.385 317.88 385.513 315.975L381.76 314.13C374.607 310.613 370.955 302.714 373.077 295.349C380.123 270.896 382.083 244.95 380.099 225.404C383.774 225.787 387.49 225.628 391.125 224.927C394.869 244.356 394.513 264.895 389.365 285.068C388.249 289.443 391.229 293.807 395.707 294.365C402.687 295.232 409.979 294.429 416.955 291.711C418.523 298.523 416.566 305.823 411.369 311.019Z" fill="black"/>
<path d="M193.551 259C189.409 259 186.051 262.358 186.051 266.5V278.5C186.051 282.642 189.409 286 193.551 286C197.693 286 201.051 282.642 201.051 278.5V266.5C201.051 262.358 197.693 259 193.551 259Z" fill="black"/>
<path d="M318.449 259C314.307 259 310.949 262.358 310.949 266.5V278.5C310.949 282.642 314.307 286 318.449 286C322.591 286 325.949 282.642 325.949 278.5V266.5C325.949 262.358 322.591 259 318.449 259Z" fill="black"/>
<path d="M326.447 414.709C327.98 412.849 330.142 411.67 332.535 411.388C336.648 410.904 339.591 407.177 339.106 403.063C338.623 398.949 334.892 396.011 330.781 396.491C324.527 397.227 318.876 400.309 314.87 405.17C312.236 408.367 312.692 413.093 315.889 415.728C319.083 418.36 323.811 417.907 326.447 414.709Z" fill="black"/>
<path d="M304.87 426.168C303.338 428.027 301.176 429.207 298.782 429.488C294.668 429.972 291.726 433.699 292.21 437.813C292.692 441.91 296.4 444.867 300.535 444.385C306.791 443.649 312.442 440.566 316.447 435.705C319.081 432.508 318.624 427.782 315.427 425.147C312.231 422.516 307.504 422.972 304.87 426.168Z" fill="black"/>
<path d="M358.889 438.171C363.012 437.773 366.033 434.108 365.635 429.985C365.237 425.862 361.574 422.844 357.449 423.24C355.044 423.476 352.687 422.776 350.796 421.283C347.545 418.717 342.829 419.272 340.262 422.522C337.696 425.773 338.25 430.489 341.501 433.056C346.34 436.876 352.489 438.789 358.889 438.171Z" fill="black"/>
<path d="M333.869 457.636C336.268 457.403 338.629 458.099 340.521 459.593C343.772 462.161 348.489 461.604 351.054 458.355C353.621 455.104 353.067 450.388 349.816 447.821C344.873 443.917 338.693 442.101 332.427 442.706C328.304 443.104 325.284 446.769 325.682 450.893C326.082 455.015 329.747 458.029 333.869 457.636Z" fill="black"/>
<path d="M171.535 420.387C177.791 419.651 183.442 416.568 187.447 411.707C190.081 408.51 189.624 403.784 186.427 401.149C183.23 398.515 178.503 398.972 175.869 402.169C174.337 404.028 172.175 405.208 169.781 405.489C165.667 405.973 162.725 409.7 163.209 413.814C163.692 417.912 167.4 420.869 171.535 420.387Z" fill="black"/>
<path d="M204.382 448.45C208.833 448.45 212.28 444.621 211.856 440.229C211.625 437.831 212.319 435.468 213.813 433.576C216.379 430.325 215.825 425.609 212.573 423.042C209.321 420.475 204.606 421.03 202.039 424.282C198.136 429.226 196.32 435.402 196.925 441.67C197.3 445.549 200.564 448.45 204.382 448.45Z" fill="black"/>
<path d="M172.197 437.137C170.426 433.392 165.956 431.791 162.212 433.56C156.517 436.251 152.143 440.973 149.895 446.857C148.417 450.727 150.355 455.062 154.225 456.54C158.095 458.018 162.429 456.079 163.908 452.21C164.768 449.959 166.442 448.151 168.62 447.122C172.365 445.353 173.967 440.882 172.197 437.137Z" fill="black"/>
</svg>
