<svg width="512" height="512" viewBox="0 0 512 512" fill="none" xmlns="http://www.w3.org/2000/svg">
<g clip-path="url(#clip0)">
<path d="M476.676 504.499L463.774 410.156C460.611 387.025 444.463 367.756 422.241 360.598L256 307.045L89.7594 360.598C67.5371 367.756 51.3892 387.025 48.226 410.156L35.3242 504.499H476.676Z" fill="#5B5555"/>
<path d="M256.005 344.633L187.956 403.676L216.992 504.529L295.026 504.499L324.062 403.645L256.005 344.633Z" fill="#E0D3CE"/>
<path d="M427.812 504.5H476.678L463.774 410.149C460.618 387.023 444.463 367.759 422.247 360.601L395.919 352.123C405.009 361.277 411.116 373.302 412.938 386.6L427.812 504.5Z" fill="#444444"/>
<path d="M283.363 504.5L271.96 358.551H240.045L228.746 504.5H283.363Z" fill="#21C1F8"/>
<path d="M283.362 504.501H228.749L236.139 409.086L240.05 358.553H271.962L275.912 409.126L283.362 504.501Z" fill="#21C1F8"/>
<path d="M275.912 409.126L256.001 390.655L236.14 409.086L240.05 358.553H271.962L275.912 409.126Z" fill="#1FAAEE"/>
<path d="M256.002 307.047V363.369L201.49 413.941L177.965 332.18L256.002 307.047Z" fill="#F8F3F1"/>
<path d="M334.026 332.18L310.504 413.925L256.002 363.369V307.047L334.026 332.18Z" fill="#F8F3F1"/>
<path d="M302.091 290.068V317.279C302.091 342.734 281.455 363.37 256 363.37C230.544 363.37 209.909 342.734 209.909 317.279V290.068H302.091Z" fill="#A34F41"/>
<path d="M333.743 504.5L374.804 452.298C377.059 449.43 376.936 445.358 374.512 442.632L350.104 415.193L373.511 391.37C376.199 388.634 376.403 384.315 373.983 381.338L334.029 332.182L284.441 504.5H333.743Z" fill="#756F6F"/>
<path d="M137.197 452.298L178.257 504.5H227.558L177.971 332.184L138.018 381.339C135.599 384.316 135.802 388.636 138.49 391.372L161.896 415.194L137.489 442.634C135.064 445.358 134.941 449.429 137.197 452.298Z" fill="#756F6F"/>
<path d="M316.091 469.197C325.059 469.197 332.328 461.927 332.328 452.96C332.328 443.992 325.059 436.723 316.091 436.723C307.124 436.723 299.854 443.992 299.854 452.96C299.854 461.927 307.124 469.197 316.091 469.197Z" fill="#FCC16D"/>
<path d="M378.037 185.858H133.97V100.82C133.97 49.2805 175.751 7.5 227.29 7.5H284.716C336.256 7.5 378.036 49.2815 378.036 100.82V185.858H378.037Z" fill="#5B5555"/>
<path d="M378.038 100.825V185.86H345.936V100.825C345.936 49.2824 304.153 7.5 252.61 7.5H284.712C336.255 7.5 378.038 49.2824 378.038 100.825Z" fill="#444444"/>
<path d="M373.227 229.838C388.98 229.838 401.75 217.069 401.75 201.316C401.75 185.563 388.98 172.793 373.227 172.793H354.325V229.839H373.227V229.838Z" fill="#A34F41"/>
<path d="M138.78 229.838C123.028 229.838 110.258 217.069 110.258 201.316C110.258 185.563 123.028 172.793 138.78 172.793H157.683V229.839H138.78V229.838Z" fill="#A34F41"/>
<path d="M362.756 172.801V224.514C362.756 279.137 314.964 329.9 256 329.9C197.047 329.9 149.254 279.137 149.254 224.514V172.801L159.464 164.74C163.635 161.46 166.075 156.44 166.075 151.129V84.6745C166.075 63.7393 185.639 48.3054 205.999 53.1776L252.675 64.3483C254.861 64.8713 257.134 64.8733 259.32 64.3503C267.074 62.4962 287.147 57.6949 306.019 53.1826C326.377 48.3144 345.935 63.7483 345.935 84.6815V151.129C345.935 156.44 348.366 161.46 352.536 164.74L362.756 172.801Z" fill="#C86F5C"/>
<path d="M362.757 172.8V224.513C362.757 279.136 314.964 329.899 256.001 329.899C252.11 329.899 248.27 329.679 244.5 329.249C298.053 323.189 339.756 275.536 339.756 224.513V172.8L329.535 164.739C325.365 161.459 322.935 156.439 322.935 151.129V84.6848C322.935 70.414 313.854 58.7033 301.633 54.233C303.103 53.883 304.564 53.533 306.024 53.183C326.375 48.3127 345.936 63.7436 345.936 84.6848V151.129C345.936 156.439 348.366 161.459 352.536 164.739L362.757 172.8Z" fill="#BA5D4F"/>
<path d="M484.107 503.482L471.205 409.139C467.673 383.309 449.356 361.452 424.54 353.458L418.693 351.575C414.752 350.304 410.523 352.471 409.254 356.414C407.983 360.356 410.15 364.582 414.094 365.852L419.941 367.736C439.299 373.972 453.588 391.022 456.343 411.171L469.245 505.514C469.759 509.273 472.975 511.999 476.666 511.999C477.005 511.999 477.348 511.976 477.692 511.929C481.796 511.368 484.668 507.586 484.107 503.482Z" fill="black"/>
<path d="M369.432 237.344H373.228C393.09 237.344 409.251 221.18 409.251 201.312C409.251 185.771 399.357 172.498 385.538 167.458V100.821C385.538 80.7487 379.65 61.3576 368.512 44.7436C366.204 41.3034 361.546 40.3844 358.106 42.6905C354.666 44.9966 353.747 49.6569 356.053 53.0971C365.529 67.2309 370.538 83.7329 370.538 100.82V165.289C370.538 165.289 365.504 165.31 365.381 165.316L357.175 158.843C354.8 156.974 353.438 154.162 353.438 151.128V84.681C353.438 72.3923 347.905 60.9796 338.259 53.3681C328.612 45.7557 316.225 43.0295 304.277 45.8877L257.58 57.0553C256.548 57.3024 255.456 57.3014 254.424 57.0543L207.748 45.8837C195.795 43.0235 183.408 45.7487 173.759 53.3601C164.111 60.9716 158.577 72.3852 158.577 84.675V151.13C158.577 154.16 157.211 156.972 154.819 158.853L146.63 165.318C146.508 165.312 141.472 165.291 141.472 165.291V100.822C141.471 53.5001 179.97 15.0009 227.291 15.0009H284.718C302.101 15.0009 318.844 20.1732 333.135 29.9598C336.555 32.3009 341.222 31.4258 343.562 28.0086C345.902 24.5904 345.029 19.9232 341.611 17.582C324.812 6.07936 305.139 0 284.718 0H227.291C171.698 0 126.47 45.2287 126.47 100.821V167.459C112.653 172.5 102.762 185.772 102.762 201.312C102.762 221.18 118.922 237.344 138.785 237.344H142.58C145.641 261.362 157.145 284.734 175.19 302.966C181.212 309.051 187.744 314.382 194.667 318.923L87.46 353.459C62.6445 361.453 44.3274 383.309 40.7952 409.14L27.8935 503.483C27.3314 507.587 30.2046 511.369 34.3078 511.93C34.6539 511.977 34.9959 512 35.3339 512C39.0241 512 42.2413 509.274 42.7553 505.515L55.6571 411.172C58.4133 391.023 72.7011 373.974 92.0592 367.737L156.202 347.073L132.199 376.606C127.364 382.551 127.768 391.159 133.14 396.626L151.631 415.446L131.885 437.646C127.039 443.092 126.794 451.204 131.302 456.933L172.362 509.134C173.784 510.942 175.957 511.997 178.257 511.997C178.257 511.997 228.56 511.998 228.754 511.998C232.634 511.998 235.92 509.009 236.225 505.077L245.66 383.192L256.002 373.598L266.363 383.209L275.886 505.083C276.194 509.014 279.478 511.999 283.356 511.999H333.743C336.044 511.999 338.217 510.944 339.639 509.136L380.699 456.935C385.206 451.205 384.961 443.094 380.116 437.647L360.37 415.447L378.86 396.628C384.232 391.161 384.637 382.554 379.803 376.608L355.8 347.075L380.401 355.001C381.166 355.247 381.94 355.364 382.703 355.364C385.871 355.364 388.817 353.34 389.841 350.162C391.112 346.218 388.945 341.993 385.001 340.723L317.34 318.927C324.267 314.385 330.799 309.054 336.823 302.968C354.867 284.735 366.371 261.363 369.432 237.344ZM394.249 201.312C394.249 212.908 384.818 222.343 373.227 222.343H370.257V180.291H373.227C384.819 180.291 394.249 189.72 394.249 201.312ZM117.763 201.312C117.763 189.721 127.193 180.291 138.785 180.291H141.755V222.343H138.785C127.192 222.343 117.763 212.908 117.763 201.312ZM256 355.869C239.909 355.869 225.81 345.747 220.109 331.415C231.591 335.353 243.676 337.401 256.001 337.401C268.326 337.401 280.408 335.354 291.891 331.418C286.189 345.749 272.092 355.869 256 355.869ZM181.902 496.998L143.092 447.617L167.5 420.178C170.123 417.228 170.013 412.751 167.246 409.936L143.838 386.069L174.734 348.056L178.54 361.283C179.485 364.571 182.486 366.712 185.744 366.712C186.431 366.712 187.13 366.616 187.822 366.417C191.802 365.271 194.1 361.116 192.955 357.135L187.187 337.092L204.351 331.562C209.2 348.959 222.699 362.773 239.682 368.278L205.331 400.145L202.736 391.127C201.59 387.146 197.431 384.849 193.454 385.994C189.474 387.14 187.176 391.295 188.321 395.276L217.594 496.999H181.902V496.998ZM224.221 465.782L209.98 416.295L229.45 398.232L224.221 465.782ZM316.091 444.222C320.909 444.222 324.828 448.141 324.828 452.959C324.828 457.776 320.909 461.695 316.091 461.695C311.274 461.695 307.355 457.776 307.355 452.959C307.355 448.141 311.274 444.222 316.091 444.222ZM287.845 465.554L281.844 398.232L302.022 416.288L287.845 465.554ZM344.753 409.936C341.986 412.751 341.876 417.228 344.499 420.178L368.907 447.66L330.099 496.998H294.405L301.66 471.787C305.662 474.862 310.665 476.695 316.09 476.695C329.179 476.695 339.828 466.046 339.828 452.958C339.828 439.869 329.179 429.22 316.09 429.22C315.344 429.22 314.606 429.259 313.877 429.327L337.262 348.062L368.157 386.113L344.753 409.936ZM306.669 400.137L272.322 368.277C289.304 362.772 302.8 348.96 307.648 331.563L324.811 337.093L306.669 400.137ZM256.001 322.399C203.132 322.399 156.755 276.658 156.755 224.513V176.435L164.102 170.635C170.124 165.899 173.577 158.789 173.577 151.13V84.674C173.577 77.0065 177.029 69.8851 183.05 65.1358C189.069 60.3865 196.797 58.6854 204.255 60.4715L250.932 71.6422C254.247 72.4362 257.752 72.4362 261.068 71.6442L307.765 60.4765C315.221 58.6934 322.949 60.3945 328.966 65.1438C334.985 69.8931 338.437 77.0135 338.437 84.681V151.129C338.437 158.794 341.886 165.903 347.893 170.629L355.258 176.437V224.513C355.257 276.658 308.875 322.399 256.001 322.399Z" fill="black"/>
<path d="M205.705 179.086V182.413C205.705 186.555 209.062 189.913 213.206 189.913C217.349 189.913 220.706 186.555 220.706 182.413V179.086C220.706 174.944 217.349 171.586 213.206 171.586C209.062 171.586 205.705 174.944 205.705 179.086Z" fill="black"/>
<path d="M306.303 182.413V179.086C306.303 174.944 302.945 171.586 298.802 171.586C294.659 171.586 291.302 174.944 291.302 179.086V182.413C291.302 186.555 294.659 189.913 298.802 189.913C302.945 189.913 306.303 186.555 306.303 182.413Z" fill="black"/>
<path d="M320.629 146.992C294.757 138.473 277.073 152.89 276.332 153.508C273.153 156.163 272.728 160.893 275.383 164.072C276.866 165.849 278.997 166.766 281.145 166.766C282.84 166.766 284.545 166.194 285.949 165.023C286.066 164.925 297.885 155.295 315.938 161.24C319.869 162.536 324.112 160.396 325.408 156.463C326.702 152.528 324.564 148.288 320.629 146.992Z" fill="black"/>
<path d="M226.098 165.058C227.494 166.205 229.18 166.765 230.859 166.765C233.005 166.765 235.136 165.848 236.62 164.072C239.275 160.893 238.849 156.162 235.671 153.507C234.931 152.889 217.245 138.469 191.374 146.992C187.439 148.287 185.301 152.527 186.596 156.462C187.893 160.397 192.133 162.536 196.067 161.24C213.721 155.427 225.503 164.582 226.098 165.058Z" fill="black"/>
<path d="M280.394 265.376C273.039 266.369 264.603 266.895 256.001 266.895C247.398 266.895 238.964 266.369 231.607 265.376C227.506 264.826 223.724 267.7 223.17 271.806C222.616 275.911 225.494 279.688 229.599 280.242C237.61 281.323 246.739 281.895 256 281.895C265.26 281.895 274.391 281.323 282.4 280.242C286.505 279.688 289.383 275.911 288.83 271.806C288.277 267.702 284.511 264.824 280.394 265.376Z" fill="black"/>
<path d="M258.739 290.975H253.262C249.119 290.975 245.762 294.333 245.762 298.475C245.762 302.617 249.119 305.975 253.262 305.975H258.739C262.883 305.975 266.24 302.617 266.24 298.475C266.24 294.333 262.883 290.975 258.739 290.975Z" fill="black"/>
<path d="M236.064 222.374C240.928 226.942 248.195 229.562 256.003 229.562C263.811 229.562 271.079 226.942 275.942 222.373C278.962 219.537 279.11 214.79 276.274 211.771C273.437 208.752 268.69 208.605 265.671 211.44C264.065 212.949 260.682 214.561 256.003 214.561C251.325 214.561 247.94 212.949 246.334 211.439C243.313 208.604 238.567 208.753 235.732 211.772C232.896 214.792 233.045 219.538 236.064 222.374Z" fill="black"/>
</g>
<defs>
<clipPath id="clip0">
<rect width="512" height="512" fill="white"/>
</clipPath>
</defs>
</svg>
