<svg width="512" height="512" viewBox="0 0 512 512" fill="none" xmlns="http://www.w3.org/2000/svg">
<g clip-path="url(#clip0)">
<path d="M491.196 473.726V504.121H21.29V473.726C21.29 415.872 66.8986 364.22 123.195 364.22L187.508 358.208C193.669 357.181 199.424 354.388 204.11 350.15C208.796 345.912 212.223 340.402 213.998 334.252L219.941 313.562H292.546L298.489 334.252C300.263 340.402 303.691 345.912 308.377 350.15C313.063 354.388 318.817 357.181 324.978 358.208L389.291 364.22C445.588 364.22 491.196 415.872 491.196 473.726V473.726Z" fill="#FCB740"/>
<path d="M392.11 364.22L329.577 358.208C323.586 357.181 317.991 354.388 313.434 350.15C308.878 345.912 305.546 340.402 303.82 334.252L298.041 313.562H262.743V504.121H491.196V473.726C491.196 415.872 446.849 364.22 392.11 364.22V364.22Z" fill="#FC8800"/>
<path d="M192.102 358.212L213.194 431.311L249.743 413.836L214.303 334.256C212.816 340.404 209.943 345.913 206.016 350.151C202.089 354.388 197.266 357.182 192.102 358.212V358.212Z" fill="#FFFFED"/>
<path d="M318.581 357.867L297.221 431.311L262.743 413.837L297.767 333.433C299.107 339.453 301.752 344.91 305.42 349.215C309.087 353.52 313.638 356.511 318.581 357.867V357.867Z" fill="#FFF0C3"/>
<path d="M219.31 334.256L292.92 333.456L256.224 413.855L219.31 334.256Z" fill="#FFC373"/>
<path d="M265.481 338.413H247.005C218.219 338.413 190.611 326.346 170.256 304.868C149.901 283.389 138.466 254.258 138.466 223.883V148.555C138.466 115.594 150.874 83.9839 172.962 60.6773C195.05 37.3708 225.007 24.2773 256.243 24.2773C287.48 24.2773 317.437 37.3708 339.524 60.6773C361.612 83.9839 374.021 115.594 374.021 148.555V223.883C374.021 254.258 362.585 283.389 342.23 304.868C321.875 326.346 294.268 338.413 265.481 338.413V338.413Z" fill="#FFDAA8"/>
<path d="M271.472 338.413C284.939 338.413 298.274 335.45 310.716 329.694C323.158 323.938 334.463 315.502 343.986 304.866C353.509 294.231 361.062 281.604 366.216 267.708C371.369 253.813 374.021 238.919 374.021 223.879V148.555C374.021 115.594 362.297 83.9839 341.428 60.6773C320.56 37.3708 292.256 24.2773 262.743 24.2773V338.413H271.472Z" fill="#FFC373"/>
<path d="M152.12 360.674L116.562 364.239C63.924 364.239 21.29 415.867 21.29 473.712V504.111H152.12V360.674Z" fill="#FFFFED"/>
<path d="M360.366 360.674L395.925 364.239C448.541 364.239 491.197 415.843 491.197 473.712V504.111H360.366V360.674Z" fill="#FFF0C3"/>
<path d="M111.404 206.404C111.406 213.58 112.888 220.461 115.525 225.534C118.162 230.607 121.737 233.457 125.466 233.457V179.338C123.619 179.338 121.79 180.038 120.084 181.398C118.378 182.759 116.828 184.752 115.522 187.266C114.216 189.779 113.18 192.763 112.474 196.047C111.767 199.331 111.404 202.85 111.404 206.404V206.404Z" fill="#FFDAA8"/>
<path d="M401.082 206.404C401.082 199.227 399.601 192.344 396.964 187.269C394.327 182.194 390.75 179.343 387.021 179.343V233.457C390.749 233.457 394.325 230.607 396.962 225.534C399.599 220.461 401.081 213.58 401.082 206.404V206.404Z" fill="#FFC373"/>
<path d="M254.15 270.948C253.356 270.948 252.581 270.425 251.931 269.452L248.225 263.923C247.577 262.953 247.082 261.584 246.809 259.998C246.535 258.412 246.495 256.686 246.694 255.05L250.393 224.675C250.663 222.573 251.31 220.783 252.194 219.693C253.078 218.602 254.128 218.297 255.116 218.846C256.104 219.394 256.952 220.751 257.474 222.623C257.997 224.494 258.153 226.73 257.909 228.846L254.891 253.649L256.38 255.874C257.058 256.885 257.566 258.33 257.832 259.999C258.097 261.669 258.106 263.476 257.858 265.157C257.609 266.838 257.115 268.307 256.449 269.348C255.782 270.39 254.977 270.95 254.15 270.948V270.948Z" fill="#FF9F60"/>
<path d="M257.281 302.986C249.623 302.998 241.996 301.768 234.592 299.326C232.922 298.69 231.519 297.258 230.689 295.341C229.858 293.424 229.666 291.176 230.155 289.084C230.643 286.992 231.773 285.224 233.299 284.163C234.825 283.103 236.624 282.835 238.307 283.418C249.998 287.241 262.278 287.262 273.977 283.48C275.633 282.909 277.402 283.161 278.912 284.184C280.423 285.206 281.556 286.919 282.076 288.962C282.595 291.005 282.459 293.22 281.697 295.141C280.935 297.063 279.605 298.54 277.988 299.264C271.278 301.813 264.295 303.068 257.281 302.986V302.986Z" fill="#FF9F60"/>
<path d="M100.137 464.968V504.121H96.5664V464.968C96.5664 462.77 96.7545 460.663 97.0893 459.109C97.424 457.556 97.8781 456.683 98.3516 456.683C98.825 456.683 99.2791 457.556 99.6139 459.109C99.9486 460.663 100.137 462.77 100.137 464.968V464.968Z" fill="#FFF0C3"/>
<path d="M415.92 464.968V504.121H412.35V464.968C412.35 462.77 412.538 460.663 412.872 459.109C413.207 457.556 413.661 456.683 414.135 456.683C414.608 456.683 415.062 457.556 415.397 459.109C415.732 460.663 415.92 462.77 415.92 464.968Z" fill="#FFFFED"/>
<path d="M208.454 242.244C217.666 242.244 225.133 231.866 225.133 219.064C225.133 206.263 217.666 195.885 208.454 195.885C199.242 195.885 191.774 206.263 191.774 219.064C191.774 231.866 199.242 242.244 208.454 242.244Z" fill="#98F8FF"/>
<path d="M304.032 242.244C313.244 242.244 320.712 231.866 320.712 219.064C320.712 206.263 313.244 195.885 304.032 195.885C294.82 195.885 287.353 206.263 287.353 219.064C287.353 231.866 294.82 242.244 304.032 242.244Z" fill="#01D9E0"/>
<path d="M380.585 171.389C379.282 169.672 377.384 168.569 375.308 168.323C373.232 168.077 371.148 168.708 369.514 170.078L328.278 204.672C326.002 199.992 322.646 195.989 318.516 193.028C314.387 190.067 309.616 188.244 304.642 187.726C299.669 187.207 294.651 188.01 290.049 190.061C285.447 192.112 281.408 195.345 278.303 199.464C263.82 195.211 248.515 195.139 233.997 199.256C230.85 195.161 226.775 191.963 222.145 189.958C217.516 187.953 212.482 187.204 207.505 187.78C202.529 188.356 197.77 190.239 193.666 193.255C189.563 196.271 186.246 200.324 184.022 205.041L142.786 172.696C141.111 171.377 139.006 170.813 136.935 171.126C134.864 171.439 132.996 172.605 131.742 174.367C130.488 176.129 129.951 178.342 130.249 180.52C130.547 182.698 131.656 184.662 133.331 185.98L181.186 223.486C181.705 227.604 182.996 231.573 184.983 235.163C186.97 238.753 189.614 241.893 192.762 244.402C195.91 246.911 199.5 248.739 203.325 249.78C207.149 250.821 211.131 251.055 215.042 250.468C218.952 249.881 222.714 248.484 226.108 246.359C229.502 244.234 232.462 241.423 234.816 238.087C237.171 234.752 238.874 230.959 239.826 226.927C240.778 222.896 240.96 218.706 240.363 214.6C250.801 212.096 261.653 212.212 272.041 214.936C270.984 223.198 273.092 231.563 277.9 238.191C282.709 244.819 289.824 249.167 297.681 250.278C305.538 251.389 313.493 249.173 319.796 244.116C326.099 239.06 330.233 231.578 331.29 223.316L379.32 183.036C380.131 182.358 380.807 181.52 381.309 180.568C381.811 179.616 382.13 178.57 382.248 177.488C382.365 176.406 382.279 175.311 381.994 174.264C381.708 173.218 381.23 172.241 380.585 171.389ZM210.797 233.958C207.995 233.958 205.257 233.085 202.928 231.448C200.598 229.812 198.783 227.486 197.711 224.764C196.639 222.042 196.358 219.048 196.905 216.158C197.451 213.269 198.8 210.615 200.781 208.532C202.762 206.449 205.286 205.031 208.034 204.456C210.781 203.881 213.629 204.176 216.217 205.304C218.805 206.431 221.017 208.34 222.574 210.789C224.13 213.239 224.961 216.118 224.961 219.064C224.957 223.013 223.464 226.799 220.808 229.592C218.153 232.384 214.552 233.955 210.797 233.958V233.958ZM301.693 233.958C298.891 233.958 296.153 233.085 293.823 231.448C291.494 229.812 289.679 227.486 288.607 224.764C287.535 222.042 287.254 219.048 287.801 216.158C288.347 213.269 289.696 210.615 291.677 208.532C293.658 206.449 296.182 205.031 298.929 204.456C301.677 203.881 304.525 204.176 307.113 205.304C309.701 206.431 311.913 208.34 313.469 210.789C315.026 213.239 315.857 216.118 315.857 219.064C315.853 223.013 314.36 226.799 311.704 229.592C309.049 232.384 305.448 233.955 301.693 233.958V233.958Z" fill="#28092D"/>
<path d="M151.862 109.98C153.04 104.313 153.024 98.412 151.816 92.7536C150.608 87.0953 148.242 81.8384 144.908 77.4082C141.575 72.9779 137.368 69.4986 132.628 67.2517C127.889 65.0048 122.748 64.0532 117.624 64.474C112.499 64.8948 107.534 66.6761 103.129 69.6739C98.725 72.6718 95.005 76.8019 92.2704 81.7304C89.5357 86.6589 87.8632 92.2474 87.3879 98.044C86.9126 103.841 87.648 109.683 89.5346 115.097C85.0304 117.444 81.117 121.033 78.1522 125.535C75.1873 130.037 73.2656 135.309 72.5625 140.87C71.8595 146.43 72.3975 152.102 74.1275 157.366C75.8574 162.63 78.7242 167.319 82.4657 171.005C86.2073 174.69 90.7043 177.254 95.546 178.463C100.388 179.672 105.419 179.487 110.182 177.925C114.944 176.362 119.284 173.473 122.807 169.52C126.33 165.567 128.922 160.677 130.346 155.297C132.973 158.101 136.133 160.183 139.584 161.381C143.034 162.579 146.682 162.861 150.244 162.206C153.806 161.55 157.187 159.975 160.125 157.602C163.064 155.228 165.481 152.121 167.189 148.519C168.898 144.917 169.851 140.919 169.977 136.832C170.103 132.746 169.397 128.682 167.913 124.955C166.43 121.227 164.21 117.936 161.424 115.337C158.639 112.738 155.362 110.9 151.849 109.965L151.862 109.98Z" fill="#FFFFED"/>
<path d="M360.625 109.98C359.447 104.313 359.463 98.412 360.671 92.7536C361.879 87.0953 364.245 81.8384 367.578 77.4082C370.911 72.9779 375.118 69.4986 379.858 67.2517C384.598 65.0048 389.738 64.0532 394.863 64.474C399.987 64.8948 404.953 66.6761 409.357 69.6739C413.761 72.6718 417.481 76.8019 420.216 81.7304C422.951 86.6589 424.623 92.2474 425.099 98.044C425.574 103.841 424.838 109.683 422.952 115.097C427.456 117.444 431.369 121.033 434.334 125.535C437.299 130.037 439.221 135.309 439.924 140.87C440.627 146.43 440.089 152.102 438.359 157.366C436.629 162.63 433.762 167.319 430.021 171.005C426.279 174.69 421.782 177.254 416.94 178.463C412.099 179.672 407.067 179.487 402.305 177.925C397.543 176.362 393.202 173.473 389.679 169.52C386.157 165.567 383.565 160.677 382.14 155.297C379.514 158.101 376.353 160.183 372.903 161.381C369.452 162.579 365.805 162.861 362.243 162.206C358.681 161.55 355.3 159.975 352.361 157.602C349.423 155.228 347.006 152.121 345.297 148.519C343.589 144.917 342.635 140.919 342.509 136.832C342.384 132.746 343.09 128.682 344.573 124.955C346.056 121.227 348.276 117.936 351.062 115.337C353.848 112.738 357.124 110.9 360.637 109.965L360.625 109.98Z" fill="#FFF0C3"/>
<path d="M389.776 355.954L326.087 349.993C322.624 349.361 319.327 347.995 316.407 345.98C313.488 343.966 311.01 341.348 309.132 338.295C316.305 335.449 323.192 331.895 329.697 327.685C330.593 327.103 331.367 326.345 331.978 325.455C332.588 324.566 333.021 323.561 333.253 322.5C333.485 321.438 333.512 320.34 333.33 319.268C333.149 318.196 332.764 317.171 332.197 316.251C331.63 315.332 330.892 314.537 330.025 313.91C329.159 313.284 328.18 312.839 327.146 312.601C326.112 312.362 325.043 312.335 323.998 312.522C322.954 312.708 321.956 313.103 321.061 313.685C304.51 324.448 285.318 330.151 265.727 330.128H246.752C219.317 330.095 193.014 318.891 173.615 298.972C154.215 279.053 143.303 252.048 143.273 223.879V195.847L179.392 223.486C179.924 227.604 181.246 231.573 183.281 235.163C185.316 238.753 188.024 241.893 191.249 244.402C194.473 246.911 198.15 248.739 202.067 249.78C205.983 250.822 210.062 251.055 214.067 250.468C218.073 249.881 221.925 248.484 225.401 246.359C228.877 244.234 231.909 241.423 234.32 238.087C236.732 234.752 238.476 230.959 239.451 226.927C240.426 222.896 240.613 218.706 240.001 214.6C250.692 212.096 261.806 212.212 272.445 214.936C271.909 219.027 272.163 223.186 273.193 227.176C274.223 231.166 276.008 234.909 278.446 238.191C280.885 241.473 283.929 244.229 287.405 246.303C290.881 248.377 294.721 249.728 298.706 250.278C306.753 251.389 314.9 249.173 321.356 244.116C324.552 241.613 327.237 238.487 329.257 234.918C331.277 231.349 332.592 227.407 333.128 223.316L356.359 204.293C358.034 202.923 359.111 200.926 359.353 198.741C359.594 196.556 358.98 194.362 357.646 192.642C356.311 190.921 354.366 189.816 352.238 189.568C350.11 189.32 347.973 189.951 346.298 191.321L330.025 204.672C327.694 199.992 324.256 195.989 320.027 193.028C315.797 190.067 310.911 188.244 305.817 187.726C300.723 187.207 295.584 188.011 290.871 190.061C286.157 192.112 282.021 195.345 278.841 199.464C264.008 195.211 248.332 195.139 233.463 199.256C230.24 195.161 226.066 191.963 221.324 189.958C216.583 187.953 211.427 187.204 206.33 187.78C201.233 188.356 196.359 190.239 192.156 193.255C187.953 196.271 184.557 200.324 182.279 205.041L143.273 175.181V169.476C143.794 169.628 144.306 169.813 144.832 169.95C152.981 171.907 161.546 170.712 168.892 166.596C176.238 162.479 181.849 155.728 184.654 147.632C187.459 139.536 187.261 130.663 184.097 122.708C180.934 114.753 175.027 108.273 167.505 104.507C168 96.9204 166.612 89.3293 163.47 82.4444C172.633 68.8811 184.51 57.4828 198.309 49.0115C212.107 40.5402 227.508 35.1912 243.481 33.3223C259.455 31.4534 275.633 33.1075 290.934 38.1742C306.235 43.2408 320.306 51.6032 332.206 62.702C333.792 64.1621 335.877 64.9187 338.004 64.8069C340.132 64.695 342.131 63.7238 343.564 62.105C344.996 60.4863 345.748 58.3514 345.654 56.1661C345.559 53.9808 344.627 51.9224 343.06 50.44C329.812 38.08 314.205 28.6849 297.229 22.8515C280.254 17.0181 262.283 14.8742 244.457 16.5559C226.631 18.2376 209.341 23.7082 193.686 32.62C178.03 41.5318 164.352 53.6899 153.519 68.3217C146.188 61.2924 136.745 57.0341 126.743 56.2472C116.742 55.4604 106.777 58.1919 98.4883 63.9924C90.1996 69.7929 84.0805 78.317 81.1375 88.1627C78.1944 98.0085 78.6026 108.589 82.295 118.165C83.0832 120.208 84.6295 121.846 86.5938 122.718C88.5581 123.591 90.7795 123.626 92.7692 122.817C94.759 122.008 96.3541 120.42 97.2038 118.403C98.0534 116.386 98.0879 114.106 97.2997 112.063C95.6858 107.859 95.0579 103.324 95.4665 98.8251C95.8752 94.326 97.3091 89.9888 99.6523 86.1639C101.996 82.3391 105.182 79.1338 108.955 76.8073C112.728 74.4808 116.981 73.0983 121.37 72.7715C125.76 72.4446 130.163 73.1827 134.223 74.926C138.283 76.6692 141.887 79.3688 144.743 82.8065C147.599 86.2443 149.628 90.3237 150.664 94.7152C151.701 99.1066 151.717 103.687 150.711 108.086C150.226 110.22 150.585 112.464 151.708 114.328C152.832 116.191 154.628 117.522 156.705 118.028C159.381 118.668 161.877 119.932 164.001 121.722C166.124 123.513 167.817 125.781 168.949 128.351C170.081 130.922 170.621 133.725 170.527 136.545C170.433 139.364 169.708 142.123 168.409 144.608C167.109 147.094 165.269 149.238 163.032 150.876C160.795 152.513 158.22 153.6 155.508 154.051C152.796 154.502 150.019 154.306 147.393 153.478C144.766 152.65 142.361 151.211 140.363 149.275C139.362 148.304 138.135 147.613 136.8 147.266C135.465 146.92 134.066 146.93 132.735 147.296C131.405 147.662 130.188 148.371 129.2 149.357C128.213 150.342 127.487 151.57 127.092 152.925C125.216 159.195 121.045 164.474 115.457 167.653C109.869 170.833 103.299 171.664 97.1257 169.974C90.9529 168.284 85.6584 164.203 82.3545 158.589C79.0507 152.975 77.9947 146.264 79.4084 139.868C79.8646 137.741 79.487 135.516 78.3574 133.673C77.2279 131.83 75.4371 130.518 73.3724 130.02C71.3077 129.522 69.1352 129.879 67.3248 131.013C65.5144 132.147 64.2116 133.967 63.6982 136.08C62.2903 142.235 62.2555 148.637 63.5963 154.807C64.9371 160.977 67.6189 166.757 71.4412 171.713C75.2636 176.67 80.1276 180.675 85.6697 183.43C91.2119 186.185 97.2888 187.619 103.446 187.623C104.369 187.623 105.291 187.505 106.213 187.439C103.201 192.268 101.381 197.778 100.91 203.492C100.44 209.207 101.334 214.952 103.514 220.232C105.694 225.512 109.095 230.166 113.422 233.792C117.749 237.418 122.872 239.906 128.347 241.041C131.348 262.618 139.874 282.991 153.053 300.078C166.232 317.165 183.593 330.355 203.361 338.299C201.483 341.352 199.005 343.968 196.086 345.981C193.168 347.995 189.872 349.361 186.41 349.993L122.716 355.954C98.9669 356.128 75.9772 364.568 57.5054 379.896C55.8275 381.261 54.7464 383.254 54.5 385.437C54.2535 387.62 54.8619 389.815 56.1912 391.538C57.5206 393.26 59.462 394.37 61.5885 394.623C63.7149 394.876 65.8522 394.252 67.5301 392.887C83.2582 379.802 102.865 372.62 123.108 372.529C123.353 372.529 123.597 372.529 123.842 372.496L181.942 367.056L205.03 434.081C205.391 435.127 205.953 436.087 206.683 436.906C207.412 437.725 208.294 438.385 209.277 438.848C210.26 439.31 211.323 439.565 212.403 439.598C213.483 439.63 214.559 439.44 215.567 439.037L248.191 425.985V504.102C248.191 506.299 249.041 508.407 250.554 509.961C252.067 511.514 254.12 512.387 256.26 512.387C258.4 512.387 260.453 511.514 261.966 509.961C263.479 508.407 264.33 506.299 264.33 504.102V426.217L294.593 439C295.604 439.426 296.689 439.637 297.783 439.62C298.876 439.602 299.955 439.357 300.953 438.898C301.951 438.439 302.848 437.777 303.588 436.951C304.329 436.125 304.899 435.154 305.263 434.095L328.415 366.867L343.268 368.259V504.135C343.268 506.333 344.118 508.44 345.631 509.994C347.145 511.547 349.197 512.42 351.338 512.42C353.478 512.42 355.53 511.547 357.044 509.994C358.557 508.44 359.407 506.333 359.407 504.135V369.75L388.679 372.491C388.923 372.491 389.167 372.524 389.412 372.524C440.333 372.524 483.355 418.864 483.355 473.712V504.116C483.355 506.314 484.205 508.421 485.718 509.975C487.232 511.528 489.284 512.401 491.424 512.401C493.565 512.401 495.617 511.528 497.13 509.975C498.644 508.421 499.494 506.314 499.494 504.116V473.712C499.485 410.011 449.283 356.176 389.776 355.954V355.954ZM302.796 204.17C305.665 204.17 308.47 205.043 310.855 206.68C313.241 208.317 315.1 210.643 316.198 213.364C317.296 216.086 317.584 219.081 317.024 221.97C316.464 224.859 315.082 227.513 313.054 229.596C311.025 231.679 308.44 233.098 305.626 233.672C302.812 234.247 299.895 233.952 297.244 232.825C294.594 231.697 292.328 229.788 290.734 227.339C289.14 224.89 288.289 222.01 288.289 219.064C288.293 215.115 289.822 211.329 292.542 208.536C295.262 205.744 298.95 204.174 302.796 204.17V204.17ZM209.701 204.17C212.57 204.17 215.375 205.043 217.761 206.68C220.146 208.317 222.006 210.643 223.104 213.364C224.202 216.086 224.489 219.081 223.929 221.97C223.369 224.859 221.988 227.513 219.959 229.596C217.93 231.679 215.345 233.098 212.531 233.672C209.717 234.247 206.801 233.952 204.15 232.825C201.499 231.697 199.233 229.788 197.639 227.339C196.045 224.89 195.195 222.01 195.195 219.064C195.198 215.115 196.728 211.329 199.448 208.536C202.167 205.744 205.855 204.174 209.701 204.17V204.17ZM116.916 206.405C116.926 202.909 117.888 199.486 119.694 196.523C121.5 193.559 124.077 191.174 127.134 189.635V223.169C124.078 221.631 121.501 219.246 119.695 216.283C117.89 213.321 116.927 209.899 116.916 206.405V206.405ZM217.453 420.465L197.864 363.614C204.089 360.957 209.591 356.786 213.897 351.461L244.769 409.575L217.453 420.465ZM292.863 420.318L267.456 409.604L284.301 376.151C284.802 375.183 285.111 374.123 285.21 373.031C285.31 371.94 285.197 370.839 284.879 369.793C284.561 368.746 284.044 367.775 283.357 366.935C282.671 366.096 281.829 365.404 280.881 364.901C279.933 364.397 278.896 364.092 277.832 364.003C276.768 363.914 275.697 364.042 274.682 364.381C273.667 364.72 272.727 365.262 271.917 365.977C271.107 366.691 270.444 367.563 269.964 368.543L256.048 396.177L229.04 345.339C234.908 346.242 240.833 346.696 246.766 346.698H265.754C275.085 346.674 284.381 345.532 293.454 343.294C297.569 351.813 304.334 358.681 312.678 362.809L292.863 420.318Z" fill="#28092D"/>
<path d="M32.1409 424.536C31.16 424.124 30.1096 423.914 29.0497 423.919C27.9898 423.924 26.9412 424.143 25.9639 424.564C24.9866 424.986 24.0998 425.601 23.3541 426.374C22.6085 427.147 22.0186 428.064 21.6183 429.072C15.9404 443.233 13.0128 458.398 13 473.712V504.116C13 506.314 13.8502 508.421 15.3635 509.975C16.8768 511.528 18.9294 512.401 21.0695 512.401C23.2097 512.401 25.2622 511.528 26.7755 509.975C28.2889 508.421 29.139 506.314 29.139 504.116V473.712C29.156 460.555 31.6763 447.528 36.5584 435.364C36.9622 434.355 37.1683 433.275 37.1647 432.184C37.1612 431.094 36.9482 430.015 36.5378 429.009C36.1275 428.003 35.5279 427.09 34.7734 426.323C34.0189 425.555 33.1243 424.948 32.1409 424.536Z" fill="#28092D"/>
<path d="M48.2525 399.875C46.5455 398.549 44.3958 397.973 42.2756 398.274C40.1555 398.575 38.2385 399.728 36.9459 401.48C36.162 402.55 35.3966 403.62 34.6403 404.718C33.9765 405.603 33.4939 406.618 33.2216 407.699C32.9492 408.781 32.8929 409.908 33.0558 411.013C33.2187 412.118 33.5976 413.177 34.1697 414.128C34.7417 415.078 35.4951 415.9 36.3845 416.544C37.2739 417.188 38.281 417.64 39.3451 417.874C40.4092 418.108 41.5085 418.118 42.5766 417.905C43.6448 417.691 44.6599 417.258 45.5608 416.631C46.4617 416.005 47.2299 415.197 47.819 414.258C48.4615 413.311 49.1209 412.386 49.7972 411.484C51.0904 409.733 51.6541 407.528 51.3645 405.351C51.0748 403.174 49.9555 401.205 48.2525 399.875V399.875Z" fill="#28092D"/>
<path d="M161.159 385.511C159.019 385.511 156.967 386.384 155.453 387.937C153.94 389.491 153.09 391.599 153.09 393.796V504.107C153.09 506.304 153.94 508.412 155.453 509.965C156.967 511.519 159.019 512.392 161.159 512.392C163.3 512.392 165.352 511.519 166.865 509.965C168.379 508.412 169.229 506.304 169.229 504.107V393.796C169.229 391.599 168.379 389.491 166.865 387.937C165.352 386.384 163.3 385.511 161.159 385.511V385.511Z" fill="#28092D"/>
<path d="M343.646 293.806C342.767 294.841 341.868 295.859 340.948 296.86C340.181 297.642 339.575 298.576 339.166 299.604C338.757 300.632 338.553 301.734 338.567 302.845C338.581 303.956 338.813 305.052 339.248 306.069C339.683 307.086 340.313 308.003 341.1 308.765C341.887 309.527 342.815 310.118 343.829 310.505C344.843 310.891 345.923 311.064 347.004 311.013C348.084 310.963 349.144 310.69 350.12 310.21C351.096 309.731 351.968 309.054 352.684 308.222C353.747 307.067 354.791 305.89 355.815 304.69C357.221 303.033 357.929 300.871 357.782 298.678C357.636 296.486 356.647 294.443 355.033 292.999C353.419 291.555 351.313 290.828 349.178 290.978C347.042 291.129 345.052 292.144 343.646 293.801V293.806Z" fill="#28092D"/>
<path d="M258.27 218.743C257.245 218.465 256.176 218.398 255.125 218.547C254.074 218.695 253.063 219.055 252.148 219.606C251.233 220.158 250.434 220.889 249.796 221.759C249.158 222.629 248.694 223.62 248.43 224.675L240.748 255.051C240.334 256.686 240.417 258.413 240.985 259.998C241.554 261.584 242.581 262.954 243.93 263.923L251.63 269.438C253.384 270.545 255.484 270.921 257.499 270.491C259.515 270.06 261.294 268.855 262.472 267.122C263.65 265.389 264.139 263.259 263.838 261.168C263.537 259.077 262.469 257.183 260.853 255.874L257.759 253.649L264.03 228.846C264.569 226.722 264.265 224.465 263.185 222.571C262.106 220.677 260.338 219.3 258.27 218.743V218.743Z" fill="#28092D"/>
<path d="M224.488 289.048C223.888 291.157 224.128 293.424 225.155 295.351C226.182 297.278 227.913 298.708 229.966 299.326C238.962 301.769 248.23 302.999 257.536 302.986C266.059 303.07 274.545 301.817 282.699 299.269C284.704 298.577 286.364 297.103 287.321 295.167C288.279 293.23 288.457 290.985 287.818 288.914C287.179 286.844 285.774 285.114 283.905 284.097C282.036 283.079 279.853 282.856 277.825 283.475C263.609 287.258 248.686 287.236 234.48 283.414C232.427 282.808 230.225 283.061 228.353 284.116C226.481 285.172 225.091 286.944 224.488 289.048V289.048Z" fill="#28092D"/>
<path d="M102.48 456.673C100.34 456.673 98.287 457.546 96.7737 459.1C95.2603 460.653 94.4102 462.761 94.4102 464.958V504.116C94.4102 506.313 95.2603 508.421 96.7737 509.975C98.287 511.528 100.34 512.401 102.48 512.401C104.62 512.401 106.672 511.528 108.186 509.975C109.699 508.421 110.549 506.313 110.549 504.116V464.967C110.55 463.879 110.343 462.8 109.938 461.794C109.533 460.788 108.938 459.873 108.189 459.103C107.44 458.333 106.55 457.721 105.57 457.304C104.59 456.887 103.54 456.673 102.48 456.673V456.673Z" fill="#28092D"/>
<path d="M410.007 456.673C407.867 456.673 405.814 457.546 404.301 459.1C402.788 460.653 401.938 462.761 401.938 464.958V504.116C401.938 506.313 402.788 508.421 404.301 509.975C405.814 511.528 407.867 512.401 410.007 512.401C412.147 512.401 414.2 511.528 415.713 509.975C417.226 508.421 418.077 506.313 418.077 504.116V464.967C418.078 463.879 417.87 462.8 417.465 461.794C417.06 460.788 416.466 459.873 415.716 459.103C414.967 458.333 414.077 457.721 413.097 457.304C412.118 456.887 411.067 456.673 410.007 456.673V456.673Z" fill="#28092D"/>
<path d="M344.99 104.497C337.46 108.258 331.544 114.736 328.374 122.694C325.205 130.652 325.003 139.53 327.809 147.631C330.615 155.731 336.231 162.485 343.583 166.601C350.935 170.717 359.507 171.906 367.659 169.94C368.189 169.812 368.701 169.628 369.222 169.467V223.879C369.256 238.822 366.196 253.601 360.244 267.236C359.369 269.245 359.308 271.529 360.073 273.584C360.839 275.64 362.368 277.299 364.325 278.197C366.281 279.094 368.505 279.157 370.507 278.371C372.509 277.586 374.125 276.016 375 274.007C379.562 263.516 382.651 252.414 384.176 241.032C389.651 239.897 394.773 237.409 399.101 233.783C403.428 230.157 406.829 225.502 409.009 220.223C411.189 214.943 412.082 209.197 411.612 203.483C411.142 197.769 409.322 192.258 406.309 187.429C407.232 187.495 408.154 187.614 409.076 187.614C417.781 187.614 426.258 184.758 433.271 179.462C440.284 174.166 445.465 166.709 448.058 158.177C450.651 149.645 450.521 140.485 447.687 132.035C444.853 123.584 439.462 116.284 432.302 111.201C433.654 104.854 433.663 98.283 432.328 91.9322C430.993 85.5815 428.346 79.599 424.565 74.3893C420.784 69.1796 415.958 64.8641 410.413 61.7345C404.867 58.6049 398.732 56.7342 392.422 56.2489C386.112 55.7636 379.774 56.6749 373.836 58.9214C367.899 61.1678 362.5 64.697 358.006 69.2703C353.511 73.8435 350.025 79.3543 347.784 85.43C345.542 91.5057 344.597 98.0047 345.013 104.488L344.99 104.497ZM385.361 223.169V189.635C388.426 191.163 391.01 193.546 392.818 196.511C394.626 199.476 395.585 202.904 395.585 206.402C395.585 209.9 394.626 213.328 392.818 216.293C391.01 219.258 388.426 221.641 385.361 223.169V223.169ZM355.78 118.066C357.856 117.558 359.652 116.228 360.776 114.365C361.899 112.502 362.258 110.258 361.775 108.124C360.764 103.722 360.776 99.1374 361.81 94.7414C362.845 90.3453 364.873 86.261 367.73 82.819C370.588 79.377 374.194 76.6739 378.257 74.9283C382.321 73.1828 386.728 72.4439 391.121 72.7714C395.514 73.0989 399.771 74.4836 403.546 76.8135C407.322 79.1434 410.51 82.353 412.853 86.1827C415.196 90.0124 416.628 94.3546 417.033 98.858C417.439 103.361 416.806 107.9 415.186 112.105C414.429 114.078 414.437 116.274 415.209 118.24C415.981 120.207 417.458 121.795 419.336 122.677C423.092 124.441 426.357 127.144 428.833 130.539C431.308 133.934 432.914 137.912 433.505 142.109C434.095 146.306 433.651 150.588 432.212 154.564C430.773 158.539 428.386 162.08 425.27 164.863C422.153 167.646 418.406 169.581 414.372 170.493C410.338 171.404 406.146 171.262 402.18 170.08C398.213 168.897 394.599 166.712 391.668 163.724C388.737 160.736 386.583 157.041 385.402 152.977C385.008 151.622 384.282 150.394 383.294 149.409C382.306 148.423 381.09 147.714 379.759 147.348C378.429 146.982 377.03 146.972 375.695 147.318C374.359 147.665 373.133 148.356 372.131 149.327C370.133 151.257 367.729 152.688 365.106 153.511C362.483 154.335 359.71 154.527 357.002 154.074C354.295 153.621 351.725 152.534 349.492 150.898C347.26 149.262 345.423 147.12 344.125 144.639C342.828 142.157 342.103 139.403 342.009 136.588C341.914 133.773 342.451 130.974 343.578 128.406C344.706 125.839 346.394 123.572 348.511 121.781C350.629 119.991 353.119 118.724 355.789 118.08L355.78 118.066Z" fill="#28092D"/>
<path d="M237.216 43.9203C236.85 44.0576 236.491 44.2185 236.135 44.3937C235.44 44.737 234.815 45.8393 234.382 47.4816C233.95 49.1239 233.743 51.1862 233.802 53.2588C233.861 55.3314 234.182 57.2627 234.701 58.6691C235.22 60.0756 235.899 60.8542 236.603 60.8504C236.764 60.8522 236.925 60.8142 237.084 60.7368C237.373 60.59 237.663 60.4622 237.96 60.3438C238.33 60.2199 238.689 59.879 239.015 59.3411C239.34 58.8033 239.626 58.0792 239.856 57.2112C240.085 56.3433 240.254 55.349 240.352 54.2863C240.45 53.2236 240.475 52.114 240.426 51.0222C240.377 49.9305 240.254 48.8786 240.066 47.928C239.878 46.9774 239.627 46.1472 239.329 45.4859C239.031 44.8247 238.691 44.3456 238.329 44.0768C237.967 43.808 237.591 43.7548 237.222 43.9203H237.216Z" fill="white"/>
<path d="M207.411 52.182C198.139 58.6602 190.205 68.353 184.367 80.3374C183.54 82.2083 183.279 84.4619 183.64 86.6026C184.001 88.7432 184.955 90.5955 186.291 91.7519C187.628 92.9084 189.238 93.2742 190.767 92.7691C192.297 92.2639 193.62 90.929 194.446 89.0581C199.155 79.7055 205.442 72.1268 212.749 66.9959C214.151 66.0077 215.216 64.2801 215.709 62.1932C216.201 60.1063 216.081 57.8309 215.375 55.8677C214.669 53.9046 213.435 52.4143 211.944 51.7249C210.453 51.0355 208.827 51.2033 207.425 52.1915L207.411 52.182Z" fill="white"/>
</g>
<defs>
<clipPath id="clip0">
<rect width="512" height="512" fill="white"/>
</clipPath>
</defs>
</svg>
