<svg width="512" height="512" viewBox="0 0 512 512" fill="none" xmlns="http://www.w3.org/2000/svg">
<g clip-path="url(#clip0)">
<path d="M313.887 381.654C321.187 379.146 327.479 374.46 332.06 368.408C332.116 368.408 332.165 368.424 332.214 368.424C348.098 368.452 361.735 358.803 367.559 345.045C384.943 342.939 398.6 329.319 400.774 311.947C414.557 306.168 424.247 292.568 424.279 276.684C424.287 274.204 424.007 271.798 423.564 269.453C433.262 262.519 439.639 251.248 439.663 238.42C439.672 233.941 438.765 229.706 437.359 225.711C443.508 218.923 447.374 210.018 447.39 200.145C447.398 193.138 445.39 186.651 442.11 180.993C445.407 175.347 447.447 168.864 447.455 161.853C447.479 149.025 441.139 137.73 431.465 130.764C431.912 128.414 432.205 126.012 432.205 123.537C432.229 107.657 422.584 94.0204 408.822 88.196C406.716 70.8121 393.1 57.1553 375.725 54.9808C369.949 41.198 356.349 31.5001 340.465 31.4717C340.408 31.4717 340.355 31.492 340.306 31.492C333.332 22.2168 322.353 16.1241 309.859 16.1078C305.38 16.0997 301.141 17.0061 297.145 18.4124C290.362 12.2628 281.456 8.39742 271.584 8.38117C262.926 8.36491 255.017 11.3361 248.591 16.1728C242.181 11.3117 234.292 8.31613 225.634 8.29987C212.807 8.27549 201.511 14.6161 194.545 24.2897C192.196 23.8385 189.789 23.5499 187.318 23.5499C171.434 23.5255 157.802 33.1706 151.973 46.9331C134.593 49.0385 120.933 62.6546 118.762 80.0263C104.975 85.8061 95.2773 99.4059 95.2529 115.29C95.2529 116.339 95.4765 117.33 95.5537 118.351C81.8604 124.171 72.2356 137.722 72.2112 153.537C72.2031 160.065 73.9752 166.125 76.8488 171.502C69.297 178.485 64.4968 188.382 64.4805 199.47C64.4643 210.558 69.2319 220.48 76.7553 227.483C73.8695 232.852 72.069 238.904 72.0608 245.428C72.0364 258.255 78.3811 269.55 88.0547 276.521C87.6035 278.866 87.3109 281.273 87.3109 283.744C87.2784 302.506 100.773 318.073 118.579 321.385C121.55 337.684 134.833 350.239 151.449 352.312C157.225 366.095 170.828 375.793 186.709 375.817C189.192 375.825 191.598 375.545 193.943 375.102C194.984 376.557 196.126 377.947 197.358 379.248" fill="#736357"/>
<path d="M197.674 332.997H314.212V466.183H197.674V332.997Z" fill="#FDD089"/>
<path d="M480.694 507.803L436.874 432.695C427.924 417.356 411.496 407.914 393.73 407.914H314.212L255.943 466.183L197.674 407.914H118.144C100.382 407.914 83.9569 417.348 74.9987 432.695L31.1914 507.803H480.694Z" fill="#C1272D"/>
<path d="M189.351 466.184H322.536V499.48H189.351V466.184Z" fill="#87660D"/>
<path d="M189.351 466.184H289.24V499.48H189.351V466.184Z" fill="#B48811"/>
<path d="M147.729 208.136C129.341 208.136 114.433 223.044 114.433 241.432C114.433 259.82 129.341 274.729 147.729 274.729" fill="#FDD089"/>
<path d="M364.156 208.136C382.544 208.136 397.453 223.044 397.453 241.432C397.453 259.82 382.544 274.729 364.156 274.729" fill="#FDD089"/>
<path d="M330.86 124.895H181.026L164.378 141.543V166.515L147.729 183.163V241.432C147.729 301.201 196.174 349.646 255.943 349.646C315.708 349.646 364.157 301.201 364.157 241.432V183.163L347.508 166.515V141.543L330.86 124.895Z" fill="#FDD089"/>
<path d="M364.157 258.08H289.24C280.042 258.08 272.591 250.63 272.591 241.432C272.591 232.234 265.141 224.784 255.943 224.784C246.745 224.784 239.295 232.234 239.295 241.432C239.295 250.63 231.845 258.08 222.647 258.08H147.729V191.487H364.157V258.08Z" fill="#666666"/>
<path d="M316.597 389.518L311.188 373.777C316.825 371.838 321.751 368.241 325.438 363.371C327.104 361.177 329.543 359.953 332.555 360.091C344.525 359.986 355.231 352.836 359.909 341.797C361.075 339.049 363.616 337.135 366.571 336.769C380.154 335.119 390.836 324.482 392.522 310.907C392.888 307.952 394.811 305.412 397.567 304.253C408.724 299.587 415.946 288.763 415.963 276.667C415.963 274.903 415.78 273.038 415.389 270.993C414.792 267.803 416.089 264.567 418.726 262.677C426.612 257.04 431.322 247.968 431.339 238.404C431.339 235.238 430.749 231.986 429.51 228.47C428.493 225.585 429.14 222.378 431.196 220.114C436.257 214.537 439.057 207.436 439.065 200.128C439.073 194.967 437.675 189.931 434.903 185.163C433.403 182.574 433.403 179.375 434.919 176.786C437.7 172.026 439.114 166.999 439.122 161.837C439.138 152.281 434.452 143.185 426.595 137.523C423.966 135.625 422.673 132.377 423.291 129.199C423.681 127.15 423.872 125.293 423.88 123.529C423.896 111.437 416.723 100.58 405.578 95.8697C402.83 94.7031 400.916 92.1628 400.558 89.2079C398.908 75.6243 388.271 64.9428 374.691 63.256C371.728 62.8902 369.2 60.9677 368.042 58.2201C363.404 47.1565 352.727 39.9623 340.765 39.8241C337.818 39.9826 335.31 38.7226 333.648 36.5196C327.897 28.8662 319.215 24.4643 309.838 24.448C309.83 24.448 309.822 24.448 309.822 24.448C306.668 24.448 303.42 25.0455 299.917 26.2893C297.031 27.2932 293.824 26.6469 291.56 24.5984C285.975 19.5381 278.883 16.7417 271.575 16.7214C271.559 16.7214 271.542 16.7214 271.514 16.7214C265.116 16.7214 258.922 18.839 253.61 22.8426C250.638 25.0821 246.541 25.074 243.57 22.8263C238.254 18.7943 232.043 16.6564 225.625 16.6482C225.609 16.6482 225.593 16.6482 225.569 16.6482C216.029 16.6482 206.953 21.3265 201.303 29.1751C199.413 31.8048 196.182 33.1217 192.979 32.4795C190.906 32.0812 188.874 31.6991 187.252 31.8902C175.181 31.8902 164.353 39.064 159.646 50.1927C158.484 52.9403 155.943 54.8547 152.98 55.2123C139.397 56.8625 128.723 67.4994 127.024 81.0789C126.659 84.0338 124.736 86.5701 121.989 87.7284C110.836 92.4067 103.609 103.235 103.593 115.322C103.759 116.611 103.828 117.164 103.877 117.72C104.158 121.289 102.129 124.638 98.833 126.036C87.7532 130.739 80.5834 141.543 80.559 153.574C80.5509 158.317 81.7743 163.044 84.213 167.616C85.9973 170.953 85.2982 175.075 82.5181 177.644C76.275 183.415 72.8364 191.178 72.8202 199.511C72.8039 207.847 76.2222 215.626 82.4409 221.414C85.2129 223.995 85.8957 228.113 84.1073 231.454C81.6605 236.006 80.4086 240.725 80.4005 245.48C80.3842 255.044 85.0706 264.132 92.9314 269.794C95.5611 271.692 96.8496 274.936 96.2358 278.118C95.8416 280.175 95.6505 282.028 95.6424 283.792C95.618 298.213 105.909 310.606 120.107 313.236C123.505 313.87 126.159 316.532 126.777 319.93C129.114 332.758 139.446 342.464 152.489 344.085C155.444 344.451 157.984 346.374 159.13 349.121C163.808 360.274 174.64 367.501 186.728 367.517C188.565 367.375 190.346 367.343 192.386 366.952C195.585 366.355 198.836 367.651 200.718 370.289C201.543 371.448 202.442 372.529 203.409 373.553L195.134 381.377L195.499 383.3C194.508 383.483 193.552 383.641 192.601 383.775L191.313 384.991C191.004 384.665 190.703 384.34 190.406 384.007C189.151 384.125 187.984 384.182 186.675 384.166C169.47 384.141 153.879 374.711 145.798 359.795C129.508 356.104 116.562 344.118 111.693 328.278C92.4152 322.275 78.9454 304.355 78.9779 283.752C78.9779 282.536 79.0389 281.297 79.1527 280.041C69.3978 271.225 63.7116 258.629 63.7279 245.444C63.736 239.892 64.7765 234.433 66.8413 229.129C59.891 220.78 56.1272 210.452 56.1475 199.478C56.1638 188.516 59.9601 178.196 66.9429 169.872C64.8944 164.568 63.8701 159.097 63.8782 153.545C63.9026 136.848 72.7958 121.659 86.9525 113.392C87.6516 96.9183 96.9268 82.1844 111.295 74.4009C115.262 56.9804 128.89 43.3927 146.323 39.4908C154.444 24.6147 170.027 15.2501 187.216 15.2501C188.334 15.2744 189.732 15.2988 191.02 15.4248C199.82 5.68625 212.371 0 225.532 0H225.617C233.706 0.00812902 241.542 2.14606 248.582 6.22683C255.601 2.19077 263.417 0.0812902 271.481 0.0812902H271.567C281.403 0.101613 290.971 3.30445 298.953 9.18986C302.624 8.25909 306.2 7.7998 309.797 7.7998H309.838C323.133 7.82419 335.493 13.4454 344.334 23.3425C360.002 24.6635 373.887 33.7639 381.353 47.5548C398.766 51.5258 412.353 65.1541 416.263 82.5828C431.164 90.7159 440.537 106.332 440.504 123.565C440.504 124.789 440.447 126.02 440.329 127.276C450.092 136.1 455.77 148.692 455.754 161.877C455.746 168.49 454.307 174.908 451.458 181.017C454.279 187.134 455.697 193.56 455.685 200.169C455.669 210.009 452.466 219.573 446.58 227.556C447.511 231.242 447.971 234.839 447.962 238.453C447.946 251.638 442.219 264.218 432.42 272.997C432.529 274.253 432.578 275.497 432.578 276.72C432.546 293.941 423.116 309.533 408.199 317.605C404.228 335.03 390.6 348.605 373.171 352.519C365.652 366.286 351.735 375.341 336.062 376.61C330.758 382.511 324.092 386.938 316.597 389.518V389.518Z" fill="black"/>
<path d="M255.943 357.97C191.679 357.97 139.405 305.696 139.405 241.432V183.163C139.405 180.956 140.279 178.835 141.844 177.278L156.054 163.068V141.543C156.054 139.336 156.927 137.214 158.492 135.657L175.14 119.009C176.705 117.444 178.819 116.57 181.026 116.57H330.86C333.063 116.57 335.189 117.444 336.745 119.009L353.394 135.657C354.959 137.214 355.832 139.336 355.832 141.543V163.068L370.042 177.278C371.607 178.835 372.481 180.956 372.481 183.163V241.432C372.481 305.696 320.203 357.97 255.943 357.97ZM156.054 186.61V241.44C156.054 296.523 200.861 341.33 255.943 341.33C311.021 341.33 355.832 296.523 355.832 241.44V186.618L341.623 172.409C340.058 170.844 339.184 168.722 339.184 166.515V144.989L327.413 133.219H184.473L172.702 144.989V166.515C172.702 168.722 171.828 170.844 170.263 172.4L156.054 186.61Z" fill="black"/>
<path d="M38.3824 511.998L23.998 503.609L67.8176 428.501C78.2227 410.67 97.5007 399.59 118.144 399.59H189.351V332.997H205.999V407.914C205.999 412.519 202.268 416.238 197.675 416.238H118.144C103.402 416.238 89.6277 424.148 82.1937 436.882L38.3824 511.998Z" fill="black"/>
<path d="M473.5 511.999L429.685 436.891C422.251 424.157 408.48 416.247 393.73 416.247H314.212C309.615 416.247 305.888 412.528 305.888 407.923V333.006H322.536V399.599H393.738C414.382 399.599 433.66 410.679 444.065 428.51L487.884 503.618L473.5 511.999Z" fill="black"/>
<path d="M405.777 466.184H422.426V507.804H405.777V466.184Z" fill="black"/>
<path d="M89.4609 466.184H106.109V507.804H89.4609V466.184Z" fill="black"/>
<path d="M255.943 474.508C253.809 474.508 251.68 473.691 250.058 472.069L191.789 413.8L203.56 402.029L255.943 454.413L308.327 402.029L320.098 413.8L261.829 472.069C260.203 473.691 258.073 474.508 255.943 474.508Z" fill="black"/>
<path d="M322.536 507.804H189.35C184.754 507.804 181.026 504.085 181.026 499.48V466.183C181.026 461.582 184.754 457.859 189.35 457.859H322.536C327.129 457.859 330.861 461.582 330.861 466.183V499.48C330.861 504.085 327.129 507.804 322.536 507.804ZM197.675 491.156H314.212V474.508H197.675V491.156Z" fill="black"/>
<path d="M147.73 283.053C124.778 283.053 106.109 264.384 106.109 241.432C106.109 218.484 124.778 199.812 147.73 199.812V216.46C133.959 216.46 122.758 227.666 122.758 241.432C122.758 255.203 133.959 266.405 147.73 266.405V283.053Z" fill="black"/>
<path d="M364.156 283.053V266.405C377.923 266.405 389.129 255.203 389.129 241.432C389.129 227.666 377.923 216.46 364.156 216.46V199.812C387.105 199.812 405.777 218.484 405.777 241.432C405.777 264.384 387.105 283.053 364.156 283.053Z" fill="black"/>
<path d="M364.157 266.405H289.24C275.469 266.405 264.267 255.203 264.267 241.432C264.267 236.848 260.528 233.108 255.943 233.108C251.354 233.108 247.619 236.848 247.619 241.432C247.619 255.203 236.413 266.405 222.647 266.405H147.729V249.756H222.647C227.231 249.756 230.971 246.021 230.971 241.432C230.971 227.666 242.172 216.46 255.943 216.46C269.71 216.46 280.915 227.666 280.915 241.432C280.915 246.021 284.651 249.756 289.24 249.756H364.157V266.405Z" fill="black"/>
<path d="M147.729 183.163H364.157V199.811H147.729V183.163Z" fill="black"/>
<path d="M272.591 316.349H239.295C220.931 316.349 205.998 301.416 205.998 283.053H222.646C222.646 292.234 230.113 299.701 239.295 299.701H272.591C281.773 299.701 289.239 292.234 289.239 283.053H305.887C305.887 301.416 290.954 316.349 272.591 316.349Z" fill="black"/>
<path d="M222.646 374.618H289.239V391.266H222.646V374.618Z" fill="black"/>
<path d="M239.295 407.914H272.591V424.562H239.295V407.914Z" fill="black"/>
</g>
<defs>
<clipPath id="clip0">
<rect width="512" height="512" fill="white"/>
</clipPath>
</defs>
</svg>
