<svg width="512" height="512" viewBox="0 0 512 512" fill="none" xmlns="http://www.w3.org/2000/svg">
<g clip-path="url(#clip0)">
<path d="M67.89 357.85C49.45 361.65 36 377.93 36 397.02V502H176L67.89 357.85Z" fill="#9BC5FF"/>
<path d="M376 342L316 502H236C240.704 489.455 225.539 529.887 296 342H376Z" fill="#FFDA8F"/>
<path d="M246 342H186L138.38 348.35C143.887 363.035 182.442 465.841 187.43 479.14H244.57C249.943 464.814 290.963 355.43 296 342H246Z" fill="#EEFAFF"/>
<path d="M256.01 50H256C256 27.91 238.09 10 216 10H171.28C129.7 10 96 43.7 96 85.28C96 114.69 89.15 149.69 76 176L336 177V130C336 85.81 300.2 50 256.01 50Z" fill="#FFDA8F"/>
<path d="M306 156C322.57 156 336 169.43 336 186C336 202.57 322.57 216 306 216H296V242C296 268.13 283.45 291.27 264.07 305.84C252.69 314.39 246 327.77 246 342L216 368.67L186 342C186 327.78 179.3 314.38 167.93 305.84C148.55 291.27 136 268.13 136 242V216H126C109.43 216 96 202.57 96 186C96 182.49 96.6 179.13 97.71 176H159.43C195.65 176 230.39 161.61 256 136C256 147.05 264.95 156 276 156H306Z" fill="#FCE8D0"/>
<path d="M476 202V362C476 395.14 449.14 422 416 422H376V502H316L376 342H416V202H476Z" fill="#9BC5FF"/>
<path d="M476 102V202H416V162C404.95 162 396 153.05 396 142V122C396 110.95 404.95 102 416 102C416 90.95 424.95 82 436 82H456C467.05 82 476 90.95 476 102Z" fill="#FCE8D0"/>
<path d="M244.57 479.14L236 502H196L187.43 479.14L216 422L244.57 479.14Z" fill="#9BC5FF"/>
<path d="M244.24 393.76L216 422L187.76 393.76L216 368.67L244.24 393.76Z" fill="#9BC5FF"/>
<path d="M196 502H176L95.9996 442L116 422L67.8896 357.85C68.8196 357.66 69.7596 357.5 70.7096 357.37L138.38 348.35C248.371 641.637 134.533 338.09 196 502Z" fill="#8690A6"/>
<path d="M320 392C325.523 392 330 387.523 330 382C330 376.477 325.523 372 320 372C314.477 372 310 376.477 310 382C310 387.523 314.477 392 320 392Z" fill="black"/>
<path d="M304 432C309.523 432 314 427.523 314 422C314 416.477 309.523 412 304 412C298.477 412 294 416.477 294 422C294 427.523 298.477 432 304 432Z" fill="black"/>
<path d="M290 472C295.523 472 300 467.523 300 462C300 456.477 295.523 452 290 452C284.477 452 280 456.477 280 462C280 467.523 284.477 472 290 472Z" fill="black"/>
<path d="M256 226C261.523 226 266 221.523 266 216C266 210.477 261.523 206 256 206C250.477 206 246 210.477 246 216C246 221.523 250.477 226 256 226Z" fill="black"/>
<path d="M176 226C181.523 226 186 221.523 186 216C186 210.477 181.523 206 176 206C170.477 206 166 210.477 166 216C166 221.523 170.477 226 176 226Z" fill="black"/>
<path d="M216 286C232.542 286 246 272.542 246 256C246 250.478 241.522 246 236 246C230.478 246 226 250.478 226 256C226 261.514 221.514 266 216 266C210.486 266 206 261.514 206 256C206 250.478 201.522 246 196 246C190.478 246 186 250.478 186 256C186 272.542 199.458 286 216 286Z" fill="black"/>
<path d="M476 292C481.523 292 486 287.523 486 282C486 276.477 481.523 272 476 272C470.477 272 466 276.477 466 282C466 287.523 470.477 292 476 292Z" fill="black"/>
<path d="M65.871 348.056C65.776 348.076 65.684 348.1 65.59 348.12C65.535 348.133 65.479 348.144 65.424 348.158C42.554 353.093 26 373.564 26 397.02V502C26 507.522 30.478 512 36 512H376C381.522 512 386 507.522 386 502V432H416C454.599 432 486 400.599 486 362V327C486 321.478 481.522 317 476 317C470.478 317 466 321.478 466 327V362C466 389.57 443.57 412 416 412H376C370.478 412 366 416.478 366 422V492H330.43L382.93 352H416C421.522 352 426 347.522 426 342V212H466V237C466 242.522 470.478 247 476 247C481.522 247 486 242.522 486 237C486 221.659 486 116.37 486 102C486 85.458 472.542 72 456 72H436C422.486 72 411.03 80.981 407.289 93.289C394.981 97.03 386 108.486 386 122V142C386 155.036 394.361 166.152 406 170.28V332H257.466C259.604 324.834 263.995 318.404 270.08 313.833C292.907 296.67 306 270.488 306 242V226C328.056 226 346 208.056 346 186V130C346 83.439 310.466 45.023 265.086 40.455C260.619 17.434 240.308 0 216 0H171.28C124.257 0 86 38.257 86 85.28C86 115.101 78.741 148.15 67.055 171.529C65.506 174.629 65.672 178.309 67.494 181.258C69.316 184.207 72.534 186 76 186H86C86 208.056 103.944 226 126 226V242C126 270.488 139.093 296.67 161.924 313.836C168.397 318.697 172.954 325.667 174.918 333.389C64.369 348.175 69.336 347.349 65.871 348.056ZM406 122C406 116.486 410.486 112 416 112C421.522 112 426 107.522 426 102C426 96.486 430.486 92 436 92H456C461.514 92 466 96.486 466 102V192H426V162C426 156.478 421.522 152 416 152C410.486 152 406 147.514 406 142V122ZM131.811 359.313L181.57 492H179.333L111.223 440.918L123.071 429.071C126.59 425.551 126.986 419.981 124 416L86.061 365.412L131.811 359.313ZM202.93 492L198.323 479.715L216 444.36L233.677 479.714L229.07 492H202.93ZM243.26 454.159L228.167 423.975L244.639 407.503L256.726 418.247L243.26 454.159ZM216 407.857L202.334 394.191L216 382.045L229.666 394.192L216 407.857ZM187.36 407.502L203.832 423.974L188.739 454.159L175.271 418.246L187.36 407.502ZM46 397.02C46 384.915 53.345 374.138 64.111 369.478L102.796 421.061L88.929 434.928C84.632 439.225 85.13 446.348 90 450L146 492H46V397.02ZM309.07 492H250.43L302.93 352H361.57L309.07 492ZM281.57 352L264.254 398.176L231.053 368.665L249.802 352H281.57ZM106 85.28C106 49.284 135.284 20 171.28 20H216C232.542 20 246 33.458 246 50V70C246 75.522 250.478 80 256 80C261.522 80 266 75.522 266 70V60.725C299.876 65.59 326 94.796 326 130V151.382C320.112 147.967 313.283 146 306 146H276C270.486 146 266 141.514 266 136C266 131.955 263.563 128.309 259.827 126.761C256.09 125.216 251.789 126.069 248.929 128.929C226.869 150.99 198.097 163.894 167.219 165.757C179.239 154.408 183.575 142.79 184.945 140.473C187.415 135.534 185.413 129.527 180.473 127.056C175.533 124.585 169.527 126.588 167.056 131.528C166.267 132.428 154.376 166 116 166H91.272C100.501 141.883 106 112.307 106 85.28ZM173.939 297.847C156.184 284.498 146 264.143 146 242V216C146 210.478 141.522 206 136 206H126C114.972 206 106 197.028 106 186H159.43C193.388 186 225.583 174.53 251.591 153.423C257.037 161.031 265.95 166 276 166H306C317.028 166 326 174.972 326 186C326 197.028 317.028 206 306 206H296C290.478 206 286 210.478 286 216V242C286 264.143 275.816 284.498 258.063 297.845C245.506 307.279 237.572 321.779 236.226 337.308L216 355.286L195.773 337.308C194.428 321.776 186.494 307.277 173.939 297.847ZM182.78 352.518L200.947 368.666L167.745 398.177L152.154 356.6L182.78 352.518Z" fill="black"/>
</g>
<defs>
<clipPath id="clip0">
<rect width="512" height="512" fill="white"/>
</clipPath>
</defs>
</svg>
