<svg width="512" height="512" viewBox="0 0 512 512" fill="none" xmlns="http://www.w3.org/2000/svg">
<path d="M488 511V453.312C488 430.904 472.488 411.472 450.64 406.504L336.912 380.656C322.336 377.352 312 364.4 312 349.456V319.224H200V349.456C200 364.4 189.664 377.352 175.088 380.664L61.36 406.512C39.512 411.472 24 430.904 24 453.312V511" fill="#C1C8D1"/>
<path d="M197.616 405.696C212.208 421.272 232.968 431 256 431C279.032 431 299.792 421.264 314.384 405.688L256 503L197.616 405.696Z" fill="white"/>
<path d="M181.32 378.536L197.616 405.688C212.208 421.272 232.968 431 256 431C279.032 431 299.792 421.264 314.384 405.688L330.672 378.536L330.664 378.552C319.472 373.424 312 362.16 312 349.456V319.224H200V349.456C200 362.16 192.528 373.424 181.328 378.552L181.32 378.536Z" fill="#F4C993"/>
<path d="M128 231C145.673 231 160 216.673 160 199C160 181.327 145.673 167 128 167C110.327 167 96 181.327 96 199C96 216.673 110.327 231 128 231Z" fill="#FADFB2"/>
<path d="M384 231C401.673 231 416 216.673 416 199C416 181.327 401.673 167 384 167C366.327 167 352 181.327 352 199C352 216.673 366.327 231 384 231Z" fill="#FADFB2"/>
<path d="M256 343C185.304 343 128 285.696 128 215V151C128 80.304 185.304 23 256 23C326.696 23 384 80.304 384 151V215C384 285.696 326.696 343 256 343Z" fill="#FADFB2"/>
<path d="M181.328 378.552L256 503L176 479L192 455H152L143.6 387.816" fill="#A8B0BC"/>
<path d="M330.672 378.552L256 503L336 479L320 455H360L368.4 387.816" fill="#A8B0BC"/>
<path d="M336 271H288C270.328 271 256 256.672 256 239H304C321.672 239 336 253.328 336 271Z" fill="#CBC3B6"/>
<path d="M176 271H224C241.672 271 256 256.672 256 239H208C190.328 239 176 253.328 176 271Z" fill="#CBC3B6"/>
<path d="M232 79H279.992V95H232V79Z" fill="#EFBE9A"/>
<path d="M224 103H287.992V119H224V103Z" fill="#EFBE9A"/>
<path d="M232 167H279.992V183H232V167Z" fill="#A8B0BC"/>
<path d="M208 207C225.673 207 240 192.673 240 175C240 157.327 225.673 143 208 143C190.327 143 176 157.327 176 175C176 192.673 190.327 207 208 207Z" fill="#C7E2FC"/>
<path d="M304 207C321.673 207 336 192.673 336 175C336 157.327 321.673 143 304 143C286.327 143 272 157.327 272 175C272 192.673 286.327 207 304 207Z" fill="#C7E2FC"/>
<path d="M456 103C456 80.912 438.088 63 416 63C412.528 63 409.224 63.584 406.016 64.408C399.584 40.568 377.872 23 352 23C321.072 23 296 48.072 296 79C296 102.96 311.08 123.352 332.24 131.344C329.536 137.352 328 143.992 328 151C328 177.512 349.488 199 376 199C402.512 199 424 177.512 424 151C424 148.016 423.688 145.112 423.168 142.28C441.824 138.888 456 122.632 456 103Z" fill="#D5CEC2"/>
<path d="M56 103C56 80.912 73.912 63 96 63C99.472 63 102.776 63.584 105.984 64.408C112.416 40.568 134.128 23 160 23C190.928 23 216 48.072 216 79C216 102.96 200.92 123.352 179.76 131.344C182.464 137.352 184 143.992 184 151C184 177.512 162.512 199 136 199C109.488 199 88 177.512 88 151C88 148.016 88.312 145.112 88.832 142.28C70.176 138.888 56 122.632 56 103Z" fill="#D5CEC2"/>
<path d="M176 175C176 185.928 181.496 195.552 189.856 201.328C206.304 192.856 217.568 175.744 217.568 155.968C217.568 151.904 217.04 147.968 216.144 144.176C213.528 143.488 210.832 143 208 143C190.328 143 176 157.328 176 175Z" fill="#EBF7FE"/>
<path d="M272 175C272 185.928 277.496 195.552 285.856 201.328C302.304 192.856 313.568 175.744 313.568 155.968C313.568 151.904 313.04 147.968 312.144 144.176C309.528 143.488 306.832 143 304 143C286.328 143 272 157.328 272 175Z" fill="#EBF7FE"/>
<path d="M479.984 453.312L480 510.992L496 510.984L495.984 453.312C495.984 426.984 478.064 404.528 452.4 398.704L338.68 372.856C327.672 370.36 319.992 360.728 319.992 349.456L320 334.92C356.2 315.528 382.536 280.208 389.832 238.4C409.104 235.552 423.992 219.048 423.992 198.992C423.992 193.856 422.984 188.792 421.08 184.056C427.904 174.776 431.992 163.36 431.992 150.984C431.992 150.056 431.968 149.136 431.92 148.2C450.88 141.56 463.992 123.6 463.992 102.992C463.992 76.52 442.464 54.992 415.992 54.992C414.48 54.992 412.944 55.072 411.376 55.256C401.776 31.224 378.32 15 352 15C337.6 15 324.336 19.84 313.632 27.896C295.52 19.4 276.16 15 255.984 15C236.008 15 216.248 19.432 198.28 27.848C187.592 19.816 174.352 15 159.984 15C133.664 15 110.208 31.224 100.608 55.264C99.04 55.08 97.504 55 95.984 55C69.52 55 48 76.528 48 103C48 123.616 61.112 141.584 80.072 148.216C80.024 149.152 80 150.072 80 150.992C80 163.368 84.08 174.776 90.904 184.056C89 188.792 87.992 193.864 88 199C88 219.056 102.88 235.544 122.16 238.4C129.456 280.2 155.792 315.52 191.992 334.912V349.448C191.992 360.72 184.312 370.344 173.312 372.848L59.584 398.704C33.92 404.528 16 426.984 16 453.312V510.984H32V453.312C32 434.504 44.8 418.472 63.128 414.304L136.752 397.568L144.056 455.984C144.552 459.984 147.96 462.984 152 462.984H177.048L169.336 474.544C167.928 476.664 167.608 479.312 168.472 481.696C169.328 484.088 171.272 485.92 173.696 486.648L253.696 510.648C254.456 510.872 255.224 510.992 255.992 510.992C256.76 510.992 255.992 510.992 255.992 510.992C256.76 510.992 257.528 510.872 258.288 510.648L338.28 486.648C340.712 485.92 342.648 484.088 343.504 481.696C344.36 479.312 344.04 476.664 342.64 474.544L334.928 462.984H359.976C364.016 462.984 367.416 459.984 367.92 455.984L375.232 397.568L448.856 414.304C467.184 418.472 479.984 434.504 479.984 453.312ZM255.992 487.432L223 432.448C233.408 436.664 244.592 438.984 256 438.984C267.392 438.984 278.576 436.664 288.984 432.456L255.992 487.432ZM391.656 221.624C391.76 219.416 391.992 217.232 391.992 215V204.632C397.672 202.936 402.968 200.368 407.736 197.072C407.792 197.72 407.992 198.344 407.992 199C407.992 209.536 401.12 218.408 391.656 221.624ZM352 31C373.608 31 392.64 45.592 398.28 66.496C399.424 70.72 403.744 73.296 408 72.16C411.064 71.36 413.6 71 415.992 71C433.64 71 447.992 85.352 447.992 103C447.992 118.432 436.952 131.64 421.736 134.4C419.64 134.784 417.784 135.976 416.576 137.728C415.368 139.48 414.904 141.632 415.296 143.728C415.768 146.288 415.992 148.672 415.992 151C415.992 173.056 398.056 191 376 191C353.936 191 336 173.056 336 151C336 145.344 337.176 139.832 339.52 134.632C340.424 132.624 340.464 130.32 339.616 128.288C338.776 126.248 337.12 124.648 335.056 123.872C316.48 116.84 304 98.808 304 79C304 52.528 325.528 31 352 31ZM320.44 157.704C321.36 165.368 323.84 172.552 327.552 178.952C325.64 190.336 315.752 198.992 304 198.992C290.768 198.992 280 188.224 280 174.992C280 161.76 290.768 150.992 304 150.992C310.168 151 315.992 153.488 320.44 157.704ZM256 31C271.768 31 286.952 34.16 301.328 40.056C293.008 50.856 288 64.336 288 79C288 102.768 301.456 124.6 322.168 135.568C321.84 136.712 321.68 137.888 321.424 139.048C316.048 136.432 310.112 135 304 135C284.68 135 268.52 148.76 264.808 167H247.192C243.472 148.76 227.32 135 208 135C201.88 135 195.944 136.432 190.56 139.048C190.304 137.888 190.144 136.712 189.816 135.568C210.544 124.6 223.992 102.76 223.992 79C223.992 64.288 218.944 50.76 210.568 39.936C224.912 34.08 240.376 31 256 31ZM191.552 157.696C196 153.48 201.824 151 208 151C221.224 151 232 161.768 232 175C232 188.232 221.224 199 208 199C196.24 199 186.352 190.344 184.432 178.968C188.144 172.56 190.632 165.368 191.552 157.696ZM64 103C64 85.352 78.352 71 95.984 71C98.384 71 100.92 71.368 103.984 72.16C108.248 73.272 112.56 70.728 113.704 66.496C119.344 45.592 138.376 31 159.984 31C186.456 31 207.992 52.528 207.992 79C207.992 98.816 195.504 116.84 176.928 123.864C174.856 124.64 173.208 126.24 172.368 128.28C171.52 130.32 171.552 132.616 172.464 134.624C174.808 139.84 175.992 145.344 175.992 150.992C175.992 173.048 158.056 190.992 136 190.992C113.936 190.992 96 173.048 96 150.992C96 148.64 96.224 146.256 96.688 143.72C97.08 141.632 96.616 139.472 95.408 137.72C94.2 135.968 92.344 134.776 90.248 134.392C75.04 131.64 64 118.432 64 103ZM104 198.984C104 198.336 104.2 197.712 104.248 197.072C109.016 200.368 114.32 202.936 120 204.632V215C120 217.24 120.232 219.416 120.336 221.624C110.872 218.408 104 209.536 104 198.984ZM136 215V206.992C149.968 206.992 162.728 201.816 172.544 193.32C179.256 206.192 192.696 214.992 208 214.992C227.32 214.992 243.472 201.224 247.192 182.992H264.808C268.52 201.224 284.68 214.992 304 214.992C319.288 214.992 332.728 206.192 339.44 193.32C349.256 201.816 362.016 206.992 375.992 206.992V215C375.992 281.16 322.16 334.984 255.984 334.984C189.832 334.984 136 281.16 136 215ZM256 350.984C272.912 350.984 289.048 347.736 303.992 342.072V349.448C303.992 362.312 310.088 373.784 319.76 381.144L308.032 400.696C294.32 415.056 275.888 422.976 256 422.976C236.112 422.976 217.672 415.056 203.96 400.696L192.224 381.144C201.896 373.784 207.992 362.312 207.992 349.448V342.064C222.944 347.736 239.08 350.984 256 350.984ZM188.648 474.432L198.656 459.432C200.288 456.968 200.448 453.816 199.048 451.216C197.656 448.616 194.944 446.992 192 446.992H159.056L152.44 394.008L176.864 388.456C177.176 388.384 177.464 388.248 177.776 388.168L238.512 489.392L188.648 474.432ZM352.928 446.984H319.984C317.04 446.984 314.328 448.608 312.936 451.208C311.536 453.808 311.696 456.968 313.328 459.424L323.336 474.424L273.488 489.384L334.216 388.152C334.528 388.232 334.816 388.368 335.136 388.44L359.56 393.992L352.928 446.984Z" fill="black"/>
<path d="M287.984 278.992H335.992C340.416 278.992 343.992 275.416 343.992 270.992C343.992 248.936 326.056 230.992 303.992 230.992H256.008C256 230.992 255.992 230.992 255.992 230.992H207.984C185.936 230.992 168 248.936 168 270.992C168 275.416 171.576 278.992 176 278.992H223.992C237.128 278.992 248.696 272.544 255.992 262.744C263.288 272.544 274.856 278.992 287.984 278.992ZM303.992 247C314.432 247 323.32 253.68 326.624 263H287.984C277.56 263 268.664 256.32 265.368 247H303.992ZM223.992 262.992H185.368C188.664 253.68 197.56 246.992 207.984 246.992H246.624C243.32 256.312 234.432 262.992 223.992 262.992Z" fill="black"/>
<path d="M232 79H279.992V95H232V79Z" fill="black"/>
<path d="M224 103H287.992V119H224V103Z" fill="black"/>
</svg>
