<svg width="496" height="496" viewBox="0 0 496 496" fill="none" xmlns="http://www.w3.org/2000/svg">
<g clip-path="url(#clip0)">
<path d="M408 362.617V488H88V362.617" fill="#857970"/>
<path d="M152 392H344V488H152V392Z" fill="#695B52"/>
<path d="M376 288L386.098 292.039C404.152 299.266 416 316.762 416 336.207C416 351.184 408.953 365.289 396.969 374.273L377.602 388.801C340.207 416.84 294.734 432 248 432C201.266 432 155.793 416.84 118.398 388.801L99.0312 374.273C87.0469 365.289 80 351.184 80 336.207C80 316.754 91.8477 299.258 109.902 292.031L120 288" fill="#758190"/>
<path d="M248 392C177.305 392 120 334.695 120 264V136C120 65.3047 177.305 8 248 8C318.695 8 376 65.3047 376 136V264C376 334.695 318.695 392 248 392Z" fill="#8892A0"/>
<path d="M344 176C344 118.559 301.016 88 248 88C194.984 88 152 118.559 152 176C152 233.441 194.984 296 248 296C301.016 296 344 233.441 344 176Z" fill="#DB9B7C"/>
<path d="M236 294.809C283.344 286.305 320 229.023 320 176C320 122.977 283.344 92.9219 236 88.6016C188.656 92.9219 152 122.977 152 176C152 229.023 188.656 286.305 236 294.809Z" fill="#EFBE9A"/>
<path d="M408 496H88C83.5859 496 80 492.426 80 488V362.617H96V480H400V362.617H416V488C416 492.426 412.414 496 408 496Z" fill="black"/>
<path d="M264 136H320V152H264V136Z" fill="black"/>
<path d="M176 136H232V152H176V136Z" fill="black"/>
<path d="M240 176H256V208H240V176Z" fill="black"/>
<path d="M212 184C205.383 184 200 178.617 200 172C200 165.383 205.383 160 212 160C218.617 160 224 165.383 224 172C224 178.617 218.617 184 212 184ZM212 168C209.793 168 208 169.801 208 172C208 174.199 209.793 176 212 176C214.207 176 216 174.199 216 172C216 169.801 214.207 168 212 168Z" fill="black"/>
<path d="M284 184C277.383 184 272 178.617 272 172C272 165.383 277.383 160 284 160C290.617 160 296 165.383 296 172C296 178.617 290.617 184 284 184ZM284 168C281.793 168 280 169.801 280 172C280 174.199 281.793 176 284 176C286.207 176 288 174.199 288 172C288 169.801 286.207 168 284 168Z" fill="black"/>
<path d="M248 272C217.121 272 192 246.871 192 216H208C208 238.055 225.945 256 248 256C270.055 256 288 238.055 288 216H304C304 246.871 278.879 272 248 272Z" fill="black"/>
<path d="M248 304C198.902 304 144 249.258 144 176C144 118.574 185.793 80 248 80C310.207 80 352 118.574 352 176C352 249.258 297.098 304 248 304ZM248 96C194.543 96 160 127.398 160 176C160 227.801 198.441 288 248 288C297.559 288 336 227.801 336 176C336 127.398 301.457 96 248 96Z" fill="black"/>
<path d="M325.656 397.656L314.344 386.344C348.945 351.742 368 305.734 368 256.809V136C368 69.832 314.168 16 248 16C181.832 16 128 69.832 128 136V271.434C128 305.777 141.375 338.062 165.656 362.344L154.344 373.656C127.039 346.359 112 310.047 112 271.434V136C112 61.0078 173.008 0 248 0C322.992 0 384 61.0078 384 136V256.809C384 310.008 363.281 360.031 325.656 397.656Z" fill="black"/>
<path d="M248 440C199.848 440 152.113 424.09 113.602 395.191L94.2305 380.672C80.3125 370.23 72 353.609 72 336.207C72 313.359 85.7109 293.098 106.938 284.609L117.031 280.566L122.977 295.426L112.879 299.465C97.7695 305.512 88 319.938 88 336.207C88 348.602 93.9219 360.434 103.832 367.871L123.199 382.398C158.969 409.223 203.289 424 248 424C292.711 424 337.031 409.223 372.801 382.398L392.168 367.879C402.078 360.441 408 348.602 408 336.207C408 319.938 398.23 305.512 383.121 299.465L373.023 295.426L378.969 280.566L389.062 284.609C410.289 293.105 424 313.359 424 336.207C424 353.609 415.688 370.23 401.77 380.672L382.398 395.191C343.887 424.09 296.152 440 248 440Z" fill="black"/>
<path d="M144 408H160V488H144V408Z" fill="black"/>
<path d="M336 408H352V488H336V408Z" fill="black"/>
</g>
<defs>
<clipPath id="clip0">
<rect width="496" height="496" fill="white"/>
</clipPath>
</defs>
</svg>
