<svg width="512" height="512" viewBox="0 0 512 512" fill="none" xmlns="http://www.w3.org/2000/svg">
<path d="M136 336L104 304V120C104 62.56 150.56 16 208 16H304C361.44 16 408 62.56 408 120V304L376 336H136Z" fill="#3E3C44"/>
<path d="M384 120C384 62.56 337.44 16 280 16H208C150.56 16 104 62.56 104 120V304L136 336H352L384 304V120Z" fill="#53505A"/>
<path d="M224 288H288V320H224V288Z" fill="#FDD089"/>
<path d="M304 320H345.376C359.864 320 373.76 325.752 384 336C394.248 346.248 400 360.136 400 374.624V496H112V374.624C112 360.136 117.752 346.24 128 336C138.248 325.752 152.136 320 166.624 320H208H304Z" fill="#F5EBE0"/>
<path d="M352 320V496H160V320V320.4C162.184 320.136 164.4 320 166.624 320H208H304H345.376C347.6 320 349.816 320.136 352 320.4V320Z" fill="#BABABA"/>
<path d="M344 144V208C344 252.184 308.184 288 264 288H248C203.816 288 168 252.184 168 208V144H344Z" fill="#FCC062"/>
<path d="M244 287.8C286.312 285.704 320 250.832 320 208V144H168V208C168 250.832 201.688 285.704 244 287.8Z" fill="#FDD089"/>
<path d="M152 112H360V144H152V112Z" fill="#8B8B8B"/>
<path d="M152 112H336V144H152V112Z" fill="#BABABA"/>
<path d="M280 288H296V320H280V288Z" fill="black"/>
<path d="M256 424C252.968 424 250.2 422.288 248.84 419.576L200.84 323.576L215.152 316.416L256 398.112L296.84 316.424L311.152 323.584L263.152 419.584C261.8 422.288 259.032 424 256 424Z" fill="black"/>
<path d="M216 288H232V320H216V288Z" fill="black"/>
<path d="M400 504H112C107.584 504 104 500.424 104 496V374.624C104 357.888 110.512 342.16 122.344 330.344C134.176 318.512 149.904 312 166.632 312H345.376C362.104 312 377.832 318.512 389.664 330.344C401.488 342.168 408 357.888 408 374.624V496C408 500.424 404.416 504 400 504ZM120 488H392V374.624C392 362.168 387.152 350.456 378.344 341.656C369.536 332.848 357.824 328 345.368 328H166.632C154.176 328 142.464 332.848 133.656 341.656C124.848 350.464 120 362.168 120 374.624V488Z" fill="black"/>
<path d="M152 320H168V496H152V320Z" fill="black"/>
<path d="M344 320H360V496H344V320Z" fill="black"/>
<path d="M264 296H248C199.48 296 160 256.52 160 208V144C160 139.584 163.584 136 168 136H344C348.416 136 352 139.584 352 144V208C352 256.52 312.52 296 264 296ZM176 152V208C176 247.696 208.304 280 248 280H264C303.696 280 336 247.696 336 208V152H176Z" fill="black"/>
<path d="M208 168H224V200H208V168Z" fill="black"/>
<path d="M288 168H304V200H288V168Z" fill="black"/>
<path d="M264 264H248C234.768 264 224 253.232 224 240V232H240V240C240 244.408 243.592 248 248 248H264C268.408 248 272 244.408 272 240V232H288V240C288 253.232 277.232 264 264 264Z" fill="black"/>
<path d="M248 416H264V472H248V416Z" fill="black"/>
<path d="M232 432H280V448H232V432Z" fill="black"/>
<path d="M360 152H152C147.584 152 144 148.416 144 144V112C144 107.584 147.584 104 152 104H360C364.416 104 368 107.584 368 112V144C368 148.416 364.416 152 360 152ZM160 136H352V120H160V136Z" fill="black"/>
<path d="M385.448 337.864L374.136 326.552L400 300.688V120C400 67.064 356.936 24 304 24H208C155.064 24 112 67.064 112 120V300.688L137.864 326.552L126.552 337.864L98.344 309.656C96.84 308.16 96 306.128 96 304V120C96 58.24 146.24 8 208 8H304C365.76 8 416 58.24 416 120V304C416 306.128 415.16 308.16 413.656 309.656L385.448 337.864Z" fill="black"/>
</svg>
