<svg width="496" height="496" viewBox="0 0 496 496" fill="none" xmlns="http://www.w3.org/2000/svg">
<path d="M192 296L121.879 317.574C101.742 323.77 88 342.375 88 363.449V488H408V363.449C408 342.375 394.258 323.77 374.121 317.566L304 296" fill="#568E53"/>
<path d="M350.121 317.574L280 296H192L121.879 317.574C101.742 323.77 88 342.375 88 363.449V488H384V363.449C384 342.375 370.258 323.77 350.121 317.574Z" fill="#7ECB92"/>
<path d="M192 296L248 384L304 296" fill="#DB9B7C"/>
<path d="M288 384C288 406.09 270.09 424 248 424C225.91 424 208 406.09 208 384C208 361.91 225.91 344 248 344C270.09 344 288 361.91 288 384Z" fill="#8892A0"/>
<path d="M272 416L264 488H232L224 416" fill="#857970"/>
<path d="M352 448H408V488H352V448Z" fill="#EFBE9A"/>
<path d="M88 448H144V488H88V448Z" fill="#EFBE9A"/>
<path d="M352 416H424V448H352" fill="#568E53"/>
<path d="M144 448H72V416H144" fill="#568E53"/>
<path d="M168 296L184 368L216 336L192 296" fill="#568E53"/>
<path d="M328 296L312 368L280 336L304 296" fill="#568E53"/>
<path d="M160 208H144C126.328 208 112 193.672 112 176C112 158.328 126.328 144 144 144H160" fill="#DB9B7C"/>
<path d="M336 208H352C369.672 208 384 193.672 384 176C384 158.328 369.672 144 352 144H336" fill="#EFBE9A"/>
<path d="M144 24V208C144 265.441 190.559 312 248 312C305.441 312 352 265.441 352 208V8H280.566C244.352 8 209.609 22.3906 184 48L144 24Z" fill="#DB9B7C"/>
<path d="M169.559 39.3359C166.266 42.0703 163.055 44.9453 160 48L144 38.3984V208C144 261.375 184.223 305.297 236 311.258C287.777 305.297 328 261.375 328 208V8H280.566C244.352 8 209.609 22.3906 184 48L169.559 39.3359Z" fill="#EFBE9A"/>
<path d="M280.566 8C244.352 8 209.609 22.3906 184 48L144 24V160C161.672 160 176 145.672 176 128V80L200 112L240 64V128L280 88V128L320 64V128C320 145.672 334.328 160 352 160V8H280.566Z" fill="#4472B2"/>
<path d="M248 320C186.238 320 136 269.762 136 208V24C136 21.1211 137.543 18.457 140.055 17.0391C142.559 15.6172 145.641 15.6562 148.121 17.1445L182.879 38C209.602 13.4492 244.047 0 280.566 0H352C356.426 0 360 3.58594 360 8V208C360 269.762 309.762 320 248 320ZM152 38.1289V208C152 260.938 195.062 304 248 304C300.938 304 344 260.938 344 208V16H280.566C246.223 16 213.938 29.375 189.656 53.6562C187.07 56.2578 183.039 56.7539 179.879 54.8555L152 38.1289Z" fill="black"/>
<path d="M144 216C121.945 216 104 198.055 104 176C104 153.945 121.945 136 144 136V152C130.77 152 120 162.77 120 176C120 189.23 130.77 200 144 200V216Z" fill="black"/>
<path d="M352 216V200C365.23 200 376 189.23 376 176C376 162.77 365.23 152 352 152V136C374.055 136 392 153.945 392 176C392 198.055 374.055 216 352 216Z" fill="black"/>
<path d="M264 152H320V168H264V152Z" fill="black"/>
<path d="M176 152H232V168H176V152Z" fill="black"/>
<path d="M240 192H256V224H240V192Z" fill="black"/>
<path d="M212 200C205.383 200 200 194.617 200 188C200 181.383 205.383 176 212 176C218.617 176 224 181.383 224 188C224 194.617 218.617 200 212 200ZM212 184C209.801 184 208 185.793 208 188C208 190.207 209.801 192 212 192C214.199 192 216 190.207 216 188C216 185.793 214.199 184 212 184Z" fill="black"/>
<path d="M284 200C277.383 200 272 194.617 272 188C272 181.383 277.383 176 284 176C290.617 176 296 181.383 296 188C296 194.617 290.617 200 284 200ZM284 184C281.801 184 280 185.793 280 188C280 190.207 281.801 192 284 192C286.199 192 288 190.207 288 188C288 185.793 286.199 184 284 184Z" fill="black"/>
<path d="M248 288C217.129 288 192 262.879 192 232H208C208 254.055 225.945 272 248 272C270.055 272 288 254.055 288 232H304C304 262.879 278.871 288 248 288Z" fill="black"/>
<path d="M416 416H400V363.457C400 345.785 388.656 330.414 371.77 325.223L301.648 303.648L306.352 288.359L376.473 309.938C400.121 317.199 416 338.711 416 363.457V416Z" fill="black"/>
<path d="M408 496H88C83.5742 496 80 492.414 80 488V448H96V480H400V448H416V488C416 492.414 412.426 496 408 496Z" fill="black"/>
<path d="M96 416H80V363.457C80 338.711 95.8789 317.199 119.527 309.938L189.648 288.359L194.352 303.648L124.23 325.223C107.344 330.414 96 345.785 96 363.457V416Z" fill="black"/>
<path d="M352 168C329.945 168 312 150.055 312 128V91.8948L286.785 132.239C284.895 135.266 281.199 136.664 277.801 135.696C274.367 134.703 272 131.567 272 128V107.313L245.656 133.657C243.367 135.946 239.938 136.625 236.938 135.391C233.945 134.153 232 131.231 232 128V86.0979L206.152 117.121C204.586 119 202.215 120.071 199.801 119.992C197.352 119.93 195.07 118.754 193.609 116.801L184 104V128C184 150.055 166.055 168 144 168V152C157.23 152 168 141.231 168 128V80.0003C168 76.5511 170.199 73.5042 173.473 72.4065C176.742 71.3206 180.328 72.4495 182.398 75.1995L200.328 99.1058L233.848 58.8792C236.016 56.2894 239.566 55.3362 242.719 56.4808C245.887 57.6253 248 60.6331 248 64.0003V108.688L274.344 82.344C276.641 80.055 280.07 79.3753 283.062 80.6097C286.055 81.8479 288 84.7698 288 88.0003V100.106L313.215 59.762C315.105 56.7268 318.801 55.3284 322.199 56.305C325.633 57.2972 328 60.4339 328 64.0003V128C328 141.231 338.77 152 352 152V168Z" fill="black"/>
<path d="M248 432C221.527 432 200 410.473 200 384C200 357.527 221.527 336 248 336C274.473 336 296 357.527 296 384C296 410.473 274.473 432 248 432ZM248 352C230.352 352 216 366.352 216 384C216 401.648 230.352 416 248 416C265.648 416 280 401.648 280 384C280 366.352 265.648 352 248 352Z" fill="black"/>
<path d="M216.039 416.895L231.941 415.129L239.938 487.125L224.035 488.895L216.039 416.895Z" fill="black"/>
<path d="M256.047 487.109L264.039 415.109L279.941 416.875L271.949 488.871L256.047 487.109Z" fill="black"/>
<path d="M184 376C183.246 376 182.496 375.895 181.77 375.68C178.961 374.863 176.824 372.586 176.191 369.734L160.191 297.734L175.816 294.266L188.648 352.039L205.93 334.762L185.137 300.113L198.855 291.879L222.855 331.879C224.742 335.031 224.246 339.055 221.656 341.656L189.656 373.656C188.137 375.176 186.098 376 184 376Z" fill="black"/>
<path d="M312 376C309.902 376 307.863 375.176 306.343 373.656L274.343 341.656C271.753 339.062 271.246 335.031 273.144 331.879L297.144 291.879L310.863 300.113L290.07 334.762L307.351 352.039L320.183 294.266L335.808 297.734L319.808 369.734C319.175 372.586 317.031 374.863 314.23 375.68C313.503 375.895 312.753 376 312 376Z" fill="black"/>
<path d="M136 392H152V488H136V392Z" fill="black"/>
<path d="M344 392H360V488H344V392Z" fill="black"/>
<path d="M424 456H352V440H416V424H352V408H424C428.426 408 432 411.586 432 416V448C432 452.414 428.426 456 424 456Z" fill="black"/>
<path d="M144 456H72C67.5742 456 64 452.414 64 448V416C64 411.586 67.5742 408 72 408H144V424H80V440H144V456Z" fill="black"/>
<path d="M400 288C386.77 288 376 277.23 376 264C376 250.77 386.77 240 400 240C413.23 240 424 250.77 424 264C424 277.23 413.23 288 400 288ZM400 256C395.586 256 392 259.594 392 264C392 268.406 395.586 272 400 272C404.414 272 408 268.406 408 264C408 259.594 404.414 256 400 256Z" fill="black"/>
<path d="M424 264H408V216C408 211.586 411.574 208 416 208H440V224H424V264Z" fill="black"/>
<path d="M80 128C66.7695 128 56 117.23 56 104C56 90.7695 66.7695 80 80 80C93.2305 80 104 90.7695 104 104C104 117.23 93.2305 128 80 128ZM80 96C75.5859 96 72 99.5938 72 104C72 108.406 75.5859 112 80 112C84.4141 112 88 108.406 88 104C88 99.5938 84.4141 96 80 96Z" fill="black"/>
<path d="M104 104H88V56C88 51.5859 91.5742 48 96 48H120V64H104V104Z" fill="black"/>
</svg>
