<svg width="512" height="512" viewBox="0 0 512 512" fill="none" xmlns="http://www.w3.org/2000/svg">
<path d="M145.803 321.669L125.819 327.818C105.024 334.214 90.8389 353.419 90.8389 375.173V503.742H421.161V375.173C421.161 353.419 406.976 334.214 386.19 327.81L366.198 321.661" fill="#909564"/>
<path d="M173.42 280.774L115.613 305.549C174.214 337.508 219.351 389.484 242.787 451.98L256 487.226L269.214 451.98C292.65 389.484 337.787 337.508 396.387 305.549L338.581 280.774" fill="#976947"/>
<path d="M206.451 305.549V322.065C206.451 349.432 228.633 371.613 256 371.613C283.367 371.613 305.548 349.432 305.548 322.065V305.549" fill="#DB9B7C"/>
<path d="M148.646 132.129H363.355V214.71C363.355 274.004 315.295 322.064 256 322.064C196.706 322.064 148.646 274.004 148.646 214.71V132.129Z" fill="#DB9B7C"/>
<path d="M243.613 321.298C297.061 315.145 338.581 269.806 338.581 214.71V132.129H148.646V214.71C148.646 269.806 190.166 315.145 243.613 321.298Z" fill="#EFBE9A"/>
<path d="M256 8.25781C187.589 8.25781 132.129 63.7175 132.129 132.129V239.484C150.371 239.484 165.161 224.693 165.161 206.451V165.161H346.839V206.451C346.839 224.693 361.629 239.484 379.871 239.484V132.129C379.871 63.7175 324.411 8.25781 256 8.25781Z" fill="#909564"/>
<path d="M258.355 111.279L266.339 124.589C275.298 139.512 291.427 148.646 308.827 148.646H322.065C335.75 148.646 346.839 137.557 346.839 123.871V107.355C346.839 93.6698 335.75 82.5811 322.065 82.5811H272.516C263.391 82.5811 256 89.9722 256 99.0972V102.779C256 105.779 256.819 108.71 258.355 111.279Z" fill="#976947"/>
<path d="M253.645 111.279L245.661 124.589C236.701 139.512 220.572 148.646 203.173 148.646H189.935C176.25 148.646 165.161 137.557 165.161 123.871V107.355C165.161 93.6698 176.25 82.5811 189.935 82.5811H239.484C248.609 82.5811 256 89.9722 256 99.0972V102.779C256 105.779 255.181 108.71 253.645 111.279Z" fill="#976947"/>
<path d="M173.42 99.0967H123.871L115.613 132.129H173.42" fill="#555C47"/>
<path d="M338.581 99.0967H388.129L396.387 132.129H338.581" fill="#555C47"/>
<path d="M256 330.322C200.053 330.322 152.214 290.427 142.246 235.463L158.496 232.512C167.036 279.608 208.036 313.806 256 313.806C303.956 313.806 344.956 279.617 353.504 232.512L369.754 235.463C359.786 290.427 311.94 330.322 256 330.322V330.322Z" fill="black"/>
<path d="M247.742 198.193H264.258V231.226H247.742V198.193Z" fill="black"/>
<path d="M218.838 206.452C212.008 206.452 206.451 200.895 206.451 194.065C206.451 187.234 212.008 181.678 218.838 181.678C225.669 181.678 231.225 187.234 231.225 194.065C231.225 200.895 225.669 206.452 218.838 206.452ZM218.838 189.936C216.56 189.936 214.709 191.795 214.709 194.065C214.709 196.335 216.56 198.194 218.838 198.194C221.116 198.194 222.967 196.335 222.967 194.065C222.967 191.795 221.116 189.936 218.838 189.936Z" fill="black"/>
<path d="M293.162 206.452C286.331 206.452 280.774 200.895 280.774 194.065C280.774 187.234 286.331 181.678 293.162 181.678C299.992 181.678 305.549 187.234 305.549 194.065C305.549 200.895 299.992 206.452 293.162 206.452ZM293.162 189.936C290.883 189.936 289.032 191.795 289.032 194.065C289.032 196.335 290.883 198.194 293.162 198.194C295.44 198.194 297.291 196.335 297.291 194.065C297.291 191.795 295.44 189.936 293.162 189.936Z" fill="black"/>
<path d="M421.162 512H90.8391C86.2827 512 82.5811 508.31 82.5811 503.742V375.181C82.5811 349.645 98.9802 327.439 123.383 319.927L143.375 313.782L148.234 329.573L128.246 335.714C110.807 341.073 99.0972 356.939 99.0972 375.181V495.484H412.904V375.181C412.904 356.939 401.194 341.073 383.754 335.714L363.767 329.573L368.625 313.782L388.609 319.927C413.021 327.431 429.42 349.645 429.42 375.181V503.742C429.42 508.31 425.718 512 421.162 512V512Z" fill="black"/>
<path d="M256 297.29C224.125 297.29 198.193 271.35 198.193 239.483H214.709C214.709 262.25 233.234 280.774 256 280.774C278.766 280.774 297.29 262.25 297.29 239.483H313.806C313.806 271.35 287.875 297.29 256 297.29Z" fill="black"/>
<path d="M256 379.871C224.125 379.871 198.193 353.932 198.193 322.065V305.549H214.709V322.065C214.709 344.831 233.234 363.355 256 363.355C278.766 363.355 297.29 344.831 297.29 322.065V305.549H313.806V322.065C313.806 353.932 287.875 379.871 256 379.871Z" fill="black"/>
<path d="M256 495.484C252.557 495.484 249.476 493.347 248.262 490.133L235.04 454.887C212.315 394.258 168.488 343.798 111.649 312.798C108.875 311.278 107.206 308.315 107.355 305.161C107.504 301.996 109.444 299.198 112.351 297.96L170.157 273.186L176.665 288.363L133.919 306.69C187.25 339.936 228.335 389.956 250.508 449.081L256 463.706L261.484 449.081C283.657 389.956 324.734 339.936 378.073 306.69L335.327 288.363L341.835 273.186L399.641 297.96C402.548 299.198 404.488 301.996 404.637 305.161C404.786 308.315 403.117 311.278 400.343 312.798C343.504 343.798 299.686 394.258 276.952 454.887L263.73 490.133C262.524 493.347 259.444 495.484 256 495.484V495.484Z" fill="black"/>
<path d="M355.097 404.646H371.613V503.742H355.097V404.646Z" fill="black"/>
<path d="M140.387 404.646H156.903V503.742H140.387V404.646Z" fill="black"/>
<path d="M367.46 101.294C353.686 51.3831 307.851 16.5161 256 16.5161C204.149 16.5161 158.315 51.3831 144.54 101.294L128.621 96.9073C144.367 39.8468 196.75 0 256 0C315.25 0 367.633 39.8468 383.379 96.8992L367.46 101.294Z" fill="black"/>
<path d="M379.871 247.742C357.105 247.742 338.581 229.218 338.581 206.451V173.419H173.419V206.451C173.419 229.218 154.895 247.742 132.129 247.742C127.573 247.742 123.871 244.052 123.871 239.484V132.129H140.387V229.814C150 226.403 156.903 217.222 156.903 206.451V165.161C156.903 160.593 160.605 156.903 165.161 156.903H346.839C351.395 156.903 355.097 160.593 355.097 165.161V206.451C355.097 217.222 362 226.403 371.613 229.814V132.129H388.129V239.484C388.129 244.052 384.428 247.742 379.871 247.742Z" fill="black"/>
<path d="M322.065 156.903H308.827C288.637 156.903 269.641 146.141 259.262 128.842L251.278 115.532C248.964 111.673 247.742 107.274 247.742 102.778V99.0965C247.742 85.4392 258.859 74.3223 272.516 74.3223H322.065C340.283 74.3223 355.097 89.1368 355.097 107.355V123.871C355.097 142.088 340.283 156.903 322.065 156.903ZM272.516 90.8384C267.968 90.8384 264.258 94.54 264.258 99.0965V102.778C264.258 104.274 264.662 105.738 265.44 107.024L273.424 120.334C280.839 132.697 294.408 140.387 308.827 140.387H322.065C331.174 140.387 338.581 132.98 338.581 123.871V107.355C338.581 98.2457 331.174 90.8384 322.065 90.8384H272.516Z" fill="black"/>
<path d="M203.173 156.903H189.936C171.718 156.903 156.903 142.088 156.903 123.871V107.355C156.903 89.1368 171.718 74.3223 189.936 74.3223H239.484C253.141 74.3223 264.258 85.4392 264.258 99.0965V102.778C264.258 107.274 263.036 111.673 260.722 115.52L252.738 128.834C242.359 146.141 223.363 156.903 203.173 156.903ZM189.936 90.8384C180.827 90.8384 173.419 98.2457 173.419 107.355V123.871C173.419 132.98 180.827 140.387 189.936 140.387H203.173C217.593 140.387 231.161 132.697 238.585 120.334L246.569 107.024C247.339 105.746 247.742 104.274 247.742 102.778V99.0965C247.742 94.54 244.032 90.8384 239.484 90.8384H189.936Z" fill="black"/>
<path d="M165.162 140.387H115.613C113.069 140.387 110.666 139.214 109.105 137.21C107.545 135.21 106.984 132.593 107.601 130.129L115.859 97.0969C116.779 93.4155 120.081 90.8389 123.871 90.8389H165.162V107.355H130.319L126.19 123.871H165.162V140.387Z" fill="black"/>
<path d="M396.387 140.387H346.839V123.871H385.811L381.682 107.355H346.839V90.8389H388.129C391.919 90.8389 395.222 93.4155 396.141 97.0969L404.399 130.129C405.016 132.601 404.456 135.21 402.895 137.21C401.335 139.214 398.932 140.387 396.387 140.387V140.387Z" fill="black"/>
</svg>
