<svg width="512" height="512" viewBox="0 0 512 512" fill="none" xmlns="http://www.w3.org/2000/svg">
<g clip-path="url(#clip0)">
<path d="M345.114 48.5425H329.243C311.365 63.6155 284.698 62.3535 268.346 45.2305H254.422L240.412 81.3755L256 111.023H345.114C345.114 85.9275 345.114 55.7165 345.114 48.5425Z" fill="#FFCE71"/>
<path d="M268.345 45.2305C265.998 42.7725 263.926 40.0495 262.186 37.1055H249.814C235.721 60.9355 203.726 66.2205 182.757 48.5415H166.886V111.022H256C247.843 89.2955 251.037 56.9505 268.345 45.2305Z" fill="#FFB357"/>
<path d="M256 7.5C244.465 7.5 235.114 16.851 235.114 28.386C235.114 39.938 244.494 49.272 256 49.272C260.62 49.272 264.887 47.769 268.345 45.23C273.523 41.429 276.886 35.301 276.886 28.386C276.886 16.851 267.535 7.5 256 7.5Z" fill="#FFCE71"/>
<path d="M166.886 63.1958C178.421 63.1958 187.772 53.8448 187.772 42.3098C187.772 30.7748 178.421 21.4238 166.886 21.4238C155.351 21.4238 146 30.7748 146 42.3098C146 53.8448 155.351 63.1958 166.886 63.1958Z" fill="#FFCE71"/>
<path d="M345.114 21.4238C329.915 21.4238 319.824 37.1738 326.103 50.9558C329.392 58.1748 336.664 63.1958 345.114 63.1958C356.649 63.1958 366 53.8448 366 42.3098C366 30.7748 356.649 21.4238 345.114 21.4238Z" fill="#FFCE71"/>
<path d="M331.527 475.117C328.866 463.477 323.661 452.874 316.478 443.854H200.733V495.94L209.295 504.502H256H333.5V492.682C333.5 486.644 332.818 480.764 331.527 475.117Z" fill="#1CBBEA"/>
<path d="M205.025 443.84H195.532V504.501H209.294V492.681C209.294 479.759 212.43 467.549 217.972 456.787L205.025 443.84Z" fill="#08A5D6"/>
<path d="M271.385 416.048C266.411 415.033 261.266 414.5 256 414.5L217.974 424.593V456.786C250.167 470.126 287.839 465.83 316.479 443.851C305.329 429.851 289.469 419.737 271.385 416.048Z" fill="#FFCE71"/>
<path d="M271.384 416.048C266.41 415.033 261.266 414.5 255.999 414.5C231.587 414.5 209.748 425.988 195.532 443.839C202.54 449.217 210.095 453.522 217.972 456.787C217.979 456.773 217.985 456.76 217.992 456.746C228.639 436.101 248.146 420.796 271.384 416.048Z" fill="#FFB357"/>
<path d="M401 249.5H111C91.67 249.5 76 265.17 76 284.5C76 303.83 91.67 319.5 111 319.5H401C420.33 319.5 436 303.83 436 284.5C436 265.17 420.33 249.5 401 249.5Z" fill="#FFBF9D"/>
<path d="M280.148 141.514H235.853L111 284.501L235.853 427.488H280.148C348.733 415.989 401 356.354 401 284.501C401 212.648 348.733 153.013 280.148 141.514Z" fill="#FFD4BD"/>
<path d="M159.099 284.702C159.099 212.722 211.46 152.979 280.148 141.513C272.294 140.196 264.229 139.5 256 139.5C176.107 139.5 111 204.26 111 284.5C111 364.799 176.164 429.5 256 429.5C264.228 429.5 272.293 428.804 280.148 427.487C211.46 416.021 159.099 356.68 159.099 284.702Z" fill="#FFBF9D"/>
<path d="M177 355.127C193.016 355.127 206 344.83 206 332.127C206 319.424 193.016 309.127 177 309.127C160.984 309.127 148 319.424 148 332.127C148 344.83 160.984 355.127 177 355.127Z" fill="#FF8E9E"/>
<path d="M335 355.127C351.016 355.127 364 344.83 364 332.127C364 319.424 351.016 309.127 335 309.127C318.984 309.127 306 319.424 306 332.127C306 344.83 318.984 355.127 335 355.127Z" fill="#FF8E9E"/>
<path d="M195.533 443.84C186.379 438.689 175.037 439.484 166.692 445.863C158.347 452.242 154.603 462.978 157.172 473.162C159.741 483.346 168.128 491.023 178.5 492.681V504.501H209.295V477.678C209.295 465.048 204.401 452.82 195.533 443.84Z" fill="#D4D4FF"/>
<path d="M345.318 445.876C336.973 439.497 325.631 438.702 316.477 443.853C307.609 452.833 302.705 465.049 302.705 477.678V504.501H333.5V492.681C333.5 492.675 333.5 492.67 333.5 492.664L333.51 492.694C343.882 491.036 352.27 483.36 354.838 473.175C357.406 462.99 353.663 452.254 345.318 445.876Z" fill="#EFEDFF"/>
<path d="M381.199 125.618C347.906 92.6748 296.119 86.6378 256.001 111.024H184.349V216.015L187.464 222.157C191.922 230.946 201.204 236.218 211.035 235.534C216.304 235.167 221.577 234.866 226.852 234.628C236.131 234.211 244.364 228.551 248.126 220.058L254.348 206.015L260.515 219.92C264.299 228.452 272.593 234.113 281.919 234.487C292.018 234.892 302.111 235.533 312.187 236.414C320.896 237.175 329.34 233.182 334.348 226.016L337.079 230.334C340.886 236.353 347.121 240.395 354.16 241.482C368.399 243.68 382.773 246.389 396.748 249.502C421.392 209.804 414.491 158.561 381.199 125.618Z" fill="#E8B5B1"/>
<path d="M256 111.023C215.882 86.6384 164.095 92.6744 130.802 125.617C97.5105 158.561 90.6155 209.804 115.26 249.5C130.09 246.196 145.316 243.363 160.428 241.094C168.44 239.891 175.324 234.776 178.836 227.475L184.349 216.015C184.348 169.606 212.784 127.939 256 111.023Z" fill="#D6948C"/>
<path d="M201.051 310V298C201.051 293.858 197.693 290.5 193.551 290.5C189.409 290.5 186.051 293.858 186.051 298V310C186.051 314.142 189.409 317.5 193.551 317.5C197.693 317.5 201.051 314.142 201.051 310Z" fill="black"/>
<path d="M325.949 310V298C325.949 293.858 322.591 290.5 318.449 290.5C314.307 290.5 310.949 293.858 310.949 298V310C310.949 314.142 314.307 317.5 318.449 317.5C322.591 317.5 325.949 314.142 325.949 310Z" fill="black"/>
<path d="M278.118 314.571C280.84 311.448 280.514 306.711 277.392 303.989C274.27 301.267 269.532 301.591 266.81 304.715C261.083 311.286 250.911 311.279 245.189 304.715C242.467 301.592 237.73 301.267 234.607 303.989C231.484 306.711 231.159 311.448 233.881 314.571C245.586 328 266.425 327.987 278.118 314.571Z" fill="black"/>
<path d="M408.924 242.752C420.075 219.091 421.73 193.021 415.118 169.059C414.017 165.066 409.893 162.724 405.893 163.824C401.901 164.926 399.557 169.056 400.659 173.049C406.823 195.388 404.597 219.696 393.013 241.009C380.552 238.342 367.893 236.012 355.305 234.069C350.382 233.309 346.05 230.486 343.418 226.324L340.688 222.007C337.821 217.473 331.265 217.333 328.202 221.72C324.735 226.681 318.884 229.47 312.841 228.943C302.722 228.059 292.42 227.403 282.221 226.994C275.811 226.737 269.983 222.767 267.372 216.881L261.205 202.976C258.578 197.052 250.126 197.032 247.492 202.978L241.27 217.021C238.634 222.97 232.981 226.846 226.516 227.136C221.196 227.375 215.813 227.683 210.517 228.052C203.634 228.531 197.25 224.872 194.152 218.764L191.036 212.622C188.219 207.067 180.273 207.184 177.589 212.764L172.075 224.224C169.628 229.311 164.857 232.845 159.313 233.677C145.831 235.701 132.293 238.163 118.993 241.009C111.782 227.741 107.993 212.877 107.993 197.703C107.993 124.877 188.844 78.982 252.103 117.433C254.496 118.888 257.5 118.887 259.894 117.433C303.552 90.895 361.432 103.507 389.442 147.739C391.659 151.239 396.293 152.278 399.792 150.063C403.291 147.847 404.332 143.214 402.116 139.714C397.674 132.699 392.411 126.163 386.472 120.287C376.644 110.562 365.271 102.922 352.613 97.519V69.683C364.637 66.385 373.5 55.366 373.5 42.31C373.5 26.658 360.767 13.924 345.114 13.924C335.423 13.924 326.503 18.795 321.253 26.954C317.257 33.165 315.882 40.518 317.219 47.563C304.929 53.824 290.337 52.69 279.176 44.732C282.51 39.994 284.386 34.289 284.386 28.386C284.386 12.734 271.652 0 256 0C240.348 0 227.614 12.734 227.614 28.386C227.614 34.282 229.495 39.984 232.837 44.722C221.747 52.536 206.963 53.682 194.773 47.536C195.098 45.82 195.272 44.076 195.272 42.31C195.272 26.658 182.538 13.924 166.886 13.924C151.234 13.924 138.5 26.658 138.5 42.31C138.5 55.366 147.363 66.385 159.386 69.683V97.519C103.62 121.323 76.965 187.335 103.083 242.751C83.421 246.472 68.5 263.771 68.5 284.5C68.5 307.402 86.712 326.12 109.412 326.96C119.212 360.657 140.581 390.474 170.579 410.851C174.008 413.18 178.672 412.285 180.997 408.861C183.325 405.434 182.434 400.77 179.007 398.443C133.094 367.257 109.505 311.552 121.491 255.839C134.699 253 148.139 250.524 161.541 248.511C171.567 247.005 180.245 240.833 184.999 231.9C190.994 238.937 199.794 243.092 209.327 243.092C210.066 243.092 210.815 243.066 211.555 243.015C216.731 242.655 221.991 242.353 227.189 242.12C238.884 241.594 249.164 234.86 254.356 224.432C259.597 234.834 269.901 241.511 281.619 241.981C291.584 242.381 301.649 243.022 311.537 243.885C319.376 244.569 327.09 242.295 333.235 237.761C338.207 243.703 345.221 247.689 353.015 248.892C365.521 250.823 378.089 253.164 390.508 255.834C409.02 341.901 342.9 422 256 422C237.949 422 220.457 418.59 204.011 411.865C200.176 410.296 195.798 412.135 194.23 415.968C192.662 419.802 194.499 424.181 198.333 425.749C199.379 426.177 200.43 426.589 201.483 426.993C198.65 429.389 195.975 431.986 193.452 434.758C182.93 431.196 171.183 432.988 162.138 439.904C140.901 456.137 146.156 489.332 171.001 498.442V504.501C171.001 508.643 174.359 512.001 178.501 512.001H333.501C337.644 512.001 341.001 508.643 341.001 504.501V498.458C365.855 489.355 371.113 456.152 349.874 439.917C340.828 433.002 329.083 431.209 318.561 434.77C316.039 431.997 313.37 429.4 310.544 427.005C354.908 410.044 389.373 372.483 402.606 326.96C425.298 326.112 443.5 307.397 443.5 284.501C443.5 263.774 428.583 246.476 408.924 242.752ZM333.867 35.07C336.381 31.164 340.48 28.924 345.114 28.924C352.495 28.924 358.5 34.929 358.5 42.31C358.5 49.691 352.495 55.696 345.114 55.696C339.9 55.696 335.131 52.635 332.948 47.892C332.941 47.876 332.933 47.86 332.927 47.844C331.01 43.635 331.353 38.979 333.867 35.07ZM256 15C263.381 15 269.386 21.005 269.386 28.386C269.386 35.941 263.243 41.773 256 41.773C248.938 41.773 242.614 36.033 242.614 28.386C242.614 21.005 248.619 15 256 15ZM188.195 61.014C195.496 64.655 203.451 66.448 211.382 66.448C223.361 66.448 235.274 62.362 244.784 54.441C248.305 55.97 252.098 56.773 256.001 56.773C259.921 56.773 263.72 55.973 267.241 54.449C276.82 62.485 288.611 66.616 300.506 66.616C308.439 66.616 316.415 64.774 323.806 61.044C327.465 65.195 332.275 68.195 337.615 69.667V92.355C310.418 85.109 281.146 88.45 256.001 102.355C231.528 88.822 202.323 84.912 174.387 92.355V69.663C179.726 68.186 184.537 65.177 188.195 61.014ZM153.5 42.31C153.5 34.929 159.505 28.924 166.886 28.924C174.267 28.924 180.272 34.929 180.272 42.31C180.272 44.203 179.864 46.059 179.06 47.824V47.825C176.883 52.607 172.104 55.696 166.887 55.696C159.505 55.696 153.5 49.691 153.5 42.31ZM105.787 311.498C93.109 309.054 83.5 297.881 83.5 284.5C83.5 271.088 93.154 259.894 105.876 257.486C102.595 275.488 102.557 293.538 105.787 311.498ZM201.795 497H186V492.68C186 488.995 183.323 485.856 179.684 485.274C163.44 482.677 158.158 461.825 171.246 451.82C176.947 447.463 184.578 446.75 190.955 449.901C197.856 457.3 201.794 467.359 201.794 477.677V497H201.795ZM214.994 463.668C225.423 467.966 236.505 470.72 248.5 471.555V497H216.795V477.677C216.795 472.927 216.171 468.218 214.994 463.668ZM295.205 477.677V497H263.5V471.554C274.83 470.753 286.149 468.144 297.016 463.645C295.833 468.203 295.205 472.92 295.205 477.677ZM206.759 442.522C210.544 438.724 214.708 435.387 219.227 432.564C231.159 435.512 243.46 437 256 437C268.579 437 280.911 435.486 292.797 432.558C297.308 435.383 301.47 438.727 305.259 442.537C276.017 461.091 237.636 462.079 206.759 442.522ZM321.054 449.914C327.433 446.762 335.064 447.477 340.764 451.834C353.735 461.75 348.751 482.606 332.299 485.269C328.668 485.858 326 489.002 326 492.681V497H310.205V477.677C310.205 467.372 314.146 457.318 321.054 449.914ZM406.229 311.495C409.397 293.81 409.44 275.692 406.124 257.486C418.846 259.894 428.499 271.088 428.499 284.5C428.5 297.875 418.9 309.045 406.229 311.495Z" fill="black"/>
</g>
<defs>
<clipPath id="clip0">
<rect width="512" height="512" fill="white"/>
</clipPath>
</defs>
</svg>
