<svg width="512" height="512" viewBox="0 0 512 512" fill="none" xmlns="http://www.w3.org/2000/svg">
<g clip-path="url(#clip0)">
<path d="M339.107 339.67C339.107 339.67 297.842 331.594 256.001 331.594C214.16 331.594 172.895 339.67 172.895 339.67C172.895 339.67 215.357 418.176 256.001 418.176C296.645 418.176 339.107 339.67 339.107 339.67Z" fill="#6E61B6"/>
<path d="M396 504.501H116C110.477 504.501 106 500.024 106 494.501V473.053C106 423.183 146.427 382.756 196.297 382.756H315.703C365.573 382.756 406 423.183 406 473.053V494.501C406 500.024 401.523 504.501 396 504.501Z" fill="#2ED1E2"/>
<path d="M315.703 382.756H285.703C335.573 382.756 376 423.183 376 473.053V494.501C376 500.024 371.523 504.501 366 504.501H396C401.523 504.501 406 500.024 406 494.501V473.053C406 423.184 365.573 382.756 315.703 382.756Z" fill="#02C7DD"/>
<path d="M117.25 429.383C147.069 450.187 191.562 468.404 256 468.404C320.438 468.404 364.931 450.187 394.75 429.383C379.358 401.582 349.731 382.756 315.703 382.756H196.297C162.269 382.755 132.642 401.581 117.25 429.383Z" fill="#8379C1"/>
<path d="M315.703 382.756H285.708C325.225 382.758 358.807 408.147 371.047 443.5C379.812 439.076 387.697 434.304 394.75 429.383C379.358 401.582 349.731 382.756 315.703 382.756Z" fill="#6E61B6"/>
<path d="M226 320.611H286V418.175H226V320.611Z" fill="#FFCEBF"/>
<path d="M256 320.611H286V418.175H256V320.611Z" fill="#FFB09E"/>
<path d="M172.894 220.823C172.894 242.702 159.514 260.438 143.009 260.438C126.504 260.438 116.916 240.069 116.916 218.19C116.916 196.311 126.504 181.207 143.009 181.207C159.514 181.207 172.894 198.945 172.894 220.823Z" fill="#FFB09E"/>
<path d="M339.106 220.823C339.106 242.702 352.486 260.438 368.991 260.438C385.496 260.438 395.084 240.069 395.084 218.19C395.084 196.311 385.496 181.207 368.991 181.207C352.486 181.207 339.106 198.945 339.106 220.823Z" fill="#FFB09E"/>
<path d="M159.546 243.398V177.765C159.546 124.495 202.73 81.3105 256 81.3105C309.27 81.3105 352.454 124.495 352.454 177.765V243.035C352.454 296.406 309.189 339.671 255.818 339.671C202.648 339.671 159.546 296.568 159.546 243.398Z" fill="#FFCEBF"/>
<path d="M256 81.3105C250.897 81.3105 245.888 81.7105 241 82.4735C287.146 89.6795 322.455 129.598 322.455 177.766V243.036C322.455 291.299 287.073 331.295 240.834 338.509C245.717 339.272 250.721 339.672 255.819 339.672C309.19 339.672 352.455 296.406 352.455 243.036V177.766C352.455 124.495 309.271 81.3105 256 81.3105Z" fill="#FFB09E"/>
<path d="M256 64.0312C108.077 64.0312 149.744 191.716 152.933 198.571C155.93 205.023 159.546 222.58 159.546 222.58C159.546 222.58 180.095 206.067 179.433 199.766C178.374 189.697 172.543 127.842 197.983 133.673C223.414 139.504 233.887 143.742 255.15 143.742C276.413 143.742 286.885 139.504 312.317 133.673C337.757 127.842 331.927 189.696 330.867 199.766C330.204 206.068 352.456 222.637 352.456 222.637C352.456 222.637 354.37 205.023 357.366 198.571C362.106 188.378 403.923 64.0312 256 64.0312Z" fill="#D6694B"/>
<path d="M172.895 339.67C172.895 339.67 223.13 399.024 256.001 418.176C256.001 418.176 237.31 439.047 218.403 432.417C203.423 427.164 183.432 395.505 180.557 384.125C179.832 381.257 172.895 339.67 172.895 339.67Z" fill="#F3F0F3"/>
<path d="M339.106 339.67C339.106 339.67 288.871 399.024 256 418.176C256 418.176 274.691 439.047 293.598 432.417C308.578 427.164 328.569 395.505 331.444 384.125C332.169 381.257 339.106 339.67 339.106 339.67Z" fill="#F3F0F3"/>
<path d="M280.568 361.101H231.75C223.44 361.101 216.703 354.364 216.703 346.054V327.59C216.703 319.28 223.44 312.543 231.75 312.543H280.568C288.878 312.543 295.615 319.28 295.615 327.59V346.054C295.615 354.364 288.879 361.101 280.568 361.101Z" fill="#D6694B"/>
<path d="M280.568 312.543H250.568C258.878 312.543 265.615 319.28 265.615 327.59V346.054C265.615 354.364 258.878 361.101 250.568 361.101H280.568C288.878 361.101 295.615 354.364 295.615 346.054V327.59C295.615 319.28 288.879 312.543 280.568 312.543Z" fill="#C4573A"/>
<path d="M258.568 113.564C318.114 113.564 366.385 89.8208 366.385 60.532C366.385 31.2432 318.114 7.5 258.568 7.5C199.022 7.5 150.751 31.2432 150.751 60.532C150.751 89.8208 199.022 113.564 258.568 113.564Z" fill="#E94444"/>
<path d="M258.568 7.5C253.477 7.5 248.471 7.678 243.568 8.013C296.012 11.604 336.385 33.747 336.385 60.532C336.385 87.317 296.012 109.46 243.568 113.051C248.471 113.387 253.477 113.564 258.568 113.564C318.114 113.564 366.385 89.821 366.385 60.532C366.385 31.243 318.114 7.5 258.568 7.5Z" fill="#D83131"/>
<path d="M384.011 55.4731L369.922 129.56H141.602L127.513 55.4731C127.099 53.2981 129.616 51.5371 132.121 52.2491L187.268 80.5631C188.258 80.4651 189.011 80.3911 190.001 80.2931L254.186 29.2841C255.108 28.5511 256.414 28.5511 257.337 29.2841L321.513 80.2931C322.292 80.9121 323.36 81.0181 324.245 80.5631L379.403 52.2481C381.909 51.5371 384.425 53.2981 384.011 55.4731Z" fill="#FFD15B"/>
<path d="M379.403 52.2484L351.944 66.3444L339.923 129.559H369.923L384.012 55.4724C384.425 53.2974 381.909 51.5364 379.403 52.2484Z" fill="#FFC344"/>
<path d="M378.038 159.563H133.962C130.117 159.563 127 156.447 127 152.602V120.524C127 116.679 130.117 113.562 133.962 113.562H378.039C381.884 113.562 385.001 116.679 385.001 120.524V152.602C385 156.448 381.883 159.563 378.038 159.563Z" fill="#F3F0F3"/>
<path d="M378.038 113.564H348.038C351.883 113.564 355 116.681 355 120.525V152.602C355 156.447 351.883 159.564 348.038 159.564H378.038C381.883 159.564 385 156.447 385 152.602V120.525C385 116.681 381.883 113.564 378.038 113.564Z" fill="#E2DEE2"/>
<path d="M340.141 378.352C342.069 367.424 345.301 348.118 346.504 340.904C347.426 335.603 344.529 333.118 340.551 332.31C339.993 332.201 330.261 330.312 315.538 328.367C322.099 323.769 328.121 318.413 333.546 312.332C336.304 309.241 336.033 304.5 332.942 301.743C329.852 298.986 325.11 299.257 322.353 302.347C316.278 309.157 309.322 314.894 301.613 319.512C298.357 311.06 290.155 305.044 280.569 305.044H231.75C222.061 305.044 213.782 311.188 210.599 319.784C204.224 316.005 198.34 311.461 193.052 306.167C176.284 289.409 167.05 267.118 167.05 243.401V226.128C187.893 208.727 187.147 201.448 186.889 198.99C186.305 193.408 185.143 180.005 185.821 167.065H324.476C325.153 180.037 323.992 193.437 323.412 198.978C323.146 201.481 322.375 208.894 344.95 226.359V243.031C344.95 254 342.983 264.706 339.103 274.853C337.624 278.722 339.562 283.058 343.43 284.537C344.312 284.874 345.217 285.034 346.107 285.034C349.127 285.034 351.972 283.198 353.115 280.21C354.928 275.467 356.367 270.616 357.462 265.689C361.141 267.175 365.016 267.942 368.99 267.942C391.042 267.942 402.58 242.915 402.58 218.192C402.58 192.447 390.606 175.395 371.826 173.84C372.199 171.648 372.537 169.384 372.825 167.066H378.038C386.013 167.066 392.5 160.579 392.5 152.605V120.528C392.5 113.899 388.011 108.312 381.917 106.61L391.373 56.897C392.038 53.459 390.863 49.96 388.229 47.541C385.364 44.909 381.195 43.95 377.359 45.036C376.88 45.171 376.417 45.354 375.975 45.58L371.493 47.881C366.696 35.441 354.81 24.286 336.988 15.757C315.759 5.595 287.909 0 258.57 0C237.488 0 216.914 2.915 199.07 8.429C195.112 9.652 192.896 13.851 194.119 17.809C195.342 21.767 199.543 23.985 203.499 22.76C219.927 17.684 238.971 15 258.57 15C312.84 15 351.72 34.809 357.987 54.811L323.67 72.426L262.001 23.404C258.329 20.491 253.2 20.49 249.523 23.407L187.842 72.423L158.531 57.377C160.024 48.404 167.589 41.215 174.06 36.592C177.431 34.184 178.211 29.5 175.804 26.13C173.396 22.759 168.712 21.977 165.342 24.386C154.648 32.025 147.696 40.855 144.797 50.326L135.544 45.576C135.104 45.35 134.643 45.169 134.168 45.034C130.341 43.949 126.184 44.9 123.318 47.518C120.678 49.93 119.49 53.422 120.141 56.87L129.625 106.729C123.763 108.575 119.499 114.061 119.499 120.525V152.602C119.499 160.576 125.986 167.063 133.96 167.063H138.348C138.584 169.432 138.867 171.725 139.186 173.923C120.972 175.982 109.418 192.895 109.418 218.189C109.418 242.912 120.956 267.939 143.008 267.939C146.947 267.939 150.791 267.183 154.445 265.719C158.632 284.92 168.215 302.55 182.441 316.769C186.731 321.064 191.362 324.934 196.281 328.386C181.662 330.325 172.006 332.199 171.448 332.308C167.25 333.265 165.029 337.176 165.494 340.903C166.698 348.117 169.93 367.428 171.858 378.355C128.965 389.357 98.498 428.124 98.498 473.051V494.5C98.498 504.149 106.349 512 115.998 512H395.998C405.647 512 413.498 504.149 413.498 494.5V473.052C413.5 428.36 382.952 389.367 340.141 378.352ZM368.99 188.71C382.696 188.71 387.58 203.939 387.58 218.19C387.58 235.272 380.627 252.94 368.99 252.94C365.251 252.94 362.111 251.576 359.697 249.958C359.848 247.658 359.95 245.351 359.95 243.03V223.07C360.718 216.226 362.494 205.327 364.159 201.737C365.232 199.432 366.901 194.82 368.555 188.726C368.7 188.721 368.845 188.71 368.99 188.71ZM355.229 180.328C355.201 180.441 355.172 180.553 355.149 180.667C353.278 188.478 351.264 193.894 350.555 195.415C349.059 198.643 347.856 203.649 346.952 208.476C342.745 204.717 339.483 201.314 338.439 199.466C339.068 193.141 340.099 180.073 339.491 167.064H357.703C357.036 171.947 356.153 176.428 355.229 180.328ZM183.845 87.232C185.11 87.881 186.532 88.158 187.949 88.029C188.737 87.958 189.379 87.892 190.098 87.819L190.755 87.752C192.184 87.607 193.542 87.056 194.667 86.162L255.766 37.609L316.845 86.162C319.935 88.618 324.194 89.034 327.676 87.233L369.578 65.724C369.659 65.685 369.737 65.643 369.815 65.602L374.95 62.966L366.752 106.065H144.768L136.569 62.965L183.845 87.232ZM134.5 121.064H377.5V152.064H365.935C365.888 152.065 365.84 152.063 365.793 152.064H134.5V121.064ZM170.803 167.064C170.201 179.656 171.131 192.236 171.874 199.611C170.97 201.43 167.942 204.86 164.009 208.657C162.743 203.772 161.214 198.595 159.731 195.408C158.965 193.698 155.124 182.309 153.433 167.064H170.803ZM143.01 252.94C131.374 252.94 124.42 235.272 124.42 218.19C124.42 204.266 129.087 189.417 142.085 188.742C143.842 195.839 145.574 200.544 146.13 201.733C147.974 205.698 150.663 216.774 152.05 223.358V243.4C152.05 245.607 152.126 247.801 152.262 249.984C149.852 251.59 146.724 252.94 143.01 252.94ZM256 409.359C248.984 404.797 241.266 398.584 233.5 391.672V368.601H278.5V391.674C270.735 398.584 263.017 404.796 256 409.359ZM218.5 364.281V377.598C206.118 365.443 194.772 353.104 187.373 344.821C193.21 343.922 200.697 342.873 209.203 341.92V346.054C209.203 353.538 212.871 360.178 218.5 364.281ZM184.629 364.16C200.223 381.086 223.593 404.922 243.643 419.092C237.77 423.457 228.971 428.175 220.884 425.339C209.277 421.269 190.427 392.576 187.837 382.324C187.54 381.059 186.207 373.411 184.629 364.16ZM293.5 364.507C299.309 360.424 303.115 353.677 303.115 346.054V341.962C311.484 342.903 318.858 343.936 324.627 344.823C317.228 353.107 305.884 365.445 293.5 377.601V364.507ZM327.372 364.16C325.795 373.406 324.464 381.043 324.173 382.289C321.573 392.577 302.723 421.27 291.116 425.34C283.027 428.178 274.227 423.456 268.356 419.093C288.406 404.923 311.778 381.085 327.372 364.16ZM224.203 327.59C224.203 323.428 227.589 320.043 231.75 320.043H280.568C284.729 320.043 288.115 323.429 288.115 327.59V346.054C288.115 350.215 284.729 353.601 280.568 353.601H231.75C227.589 353.601 224.203 350.215 224.203 346.054V327.59ZM398.5 494.5C398.5 495.878 397.379 497 396 497H116C114.622 497 113.5 495.878 113.5 494.5V473.052C113.5 461.499 115.891 450.432 120.22 440.352C130.383 446.793 141.308 452.436 152.787 457.149C153.72 457.532 154.684 457.713 155.633 457.713C158.585 457.713 161.383 455.959 162.574 453.059C164.147 449.227 162.316 444.846 158.484 443.273C147.489 438.759 137.049 433.339 127.385 427.139C138.479 410.476 155.5 397.98 175.804 392.829C182.625 408.155 200.191 433.98 215.92 439.496C219.378 440.708 222.79 441.226 226.102 441.226C238.623 441.226 249.673 433.811 256 428.479C262.327 433.811 273.375 441.226 285.898 441.226C289.21 441.226 292.623 440.707 296.08 439.496C311.811 433.98 329.38 408.149 336.2 392.823C356.444 397.975 373.454 410.518 384.56 427.173C349.695 449.556 306.478 460.905 256.001 460.905C232.801 460.905 210.832 458.454 190.703 453.621C186.679 452.654 182.627 455.135 181.66 459.163C180.693 463.19 183.174 467.24 187.202 468.206C208.475 473.314 231.623 475.905 256.002 475.905C308.967 475.905 354.589 463.953 391.739 440.382C396.092 450.474 398.502 461.537 398.502 473.053V494.5H398.5Z" fill="black"/>
<path d="M256.16 274.782C258.613 274.782 261.067 274.392 264.055 273.612C268.063 272.565 270.463 268.468 269.417 264.46C268.37 260.453 264.271 258.055 260.266 259.098C256.774 260.01 255.546 260.01 252.056 259.098C248.047 258.054 243.951 260.452 242.904 264.46C241.857 268.468 244.258 272.565 248.266 273.612C251.253 274.392 253.707 274.782 256.16 274.782Z" fill="black"/>
<path d="M231.87 189.705C235.2 189.705 238.241 187.47 239.122 184.098C240.168 180.09 237.768 175.993 233.76 174.947C222.417 171.986 215.501 171.986 204.158 174.947C200.15 175.993 197.749 180.091 198.796 184.098C199.843 188.105 203.942 190.506 207.947 189.46C216.9 187.122 221.017 187.122 229.97 189.46C230.605 189.625 231.243 189.705 231.87 189.705Z" fill="black"/>
<path d="M313.522 184.098C314.568 180.09 312.168 175.993 308.16 174.947C296.818 171.986 289.9 171.986 278.558 174.947C274.55 175.993 272.15 180.091 273.196 184.098C274.243 188.106 278.342 190.505 282.347 189.46C291.3 187.122 295.417 187.122 304.37 189.46C305.005 189.626 305.642 189.705 306.269 189.705C309.601 189.705 312.642 187.47 313.522 184.098Z" fill="black"/>
<path d="M233.663 292.606C240.601 296.467 248.38 298.398 256.16 298.398C263.94 298.398 271.719 296.467 278.657 292.606C282.276 290.592 283.577 286.025 281.563 282.405C279.548 278.786 274.983 277.484 271.362 279.499C261.985 284.717 250.335 284.717 240.957 279.499C237.338 277.486 232.77 278.786 230.756 282.406C228.742 286.024 230.043 290.591 233.663 292.606Z" fill="black"/>
<path d="M206.659 223.133V229.133C206.659 233.275 210.017 236.633 214.159 236.633C218.301 236.633 221.659 233.275 221.659 229.133V223.133C221.659 218.991 218.301 215.633 214.159 215.633C210.017 215.633 206.659 218.991 206.659 223.133Z" fill="black"/>
<path d="M298.159 215.633C294.016 215.633 290.659 218.991 290.659 223.133V229.133C290.659 233.275 294.016 236.633 298.159 236.633C302.302 236.633 305.659 233.275 305.659 229.133V223.133C305.659 218.991 302.302 215.633 298.159 215.633Z" fill="black"/>
</g>
<defs>
<clipPath id="clip0">
<rect width="512" height="512" fill="white"/>
</clipPath>
</defs>
</svg>
