<svg width="512" height="512" viewBox="0 0 512 512" fill="none" xmlns="http://www.w3.org/2000/svg">
<g clip-path="url(#clip0)">
<path d="M153.6 238.934C153.587 249.562 155.228 260.128 158.464 270.251C154.241 272.107 149.679 273.066 145.067 273.067C126.216 273.067 110.934 257.785 110.934 238.934C110.934 220.083 126.216 204.801 145.067 204.801C149.679 204.802 154.241 205.761 158.464 207.617H158.55C155.242 217.726 153.571 228.298 153.6 238.934Z" fill="#DFC49C"/>
<path d="M401.067 238.934C401.015 257.764 385.763 273.016 366.933 273.067C362.321 273.066 357.759 272.107 353.536 270.251C360.021 249.877 360.021 227.991 353.536 207.617C357.759 205.761 362.321 204.802 366.933 204.801C385.765 204.848 401.02 220.102 401.067 238.934Z" fill="#DFC49C"/>
<path d="M358.399 187.732C353.693 187.724 348.992 187.439 344.319 186.879" stroke="black" stroke-width="17.0667" stroke-linecap="round" stroke-linejoin="round"/>
<path d="M169.728 183.894C164.164 183.364 158.637 182.509 153.173 181.334" stroke="black" stroke-width="17.0667" stroke-linecap="round" stroke-linejoin="round"/>
<path d="M204.8 221.867V230.401" stroke="black" stroke-width="17.0667" stroke-linecap="round" stroke-linejoin="round"/>
<path d="M307.2 221.867V230.401" stroke="black" stroke-width="17.0667" stroke-linecap="round" stroke-linejoin="round"/>
<path d="M392.533 145.067C390.058 174.934 389.034 196.864 388.864 212.822C382.739 207.627 374.964 204.783 366.933 204.8C362.321 204.802 357.759 205.761 353.536 207.616C351.274 200.372 348.181 193.414 344.32 186.88C295.936 180.907 281.6 145.067 281.6 145.067C252.214 174.445 210.995 188.751 169.728 183.894C164.966 191.271 161.207 199.248 158.549 207.616H158.464C154.241 205.761 149.679 204.802 145.066 204.8C137.035 204.783 129.261 207.627 123.136 212.822C122.965 196.864 121.941 174.934 119.466 145.067C115.916 116.151 128.953 87.7004 153.173 71.5098L162.133 93.8671C162.133 93.8671 187.733 76.8004 256 76.8004C324.266 76.8004 349.866 93.8671 349.866 93.8671L358.826 71.5098C383.046 87.7004 396.084 116.151 392.533 145.067Z" fill="#FF9801"/>
<path d="M122.991 205.176C123.059 207.847 123.111 210.424 123.136 212.856C125.858 210.59 128.915 208.762 132.199 207.437C129.253 206.248 126.153 205.486 122.991 205.176Z" fill="#F57C00"/>
<path d="M353.28 206.967C353.357 207.189 353.459 207.393 353.528 207.615C353.741 207.521 353.98 207.487 354.193 207.402C353.886 207.274 353.605 207.086 353.28 206.967Z" fill="#F57C00"/>
<path d="M358.826 71.5098L351.718 89.2506C363.802 105.195 369.254 125.195 366.933 145.067C364.834 170.445 363.784 190.046 363.408 205.176C364.575 204.986 365.752 204.86 366.933 204.8C374.964 204.783 382.739 207.627 388.863 212.822C389.034 196.864 390.058 174.934 392.533 145.067C396.083 116.151 383.046 87.7004 358.826 71.5098Z" fill="#F57C00"/>
<path d="M230.4 338.091V366.934C201.695 374.188 174.33 385.969 149.333 401.835C108.117 410.795 76.7998 366.934 76.7998 366.934C117.418 366.934 125.866 296.96 127.573 268.203C132.853 271.386 138.901 273.067 145.066 273.067C149.679 273.066 154.241 272.107 158.464 270.251C169.213 303.71 196.369 329.32 230.4 338.091Z" fill="#FF9801"/>
<path d="M358.4 238.933C358.473 285.654 326.855 326.477 281.6 338.09C264.807 342.414 247.193 342.414 230.4 338.09C185.145 326.477 153.526 285.654 153.6 238.933C153.627 219.425 159.223 200.331 169.728 183.893C210.995 188.75 252.214 174.444 281.6 145.066C281.6 145.066 295.936 180.906 344.32 186.88C348.181 193.413 351.274 200.371 353.536 207.616C356.767 217.741 358.408 228.305 358.4 238.933Z" fill="#FFE0B2"/>
<path d="M353.536 207.616C351.274 200.371 348.182 193.413 344.32 186.88C295.936 180.906 281.6 145.066 281.6 145.066C276.469 150.189 270.945 154.902 265.08 159.163C278.69 175.008 297.923 184.946 318.72 186.88C322.582 193.413 325.674 200.371 327.936 207.616C336.56 234.463 333.73 263.678 320.116 288.372C306.501 313.066 283.306 331.052 256 338.09C251.791 339.179 247.515 339.994 243.2 340.531C247.446 341.062 251.721 341.33 256 341.333C264.637 341.349 273.24 340.259 281.6 338.09C308.881 331.013 332.047 313.019 345.654 288.338C359.262 263.657 362.113 234.463 353.536 207.616Z" fill="#DFC49C"/>
<path d="M435.2 366.934C435.2 366.934 403.882 410.795 362.666 401.835C337.669 385.969 310.304 374.188 281.6 366.934V338.091C315.631 329.32 342.787 303.71 353.536 270.251C357.758 272.107 362.32 273.066 366.933 273.067C373.098 273.067 379.146 271.386 384.426 268.203C386.133 296.96 394.581 366.934 435.2 366.934Z" fill="#FF9801"/>
<path d="M377.173 25.5998L358.826 71.5092L349.866 93.8665C349.866 93.8665 324.266 76.7998 256 76.7998C187.733 76.7998 162.133 93.8665 162.133 93.8665L153.173 71.5092L134.826 25.5998C133.581 22.5052 134.253 18.9685 136.546 16.5463C138.84 14.1241 142.335 13.2606 145.493 14.3358L191.061 29.5252C199.815 32.499 209.405 31.7589 217.6 27.4772L251.306 9.98383C254.127 8.02101 257.872 8.02101 260.693 9.98383L294.4 27.4772C302.594 31.7589 312.184 32.499 320.938 29.5252L366.506 14.3358C369.664 13.2606 373.159 14.1241 375.453 16.5463C377.747 18.9685 378.419 22.5052 377.173 25.5998Z" fill="#FFDC00"/>
<path d="M366.507 14.3365L351.574 19.3286C352.399 21.3377 352.399 23.5914 351.574 25.6005L333.227 71.5099L327.766 85.1632C335.501 87.0236 342.94 89.9531 349.867 93.8672L358.827 71.5099L377.174 25.6005C378.419 22.5059 377.747 18.9692 375.453 16.547C373.16 14.1248 369.665 13.2613 366.507 14.3365Z" fill="#FEC108"/>
<path d="M256 59.7328C251.287 59.7328 247.467 55.9123 247.467 51.1995V42.6661C247.467 37.9533 251.287 34.1328 256 34.1328C260.713 34.1328 264.533 37.9533 264.533 42.6661V51.1995C264.533 55.9123 260.713 59.7328 256 59.7328Z" fill="#E91E63"/>
<path d="M179.199 59.7327C183.912 59.7327 187.733 55.9122 187.733 51.1993C187.733 46.4865 183.912 42.666 179.199 42.666C174.487 42.666 170.666 46.4865 170.666 51.1993C170.666 55.9122 174.487 59.7327 179.199 59.7327Z" fill="#E91E63"/>
<path d="M332.8 59.7327C337.513 59.7327 341.333 55.9122 341.333 51.1993C341.333 46.4865 337.513 42.666 332.8 42.666C328.087 42.666 324.267 46.4865 324.267 51.1993C324.267 55.9122 328.087 59.7327 332.8 59.7327Z" fill="#E91E63"/>
<path d="M281.599 338.09V366.933C281.599 381.071 270.138 392.533 255.999 392.533C241.861 392.533 230.399 381.071 230.399 366.933V338.09C247.192 342.413 264.807 342.413 281.599 338.09Z" fill="#DFC49C"/>
<path d="M401.067 464.214V486.4C401.039 495.814 393.414 503.439 384 503.467H128C118.586 503.439 110.962 495.814 110.934 486.4V464.214C110.927 442.831 120.939 422.681 137.984 409.771C141.739 406.955 145.494 404.31 149.334 401.835C174.331 385.969 201.696 374.188 230.4 366.934C230.4 381.072 241.862 392.534 256 392.534C270.139 392.534 281.6 381.072 281.6 366.934C310.305 374.188 337.67 385.969 362.667 401.835C366.507 404.31 370.262 406.955 374.016 409.771C391.062 422.681 401.074 442.831 401.067 464.214Z" fill="#E91E63"/>
<path d="M374.016 409.771C370.261 406.955 366.506 404.31 362.666 401.835C337.669 385.969 310.304 374.188 281.6 366.934C281.565 369.437 281.159 371.922 280.396 374.306C300.291 381.251 319.309 390.49 337.066 401.835C340.906 404.31 344.661 406.955 348.416 409.771C365.461 422.681 375.473 442.831 375.466 464.214V486.4C375.438 495.814 367.814 503.439 358.4 503.467H384C393.414 503.439 401.038 495.814 401.066 486.4V464.214C401.073 442.831 391.061 422.681 374.016 409.771Z" fill="#AD1457"/>
<path d="M213.333 418.133C218.046 418.133 221.866 414.313 221.866 409.6C221.866 404.887 218.046 401.066 213.333 401.066C208.62 401.066 204.8 404.887 204.8 409.6C204.8 414.313 208.62 418.133 213.333 418.133Z" fill="#00BCD4"/>
<path d="M238.933 435.199C243.646 435.199 247.466 431.379 247.466 426.666C247.466 421.953 243.646 418.133 238.933 418.133C234.22 418.133 230.399 421.953 230.399 426.666C230.399 431.379 234.22 435.199 238.933 435.199Z" fill="#00BCD4"/>
<path d="M298.666 418.133C303.379 418.133 307.199 414.313 307.199 409.6C307.199 404.887 303.379 401.066 298.666 401.066C293.953 401.066 290.133 404.887 290.133 409.6C290.133 414.313 293.953 418.133 298.666 418.133Z" fill="#00BCD4"/>
<path d="M273.067 435.199C277.779 435.199 281.6 431.379 281.6 426.666C281.6 421.953 277.779 418.133 273.067 418.133C268.354 418.133 264.533 421.953 264.533 426.666C264.533 431.379 268.354 435.199 273.067 435.199Z" fill="#00BCD4"/>
<path d="M213.333 264.533C213.333 288.097 232.436 307.2 256 307.2C279.564 307.2 298.666 288.097 298.666 264.533H213.333Z" fill="#F5F5F5"/>
<path d="M273.067 264.533C273.02 283.105 260.929 299.5 243.2 305.032C256.139 309.356 270.37 307.146 281.388 299.101C292.406 291.057 298.845 278.174 298.667 264.533H273.067Z" fill="#CFD8DC"/>
<path d="M213.333 230.401V221.867C213.333 217.154 209.513 213.334 204.8 213.334C200.087 213.334 196.267 217.154 196.267 221.867V230.401C196.267 235.113 200.087 238.934 204.8 238.934C209.513 238.934 213.333 235.113 213.333 230.401Z" fill="black"/>
<path d="M307.2 213.334C302.487 213.334 298.667 217.154 298.667 221.867V230.401C298.667 235.113 302.487 238.934 307.2 238.934C311.913 238.934 315.734 235.113 315.734 230.401V221.867C315.734 217.154 311.913 213.334 307.2 213.334Z" fill="black"/>
<path d="M298.666 256H213.333C208.62 256 204.8 259.821 204.8 264.533C204.8 292.81 227.723 315.733 256 315.733C284.277 315.733 307.2 292.81 307.2 264.533C307.2 259.821 303.379 256 298.666 256ZM256 298.667C240.441 298.649 226.857 288.127 222.95 273.067H289.049C285.142 288.127 271.558 298.649 256 298.667Z" fill="black"/>
<path d="M435.2 358.401C403.14 358.401 395.17 297.43 393.25 272.257C402.785 264.867 408.707 253.754 409.522 241.718C410.337 229.682 405.968 217.872 397.517 209.264C397.816 192.197 398.985 170.94 401.075 145.767C404.635 116.289 392.512 87.0978 369.118 68.8135L385.126 28.7922C387.609 22.6129 386.27 15.5541 381.698 10.7125C377.126 5.87091 370.156 4.13083 363.844 6.25564L318.217 21.4706C311.639 23.6484 304.461 23.0792 298.308 19.8919L265.02 2.5607C259.503 -0.895234 252.497 -0.895234 246.98 2.5607L213.7 19.8748C207.546 23.0536 200.371 23.6225 193.792 21.4535L148.147 6.25564C141.842 4.15405 134.89 5.90447 130.331 10.7415C125.772 15.5785 124.437 22.622 126.908 28.7922L142.916 68.8135C119.51 87.0937 107.376 116.29 110.933 145.776C113.024 170.949 114.193 192.163 114.492 209.264C106.04 217.872 101.671 229.682 102.487 241.718C103.302 253.754 109.223 264.867 118.758 272.257C116.83 297.43 108.86 358.401 76.8001 358.401C73.6054 358.404 70.68 360.191 69.219 363.032C67.7581 365.873 68.0064 369.292 69.8625 371.892C70.9803 373.471 92.6379 403.192 124.757 410.121C110.496 424.52 102.466 443.948 102.4 464.214V486.401C102.4 500.539 113.862 512.001 128 512.001H384C398.139 512.001 409.6 500.539 409.6 486.401V464.214C409.536 443.945 401.506 424.514 387.243 410.113C419.354 403.175 441.003 373.419 442.138 371.883C443.989 369.283 444.234 365.868 442.774 363.03C441.314 360.192 438.392 358.406 435.2 358.401ZM238.933 348.417C250.229 350.351 261.771 350.351 273.067 348.417V366.934C273.067 376.36 265.426 384.001 256 384.001C246.574 384.001 238.933 376.36 238.933 366.934V348.417ZM256 332.801C204.184 332.74 162.195 290.75 162.133 238.934C162.173 222.757 166.442 206.872 174.515 192.854C212.684 195.959 250.504 183.637 279.518 158.644C293.374 178.358 314.82 191.404 338.697 194.646C354.329 223.721 353.52 258.874 336.565 287.198C319.611 315.522 289.011 332.843 256 332.801ZM119.467 238.934C119.467 224.796 130.928 213.334 145.067 213.334C146.059 213.377 147.048 213.479 148.028 213.641C144.058 230.269 144.079 247.6 148.088 264.218C147.088 264.388 146.079 264.493 145.067 264.534C130.928 264.534 119.467 253.073 119.467 238.934ZM363.998 213.641C364.969 213.479 365.95 213.376 366.933 213.334C381.072 213.334 392.533 224.796 392.533 238.934C392.533 253.073 381.072 264.534 366.933 264.534C365.921 264.493 364.912 264.388 363.913 264.218C365.893 255.935 366.906 247.451 366.933 238.934C366.916 230.419 365.932 221.934 363.998 213.641ZM188.382 37.6583C199.345 41.277 211.303 40.3297 221.56 35.03L255.198 17.5367L256 17.0674L256.802 17.5367L290.441 35.03C300.695 40.3382 312.656 41.2858 323.618 37.6583L369.246 22.4434L345.353 82.1767C332.203 76.6642 304.179 68.2674 256 68.2674C207.821 68.2674 179.797 76.6642 166.639 82.1511L142.746 22.4178L188.382 37.6583ZM149.572 85.445L154.206 97.0503C155.172 99.4126 157.138 101.223 159.573 101.989C162.007 102.756 164.656 102.4 166.801 101.018C167.049 100.848 192 85.334 256 85.334C320 85.334 344.952 100.848 345.131 100.967C346.533 101.902 348.181 102.401 349.867 102.401C353.356 102.403 356.496 100.281 357.794 97.0418L362.428 85.4364C378.823 100.367 386.879 122.372 384 144.359C382.293 165.061 381.167 183.263 380.638 198.734C376.238 197.158 371.607 196.324 366.933 196.267C364.204 196.285 361.483 196.571 358.81 197.121C358.69 196.839 358.596 196.549 358.485 196.267C363.198 196.244 367 192.404 366.976 187.691C366.953 182.979 363.113 179.177 358.4 179.201C305.579 179.201 290.133 143.361 289.528 141.893C288.459 139.232 286.125 137.286 283.315 136.713C280.506 136.117 277.586 136.991 275.567 139.034C243.862 170.308 198.325 183.118 154.965 172.963C150.361 171.954 145.811 174.869 144.802 179.474C143.794 184.078 146.709 188.628 151.313 189.637C152.806 189.961 154.462 190.294 156.228 190.618C155.187 192.757 154.22 194.925 153.327 197.121C145.991 195.577 138.369 196.136 131.337 198.734C130.808 183.263 129.69 165.07 127.974 144.368C125.1 122.374 133.166 100.364 149.572 85.4364V85.445ZM135.177 280.329C138.412 281.14 141.732 281.567 145.067 281.601C147.836 281.592 150.597 281.306 153.31 280.747C165.708 311.01 190.775 334.299 221.867 344.44V360.304C195.2 367.703 169.748 378.93 146.304 393.635C123.563 397.902 103.782 383.088 92.8427 372.302C122.701 359.425 132.181 310.998 135.177 280.329ZM392.533 486.401C392.533 491.114 388.713 494.934 384 494.934H341.333V452.267C341.333 447.555 337.513 443.734 332.8 443.734C328.087 443.734 324.267 447.555 324.267 452.267V494.934H187.733V452.267C187.733 447.555 183.913 443.734 179.2 443.734C174.487 443.734 170.667 447.555 170.667 452.267V494.934H128C123.287 494.934 119.467 491.114 119.467 486.401V464.214C119.488 445.504 128.239 427.876 143.13 416.547C167.546 398.994 194.813 385.795 223.727 377.532C228.237 391.548 241.277 401.05 256 401.05C270.723 401.05 283.763 391.548 288.273 377.532C317.187 385.795 344.454 398.994 368.87 416.547C383.761 427.876 392.512 445.504 392.533 464.214V486.401ZM365.705 393.635C342.257 378.931 316.802 367.704 290.133 360.304V344.44C321.225 334.299 346.292 311.01 358.69 280.747C361.403 281.306 364.164 281.592 366.933 281.601C370.269 281.567 373.588 281.14 376.824 280.329C379.819 311.007 389.308 359.467 419.192 372.276C408.286 383.147 388.548 397.944 365.705 393.635Z" fill="black"/>
</g>
<defs>
<clipPath id="clip0">
<rect width="512" height="512" fill="white"/>
</clipPath>
</defs>
</svg>
