<svg width="512" height="512" viewBox="0 0 512 512" fill="none" xmlns="http://www.w3.org/2000/svg">
<g clip-path="url(#clip0)">
<path d="M134.596 426.68H377.405V188.084C377.405 121.034 323.05 66.6797 256.001 66.6797C188.951 66.6797 134.597 121.035 134.597 188.084V426.68H134.596Z" fill="#E19974"/>
<path d="M256 66.6797C250.92 66.6797 245.915 66.9967 241 67.6027C300.972 74.9927 347.405 126.114 347.405 188.085V426.681H377.405V188.084C377.405 121.034 323.05 66.6797 256 66.6797Z" fill="#DC8758"/>
<path d="M436.614 501.999V434.143C436.614 409.101 420.627 386.855 396.893 378.869L383.434 374.34L352.201 367.762L323.948 354.324L297.494 350.47C289.583 347.808 284.254 340.393 284.254 332.045V300.389H212.747V332.045C212.747 340.392 207.418 347.808 199.507 350.47L188.053 354.324L159.8 369.09L128.567 374.341L115.108 378.87C91.3737 386.856 75.3867 409.102 75.3867 434.144V501.999C75.3867 507.522 79.8637 511.999 85.3867 511.999H231L256 496.999L281 511.999H426.613C432.136 511.999 436.614 507.522 436.614 501.999Z" fill="#90D8F9"/>
<path d="M323.948 354.326L297.494 350.472C289.583 347.81 284.254 340.395 284.254 332.047V300.391H212.747V332.047C212.747 340.394 207.418 347.81 199.507 350.472L188.053 354.326L196.076 396.409L301.076 399.326L323.948 354.326Z" fill="#FFCEBF"/>
<path d="M396.893 378.871L383.434 374.342L352.201 367.764L308.948 354.326L297.494 350.472C289.583 347.81 284.254 340.394 284.254 332.047V300.391L269.254 315.391V347.047C269.254 355.394 274.583 362.81 282.494 365.472L366.893 393.87C390.627 401.856 406.614 424.102 406.614 449.144V512H426.614C432.137 512 436.614 507.523 436.614 502V434.144C436.614 409.103 420.627 386.857 396.893 378.871Z" fill="#75CEF9"/>
<path d="M323.948 354.326L312.494 350.472C304.583 347.81 299.254 340.394 299.254 332.047V300.391L269.254 315.391V347.047C269.254 355.394 274.583 362.81 282.494 365.472L302.682 372.265C306.009 370.32 309.807 367.784 313.744 364.5C317.974 360.971 321.337 357.438 323.948 354.326Z" fill="#FFB09E"/>
<path d="M231 405.393H281V511.999H231V405.393Z" fill="#75CEF9"/>
<path d="M255.885 334.257C240.328 334.257 225.748 334.144 212.744 327.587C181.339 311.751 159.799 279.209 159.799 241.636V183.066C174.49 183.395 197.546 181.935 223.043 171.511C234.807 166.702 244.586 161.008 252.409 155.616C254.63 154.085 257.526 153.998 259.865 155.343C268.376 160.235 278.337 165.177 289.734 169.531C313.858 178.747 335.742 182.019 352.201 183.067V241.637C352.201 279.21 330.661 311.752 299.255 327.588C286.252 334.145 255.885 334.257 255.885 334.257Z" fill="#FFCEBF"/>
<path d="M322.201 241.636C322.404 248.135 322.705 279.548 298.853 304.462C277.353 326.919 244.354 335.607 212.747 327.582C221.205 331.762 232.541 335.948 246.262 337.347C249.672 337.695 252.926 337.84 256 337.837C309.13 337.837 352.2 294.767 352.2 241.636V183.066C343.565 182.516 333.437 181.354 322.275 179.043L322.201 241.636Z" fill="#FFB09E"/>
<path d="M358.791 220.293H352.201V183.066H358.791C369.071 183.066 377.404 191.4 377.404 201.679C377.405 211.96 369.071 220.293 358.791 220.293Z" fill="#FFCEBF"/>
<path d="M153.209 220.293H159.799V183.066H153.209C142.929 183.066 134.596 191.4 134.596 201.679C134.596 211.96 142.929 220.293 153.209 220.293Z" fill="#FFB09E"/>
<path d="M255.999 445.307C309.725 445.307 356.936 416.909 383.433 374.34L323.947 354.324C307.446 373.305 283.125 385.307 255.999 385.307C228.873 385.307 204.552 373.306 188.051 354.324L128.565 374.34C155.062 416.908 202.273 445.307 255.999 445.307Z" fill="#FF8087"/>
<path d="M323.948 354.324C317.845 361.344 310.67 367.406 302.682 372.263L366.893 393.869C367.42 394.046 367.938 394.239 368.457 394.43C373.98 388.17 379.003 381.459 383.434 374.34L323.948 354.324Z" fill="#E6646E"/>
<path d="M353.27 115.417C357.622 107.869 369.648 84.9127 360.413 65.5747C358.805 62.2087 357.175 59.9797 355.617 57.9467C341.781 39.8837 320.809 36.7447 298.501 28.5177C289.786 25.3037 265.401 12.0087 258.098 7.99068C256.804 7.27868 255.233 7.34968 253.991 8.15068C237.603 18.7257 223.402 24.8677 213.505 28.5177C191.197 36.7457 170.225 39.8847 156.389 57.9467C154.832 59.9797 153.201 62.2087 151.593 65.5747C142.357 84.9127 154.384 107.869 158.736 115.417C184.635 109.937 217.506 105.273 255.642 105.26C293.547 105.248 327.474 109.97 353.27 115.417Z" fill="#FFE179"/>
<path d="M360.412 65.5747C358.804 62.2087 357.174 59.9797 355.616 57.9467C341.78 39.8837 320.808 36.7447 298.5 28.5177C289.785 25.3037 265.4 12.0087 258.097 7.99068C256.803 7.27868 255.232 7.34968 253.99 8.15068C249.789 10.8617 245.734 13.2767 241.856 15.4377C251.536 20.5887 263.064 26.5127 268.499 28.5177C290.807 36.7457 311.779 39.8847 325.615 57.9467C327.172 59.9797 328.803 62.2087 330.411 65.5747C338.126 81.7287 331.006 100.4 325.915 110.513C335.782 111.984 344.953 113.661 353.269 115.417C357.62 107.868 369.647 84.9117 360.412 65.5747Z" fill="#F7C663"/>
<path d="M256 78.1856C264.216 78.1856 270.877 71.525 270.877 63.3086C270.877 55.0923 264.216 48.4316 256 48.4316C247.784 48.4316 241.123 55.0923 241.123 63.3086C241.123 71.525 247.784 78.1856 256 78.1856Z" fill="#FF8087"/>
<path d="M255.999 48.4316C252.829 48.4316 249.897 49.4306 247.484 51.1196C251.327 53.8096 253.846 58.2616 253.846 63.3086C253.846 68.3556 251.327 72.8076 247.484 75.4976C249.898 77.1866 252.83 78.1856 255.999 78.1856C264.215 78.1856 270.876 71.5246 270.876 63.3086C270.876 55.0926 264.216 48.4316 255.999 48.4316Z" fill="#E6646E"/>
<path d="M256 85.6854C268.339 85.6854 278.377 75.6464 278.377 63.3084C278.377 50.9704 268.339 40.9314 256 40.9314C243.661 40.9314 233.623 50.9694 233.623 63.3084C233.623 75.6474 243.661 85.6854 256 85.6854ZM256 55.9314C260.068 55.9314 263.377 59.2404 263.377 63.3084C263.377 67.3764 260.067 70.6854 256 70.6854C251.933 70.6854 248.623 67.3754 248.623 63.3084C248.623 59.2414 251.932 55.9314 256 55.9314ZM182.897 390.765C185.638 387.659 185.341 382.919 182.235 380.179C182.217 380.163 182.124 380.081 182.106 380.066C178.98 377.361 174.264 377.706 171.551 380.826C168.838 383.946 169.173 388.683 172.286 391.405L172.311 391.427C175.405 394.158 180.148 393.88 182.897 390.765ZM339.829 391.304C342.925 388.573 343.193 383.887 340.477 380.778C337.761 377.67 333.005 377.373 329.884 380.074C326.752 382.784 326.41 387.521 329.12 390.653C331.84 393.796 336.579 394.115 339.699 391.417C339.718 391.402 339.811 391.32 339.829 391.304ZM135.387 459.754C131.245 459.754 127.887 463.112 127.887 467.254V504.499C127.887 508.641 131.245 511.999 135.387 511.999C139.529 511.999 142.887 508.641 142.887 504.499V467.253C142.887 463.112 139.529 459.754 135.387 459.754ZM194.179 398.413C191.653 403.289 195.361 409.397 200.88 409.397C203.599 409.397 206.213 407.895 207.544 405.298C209.428 401.62 207.939 397.088 204.268 395.192C200.592 393.292 196.084 394.737 194.179 398.413ZM376.614 459.754C372.472 459.754 369.114 463.112 369.114 467.254V504.499C369.114 508.641 372.472 511.999 376.614 511.999C380.756 511.999 384.114 508.641 384.114 504.499V467.253C384.114 463.112 380.756 459.754 376.614 459.754ZM212.122 210.046C207.98 210.046 204.622 213.404 204.622 217.546V233.069C204.622 237.211 207.98 240.569 212.122 240.569C216.264 240.569 219.622 237.211 219.622 233.069V217.546C219.622 213.404 216.264 210.046 212.122 210.046ZM282.625 404.625C278.6 405.601 276.127 409.655 277.103 413.681C278.087 417.74 282.219 420.167 286.159 419.203L286.256 419.18C290.281 418.204 292.705 414.161 291.73 410.136C290.754 406.11 286.652 403.653 282.625 404.625ZM220.308 410.145C219.179 414.804 222.85 419.437 227.695 419.437C231.08 419.437 234.131 417.114 234.953 413.669C235.915 409.64 233.393 405.586 229.364 404.623C225.338 403.651 221.283 406.12 220.308 410.145ZM263.596 415.307C263.596 411.165 260.238 407.807 256.096 407.807C251.648 407.807 248.259 411.786 248.565 415.876C248.845 419.623 252.084 422.72 256.076 422.807H256.097C260.239 422.807 263.596 419.449 263.596 415.307ZM317.915 398.372C316.014 394.692 311.49 393.25 307.809 395.152C307.795 395.159 307.693 395.212 307.68 395.219C304.012 397.143 302.598 401.677 304.522 405.344C306.468 409.053 311.043 410.398 314.647 408.502L314.694 408.478C318.375 406.576 319.817 402.052 317.915 398.372ZM273.908 300.249C277.285 297.85 278.077 293.168 275.678 289.791C273.28 286.415 268.597 285.622 265.22 288.021C263.758 289.059 260.691 290.823 256.571 290.971C251.909 291.138 248.43 289.191 246.771 288.015C243.391 285.621 238.711 286.419 236.315 289.799C233.92 293.179 234.719 297.86 238.099 300.255C241.173 302.433 247.491 305.982 256.006 305.982C263.426 305.981 270.413 302.732 273.908 300.249ZM299.878 240.569C304.02 240.569 307.378 237.211 307.378 233.069V217.546C307.378 213.404 304.02 210.046 299.878 210.046C295.736 210.046 292.378 213.404 292.378 217.546V233.069C292.378 237.211 295.736 240.569 299.878 240.569ZM399.282 371.761L384.9 366.921V188.08C384.9 161.651 377.031 136.447 362.106 114.873C368.798 101.906 376.107 81.0344 367.18 62.3424C365.266 58.3364 363.281 55.6184 361.571 53.3864C349.258 37.3114 332.525 31.8824 314.809 26.1354C310.331 24.6824 305.701 23.1794 301.097 21.4824C294.564 19.0724 276.47 9.53937 261.713 1.41937C258.01 -0.616627 253.493 -0.452627 249.926 1.84937C237.343 9.96837 224.217 16.5734 210.911 21.4814C206.307 23.1794 201.677 24.6814 197.199 26.1344C179.483 31.8824 162.75 37.3104 150.436 53.3864C148.725 55.6204 146.739 58.3404 144.828 62.3424C135.901 81.0354 143.211 101.908 149.903 114.875C134.973 136.444 127.102 161.647 127.102 188.08V258.534C127.102 262.676 130.46 266.034 134.602 266.034C138.744 266.034 142.102 262.676 142.102 258.534V225.306C145.216 226.776 148.665 227.645 152.301 227.77V241.637C152.301 280.393 173.676 314.246 205.252 332.042V332.05C205.252 337.18 201.984 341.726 197.12 343.362C188.291 346.331 151.408 358.846 142.102 361.875V293.534C142.102 289.392 138.744 286.034 134.602 286.034C130.46 286.034 127.102 289.392 127.102 293.534V366.922L112.72 371.762C85.9066 380.786 67.8916 405.854 67.8916 434.14V504.5C67.8916 508.642 71.2496 512 75.3916 512C79.5336 512 82.8916 508.642 82.8916 504.5V434.14C82.8916 412.301 96.8016 392.946 117.504 385.978L125.46 383.301C139.07 403.421 157.251 420.293 178.365 432.306C192.447 440.318 207.702 446.054 223.502 449.39V504.499C223.502 508.641 226.86 511.999 231.002 511.999C235.144 511.999 238.502 508.641 238.502 504.499V451.809C244.3 452.459 250.141 452.808 256.002 452.808C261.889 452.808 267.725 452.476 273.502 451.837V504.499C273.502 508.641 276.86 511.999 281.002 511.999C285.144 511.999 288.502 508.641 288.502 504.499V449.44C298.747 447.282 308.761 444.096 318.472 439.883C322.272 438.235 324.016 433.818 322.368 430.018C320.72 426.218 316.3 424.473 312.503 426.122C294.628 433.875 275.619 437.807 256.002 437.807C209.201 437.807 167.893 416.982 140.252 378.323L185.825 362.988C204.166 381.998 229.461 392.807 256.002 392.807C282.543 392.807 307.838 381.998 326.179 362.988L371.747 378.321C363.209 390.207 352.95 400.668 341.146 409.495C337.829 411.976 337.151 416.676 339.631 419.993C342.128 423.332 346.839 423.968 350.129 421.508C364.399 410.836 376.624 397.998 386.549 383.302L394.5 385.977C415.202 392.944 429.112 412.299 429.112 434.139V504.499C429.112 508.641 432.47 511.999 436.612 511.999C440.754 511.999 444.112 508.641 444.112 504.499V434.139C444.11 405.853 426.095 380.785 399.282 371.761ZM158.362 68.8074C159.654 66.1024 160.93 64.3534 162.344 62.5074C171.819 50.1384 185.725 45.6264 201.827 40.4024C206.444 38.9044 211.218 37.3554 216.101 35.5544C229.82 30.4934 243.338 23.7744 256.314 15.5674C266.647 21.2284 287.489 32.4504 295.906 35.5544C300.789 37.3554 305.563 38.9044 310.18 40.4024C326.282 45.6264 340.189 50.1384 349.663 62.5074C351.076 64.3524 352.351 66.0994 353.645 68.8064C356.447 74.6744 359.338 87.1384 349.325 106.954C326.89 102.515 293.851 97.7474 255.64 97.7594C224.487 97.7694 193.241 100.86 162.68 106.949C152.669 87.1364 155.559 74.6744 158.362 68.8074ZM152.3 212.756C146.626 212.294 142.148 207.551 142.101 201.771V201.588C142.148 195.808 146.626 191.065 152.3 190.603V212.756ZM153.209 175.566C149.419 175.566 145.818 176.384 142.565 177.843C144.341 157.739 151.353 138.713 163.122 122.174C193.514 115.943 224.625 112.77 255.645 112.76C294.002 112.747 327.237 117.753 348.882 122.167C360.648 138.71 367.66 157.74 369.435 177.843C366.182 176.385 362.581 175.566 358.791 175.566C336.244 175.566 313.261 170.489 292.411 162.524C282.512 158.742 272.82 154.138 263.604 148.84C258.776 146.064 252.711 146.299 248.154 149.44C239.391 155.479 229.987 160.569 220.205 164.568C198.65 173.381 176.726 175.566 153.209 175.566ZM167.3 241.637V190.566C187.62 190.117 207.295 186.053 225.882 178.454C236.553 174.091 246.812 168.553 256.379 161.989C266.198 167.617 276.518 172.51 287.058 176.537C305.513 183.587 324.872 188.104 344.702 189.993V241.637C344.702 290.547 304.911 330.338 256.001 330.338C207.091 330.338 167.3 290.546 167.3 241.637ZM256 377.808C235.99 377.808 216.818 370.543 201.896 357.58L201.9 357.579C210.723 354.612 217.209 347.397 219.418 338.668C230.8 342.973 243.128 345.338 256 345.338C268.872 345.338 281.2 342.974 292.582 338.668C294.791 347.397 301.277 354.612 310.098 357.578L310.104 357.58C295.183 370.543 276.01 377.808 256 377.808ZM369.9 361.874C369.9 361.874 325.983 347.093 314.881 343.361C310.018 341.726 306.75 337.18 306.75 332.049V332.041C338.326 314.245 359.701 280.392 359.701 241.636V227.769C363.337 227.644 366.786 226.775 369.9 225.305V361.874ZM369.9 201.771C369.853 207.551 365.375 212.294 359.701 212.756V190.604C365.375 191.066 369.853 195.809 369.9 201.589V201.771Z" fill="black"/>
</g>
<defs>
<clipPath id="clip0">
<rect width="512" height="512" fill="white"/>
</clipPath>
</defs>
</svg>
