<svg width="512" height="512" viewBox="0 0 512 512" fill="none" xmlns="http://www.w3.org/2000/svg">
<path d="M226.675 159.856C224.203 155.614 221.927 151.554 219.812 147.631C207.826 174.837 180.095 212.026 160.832 219.64V232.86C160.832 275.521 189.281 311.86 228.145 323.844L223.102 354.938H178.951L197.102 412.428C205.215 438.127 229.053 455.598 256.002 455.598C282.951 455.598 306.789 438.126 314.902 412.428L333.053 354.938H288.903L283.86 323.844C322.723 311.861 351.172 275.522 351.172 232.86V219.978C324.712 217.074 251.853 203.067 226.675 159.856Z" fill="#F6DAB9"/>
<path d="M397.028 229.971C397.028 124.209 344.135 60.5996 256 60.5996C167.865 60.5996 114.972 124.209 114.972 229.971C114.972 230.256 114.972 230.545 114.972 230.839C114.91 287.7 158.399 333.835 215.26 333.835H226.524L228.145 323.843C189.282 311.86 160.832 275.52 160.832 232.859V195.203C160.832 142.86 203.658 100.034 256.001 100.034C308.344 100.034 351.17 142.86 351.17 195.203V232.859C351.17 275.521 322.722 311.859 283.858 323.843L285.479 333.835H296.742C353.603 333.835 397.092 287.7 397.03 230.839C397.029 230.545 397.028 230.256 397.028 229.971Z" fill="#A84926"/>
<path d="M98.6592 411.883V502H135.864V431.99" fill="#F6DAB9"/>
<path d="M376.136 431.99V502H413.341V411.883" fill="#F6DAB9"/>
<path d="M256 455.598C229.051 455.598 205.213 438.126 197.1 412.427L178.95 354.936H163.009C155.112 347.546 144.501 343.021 132.832 343.021C108.436 343.021 88.6592 362.798 88.6592 387.194C88.6592 405.577 99.8892 421.338 135.865 427.99V502H256V455.598Z" fill="#B0DBD0"/>
<path d="M379.17 343.021C367.501 343.021 356.89 347.546 348.993 354.936H333.052L314.901 412.427C306.788 438.126 282.95 455.598 256.001 455.598V502H376.137V427.99C412.113 421.338 423.343 405.578 423.343 387.195C423.342 362.798 403.566 343.021 379.17 343.021Z" fill="#81B4A7"/>
<path d="M313.02 64.637C313.02 64.637 259.331 10 256.001 10C252.671 10 198.98 64.637 198.98 64.637L142.784 58.742L173.495 143.955H338.504L369.215 58.743L313.02 64.637Z" fill="#FF9929"/>
<path d="M175.912 143.953C166.376 158.77 160.832 176.37 160.832 195.203V219.639C180.095 212.024 207.826 174.836 219.812 147.63C221.928 151.552 224.203 155.612 226.675 159.855C251.853 203.066 324.711 217.074 351.169 219.977V195.204C351.169 176.372 345.625 158.771 336.089 143.954H175.912V143.953Z" fill="#DA5B2C"/>
<path d="M256 115.78L231.867 88.3995L256 61.0195L280.133 88.3995L256 115.78Z" fill="#B0DBD0"/>
<path d="M256 125.781C253.129 125.781 250.396 124.547 248.498 122.393L224.365 95.0125C221.034 91.2335 221.034 85.5665 224.365 81.7875L248.498 54.4075C250.396 52.2535 253.129 51.0195 256 51.0195C258.871 51.0195 261.604 52.2535 263.502 54.4075L287.635 81.7875C290.966 85.5665 290.966 91.2335 287.635 95.0125L263.502 122.393C261.604 124.547 258.871 125.781 256 125.781ZM245.197 88.4005L256 100.658L266.803 88.4005L256 76.1435L245.197 88.4005Z" fill="black"/>
<path d="M303.569 245.721H294.188C288.665 245.721 284.188 241.244 284.188 235.721C284.188 230.198 288.665 225.721 294.188 225.721H303.569C309.092 225.721 313.569 230.198 313.569 235.721C313.569 241.244 309.092 245.721 303.569 245.721Z" fill="black"/>
<path d="M217.814 245.721H208.432C202.909 245.721 198.432 241.244 198.432 235.721C198.432 230.198 202.909 225.721 208.432 225.721H217.814C223.337 225.721 227.814 230.198 227.814 235.721C227.814 241.244 223.337 245.721 217.814 245.721Z" fill="black"/>
<path d="M256 300.379C250.256 300.379 244.513 298.193 240.14 293.82C236.235 289.915 236.235 283.583 240.14 279.677C244.045 275.772 250.377 275.772 254.283 279.677C255.23 280.625 256.771 280.625 257.719 279.677C261.624 275.772 267.956 275.772 271.862 279.677C275.767 283.582 275.767 289.914 271.862 293.82C267.488 298.193 261.744 300.379 256 300.379Z" fill="black"/>
<path d="M491.4 512.001C490.75 512.001 490.09 511.931 489.45 511.801C488.81 511.681 488.18 511.481 487.58 511.231C486.97 510.981 486.39 510.671 485.85 510.311C485.3 509.951 484.79 509.531 484.33 509.071C483.87 508.611 483.45 508.101 483.09 507.551C482.73 507.011 482.42 506.431 482.17 505.821C481.92 505.221 481.73 504.591 481.6 503.951C481.47 503.311 481.4 502.651 481.4 502.001C481.4 501.351 481.47 500.691 481.6 500.051C481.73 499.411 481.92 498.781 482.17 498.181C482.42 497.571 482.73 496.991 483.09 496.451C483.45 495.901 483.87 495.391 484.33 494.931C484.79 494.471 485.3 494.051 485.85 493.691C486.39 493.331 486.97 493.021 487.58 492.771C488.18 492.521 488.81 492.321 489.45 492.201C490.74 491.941 492.07 491.941 493.36 492.201C493.99 492.321 494.62 492.521 495.23 492.771C495.83 493.021 496.41 493.331 496.95 493.691C497.5 494.051 498.01 494.471 498.47 494.931C498.94 495.391 499.35 495.901 499.72 496.451C500.08 496.991 500.39 497.571 500.64 498.181C500.89 498.781 501.08 499.411 501.21 500.051C501.34 500.691 501.4 501.351 501.4 502.001C501.4 502.651 501.34 503.311 501.21 503.951C501.08 504.591 500.89 505.221 500.64 505.821C500.39 506.431 500.08 507.011 499.72 507.551C499.35 508.101 498.94 508.611 498.47 509.071C498.01 509.531 497.5 509.951 496.95 510.311C496.41 510.671 495.83 510.981 495.23 511.231C494.62 511.481 493.99 511.681 493.36 511.801C492.71 511.931 492.05 512.001 491.4 512.001Z" fill="black"/>
<path d="M20.5996 512.001C19.9496 512.001 19.2896 511.941 18.6396 511.811C18.0096 511.681 17.3796 511.481 16.7696 511.231C16.1696 510.981 15.5896 510.671 15.0496 510.311C14.4996 509.951 13.9896 509.531 13.5296 509.071C13.0696 508.611 12.6496 508.101 12.2796 507.551C11.9196 507.011 11.6096 506.431 11.3596 505.831C11.1096 505.221 10.9196 504.591 10.7896 503.951C10.6596 503.311 10.5996 502.651 10.5996 502.001C10.5996 501.351 10.6596 500.691 10.7896 500.051C10.9196 499.411 11.1096 498.781 11.3596 498.181C11.6096 497.571 11.9196 496.991 12.2796 496.451C12.6496 495.901 13.0696 495.391 13.5296 494.931C13.9896 494.471 14.4996 494.051 15.0496 493.691C15.5896 493.331 16.1696 493.021 16.7696 492.771C17.3796 492.521 18.0096 492.321 18.6396 492.201C19.9296 491.941 21.2596 491.941 22.5496 492.201C23.1896 492.321 23.8196 492.521 24.4196 492.771C25.0296 493.021 25.6096 493.331 26.1496 493.691C26.6996 494.051 27.2096 494.471 27.6696 494.931C28.1296 495.391 28.5496 495.901 28.9096 496.451C29.2696 496.991 29.5796 497.571 29.8296 498.181C30.0796 498.781 30.2696 499.411 30.3996 500.051C30.5296 500.691 30.5996 501.351 30.5996 502.001C30.5996 502.651 30.5296 503.311 30.3996 503.951C30.2696 504.591 30.0796 505.221 29.8296 505.831C29.5796 506.431 29.2696 507.011 28.9096 507.551C28.5496 508.101 28.1296 508.611 27.6696 509.071C25.8096 510.931 23.2296 512.001 20.5996 512.001Z" fill="black"/>
<path d="M451.403 492H423.341V415.799C429.981 407.923 433.342 398.322 433.342 387.194C433.342 357.323 409.04 333.021 379.169 333.021C366.751 333.021 354.862 337.225 345.269 344.936H297.409L297.23 343.833C326.397 343.708 353.666 332.412 374.064 311.991C395.355 290.677 407.062 261.852 407.028 230.822V229.97C407.028 174.563 392.814 128.957 365.85 97.573L378.623 62.132C379.79 58.894 379.209 55.282 377.086 52.573C374.963 49.864 371.593 48.435 368.172 48.796L316.761 54.189C311.876 49.246 302.387 39.68 292.783 30.201C284.679 22.202 278.066 15.816 273.128 11.218C263.519 2.271 260.581 0 256.001 0C251.421 0 248.483 2.271 238.873 11.218C233.935 15.816 227.322 22.203 219.218 30.201C209.614 39.68 200.124 49.246 195.239 54.189L143.828 48.795C140.404 48.439 137.037 49.863 134.913 52.572C132.79 55.281 132.209 58.893 133.376 62.131L146.15 97.573C119.186 128.957 104.972 174.563 104.972 229.97V230.827C104.938 261.852 116.645 290.676 137.936 311.991C158.334 332.412 185.604 343.708 214.771 343.833L214.592 344.936H166.731C157.137 337.225 145.249 333.021 132.831 333.021C102.96 333.021 78.6577 357.323 78.6577 387.194C78.6577 398.322 82.0187 407.923 88.6587 415.799V492H60.5967C55.0737 492 50.5967 496.477 50.5967 502C50.5967 507.523 55.0737 512 60.5967 512H451.403C456.926 512 461.403 507.523 461.403 502C461.403 496.477 456.926 492 451.403 492ZM256 445.598C233.306 445.598 213.468 431.058 206.636 409.416L192.593 364.937H212.797V366.248C212.797 390.07 232.178 409.451 256 409.451C279.822 409.451 299.203 390.07 299.203 366.248V364.937H319.407L305.364 409.416C298.532 431.058 278.694 445.598 256 445.598ZM341.169 195.204V208.526C306.338 202.926 254.022 186.925 235.315 154.819C235.147 154.531 234.979 154.242 234.812 153.954H330.434C337.472 166.56 341.169 180.714 341.169 195.204ZM205.587 153.954C196.163 171.534 182.575 189.583 170.831 200.604V195.204C170.831 180.714 174.528 166.561 181.566 153.954H205.587ZM170.831 225.789C188.54 215.265 207.748 190.386 220.308 168.554C232.823 187.57 254.536 202.977 284.926 214.392C307.134 222.734 328.652 226.862 341.169 228.744V232.859C341.169 269.862 316.39 303.347 280.91 314.287C276.141 315.758 273.187 320.518 273.986 325.444L275.589 335.329C275.6 335.403 275.612 335.476 275.625 335.549L279.029 356.538C279.075 356.822 279.133 357.102 279.202 357.377V366.248C279.202 379.042 268.793 389.451 255.999 389.451C243.205 389.451 232.796 379.042 232.796 366.248V357.381C232.865 357.105 232.924 356.824 232.97 356.538L236.364 335.616C236.382 335.514 236.399 335.411 236.414 335.307L238.014 325.445C238.813 320.519 235.858 315.758 231.09 314.288C195.61 303.348 170.83 269.864 170.83 232.86L170.831 225.789ZM387.029 229.971V230.85C387.057 256.529 377.428 280.326 359.915 297.858C346.358 311.43 329.058 320.061 310.214 322.849C321.724 315.863 331.944 306.682 340.079 295.866C353.876 277.521 361.169 255.734 361.169 232.859V195.204C361.169 177.768 356.841 160.73 348.59 145.466L357.835 119.816C376.988 147.085 387.029 184.757 387.029 229.971ZM197.937 74.582C200.971 74.898 203.978 73.819 206.113 71.646C225.081 52.344 246.384 31.304 256.002 22.622C265.619 31.304 286.921 52.344 305.888 71.646C308.023 73.819 311.031 74.898 314.064 74.583L354.403 70.352L345.077 96.228C345.034 96.34 344.994 96.452 344.956 96.564L331.48 133.954H180.521L167.041 96.553C167.006 96.45 166.969 96.348 166.93 96.246L157.597 70.351L197.937 74.582ZM124.971 230.855V229.97C124.971 184.757 135.011 147.084 154.165 119.814L163.41 145.465C155.159 160.729 150.831 177.768 150.831 195.203V232.858C150.831 255.733 158.124 277.52 171.922 295.865C180.057 306.681 190.277 315.861 201.787 322.848C182.942 320.06 165.642 311.429 152.085 297.856C134.573 280.326 124.944 256.528 124.971 230.855ZM108.659 430.286C113.729 432.576 119.451 434.5 125.865 436.073V492H108.659V430.286ZM145.865 492V427.99C145.865 423.168 142.425 419.033 137.683 418.157C98.6577 410.941 98.6577 393.69 98.6577 387.195C98.6577 368.352 113.988 353.022 132.831 353.022C141.535 353.022 149.825 356.295 156.175 362.238C158.028 363.972 160.471 364.937 163.008 364.937H171.62L187.564 415.438C196.017 442.212 218.83 461.146 246.001 464.911V492H145.865ZM266 492V464.911C293.171 461.146 315.984 442.212 324.437 415.438L340.381 364.937H348.993C351.531 364.937 353.973 363.972 355.826 362.238C362.176 356.295 370.466 353.022 379.17 353.022C398.013 353.022 413.343 368.352 413.343 387.195C413.343 393.69 413.343 410.941 374.318 418.157C369.577 419.034 366.136 423.169 366.136 427.99V492H266ZM386.136 492V436.074C392.549 434.501 398.271 432.577 403.342 430.287V492H386.136Z" fill="black"/>
</svg>
