<svg width="512" height="512" viewBox="0 0 512 512" fill="none" xmlns="http://www.w3.org/2000/svg">
<g clip-path="url(#clip0)">
<path d="M88.944 436.555C74.323 423.138 66 404.203 66 384.359C66 369.497 70.674 355.011 79.361 342.952L95.139 321.048C103.826 308.989 108.5 294.503 108.5 279.641V249.5L403.5 249.667V279.641C403.5 294.503 408.174 308.989 416.861 321.048L432.639 342.952C441.326 355.011 446 369.497 446 384.359C446 404.203 437.677 423.138 423.056 436.555H88.944Z" fill="#6F6571"/>
<path d="M446 384.36C446 394.28 443.92 403.98 440.01 412.87C436.1 421.76 430.37 429.85 423.06 436.56H393.06C400.37 429.85 406.1 421.76 410.01 412.87C413.92 403.98 416 394.28 416 384.36C416 369.5 411.33 355.01 402.64 342.95L386.86 321.05C378.17 308.99 373.5 294.5 373.5 279.64V249.67H403.5V279.64C403.5 294.5 408.17 308.99 416.86 321.05L432.64 342.95C441.33 355.01 446 369.5 446 384.36Z" fill="#5D5360"/>
<path d="M340.583 392.5L378.093 352.802C387.131 343.237 380.35 327.5 367.19 327.5H144.81C131.65 327.5 124.869 343.237 133.907 352.802L171.417 392.5L256 428L340.583 392.5Z" fill="#FC7585"/>
<path d="M378.09 352.8L340.58 392.5H310.58L348.09 352.8C357.13 343.24 350.35 327.5 337.19 327.5H367.19C380.35 327.5 387.13 343.24 378.09 352.8Z" fill="#F46079"/>
<path d="M363.5 198.5H390C406.845 198.5 420.5 212.155 420.5 229C420.5 245.845 406.845 259.5 390 259.5H363.5V198.5Z" fill="#BC845E"/>
<path d="M148.5 259.5H122C105.155 259.5 91.5 245.845 91.5 229C91.5 212.155 105.155 198.5 122 198.5H148.5V259.5Z" fill="#BC845E"/>
<path d="M212.5 331.5V387.5C212.5 390.261 210.261 392.5 207.5 392.5H157.5C113.317 392.5 77.5 428.317 77.5 472.5V484.5C77.5 495.546 86.454 504.5 97.5 504.5H414.5C425.546 504.5 434.5 495.546 434.5 484.5V472.5C434.5 428.317 398.683 392.5 354.5 392.5H304.5C301.739 392.5 299.5 390.261 299.5 387.5V331.5H212.5Z" fill="#BC845E"/>
<path d="M373.5 138.5V240C373.5 304.893 320.893 357.5 256 357.5C191.107 357.5 138.5 304.894 138.5 240V138.5H373.5Z" fill="#D19A6E"/>
<path d="M373.5 229V240C373.5 304.89 320.89 357.5 256 357.5C250.92 357.5 245.91 357.18 241 356.55C298.81 349.18 343.5 299.81 343.5 240V214L373.5 229Z" fill="#BC845E"/>
<path d="M310.5 437.5C291.8 437.5 274.978 445.524 263.278 458.313C259.392 462.561 252.608 462.561 248.722 458.313C237.022 445.523 220.2 437.5 201.5 437.5C166.154 437.5 137.5 466.154 137.5 501.5V504.5H374.5V501.5C374.5 466.154 345.846 437.5 310.5 437.5Z" fill="#CDF2F9"/>
<path d="M374.5 501.5V504.5H344.5V501.5C344.5 471.31 323.61 446.01 295.5 439.27C300.31 438.11 305.33 437.5 310.5 437.5C345.85 437.5 374.5 466.15 374.5 501.5Z" fill="#A4E8F9"/>
<path d="M403.5 159.5V201.65C399.43 199.63 394.85 198.5 390 198.5H373.5V229H358.5C350.22 229 343.5 222.28 343.5 214V188.5C343.5 180.22 336.78 173.5 328.5 173.5H286C277.62 173.5 269.99 170.07 264.46 164.54C258.93 159.01 255.5 151.38 255.5 143C255.5 159.78 241.78 173.5 225 173.5H183.5C175.22 173.5 168.5 180.22 168.5 188.5V214C168.5 222.28 161.78 229 153.5 229H138.5V198.5H122C117.15 198.5 112.57 199.63 108.5 201.65V159.5C108.5 93.23 162.23 39.5 228.5 39.5H283.5C349.77 39.5 403.5 93.23 403.5 159.5Z" fill="#6F6571"/>
<path d="M403.5 159.5V201.65C399.43 199.63 394.85 198.5 390 198.5H373.5V159.5C373.5 93.23 319.77 39.5 253.5 39.5H283.5C349.77 39.5 403.5 93.23 403.5 159.5Z" fill="#5D5360"/>
<path d="M171.42 392.5C151.09 404.75 137.5 427.04 137.5 452.5V504.5H97.5C86.45 504.5 77.5 495.55 77.5 484.5V472.5C77.5 428.32 113.32 392.5 157.5 392.5H171.42Z" fill="#FC8D94"/>
<path d="M434.5 472.5V484.5C434.5 495.55 425.55 504.5 414.5 504.5H374.5V452.5C374.5 427.04 360.91 404.75 340.58 392.5H354.5C398.68 392.5 434.5 428.32 434.5 472.5Z" fill="#FC8D94"/>
<path d="M434.5 472.5V484.5C434.5 495.55 425.55 504.5 414.5 504.5H384.5C395.55 504.5 404.5 495.55 404.5 484.5V472.5C404.5 435.21 378.98 403.87 344.45 395.01C343.19 394.13 341.9 393.29 340.58 392.5H354.5C398.68 392.5 434.5 428.32 434.5 472.5Z" fill="#FC7585"/>
<path d="M189.473 79.444L175.813 26.322C174.512 21.261 180.854 17.835 184.373 21.699L210.86 50.782C215.473 55.847 223.694 54.896 227.029 48.912L247.237 12.65C251.062 5.78595 260.937 5.78595 264.763 12.65L284.971 48.912C288.306 54.896 296.527 55.847 301.14 50.782L327.627 21.699C331.146 17.835 337.489 21.261 336.187 26.322L322.527 79.444C320.248 88.306 312.259 94.501 303.109 94.501H208.891C199.741 94.5 191.752 88.305 189.473 79.444Z" fill="#FFE07D"/>
<path d="M336.19 26.3202L322.53 79.4402C320.25 88.3102 312.26 94.5002 303.11 94.5002H273.11C282.26 94.5002 290.25 88.3102 292.53 79.4402L299.53 52.2002C300.1 51.8002 300.64 51.3302 301.14 50.7802L327.63 21.7002C331.15 17.8302 337.49 21.2602 336.19 26.3202Z" fill="#FFD064"/>
<path d="M298.322 280.531C295.654 277.362 290.923 276.954 287.755 279.62C268.97 295.425 242.865 295.433 224.274 279.642C221.116 276.962 216.382 277.347 213.702 280.503C211.021 283.66 211.407 288.394 214.563 291.075C226.711 301.391 241.303 306.549 255.924 306.549C270.532 306.549 285.169 301.398 297.411 291.098C300.581 288.432 300.988 283.7 298.322 280.531Z" fill="black"/>
<path d="M315.5 251.5C319.643 251.5 323 248.143 323 244V229C323 224.857 319.643 221.5 315.5 221.5C311.357 221.5 308 224.857 308 229V244C308 248.143 311.357 251.5 315.5 251.5Z" fill="black"/>
<path d="M196.5 221.5C192.357 221.5 189 224.857 189 229V244C189 248.143 192.357 251.5 196.5 251.5C200.643 251.5 204 248.143 204 244V229C204 224.857 200.643 221.5 196.5 221.5Z" fill="black"/>
<path d="M453.5 384.359C453.5 367.822 448.391 351.987 438.726 338.568L422.947 316.664C415.131 305.814 411 293.013 411 279.641V260.65C421.238 253.835 428 242.194 428 229C428 215.806 421.238 204.166 411 197.35V159.5C411 110.595 382.956 66.046 339.186 44.778L343.452 28.19C344.91 22.522 342.43 16.845 337.28 14.064C332.13 11.281 326.023 12.322 322.083 16.648L306.253 34.03C298.989 32.722 291.568 32.046 284.14 32.009L271.316 8.999C268.175 3.363 262.449 0 256 0C249.551 0 243.825 3.363 240.686 8.997L227.863 32.008C220.432 32.045 213.01 32.721 205.748 34.029L189.918 16.648C185.979 12.322 179.873 11.283 174.723 14.063C169.574 16.844 167.092 22.521 168.549 28.19L172.817 44.788C129.073 66.053 101 110.672 101 159.5V197.35C90.762 204.165 84 215.806 84 229C84 242.194 90.762 253.834 101 260.65V279.641C101 293.012 96.869 305.815 89.054 316.664L73.277 338.568C63.609 351.987 58.5 367.821 58.5 384.359C58.5 403.512 65.394 421.729 77.97 436.035C72.857 447.142 70 459.493 70 472.5V484.5C70 499.663 82.337 512 97.5 512H339.5C343.643 512 347 508.643 347 504.5C347 500.357 343.643 497 339.5 497H145.196C147.499 467.944 171.862 445 201.5 445C217.312 445 232.506 451.697 243.188 463.377C246.459 466.95 251.128 468.999 256.001 468.999C260.874 468.998 265.543 466.949 268.813 463.376C279.494 451.697 294.688 445 310.5 445C341.654 445 367 470.346 367 501.5V504.5C367 508.643 370.357 512 374.5 512H414.5C429.663 512 442 499.663 442 484.5V472.5C442 459.49 439.134 447.14 434.018 436.031C446.581 421.726 453.5 403.434 453.5 384.359ZM410.775 325.432L426.553 347.336C434.368 358.186 438.499 370.988 438.499 384.359C438.499 398.055 434.092 411.256 425.994 422.14C410.753 400.568 386.025 386.154 357.925 385.066L383.543 357.953C389.814 351.315 391.466 341.982 387.853 333.596C384.239 325.21 376.322 320 367.19 320H351.968C364.561 304.919 373.669 286.838 378.054 267H390C392.042 267 394.045 266.833 396 266.522V279.641C396 296.179 401.109 312.013 410.775 325.432ZM174.649 385L139.358 347.65C135.28 343.334 137.699 335 144.809 335H174.855C183.886 342.725 194.024 349.189 205 354.114V385H174.649ZM146 240V236.5H153.5C165.906 236.5 176 226.406 176 214V188.5C176 184.364 179.364 181 183.5 181H225C237.477 181 248.567 174.957 255.5 165.643C262.433 174.957 273.523 181 286 181H328.5C332.636 181 336 184.364 336 188.5V214C336 226.406 346.094 236.5 358.5 236.5H366V240C366 300.654 316.654 350 256 350C195.346 350 146 300.654 146 240ZM307 354.114C317.975 349.189 328.114 342.726 337.145 335H367.191C374.301 335 376.72 343.334 372.642 347.65L337.352 385H307V354.114ZM390 252H380.421C380.799 248.05 381 244.048 381 240V236.5H390.5C394.643 236.5 398 233.143 398 229C398 224.857 394.643 221.5 390.5 221.5H381V206H390C402.683 206 413 216.317 413 229C413 241.683 402.683 252 390 252ZM116 159.5C116 117.442 139.61 78.926 176.641 59.659L182.209 81.312C185.342 93.492 196.313 102 208.891 102H220.833C224.976 102 228.333 98.643 228.333 94.5C228.333 90.357 224.976 87 220.833 87H208.891C203.162 87 198.163 83.124 196.737 77.575L185.57 34.149L205.316 55.831C209.104 59.988 214.699 62.078 220.287 61.438C225.874 60.792 230.844 57.473 233.582 52.561L253.79 16.298C255.264 14.566 256.738 14.566 258.212 16.299L278.421 52.56C281.158 57.473 286.128 60.791 291.715 61.438C297.311 62.084 302.899 59.988 306.686 55.83L326.432 34.149L315.265 77.576C313.837 83.125 308.839 87 303.109 87H255.833C251.69 87 248.333 90.357 248.333 94.5C248.333 98.643 251.69 102 255.833 102H303.109C315.687 102 326.659 93.492 329.791 81.312L335.36 59.656C372.411 78.923 396 117.375 396 159.5V191.478C394.045 191.166 392.042 191 390 191H373.5C369.357 191 366 194.357 366 198.5V221.5H358.5C354.364 221.5 351 218.136 351 214V188.5C351 176.094 340.906 166 328.5 166H286C273.317 166 263 155.683 263 143C263 138.857 259.643 135.5 255.5 135.5C251.357 135.5 248 138.857 248 143C248 155.683 237.683 166 225 166H183.5C171.094 166 161 176.094 161 188.5V214C161 218.136 157.636 221.5 153.5 221.5H146V198.5C146 194.357 142.643 191 138.5 191H122C119.958 191 117.955 191.167 116 191.478V159.5ZM122 206H131V221.5H121.5C117.357 221.5 114 224.857 114 229C114 233.143 117.357 236.5 121.5 236.5H131V240C131 244.048 131.201 248.05 131.579 252H122C109.317 252 99 241.683 99 229C99 216.317 109.317 206 122 206ZM73.5 384.359C73.5 370.987 77.631 358.185 85.447 347.336L101.225 325.432C110.891 312.013 116 296.178 116 279.641V266.522C117.955 266.834 119.958 267 122 267H133.946C138.331 286.838 147.44 304.919 160.032 320H144.81C135.678 320 127.761 325.21 124.147 333.596C120.534 341.983 122.185 351.316 128.457 357.953L154.082 385.073C125.983 386.158 101.242 400.552 86 422.12C77.902 411.249 73.5 398.106 73.5 384.359ZM85 484.5V472.5C85 435.032 113.57 404.112 150.069 400.379C137.255 414.415 130 432.787 130 452.5V497H97.5C90.607 497 85 491.393 85 484.5ZM310.5 430C290.489 430 271.261 438.475 257.745 453.251C256.582 454.248 255.419 454.248 254.256 453.251C240.739 438.475 221.511 430 201.5 430C178.542 430 158.091 440.889 145 457.76V452.5C145 431.062 155.642 411.585 173.573 400H207.5C214.393 400 220 394.393 220 387.5V359.708C231.406 363.145 243.489 365 256 365C268.511 365 280.594 363.144 292 359.708V387.5C292 394.393 297.607 400 304.5 400H338.43C356.36 411.585 367 431.062 367 452.5V457.76C353.909 440.889 333.458 430 310.5 430ZM427 484.5C427 491.393 421.393 497 414.5 497H382V452.5C382 432.789 374.746 414.415 361.934 400.378C398.433 404.111 427 435.031 427 472.5V484.5Z" fill="black"/>
</g>
<defs>
<clipPath id="clip0">
<rect width="512" height="512" fill="white"/>
</clipPath>
</defs>
</svg>
