<svg width="31" height="44" viewBox="0 0 31 44" fill="none" xmlns="http://www.w3.org/2000/svg">
<path d="M6.59934 11.6095C4.47802 13.5948 3.26991 16.3039 3.26991 19.2902V29.6915C2.21499 30.3184 1.50684 31.4787 1.50684 32.8068C1.50684 34.8002 3.99443 36.416 5.96291 36.416H25.8789C27.8474 36.416 29.443 34.8002 29.443 32.8068C29.443 31.4787 28.7349 30.3184 27.68 29.6915L27.6549 29.6665V28.734L27.68 19.2902C27.68 16.3029 26.4712 13.5934 24.3481 11.6074" fill="#F5737F"/>
<path d="M7.45138 15.7822L7.45068 27.6732C7.45068 32.0267 13.3408 33.1305 13.1281 33.2226V36.4157H17.8317V33.2226C17.6186 33.1305 23.5088 32.0475 23.5088 27.6732L23.5084 15.8725" fill="#FFCBBE"/>
<path d="M23.5375 15.8164C25.7668 18.0742 23.6632 20.8507 23.6632 20.8507C23.6632 20.8507 19.3179 21.5904 17.0886 19.3329C16.0271 18.2579 15.5585 16.7983 15.4404 15.8164" fill="#F8A2AA"/>
<path d="M7.40898 15.8164C5.17973 18.0742 7.29653 20.8507 7.29653 20.8507C7.29653 20.8507 11.6419 21.5904 13.8711 19.3329C14.932 18.2586 15.3226 16.7979 15.441 15.8164" fill="#F8A2AA"/>
<path d="M25.4802 4.0753L20.347 6.74139L15.4752 1.8418L10.6035 6.74139L5.47021 4.0753L7.40911 15.8168H23.5379L25.4802 4.0753Z" fill="#FFCB7C"/>
<path d="M26.292 46.2484H4.6582V38.6576C4.6582 37.4198 5.64941 36.416 6.87214 36.416H24.0785C25.3012 36.416 26.292 37.4198 26.292 38.6576V46.2484Z" fill="#91D9B9"/>
<path d="M15.4751 7.79078C15.0973 7.79078 14.7537 7.5394 14.6318 7.17802C14.5114 6.81911 14.6311 6.40978 14.9271 6.17673C15.2066 5.95673 15.5983 5.925 15.9078 6.09917C16.2309 6.28109 16.4133 6.6594 16.3549 7.02924C16.2866 7.46113 15.9082 7.79078 15.4751 7.79078Z" fill="black"/>
<path d="M30.3345 32.8068C30.3345 31.382 29.6601 30.0388 28.5464 29.193V28.7364L28.5714 19.2901C28.5714 16.1791 27.3564 13.2909 25.1438 11.1268L26.1831 4.21091C26.2339 3.87385 26.0922 3.53645 25.8175 3.33901C25.5424 3.14158 25.1811 3.11831 24.8837 3.27837L20.5088 5.63245L16.1032 1.20176C15.7557 0.852017 15.1948 0.852017 14.847 1.20176L10.4414 5.63245L6.06683 3.27837C5.76951 3.11831 5.40777 3.14158 5.13307 3.33901C4.85838 3.5361 4.71668 3.8735 4.76716 4.21091L5.80467 11.1286C3.59352 13.2923 2.37914 16.1798 2.37914 19.2898V29.212C1.28036 30.0589 0.615723 31.3926 0.615723 32.8068C0.615723 34.022 1.2727 35.1859 2.46514 36.0831C2.99712 36.4837 3.60396 36.8003 4.22647 37.0129C3.93506 37.4916 3.7669 38.055 3.7669 38.6576V46.2483C3.7669 46.7468 4.16589 47.1509 4.65819 47.1509H26.292C26.7843 47.1509 27.1833 46.7468 27.1833 46.2483V38.6576C27.1833 38.1372 27.058 37.6464 26.8362 37.2138C28.8346 36.7692 30.3345 34.962 30.3345 32.8068ZM16.9356 33.1755C16.9335 33.2231 16.9353 33.27 16.9405 33.3166V35.5134H14.0195V33.3166C14.0247 33.2707 14.0264 33.2238 14.0243 33.177C13.9961 32.5339 13.4662 32.359 13.0791 32.231C9.8917 31.179 8.34239 29.688 8.34239 27.6734C8.34239 27.6621 8.34205 27.6508 8.3417 27.6399L8.12897 21.8455C8.36468 21.86 8.63485 21.8705 8.92939 21.8705C10.5553 21.8702 12.9343 21.5589 14.5017 19.9716C14.8836 19.5849 15.2109 19.1583 15.48 18.6992C15.7495 19.1583 16.0767 19.5849 16.4587 19.9716C18.0261 21.5589 20.4047 21.8705 22.0306 21.8705C22.3255 21.8705 22.5953 21.8603 22.8313 21.8455L22.6186 27.6399C22.6183 27.6508 22.6179 27.6621 22.6179 27.6734C22.6179 29.7003 21.0683 31.1917 17.8809 32.2324C17.4941 32.3586 16.9649 32.5314 16.9356 33.1755ZM23.1419 16.7196C23.6401 17.3507 23.7849 18.0699 23.5851 18.9083C23.5217 19.1734 23.2526 19.8902 23.1736 20.0626C21.8105 20.1828 19.0684 20.0615 17.719 18.6953C17.1598 18.1288 16.771 17.467 16.5575 16.7196H23.1419ZM7.78047 20.0287C7.70039 19.8577 7.43161 19.1709 7.36755 18.9058C7.16492 18.0685 7.30802 17.35 7.80519 16.7196H14.4024C14.189 17.4667 13.8001 18.1288 13.241 18.6953C11.7906 20.1638 8.92277 20.126 7.78047 20.0287ZM10.1852 7.53877C10.5299 7.72422 10.9543 7.66076 11.2314 7.38223L15.4751 3.11407L19.7188 7.38223C19.9963 7.66111 20.4203 7.72422 20.7654 7.53877L24.154 5.71495L22.7718 14.9144H16.3664V10.9865C16.3664 10.488 15.9674 10.0839 15.4751 10.0839C14.9828 10.0839 14.5838 10.488 14.5838 10.9865V14.9144H8.17493L6.79588 5.71495L10.1852 7.53877ZM2.39829 32.8068C2.39829 31.8502 2.90521 30.9547 3.72129 30.47C3.9939 30.3081 4.16136 30.0116 4.16136 29.6915V19.2901C4.16136 17.1307 4.85838 15.0978 6.14935 13.4298L6.46408 15.5282C4.8817 17.4621 5.54669 19.734 6.31368 20.9941L6.55983 27.691C6.5654 29.5198 7.46364 31.1261 9.15778 32.3368C10.2813 33.1396 11.5225 33.6071 12.2369 33.8507V35.5134H5.96308C4.40682 35.5134 2.39829 34.2008 2.39829 32.8068ZM25.4007 45.3457H5.54947V38.6576C5.54947 37.9193 6.14273 37.3185 6.87212 37.3185H24.0784C24.8075 37.3185 25.4007 37.9193 25.4007 38.6576V45.3457ZM25.8791 35.5134H18.7231V33.8528C19.4385 33.6113 20.6762 33.1484 21.7987 32.3481C23.4953 31.1388 24.3946 29.5286 24.4001 27.691L24.6466 20.9912C25.4077 19.7315 26.0643 17.4607 24.4827 15.5282L24.7984 13.4266C26.0908 15.0953 26.7889 17.1285 26.7889 19.2876L26.7638 28.7339V29.6665C26.7638 29.9083 26.8595 30.14 27.0298 30.3099L27.0548 30.3346C27.1071 30.3868 27.1656 30.4322 27.2289 30.47C28.045 30.9547 28.5519 31.8502 28.5519 32.8068C28.5519 34.2992 27.3529 35.5134 25.8791 35.5134Z" fill="black"/>
<path d="M19.508 25.6267C19.0157 25.6267 18.6167 25.2223 18.6167 24.7242V23.3664C18.6167 22.8679 19.0157 22.4639 19.508 22.4639C20.0003 22.4639 20.3993 22.8679 20.3993 23.3664V24.7242C20.3993 25.2223 20.0003 25.6267 19.508 25.6267Z" fill="black"/>
<path d="M11.4421 25.6267C10.9498 25.6267 10.5508 25.2223 10.5508 24.7242V23.3664C10.5508 22.8679 10.9498 22.4639 11.4421 22.4639C11.9344 22.4639 12.3334 22.8679 12.3334 23.3664V24.7242C12.3334 25.2223 11.9344 25.6267 11.4421 25.6267Z" fill="black"/>
<path d="M15.4751 30.0462C14.8303 30.0462 14.1851 29.7977 13.6942 29.3006C13.3461 28.948 13.3461 28.3765 13.6942 28.0239C14.0424 27.6717 14.6067 27.6717 14.9549 28.0239C15.2418 28.3148 15.7087 28.3148 15.9955 28.0239C16.3437 27.6717 16.9081 27.6717 17.2562 28.0239C17.604 28.3765 17.604 28.948 17.2562 29.3006C16.765 29.7977 16.1202 30.0462 15.4751 30.0462Z" fill="black"/>
</svg>
