<svg width="512" height="512" viewBox="0 0 512 512" fill="none" xmlns="http://www.w3.org/2000/svg">
<path d="M128.172 219.871C94.2734 219.871 66.793 247.355 66.793 281.254C66.793 312.582 90.2695 338.41 120.586 342.148C128.406 367.059 151.668 385.133 179.16 385.133H339.961C367.945 385.133 391.539 366.395 398.926 340.789C425.59 334.105 445.34 309.988 445.34 281.254C445.34 247.355 417.859 219.875 383.961 219.875H128.172V219.871Z" fill="#E3E3E3"/>
<path d="M455.633 243.523C455.633 262.508 440.246 277.895 421.266 277.895C402.285 277.895 386.898 262.508 386.898 243.523C386.898 224.543 402.285 209.156 421.266 209.156C440.246 209.156 455.633 224.543 455.633 243.523Z" fill="#FFCBBE"/>
<path d="M125.238 243.523C125.238 262.508 109.848 277.895 90.8672 277.895C71.8867 277.895 56.5 262.508 56.5 243.523C56.5 224.543 71.8867 209.156 90.8672 209.156C109.848 209.156 125.238 224.543 125.238 243.523Z" fill="#FFC0B3"/>
<path d="M94.6836 504.5C94.6836 415.371 166.938 343.117 256.066 343.117C345.195 343.117 417.449 415.371 417.449 504.5H94.6836Z" fill="#F8EA69"/>
<path d="M276.066 344.352C269.512 343.543 262.84 343.117 256.066 343.117C166.938 343.117 94.6836 415.371 94.6836 504.5H134.684C134.684 422.145 196.375 354.203 276.066 344.352Z" fill="#EEDB00"/>
<path d="M333.516 362.891C310.523 350.289 284.133 343.117 256.066 343.117C228 343.117 201.609 350.289 178.617 362.891C181.461 403.195 215.035 435.02 256.066 435.02C297.094 435.02 330.672 403.195 333.516 362.891Z" fill="#FFC0B3"/>
<path d="M135.477 397.266L255.02 504.5H361.609L195.027 355.074C172.051 364.469 151.723 379.012 135.477 397.266Z" fill="#FB695B"/>
<path d="M209.652 368.188L195.031 355.074C172.051 364.469 151.723 379.012 135.477 397.266L159.371 418.699C172.164 398.359 189.371 381.07 209.652 368.188Z" fill="#F85647"/>
<path d="M429.441 195.879C429.441 291.629 351.82 369.254 256.066 369.254C160.312 369.254 82.6875 291.629 82.6875 195.879C82.6875 100.125 160.312 22.5 256.066 22.5C351.82 22.5 429.441 100.125 429.441 195.879Z" fill="#FFDDCF"/>
<path d="M122.691 195.879C122.691 106.891 189.734 33.5742 276.066 23.6562C269.504 22.9023 262.832 22.5 256.066 22.5C160.312 22.5 82.6914 100.121 82.6914 195.879C82.6914 291.633 160.312 369.254 256.066 369.254C262.832 369.254 269.504 368.852 276.066 368.098C189.734 358.18 122.691 284.863 122.691 195.879Z" fill="#FFCBBE"/>
<path d="M439.559 153.184C420.168 69.8086 345.258 7.5 256.066 7.5C166.875 7.5 91.9609 69.8086 72.5703 153.184C62.9336 159.082 56.5 169.703 56.5 181.832C56.5 200.367 71.5273 215.395 90.0625 215.395C94.3516 215.395 98.4531 214.578 102.223 213.113C110.34 219.715 120.691 223.68 131.973 223.68C158.031 223.68 179.16 202.551 179.16 176.492C179.16 175.129 179.078 173.781 178.961 172.449C196.523 186.629 224.523 195.805 256.066 195.805C287.609 195.805 315.609 186.629 333.172 172.449C333.055 173.781 332.977 175.129 332.977 176.492C332.977 202.551 354.102 223.68 380.164 223.68C391.445 223.68 401.793 219.715 409.91 213.113C413.684 214.578 417.781 215.395 422.074 215.395C440.609 215.395 455.633 200.367 455.633 181.832C455.633 169.703 449.199 159.082 439.559 153.184Z" fill="#F4F4F4"/>
<path d="M107.691 195.879C107.691 98.7578 181.57 18.5742 276.078 8.5625C269.5 7.86328 262.824 7.5 256.066 7.5C166.875 7.5 91.9609 69.8086 72.5703 153.184C62.9336 159.082 56.5 169.703 56.5 181.832C56.5 200.367 71.5273 215.395 90.0625 215.395C94.3516 215.395 98.4531 214.578 102.223 213.113C104.324 214.82 106.582 216.352 108.961 217.684C108.129 210.527 107.691 203.254 107.691 195.879Z" fill="#E3E3E3"/>
<path d="M434.984 7.5C431.797 7.5 429.141 9.96484 428.926 13.1445C426.027 56.6484 389.816 91.0352 345.578 91.0352C301.34 91.0352 265.133 56.6484 262.23 13.1445C262.016 9.96484 259.359 7.5 256.172 7.5H255.961C252.773 7.5 250.113 9.96484 249.902 13.1445C247 56.6484 210.793 91.0352 166.555 91.0352C122.316 91.0352 86.1094 56.6484 83.207 13.1445C82.9922 9.96484 80.3359 7.5 77.1484 7.5C73.7891 7.5 71.0664 10.2227 71.0664 13.582V154.25H441.066V13.582C441.066 10.2227 438.344 7.5 434.984 7.5Z" fill="#F4E74D"/>
<path d="M83.207 13.1445C82.9922 9.96484 80.3359 7.5 77.1484 7.5C73.7891 7.5 71.0664 10.2227 71.0664 13.582V154.25H111.066V69.918C95.1797 55.7852 84.7109 35.6992 83.207 13.1445Z" fill="#F1E12B"/>
<path d="M325.434 251.574H314.078C309.934 251.574 306.578 248.219 306.578 244.074C306.578 239.934 309.934 236.574 314.078 236.574H325.434C329.574 236.574 332.934 239.934 332.934 244.074C332.934 248.219 329.574 251.574 325.434 251.574Z" fill="#FB695B"/>
<path d="M198.055 251.574H186.699C182.555 251.574 179.199 248.219 179.199 244.074C179.199 239.934 182.555 236.574 186.699 236.574H198.055C202.195 236.574 205.555 239.934 205.555 244.074C205.555 248.219 202.195 251.574 198.055 251.574Z" fill="#FB695B"/>
<path d="M276.563 235.684C272.973 233.618 268.387 234.856 266.325 238.446C264.215 242.114 260.286 244.387 256.067 244.387C251.844 244.387 247.918 242.11 245.809 238.446C243.743 234.856 239.161 233.618 235.571 235.684C231.977 237.746 230.743 242.332 232.805 245.922C237.579 254.227 246.493 259.387 256.067 259.387C265.637 259.387 274.551 254.227 279.329 245.922C281.391 242.332 280.153 237.746 276.563 235.684Z" fill="black"/>
<path d="M319.754 203.754C315.613 203.754 312.254 207.113 312.254 211.254V222.609C312.254 226.754 315.613 230.109 319.754 230.109C323.898 230.109 327.254 226.754 327.254 222.609V211.254C327.254 207.113 323.898 203.754 319.754 203.754Z" fill="black"/>
<path d="M192.375 203.754C188.234 203.754 184.875 207.113 184.875 211.254V222.609C184.875 226.754 188.234 230.109 192.375 230.109C196.52 230.109 199.875 226.754 199.875 222.609V211.254C199.875 207.113 196.52 203.754 192.375 203.754Z" fill="black"/>
<path d="M449.366 212.468C457.804 204.945 463.132 194 463.132 181.832C463.132 169.695 457.741 158.254 448.566 150.488V13.582C448.566 6.09374 442.472 0 434.984 0C427.863 0 421.917 5.55468 421.445 12.6445C420.159 31.9101 411.656 49.1366 398.706 61.7928C361.726 22.4726 310.238 0.0429687 256.214 0.00390624C256.199 0.00390624 256.187 0 256.171 0H255.961C255.949 0 255.933 0.00390624 255.921 0.00390624C201.898 0.0429687 150.406 22.4726 113.422 61.7889C100.476 49.1366 91.9726 31.9101 90.6874 12.6445C90.2148 5.55468 84.2695 0 77.1484 0C69.6601 0 63.5664 6.09374 63.5664 13.582V150.488C54.3906 158.254 49 169.695 49 181.832C49 194.015 54.3398 204.968 62.7968 212.496C54.1836 220.336 49 231.605 49 243.527C49 254.382 53.1562 264.285 59.957 271.73C59.5195 274.878 59.2929 278.066 59.2929 281.253C59.2929 314.382 82.9296 342.652 115.004 348.855C120.14 361.964 129.226 373.198 140.883 381.011C137.129 384.519 133.551 388.187 130.144 392.007C130.062 392.093 129.972 392.171 129.894 392.261C129.789 392.374 129.699 392.495 129.605 392.616C102.816 422.948 87.1835 462.538 87.1835 504.499C87.1835 508.644 90.5429 511.999 94.6835 511.999H417.448C421.589 511.999 424.948 508.644 424.948 504.499C424.948 458.237 405.972 414.886 373.992 383.624C388.226 375.495 399.277 362.437 404.827 346.906C433.304 337.898 452.839 311.48 452.839 281.253C452.839 278.066 452.609 274.882 452.175 271.738C458.976 264.289 463.132 254.386 463.132 243.527C463.132 231.437 458.038 220.281 449.366 212.468ZM448.132 243.523C448.132 258.339 436.077 270.394 421.265 270.394C421.152 270.394 421.038 270.382 420.925 270.378C428.015 254.699 432.863 237.992 435.241 220.714C435.284 220.699 435.331 220.683 435.374 220.668C443.296 225.546 448.132 234.093 448.132 243.523ZM227.992 374.566C237.156 375.999 246.531 376.753 256.066 376.753C278.39 376.753 300.261 372.652 320.703 364.835C322.328 365.589 323.933 366.366 325.523 367.171C322.027 392.335 305.355 413.448 281.648 422.698L227.992 374.566ZM256.066 361.753C174.547 361.753 105.359 302.492 92.371 222.816C95.246 222.656 98.0819 222.207 100.851 221.453C109.953 227.746 120.851 231.175 131.972 231.175C158.82 231.175 181.211 211.73 185.797 186.183C204.738 197.168 229.57 203.304 256.066 203.304C282.566 203.304 307.398 197.168 326.335 186.183C330.925 211.73 353.316 231.175 380.163 231.175C391.281 231.175 402.183 227.746 411.284 221.453C414.05 222.207 416.886 222.656 419.761 222.816C406.796 302.624 337.941 361.753 256.066 361.753ZM386.972 71.2108C375.015 79.0038 360.777 83.535 345.578 83.535C306.664 83.535 274.015 53.8983 269.976 15.5468C314.378 18.9804 356.058 38.7655 386.972 71.2108ZM242.156 15.5468C238.117 53.8983 205.465 83.535 166.554 83.535C151.355 83.535 137.117 79.0038 125.156 71.2108C156.074 38.7655 197.754 18.9804 242.156 15.5468ZM78.5663 30.914C83.496 49.4179 94.1288 65.5585 108.391 77.4295C108.582 77.6405 108.785 77.8475 109.008 78.0389C109.367 78.3514 109.746 78.617 110.141 78.8475C125.719 91.1795 145.359 98.535 166.554 98.535C210.734 98.535 248.187 66.6249 256.066 24.1601C263.949 66.6249 301.402 98.535 345.581 98.535C366.761 98.535 386.386 91.1912 401.956 78.8788C402.366 78.6405 402.757 78.3631 403.128 78.0428C403.351 77.8475 403.562 77.6366 403.757 77.4217C418.011 65.5467 428.64 49.4101 433.566 30.914V146.75H400.898C396.753 146.75 393.398 150.109 393.398 154.25C393.398 158.39 396.753 161.75 400.898 161.75H438.663C444.624 166.683 448.132 174.035 448.132 181.832C448.132 194.507 439.034 205.089 427.031 207.414C426.999 207.418 426.972 207.421 426.945 207.429C425.366 207.73 423.738 207.894 422.07 207.894C418.827 207.894 415.652 207.296 412.632 206.121C410.116 205.144 407.273 205.589 405.179 207.293C398.034 213.105 389.382 216.175 380.163 216.175C358.281 216.175 340.476 198.375 340.476 176.488C340.476 175.5 340.531 174.422 340.644 173.097C340.906 170.101 339.351 167.238 336.699 165.828C334.042 164.414 330.8 164.722 328.46 166.613C311.64 180.195 284.574 188.304 256.066 188.304C227.558 188.304 200.496 180.195 183.672 166.613C181.332 164.722 178.093 164.414 175.437 165.828C172.785 167.238 171.23 170.101 171.492 173.097C171.605 174.422 171.66 175.5 171.66 176.488C171.66 198.371 153.855 216.175 131.972 216.175C122.75 216.175 114.101 213.105 106.957 207.293C104.863 205.589 102.016 205.144 99.5038 206.121C96.4843 207.296 93.3085 207.894 90.0624 207.894C75.6914 207.894 64 196.203 64 181.832C64 174.031 67.5078 166.683 73.4687 161.75H372.898C377.038 161.75 380.398 158.39 380.398 154.25C380.398 150.109 377.038 146.75 372.898 146.75H78.5663V30.914ZM76.8906 220.714C79.2968 238.242 84.1835 254.914 91.1757 270.382C91.0741 270.382 90.9726 270.394 90.8671 270.394C76.0507 270.394 64 258.339 64 243.527C64 234.214 68.9375 225.527 76.7656 220.671C76.8085 220.683 76.8515 220.699 76.8906 220.714ZM127.742 339.902C126.863 337.097 124.426 335.066 121.504 334.706C94.828 331.413 74.6679 308.808 74.3085 281.972C79.3906 284.171 84.9882 285.394 90.8671 285.394C93.4218 285.394 95.9491 285.156 98.4374 284.703C115.933 315.687 142.262 340.835 173.816 356.968C166.453 361.077 159.465 365.702 152.89 370.784C140.93 364.089 131.859 353.023 127.742 339.902ZM136.238 408.027L187.691 454.179C189.125 455.464 190.914 456.097 192.699 456.097C194.754 456.097 196.8 455.257 198.285 453.605C201.05 450.523 200.793 445.78 197.707 443.015L146.191 396.8C159.008 383.698 174.254 372.788 191.441 364.827C193.261 365.527 195.101 366.187 196.949 366.827C197.09 366.976 197.23 367.12 197.383 367.257L342.015 496.999H257.89L218.605 461.761C215.523 458.991 210.781 459.253 208.011 462.335C205.246 465.417 205.504 470.159 208.59 472.925L235.425 496.999H102.367C103.976 464.019 116.172 432.991 136.238 408.027ZM409.765 496.999H364.48L293.89 433.679C305.093 428.128 314.953 420.152 322.839 410.198C331.046 399.831 336.644 387.863 339.347 375.097C380.785 401.808 407.331 447.159 409.765 496.999ZM397.101 333.511C394.511 334.159 392.46 336.14 391.718 338.706C387.335 353.906 376.331 366.491 361.968 372.941C354.613 367.007 346.718 361.659 338.331 356.976C352.304 349.839 365.398 340.859 377.249 330.156C391.902 316.925 404.148 301.55 413.659 284.699C416.156 285.156 418.698 285.394 421.261 285.394C427.144 285.394 432.741 284.167 437.823 281.972C437.503 306.425 420.855 327.558 397.101 333.511Z" fill="black"/>
</svg>
