<svg width="58" height="64" viewBox="0 0 58 64" fill="none" xmlns="http://www.w3.org/2000/svg">
<path d="M45.4401 30.3511V32.4463C45.4401 34.0163 44.2302 35.2896 42.7394 35.2896H41.1504C40.374 41.3398 35.4516 46.0071 29.4899 46.0071H29.1747C23.213 46.0071 18.2061 41.3398 17.4292 35.2896H15.9731C14.4818 35.2896 13.2725 34.0163 13.2725 32.4463V30.3511C13.2725 28.7812 14.4818 27.5078 15.9731 27.5078H42.7394C44.2302 27.5078 45.4401 28.7812 45.4401 30.3511Z" fill="#FFD4BE"/>
<path d="M56.3163 61.3306V63.6296H2.17334V61.4318C2.17334 57.6351 3.49653 53.9993 5.85317 51.1159C5.85317 51.1159 5.95334 50.9947 5.99731 50.9425C6.74589 50.0532 7.58876 49.2626 8.4976 48.5404C10.6256 46.8678 13.1386 45.7508 15.8064 45.2915L18.2618 44.8039L22.6487 43.9307H22.6526C24.5191 45.2417 26.7619 46.0073 29.1747 46.0073H29.4899C31.9276 46.0073 34.1919 45.2265 36.0697 43.8896H36.077L40.4536 44.7887L42.8069 45.2729C45.5197 45.7445 48.0693 46.8952 50.2168 48.6176C50.6634 48.9757 51.091 49.3578 51.497 49.7614C51.8977 50.1602 52.2593 50.5804 52.6375 51.0157C53.4594 52.0204 54.1547 53.1173 54.7127 54.2807C55.7559 56.4546 56.3163 58.8587 56.3163 61.3306Z" fill="#B0AEED"/>
<path d="M40.4536 44.7877V44.7887C40.4125 44.8977 38.2587 50.4714 29.526 50.4714C20.4473 50.4714 18.2617 44.8039 18.2617 44.8039L22.6486 43.9307H22.6525C24.519 45.2417 26.7618 46.0073 29.1747 46.0073H29.4898C31.9276 46.0073 34.1919 45.2265 36.0696 43.8896H36.077L40.4536 44.7877Z" fill="#FFD4BE"/>
<path d="M32.2057 58.2239C32.2057 59.6224 31.0721 60.7565 29.6732 60.7565C28.2747 60.7565 27.1406 59.6224 27.1406 58.2239C27.1406 56.825 28.2747 55.6914 29.6732 55.6914C31.0721 55.6914 32.2057 56.825 32.2057 58.2239Z" fill="#E5ECEC"/>
<path d="M13.6299 21.0537H44.8613V27.5079H13.6299V21.0537Z" fill="#FFC15A"/>
<path d="M13.6299 21.0537H44.8613V27.5079H13.6299V21.0537Z" fill="#FFC15A"/>
<path d="M13.6299 21.0537H44.8613V27.5079H13.6299V21.0537Z" fill="#FFC15A"/>
<path d="M45.6853 7.68419L41.4665 9.13833C41.1382 9.2512 40.7932 9.30935 40.4463 9.30935H36.29C35.475 9.30935 34.6922 8.99126 34.1078 8.4225C33.5234 7.85423 32.7402 7.53613 31.9252 7.53613H26.3949C25.6893 7.53613 25.0111 7.81172 24.5054 8.30376L24.3832 8.4225C23.7988 8.99126 23.0161 9.30935 22.2006 9.30935H18.0443C17.6974 9.30935 17.3524 9.2512 17.0246 9.13833L12.8058 7.68419C12.5214 7.58597 12.2228 7.53613 11.9223 7.53613C9.97468 7.53613 8.66322 9.52972 9.43427 11.3181L13.6296 21.0529H44.861L49.0563 11.3181C49.8274 9.52972 48.5159 7.53613 46.5683 7.53613C46.2677 7.53613 45.9692 7.58597 45.6853 7.68419Z" fill="#D9D8F6"/>
<path d="M29.2509 7.53654H29.2402C27.7382 7.53654 26.52 6.31889 26.52 4.81637V4.80611C26.52 3.30359 27.7382 2.08594 29.2402 2.08594H29.2509C30.753 2.08594 31.9706 3.30359 31.9706 4.80611V4.81637C31.9706 6.31889 30.753 7.53654 29.2509 7.53654Z" fill="#FFC15A"/>
<path d="M22.6524 43.9305H22.6485L18.2616 44.8036L15.8063 45.2913C13.1384 45.7506 10.6254 46.8676 8.49746 48.5402C7.59497 49.2575 6.75698 50.0422 6.01281 50.9237C5.96346 50.9818 5.85303 51.1157 5.85303 51.1157C5.85303 33.4045 13.63 27.5078 13.63 27.5078H15.9729C14.4816 27.5078 13.2723 28.7812 13.2723 30.3511V32.4463C13.2723 34.0163 14.4816 35.2896 15.9729 35.2896H17.429C17.8918 38.8908 19.9068 42.0019 22.6524 43.9305Z" fill="#E5ECEC"/>
<path d="M52.6376 51.0155C52.5057 50.8636 52.362 50.693 52.2213 50.5372C51.9892 50.2797 51.7591 50.0222 51.5133 49.7769C51.1028 49.3674 50.6709 48.9794 50.217 48.6174C48.0695 46.895 45.5198 45.7442 42.807 45.2727L40.4538 44.7885L36.0772 43.8894H36.0698C38.7841 41.9579 40.6917 38.8659 41.1505 35.2896H42.7395C44.2303 35.2896 45.4402 34.0163 45.4402 32.4463V30.3511C45.4402 28.7812 44.2303 27.5078 42.7395 27.5078H44.8607C44.8607 27.5078 52.6073 33.3821 52.6376 51.0155Z" fill="#E5ECEC"/>
<path d="M53.8844 50.5671C53.7461 35.2263 47.8894 28.5976 46.1118 26.9387V21.3108L50.205 11.8139C50.7342 10.5859 50.6115 9.18604 49.8767 8.06953C49.1418 6.95254 47.9051 6.28557 46.5682 6.28557C46.1274 6.28557 45.6935 6.35837 45.2772 6.50203L41.0585 7.95617C40.861 8.02409 40.6549 8.05878 40.4462 8.05878H36.29C35.7979 8.05878 35.3328 7.86969 34.98 7.52618C34.3931 6.95596 33.6729 6.56946 32.8921 6.39355C33.1032 5.90737 33.2214 5.37037 33.2214 4.80552C33.2214 2.616 31.4404 0.834961 29.2401 0.834961C27.0506 0.834961 25.269 2.616 25.269 4.81627C25.269 5.36695 25.3819 5.89173 25.5857 6.36912C24.8542 6.5201 24.1799 6.87533 23.6331 7.40696L23.511 7.52618C23.1582 7.86969 22.6925 8.05878 22.2005 8.05878H18.0442C17.8356 8.05878 17.6294 8.02409 17.432 7.95617L13.2132 6.50203C12.7969 6.35837 12.3625 6.28557 11.9223 6.28557C10.5854 6.28557 9.34869 6.95254 8.6138 8.06953C7.87891 9.18604 7.75626 10.5859 8.28496 11.8139L9.75865 15.2323C9.75962 15.2352 9.76109 15.2381 9.76256 15.2411L12.3786 21.3108V26.9387C10.5971 28.6015 4.71897 35.2546 4.60561 50.6649C2.23237 53.7075 0.921875 57.4641 0.921875 61.4312V63.6291C0.921875 64.32 1.48184 64.8799 2.17275 64.8799C2.86367 64.8799 3.42363 64.32 3.42363 63.6291C3.42363 63.6291 3.42363 61.4312 3.42363 61.4307C3.42363 59.0707 3.97578 56.7199 5.04538 54.6149C6.10325 52.5324 7.66147 50.7289 9.52557 49.328C11.4293 47.8973 13.6715 46.9279 16.0184 46.5243C16.0292 46.5223 16.0399 46.5204 16.0502 46.5184L17.4051 46.2487C17.7936 47.3598 18.5211 49.1399 19.6894 50.9307C21.5081 53.7183 23.7729 55.5731 26.3494 56.4174C26.0567 56.9544 25.8901 57.5701 25.8901 58.2234C25.8901 60.3098 27.5871 62.0068 29.6735 62.0068C31.7594 62.0068 33.4569 60.3098 33.4569 58.2234C33.4569 57.5672 33.2883 56.9496 32.9932 56.4106C35.5331 55.5575 37.7021 53.6875 39.3698 50.8779C40.4135 49.1203 41.035 47.3745 41.3663 46.2531L42.5556 46.4979C42.5678 46.5003 42.5805 46.5028 42.5932 46.5047C42.7496 46.5321 42.905 46.5614 43.0599 46.5937C46.1372 47.2294 48.9918 48.8531 51.1143 51.1696C53.2926 53.5463 54.6637 56.5846 54.9882 59.7943C55.04 60.3045 55.0658 60.8175 55.0658 61.3301V63.6291C55.0658 64.32 55.6258 64.8799 56.3167 64.8799C57.0072 64.8799 57.5676 64.32 57.5676 63.6291V61.3306C57.5676 57.3717 56.2561 53.6123 53.8844 50.5671ZM46.6908 32.446V31.608C48.5515 34.507 50.8143 39.6454 51.2942 47.8822C51.109 47.7268 50.9189 47.5777 50.7274 47.4302C48.4963 45.7127 45.867 44.5473 43.0941 44.0538C43.076 44.0508 43.0584 44.0465 43.0403 44.0435L42.9924 44.0337L40.7384 43.57C40.7272 43.5676 40.7164 43.5642 40.7052 43.5617L38.7834 43.1674C40.4897 41.3434 41.6834 39.0464 42.2072 36.5402H42.7393C44.9181 36.5402 46.6908 34.7035 46.6908 32.446ZM44.1891 30.3508V32.446C44.1891 33.3241 43.5387 34.0384 42.7393 34.0384H42.4012V28.7584H42.7423C43.5402 28.7603 44.1891 29.4737 44.1891 30.3508ZM43.6105 26.2566H42.7393C42.7379 26.2566 42.7369 26.2566 42.7354 26.2566H39.981V24.7399C39.981 24.049 39.4211 23.489 38.7302 23.489C38.0392 23.489 37.4793 24.049 37.4793 24.7399V26.2566H30.685V24.7399C30.685 24.049 30.1245 23.489 29.4341 23.489C28.7432 23.489 28.1832 24.049 28.1832 24.7399V26.2566H21.3884V24.7399C21.3884 24.049 20.8284 23.489 20.1375 23.489C19.4471 23.489 18.8866 24.049 18.8866 24.7399V26.2566H15.9764C15.9754 26.2566 15.9744 26.2566 15.973 26.2566H14.8804V22.3041H43.6105V26.2566ZM14.4529 19.8024L12.8135 15.9999H27.9946V19.8024H14.4529ZM14.5232 30.3508C14.5232 29.4737 15.1716 28.7603 15.9696 28.7584H16.1782V34.038H15.973C15.1736 34.038 14.5232 33.3241 14.5232 32.446V30.3508ZM18.6799 28.7584H39.8994V35.2014C39.4807 38.3139 37.8233 41.1054 35.3445 42.8694C35.344 42.8698 35.344 42.8698 35.3435 42.8703C33.6113 44.1036 31.587 44.7554 29.4898 44.7554H29.1746C27.1004 44.7554 25.0936 44.1163 23.3712 42.9065C23.3712 42.9065 23.3712 42.9065 23.3707 42.906C20.805 41.1035 19.0987 38.2983 18.6799 35.2019V28.7584ZM20.2787 45.6775L20.4903 45.6355L22.3867 45.2582C24.4281 46.5682 26.7633 47.2577 29.1746 47.2577H29.4898C31.927 47.2577 34.2827 46.555 36.3369 45.2196L38.4746 45.6594C37.3219 47.1057 34.7444 49.2205 29.5259 49.2205C24.1477 49.22 21.4783 47.1199 20.2787 45.6775ZM36.29 10.5605H40.4462C40.9329 10.5605 41.4132 10.4799 41.874 10.3211L46.0928 8.86697C46.2462 8.8142 46.406 8.78732 46.5682 8.78732C47.068 8.78732 47.5122 9.02724 47.7868 9.44452C48.0614 9.86181 48.1054 10.3646 47.908 10.8239L44.0381 19.8029H30.4964V16.0004H37.8428C38.5337 16.0004 39.0937 15.4404 39.0937 14.7495C39.0937 14.0586 38.5337 13.4986 37.8428 13.4986H30.4964V8.78781H31.9251C32.4171 8.78781 32.8828 8.97691 33.2356 9.31992C34.0579 10.1198 35.1427 10.5605 36.29 10.5605ZM29.2508 3.33672C30.0605 3.33672 30.7197 3.99587 30.7197 4.81627C30.7197 5.62641 30.0605 6.28557 29.2508 6.28557H29.2401C28.43 6.28557 27.7708 5.62641 27.7708 4.80601C27.7708 3.99587 28.43 3.33672 29.2508 3.33672ZM10.7036 9.44403C10.9783 9.02675 11.4224 8.78732 11.9223 8.78732C12.0845 8.78732 12.2443 8.8142 12.3977 8.86697L16.617 10.3211C17.0773 10.4799 17.5576 10.5601 18.0442 10.5601H22.2005C23.3478 10.5601 24.4325 10.1198 25.2549 9.31943L25.3775 9.2007C25.6512 8.93391 26.0127 8.78732 26.3948 8.78732H27.9946V13.4981H11.7356L10.5825 10.8234C10.3851 10.3646 10.429 9.86181 10.7036 9.44403ZM12.0215 31.2802V32.446C12.0215 34.7035 13.7942 36.5402 15.973 36.5402H16.3741C16.9062 39.0478 18.1342 41.3576 19.8971 43.2026L15.5782 44.0611C14.3776 44.2688 13.2025 44.6045 12.0733 45.055C10.5155 45.676 9.04672 46.5174 7.7245 47.5562C7.69177 47.5821 7.65952 47.6075 7.62678 47.6334C7.47921 47.7492 7.33458 47.8675 7.1919 47.9872C7.59306 40.9598 9.29983 36.2456 10.7608 33.4208C11.1879 32.5946 11.6164 31.8836 12.0215 31.2802ZM29.673 59.5056C28.9665 59.5056 28.3914 58.9304 28.3914 58.2239C28.3914 57.5173 28.9665 56.9422 29.673 56.9422C30.3796 56.9422 30.9547 57.5168 30.9547 58.2239C30.9547 58.9304 30.3796 59.5056 29.673 59.5056ZM29.6735 54.4405C26.7799 54.4405 24.2889 53.0308 22.2586 50.25C24.0553 51.1037 26.4261 51.7218 29.5259 51.7218C32.7338 51.7218 35.1402 51.0167 36.9266 50.0712C35.0552 52.9702 32.6175 54.4405 29.6735 54.4405Z" fill="black"/>
<path d="M13.2128 54.9102C12.5224 54.9102 11.9619 55.4701 11.9619 56.161V63.6287C11.9619 64.3196 12.5224 64.8796 13.2128 64.8796C13.9037 64.8796 14.4637 64.3196 14.4637 63.6287V56.161C14.4637 55.4701 13.9037 54.9102 13.2128 54.9102Z" fill="black"/>
<path d="M45.6366 54.9102C44.9457 54.9102 44.3857 55.4701 44.3857 56.161V63.6287C44.3857 64.3196 44.9457 64.8796 45.6366 64.8796C46.327 64.8796 46.8875 64.3196 46.8875 63.6287V56.161C46.8875 55.4701 46.327 54.9102 45.6366 54.9102Z" fill="black"/>
<path d="M41.4594 15.2278C41.6583 15.7042 42.1386 16.0154 42.6551 15.9993C43.1725 15.9827 43.6289 15.6387 43.798 15.1516C43.968 14.66 43.7999 14.0917 43.3914 13.7697C42.9805 13.4458 42.3995 13.4125 41.9544 13.6876C41.4408 14.0048 41.2278 14.6707 41.4594 15.2278Z" fill="black"/>
<path d="M27.9223 36.1317H30.3615C31.0519 36.1317 31.6124 35.5717 31.6124 34.8808C31.6124 34.1899 31.0519 33.6299 30.3615 33.6299H29.6755L30.3249 31.7409C30.5496 31.0876 30.2022 30.3757 29.5489 30.1514C28.8956 29.9266 28.1837 30.274 27.9589 30.9273L26.7393 34.4743C26.6079 34.8564 26.6695 35.2785 26.904 35.6079C27.139 35.9367 27.5182 36.1317 27.9223 36.1317Z" fill="black"/>
</svg>
