<svg width="512" height="512" viewBox="0 0 512 512" fill="none" xmlns="http://www.w3.org/2000/svg">
<path d="M176 304H136C100.656 304 72 332.656 72 368V496H392V368C392 332.656 363.344 304 328 304H288" fill="#D6759E"/>
<path d="M164 464C260.544 464 340.04 395.896 350.736 308.232C343.664 305.544 336.016 304 328 304H288H176H136C100.656 304 72 332.656 72 368V441.48C99.2 455.8 130.568 464 164 464Z" fill="#F097D0"/>
<path d="M256 416L248 496H216L208 416" fill="#8892A0"/>
<path d="M200 384H264V416H200V384Z" fill="#3D98F7"/>
<path d="M232 384C249.673 384 264 369.673 264 352C264 334.327 249.673 320 232 320C214.327 320 200 334.327 200 352C200 369.673 214.327 384 232 384Z" fill="#8892A0"/>
<path d="M72 432V496H216V448H128V432H72Z" fill="#EFBE9A"/>
<path d="M336 432H392V496H336V432Z" fill="#EFBE9A"/>
<path d="M330.296 250.232C334.032 239.512 336.064 227.992 336.064 216V136C336.064 78.56 289.504 32 232.064 32C221.88 32 212.032 33.464 202.728 36.192L202.68 36.032C219.888 23.44 241.104 16 264.064 16C321.504 16 368.064 62.56 368.064 120H368V168C368 207.768 400.232 240 440 240L406.032 262.648C396.88 268.744 386.136 272 375.136 272C360.36 272 346.2 266.128 335.752 255.688L330.296 250.232Z" fill="#976947"/>
<path d="M144.064 216H128.064C110.392 216 96.0645 201.672 96.0645 184C96.0645 166.328 110.392 152 128.064 152H144.064" fill="#DB9B7C"/>
<path d="M320.064 216H336.064C353.736 216 368.064 201.672 368.064 184C368.064 166.328 353.736 152 336.064 152H320.064" fill="#DB9B7C"/>
<path d="M128.064 136V216C128.064 273.44 174.624 320 232.064 320C289.504 320 336.064 273.44 336.064 216V136C336.064 78.56 289.504 32 232.064 32C174.624 32 128.064 78.56 128.064 136Z" fill="#EFBE9A"/>
<path d="M232.064 32C184.6 32 144.64 63.832 132.168 107.288L168.064 136L200.064 104V136L232.064 104L264.064 136V104L296.064 136L331.96 107.288C319.488 63.832 279.528 32 232.064 32Z" fill="#C18E59"/>
<path d="M160.064 160H216.064V176H160.064V160Z" fill="#857970"/>
<path d="M248.064 160H304.064V176H248.064V160Z" fill="#857970"/>
<path d="M224.064 200H240.064V232H224.064V200Z" fill="#857970"/>
<path d="M268.064 208C261.448 208 256.064 202.616 256.064 196C256.064 189.384 261.448 184 268.064 184C274.68 184 280.064 189.384 280.064 196C280.064 202.616 274.68 208 268.064 208Z" fill="#857970"/>
<path d="M196.064 208C189.448 208 184.064 202.616 184.064 196C184.064 189.384 189.448 184 196.064 184C202.68 184 208.064 189.384 208.064 196C208.064 202.616 202.68 208 196.064 208Z" fill="#857970"/>
<path d="M232.064 296C201.192 296 176.064 270.872 176.064 240H192.064C192.064 262.056 210.008 280 232.064 280C254.12 280 272.064 262.056 272.064 240H288.064C288.064 270.872 262.936 296 232.064 296Z" fill="#857970"/>
<path d="M208 456H128C123.584 456 120 452.416 120 448V400H136V440H208V456Z" fill="black"/>
<path d="M328 400H344V496H328V400Z" fill="black"/>
<path d="M392 504H72C67.584 504 64 500.416 64 496V368C64 328.304 96.304 296 136 296H176V312H136C105.12 312 80 337.12 80 368V488H384V368C384 337.12 358.88 312 328 312H288V296H328C367.696 296 400 328.304 400 368V496C400 500.416 396.416 504 392 504Z" fill="black"/>
<path d="M232 392C209.944 392 192 374.056 192 352C192 329.944 209.944 312 232 312C254.056 312 272 329.944 272 352C272 374.056 254.056 392 232 392ZM232 328C218.768 328 208 338.768 208 352C208 365.232 218.768 376 232 376C245.232 376 256 365.232 256 352C256 338.768 245.232 328 232 328Z" fill="black"/>
<path d="M264 424H200C195.584 424 192 420.416 192 416V384C192 379.584 195.584 376 200 376H264C268.416 376 272 379.584 272 384V416C272 420.416 268.416 424 264 424ZM208 408H256V392H208V408Z" fill="black"/>
<path d="M200.24 416.681L216.16 415.081L224.2 495.079L208.28 496.679L200.24 416.681Z" fill="black"/>
<path d="M240.108 495.387L248.148 415.389L264.068 416.989L256.028 496.987L240.108 495.387Z" fill="black"/>
<path d="M72 424H128V440H72V424Z" fill="black"/>
<path d="M336 424H392V440H336V424Z" fill="black"/>
<path d="M232.064 328C170.304 328 120.064 277.76 120.064 216V136C120.064 74.24 170.304 24 232.064 24C293.824 24 344.064 74.24 344.064 136V216C344.064 277.76 293.824 328 232.064 328ZM232.064 40C179.128 40 136.064 83.064 136.064 136V216C136.064 268.936 179.128 312 232.064 312C285 312 328.064 268.936 328.064 216V136C328.064 83.064 285 40 232.064 40Z" fill="black"/>
<path d="M375.136 280C358.12 280 342.128 273.376 330.096 261.344L322.408 253.656L333.72 242.344L341.408 250.032C350.416 259.04 362.392 264 375.136 264C384.584 264 393.736 261.232 401.592 255.992L418.128 244.968C384.616 235.424 360 204.528 360 168V120C360 119.672 360.016 119.352 360.056 119.032C359.536 66.544 316.672 24 264.064 24C243.52 24 223.928 30.392 207.408 42.496L197.952 29.592C217.232 15.464 240.096 8 264.064 8C325.824 8 376.064 58.24 376.064 120C376.064 120.336 376.048 120.672 376 121V168C376 203.288 404.712 232 440 232C443.52 232 446.64 234.312 447.656 237.68C448.68 241.048 447.368 244.696 444.44 246.656L410.472 269.304C399.976 276.304 387.76 280 375.136 280Z" fill="black"/>
<path d="M336.064 224V208C349.296 208 360.064 197.232 360.064 184C360.064 170.768 349.296 160 336.064 160V144C358.12 144 376.064 161.944 376.064 184C376.064 206.056 358.12 224 336.064 224Z" fill="black"/>
<path d="M128.064 224C106.008 224 88.0645 206.056 88.0645 184C88.0645 161.944 106.008 144 128.064 144V160C114.832 160 104.064 170.768 104.064 184C104.064 197.232 114.832 208 128.064 208V224Z" fill="black"/>
<path d="M160.064 160H216.064V176H160.064V160Z" fill="black"/>
<path d="M248.064 160H304.064V176H248.064V160Z" fill="black"/>
<path d="M224.064 200H240.064V232H224.064V200Z" fill="black"/>
<path d="M268.064 208C261.448 208 256.064 202.616 256.064 196C256.064 189.384 261.448 184 268.064 184C274.68 184 280.064 189.384 280.064 196C280.064 202.616 274.68 208 268.064 208Z" fill="black"/>
<path d="M196.064 208C189.448 208 184.064 202.616 184.064 196C184.064 189.384 189.448 184 196.064 184C202.68 184 208.064 189.384 208.064 196C208.064 202.616 202.68 208 196.064 208Z" fill="black"/>
<path d="M232.064 296C201.184 296 176.064 270.88 176.064 240H192.064C192.064 262.056 210.008 280 232.064 280C254.12 280 272.064 262.056 272.064 240H288.064C288.064 270.88 262.944 296 232.064 296Z" fill="black"/>
<path d="M264.064 144C261.984 144 259.936 143.184 258.408 141.656L232.064 115.312L205.72 141.656C203.424 143.944 199.984 144.624 197 143.392C194.008 142.152 192.064 139.232 192.064 136V123.312L173.72 141.656C170.848 144.536 166.248 144.8 163.064 142.248L123.064 110.248L133.056 97.7523L167.464 125.28L194.4 98.3443C196.688 96.0483 200.12 95.3683 203.12 96.6083C206.112 97.8483 208.056 100.768 208.056 104V116.688L226.4 98.3443C229.528 95.2163 234.584 95.2163 237.712 98.3443L256.056 116.688V104C256.056 100.768 258.008 97.8483 260.992 96.6083C263.976 95.3683 267.424 96.0483 269.712 98.3443L296.648 125.28L331.056 97.7523L341.048 110.248L301.048 142.248C297.872 144.792 293.264 144.536 290.392 141.656L272.048 123.312V136C272.048 139.232 270.096 142.152 267.112 143.392C266.136 143.8 265.096 144 264.064 144Z" fill="black"/>
</svg>
