<svg width="512" height="512" viewBox="0 0 512 512" fill="none" xmlns="http://www.w3.org/2000/svg">
<path d="M390.022 73.9776C368.862 85.0646 368.801 132.015 368.801 132.553L223.682 166.948L217.186 164.171L143.198 132.553C143.198 132.553 148.569 18.2006 306.923 29.3076C324.83 30.5646 344.692 33.4216 366.714 38.2356L390.022 73.9776Z" fill="#FF525D"/>
<path d="M232.904 126.604C236.025 144.014 229.408 156.023 217.186 164.171L143.198 132.553C143.198 132.553 148.569 18.2006 306.923 29.3076C306.923 29.3076 218.686 47.3866 232.904 126.604Z" fill="#EF4152"/>
<path d="M402.695 78.5376C422.284 78.5376 438.164 62.6576 438.164 43.0686C438.164 23.4796 422.284 7.59961 402.695 7.59961C383.106 7.59961 367.226 23.4796 367.226 43.0686C367.226 62.6576 383.106 78.5376 402.695 78.5376Z" fill="#FCF8F2"/>
<path d="M389.516 43.0686C389.516 27.3746 399.712 14.0726 413.838 9.39761C410.332 8.23761 406.586 7.59961 402.691 7.59961C383.102 7.59961 367.222 23.4796 367.222 43.0686C367.222 62.6576 383.102 78.5376 402.691 78.5376C406.587 78.5376 410.332 77.9006 413.838 76.7396C399.712 72.0656 389.516 58.7616 389.516 43.0686Z" fill="#E5E1DC"/>
<path d="M133.176 296.936C116.038 296.936 102.146 283.043 102.146 265.906C102.146 248.769 116.039 234.876 133.176 234.876H378.826C395.964 234.876 409.856 248.769 409.856 265.906C409.856 283.043 395.963 296.936 378.826 296.936" fill="#EFC1AB"/>
<path d="M378.823 240.916V297.677C378.823 311.419 377.587 332.893 373.918 348.479L138.08 348.489C137.117 344.385 136.317 339.865 135.668 335.193C133.844 322.12 133.175 307.811 133.175 297.677V240.916C133.175 230.508 134.472 220.405 136.914 210.757L168.573 194.776L259.293 148.97L375.084 210.757C377.526 220.404 378.823 230.508 378.823 240.916Z" fill="#FFDAC5"/>
<path d="M165.443 348.489H138.081C134.412 332.903 133.176 311.429 133.176 297.677V240.916C133.176 230.508 134.473 220.405 136.915 210.757L162.037 203.136C161.054 219.462 160.537 234.369 160.537 240.916V297.677C160.538 311.429 161.774 332.903 165.443 348.489Z" fill="#EFC1AB"/>
<path d="M206.343 300.139C188.983 310.729 158.298 325.058 135.668 335.192C133.844 322.119 133.175 307.81 133.175 297.676V240.915C133.175 230.507 134.472 220.404 136.914 210.756L168.573 194.775L203.556 206.794C230.918 206.794 236.187 281.938 206.343 300.139Z" fill="#EFC1AB"/>
<path d="M378.825 251.658V297.676C378.825 311.418 377.589 332.892 373.92 348.478L138.082 348.488C134.413 332.902 133.177 311.428 133.177 297.676V251.658C133.177 251.658 141.213 310.222 187.08 310.222H324.923C370.79 310.222 378.825 251.658 378.825 251.658Z" fill="#E5E1DC"/>
<path d="M447.979 504.4C443.459 460.783 423.08 421.636 392.424 392.308C385.016 385.214 377 378.698 368.467 372.841L256.904 321.459L143.533 372.84C99.7035 402.958 69.6265 450.243 64.0225 504.4" fill="#FF525D"/>
<path d="M211.935 372.84L290.83 337.083L256.904 321.458L143.533 372.84C99.7035 402.958 69.6265 450.243 64.0225 504.4H132.423C138.027 450.243 168.105 402.958 211.935 372.84Z" fill="#EF4152"/>
<path d="M369.48 361.449C369.369 363.202 369.227 365.249 369.014 367.55C368.599 372.141 367.93 377.725 366.886 383.896C366.207 387.909 365.366 392.155 364.332 396.543V396.553C357.684 424.655 342.868 458.158 309.862 467.288L302.586 448.398L256 493.251L211.4 450.293L209.424 448.398L202.138 467.288C169.132 458.157 154.316 424.654 147.668 396.553V396.543C146.634 392.155 145.793 387.899 145.114 383.886C144.709 381.454 144.354 379.103 144.05 376.873C143.584 373.468 143.249 370.337 142.996 367.56C142.783 365.249 142.631 363.192 142.52 361.439L159.069 355.653L249.819 323.934L256.903 321.461L262.781 323.549L352.781 355.522L369.48 361.449Z" fill="#FCF8F2"/>
<path d="M226.652 295.993C230.138 283.032 241.975 273.485 256.041 273.485C270.107 273.485 281.943 283.031 285.43 295.993L256.008 339.315L226.652 295.993Z" fill="#FF525D"/>
<path d="M369.014 367.55C368.599 372.141 367.93 377.725 366.886 383.896C365.842 384.352 364.788 384.798 363.724 385.234C326.35 400.577 274.383 404.357 256.01 360.598C237.627 404.357 185.67 400.577 148.296 385.234C147.222 384.788 146.158 384.342 145.114 383.886C144.07 377.735 143.412 372.151 142.996 367.56C148.701 364.56 153.86 360.375 159.069 355.653C164.592 350.647 170.166 345.033 176.51 339.621C184.688 332.659 194.133 326.031 206.344 321.42C224.413 314.62 237.618 317.174 246.606 321.927C247.741 322.525 248.815 323.194 249.818 323.934C252.311 325.718 254.399 327.876 256.04 330.278C257.803 327.714 260.073 325.424 262.779 323.549C263.873 322.779 265.049 322.08 266.296 321.461C275.265 317.012 288.175 314.844 305.667 321.42C317.635 325.93 326.918 332.375 334.964 339.195C341.47 344.688 347.145 350.403 352.78 355.521C358.039 360.294 363.247 364.54 369.014 367.55Z" fill="#E5E1DC"/>
<path d="M192.409 387.119C192.409 387.119 182.984 421.879 211.4 450.294L209.424 448.399L202.138 467.289C169.132 458.158 154.316 424.655 147.668 396.554V396.544C146.634 392.156 145.793 387.9 145.114 383.887C144.709 381.455 144.354 379.104 144.05 376.874L192.409 387.119Z" fill="#E5E1DC"/>
<path d="M334.96 317.91C326.915 311.096 317.632 304.651 305.668 300.14C288.178 293.558 275.266 295.735 266.295 300.183C261.995 302.317 258.527 305.392 256.041 308.995C253.729 305.624 250.55 302.73 246.608 300.649C237.614 295.895 224.414 293.338 206.346 300.142C194.127 304.748 184.684 311.383 176.51 318.346C161.529 331.13 150.813 345.012 134.965 349.513C131.578 350.485 127.959 351.013 124.006 351.013C130.734 355.673 139.068 360.162 148.293 363.955C185.665 379.296 237.626 383.078 256.006 339.317C274.386 383.078 326.347 379.295 363.719 363.955C372.944 360.162 381.267 355.672 387.994 351.013C384.041 351.013 380.423 350.485 377.035 349.513C361.016 344.966 350.219 330.799 334.96 317.91Z" fill="#FCF8F2"/>
<path d="M386.191 149.933V194.553C386.191 204.15 378.428 211.183 368.842 210.403C313.855 205.904 258.655 204.698 203.556 206.795C183.41 207.555 163.273 208.761 143.168 210.403C133.581 211.183 125.808 204.15 125.808 194.553V149.933C125.808 140.336 133.581 131.803 143.168 131.023C165.625 129.189 188.122 127.902 210.62 127.162H210.63C263.377 125.419 316.206 126.716 368.842 131.023C378.428 131.803 386.191 140.336 386.191 149.933Z" fill="#FCF8F2"/>
<path d="M203.556 206.794C183.41 207.554 163.273 208.76 143.168 210.402C133.581 211.182 125.808 204.149 125.808 194.552V149.932C125.808 140.335 133.581 131.802 143.168 131.022C165.625 129.188 188.122 127.901 210.62 127.161H210.63C210.629 127.161 180.663 159.124 203.556 206.794Z" fill="#E5E1DC"/>
<path d="M199.022 254.252C194.825 254.252 191.422 257.655 191.422 261.852V272.585C191.422 276.782 194.825 280.185 199.022 280.185C203.22 280.185 206.623 276.782 206.623 272.585V261.852C206.622 257.655 203.219 254.252 199.022 254.252Z" fill="black"/>
<path d="M316.487 254.252C312.289 254.252 308.887 257.655 308.887 261.852V272.585C308.887 276.782 312.29 280.185 316.487 280.185C320.684 280.185 324.087 276.782 324.087 272.585V261.852C324.088 257.655 320.686 254.252 316.487 254.252Z" fill="black"/>
<path d="M180.642 246.005C182.587 246.005 184.532 245.263 186.016 243.779C189.49 240.305 194.109 238.392 199.022 238.392C203.935 238.392 208.554 240.305 212.028 243.779C214.996 246.747 219.809 246.747 222.776 243.779C225.744 240.811 225.744 235.998 222.776 233.031C216.431 226.686 207.995 223.192 199.022 223.192C190.048 223.192 181.612 226.686 175.268 233.031C172.3 235.999 172.3 240.812 175.268 243.779C176.752 245.264 178.697 246.005 180.642 246.005Z" fill="black"/>
<path d="M303.481 243.779C306.955 240.305 311.574 238.392 316.487 238.392C321.4 238.392 326.019 240.305 329.493 243.779C330.977 245.264 332.922 246.005 334.867 246.005C336.812 246.005 338.757 245.263 340.241 243.779C343.209 240.811 343.209 235.999 340.241 233.031C333.896 226.686 325.461 223.192 316.487 223.192C307.514 223.192 299.078 226.686 292.733 233.031C289.765 235.999 289.765 240.812 292.733 243.779C295.701 246.747 300.514 246.747 303.481 243.779Z" fill="black"/>
<path d="M455.539 503.616C452.646 475.698 443.633 449.305 428.751 425.172C426.548 421.6 421.865 420.489 418.293 422.692C414.72 424.895 413.609 429.578 415.813 433.15C429.485 455.321 437.764 479.557 440.419 505.182C440.823 509.091 444.124 512 447.97 512C448.231 512 448.497 511.987 448.762 511.958C452.937 511.527 455.973 507.791 455.539 503.616Z" fill="black"/>
<path d="M414.447 405.014C409.284 398.644 403.641 392.521 397.68 386.817C391.076 380.492 383.961 374.581 376.489 369.195C376.584 368.209 376.67 367.26 376.744 366.378C382.401 363.557 387.678 360.474 392.323 357.257C395.056 355.364 396.242 351.915 395.251 348.741C394.26 345.567 391.321 343.407 387.996 343.407C386.192 343.407 384.471 343.26 382.789 342.995C385.035 330.381 386.088 315.743 386.353 303.794C404.062 300.282 417.456 284.631 417.456 265.905C417.456 246.976 403.766 231.194 385.77 227.912C385.305 223.235 384.587 218.595 383.625 214.012C384.564 213.374 385.474 212.683 386.324 211.901C391.139 207.463 393.791 201.301 393.792 194.549V149.936C393.792 138.968 386.598 129.074 376.713 125.151C377.634 112.696 380.873 92.988 389.333 84.009C393.541 85.385 398.028 86.14 402.69 86.14C426.439 86.14 445.759 66.82 445.759 43.071C445.759 19.322 426.438 0 402.689 0C383.704 0 367.561 12.352 361.843 29.438C292.23 15.159 236.811 18.905 197.049 40.595C193.363 42.605 192.005 47.222 194.016 50.906C195.395 53.435 198.004 54.868 200.695 54.868C201.924 54.868 203.172 54.569 204.327 53.939C241.018 33.925 293.26 30.764 359.655 44.511C360.085 57.477 366.267 69.008 375.734 76.627C365.655 89.914 362.557 110.555 361.613 122.844C292.163 117.56 221.879 117.506 152.413 122.689C155.405 109.227 163.753 85.043 186.69 65.891C189.912 63.2 190.342 58.408 187.653 55.185C184.962 51.963 180.169 51.533 176.947 54.222C147.237 79.029 138.834 110.51 136.49 124.707C125.991 128.281 118.209 138.528 118.209 149.936V194.549C118.209 201.301 120.86 207.463 125.674 211.9C126.525 212.685 127.428 213.395 128.371 214.034C127.41 218.61 126.694 223.243 126.23 227.913C108.235 231.195 94.546 246.977 94.546 265.906C94.546 284.631 107.939 300.282 125.647 303.794C125.913 315.745 126.965 330.384 129.21 342.997C127.532 343.263 125.812 343.408 124.007 343.408C120.683 343.408 117.744 345.569 116.752 348.742C115.76 351.915 116.947 355.365 119.68 357.257C124.317 360.469 129.593 363.55 135.257 366.374C135.331 367.26 135.418 368.211 135.513 369.201C90.718 401.495 61.986 450.232 56.462 503.615C56.029 507.79 59.064 511.526 63.24 511.957C63.507 511.984 63.77 511.999 64.031 511.999C67.877 511.999 71.177 509.09 71.582 505.18C76.384 458.77 100.337 416.148 137.855 386.485C138.505 390.194 139.286 394.102 140.231 398.122C140.243 398.182 140.256 398.241 140.271 398.299C150.165 440.129 170.856 466.519 200.11 474.616C203.877 475.659 207.822 473.673 209.229 470.026L212.397 461.812L248.4 496.483V504.398C248.4 508.596 251.803 511.998 256 511.998C260.198 511.998 263.6 508.595 263.6 504.398V496.483L299.608 461.815L302.769 470.023C304.175 473.673 308.121 475.661 311.89 474.617C341.144 466.52 361.836 440.13 371.729 398.3C371.742 398.242 371.755 398.184 371.768 398.126C372.716 394.102 373.498 390.19 374.148 386.477C378.674 390.056 383.032 393.837 387.169 397.799C392.672 403.064 397.877 408.711 402.639 414.585C404.141 416.439 406.335 417.4 408.548 417.4C410.229 417.4 411.922 416.845 413.329 415.704C416.591 413.061 417.091 408.274 414.447 405.014ZM402.689 15.201C418.056 15.201 430.557 27.702 430.557 43.069C430.557 58.436 418.056 70.937 402.689 70.937C387.322 70.937 374.821 58.436 374.821 43.069C374.821 27.702 387.323 15.201 402.689 15.201ZM144.549 353.994C154.324 349.378 162.251 341.895 170.55 334.063C174.027 330.781 177.623 327.387 181.441 324.129C190.874 316.094 199.381 310.889 209.026 307.253C222.13 302.318 233.58 302.356 243.061 307.369C245.817 308.824 248.076 310.818 249.775 313.293C251.19 315.356 253.531 316.591 256.032 316.594C256.035 316.594 256.039 316.594 256.042 316.594C258.54 316.594 260.879 315.367 262.298 313.31C264.123 310.665 266.673 308.48 269.672 306.992C279.014 302.362 290.224 302.449 302.988 307.251C312.499 310.837 320.845 315.912 330.05 323.71C330.052 323.712 330.055 323.714 330.057 323.716C334.076 327.111 337.837 330.659 341.475 334.089C349.773 341.915 357.702 349.393 367.457 353.998C365.302 355.016 363.09 355.993 360.836 356.921C341.107 365.02 320.289 368.423 303.728 366.259C283.96 363.677 270.262 353.621 263.017 336.371C261.832 333.55 259.07 331.713 256.009 331.713C252.949 331.713 250.186 333.549 249.001 336.371C241.756 353.621 228.058 363.677 208.29 366.259C191.728 368.424 170.911 365.019 151.186 356.923C148.924 355.993 146.706 355.014 144.549 353.994ZM143.785 217.979C218.247 211.885 293.756 211.885 368.219 217.979C368.457 217.998 368.692 217.995 368.929 218.008C370.445 225.511 371.225 233.191 371.225 240.915V251.074C370.818 253.553 368.568 265.792 362.177 277.725C353.74 293.481 341.942 301.813 327.1 302.551C321.01 298.601 314.859 295.482 308.345 293.025C302.32 290.758 296.502 289.33 290.902 288.712C284.936 275.036 271.31 265.884 256.041 265.884C240.761 265.884 227.125 275.051 221.166 288.743C215.857 289.306 210.024 290.632 203.666 293.027C196.428 295.756 190.183 299.138 184.9 302.551C170.059 301.811 158.262 293.48 149.825 277.725C143.436 265.791 141.185 253.552 140.777 251.074V240.915C140.777 233.195 141.556 225.519 143.07 218.019C143.308 218.007 143.545 217.999 143.785 217.979ZM351.903 323.031C349.059 320.349 346.142 317.597 343.029 314.842C354.144 310.956 363.669 303.309 371.224 292.135V297.675C371.224 308.352 370.44 323.762 368.371 337.045C362.886 333.384 357.634 328.437 351.903 323.031ZM273.775 289.54C270.023 290.377 266.399 291.646 262.917 293.373C260.441 294.601 258.132 296.107 256.039 297.849C254.229 296.351 252.259 295.034 250.161 293.926C246.95 292.229 242.979 290.623 238.265 289.588C242.505 284.343 248.981 281.086 256.04 281.086C263.079 281.086 269.534 284.325 273.775 289.54ZM140.777 297.675V292.135C148.331 303.308 157.854 310.953 168.966 314.84C165.861 317.591 162.946 320.336 160.115 323.009C154.38 328.423 149.126 333.376 143.628 337.044C141.561 323.761 140.777 308.353 140.777 297.675ZM402.256 265.906C402.256 276.166 395.624 284.9 386.425 288.064V243.748C395.625 246.912 402.256 255.646 402.256 265.906ZM133.411 149.936C133.411 144.248 138.161 139.055 143.784 138.596C218.246 132.502 293.755 132.502 368.216 138.596C368.217 138.596 368.217 138.596 368.218 138.596C373.839 139.055 378.589 144.248 378.589 149.936V194.548C378.589 197.004 377.677 199.197 376.021 200.724C374.323 202.289 371.988 203.037 369.455 202.829C331.808 199.748 293.91 198.208 255.998 198.208C218.096 198.208 180.182 199.748 142.545 202.829C140.006 203.036 137.673 202.288 135.976 200.723C134.321 199.198 133.409 197.005 133.409 194.548V149.936H133.411ZM109.748 265.906C109.748 255.646 116.379 246.913 125.577 243.748V288.063C116.378 284.899 109.748 276.165 109.748 265.906ZM356.9 394.96C351.38 418.205 339.55 446.982 314.316 457.707L309.68 445.669C308.765 443.293 306.72 441.532 304.233 440.981C301.749 440.43 299.15 441.159 297.316 442.926L256 482.703L214.696 442.927C212.862 441.161 210.265 440.429 207.78 440.981C205.294 441.531 203.249 443.291 202.333 445.667L197.689 457.71C172.454 446.987 160.625 418.211 155.104 394.964C155.092 394.908 155.08 394.852 155.067 394.796C153.198 386.886 152.008 379.43 151.247 373.239C162.661 377.404 179.59 382.126 197.757 382.126C201.877 382.126 206.064 381.883 210.259 381.335C230.162 378.736 245.738 369.735 256.009 355.058C266.28 369.735 281.856 378.735 301.759 381.335C324.434 384.295 346.749 378.357 360.757 373.249C359.996 379.439 358.806 386.893 356.937 394.797C356.924 394.849 356.912 394.905 356.9 394.96Z" fill="black"/>
<path d="M288.351 486.811C284.904 487.53 282.333 490.549 282.244 494.083C282.161 497.404 284.314 500.43 287.453 501.476C293.844 503.606 299.715 496.572 296.521 490.651C294.964 487.762 291.575 486.163 288.351 486.811Z" fill="black"/>
</svg>
