<svg width="512" height="512" viewBox="0 0 512 512" fill="none" xmlns="http://www.w3.org/2000/svg">
<path d="M36.8203 283.097C36.8203 384.331 108.711 376.331 108.711 422.999C108.711 456.999 157.094 473.757 157.094 473.757L211.199 403.679L91.6797 275.878L36.8203 283.097Z" fill="#394048"/>
<path d="M138.711 422.999C138.711 376.331 66.8203 384.331 66.8203 283.097L94.9648 279.394L91.6797 275.878L36.8203 283.097C36.8203 384.335 108.711 376.335 108.711 422.999C108.711 456.999 157.094 473.753 157.094 473.753L165.496 462.87C152.602 454.479 138.711 441.218 138.711 422.999Z" fill="#31363E"/>
<path d="M475.938 283.097C475.938 384.331 404.047 376.331 404.047 422.999C404.047 456.999 355.664 473.757 355.664 473.757L301.559 403.679L421.078 275.878L475.938 283.097Z" fill="#394048"/>
<path d="M36.8203 223.812C36.8203 165.941 59.7188 111.559 101.301 70.6836C142.75 29.9414 197.824 7.5 256.379 7.5C314.934 7.5 370.008 29.9414 411.457 70.6836C453.039 111.559 475.938 165.941 475.938 223.812H36.8203Z" fill="#394048"/>
<path d="M271.379 8.00781C266.406 7.67969 261.406 7.5 256.379 7.5C197.824 7.5 142.75 29.9375 101.301 70.6836C59.7188 111.559 36.8203 165.941 36.8203 223.812H66.8203C66.8203 165.941 89.7188 111.559 131.301 70.6836C169.191 33.4375 218.469 11.5039 271.379 8.00781Z" fill="#31363E"/>
<path d="M211.199 403.679H201.199C201.199 403.679 199.688 404.749 197.199 406.89C189.828 413.229 173.867 428.987 163.43 454.089C156.809 470.019 153.527 487.269 153.527 504.499H211.199L231.879 459.999L211.199 403.679Z" fill="#52B2DE"/>
<path d="M301.559 403.679H311.559C311.559 403.679 313.07 404.749 315.559 406.89C322.93 413.229 338.887 428.987 349.328 454.089C355.949 470.019 359.227 487.269 359.227 504.499H301.559L280.879 459.999L301.559 403.679Z" fill="#52B2DE"/>
<path d="M211.199 403.679H301.559V504.499H211.199V403.679Z" fill="#E8E8E8"/>
<path d="M283.07 411.644C283.07 426.382 271.117 438.331 256.379 438.331C241.637 438.331 229.688 426.382 229.688 411.644C229.688 396.901 241.637 384.952 256.379 384.952C271.117 384.952 283.07 396.901 283.07 411.644Z" fill="#D7A37E"/>
<path d="M490.258 253.246C490.258 274.395 473.113 291.539 451.961 291.539C430.812 291.539 413.668 274.395 413.668 253.246C413.668 232.098 430.812 214.953 451.961 214.953C473.113 214.953 490.258 232.098 490.258 253.246Z" fill="#D7A37E"/>
<path d="M447.25 215.238C446.926 214.676 421.559 170.863 372.379 149.875C322.973 128.789 317.398 84.668 317.379 84.5C317.379 84.5 305.879 137 218.379 137C130.793 137 131.379 215.402 65.3086 215.25L65.3008 223.812C65.3008 327.547 150.852 411.645 256.379 411.645C361.906 411.645 447.453 327.547 447.453 223.812C447.457 220.938 447.379 218.082 447.25 215.238Z" fill="#F1BE8C"/>
<path d="M85.3008 223.812L85.3047 212.531C79.3359 214.281 72.7461 215.266 65.3086 215.25V215.254C63.9023 215.063 62.4062 214.949 60.7969 214.949C39.6484 214.949 22.5 232.098 22.5 253.246C22.5 274.395 39.6484 291.539 60.7969 291.539C67.6797 291.539 72.6484 289.715 76.2305 286.531C102.492 359.426 173.227 411.645 256.379 411.645C259.734 411.645 263.066 411.555 266.379 411.387C165.5 406.273 85.3008 324.25 85.3008 223.812Z" fill="#D7A37E"/>
<path d="M393.797 212.34H118.957C107.984 212.34 99.0898 221.234 99.0898 232.211V264.695C99.0898 291.098 120.492 312.5 146.891 312.5H166.074C185.156 312.5 201.625 301.32 209.289 285.156C217.734 267.352 235.926 256.141 255.629 256.004C255.879 256 256.129 256 256.379 256C256.629 256 256.879 256 257.125 256.004C276.832 256.141 295.023 267.352 303.465 285.156C311.133 301.324 327.602 312.5 346.684 312.5H365.863C392.266 312.5 413.668 291.098 413.668 264.695V232.211C413.668 221.234 404.773 212.34 393.797 212.34Z" fill="#94DDFF"/>
<path d="M347.207 269.922C351.348 269.922 354.707 266.562 354.707 262.422V244.758C354.707 240.617 351.348 237.258 347.207 237.258C343.066 237.258 339.707 240.617 339.707 244.758V262.422C339.707 266.562 343.066 269.922 347.207 269.922Z" fill="black"/>
<path d="M165.551 237.258C161.41 237.258 158.051 240.617 158.051 244.758V262.422C158.051 266.562 161.41 269.922 165.551 269.922C169.691 269.922 173.051 266.562 173.051 262.422V244.758C173.051 240.617 169.691 237.258 165.551 237.258Z" fill="black"/>
<path d="M277.559 294.547C274.442 291.82 269.704 292.137 266.977 295.258C264.411 298.195 260.547 299.879 256.379 299.879C252.211 299.879 248.348 298.195 245.782 295.258C243.055 292.137 238.317 291.82 235.196 294.547C232.079 297.273 231.758 302.012 234.485 305.129C239.903 311.324 247.883 314.879 256.379 314.879C264.875 314.879 272.852 311.324 278.27 305.129C280.997 302.012 280.68 297.273 277.559 294.547Z" fill="black"/>
<path d="M483.382 219.98C482.394 161.519 458.808 106.715 416.714 65.3358C373.851 23.2031 316.91 0 256.378 0C201.789 0 149.086 19.3203 107.98 54.4061C104.832 57.0936 104.457 61.828 107.148 64.9803C109.836 68.1288 114.57 68.5038 117.719 65.8124C156.109 33.0468 205.351 15 256.378 15C312.953 15 366.159 36.6757 406.198 76.035C443.081 112.289 464.745 159.578 468.003 210.359C466.085 209.64 464.108 209.05 462.081 208.593C458.569 207.796 454.862 207.39 451.222 207.461C450.398 206.203 449.55 204.968 448.691 203.738C430.359 177.589 404.804 155.562 375.324 142.976C342.331 128.898 330.55 104.054 326.464 90.4959C326.46 90.4881 326.456 90.4803 326.453 90.4686C325.167 86.242 321.171 83.2889 316.753 83.2889C312.933 83.2889 309.355 85.5467 307.687 88.9803C289.925 125.551 239.316 129.5 218.379 129.5C194.89 129.5 171.343 135.816 152.176 149.664C134.031 162.769 121.051 181.496 103.269 194.929C94.2655 201.73 83.9061 206.23 72.6366 207.39C71.4491 207.515 70.2655 207.773 69.1288 208.152C69.0819 208.168 66.6327 207.828 65.4843 207.711C58.4999 207 51.3398 207.886 44.7617 210.355C47.7577 164.414 66.0429 120.707 96.992 86.0858C99.7498 82.9959 99.4881 78.2538 96.3983 75.492C93.3084 72.7342 88.5702 72.9999 85.8085 76.0897C50.246 115.875 30.2851 166.855 29.3711 219.984C20.5312 228.335 15 240.152 15 253.246C15 266.328 20.5234 278.136 29.3476 286.488C30.332 347.726 57.8866 371.011 78.1092 388.097C91.5194 399.425 101.211 407.612 101.211 422.999C101.211 454.284 134.363 472.175 148.468 478.37C146.863 486.948 146.027 495.729 146.027 504.499C146.027 508.644 149.386 511.999 153.527 511.999H359.226C363.37 511.999 366.726 508.644 366.726 504.499C366.726 495.729 365.89 486.948 364.284 478.37C378.39 472.175 411.542 454.284 411.542 422.999C411.542 407.612 421.234 399.425 434.644 388.097C454.866 371.011 482.425 347.726 483.405 286.488C492.233 278.136 497.753 266.328 497.753 253.246C497.757 240.152 492.222 228.332 483.382 219.98ZM469.398 278.605C464.3 282.109 458.151 284.039 451.96 284.039C451.441 284.039 445.507 283.496 445.55 283.367C451.792 264.179 454.952 243.988 454.952 223.812C454.952 223.414 454.952 223.011 454.948 222.605C458.515 222.945 462.019 223.925 465.245 225.476C475.819 230.558 482.757 241.503 482.757 253.246C482.757 263.257 477.64 272.933 469.398 278.605ZM218.379 144.5C248.64 144.5 273.617 138.426 292.605 126.449C303.527 119.562 310.863 111.73 315.738 104.762C316.179 105.785 316.652 106.836 317.16 107.902C327.773 130.23 346.843 147.133 369.433 156.773C396.191 168.191 419.351 188.367 436.132 211.984C437.339 213.683 438.519 215.41 439.64 217.171C439.757 217.359 439.839 217.597 439.847 217.816C441.409 263.382 424.894 308.308 394.624 342.331C363.437 377.39 319.117 399.433 272.402 403.433C260.125 404.484 247.746 404.312 235.503 402.956C197.937 398.796 161.402 382.573 133.058 357.284C133.004 357.234 132.945 357.179 132.886 357.128C100.387 328.054 78.5233 287.695 73.7772 242.425C73.1288 236.246 72.8007 230.027 72.8007 223.812C72.8007 223.019 73.3905 222.394 74.1757 222.312C82.6522 221.437 90.0741 219.281 96.7459 216.246C93.5038 220.742 91.5897 226.253 91.5897 232.21V264.695C91.5897 295.191 116.398 319.999 146.89 319.999H166.074C187.332 319.999 206.953 307.585 216.066 288.371C223.175 273.382 238.726 263.621 255.675 263.503L256.378 263.499L257.074 263.503C274.031 263.617 289.581 273.382 296.691 288.371C305.8 307.585 325.425 319.999 346.679 319.999H365.863C396.359 319.999 421.167 295.191 421.167 264.695V232.21C421.167 217.117 408.89 204.839 393.796 204.839H321.316C317.175 204.839 313.816 208.195 313.816 212.339C313.816 216.48 317.175 219.839 321.316 219.839H393.796C400.62 219.839 406.167 225.386 406.167 232.21V264.695C406.167 286.921 388.089 304.999 365.863 304.999H346.679C331.187 304.999 316.886 295.949 310.242 281.945C300.683 261.785 279.851 248.66 257.171 248.503L256.378 248.5L255.578 248.503C232.902 248.66 212.074 261.785 202.515 281.941C195.871 295.949 181.566 304.999 166.074 304.999H146.89C124.668 304.999 106.59 286.921 106.59 264.695V232.21C106.59 225.386 112.137 219.839 118.957 219.839H291.316C295.456 219.839 298.816 216.48 298.816 212.339C298.816 208.195 295.456 204.839 291.316 204.839H118.957C117.418 204.839 115.906 204.972 114.433 205.218C121.965 199.226 128.636 192.304 135.219 185.48C154.636 165.332 174.715 144.5 218.379 144.5ZM274.363 418.339C271.64 425.628 264.605 430.831 256.378 430.831C248.152 430.831 241.117 425.628 238.394 418.339C238.632 418.359 250.621 419.144 256.378 419.144C262.378 419.144 268.386 418.878 274.363 418.339ZM66.3515 283.527C47.746 286.937 30 272.117 30 253.246C30 237.66 42.3046 224.07 57.8359 222.601C57.2616 231.152 58.2851 240.105 59.3905 248.585C59.3983 248.628 59.4023 248.671 59.4101 248.71C60.9296 260.484 63.5312 272.066 67.2069 283.367C66.9218 283.425 66.6366 283.476 66.3515 283.527ZM152.093 463.515C139.695 457.679 116.211 443.87 116.211 422.999C116.211 400.644 102.406 388.984 87.7889 376.636C69.0585 360.812 48.0273 343.042 44.7538 296.132C49.7499 298.007 55.1523 299.038 60.7929 299.038C64.7147 299.038 68.66 298.538 72.453 297.538C90.453 340.913 124.015 376.507 165.976 397.702C171.843 400.667 185.605 406.339 186.422 406.64C177.308 415.644 169.527 425.991 163.304 437.183C158.66 445.534 154.875 454.37 152.093 463.515ZM203.699 496.999H161.254C163.015 467.394 175.476 438.976 196.394 417.902C198.347 415.937 202.808 411.968 202.836 411.941C203.125 412.019 203.41 412.097 203.699 412.175V496.999ZM218.699 415.616C219.121 415.694 221.621 416.136 222.449 416.277C222.468 416.28 222.492 416.284 222.511 416.288C224.785 432.952 239.101 445.831 256.378 445.831C273.652 445.831 287.968 432.948 290.242 416.288C290.265 416.284 293.632 415.694 294.058 415.616V496.999H218.699V415.616ZM309.058 496.999V412.175C309.347 412.097 309.632 412.019 309.921 411.941C311.671 413.452 313.394 414.987 315.05 416.605C322.515 423.878 334.285 437.452 342.402 456.968C347.671 469.636 350.691 483.315 351.503 496.999H309.058ZM424.964 376.636C410.351 388.984 396.546 400.648 396.546 422.999C396.546 443.87 373.062 457.679 360.663 463.515C361.199 463.261 356.331 451.401 355.788 450.132C348.863 433.933 338.878 419.03 326.335 406.64C327.148 406.339 327.949 406.019 328.753 405.71C378.585 386.491 419.804 346.933 440.304 297.538C440.89 297.695 441.48 297.835 442.073 297.964C450.667 299.859 459.757 299.226 467.999 296.136C464.73 343.042 443.698 360.812 424.964 376.636Z" fill="black"/>
</svg>
