<svg width="512" height="512" viewBox="0 0 512 512" fill="none" xmlns="http://www.w3.org/2000/svg">
<path d="M198.194 305.549L125.811 327.819C105.024 334.214 90.8389 353.42 90.8389 375.174V503.742H421.161V375.174C421.161 353.42 406.976 334.214 386.19 327.811L313.807 305.549" fill="#B8CBD9"/>
<path d="M353.157 327.819L280.774 305.549H198.194L125.811 327.819C105.024 334.214 90.8389 353.42 90.8389 375.174V503.742H388.129V375.174C388.129 353.42 373.944 334.214 353.157 327.819V327.819Z" fill="#E8EFF4"/>
<path d="M363.354 445.936H421.161V503.742H363.354V445.936Z" fill="#EFBE9A"/>
<path d="M90.8389 445.936H148.645V503.742H90.8389V445.936Z" fill="#EFBE9A"/>
<path d="M132.129 322.065L133.318 324.734C153.831 370.895 190.564 407.932 236.544 428.835L256 437.678L275.456 428.835C321.443 407.932 358.169 370.895 378.681 324.734L379.871 322.065L346.839 313.807L345.673 316.516C330.589 351.71 301.782 379.218 265.935 392.661L256 396.387L246.064 392.661C210.21 379.218 181.403 351.71 166.326 316.516L165.161 313.807" fill="#66ACD7"/>
<path d="M322.065 470.71H289.032C270.79 470.71 256 455.92 256 437.678H289.032C307.274 437.678 322.065 452.468 322.065 470.71Z" fill="#8BD2F5"/>
<path d="M189.936 470.71H222.968C241.21 470.71 256 455.92 256 437.678H222.968C204.726 437.678 189.936 452.468 189.936 470.71Z" fill="#8BD2F5"/>
<path d="M214.71 313.807C214.71 336.609 233.198 355.097 256 355.097C278.803 355.097 297.291 336.609 297.291 313.807" fill="#DB9B7C"/>
<path d="M148.646 99.0965C148.646 48.9272 189.315 8.25781 239.484 8.25781H272.516C322.686 8.25781 363.355 48.9272 363.355 99.0965" fill="#E8EFF4"/>
<path d="M396.387 99.0967H115.613L132.129 148.645H379.871L396.387 99.0967Z" fill="#B8CBD9"/>
<path d="M346.839 165.161H363.355C381.597 165.161 396.387 179.951 396.387 198.193C396.387 216.435 381.597 231.226 363.355 231.226H346.839" fill="#EFBE9A"/>
<path d="M165.162 165.161H148.646C130.404 165.161 115.613 179.951 115.613 198.193C115.613 216.435 130.404 231.226 148.646 231.226H165.162" fill="#DB9B7C"/>
<path d="M363.355 148.646V214.71C363.355 274.004 315.295 322.065 256 322.065C196.706 322.065 148.646 274.004 148.646 214.71V148.646" fill="#DB9B7C"/>
<path d="M243.613 321.299C297.061 315.146 338.581 269.807 338.581 214.71V148.646H148.646V214.71C148.646 269.807 190.166 315.146 243.613 321.299Z" fill="#EFBE9A"/>
<path d="M256 330.323C192.246 330.323 140.387 278.464 140.387 214.71V148.646H156.903V214.71C156.903 269.355 201.354 313.807 256 313.807C310.645 313.807 355.096 269.355 355.096 214.71V148.646H371.613V214.71C371.613 278.464 319.754 330.323 256 330.323Z" fill="black"/>
<path d="M148.645 239.484C125.879 239.484 107.354 220.96 107.354 198.194C107.354 175.428 125.879 156.903 148.645 156.903V173.419C134.988 173.419 123.871 184.536 123.871 198.194C123.871 211.851 134.988 222.968 148.645 222.968V239.484Z" fill="black"/>
<path d="M363.354 239.484V222.968C377.012 222.968 388.129 211.851 388.129 198.194C388.129 184.536 377.012 173.419 363.354 173.419V156.903C386.121 156.903 404.645 175.428 404.645 198.194C404.645 220.96 386.121 239.484 363.354 239.484Z" fill="black"/>
<path d="M247.742 214.71H264.258V247.742H247.742V214.71Z" fill="black"/>
<path d="M256 363.355C228.673 363.355 206.451 341.133 206.451 313.807H222.967C222.967 332.024 237.782 346.839 256 346.839C274.217 346.839 289.032 332.024 289.032 313.807H305.548C305.548 341.133 283.326 363.355 256 363.355Z" fill="black"/>
<path d="M140.387 421.161H156.903V503.742H140.387V421.161Z" fill="black"/>
<path d="M355.097 421.161H371.613V503.742H355.097V421.161Z" fill="black"/>
<path d="M379.871 156.903H132.129C128.568 156.903 125.423 154.633 124.298 151.254L107.782 101.706C106.935 99.1897 107.363 96.4114 108.915 94.2663C110.468 92.109 112.964 90.8389 115.613 90.8389H396.387C399.036 90.8389 401.532 92.109 403.093 94.2663C404.645 96.4195 405.064 99.1977 404.226 101.706L387.71 151.254C386.577 154.633 383.431 156.903 379.871 156.903ZM138.085 140.387H373.923L384.931 107.355H127.077L138.085 140.387Z" fill="black"/>
<path d="M421.162 512H90.8391C86.2706 512 82.5811 508.31 82.5811 503.742V375.181C82.5811 349.645 98.9722 327.439 123.383 319.927L195.767 297.661L200.621 313.451L128.238 335.714C110.815 341.072 99.0972 356.939 99.0972 375.181V495.484H412.904V375.181C412.904 356.939 401.186 341.072 383.762 335.714L311.379 313.451L316.234 297.661L388.617 319.927C413.029 327.431 429.42 349.645 429.42 375.181V503.742C429.42 508.31 425.73 512 421.162 512Z" fill="black"/>
<path d="M371.613 99.0968H355.096C355.096 53.5605 318.052 16.5161 272.516 16.5161H239.484C193.947 16.5161 156.903 53.5605 156.903 99.0968H140.387C140.387 44.4516 184.838 0 239.484 0H272.516C327.161 0 371.613 44.4516 371.613 99.0968Z" fill="black"/>
<path d="M256 297.29C224.133 297.29 198.193 271.35 198.193 239.483H214.709C214.709 262.25 233.234 280.774 256 280.774C278.766 280.774 297.29 262.25 297.29 239.483H313.806C313.806 271.35 287.867 297.29 256 297.29Z" fill="black"/>
<path d="M256 90.8385C243.331 90.8385 230.927 85.7014 221.968 76.7417L217.129 71.903L228.806 60.2256L233.645 65.0643C239.532 70.9514 247.677 74.3224 256 74.3224C264.322 74.3224 272.468 70.9514 278.355 65.0643L283.193 60.2256L294.871 71.903L290.032 76.7417C281.072 85.7014 268.669 90.8385 256 90.8385Z" fill="black"/>
<path d="M247.742 41.29H264.258V82.5804H247.742V41.29Z" fill="black"/>
<path d="M231.226 33.0322H280.774V49.5484H231.226V33.0322Z" fill="black"/>
<path d="M272.517 173.419H330.323V189.935H272.517V173.419Z" fill="black"/>
<path d="M181.678 173.419H239.484V189.935H181.678V173.419Z" fill="black"/>
<path d="M218.838 222.968C212.008 222.968 206.451 217.411 206.451 210.58C206.451 203.75 212.008 198.193 218.838 198.193C225.669 198.193 231.225 203.75 231.225 210.58C231.225 217.411 225.669 222.968 218.838 222.968ZM218.838 206.451C216.568 206.451 214.709 208.31 214.709 210.58C214.709 212.851 216.568 214.71 218.838 214.71C221.108 214.71 222.967 212.851 222.967 210.58C222.967 208.31 221.108 206.451 218.838 206.451Z" fill="black"/>
<path d="M293.162 222.968C286.331 222.968 280.774 217.411 280.774 210.58C280.774 203.75 286.331 198.193 293.162 198.193C299.992 198.193 305.549 203.75 305.549 210.58C305.549 217.411 299.992 222.968 293.162 222.968ZM293.162 206.451C290.891 206.451 289.032 208.31 289.032 210.58C289.032 212.851 290.891 214.71 293.162 214.71C295.432 214.71 297.291 212.851 297.291 210.58C297.291 208.31 295.432 206.451 293.162 206.451Z" fill="black"/>
<path d="M256 404.645C255.016 404.645 254.036 404.472 253.093 404.125L243.157 400.399C205.395 386.238 174.617 356.855 158.73 319.77L157.564 317.061L172.742 310.561L173.907 313.27C188.028 346.218 215.379 372.339 248.964 384.932L256 387.569L263.036 384.932C296.613 372.347 323.972 346.218 338.093 313.27L339.258 310.561L354.435 317.061L353.27 319.77C337.383 356.847 306.613 386.238 268.843 400.399L258.907 404.125C257.964 404.472 256.984 404.645 256 404.645V404.645Z" fill="black"/>
<path d="M256 445.935C254.827 445.935 253.67 445.689 252.581 445.193L233.125 436.346C185.254 414.588 147.125 376.137 125.771 328.092L124.581 325.427L139.678 318.721L140.867 321.387C160.577 365.741 195.767 401.233 239.964 421.326L256 428.6L272.037 421.31C316.234 401.217 351.424 365.733 371.133 321.371L372.323 318.701L387.42 325.407L386.23 328.076C364.875 376.121 326.746 414.58 278.875 436.33L259.42 445.177C258.331 445.689 257.174 445.935 256 445.935V445.935Z" fill="black"/>
<path d="M322.065 478.967H289.033C266.266 478.967 247.742 460.443 247.742 437.677C247.742 433.108 251.432 429.419 256 429.419H289.033C311.799 429.419 330.323 447.943 330.323 470.709C330.323 475.278 326.633 478.967 322.065 478.967ZM265.67 445.935C269.081 455.548 278.262 462.451 289.033 462.451H312.395C308.984 452.838 299.803 445.935 289.033 445.935H265.67Z" fill="black"/>
<path d="M222.968 478.967H189.936C185.367 478.967 181.678 475.278 181.678 470.709C181.678 447.943 200.202 429.419 222.968 429.419H256C260.569 429.419 264.258 433.108 264.258 437.677C264.258 460.443 245.734 478.967 222.968 478.967ZM199.605 462.451H222.968C233.738 462.451 242.92 455.548 246.331 445.935H222.968C212.198 445.935 203.016 452.838 199.605 462.451Z" fill="black"/>
<path d="M363.354 437.678H421.161V454.194H363.354V437.678Z" fill="black"/>
<path d="M90.8389 437.678H148.645V454.194H90.8389V437.678Z" fill="black"/>
</svg>
