<svg width="496" height="496" viewBox="0 0 496 496" fill="none" xmlns="http://www.w3.org/2000/svg">
<path d="M136 298.016C108.398 305.121 88 330.176 88 360V488H408V360C408 330.176 387.602 305.121 360 298.016" fill="#2D4D83"/>
<path d="M328 298.016H136C108.398 305.121 88 330.176 88 360V488H376V360C376 330.176 355.602 305.121 328 298.016Z" fill="#4472B2"/>
<path d="M160 208H144C126.328 208 112 193.672 112 176C112 158.328 126.328 144 144 144H160" fill="#DB9B7C"/>
<path d="M336 208H352C369.672 208 384 193.672 384 176C384 158.328 369.672 144 352 144H336" fill="#EFBE9A"/>
<path d="M352 72V216C352 273.441 305.441 320 248 320C190.559 320 144 273.441 144 216V72" fill="#DB9B7C"/>
<path d="M236 319.258C287.777 313.297 328 269.375 328 216V72H144V216C144 269.375 184.223 313.297 236 319.258Z" fill="#EFBE9A"/>
<path d="M136 248H360V312H136V248Z" fill="#E4725F"/>
<path d="M328 312V376L304 360L280 376V312" fill="#AF4A47"/>
<path d="M312 48C286.391 22.3906 251.648 8 215.434 8H144V128H216C246.93 128 272 102.93 272 72C272 102.93 297.07 128 328 128H352V24L312 48Z" fill="#976947"/>
<path d="M351.383 251.152L336.617 244.984C341.52 233.266 344 220.824 344 208V38.1289L316.121 54.8555C312.969 56.7422 308.945 56.2461 306.344 53.6562C282.055 29.375 249.777 16 215.434 16H152V208C152 220.824 154.48 233.266 159.375 244.977L144.609 251.145C138.895 237.473 136 222.953 136 208V8C136 3.58594 139.586 0 144 0H215.434C251.945 0 286.398 13.4492 313.121 38L347.879 17.1445C350.352 15.6562 353.434 15.6172 355.938 17.0391C358.449 18.457 360 21.1211 360 24V208C360 222.953 357.105 237.473 351.383 251.152Z" fill="black"/>
<path d="M144 216C121.945 216 104 198.055 104 176C104 153.945 121.945 136 144 136V152C130.77 152 120 162.77 120 176C120 189.23 130.77 200 144 200V216Z" fill="black"/>
<path d="M352 216V200C365.23 200 376 189.23 376 176C376 162.77 365.23 152 352 152V136C374.055 136 392 153.945 392 176C392 198.055 374.055 216 352 216Z" fill="black"/>
<path d="M136 392H152V488H136V392Z" fill="black"/>
<path d="M344 392H360V488H344V392Z" fill="black"/>
<path d="M264 152H320V168H264V152Z" fill="black"/>
<path d="M176 152H232V168H176V152Z" fill="black"/>
<path d="M240 192H256V224H240V192Z" fill="black"/>
<path d="M212 200C205.383 200 200 194.617 200 188C200 181.383 205.383 176 212 176C218.617 176 224 181.383 224 188C224 194.617 218.617 200 212 200ZM212 184C209.793 184 208 185.793 208 188C208 190.207 209.793 192 212 192C214.207 192 216 190.207 216 188C216 185.793 214.207 184 212 184Z" fill="black"/>
<path d="M284 200C277.383 200 272 194.617 272 188C272 181.383 277.383 176 284 176C290.617 176 296 181.383 296 188C296 194.617 290.617 200 284 200ZM284 184C281.793 184 280 185.793 280 188C280 190.207 281.793 192 284 192C286.207 192 288 190.207 288 188C288 185.793 286.207 184 284 184Z" fill="black"/>
<path d="M408 496H88C83.5859 496 80 492.426 80 488V360C80 327.129 102.207 298.449 134.008 290.266L137.992 305.77C113.273 312.129 96 334.434 96 360V480H400V360C400 334.434 382.727 312.129 358.008 305.77L361.992 290.266C393.793 298.449 416 327.129 416 360V488C416 492.426 412.414 496 408 496Z" fill="black"/>
<path d="M360 320H136C131.586 320 128 316.426 128 312V248C128 243.586 131.586 240 136 240H360C364.414 240 368 243.586 368 248V312C368 316.426 364.414 320 360 320ZM144 304H352V256H144V304Z" fill="black"/>
<path d="M328 384C326.449 384 324.902 383.543 323.559 382.656L304 369.617L284.441 382.656C281.977 384.289 278.824 384.449 276.23 383.055C273.625 381.664 272 378.953 272 376V312H288V361.055L299.559 353.344C302.246 351.543 305.742 351.543 308.434 353.344L320 361.055V312H336V376C336 378.953 334.375 381.664 331.777 383.055C330.594 383.688 329.297 384 328 384Z" fill="black"/>
<path d="M232 312H248V488H232V312Z" fill="black"/>
<path d="M200 336H216V352H200V336Z" fill="black"/>
<path d="M200 368H216V384H200V368Z" fill="black"/>
<path d="M200 400H216V416H200V400Z" fill="black"/>
<path d="M200 432H216V448H200V432Z" fill="black"/>
<path d="M136 272H176V288H136V272Z" fill="black"/>
<path d="M248 272H360V288H248V272Z" fill="black"/>
<path d="M216 136H144V120H216C242.473 120 264 98.4727 264 72H280C280 107.289 251.289 136 216 136Z" fill="black"/>
<path d="M352 136H328C292.711 136 264 107.289 264 72H280C280 98.4727 301.527 120 328 120H352V136Z" fill="black"/>
</svg>
