<svg width="496" height="496" viewBox="0 0 496 496" fill="none" xmlns="http://www.w3.org/2000/svg">
<path d="M193 296L122.883 317.574C102.746 323.77 89 342.375 89 363.449V488H409V363.449C409 342.375 395.258 323.77 375.121 317.566L305 296" fill="#B64F86"/>
<path d="M351.121 317.574L281 296H193L122.883 317.574C102.746 323.77 89 342.375 89 363.449V488H385V363.449C385 342.375 371.258 323.77 351.121 317.574Z" fill="#E087A6"/>
<path d="M337 304V384L305 400L321 424L281 488H217L177 424L193 400L161 384V304" fill="#E8EFF4"/>
<path d="M313 296L289 376L249 344L289 304" fill="#B8CBD9"/>
<path d="M209 304L249 344L209 376L185 296" fill="#B8CBD9"/>
<path d="M289 304L249 344L209 304" fill="#DB9B7C"/>
<path d="M345.066 256L354.945 265.879C363.984 274.922 376.25 280 389.035 280C401.816 280 414.082 274.922 423.121 265.879L441 248C410.074 248 385 222.93 385 192V112H385.066C385.066 54.5586 338.504 8 281.066 8C269.875 8 259.105 9.79297 249 13.0625C238.898 9.79297 228.129 8 216.938 8C159.496 8 112.938 54.5586 112.938 112H113V192C113 222.93 87.9297 248 57 248L74.8828 265.879C83.9219 274.922 96.1836 280 108.969 280C121.754 280 134.016 274.922 143.059 265.879L152.938 256" fill="#695B52"/>
<path d="M161 208H145C127.328 208 113 193.672 113 176C113 158.328 127.328 144 145 144H161" fill="#DB9B7C"/>
<path d="M337 208H353C370.672 208 385 193.672 385 176C385 158.328 370.672 144 353 144H337" fill="#EFBE9A"/>
<path d="M249 72C249 102.93 274.074 128 305 128H353V208C353 265.441 306.441 312 249 312C191.562 312 145 265.441 145 208V128H193C223.93 128 249 102.93 249 72Z" fill="#DB9B7C"/>
<path d="M237 311.258C288.777 305.297 329 261.375 329 208V128H281C263.129 128 247.258 119.602 237 106.566C226.746 119.602 210.875 128 193 128H145V208C145 261.375 185.227 305.297 237 311.258Z" fill="#EFBE9A"/>
<path d="M249 320C187.242 320 137 269.762 137 208V128C137 123.586 140.578 120 145 120H193C219.473 120 241 98.4727 241 72C241 67.5859 244.578 64 249 64C253.426 64 257 67.5859 257 72C257 98.4727 278.531 120 305 120H353C357.426 120 361 123.586 361 128V208C361 269.762 310.762 320 249 320ZM153 136V208C153 260.938 196.066 304 249 304C301.938 304 345 260.938 345 208V136H305C280.938 136 259.93 122.648 249 102.961C238.074 122.648 217.066 136 193 136H153Z" fill="black"/>
<path d="M409 496H89C84.5781 496 81 492.414 81 488V363.457C81 338.711 96.8828 317.199 120.531 309.938L190.648 288.359L195.352 303.648L125.234 325.223C108.344 330.414 97 345.785 97 363.457V480H401V363.457C401 345.785 389.656 330.414 372.77 325.223L302.648 303.648L307.352 288.359L377.473 309.938C401.121 317.199 417 338.711 417 363.457V488C417 492.414 413.426 496 409 496Z" fill="black"/>
<path d="M249 352C246.953 352 244.906 351.215 243.344 349.656L203.344 309.656L214.656 298.344L249 332.688L283.344 298.344L294.656 309.656L254.656 349.656C253.098 351.215 251.051 352 249 352Z" fill="black"/>
<path d="M209 384C208.203 384 207.402 383.879 206.617 383.641C204.082 382.848 202.105 380.848 201.336 378.305L177.336 298.305L192.664 293.711L213.258 362.359L244 337.77L254 350.266L214 382.266C212.562 383.398 210.793 384 209 384Z" fill="black"/>
<path d="M289 384C287.203 384 285.441 383.398 284 382.246L244 350.246L254 337.754L284.746 362.344L305.336 293.695L320.664 298.289L296.664 378.289C295.898 380.832 293.922 382.84 291.387 383.625C290.602 383.879 289.801 384 289 384Z" fill="black"/>
<path d="M241 448H257V464H241V448Z" fill="black"/>
<path d="M241 416H257V432H241V416Z" fill="black"/>
<path d="M241 384H257V400H241V384Z" fill="black"/>
<path d="M210.219 492.238L170.219 428.238C168.547 425.574 168.602 422.184 170.344 419.566L181.32 403.105L157.426 391.16C154.715 389.801 153 387.031 153 384V304H169V379.055L196.578 392.848C198.633 393.871 200.137 395.734 200.738 397.953C201.32 400.168 200.93 402.535 199.656 404.449L186.523 424.152L223.777 483.777L210.219 492.238Z" fill="black"/>
<path d="M287.785 492.238L274.227 483.762L311.48 424.137L298.344 404.434C297.074 402.52 296.68 400.16 297.266 397.938C297.859 395.719 299.371 393.863 301.426 392.832L329 379.055V304H345V384C345 387.031 343.289 389.801 340.578 391.16L316.68 403.105L327.656 419.566C329.402 422.184 329.457 425.574 327.785 428.238L287.785 492.238Z" fill="black"/>
<path d="M265 152H321V168H265V152Z" fill="black"/>
<path d="M177 152H233V168H177V152Z" fill="black"/>
<path d="M241 192H257V224H241V192Z" fill="black"/>
<path d="M213 200C206.387 200 201 194.617 201 188C201 181.383 206.387 176 213 176C219.617 176 225 181.383 225 188C225 194.617 219.617 200 213 200ZM213 184C210.801 184 209 185.793 209 188C209 190.207 210.801 192 213 192C215.203 192 217 190.207 217 188C217 185.793 215.203 184 213 184Z" fill="black"/>
<path d="M285 200C278.387 200 273 194.617 273 188C273 181.383 278.387 176 285 176C291.617 176 297 181.383 297 188C297 194.617 291.617 200 285 200ZM285 184C282.801 184 281 185.793 281 188C281 190.207 282.801 192 285 192C287.203 192 289 190.207 289 188C289 185.793 287.203 184 285 184Z" fill="black"/>
<path d="M249 288C218.129 288 193 262.879 193 232H209C209 254.055 226.945 272 249 272C271.059 272 289 254.055 289 232H305C305 262.879 279.875 288 249 288Z" fill="black"/>
<path d="M108.969 288C93.9533 288 79.8322 282.152 69.2267 271.535L51.3439 253.656C49.0587 251.367 48.3712 247.93 49.6095 244.938C50.84 241.953 53.7697 240 57.0001 240C83.4728 240 105 218.473 105 192V113C104.961 112.672 104.938 112.336 104.938 112C104.938 50.2383 155.176 0 216.938 0C240.906 0 263.77 7.46484 283.051 21.5859L273.594 34.4883C257.082 22.3906 237.488 16 216.938 16C164.32 16 121.457 58.543 120.945 111.039C120.977 111.352 121 111.672 121 112V192C121 221.398 101.082 246.23 74.0158 253.703L80.5392 260.223C88.1369 267.816 98.2267 272 108.969 272C119.555 272 129.914 267.703 137.402 260.223L147.281 250.344L158.594 261.656L148.715 271.535C138.106 282.152 123.985 288 108.969 288Z" fill="black"/>
<path d="M389.035 288C374.016 288 359.898 282.152 349.289 271.535L339.41 261.656L350.723 250.344L360.602 260.223C368.09 267.703 378.449 272 389.035 272C399.777 272 409.867 267.816 417.465 260.223L423.984 253.703C396.922 246.23 377 221.398 377 192V112C377 111.672 377.027 111.352 377.059 111.031C376.539 58.543 333.672 16 281.066 16C270.691 16 260.488 17.6484 250.738 20.8789L245.691 5.70312C257.074 1.92188 268.969 0 281.066 0C342.824 0 393.066 50.2383 393.066 112C393.066 112.336 393.043 112.672 393 113V192C393 218.473 414.531 240 441 240C444.234 240 447.16 241.953 448.395 244.938C449.633 247.93 448.945 251.367 446.656 253.656L428.777 271.535C418.168 282.152 404.051 288 389.035 288Z" fill="black"/>
<path d="M144.938 216C122.883 216 104.938 198.055 104.938 176C104.938 153.945 122.883 136 144.938 136V152C131.707 152 120.938 162.77 120.938 176C120.938 189.23 131.707 200 144.938 200V216Z" fill="black"/>
<path d="M352.938 216V200C366.168 200 376.938 189.23 376.938 176C376.938 162.77 366.168 152 352.938 152V136C374.992 136 392.938 153.945 392.938 176C392.938 198.055 374.992 216 352.938 216Z" fill="black"/>
</svg>
