<?xml version="1.0" standalone="no"?>
<!DOCTYPE svg PUBLIC "-//W3C//DTD SVG 1.1//EN" "http://www.w3.org/Graphics/SVG/1.1/DTD/svg11.dtd" >
<svg xmlns="http://www.w3.org/2000/svg">
<metadata>Generated by IcoMoon</metadata>
<defs>
<font id="icomoon" horiz-adv-x="1024">
<font-face units-per-em="1024" ascent="960" descent="-64" />
<missing-glyph horiz-adv-x="1024" />
<glyph unicode="&#x20;" horiz-adv-x="512" d="" />
<glyph unicode="&#xe900;" glyph-name="external-link" d="M959.96 949.155l51.636-51.672-547.394-547.394-51.636 51.636 547.394 547.43zM1022.486 594.828h-73.034v292.138h-292.138v73.035h365.172v-365.172zM839.897-62.483h-730.345c-62.079 0-109.552 47.473-109.552 109.552v730.345c0 62.079 47.472 109.552 109.552 109.552h401.689v-73.035h-401.689c-21.91 0-36.517-14.606-36.517-36.517v-730.345c0-21.91 14.607-36.517 36.517-36.517h730.345c21.91 0 36.517 14.608 36.517 36.517v401.691h73.034v-401.691c0-62.079-47.473-109.552-109.552-109.552z" />
<glyph unicode="&#xe901;" glyph-name="edit" d="M29.559 951.159h476.107l207.967-207.967v-769.584h-715.744v979.662h29.559zM481.386 892.041h-422.268v-860.371h596.454v686.186l-174.186 174.186zM686.186 699.909h-221.691v221.691h59.118v-161.518h162.573zM247.027 104.511l27.447 138.293 592.231 572.173 115.068-120.346-592.231-570.062zM218.524 109.79l26.392 138.293 1.056 8.445 6.334 6.334 612.289 591.175 20.058-21.113 115.068-119.291 20.058-21.113-21.113-20.058-598.565-576.396-8.445-1.056-141.46-20.058-41.171-5.278 7.39 40.115zM301.922 226.969l-16.891-87.621 90.788 12.668 563.728 542.614-73.897 76.008-562.672-543.67zM773.806 725.245l115.068-118.235-42.227-41.171-115.068 118.235z" />
<glyph unicode="&#xe902;" glyph-name="eye-plus" d="M1024 832h-128v128h-128v-128h-128v-128h128v-128h128v128h128v128zM863.874 513.983c18.432-20.48 35.198-42.561 50.046-65.983-38.154-60.474-89.18-111.783-149.439-150.272-75.39-48.169-162.987-73.766-252.45-73.766s-177.058 25.597-252.447 73.766c-60.219 38.54-111.234 89.839-149.44 150.272 40.665 64.44 95.912 118.415 161.28 157.566-12.777-35.123-17.709-72.619-14.448-109.851s14.636-73.301 33.325-105.67c18.689-32.369 44.239-60.252 74.854-81.691 30.618-21.439 65.556-35.915 102.362-42.407 36.809-6.496 74.592-4.85 110.694 4.816 36.106 9.667 69.656 27.122 98.294 51.139 28.638 24.020 51.668 54.016 67.475 87.887 15.807 33.867 24.006 70.789 24.020 108.165v2.048c-54.34 14.060-102.557 45.585-137.233 89.719-34.679 44.137-53.897 98.443-54.702 154.568-21.272 2.413-42.66 3.631-64.065 3.648-223.296 0-416.896-130.048-512-320.001 95.104-189.952 288.704-320 512-320s416.898 130.048 512 320c-17.545 35.024-38.533 68.212-62.655 99.072-29.897-17.558-63.065-28.819-97.471-33.089v0.065zM416 640c12.612-0.004 25.098-2.492 36.748-7.322s22.234-11.907 31.147-20.827c8.916-8.919 15.985-19.511 20.808-31.16 4.823-11.653 7.301-24.143 7.298-36.755-0.003-12.609-2.492-25.098-7.322-36.748s-11.909-22.231-20.828-31.147c-8.919-8.916-19.511-15.985-31.16-20.808-11.653-4.82-24.143-7.301-36.755-7.298-25.467 0.010-49.893 10.134-67.895 28.15-18.004 18.016-28.113 42.445-28.104 67.915s10.134 49.893 28.149 67.895c18.016 18.004 42.445 28.114 67.915 28.105z" />
<glyph unicode="&#xe903;" glyph-name="contact-book" d="M67.904 773.312h65.408v-77.76h-65.408v-501.439h63.232v-71.489h-63.232v-179.009h761.41v1016.385h-761.41v-186.688zM284.48 678.912c1.92 1.536 17.344 13.056 22.848 17.216l-0.384 0.128 1.088 0.448c0.32 0.384 1.344 1.088 1.536 1.28l0.256-0.32c9.344 5.504 19.008 9.344 30.016 11.008 29.568 4.352 51.136-26.368 65.152-43.968 14.016-17.408 33.472-45.184 31.104-64.192-1.408-11.456-14.528-22.016-26.944-32.384l-0.448 0.64c-3.392-3.648-18.368-18.944-19.648-20.992-6.848-11.392-14.72-37.184-3.712-56.638 10.432-18.883 31.040-49.473 50.56-75.013 20.608-24.767 45.888-51.838 61.89-66.365 16.766-15.169 44.349-14.080 57.279-10.37 2.495 0.642 22.654 12.609 25.279 13.889 13.377 9.216 26.88 18.944 38.847 17.473 19.395-2.434 41.984-27.778 56.003-45.247 14.015-17.538 39.229-45.568 27.709-72.448-4.422-9.83-10.803-18.651-18.749-25.921l0.256-0.256-1.41-1.024-0.382-0.512-0.256-0.065-22.658-17.217c-21.504-13.885-68.222-31.232-133.888 7.363-48.705 28.733-102.144 77.503-153.152 138.431l-0.256-0.191c-2.323 2.974-4.606 5.981-6.848 9.021-2.368 2.946-4.864 5.697-7.296 8.769l0.256 0.191c-47.872 63.171-83.072 125.761-99.584 178.945-22.208 71.68 6.528 111.424 25.536 128.32zM0 768h62.656v-63.488h-62.656v63.488zM0 192h62.528v-60.351h-62.528v60.351zM896 832h58.624v-184h-58.624v184zM896 256h56.767v-182.207h-56.767v182.207zM896 576h57.665v-249.279h-57.665v249.279z" />
<glyph unicode="&#xe904;" glyph-name="download" horiz-adv-x="1317" d="M640 192l256 320h-192v448h-128v-448h-192l256-320zM1152 64h-1024v448h-128v-448c0-70.59 57.408-128 128-128h1024c70.59 0 128 57.41 128 128v448h-128v-448z" />
<glyph unicode="&#xe905;" glyph-name="location" d="M512 960c-84.869 0-166.263-33.714-226.274-93.726s-93.726-141.405-93.726-226.274c0-320 320-704 320-704s320 384 320 704c0 84.869-33.713 166.263-93.724 226.274-60.016 60.012-141.405 93.726-226.276 93.726v0zM512 448c-50.922 0-99.758 20.229-135.765 56.235s-56.235 84.843-56.235 135.765c0 50.922 20.229 99.758 56.235 135.765s84.843 56.235 135.765 56.235c50.921 0 99.756-20.229 135.764-56.235s56.236-84.843 56.236-135.765c0-50.922-20.229-99.758-56.236-135.765s-84.843-56.235-135.764-56.235z" />
<glyph unicode="&#xe906;" glyph-name="look" horiz-adv-x="800" d="M28.748 972.8h463.047l202.262-202.262v-748.473h-696.11v952.788h28.748zM468.18 915.304h-410.685v-836.77h580.092v667.363l-169.407 169.407zM368.589 635.012v0 0c62.629 0 119.099-24.641 160.167-65.71 40.042-40.042 65.71-97.538 65.71-160.167v0 0 0 0c0-62.629-24.641-119.099-65.71-160.167-40.042-40.042-97.538-65.71-160.167-65.71v0 0 0 0c-62.629 0-119.099 24.641-160.167 65.71-40.042 40.042-65.71 97.538-65.71 160.167v0 0 0 0c0 62.629 24.641 119.099 65.71 160.167 40.042 40.042 97.538 65.71 160.167 65.71v0 0zM368.589 577.516v0 0 0 0c-46.202 0-88.297-18.481-119.099-49.282-29.775-29.775-49.282-72.897-49.282-119.099v0 0 0 0c0-46.202 18.481-88.297 49.282-119.099 29.775-29.775 72.897-49.282 119.099-49.282v0 0 0 0c46.202 0 88.297 18.481 119.099 49.282 29.775 29.775 49.282 72.897 49.282 119.099v0 0 0 0c0 46.202-18.481 88.297-49.282 119.099-29.775 29.775-72.897 49.282-119.099 49.282zM667.363 728.443h-215.609v215.609h57.496v-157.087h158.114zM710.484-50.831l-239.224 297.746 44.149 48.255 284.399-250.518z" />
<glyph unicode="&#xe907;" glyph-name="arrow-right" d="M828.006 512l-310.835 310.835 72.397 72.397 434.432-434.432-434.432-434.432-72.397 72.397 310.835 310.835h-828.006v102.4z" />
<glyph unicode="&#xe908;" glyph-name="arrow-left" d="M195.994 512l310.835 310.835-72.397 72.397-434.432-434.432 434.432-434.432 72.397 72.397-310.835 310.835h828.006v102.4h-828.006z" />
<glyph unicode="&#xe909;" glyph-name="close" d="M971.223 960l52.777-52.779-971.225-971.221-52.775 52.741 971.223 971.259zM52.775 960l971.225-971.187-52.777-52.813-971.223 971.186 52.775 52.814z" />
<glyph unicode="&#xe90a;" glyph-name="mail" d="M928 800h-832c-17.7 0-32-14.3-32-32v-640c0-17.698 14.3-32 32-32h832c17.698 0 32 14.302 32 32v640c0 17.7-14.302 32-32 32zM888 689.2v-521.2h-752v521.2l-27.6 21.5 39.3 50.5 42.8-33.3h643.1l42.799 33.3 39.3-50.5-27.699-21.5zM833.6 728l-321.6-250.001-364.4 283.301-39.3-50.5 27.6-21.5 341.6-265.599c9.826-7.633 21.909-11.776 34.351-11.776s24.525 4.143 34.351 11.776l369.399 286.999-39.3 50.5-42.701-33.2z" />
<glyph unicode="&#xe90b;" glyph-name="document" horiz-adv-x="808" d="M788.087 700.592c-0.178 5.994-2.568 11.842-6.982 16.256l-236.129 236.13c-0.011 0.010-0.019 0.014-0.027 0.024-4.339 4.324-10.321 6.998-16.926 6.998h-457.257c-27.834 0-50.476-22.64-50.476-50.474v-923.051c0-27.831 22.64-50.472 50.474-50.472h666.888c27.831 0 50.472 22.638 50.472 50.472v713.421c0.005 0.236-0.022 0.464-0.038 0.696zM552.001 878.138l154.268-154.27h-144.152c-5.578 0-10.116 4.538-10.116 10.118v144.152zM740.177-13.528c-0.003-1.388-1.134-2.52-2.522-2.52h-666.889c-1.39 0-2.522 1.132-2.522 2.522v923.051c0 1.39 1.132 2.522 2.522 2.522h433.282v-178.062c0-32.018 26.050-58.071 58.069-58.071h178.063v-689.443h-0.003z" />
<glyph unicode="&#xe90c;" glyph-name="phone-call" d="M853.332 490.715h85.336c0 218.878-165.25 383.956-384.428 383.956v-85.334c173.312 0 299.092-125.568 299.092-298.622zM554.668 618.664c89.726 0 128-38.272 128-128h85.332c0 137.6-75.734 213.334-213.332 213.334v-85.333zM700.672 386.43c-8.197 7.452-18.972 11.427-30.045 11.082-11.073-0.34-21.583-4.976-29.305-12.916l-102.102-105.002c-24.576 4.692-73.983 20.094-124.841 70.824-50.859 50.902-66.262 100.44-70.827 124.844l104.917 102.144c7.954 7.717 12.592 18.226 12.935 29.303s-3.638 21.853-11.1 30.046l-157.653 173.354c-7.465 8.219-17.84 13.205-28.921 13.898s-21.997-2.961-30.428-10.186l-92.586-79.402c-7.377-7.404-11.78-17.257-12.374-27.691-0.64-10.667-12.842-263.341 183.083-459.348 170.922-170.882 385.022-183.384 443.99-183.384 8.616 0 13.908 0.256 15.318 0.344 10.431 0.582 20.28 5.004 27.648 12.414l79.36 92.63c7.229 8.425 10.892 19.34 10.207 30.417-0.689 11.082-5.665 21.462-13.88 28.933l-173.396 157.696z" />
<glyph unicode="&#xe90d;" glyph-name="ham" horiz-adv-x="1126" d="M0 921.6v-140.8h1126.4v140.8h-1126.4zM0 503.424v-140.8h1126.4v140.8h-1126.4zM0 81.024v-140.8h1126.4v140.8h-1126.4z" />
<glyph unicode="&#xe90e;" glyph-name="filter" d="M57.367 960h909.263c10.812-0.007 21.402-3.039 30.549-8.749 9.156-5.709 16.486-13.863 21.171-23.523 4.676-9.66 6.502-20.432 5.274-31.078-1.22-10.646-5.461-20.731-12.22-29.095l-371.97-460.857c-8.165-10.085-12.619-22.626-12.628-35.556v-292.918c0-8.832-2.075-17.545-6.060-25.446-3.986-7.893-9.772-14.771-16.901-20.070l-114.807-85.333c-8.528-6.34-18.669-10.197-29.286-11.145s-21.292 1.050-30.827 5.777c-9.535 4.727-17.554 11.989-23.159 20.975s-8.573 19.345-8.573 29.909v378.308c-0.023 12.91-4.477 25.428-12.628 35.499l-371.972 460.857c-6.757 8.364-10.994 18.449-12.222 29.095s0.603 21.418 5.282 31.078c4.679 9.66 12.015 17.814 21.164 23.523s19.739 8.742 30.551 8.749z" />
<glyph unicode="&#xe90f;" glyph-name="search" d="M751.464 298.996c50.393 68.813 80.531 153.338 80.531 244.965 0 229.374-186.626 415.999-415.998 415.999-229.375 0-415.998-186.625-415.998-415.999 0-229.376 186.625-415.998 415.998-415.998 91.632 0 176.161 30.142 244.974 80.531l272.527-272.527 90.501 90.497c0 0.004-272.536 272.531-272.536 272.531zM415.998 255.963c-158.811 0-287.998 129.184-287.998 287.998 0 158.812 129.186 287.998 287.998 287.998 158.814 0 287.998-129.186 287.998-287.998 0-158.814-129.188-287.998-287.998-287.998z" />
<glyph unicode="&#xe910;" glyph-name="archive" horiz-adv-x="768" d="M768 700.541c0 5.189-1.73 11.243-6.919 15.568l-236.108 236.108c0 0 0 0 0 0-4.324 4.324-9.514 6.919-16.432 6.919h-456.649c-27.676 0-50.162-22.486-50.162-50.162v-922.811c0-27.676 22.486-50.162 50.162-50.162h666.811c27.676 0 50.162 22.486 50.162 50.162v713.514c0 0 0 0 0 0zM531.892 877.838l153.946-153.946h-143.568c-5.189 0-9.514 4.324-9.514 9.514v143.568zM719.568-13.838c0-0.865-0.865-1.73-1.73-1.73h-666.811c-0.865 0-1.73 0.865-1.73 1.73v922.811c0 0.865 0.865 1.73 1.73 1.73h433.297v-177.297c0-32 25.946-57.946 57.946-57.946h177.297v-689.297zM117.622 912.432h47.568v-47.568h-47.568v47.568zM165.189 864.865h47.568v-47.568h-47.568v47.568zM117.622 816.432h47.568v-47.568h-47.568v47.568zM165.189 768.865h47.568v-47.568h-47.568v47.568zM117.622 720.432h47.568v-47.568h-47.568v47.568zM165.189 672.865h47.568v-47.568h-47.568v47.568zM117.622 624.432h47.568v-47.568h-47.568v47.568zM165.189 576.865h47.568v-47.568h-47.568v47.568zM165.189 329.514h47.568v84.757h-47.568v-84.757zM165.189 461.838h95.135v-180.757h-142.703v247.351h47.568v-66.595z" />
<glyph unicode="&#xe911;" glyph-name="checkmark" horiz-adv-x="1317" d="M164.571 618.667l-164.571-170.667 493.714-512 822.857 853.333-164.571 170.667-658.286-682.667-329.143 341.334z" />
<glyph unicode="&#xe912;" glyph-name="error" horiz-adv-x="1040" d="M512 960c-282.624 0-512-229.376-512-512s229.376-512 512-512c282.624 0 512 229.376 512 512s-229.376 512-512 512zM563.2 192h-102.4v102.4h102.4v-102.4zM563.2 396.8h-102.4v307.2h102.4v-307.2z" />
<glyph unicode="&#xe913;" glyph-name="spinner" d="M512-64c277.555 0 512 234.445 512 512h-102.4c0-222.054-187.546-409.6-409.6-409.6s-409.6 187.546-409.6 409.6c0 222.003 187.546 409.6 409.6 409.6v102.4c-277.555 0-512-234.496-512-512 0-277.555 234.445-512 512-512z" />
<glyph unicode="&#xe914;" glyph-name="logout" d="M907.001 480h-554.001c-9.333 0-17-3.167-23-9.501-6-6.331-9-14-9-23s3-16.497 9-22.499c6-6.001 13.666-9 23-9h552l-116.001-116.001c-5.998-5.998-9-13.499-9-22.499s3.003-16.501 9-22.499c4.667-4.001 9.666-6.835 15.002-8.503 5.332-1.664 10.832-1.664 16.497 0 5.669 1.668 10.503 4.502 14.501 8.503l189.001 193.997-189.001 194.002c-3.332 2.667-7 4.833-10.997 6.5-4.001 1.667-8.002 2.5-12.003 2.5-8.667 0-16.333-3-23-9-2-2-3.664-4.333-4.999-7s-2.333-5.333-2.999-8c-0.669-2.666-1.002-5.333-1.002-8s0.333-5.333 1.002-8c0.666-2.666 1.664-5.333 2.999-8s2.999-5 4.999-7l118.001-117zM64-64h544c18 0 33.167 6.166 45.499 18.501 12.336 12.332 18.501 27.498 18.501 45.499v288h-64v-249c0-6.667-1.668-13.001-4.999-18.999-3.335-6.001-8.002-10.832-14-14.501-6.001-3.668-12.668-5.5-20.001-5.5h-465c-10.667 0-19.667 3.833-27 11.502-7.333 7.665-11 16.83-11 27.498l-1 818c0 10.667 3.667 19.833 11 27.5s16.333 11.5 27 11.5h466c10.668 0 19.833-3.833 27.498-11.5 7.669-7.667 11.502-16.833 11.502-27.5v-250h64v289c0 18-6.166 33.167-18.501 45.5-12.332 12.333-27.498 18.5-45.499 18.5h-544c-4 0-8.167-0.5-12.5-1.5s-8.333-2.167-12-3.5c-3.667-1.333-7.333-3.167-11-5.5s-6.833-5-9.5-8c-2.667-3-5.167-6.167-7.5-9.5s-4.333-7-6-11c-1.667-4-3-8-4-12s-1.5-8.334-1.5-13v-896c0-25.999 11.667-45.001 35-57 9.333-4.667 19-7 29-7z" />
<glyph unicode="&#xe915;" glyph-name="self-link" horiz-adv-x="967" d="M414.155 299.981c-6.612-0.011-13.161 1.28-19.271 3.812-6.109 2.526-11.659 6.241-16.328 10.923-44.187 44.311-69.001 104.331-69.001 166.908s24.814 122.6 69.001 166.91l185.73 185.73c44.578 44.575 103.884 69.154 166.911 69.154 63.022 0 122.334-24.578 166.906-69.154 44.191-44.31 69.001-104.333 69.001-166.91s-24.809-122.6-69.001-166.91l-84.878-84.879c-9.54-8.876-22.158-13.703-35.191-13.467-13.028 0.236-25.458 5.518-34.674 14.734s-14.501 21.647-14.734 34.678c-0.239 13.031 4.591 25.646 13.466 35.19l84.878 84.879c18.881 18.967 31.727 43.098 36.915 69.352 5.194 26.254 2.497 53.457-7.743 78.183s-27.568 45.867-49.806 60.761c-22.232 14.895-48.378 22.876-75.139 22.938-36.159 0-70.207-14.115-95.778-39.684l-185.729-185.731c-25.367-25.419-39.615-59.863-39.615-95.775s14.247-70.356 39.615-95.774c7.021-7.043 11.799-16.009 13.73-25.765 1.931-9.751 0.929-19.86-2.879-29.047s-10.253-17.038-18.519-22.568c-8.267-5.524-17.986-8.482-27.93-8.488h0.062zM235.911-63.983c-31.011-0.080-61.73 5.99-90.379 17.863-28.65 11.867-54.661 29.303-76.53 51.291-44.187 44.305-69.001 104.329-69.001 166.906s24.814 122.601 69.001 166.912l84.879 84.878c9.544 8.876 22.159 13.703 35.19 13.467s25.462-5.518 34.678-14.734c9.216-9.216 14.498-21.647 14.734-34.681 0.237-13.028-4.592-25.646-13.467-35.186l-84.879-84.878c-18.881-18.967-31.725-43.099-36.917-69.353s-2.496-53.458 7.745-78.182c10.241-24.724 27.57-45.87 49.805-60.763s48.38-22.875 75.142-22.938c36.217 0 70.206 14.114 95.775 39.686l185.73 185.731c25.368 25.418 39.615 59.864 39.615 95.772 0 35.912-14.247 70.357-39.615 95.776-8.876 9.544-13.703 22.159-13.467 35.19s5.518 25.462 14.734 34.678c9.216 9.216 21.647 14.498 34.678 14.734s25.648-4.591 35.189-13.467c44.186-44.31 69.001-104.333 69.001-166.911s-24.815-122.601-69.001-166.906l-185.729-185.731c-21.869-21.988-47.881-39.424-76.53-51.291-28.649-11.873-59.368-17.943-90.379-17.863v0z" />
</font>
</defs>
</svg>
