<svg width="13" height="22" viewBox="0 0 13 22" fill="none" xmlns="http://www.w3.org/2000/svg">
<path d="M11.9083 0.351642L12.634 1.07228C12.8606 1.29908 12.9854 1.60082 12.9854 1.92331C12.9854 2.24562 12.8606 2.54772 12.634 2.77452L4.41307 10.9951L12.6431 19.2251C12.8697 19.4516 12.9944 19.7537 12.9944 20.076C12.9944 20.3983 12.8697 20.7006 12.6431 20.9272L11.9219 21.648C11.4529 22.1173 10.689 22.1173 10.22 21.648L0.38596 11.8492C0.159519 11.6227 -2.77656e-05 11.321 -2.77617e-05 10.9958L-2.77617e-05 10.992C-2.77579e-05 10.6695 0.159698 10.3678 0.38596 10.1414L10.1934 0.351642C10.4198 0.124843 10.7307 0.000354 11.053 -3.72285e-06C11.3755 -3.719e-06 11.6821 0.124843 11.9083 0.351642Z" fill="black"/>
</svg>
