<svg width="17" height="17" viewBox="0 0 17 17" fill="none" xmlns="http://www.w3.org/2000/svg">
<path d="M7.11238 2.67236C6.62167 2.67236 6.22363 3.0707 6.22363 3.56111C6.22363 4.05242 6.62167 4.44986 7.11238 4.44986C8.19837 4.44986 9.16821 5.05642 9.64437 6.03399C9.79853 6.34944 10.1146 6.53302 10.4437 6.53302C10.5747 6.53302 10.7075 6.5042 10.8325 6.44301C11.2739 6.22825 11.4575 5.69625 11.2422 5.25455C10.466 3.66181 8.88305 2.67236 7.11238 2.67236Z" fill="black"/>
<path d="M16.6744 14.8794L13.7126 11.9173C14.5895 10.684 15.1102 9.18067 15.1102 7.55526C15.1102 3.38925 11.721 0 7.55496 0C3.38895 0 0 3.38925 0 7.55526C0 11.721 3.38895 15.1102 7.55496 15.1102C9.29533 15.1102 10.8952 14.5132 12.1737 13.5207L15.1031 16.4502C15.3199 16.667 15.6048 16.7757 15.8888 16.7757C16.1733 16.7757 16.4576 16.6673 16.6744 16.4502C17.1084 16.0168 17.1084 15.3134 16.6744 14.8794ZM1.77809 7.55555C1.77809 4.36978 4.37008 1.77809 7.55556 1.77809C10.741 1.77809 13.333 4.36978 13.333 7.55555C13.333 8.88096 12.88 10.1 12.1261 11.0761C11.8769 11.3984 11.5971 11.6957 11.2864 11.9592C10.2788 12.8141 8.9775 13.333 7.55556 13.333C4.36978 13.3327 1.77809 10.741 1.77809 7.55555Z" fill="black"/>
</svg>
