<svg width="126" height="38" viewBox="0 0 126 38" fill="none" xmlns="http://www.w3.org/2000/svg">
<g clip-path="url(#clip0)">
<path d="M30.0975 0.345703H30.1991C30.9383 0.395731 31.6903 0.438893 32.3924 0.697863C34.0789 1.16479 35.4832 2.34978 36.5037 3.74469C37.2127 4.77076 37.6716 5.96948 37.7937 7.2143C37.822 7.63905 37.8416 8.0638 37.8386 8.48953C37.8318 18.0989 37.8474 27.7092 37.8308 37.3186C36.9314 37.3068 36.0174 37.2019 35.1746 36.8664C33.6824 36.3426 32.4305 35.2733 31.4881 34.0177C31.2811 33.7725 31.1815 33.4076 30.9159 33.231C28.4647 35.1968 25.5311 36.6172 22.4101 37.0616C20.291 37.4128 18.1084 37.4245 15.9883 37.0773C12.2676 36.5182 8.78521 34.6681 6.12019 32.0185C3.90342 29.9056 2.1964 27.2354 1.3175 24.2877C0.609503 22.0423 0.468879 19.6547 0.621221 17.3161C0.822391 13.9877 2.04699 10.7408 4.03428 8.07459C5.77938 5.77623 7.9776 3.80845 10.5127 2.4312C12.6045 1.36393 14.8906 0.598788 17.2461 0.474207C21.3613 0.0200284 25.6669 0.91171 29.1473 3.20713C29.4559 3.41018 29.742 3.66033 30.0975 3.78C30.0907 2.63524 30.0809 1.49047 30.0975 0.345703ZM18.3457 7.74401C16.5586 7.84505 14.7998 8.44637 13.3135 9.44497C11.459 10.729 9.94437 12.5389 9.10161 14.643C8.31353 16.547 8.17486 18.6649 8.43169 20.6935C8.56646 21.1339 8.60064 21.5979 8.72466 22.0413C9.4395 24.4986 11.0498 26.6547 13.1211 28.133C14.8887 29.3572 17.0449 30.0115 19.1923 29.9566C21.1562 29.9929 23.123 29.4622 24.7958 28.4253C27.4423 26.7567 29.4344 23.9738 29.9413 20.8534C30.1092 19.7145 30.1307 18.5521 30.0057 17.4073C29.7157 14.8971 28.492 12.5193 26.6698 10.783C25.3876 9.49697 23.7812 8.5219 22.0175 8.07361C20.8261 7.7293 19.5771 7.68123 18.3457 7.74401Z" fill="#8D8D8D"/>
<path d="M83.8887 0.345703H84.208C85.0693 0.417312 85.9433 0.52914 86.7451 0.873453C87.5918 1.23346 88.4121 1.69451 89.0732 2.34487C89.7148 2.96974 90.3408 3.64071 90.7333 4.45685C91.04 4.36268 91.2577 4.11352 91.5146 3.93401C93.9218 2.12809 96.7899 0.925443 99.7743 0.545816C100.457 0.410446 101.155 0.420255 101.844 0.345703H113.446C113.406 1.12359 113.38 1.91816 113.105 2.65682C112.629 4.21162 111.549 5.52805 110.239 6.45995C109.08 7.31435 107.628 7.67436 106.208 7.71851C104.826 7.73126 103.443 7.70183 102.061 7.7342C99.412 7.78423 96.8212 8.94077 94.9686 10.8369C92.8896 12.84 91.6425 15.6985 91.6708 18.5982C91.6611 21.4743 91.6718 24.3495 91.6659 27.2256C91.6396 28.8403 91.7802 30.4981 91.2822 32.0588C90.7187 33.6459 89.621 35.0045 88.2685 35.9874C87 36.887 85.4355 37.3676 83.8818 37.3039C83.9014 24.9842 83.8867 12.6644 83.8887 0.345703Z" fill="#8D8D8D"/>
<path d="M117.718 0.345703H118.184C119.426 0.459493 120.672 0.770453 121.73 1.45614C122.988 2.28307 124.072 3.41705 124.74 4.7786C125.26 5.79879 125.436 6.95533 125.473 8.09028C125.469 9.38513 125.473 10.68 125.475 11.9748C123.289 12.1151 121.163 11.038 119.721 9.42829C118.548 8.16581 117.815 6.4933 117.739 4.76291C117.689 3.29149 117.726 1.81811 117.718 0.345703Z" fill="#8D8D8D"/>
<path d="M59.1518 0.463176C60.3793 0.389605 61.6196 0.51909 62.8471 0.399414C63.7621 0.523994 64.6869 0.595604 65.5814 0.843783C68.7406 1.55007 71.6449 3.21964 73.9866 5.44639C76.5413 7.84088 78.5237 10.9289 79.3069 14.372C79.5813 15.3638 79.679 16.3928 79.7835 17.4139C79.8469 18.9138 79.8802 20.4333 79.5979 21.9155C79.014 26.2493 76.5403 30.1731 73.2337 32.9512C71.1341 34.7336 68.6517 36.0745 65.9828 36.7563C63.6879 37.3458 61.2963 37.4233 58.9438 37.236C57.5893 37.0388 56.2348 36.7798 54.9429 36.3158C52.3745 35.4349 50.0494 33.9154 48.1128 32.0163C46.2222 30.231 44.7291 28.0239 43.7555 25.6107C42.5982 22.5826 42.3033 19.2522 42.7496 16.0504C43.1022 13.5657 43.982 11.1575 45.3551 9.05922C46.3795 7.48087 47.6334 6.04869 49.066 4.83428C51.8531 2.3564 55.437 0.774136 59.1518 0.463176ZM59.9633 7.76535C57.3725 8.01353 54.9292 9.31721 53.2222 11.2811C52.4829 12.1109 51.813 13.0183 51.3667 14.0424C50.8999 14.9439 50.6577 15.9396 50.439 16.9245C50.2662 18.2232 50.2574 19.5485 50.4527 20.8443C50.7827 22.9249 51.774 24.8819 53.1987 26.42C54.9702 28.4359 57.5307 29.768 60.2124 29.9308C62.0766 30.0446 63.9965 29.817 65.6977 29.0058C67.3246 28.2779 68.7035 27.0704 69.807 25.6784C70.223 25.0663 70.6908 24.4797 70.9798 23.7911C72.0589 21.6919 72.2845 19.2356 71.93 16.9235C71.6371 15.0665 70.808 13.3283 69.6527 11.8588C68.5502 10.5179 67.1986 9.33486 65.5932 8.65114C63.8568 7.7938 61.8705 7.6133 59.9633 7.76535Z" fill="#8D8D8D"/>
<path d="M117.724 13.0655C119.625 13.0086 121.522 13.7581 122.903 15.0667C124.228 16.2487 125.168 17.8908 125.4 19.6653C125.519 20.8719 125.468 22.0853 125.48 23.2958C125.508 24.7349 125.427 26.1759 125.497 27.614C125.429 28.8225 125.504 30.033 125.485 31.2435C125.454 32.9121 125.51 34.5816 125.461 36.2502C125.492 36.6043 125.494 36.9604 125.436 37.3126C121.4 37.4686 117.716 33.8096 117.72 29.7711C117.718 24.2032 117.709 18.6334 117.724 13.0655Z" fill="#8D8D8D"/>
</g>
<defs>
<clipPath id="clip0">
<rect width="124.999" height="37.0062" fill="white" transform="translate(0.543945 0.345703)"/>
</clipPath>
</defs>
</svg>
