<svg width="263" height="59" viewBox="0 0 263 59" fill="none" xmlns="http://www.w3.org/2000/svg">
<path d="M12.1348 14.1816C13.6741 13.8794 14.9679 14.9875 16.4191 15.2834C26.6784 18.1417 37.4318 17.1187 47.9429 17.2823C50.7351 17.3012 53.5431 17.0777 56.3259 17.3296C56.4172 17.4586 56.6029 17.7199 56.6974 17.849C56.2441 18.4062 55.5012 18.5038 54.859 18.7084C51.8778 19.5174 48.9628 20.5468 46.051 21.573C45.5693 21.7304 45.1286 21.9854 44.7099 22.2656C46.1013 22.3632 47.499 22.3726 48.8873 22.2719C50.1244 21.9697 51.4057 22.1302 52.6617 22.1302C54.8495 22.2089 57.0405 22.083 59.2252 22.2498C59.2221 22.4733 59.2189 22.9204 59.2158 23.1407C52.7026 24.976 46.2682 27.1418 40.1422 30.0316L40.2304 30.104C31.0918 34.168 23.2251 41.0369 17.9239 49.5207C17.5902 50.0999 17.181 50.6539 16.5671 50.9656C16.1642 49.0579 16.8913 47.1566 17.0613 45.2583C17.2817 43.9645 17.5587 42.6801 17.6878 41.3737C16.2429 43.146 15.0561 45.1041 13.7623 46.9834C13.608 46.9582 13.2932 46.9047 13.139 46.8764C13.1767 46.209 13.2428 45.5448 13.3593 44.8869C14.332 39.4063 15.3929 33.8879 17.5083 28.7126C17.8609 27.8154 18.3961 26.9812 18.585 26.0274C18.4213 25.1113 17.6374 24.4566 17.1715 23.679C15.1694 20.7073 13.2523 17.6034 12.1348 14.1816Z" fill="white"/>
<path d="M27.7958 0.317076C34.792 -0.18848 41.9383 1.95116 47.5124 6.20761C52.8126 10.2129 56.6744 16.0774 58.1976 22.5485C59.4566 27.7867 59.2511 33.3771 57.5257 38.4849C55.1316 45.8725 49.6325 52.2099 42.6297 55.5792C37.6166 58.0222 31.8891 58.9909 26.3541 58.2896C20.0428 57.5166 13.9925 54.6398 9.47835 50.1518C4.81419 45.6442 1.75477 39.5058 0.991542 33.064C0.061972 26.1852 1.80043 19.0161 5.64918 13.2528C10.5058 5.81295 18.9339 0.913957 27.7958 0.317076ZM7.81165 12.5809C8.96953 16.1263 10.9559 19.3423 13.0303 22.4213C13.513 23.2269 14.3252 23.9053 14.4948 24.8545C14.2991 25.8427 13.7446 26.7071 13.3793 27.6366C11.1875 32.9988 10.0883 38.7165 9.08043 44.395C8.95975 45.0767 8.89126 45.7649 8.85212 46.4563C9.01194 46.4857 9.3381 46.5411 9.49792 46.5672C10.8385 44.62 12.0681 42.5913 13.5652 40.755C13.4315 42.1086 13.1444 43.4393 12.9161 44.7799C12.74 46.7466 11.9866 48.7167 12.404 50.6932C13.0401 50.3703 13.4641 49.7963 13.8098 49.1961C19.3024 40.406 27.4533 33.2891 36.9219 29.0783L36.8305 29.0033C43.1777 26.0091 49.8445 23.7651 56.5929 21.8635C56.5961 21.6352 56.5994 21.1721 56.6026 20.9405C54.3391 20.7676 52.069 20.8981 49.8021 20.8165C48.5007 20.8165 47.1732 20.6502 45.8914 20.9633C44.453 21.0677 43.0048 21.0579 41.5632 20.9568C41.997 20.6665 42.4536 20.4023 42.9526 20.2392C45.9697 19.1759 48.99 18.1094 52.0787 17.2711C52.7441 17.0591 53.5139 16.958 53.9835 16.3807C53.8857 16.247 53.6933 15.9762 53.5987 15.8425C50.7154 15.5816 47.806 15.8132 44.9129 15.7936C34.0223 15.624 22.8805 16.684 12.2508 13.7225C10.7471 13.4159 9.40659 12.2678 7.81165 12.5809Z" fill="#8D8D8D"/>
<path d="M104.644 2.7114C111.069 2.59725 117.498 2.69184 123.926 2.66248C122.899 5.47402 121.963 8.31818 120.945 11.133C120.365 12.6888 119.383 14.2055 117.856 14.9654C116.19 15.8461 114.243 15.608 112.429 15.608C108.385 15.6243 104.34 15.5753 100.299 15.6308C96.8416 15.7384 94.0399 18.1945 92.0307 20.7972C89.0952 24.7047 87.1578 29.4178 86.7012 34.294C86.4957 36.9913 86.8382 40.1975 89.1213 41.9882C91.0229 43.4755 93.5474 43.0547 95.7881 43.1069C98.192 43.1558 100.602 42.9895 103 43.2146C104.689 43.4168 106.561 43.8343 107.68 45.2335C108.613 46.3784 108.531 47.9961 108.104 49.3301C107.377 51.5774 106.61 53.8117 105.87 56.0557C99.8 56.0002 93.73 56.1796 87.6666 55.9056C82.2229 55.511 76.6814 52.8103 73.9938 47.8885C71.2377 43.2602 71.5671 37.5915 72.5391 32.4968C74.258 24.1763 78.2437 16.1461 84.5452 10.3502C89.9824 5.37618 97.3407 2.87775 104.644 2.7114Z" fill="#8D8D8D"/>
<path d="M129.758 2.66244C136.046 2.65918 142.338 2.6657 148.627 2.65918C152.652 2.78312 156.937 2.74398 160.568 4.74663C163.05 6.08717 164.511 8.72911 165.108 11.4069C166.272 15.9863 165.369 20.7646 164.061 25.207C162.029 31.7531 158.924 37.9698 154.909 43.5211C151.83 47.8134 147.785 51.5024 142.951 53.704C138.819 55.5762 134.207 56.0067 129.719 55.9643C123.649 56.1372 117.576 56.0198 111.506 56.0524C112.383 53.4235 113.303 50.8109 114.154 48.1722C114.555 46.9426 114.996 45.6216 116.049 44.7866C117.661 43.4298 119.862 43.221 121.881 43.1134C126.118 43.0938 130.355 43.1101 134.595 43.1101C137.648 43.1167 140.407 41.3684 142.462 39.232C145.946 35.6638 147.994 30.9801 149.475 26.2833C150.196 23.7262 150.952 20.9635 150.235 18.3216C149.869 16.8213 148.483 15.7123 146.947 15.6405C144.325 15.5492 141.696 15.6471 139.07 15.6014C137.615 20.0079 136.157 24.4176 134.686 28.8176C134.018 30.8007 133.268 32.8686 131.767 34.382C130.459 35.6768 128.522 35.8367 126.78 35.8334C123.998 35.8269 121.216 35.8301 118.434 35.8269C122.194 24.7666 125.981 13.7162 129.758 2.66244Z" fill="#8D8D8D"/>
<path d="M178.911 3.15456C181.054 2.59682 183.295 2.65553 185.493 2.66206C194.329 2.6588 203.165 2.66532 212.001 2.6588C211.009 5.75736 210.096 8.88202 209.085 11.9741C208.504 13.7875 206.785 14.9617 204.972 15.3075C202.317 15.8293 199.59 15.6793 196.903 15.7119C188.716 15.5032 180.523 15.6532 172.336 15.6075C173.331 12.5612 174.211 9.48216 175.209 6.43905C175.751 4.77234 177.241 3.57206 178.911 3.15456Z" fill="#8D8D8D"/>
<path d="M218.755 2.65934C223.338 2.6626 227.921 2.6626 232.507 2.6626C229.881 10.3144 227.265 17.9695 224.626 25.6181C228.925 20.7452 233.469 16.0941 237.892 11.3321C240.651 8.47486 243.277 5.45783 246.117 2.69195C251.727 2.6202 257.344 2.68217 262.957 2.6626C254.272 10.533 245.599 18.4131 236.913 26.2835C240.534 36.1989 244.125 46.1273 247.719 56.0558C244.151 56.046 240.586 56.0558 237.021 56.0525C235.745 56.0819 234.447 55.6481 233.544 54.7316C232.268 53.4334 231.613 51.6884 231.032 50.0022C229.353 44.7346 227.696 39.4638 226.006 34.1995C223.997 35.9021 221.932 37.5525 219.982 39.317C217.93 44.8618 216.055 50.4784 214.075 56.0525C209.489 56.0493 204.903 56.0558 200.317 56.0493C206.462 38.2504 212.601 20.4516 218.755 2.65934Z" fill="#8D8D8D"/>
<path d="M170.411 24.1443C172.072 23.094 174.1 22.9831 176.008 22.8885C185.754 22.882 195.5 22.8787 205.246 22.8918C204.241 26.098 203.328 29.3368 202.219 32.5071C201.231 34.9892 198.338 35.772 195.908 35.8242C185.813 35.8405 175.715 35.821 165.62 35.834C166.553 32.8757 167.437 29.9043 168.379 26.9493C168.735 25.8305 169.391 24.7672 170.411 24.1443Z" fill="#8D8D8D"/>
<path d="M163.118 44.5261C164.766 43.3388 166.882 43.1953 168.846 43.1073C178.624 43.1073 188.406 43.104 198.188 43.1105C197.297 46.0362 196.387 48.9554 195.477 51.8746C195.141 53.0096 194.522 54.1023 193.51 54.7677C191.925 55.8081 189.968 56.0462 188.109 56.0527C178.259 56.0527 168.409 56.056 158.559 56.0527C159.446 53.1955 160.326 50.3383 161.217 47.4844C161.546 46.3428 162.117 45.2175 163.118 44.5261Z" fill="#8D8D8D"/>
</svg>
