<svg width="76" height="58" viewBox="0 0 76 58" fill="none" xmlns="http://www.w3.org/2000/svg">
<path d="M49.0835 12.3505C57.7175 8.37227 66.3539 4.39156 74.9854 0.398438C75.0723 0.860041 75.1691 1.32661 75.179 1.80062C75.1517 19.3366 75.1914 36.8726 75.1592 54.4111C74.9705 54.5947 74.7795 54.7784 74.5908 54.9645C74.5784 54.9074 74.5511 54.7908 74.5362 54.7337C74.432 53.3017 74.5958 51.8698 74.5784 50.4378C74.571 34.0955 74.5809 17.7508 74.5735 1.40851C66.4582 5.19316 58.3329 8.953 50.2176 12.7327C49.8379 12.6061 49.4582 12.4771 49.0835 12.3505Z" fill="#8D8D8D"/>
<path d="M43.4598 14.9663C45.3162 14.058 47.2122 13.2341 49.0834 12.3506C49.4582 12.4772 49.8379 12.6062 50.2176 12.7328C35.3023 19.6544 20.3945 26.5859 5.48419 33.5074C5.47922 34.6044 5.48915 35.6988 5.4693 36.7933C5.43952 37.915 5.44448 39.0392 5.46433 40.161C5.47674 41.253 5.47178 42.3449 5.48171 43.4344C25.8891 43.427 46.2964 43.4195 66.7063 43.4394C69.2799 47.1793 71.8485 50.9268 74.5039 54.6072L74.5362 54.7338C74.5511 54.7909 74.5784 54.9075 74.5908 54.9646C74.7794 54.7785 74.9705 54.5948 75.1591 54.4111C75.1268 55.384 75.1095 56.3692 75.3179 57.3272L75.3229 57.352C50.4633 57.3148 25.6062 57.3371 0.749023 57.3346C0.749023 51.6738 0.778805 46.0129 0.803622 40.3521C0.922746 35.6095 0.935155 30.8644 0.937636 26.1218C0.783768 23.0246 0.907854 19.9249 0.90289 16.8276C12.7433 16.773 24.5862 16.8202 36.4265 16.8028C37.5557 16.778 38.7048 16.922 39.8141 16.6639C40.1194 16.5249 40.4122 16.3561 40.7249 16.232C41.6878 15.9293 42.6036 15.4999 43.4598 14.9663Z" fill="#8D8D8D"/>
<path d="M10.9093 35.1846C31.277 29.0423 51.667 22.9695 72.0272 16.7949C72.8164 27.7642 73.5088 38.7385 74.2533 49.7103C74.3029 50.8171 74.4618 51.9339 74.2434 53.0333C73.8612 52.13 73.6726 51.1646 73.4368 50.219C71.8932 44.1958 70.4165 38.1553 68.853 32.1371C47.7185 34.7751 26.5914 37.4554 5.46437 40.1605C5.44452 39.0388 5.43956 37.9145 5.46934 36.7928C7.2959 36.3014 9.0902 35.7033 10.9093 35.1846Z" fill="#9F9E9E"/>
<path d="M5.46436 40.1612C26.5914 37.4561 47.7185 34.7758 68.853 32.1377C70.4165 38.1559 71.8931 44.1965 73.4368 50.2197C73.6725 51.1652 73.8612 52.1306 74.2433 53.034C74.226 53.57 74.3947 54.0862 74.5039 54.6074C71.8485 50.927 69.2799 47.1795 66.7063 43.4395C46.2965 43.4197 25.8891 43.4271 5.48173 43.4346C5.4718 42.3451 5.47676 41.2531 5.46436 40.1612Z" fill="#C4C4C4"/>
</svg>
