<svg width="105" height="95" viewBox="0 0 105 95" fill="none" xmlns="http://www.w3.org/2000/svg">
<path d="M4.42627 0.971206C7.43674 0.968233 10.4472 0.96526 13.4577 0.971206C13.4487 1.56283 13.4487 2.15742 13.4607 2.74904C12.2805 2.74012 11.1002 2.74012 9.923 2.82634C9.97093 5.97175 9.93499 9.12013 9.94397 12.2685C9.264 12.2596 8.58102 12.2596 7.90104 12.2685C7.91003 9.12013 7.87409 5.97175 7.92201 2.82634C6.75677 2.7431 5.59152 2.74012 4.42627 2.75202C4.43226 2.15742 4.43526 1.56283 4.42627 0.971206Z" fill="#8D8D8D"/>
<path d="M17.4866 0.967859C18.1726 0.973805 18.8586 0.973804 19.5475 0.964885C19.5505 2.52272 19.5655 4.08056 19.5325 5.63542C21.0722 5.77813 22.6209 5.72164 24.1696 5.7038C24.1576 4.12218 24.1546 2.54056 24.1636 0.961914C24.9544 0.964887 25.7452 0.982724 26.536 1.01245C26.5091 4.74651 26.5091 8.4865 26.536 12.2206C25.7452 12.2503 24.9544 12.2681 24.1636 12.2711C24.1546 10.6924 24.1576 9.11083 24.1696 7.52921C22.6209 7.51137 21.0722 7.45488 19.5325 7.59759C19.5655 9.15245 19.5505 10.7103 19.5475 12.2681C18.8586 12.2592 18.1726 12.2592 17.4866 12.2652C17.4836 8.4984 17.4836 4.73461 17.4866 0.967859Z" fill="#8D8D8D"/>
<path d="M30.8198 0.988276C33.2552 0.949628 35.6905 0.970439 38.1288 0.970439C38.1168 1.56206 38.1168 2.15368 38.1288 2.74531C36.4813 2.76017 34.8338 2.7453 33.1863 2.75422C33.1863 3.74422 33.1863 4.73422 33.1863 5.72422C34.6121 5.72125 36.041 5.72423 37.4668 5.7272C37.4548 6.31882 37.4548 6.91341 37.4668 7.50504C36.041 7.50801 34.6121 7.51098 33.1863 7.50801C33.1863 8.49801 33.1863 9.48801 33.1863 10.478C34.8338 10.4869 36.4813 10.4721 38.1288 10.4869C38.1168 11.0786 38.1168 11.6702 38.1288 12.2618C35.6905 12.2618 33.2552 12.2826 30.8198 12.244C30.8348 8.49206 30.8348 4.74017 30.8198 0.988276Z" fill="#8D8D8D"/>
<path d="M55.8887 86.8656C56.0385 83.6667 60.2621 81.8918 62.8323 83.6399C63.9436 84.3059 64.5936 85.4386 64.5846 86.7348C63.9885 86.7378 63.3954 86.7556 62.8023 86.7378C62.2631 86.1253 61.9366 85.3226 61.2596 84.838C60.1094 84.5616 58.4798 84.9659 58.333 86.3097C58.1263 88.034 58.0604 89.8208 58.4259 91.5302C58.8483 92.6481 60.2501 92.6392 61.2596 92.5024C61.9366 92.0148 62.2691 91.2181 62.8023 90.5997C63.3894 90.5818 63.9795 90.6027 64.5696 90.6146C64.4978 91.1259 64.4558 91.6492 64.321 92.1575C62.9191 94.8154 58.7404 95.1365 56.8563 92.8175C55.4334 91.1735 55.8617 88.8575 55.8887 86.8656Z" fill="#8D8D8D"/>
<path d="M69.0091 83.0215C69.6951 83.0245 70.3841 83.0245 71.073 83.0186C71.0611 86.161 71.1 89.3034 71.0521 92.4429C72.6547 92.6004 74.2632 92.5142 75.8688 92.538C75.8598 93.1296 75.8598 93.7212 75.8718 94.3158C73.5833 94.3218 71.2947 94.3188 69.0091 94.3158C69.0061 90.5521 69.0091 86.7853 69.0091 83.0215Z" fill="#8D8D8D"/>
<path d="M79.7722 83.0187C80.4462 83.0246 81.1202 83.0246 81.7971 83.0187C81.8031 85.4952 81.7822 87.9717 81.8001 90.4452C81.7283 91.3192 82.4891 91.8989 82.9414 92.553C83.5016 92.5381 84.0647 92.5649 84.6219 92.5025C85.1281 92.2319 85.4906 91.7443 85.7722 91.2598C85.898 88.5157 85.7812 85.7598 85.8261 83.0098C86.6199 83.0157 87.4167 83.0395 88.2105 83.09C88.1386 85.6468 88.2434 88.2065 88.1626 90.7603C87.9229 91.6552 87.6863 92.6481 86.9494 93.2843C85.1221 94.8452 82.0488 94.756 80.4222 92.9395C79.7542 92.4192 79.8231 91.5184 79.7722 90.7633C79.7662 88.1827 79.7722 85.5992 79.7722 83.0187Z" fill="#8D8D8D"/>
<path d="M92.5269 83.0426C94.2253 83.0248 95.9267 82.9891 97.6282 83.0396C98.6496 83.0426 99.5213 83.6788 100.219 84.3626C100.717 85.6945 100.462 87.285 99.1888 88.0818C100.252 88.5099 100.992 89.6069 100.857 90.7634C101.034 92.3956 99.7011 93.8583 98.1824 94.2626C96.3012 94.3934 94.411 94.2953 92.5269 94.2983C92.5418 90.5464 92.5418 86.7945 92.5269 83.0426ZM94.8933 84.7996C94.8933 85.5964 94.8933 86.3932 94.8933 87.1899C95.9118 87.1959 96.9302 87.181 97.9427 87.0829C98.0356 86.3545 98.0326 85.6172 97.9457 84.8888C96.9302 84.8056 95.9118 84.7937 94.8933 84.7996ZM94.8963 88.9677C94.8903 90.1569 94.8903 91.3461 94.8963 92.5353C96.0645 92.4253 97.6252 92.9545 98.3681 91.7564C98.6916 90.7902 98.5388 89.7021 97.772 88.9856C96.8134 88.9737 95.8549 88.9588 94.8963 88.9677Z" fill="#8D8D8D"/>
<path d="M11.6514 23.3162C14.7009 21.8565 18.1037 21.0032 21.5036 21.1786C26.0238 20.9735 30.7028 21.8743 34.579 24.2675C38.1466 26.4586 40.561 30.1421 41.6783 34.1081C42.1995 35.4519 42.2534 36.9027 42.2474 38.3267C38.8775 38.3297 35.5076 38.3297 32.1376 38.3267C31.4187 36.1862 30.9394 33.8435 29.3069 32.1578C27.3778 30.2016 24.4811 29.4108 21.7822 29.5208C18.6968 29.5208 15.6924 31.0638 13.913 33.567C12.1427 36.0138 11.5526 39.0462 11.0763 41.9567C10.9565 45.6432 10.9715 49.3416 11.0643 53.0311C11.5346 56.2181 12.3554 59.5181 14.4612 62.06C16.1057 64.1113 18.6459 65.2262 21.1951 65.6721C24.2295 65.9635 27.4377 65.7227 30.1666 64.2778C30.6968 63.9003 31.5475 63.5821 31.4876 62.8092C31.5535 60.0443 31.5086 57.2765 31.4906 54.5086C28.2674 54.4819 25.0473 54.5324 21.8241 54.4848C21.8092 51.714 21.8181 48.9402 21.8211 46.1694C28.6509 46.1427 35.4806 46.1605 42.3133 46.1605C42.3493 52.8051 42.3193 59.4497 42.3313 66.0943C42.3822 66.7811 42.1396 67.45 41.5854 67.8781C37.5715 71.6954 32.0058 73.3097 26.6259 74.047C24.3104 74.1481 21.9889 74.1154 19.6734 74.0797C14.8836 73.5743 10.1836 71.6329 6.68491 68.2973C3.13524 64.6494 1.08932 59.7767 0.280538 54.8178C-0.00702943 49.9421 -0.0130204 45.0427 0.307498 40.17C1.05937 36.1386 2.40734 32.1162 4.92655 28.8132C6.78975 26.5835 8.96747 24.5351 11.6514 23.3162Z" fill="#8D8D8D"/>
<path d="M57.0544 23.7383C60.0978 21.8356 63.7553 20.9794 67.3349 21.1786C70.9145 20.9883 74.5541 21.8772 77.6095 23.7472C80.5391 25.5518 82.6569 28.5545 83.4447 31.8783C83.7203 34.334 83.7952 36.8462 83.4177 39.2959C82.4562 42.6435 79.949 45.441 76.8936 47.0851C78.7028 48.3159 80.7218 49.3772 82.0488 51.164C83.226 52.6743 84.1876 54.3867 84.6369 56.2537C84.8945 58.4299 84.8586 60.6389 84.6519 62.8181C84.0049 65.8921 82.2195 68.7194 79.6913 70.6102C76.9415 72.7299 73.4787 73.7378 70.0608 74.0856C67.302 74.0381 64.4652 74.3978 61.7753 73.6159C57.7374 72.8043 53.8732 70.5448 51.6775 67.0129C50.638 65.2916 49.8532 63.3502 49.8832 61.3167C49.8472 58.968 49.5986 56.4708 50.671 54.2916C51.6535 52.1718 53.0554 50.1621 55.0234 48.8391C55.9101 48.2267 56.8207 47.6529 57.7374 47.094C54.6011 45.5391 52.1747 42.6405 51.2222 39.2959C50.8627 36.8432 50.9226 34.337 51.2072 31.8783C51.977 28.5397 54.1398 25.5637 57.0544 23.7383ZM65.1872 29.8418C62.6919 30.5881 61.1852 33.2429 61.32 35.7432C61.2241 37.3664 61.3859 39.0462 62.3115 40.4405C64.2526 43.9991 70.1747 44.1359 72.2505 40.6367C73.5446 38.7875 73.4637 36.4508 73.248 34.3132C72.8287 32.7108 71.96 31.0697 70.4173 30.2848C68.8507 29.3929 66.8796 29.2621 65.1872 29.8418ZM65.1692 51.7705C63.8482 52.1837 62.5332 52.817 61.6615 53.9199C59.5197 56.6462 59.5407 60.8797 61.7993 63.5345C64.5222 66.4451 69.6744 66.5521 72.58 63.8467C75.285 61.0194 75.1562 56.0783 72.3853 53.3372C70.4293 51.6813 67.6405 51.0867 65.1692 51.7705Z" fill="#8D8D8D"/>
<path d="M96.3219 63.6807C98.3199 63.1336 100.764 63.1307 102.424 64.5488C103.298 65.2623 104.11 66.1601 104.407 67.269C104.539 68.3304 104.566 69.4244 104.362 70.4769C103.478 72.6353 101.214 74.3358 98.8022 74.1277C96.8851 74.315 94.917 73.5034 93.7188 72.005C92.7093 70.7653 92.916 69.0439 92.9759 67.5574C93.0388 65.6755 94.6714 64.3109 96.3219 63.6807Z" fill="#8D8D8D"/>
</svg>
