<svg width="57" height="56" viewBox="0 0 57 56" fill="none" xmlns="http://www.w3.org/2000/svg">
<path fill-rule="evenodd" clip-rule="evenodd" d="M0.958008 27.9556L0.958008 55.6369L28.6392 55.6369L56.3205 55.6369L56.3204 27.9556L56.3204 0.274414L28.6392 0.274414L0.958008 0.274414L0.958008 27.9556ZM22.6284 15.5189C22.6284 15.5309 22.7207 15.5386 22.8657 15.5386C23.0107 15.5386 23.103 15.5463 23.103 15.5584C23.103 15.5701 23.1755 15.5782 23.2809 15.5782C23.3864 15.5782 23.4589 15.5862 23.4589 15.5979C23.4589 15.6089 23.5116 15.6177 23.5775 15.6177C23.6434 15.6177 23.6962 15.6265 23.6962 15.6375C23.6962 15.6485 23.7489 15.6573 23.8148 15.6573C23.8807 15.6573 23.9334 15.666 23.9334 15.677C23.9334 15.6879 23.9779 15.6968 24.0323 15.6968C24.0867 15.6968 24.1311 15.7057 24.1311 15.7166C24.1311 15.7275 24.1667 15.7364 24.2102 15.7364C24.2537 15.7364 24.2893 15.7453 24.2893 15.7561C24.2893 15.767 24.3249 15.7759 24.3684 15.7759C24.4119 15.7759 24.4475 15.7848 24.4475 15.7957C24.4475 15.8065 24.4742 15.8154 24.5068 15.8154C24.5394 15.8154 24.5661 15.8243 24.5661 15.8352C24.5661 15.8461 24.5928 15.855 24.6255 15.855C24.6581 15.855 24.6848 15.8639 24.6848 15.8748C24.6848 15.8856 24.7204 15.8945 24.7639 15.8945C24.8074 15.8945 24.8429 15.9034 24.8429 15.9143C24.8429 15.9252 24.8696 15.9341 24.9023 15.9341C24.9349 15.9341 24.9616 15.943 24.9616 15.9538C24.9616 15.9647 24.9883 15.9736 25.0209 15.9736C25.0535 15.9736 25.0802 15.9825 25.0802 15.9934C25.0802 16.0043 25.098 16.0132 25.1198 16.0132C25.1415 16.0132 25.1593 16.0221 25.1593 16.0329C25.1593 16.0438 25.186 16.0527 25.2186 16.0527C25.2512 16.0527 25.2779 16.0616 25.2779 16.0725C25.2779 16.0834 25.2957 16.0923 25.3175 16.0923C25.3392 16.0923 25.357 16.1012 25.357 16.112C25.357 16.1229 25.3837 16.1318 25.4163 16.1318C25.449 16.1318 25.4757 16.1407 25.4757 16.1516C25.4757 16.1624 25.4935 16.1713 25.5152 16.1713C25.537 16.1713 25.5548 16.1802 25.5548 16.1911C25.5548 16.202 25.5725 16.2109 25.5943 16.2109C25.616 16.2109 25.6338 16.2198 25.6338 16.2307C25.6338 16.2415 25.6516 16.2504 25.6734 16.2504C25.6951 16.2504 25.7129 16.2593 25.7129 16.2702C25.7129 16.2811 25.7307 16.29 25.7525 16.29C25.7742 16.29 25.792 16.2989 25.792 16.3097C25.792 16.3206 25.8098 16.3295 25.8316 16.3295C25.8533 16.3295 25.8711 16.3384 25.8711 16.3493C25.8711 16.3602 25.8889 16.3691 25.9107 16.3691C25.9324 16.3691 25.9502 16.378 25.9502 16.3888C25.9502 16.3997 25.968 16.4086 25.9897 16.4086C26.0115 16.4086 26.0293 16.4175 26.0293 16.4284C26.0293 16.4393 26.0451 16.4482 26.0645 16.4482C26.0838 16.4482 26.1125 16.4659 26.1281 16.4877C26.1438 16.5095 26.1725 16.5272 26.1918 16.5272C26.2112 16.5272 26.227 16.5361 26.227 16.547C26.227 16.5579 26.2428 16.5668 26.2622 16.5668C26.2815 16.5668 26.3102 16.5846 26.3259 16.6063C26.3415 16.6281 26.3682 16.6459 26.3852 16.6459C26.4021 16.6459 26.4288 16.6637 26.4445 16.6854C26.4602 16.7072 26.4888 16.725 26.5082 16.725C26.5275 16.725 26.5434 16.7339 26.5434 16.7447C26.5434 16.7556 26.5576 16.7645 26.575 16.7645C26.5924 16.7645 26.6315 16.7912 26.662 16.8238C26.6925 16.8565 26.7279 16.8831 26.7407 16.8831C26.7535 16.8831 26.7982 16.9187 26.8399 16.9622C26.8817 17.0057 26.9262 17.0413 26.9388 17.0413C26.9514 17.0413 26.9959 17.0769 27.0377 17.1204C27.0795 17.1639 27.1233 17.1995 27.1352 17.1995C27.163 17.1995 27.7297 17.7659 27.7297 17.7938C27.7297 17.8055 27.7742 17.8583 27.8286 17.9113C27.8829 17.9643 27.9274 18.0178 27.9274 18.0302C27.9274 18.0426 27.963 18.087 28.0065 18.1288C28.05 18.1706 28.0856 18.2169 28.0856 18.2316C28.0856 18.2464 28.1034 18.2713 28.1251 18.287C28.1469 18.3027 28.1647 18.3294 28.1647 18.3463C28.1647 18.3632 28.1825 18.3899 28.2042 18.4056C28.226 18.4213 28.2438 18.448 28.2438 18.4649C28.2438 18.4819 28.2616 18.5086 28.2833 18.5242C28.3051 18.5399 28.3229 18.5666 28.3229 18.5836C28.3229 18.6005 28.3407 18.6272 28.3624 18.6429C28.3842 18.6586 28.402 18.6853 28.402 18.7022C28.402 18.7191 28.4198 18.7458 28.4415 18.7615C28.4633 18.7772 28.4811 18.8058 28.4811 18.8252C28.4811 18.8445 28.4899 18.8604 28.5008 18.8604C28.5117 18.8604 28.5206 18.8762 28.5206 18.8956C28.5206 18.9149 28.5384 18.9436 28.5601 18.9592C28.5819 18.9749 28.5997 19.0036 28.5997 19.0229C28.5997 19.0423 28.6086 19.0581 28.6195 19.0581C28.6303 19.0581 28.6392 19.0759 28.6392 19.0976C28.6392 19.1194 28.6481 19.1372 28.659 19.1372C28.6699 19.1372 28.6788 19.155 28.6788 19.1767C28.6788 19.1985 28.6877 19.2163 28.6985 19.2163C28.7094 19.2163 28.7183 19.2341 28.7183 19.2558C28.7183 19.2776 28.7272 19.2954 28.7381 19.2954C28.749 19.2954 28.7579 19.3132 28.7579 19.3349C28.7579 19.3567 28.7668 19.3745 28.7776 19.3745C28.7885 19.3745 28.7974 19.3923 28.7974 19.414C28.7974 19.4358 28.8063 19.4535 28.8172 19.4535C28.8281 19.4535 28.837 19.4713 28.837 19.4931C28.837 19.5148 28.8459 19.5326 28.8567 19.5326C28.8676 19.5326 28.8765 19.5504 28.8765 19.5722C28.8765 19.5939 28.8854 19.6117 28.8963 19.6117C28.9071 19.6117 28.916 19.6384 28.916 19.671C28.916 19.7037 28.9249 19.7304 28.9358 19.7304C28.9467 19.7304 28.9556 19.7482 28.9556 19.7699C28.9556 19.7917 28.9645 19.8094 28.9754 19.8094C28.9862 19.8094 28.9951 19.8272 28.9951 19.849C28.9951 19.8707 29.004 19.8885 29.0149 19.8885C29.0258 19.8885 29.0347 19.9063 29.0347 19.9281C29.0347 19.9498 29.0436 19.9676 29.0544 19.9676C29.0653 19.9676 29.0742 19.9943 29.0742 20.0269C29.0742 20.0596 29.0831 20.0863 29.094 20.0863C29.1049 20.0863 29.1138 20.113 29.1138 20.1456C29.1138 20.1782 29.1227 20.2049 29.1335 20.2049C29.1444 20.2049 29.1533 20.2227 29.1533 20.2444C29.1533 20.2662 29.1622 20.284 29.1731 20.284C29.184 20.284 29.1929 20.3107 29.1929 20.3433C29.1929 20.3759 29.2017 20.4026 29.2126 20.4026C29.2235 20.4026 29.2324 20.4293 29.2324 20.4619C29.2324 20.4946 29.2413 20.5212 29.2522 20.5212C29.263 20.5212 29.2719 20.539 29.2719 20.5608C29.2719 20.5825 29.2808 20.6003 29.2917 20.6003C29.3026 20.6003 29.3115 20.6359 29.3115 20.6794C29.3115 20.7229 29.3204 20.7585 29.3313 20.7585C29.3421 20.7585 29.351 20.7852 29.351 20.8178C29.351 20.8505 29.3599 20.8772 29.3708 20.8772C29.3817 20.8772 29.3906 20.9038 29.3906 20.9365C29.3906 20.9691 29.3957 20.9958 29.4019 20.9958C29.4308 20.9958 29.4697 20.9343 29.4697 20.8884C29.4697 20.8605 29.4786 20.8376 29.4894 20.8376C29.5003 20.8376 29.5092 20.8198 29.5092 20.7981C29.5092 20.7763 29.5181 20.7585 29.529 20.7585C29.5399 20.7585 29.5488 20.7407 29.5488 20.719C29.5488 20.6972 29.5577 20.6794 29.5685 20.6794C29.5794 20.6794 29.5883 20.6616 29.5883 20.6399C29.5883 20.6181 29.5972 20.6003 29.6081 20.6003C29.6189 20.6003 29.6278 20.5825 29.6278 20.5608C29.6278 20.539 29.6367 20.5212 29.6476 20.5212C29.6585 20.5212 29.6674 20.5035 29.6674 20.4817C29.6674 20.46 29.6763 20.4422 29.6872 20.4422C29.698 20.4422 29.7069 20.4244 29.7069 20.4026C29.7069 20.3809 29.7158 20.3631 29.7267 20.3631C29.7376 20.3631 29.7465 20.3453 29.7465 20.3235C29.7465 20.3018 29.7554 20.284 29.7662 20.284C29.7771 20.284 29.786 20.2662 29.786 20.2444C29.786 20.2227 29.7949 20.2049 29.8058 20.2049C29.8167 20.2049 29.8256 20.1871 29.8256 20.1653C29.8256 20.1436 29.8345 20.1258 29.8453 20.1258C29.8562 20.1258 29.8651 20.108 29.8651 20.0863C29.8651 20.0645 29.874 20.0467 29.8849 20.0467C29.8958 20.0467 29.9047 20.0309 29.9047 20.0115C29.9047 19.9922 29.9225 19.9635 29.9442 19.9479C29.966 19.9322 29.9837 19.9035 29.9837 19.8842C29.9837 19.8648 29.9926 19.849 30.0035 19.849C30.0144 19.849 30.0233 19.8312 30.0233 19.8094C30.0233 19.7877 30.0322 19.7699 30.0431 19.7699C30.0539 19.7699 30.0628 19.7541 30.0628 19.7347C30.0628 19.7154 30.0806 19.6867 30.1024 19.671C30.1241 19.6554 30.1419 19.6287 30.1419 19.6117C30.1419 19.5948 30.1597 19.5681 30.1815 19.5524C30.2032 19.5367 30.221 19.51 30.221 19.4931C30.221 19.4761 30.2388 19.4495 30.2606 19.4338C30.2823 19.4181 30.3001 19.3894 30.3001 19.3701C30.3001 19.3507 30.309 19.3349 30.3199 19.3349C30.3307 19.3349 30.3396 19.3207 30.3396 19.3033C30.3396 19.2859 30.3663 19.2467 30.399 19.2163C30.4316 19.1858 30.4583 19.1486 30.4583 19.1336C30.4583 19.1186 30.4761 19.0936 30.4978 19.0779C30.5196 19.0622 30.5374 19.0371 30.5374 19.0221C30.5374 19.0071 30.5641 18.9699 30.5967 18.9395C30.6293 18.909 30.656 18.8734 30.656 18.8604C30.656 18.8473 30.6827 18.8118 30.7153 18.7813C30.7479 18.7508 30.7746 18.7155 30.7746 18.7029C30.7746 18.6902 30.8191 18.6365 30.8735 18.5836C30.9279 18.5306 30.9724 18.4774 30.9724 18.4653C30.9724 18.4531 31.0346 18.3818 31.1108 18.3068C31.1869 18.2317 31.2492 18.1609 31.2492 18.1493C31.2492 18.122 31.7763 17.5949 31.8037 17.5949C31.8153 17.5949 31.8772 17.5416 31.9412 17.4763C32.0052 17.4111 32.0676 17.3577 32.0798 17.3577C32.092 17.3577 32.1453 17.3132 32.1982 17.2588C32.2512 17.2044 32.3049 17.16 32.3176 17.16C32.3302 17.16 32.3655 17.1333 32.396 17.1006C32.4264 17.068 32.4636 17.0413 32.4786 17.0413C32.4936 17.0413 32.5187 17.0235 32.5344 17.0018C32.5501 16.98 32.5767 16.9622 32.5937 16.9622C32.6106 16.9622 32.6373 16.9444 32.653 16.9227C32.6687 16.9009 32.6938 16.8831 32.7088 16.8831C32.7237 16.8831 32.7609 16.8565 32.7914 16.8238C32.8219 16.7912 32.861 16.7645 32.8784 16.7645C32.8958 16.7645 32.91 16.7556 32.91 16.7447C32.91 16.7339 32.9259 16.725 32.9452 16.725C32.9646 16.725 32.9932 16.7072 33.0089 16.6854C33.0246 16.6637 33.0532 16.6459 33.0726 16.6459C33.0919 16.6459 33.1078 16.637 33.1078 16.6261C33.1078 16.6152 33.1236 16.6063 33.1429 16.6063C33.1623 16.6063 33.191 16.5885 33.2066 16.5668C33.2223 16.545 33.251 16.5272 33.2703 16.5272C33.2897 16.5272 33.3055 16.5183 33.3055 16.5075C33.3055 16.4966 33.3233 16.4877 33.345 16.4877C33.3668 16.4877 33.3846 16.4788 33.3846 16.4679C33.3846 16.4571 33.4024 16.4482 33.4241 16.4482C33.4459 16.4482 33.4637 16.4393 33.4637 16.4284C33.4637 16.4175 33.4815 16.4086 33.5032 16.4086C33.525 16.4086 33.5428 16.3997 33.5428 16.3888C33.5428 16.378 33.5606 16.3691 33.5823 16.3691C33.6041 16.3691 33.6218 16.3602 33.6218 16.3493C33.6218 16.3384 33.6396 16.3295 33.6614 16.3295C33.6831 16.3295 33.7009 16.3206 33.7009 16.3097C33.7009 16.2989 33.7187 16.29 33.7405 16.29C33.7622 16.29 33.78 16.2811 33.78 16.2702C33.78 16.2593 33.7978 16.2504 33.8196 16.2504C33.8413 16.2504 33.8591 16.2415 33.8591 16.2307C33.8591 16.2198 33.8769 16.2109 33.8987 16.2109C33.9204 16.2109 33.9382 16.202 33.9382 16.1911C33.9382 16.1802 33.9649 16.1713 33.9975 16.1713C34.0301 16.1713 34.0568 16.1624 34.0568 16.1516C34.0568 16.1407 34.0746 16.1318 34.0964 16.1318C34.1181 16.1318 34.1359 16.1229 34.1359 16.112C34.1359 16.1012 34.1626 16.0923 34.1952 16.0923C34.2279 16.0923 34.2546 16.0834 34.2546 16.0725C34.2546 16.0616 34.2724 16.0527 34.2941 16.0527C34.3159 16.0527 34.3337 16.0438 34.3337 16.0329C34.3337 16.0221 34.3603 16.0132 34.393 16.0132C34.4256 16.0132 34.4523 16.0043 34.4523 15.9934C34.4523 15.9825 34.479 15.9736 34.5116 15.9736C34.5442 15.9736 34.5709 15.9647 34.5709 15.9538C34.5709 15.943 34.5976 15.9341 34.6302 15.9341C34.6629 15.9341 34.6896 15.9252 34.6896 15.9143C34.6896 15.9034 34.7251 15.8945 34.7686 15.8945C34.8121 15.8945 34.8477 15.8856 34.8477 15.8748C34.8477 15.8639 34.8744 15.855 34.907 15.855C34.9397 15.855 34.9664 15.8461 34.9664 15.8352C34.9664 15.8243 35.002 15.8154 35.0455 15.8154C35.089 15.8154 35.1245 15.8065 35.1245 15.7957C35.1245 15.7848 35.1601 15.7759 35.2036 15.7759C35.2471 15.7759 35.2827 15.767 35.2827 15.7561C35.2827 15.7453 35.3183 15.7364 35.3618 15.7364C35.4053 15.7364 35.4409 15.7275 35.4409 15.7166C35.4409 15.7057 35.4854 15.6968 35.5398 15.6968C35.5941 15.6968 35.6386 15.6879 35.6386 15.677C35.6386 15.6662 35.6831 15.6573 35.7375 15.6573C35.7919 15.6573 35.8363 15.6484 35.8363 15.6375C35.8363 15.6262 35.8957 15.6177 35.9748 15.6177C36.0538 15.6177 36.1132 15.6092 36.1132 15.5979C36.1132 15.5862 36.1857 15.5782 36.2911 15.5782C36.3966 15.5782 36.4691 15.5701 36.4691 15.5584C36.4691 15.5462 36.5679 15.5386 36.7261 15.5386C36.8843 15.5386 36.9831 15.531 36.9831 15.5189C36.9831 15.5061 37.194 15.4991 37.5763 15.4991C37.9586 15.4991 38.1695 15.5061 38.1695 15.5189C38.1695 15.5308 38.2551 15.5386 38.387 15.5386C38.5188 15.5386 38.6045 15.5464 38.6045 15.5584C38.6045 15.5703 38.6836 15.5782 38.8022 15.5782C38.9208 15.5782 38.9999 15.5861 38.9999 15.5979C38.9999 15.6089 39.0526 15.6177 39.1185 15.6177C39.1844 15.6177 39.2372 15.6265 39.2372 15.6375C39.2372 15.6484 39.2817 15.6573 39.336 15.6573C39.3904 15.6573 39.4349 15.6662 39.4349 15.677C39.4349 15.6879 39.4794 15.6968 39.5338 15.6968C39.5881 15.6968 39.6326 15.7057 39.6326 15.7166C39.6326 15.7275 39.6771 15.7364 39.7315 15.7364C39.7859 15.7364 39.8303 15.7453 39.8303 15.7561C39.8303 15.767 39.857 15.7759 39.8897 15.7759C39.9223 15.7759 39.949 15.7848 39.949 15.7957C39.949 15.8065 39.9846 15.8154 40.0281 15.8154C40.0716 15.8154 40.1072 15.8243 40.1072 15.8352C40.1072 15.8461 40.1428 15.855 40.1863 15.855C40.2298 15.855 40.2653 15.8639 40.2653 15.8748C40.2653 15.8856 40.292 15.8945 40.3247 15.8945C40.3573 15.8945 40.384 15.9034 40.384 15.9143C40.384 15.9252 40.4107 15.9341 40.4433 15.9341C40.4759 15.9341 40.5026 15.943 40.5026 15.9538C40.5026 15.9647 40.5293 15.9736 40.5619 15.9736C40.5946 15.9736 40.6212 15.9825 40.6212 15.9934C40.6212 16.0043 40.639 16.0132 40.6608 16.0132C40.6825 16.0132 40.7003 16.0221 40.7003 16.0329C40.7003 16.0438 40.727 16.0527 40.7596 16.0527C40.7923 16.0527 40.819 16.0616 40.819 16.0725C40.819 16.0834 40.8457 16.0923 40.8783 16.0923C40.9109 16.0923 40.9376 16.1012 40.9376 16.112C40.9376 16.1229 40.9554 16.1318 40.9771 16.1318C40.9989 16.1318 41.0167 16.1407 41.0167 16.1516C41.0167 16.1624 41.0345 16.1713 41.0562 16.1713C41.078 16.1713 41.0958 16.1802 41.0958 16.1911C41.0958 16.202 41.1136 16.2109 41.1353 16.2109C41.1571 16.2109 41.1749 16.2198 41.1749 16.2307C41.1749 16.2415 41.2016 16.2504 41.2342 16.2504C41.2668 16.2504 41.2935 16.2593 41.2935 16.2702C41.2935 16.2811 41.3113 16.29 41.333 16.29C41.3548 16.29 41.3726 16.2989 41.3726 16.3097C41.3726 16.3206 41.3904 16.3295 41.4121 16.3295C41.4339 16.3295 41.4517 16.3384 41.4517 16.3493C41.4517 16.3602 41.4675 16.3691 41.4869 16.3691C41.5062 16.3691 41.5349 16.3869 41.5505 16.4086C41.5662 16.4304 41.5949 16.4482 41.6142 16.4482C41.6336 16.4482 41.6494 16.4571 41.6494 16.4679C41.6494 16.4788 41.6672 16.4877 41.6889 16.4877C41.7107 16.4877 41.7285 16.4966 41.7285 16.5075C41.7285 16.5183 41.7443 16.5272 41.7637 16.5272C41.783 16.5272 41.8117 16.545 41.8274 16.5668C41.843 16.5885 41.8717 16.6063 41.891 16.6063C41.9104 16.6063 41.9262 16.6152 41.9262 16.6261C41.9262 16.637 41.9421 16.6459 41.9614 16.6459C41.9807 16.6459 42.0094 16.6637 42.0251 16.6854C42.0408 16.7072 42.0674 16.725 42.0844 16.725C42.1013 16.725 42.128 16.7428 42.1437 16.7645C42.1594 16.7863 42.1845 16.8041 42.1995 16.8041C42.2144 16.8041 42.2516 16.8307 42.2821 16.8634C42.3126 16.896 42.3482 16.9227 42.3612 16.9227C42.3742 16.9227 42.4098 16.9494 42.4403 16.982C42.4708 17.0146 42.5061 17.0413 42.5187 17.0413C42.5314 17.0413 42.585 17.0858 42.638 17.1402C42.691 17.1946 42.7438 17.239 42.7555 17.239C42.7832 17.239 43.508 17.9639 43.508 17.9915C43.508 18.0032 43.5525 18.0561 43.6069 18.109C43.6612 18.162 43.7057 18.2157 43.7057 18.2283C43.7057 18.241 43.7324 18.2763 43.765 18.3068C43.7977 18.3372 43.8244 18.3728 43.8244 18.3858C43.8244 18.3989 43.851 18.4345 43.8837 18.4649C43.9163 18.4954 43.943 18.5346 43.943 18.5519C43.943 18.5693 43.9519 18.5836 43.9628 18.5836C43.9736 18.5836 43.9825 18.5994 43.9825 18.6187C43.9825 18.6381 44.0003 18.6667 44.0221 18.6824C44.0438 18.6981 44.0616 18.7248 44.0616 18.7417C44.0616 18.7587 44.0794 18.7854 44.1012 18.8011C44.1229 18.8167 44.1407 18.8434 44.1407 18.8604C44.1407 18.8773 44.1585 18.904 44.1803 18.9197C44.202 18.9354 44.2198 18.964 44.2198 18.9834C44.2198 19.0027 44.2287 19.0186 44.2396 19.0186C44.2505 19.0186 44.2593 19.0364 44.2593 19.0581C44.2593 19.0798 44.2682 19.0976 44.2791 19.0976C44.29 19.0976 44.2989 19.1154 44.2989 19.1372C44.2989 19.1589 44.3078 19.1767 44.3187 19.1767C44.3295 19.1767 44.3384 19.1926 44.3384 19.2119C44.3384 19.2313 44.3562 19.2599 44.378 19.2756C44.3997 19.2913 44.4175 19.3199 44.4175 19.3393C44.4175 19.3586 44.4264 19.3745 44.4373 19.3745C44.4482 19.3745 44.4571 19.3923 44.4571 19.414C44.4571 19.4358 44.466 19.4535 44.4768 19.4535C44.4877 19.4535 44.4966 19.4713 44.4966 19.4931C44.4966 19.5148 44.5055 19.5326 44.5164 19.5326C44.5273 19.5326 44.5362 19.5504 44.5362 19.5722C44.5362 19.5939 44.5451 19.6117 44.5559 19.6117C44.5668 19.6117 44.5757 19.6295 44.5757 19.6513C44.5757 19.673 44.5846 19.6908 44.5955 19.6908C44.6064 19.6908 44.6152 19.7175 44.6152 19.7501C44.6152 19.7828 44.6241 19.8094 44.635 19.8094C44.6459 19.8094 44.6548 19.8272 44.6548 19.849C44.6548 19.8707 44.6637 19.8885 44.6746 19.8885C44.6854 19.8885 44.6943 19.9063 44.6943 19.9281C44.6943 19.9498 44.7032 19.9676 44.7141 19.9676C44.725 19.9676 44.7339 19.9943 44.7339 20.0269C44.7339 20.0596 44.7428 20.0863 44.7537 20.0863C44.7645 20.0863 44.7734 20.1041 44.7734 20.1258C44.7734 20.1476 44.7823 20.1653 44.7932 20.1653C44.8041 20.1653 44.813 20.1831 44.813 20.2049C44.813 20.2266 44.8219 20.2444 44.8327 20.2444C44.8436 20.2444 44.8525 20.2711 44.8525 20.3038C44.8525 20.3364 44.8614 20.3631 44.8723 20.3631C44.8832 20.3631 44.8921 20.3898 44.8921 20.4224C44.8921 20.455 44.901 20.4817 44.9118 20.4817C44.9227 20.4817 44.9316 20.5084 44.9316 20.541C44.9316 20.5736 44.9405 20.6003 44.9514 20.6003C44.9622 20.6003 44.9711 20.6181 44.9711 20.6399C44.9711 20.6616 44.98 20.6794 44.9909 20.6794C45.0018 20.6794 45.0107 20.715 45.0107 20.7585C45.0107 20.802 45.0196 20.8376 45.0305 20.8376C45.0413 20.8376 45.0502 20.8643 45.0502 20.8969C45.0502 20.9295 45.0591 20.9562 45.07 20.9562C45.0809 20.9562 45.0898 20.9829 45.0898 21.0156C45.0898 21.0482 45.0987 21.0749 45.1096 21.0749C45.1204 21.0749 45.1293 21.1105 45.1293 21.154C45.1293 21.1975 45.1382 21.2331 45.1491 21.2331C45.16 21.2331 45.1689 21.2597 45.1689 21.2924C45.1689 21.325 45.1778 21.3517 45.1886 21.3517C45.1995 21.3517 45.2084 21.3784 45.2084 21.411C45.2084 21.4436 45.2173 21.4703 45.2282 21.4703C45.2391 21.4703 45.248 21.5148 45.248 21.5692C45.248 21.6236 45.2569 21.668 45.2677 21.668C45.2786 21.668 45.2875 21.7036 45.2875 21.7471C45.2875 21.7906 45.2964 21.8262 45.3073 21.8262C45.3182 21.8262 45.327 21.8618 45.327 21.9053C45.327 21.9488 45.3359 21.9844 45.3468 21.9844C45.3577 21.9844 45.3666 22.0289 45.3666 22.0833C45.3666 22.1376 45.3755 22.1821 45.3864 22.1821C45.3974 22.1821 45.4061 22.2349 45.4061 22.3008C45.4061 22.3667 45.4149 22.4194 45.4259 22.4194C45.4368 22.4194 45.4457 22.4639 45.4457 22.5183C45.4457 22.5726 45.4546 22.6171 45.4655 22.6171C45.4764 22.6171 45.4852 22.6698 45.4852 22.7357C45.4852 22.8016 45.494 22.8544 45.505 22.8544C45.5163 22.8544 45.5248 22.9137 45.5248 22.9928C45.5248 23.0719 45.5333 23.1312 45.5445 23.1312C45.5558 23.1312 45.5643 23.1905 45.5643 23.2696C45.5643 23.3487 45.5728 23.408 45.5841 23.408C45.5958 23.408 45.6039 23.4805 45.6039 23.586C45.6039 23.6914 45.6119 23.7639 45.6236 23.7639C45.6355 23.7639 45.6434 23.843 45.6434 23.9616C45.6434 24.0803 45.6513 24.1594 45.6632 24.1594C45.6754 24.1594 45.683 24.2648 45.683 24.4362C45.683 24.6075 45.6905 24.713 45.7027 24.713C45.7155 24.713 45.7225 24.9502 45.7225 25.3852C45.7225 25.8202 45.7295 26.0575 45.7423 26.0575C45.7554 26.0575 45.762 28.0809 45.762 32.088L45.762 38.1186L45.9004 38.1186C45.9795 38.1186 46.0389 38.1271 46.0389 38.1384C46.0389 38.1505 46.1311 38.1581 46.2761 38.1581C46.4211 38.1581 46.5134 38.1658 46.5134 38.1779C46.5134 38.19 46.6057 38.1977 46.7507 38.1977C46.8956 38.1977 46.9879 38.2054 46.9879 38.2175C46.9879 38.2294 47.0736 38.2372 47.2054 38.2372C47.3372 38.2372 47.4229 38.245 47.4229 38.257C47.4229 38.2691 47.5152 38.2768 47.6602 38.2768C47.8052 38.2768 47.8974 38.2845 47.8974 38.2965C47.8974 38.3085 47.9831 38.3163 48.1149 38.3163C48.2468 38.3163 48.3324 38.3241 48.3324 38.3361C48.3324 38.3483 48.4313 38.3559 48.5895 38.3559C48.7477 38.3559 48.8465 38.3635 48.8465 38.3756C48.8465 38.3876 48.9322 38.3954 49.064 38.3954C49.1958 38.3954 49.2815 38.4032 49.2815 38.4152C49.2815 38.4261 49.3171 38.435 49.3606 38.435L49.4397 38.435L49.4397 39.4236L49.4397 40.4122L44.3978 40.4122C41.0496 40.4122 39.3558 40.4188 39.3558 40.432C39.3558 40.4428 39.3469 40.4517 39.336 40.4517C39.3231 40.4517 39.3163 40.1024 39.3163 39.4433L39.3163 38.435L39.3954 38.435C39.4389 38.435 39.4744 38.4261 39.4744 38.4152C39.4744 38.4032 39.5601 38.3954 39.6919 38.3954C39.8238 38.3954 39.9094 38.3876 39.9094 38.3756C39.9094 38.3637 39.9951 38.3559 40.1269 38.3559C40.2588 38.3559 40.3444 38.3481 40.3444 38.3361C40.3444 38.324 40.4367 38.3163 40.5817 38.3163C40.7267 38.3163 40.819 38.3086 40.819 38.2965C40.819 38.2845 40.9112 38.2768 41.0562 38.2768C41.2012 38.2768 41.2935 38.2691 41.2935 38.257C41.2935 38.2449 41.3858 38.2372 41.5308 38.2372C41.6758 38.2372 41.768 38.2295 41.768 38.2175C41.768 38.2055 41.8537 38.1977 41.9855 38.1977C42.1174 38.1977 42.203 38.1899 42.203 38.1779C42.203 38.1658 42.2953 38.1581 42.4403 38.1581C42.5853 38.1581 42.6776 38.1505 42.6776 38.1384C42.6776 38.1268 42.7435 38.1186 42.8357 38.1186L42.9939 38.1186L42.9939 31.7321C42.9939 27.4877 42.9873 25.3457 42.9741 25.3457C42.9616 25.3457 42.9544 25.2007 42.9544 24.9502C42.9544 24.6998 42.9471 24.5548 42.9346 24.5548C42.9225 24.5548 42.9148 24.4625 42.9148 24.3175C42.9148 24.1725 42.9071 24.0803 42.8951 24.0803C42.8833 24.0803 42.8753 24.0078 42.8753 23.9023C42.8753 23.7969 42.8672 23.7244 42.8555 23.7244C42.8442 23.7244 42.8357 23.665 42.8357 23.586C42.8357 23.5069 42.8273 23.4475 42.816 23.4475C42.8047 23.4475 42.7962 23.3882 42.7962 23.3091C42.7962 23.2301 42.7877 23.1707 42.7764 23.1707C42.7654 23.1707 42.7567 23.118 42.7567 23.0521C42.7567 22.9862 42.7479 22.9335 42.7369 22.9335C42.726 22.9335 42.7171 22.889 42.7171 22.8346C42.7171 22.7802 42.7082 22.7357 42.6973 22.7357C42.6865 22.7357 42.6776 22.7002 42.6776 22.6567C42.6776 22.6132 42.6687 22.5776 42.6578 22.5776C42.6469 22.5776 42.638 22.5331 42.638 22.4787C42.638 22.4243 42.6291 22.3798 42.6182 22.3798C42.6074 22.3798 42.5985 22.3443 42.5985 22.3008C42.5985 22.2573 42.5896 22.2217 42.5787 22.2217C42.5678 22.2217 42.5589 22.1861 42.5589 22.1426C42.5589 22.0991 42.55 22.0635 42.5392 22.0635C42.5283 22.0635 42.5194 22.0368 42.5194 22.0042C42.5194 21.9715 42.5105 21.9449 42.4996 21.9449C42.4887 21.9449 42.4798 21.9093 42.4798 21.8658C42.4798 21.8223 42.4709 21.7867 42.4601 21.7867C42.4492 21.7867 42.4403 21.76 42.4403 21.7274C42.4403 21.6947 42.4314 21.668 42.4205 21.668C42.4096 21.668 42.4007 21.6413 42.4007 21.6087C42.4007 21.5761 42.3919 21.5494 42.381 21.5494C42.3701 21.5494 42.3612 21.5227 42.3612 21.4901C42.3612 21.4575 42.3523 21.4308 42.3414 21.4308C42.3306 21.4308 42.3217 21.413 42.3217 21.3912C42.3217 21.3695 42.3128 21.3517 42.3019 21.3517C42.291 21.3517 42.2821 21.325 42.2821 21.2924C42.2821 21.2597 42.2732 21.2331 42.2623 21.2331C42.2515 21.2331 42.2426 21.2064 42.2426 21.1737C42.2426 21.1411 42.2337 21.1144 42.2228 21.1144C42.2119 21.1144 42.203 21.0966 42.203 21.0749C42.203 21.0531 42.1941 21.0353 42.1833 21.0353C42.1724 21.0353 42.1635 21.0175 42.1635 20.9958C42.1635 20.974 42.1546 20.9562 42.1437 20.9562C42.1328 20.9562 42.1239 20.9384 42.1239 20.9167C42.1239 20.8949 42.115 20.8772 42.1042 20.8772C42.0933 20.8772 42.0844 20.8594 42.0844 20.8376C42.0844 20.8159 42.0755 20.7981 42.0646 20.7981C42.0537 20.7981 42.0448 20.7733 42.0448 20.7431C42.0448 20.7108 42.0285 20.6764 42.0053 20.6597C41.9835 20.6439 41.9658 20.6085 41.9658 20.5806C41.9658 20.5527 41.948 20.5172 41.9262 20.5015C41.9045 20.4858 41.8867 20.4571 41.8867 20.4378C41.8867 20.4185 41.8778 20.4026 41.8669 20.4026C41.856 20.4026 41.8471 20.3868 41.8471 20.3674C41.8471 20.3481 41.8293 20.3194 41.8076 20.3038C41.7858 20.2881 41.768 20.2614 41.768 20.2444C41.768 20.2275 41.7502 20.2008 41.7285 20.1851C41.7067 20.1694 41.6889 20.1427 41.6889 20.1258C41.6889 20.1089 41.6712 20.0822 41.6494 20.0665C41.6277 20.0508 41.6099 20.0259 41.6099 20.0111C41.6099 19.9964 41.5743 19.9501 41.5308 19.9083C41.4873 19.8665 41.4517 19.8221 41.4517 19.8097C41.4517 19.7973 41.4072 19.7438 41.3528 19.6908C41.2984 19.6378 41.254 19.5806 41.254 19.5636C41.254 19.5466 41.24 19.5326 41.2229 19.5326C41.187 19.5326 41.1353 19.4864 41.1353 19.4543C41.1353 19.4261 41.0049 19.2954 40.9767 19.2954C40.9649 19.2954 40.9028 19.242 40.8387 19.1767C40.7747 19.1115 40.712 19.0581 40.6995 19.0581C40.6869 19.0581 40.6517 19.0314 40.6212 18.9988C40.5908 18.9662 40.5552 18.9395 40.5422 18.9395C40.5291 18.9395 40.4935 18.9128 40.4631 18.8801C40.4326 18.8475 40.3954 18.8208 40.3804 18.8208C40.3654 18.8208 40.3403 18.803 40.3247 18.7813C40.309 18.7595 40.2823 18.7417 40.2653 18.7417C40.2484 18.7417 40.2217 18.7239 40.206 18.7022C40.1903 18.6804 40.1617 18.6627 40.1423 18.6627C40.123 18.6627 40.1072 18.6538 40.1072 18.6429C40.1072 18.632 40.0894 18.6231 40.0676 18.6231C40.0459 18.6231 40.0281 18.6142 40.0281 18.6033C40.0281 18.5925 40.0103 18.5836 39.9885 18.5836C39.9668 18.5836 39.949 18.5747 39.949 18.5638C39.949 18.5529 39.9312 18.544 39.9094 18.544C39.8877 18.544 39.8699 18.5351 39.8699 18.5242C39.8699 18.5134 39.8521 18.5045 39.8303 18.5045C39.8086 18.5045 39.7908 18.4956 39.7908 18.4847C39.7908 18.4738 39.773 18.4649 39.7513 18.4649C39.7295 18.4649 39.7117 18.456 39.7117 18.4452C39.7117 18.4343 39.6939 18.4254 39.6722 18.4254C39.6504 18.4254 39.6326 18.4165 39.6326 18.4056C39.6326 18.3947 39.6148 18.3858 39.5931 18.3858C39.5713 18.3858 39.5535 18.3769 39.5535 18.3661C39.5535 18.3552 39.5357 18.3463 39.514 18.3463C39.4922 18.3463 39.4744 18.3374 39.4744 18.3265C39.4744 18.3156 39.4478 18.3068 39.4151 18.3068C39.3825 18.3068 39.3558 18.2979 39.3558 18.287C39.3558 18.2761 39.3291 18.2672 39.2965 18.2672C39.2639 18.2672 39.2372 18.2583 39.2372 18.2474C39.2372 18.2366 39.2194 18.2277 39.1976 18.2277C39.1759 18.2277 39.1581 18.2188 39.1581 18.2079C39.1581 18.197 39.1225 18.1881 39.079 18.1881C39.0355 18.1881 38.9999 18.1792 38.9999 18.1683C38.9999 18.1575 38.9821 18.1486 38.9604 18.1486C38.9386 18.1486 38.9208 18.1397 38.9208 18.1288C38.9208 18.1179 38.8852 18.109 38.8417 18.109C38.7982 18.109 38.7626 18.1001 38.7626 18.0893C38.7626 18.0784 38.7271 18.0695 38.6836 18.0695C38.6401 18.0695 38.6045 18.0606 38.6045 18.0497C38.6045 18.0388 38.56 18.0299 38.5056 18.0299C38.4512 18.0299 38.4067 18.021 38.4067 18.0102C38.4067 17.9992 38.354 17.9904 38.2881 17.9904C38.2222 17.9904 38.1695 17.9816 38.1695 17.9706C38.1695 17.9596 38.1167 17.9509 38.0508 17.9509C37.9849 17.9509 37.9322 17.9421 37.9322 17.9311C37.9322 17.9191 37.8465 17.9113 37.7147 17.9113C37.5829 17.9113 37.4972 17.9035 37.4972 17.8915C37.4972 17.8788 37.2995 17.8718 36.9436 17.8718C36.5877 17.8718 36.39 17.8788 36.39 17.8915C36.39 17.9036 36.2977 17.9113 36.1527 17.9113C36.0077 17.9113 35.9154 17.919 35.9154 17.9311C35.9154 17.9421 35.8627 17.9509 35.7968 17.9509C35.7309 17.9509 35.6782 17.9596 35.6782 17.9706C35.6782 17.9819 35.6189 17.9904 35.5398 17.9904C35.4607 17.9904 35.4014 17.9989 35.4014 18.0102C35.4014 18.021 35.3569 18.0299 35.3025 18.0299C35.2481 18.0299 35.2036 18.0388 35.2036 18.0497C35.2036 18.0606 35.168 18.0695 35.1245 18.0695C35.081 18.0695 35.0455 18.0784 35.0455 18.0893C35.0455 18.1001 35.0099 18.109 34.9664 18.109C34.9229 18.109 34.8873 18.1179 34.8873 18.1288C34.8873 18.1397 34.8517 18.1486 34.8082 18.1486C34.7647 18.1486 34.7291 18.1575 34.7291 18.1683C34.7291 18.1792 34.7024 18.1881 34.6698 18.1881C34.6372 18.1881 34.6105 18.197 34.6105 18.2079C34.6105 18.2188 34.5838 18.2277 34.5511 18.2277C34.5185 18.2277 34.4918 18.2366 34.4918 18.2474C34.4918 18.2583 34.474 18.2672 34.4523 18.2672C34.4305 18.2672 34.4127 18.2761 34.4127 18.287C34.4127 18.2979 34.386 18.3068 34.3534 18.3068C34.3208 18.3068 34.2941 18.3156 34.2941 18.3265C34.2941 18.3374 34.2674 18.3463 34.2348 18.3463C34.2022 18.3463 34.1755 18.3552 34.1755 18.3661C34.1755 18.3769 34.1577 18.3858 34.1359 18.3858C34.1142 18.3858 34.0964 18.3947 34.0964 18.4056C34.0964 18.4165 34.0786 18.4254 34.0568 18.4254C34.0351 18.4254 34.0173 18.4343 34.0173 18.4452C34.0173 18.456 33.9995 18.4649 33.9777 18.4649C33.956 18.4649 33.9382 18.4738 33.9382 18.4847C33.9382 18.4956 33.9204 18.5045 33.8987 18.5045C33.8769 18.5045 33.8591 18.5134 33.8591 18.5242C33.8591 18.5351 33.8413 18.544 33.8196 18.544C33.7978 18.544 33.78 18.5529 33.78 18.5638C33.78 18.5747 33.7622 18.5836 33.7405 18.5836C33.7187 18.5836 33.7009 18.5925 33.7009 18.6033C33.7009 18.6142 33.6831 18.6231 33.6614 18.6231C33.6396 18.6231 33.6218 18.632 33.6218 18.6429C33.6218 18.6538 33.6041 18.6627 33.5823 18.6627C33.5606 18.6627 33.5428 18.6716 33.5428 18.6824C33.5428 18.6933 33.525 18.7022 33.5032 18.7022C33.4815 18.7022 33.4637 18.7111 33.4637 18.722C33.4637 18.7328 33.4478 18.7417 33.4285 18.7417C33.4091 18.7417 33.3805 18.7595 33.3648 18.7813C33.3491 18.803 33.3224 18.8208 33.3055 18.8208C33.2885 18.8208 33.2619 18.8386 33.2462 18.8604C33.2305 18.8821 33.2054 18.8999 33.1904 18.8999C33.1754 18.8999 33.1382 18.9266 33.1078 18.9592C33.0773 18.9919 33.0401 19.0186 33.0251 19.0186C33.0101 19.0186 32.985 19.0364 32.9694 19.0581C32.9537 19.0798 32.929 19.0976 32.9145 19.0976C32.9 19.0976 32.8357 19.151 32.7716 19.2163C32.7076 19.2815 32.6457 19.3349 32.6341 19.3349C32.6065 19.3349 32.1587 19.7829 32.1587 19.8105C32.1587 19.8222 32.1142 19.8751 32.0598 19.9281C32.0055 19.9811 31.961 20.0347 31.961 20.0474C31.961 20.06 31.9343 20.0953 31.9017 20.1258C31.869 20.1563 31.8423 20.1919 31.8423 20.2049C31.8423 20.2179 31.8156 20.2535 31.783 20.284C31.7504 20.3145 31.7237 20.35 31.7237 20.3631C31.7237 20.3761 31.697 20.4117 31.6644 20.4422C31.6318 20.4726 31.6051 20.5098 31.6051 20.5248C31.6051 20.5398 31.5873 20.5649 31.5655 20.5806C31.5438 20.5962 31.526 20.6229 31.526 20.6399C31.526 20.6568 31.5082 20.6835 31.4864 20.6992C31.4647 20.7149 31.4469 20.7416 31.4469 20.7585C31.4469 20.7755 31.4291 20.8022 31.4074 20.8178C31.3856 20.8335 31.3678 20.8622 31.3678 20.8815C31.3678 20.9009 31.3589 20.9167 31.348 20.9167C31.3372 20.9167 31.3283 20.9325 31.3283 20.9519C31.3283 20.9712 31.3105 20.9999 31.2887 21.0156C31.267 21.0312 31.2492 21.0599 31.2492 21.0792C31.2492 21.0986 31.2403 21.1144 31.2294 21.1144C31.2185 21.1144 31.2096 21.1322 31.2096 21.154C31.2096 21.1757 31.2007 21.1935 31.1899 21.1935C31.179 21.1935 31.1701 21.2113 31.1701 21.2331C31.1701 21.2548 31.1612 21.2726 31.1503 21.2726C31.1394 21.2726 31.1305 21.2884 31.1305 21.3078C31.1305 21.3271 31.1127 21.3558 31.091 21.3715C31.0692 21.3871 31.0514 21.4158 31.0514 21.4351C31.0514 21.4545 31.0426 21.4703 31.0317 21.4703C31.0208 21.4703 31.0119 21.4881 31.0119 21.5099C31.0119 21.5316 31.003 21.5494 30.9921 21.5494C30.9813 21.5494 30.9724 21.5672 30.9724 21.589C30.9724 21.6107 30.9635 21.6285 30.9526 21.6285C30.9417 21.6285 30.9328 21.6463 30.9328 21.668C30.9328 21.6898 30.9239 21.7076 30.913 21.7076C30.9022 21.7076 30.8933 21.7343 30.8933 21.7669C30.8933 21.7995 30.8844 21.8262 30.8735 21.8262C30.8626 21.8262 30.8537 21.844 30.8537 21.8658C30.8537 21.8875 30.8448 21.9053 30.834 21.9053C30.8231 21.9053 30.8142 21.9231 30.8142 21.9449C30.8142 21.9666 30.8053 21.9844 30.7944 21.9844C30.7835 21.9844 30.7746 22.0022 30.7746 22.0239C30.7746 22.0457 30.7657 22.0635 30.7549 22.0635C30.744 22.0635 30.7351 22.0902 30.7351 22.1228C30.7351 22.1554 30.7262 22.1821 30.7153 22.1821C30.7044 22.1821 30.6955 22.1999 30.6955 22.2217C30.6955 22.2434 30.6866 22.2612 30.6758 22.2612C30.6649 22.2612 30.656 22.2879 30.656 22.3205C30.656 22.3532 30.6471 22.3798 30.6362 22.3798C30.6254 22.3798 30.6165 22.4065 30.6165 22.4392C30.6165 22.4718 30.6076 22.4985 30.5967 22.4985C30.5858 22.4985 30.5769 22.5163 30.5769 22.538C30.5769 22.5598 30.568 22.5776 30.5571 22.5776C30.5463 22.5776 30.5374 22.6043 30.5374 22.6369C30.5374 22.6695 30.5285 22.6962 30.5176 22.6962C30.5067 22.6962 30.4978 22.7229 30.4978 22.7555C30.4978 22.7881 30.4889 22.8148 30.4781 22.8148C30.4672 22.8148 30.4583 22.8415 30.4583 22.8742C30.4583 22.9068 30.4494 22.9335 30.4385 22.9335C30.4276 22.9335 30.4187 22.9602 30.4187 22.9928C30.4187 23.0254 30.4098 23.0521 30.399 23.0521C30.3881 23.0521 30.3792 23.0877 30.3792 23.1312C30.3792 23.1747 30.3703 23.2103 30.3594 23.2103C30.3485 23.2103 30.3396 23.237 30.3396 23.2696C30.3396 23.3022 30.3307 23.3289 30.3199 23.3289C30.309 23.3289 30.3001 23.3645 30.3001 23.408C30.3001 23.4515 30.2912 23.4871 30.2803 23.4871C30.2695 23.4871 30.2606 23.5227 30.2606 23.5662C30.2606 23.6097 30.2517 23.6453 30.2408 23.6453C30.2299 23.6453 30.221 23.6809 30.221 23.7244C30.221 23.7679 30.2121 23.8035 30.2012 23.8035C30.1904 23.8035 30.1815 23.839 30.1815 23.8825C30.1815 23.926 30.1726 23.9616 30.1617 23.9616C30.1507 23.9616 30.1419 24.0144 30.1419 24.0803C30.1419 24.1462 30.1331 24.1989 30.1222 24.1989C30.1113 24.1989 30.1024 24.2434 30.1024 24.2978C30.1024 24.3521 30.0935 24.3966 30.0826 24.3966C30.0717 24.3966 30.0628 24.4411 30.0628 24.4955C30.0628 24.5499 30.0539 24.5943 30.0431 24.5943C30.0318 24.5943 30.0233 24.6537 30.0233 24.7327C30.0233 24.8118 30.0148 24.8712 30.0035 24.8712C29.9912 24.8712 29.9837 24.9898 29.9837 25.1875C29.9837 25.3852 29.9912 25.5039 30.0035 25.5039C30.0167 25.5039 30.0233 27.6167 30.0233 31.8028C30.0233 37.2354 30.0272 38.1055 30.0515 38.1299C30.073 38.1514 30.1393 38.1581 30.3284 38.1581C30.4809 38.1581 30.5769 38.1658 30.5769 38.1779C30.5769 38.19 30.6692 38.1977 30.8142 38.1977C30.9592 38.1977 31.0514 38.2054 31.0514 38.2175C31.0514 38.2295 31.1437 38.2372 31.2887 38.2372C31.4337 38.2372 31.526 38.2449 31.526 38.257C31.526 38.2692 31.6314 38.2768 31.8028 38.2768C31.9742 38.2768 32.0796 38.2843 32.0796 38.2965C32.0796 38.3085 32.1653 38.3163 32.2971 38.3163C32.4289 38.3163 32.5146 38.3241 32.5146 38.3361C32.5146 38.3483 32.6135 38.3559 32.7716 38.3559C32.9298 38.3559 33.0287 38.3635 33.0287 38.3756C33.0287 38.3878 33.1275 38.3954 33.2857 38.3954C33.4439 38.3954 33.5428 38.403 33.5428 38.4152C33.5428 38.4261 33.5784 38.435 33.6218 38.435L33.7009 38.435L33.7009 39.4151C33.7009 40.2848 33.6974 40.3988 33.6695 40.4267C33.6427 40.4534 33.6353 40.4539 33.62 40.4302C33.6047 40.4064 33.599 40.4066 33.5808 40.432C33.5648 40.4543 33.557 40.4555 33.5495 40.4369C33.5348 40.4007 23.6638 40.4005 23.6517 40.4367C23.6458 40.4546 23.6345 40.4523 23.6105 40.4282C23.5806 40.3983 23.5775 40.3042 23.5775 39.4151L23.5775 38.435L23.6566 38.435C23.7001 38.435 23.7357 38.4261 23.7357 38.4152C23.7357 38.403 23.8346 38.3954 23.9927 38.3954C24.1509 38.3954 24.2498 38.3878 24.2498 38.3756C24.2498 38.3635 24.3486 38.3559 24.5068 38.3559C24.665 38.3559 24.7639 38.3483 24.7639 38.3361C24.7639 38.3241 24.8495 38.3163 24.9814 38.3163C25.1132 38.3163 25.1988 38.3085 25.1988 38.2965C25.1988 38.2843 25.3043 38.2768 25.4757 38.2768C25.647 38.2768 25.7525 38.2692 25.7525 38.257C25.7525 38.2449 25.8447 38.2372 25.9897 38.2372C26.1347 38.2372 26.227 38.2295 26.227 38.2175C26.227 38.2054 26.3193 38.1977 26.4643 38.1977C26.6093 38.1977 26.7015 38.19 26.7015 38.1779C26.7015 38.1658 26.8004 38.1581 26.9586 38.1581C27.1168 38.1581 27.2156 38.1505 27.2156 38.1384C27.2156 38.1275 27.2334 38.1186 27.2552 38.1186C27.2946 38.1186 27.2947 38.1054 27.2947 31.9694C27.2947 27.8831 27.2881 25.8202 27.2749 25.8202C27.2623 25.8202 27.2552 25.6357 27.2552 25.3061C27.2552 24.9766 27.2481 24.7921 27.2354 24.7921C27.2232 24.7921 27.2156 24.6932 27.2156 24.535C27.2156 24.3768 27.208 24.278 27.1959 24.278C27.184 24.278 27.1761 24.1989 27.1761 24.0803C27.1761 23.9616 27.1682 23.8825 27.1563 23.8825C27.145 23.8825 27.1365 23.8232 27.1365 23.7441C27.1365 23.665 27.1281 23.6057 27.1168 23.6057C27.1055 23.6057 27.097 23.5464 27.097 23.4673C27.097 23.3882 27.0885 23.3289 27.0772 23.3289C27.0662 23.3289 27.0574 23.2762 27.0574 23.2103C27.0574 23.1444 27.0487 23.0916 27.0377 23.0916C27.0268 23.0916 27.0179 23.0472 27.0179 22.9928C27.0179 22.9384 27.009 22.8939 26.9981 22.8939C26.9873 22.8939 26.9784 22.8494 26.9784 22.7951C26.9784 22.7407 26.9695 22.6962 26.9586 22.6962C26.9477 22.6962 26.9388 22.6517 26.9388 22.5973C26.9388 22.543 26.9299 22.4985 26.919 22.4985C26.9082 22.4985 26.8993 22.4629 26.8993 22.4194C26.8993 22.3759 26.8904 22.3403 26.8795 22.3403C26.8686 22.3403 26.8597 22.3047 26.8597 22.2612C26.8597 22.2177 26.8508 22.1821 26.8399 22.1821C26.8291 22.1821 26.8202 22.1554 26.8202 22.1228C26.8202 22.0902 26.8113 22.0635 26.8004 22.0635C26.7895 22.0635 26.7806 22.0279 26.7806 21.9844C26.7806 21.9409 26.7717 21.9053 26.7609 21.9053C26.75 21.9053 26.7411 21.8786 26.7411 21.846C26.7411 21.8134 26.7322 21.7867 26.7213 21.7867C26.7104 21.7867 26.7015 21.76 26.7015 21.7274C26.7015 21.6947 26.6926 21.668 26.6818 21.668C26.6709 21.668 26.662 21.6413 26.662 21.6087C26.662 21.5761 26.6531 21.5494 26.6422 21.5494C26.6314 21.5494 26.6225 21.5227 26.6225 21.4901C26.6225 21.4575 26.6136 21.4308 26.6027 21.4308C26.5918 21.4308 26.5829 21.413 26.5829 21.3912C26.5829 21.3695 26.574 21.3517 26.5631 21.3517C26.5523 21.3517 26.5434 21.325 26.5434 21.2924C26.5434 21.2597 26.5345 21.2331 26.5236 21.2331C26.5127 21.2331 26.5038 21.2153 26.5038 21.1935C26.5038 21.1718 26.4949 21.154 26.484 21.154C26.4732 21.154 26.4643 21.1362 26.4643 21.1144C26.4643 21.0927 26.4554 21.0749 26.4445 21.0749C26.4336 21.0749 26.4247 21.0482 26.4247 21.0156C26.4247 20.9829 26.4158 20.9562 26.405 20.9562C26.3941 20.9562 26.3852 20.9384 26.3852 20.9167C26.3852 20.8949 26.3763 20.8772 26.3654 20.8772C26.3545 20.8772 26.3456 20.8594 26.3456 20.8376C26.3456 20.8159 26.3367 20.7981 26.3259 20.7981C26.315 20.7981 26.3061 20.7803 26.3061 20.7585C26.3061 20.7368 26.2972 20.719 26.2863 20.719C26.2754 20.719 26.2666 20.7031 26.2666 20.6838C26.2666 20.6644 26.2488 20.6358 26.227 20.6201C26.2053 20.6044 26.1875 20.5758 26.1875 20.5564C26.1875 20.5371 26.1786 20.5212 26.1677 20.5212C26.1568 20.5212 26.1479 20.5035 26.1479 20.4817C26.1479 20.46 26.139 20.4422 26.1281 20.4422C26.1173 20.4422 26.1084 20.4263 26.1084 20.407C26.1084 20.3876 26.0906 20.359 26.0688 20.3433C26.0471 20.3276 26.0293 20.3009 26.0293 20.284C26.0293 20.267 26.0115 20.2403 25.9897 20.2247C25.968 20.209 25.9502 20.1823 25.9502 20.1653C25.9502 20.1484 25.9324 20.1217 25.9107 20.106C25.8889 20.0904 25.8711 20.0655 25.8711 20.0507C25.8711 20.0359 25.8355 19.9897 25.792 19.9479C25.7485 19.9061 25.7129 19.8618 25.7129 19.8494C25.7129 19.8371 25.6595 19.7746 25.5943 19.7106C25.529 19.6465 25.4757 19.5803 25.4757 19.5634C25.4757 19.5465 25.4617 19.5326 25.4446 19.5326C25.4086 19.5326 25.357 19.4863 25.357 19.4541C25.357 19.4256 25.2666 19.3349 25.2383 19.3349C25.2265 19.3349 25.1553 19.2726 25.0802 19.1965C25.0051 19.1204 24.9335 19.0581 24.921 19.0581C24.9086 19.0581 24.8734 19.0314 24.8429 18.9988C24.8125 18.9662 24.7769 18.9395 24.7639 18.9395C24.7508 18.9395 24.7152 18.9128 24.6848 18.8801C24.6543 18.8475 24.6171 18.8208 24.6021 18.8208C24.5871 18.8208 24.562 18.803 24.5464 18.7813C24.5307 18.7595 24.502 18.7417 24.4827 18.7417C24.4633 18.7417 24.4475 18.7328 24.4475 18.722C24.4475 18.7111 24.4317 18.7022 24.4123 18.7022C24.393 18.7022 24.3643 18.6844 24.3486 18.6627C24.333 18.6409 24.3043 18.6231 24.285 18.6231C24.2656 18.6231 24.2498 18.6142 24.2498 18.6033C24.2498 18.5925 24.232 18.5836 24.2102 18.5836C24.1885 18.5836 24.1707 18.5747 24.1707 18.5638C24.1707 18.5529 24.1549 18.544 24.1355 18.544C24.1162 18.544 24.0875 18.5262 24.0718 18.5045C24.0561 18.4827 24.0275 18.4649 24.0081 18.4649C23.9888 18.4649 23.973 18.456 23.973 18.4452C23.973 18.4343 23.9463 18.4254 23.9136 18.4254C23.881 18.4254 23.8543 18.4165 23.8543 18.4056C23.8543 18.3947 23.8365 18.3858 23.8148 18.3858C23.793 18.3858 23.7752 18.3769 23.7752 18.3661C23.7752 18.3552 23.7574 18.3463 23.7357 18.3463C23.7139 18.3463 23.6962 18.3374 23.6962 18.3265C23.6962 18.3156 23.6695 18.3068 23.6368 18.3068C23.6042 18.3068 23.5775 18.2979 23.5775 18.287C23.5775 18.2761 23.5597 18.2672 23.538 18.2672C23.5162 18.2672 23.4984 18.2583 23.4984 18.2474C23.4984 18.2366 23.4717 18.2277 23.4391 18.2277C23.4065 18.2277 23.3798 18.2188 23.3798 18.2079C23.3798 18.197 23.3531 18.1881 23.3205 18.1881C23.2879 18.1881 23.2612 18.1792 23.2612 18.1683C23.2612 18.1575 23.2345 18.1486 23.2018 18.1486C23.1692 18.1486 23.1425 18.1397 23.1425 18.1288C23.1425 18.1179 23.1069 18.109 23.0634 18.109C23.0199 18.109 22.9844 18.1001 22.9844 18.0893C22.9844 18.0784 22.9488 18.0695 22.9053 18.0695C22.8618 18.0695 22.8262 18.0606 22.8262 18.0497C22.8262 18.0388 22.7906 18.0299 22.7471 18.0299C22.7036 18.0299 22.668 18.021 22.668 18.0102C22.668 17.9992 22.6153 17.9904 22.5494 17.9904C22.4835 17.9904 22.4307 17.9816 22.4307 17.9706C22.4307 17.9596 22.378 17.9509 22.3121 17.9509C22.2462 17.9509 22.1935 17.9421 22.1935 17.9311C22.1935 17.919 22.1012 17.9113 21.9562 17.9113C21.8112 17.9113 21.7189 17.9036 21.7189 17.8915C21.7189 17.8788 21.5278 17.8718 21.1851 17.8718C20.8424 17.8718 20.6512 17.8788 20.6512 17.8915C20.6512 17.9038 20.5458 17.9113 20.3744 17.9113C20.203 17.9113 20.0976 17.9188 20.0976 17.9311C20.0976 17.9424 20.0383 17.9509 19.9592 17.9509C19.8801 17.9509 19.8208 17.9593 19.8208 17.9706C19.8208 17.9816 19.768 17.9904 19.7021 17.9904C19.6362 17.9904 19.5835 17.9992 19.5835 18.0102C19.5835 18.021 19.539 18.0299 19.4847 18.0299C19.4303 18.0299 19.3858 18.0388 19.3858 18.0497C19.3858 18.0606 19.3413 18.0695 19.2869 18.0695C19.2326 18.0695 19.1881 18.0784 19.1881 18.0893C19.1881 18.1001 19.1436 18.109 19.0892 18.109C19.0348 18.109 18.9903 18.1179 18.9903 18.1288C18.9903 18.1397 18.9637 18.1486 18.931 18.1486C18.8984 18.1486 18.8717 18.1575 18.8717 18.1683C18.8717 18.1792 18.845 18.1881 18.8124 18.1881C18.7798 18.1881 18.7531 18.197 18.7531 18.2079C18.7531 18.2188 18.7175 18.2277 18.674 18.2277C18.6305 18.2277 18.5949 18.2366 18.5949 18.2474C18.5949 18.2583 18.5682 18.2672 18.5356 18.2672C18.503 18.2672 18.4763 18.2761 18.4763 18.287C18.4763 18.2979 18.4496 18.3068 18.4169 18.3068C18.3843 18.3068 18.3576 18.3156 18.3576 18.3265C18.3576 18.3374 18.3398 18.3463 18.3181 18.3463C18.2963 18.3463 18.2785 18.3552 18.2785 18.3661C18.2785 18.3769 18.2607 18.3858 18.239 18.3858C18.2172 18.3858 18.1995 18.3947 18.1995 18.4056C18.1995 18.4165 18.1728 18.4254 18.1401 18.4254C18.1075 18.4254 18.0808 18.4343 18.0808 18.4452C18.0808 18.456 18.063 18.4649 18.0413 18.4649C18.0195 18.4649 18.0017 18.4738 18.0017 18.4847C18.0017 18.4956 17.975 18.5045 17.9424 18.5045C17.9098 18.5045 17.8831 18.5134 17.8831 18.5242C17.8831 18.5351 17.8653 18.544 17.8436 18.544C17.8218 18.544 17.804 18.5529 17.804 18.5638C17.804 18.5747 17.7882 18.5836 17.7688 18.5836C17.7495 18.5836 17.7208 18.6014 17.7051 18.6231C17.6895 18.6449 17.6608 18.6627 17.6415 18.6627C17.6221 18.6627 17.6063 18.6716 17.6063 18.6824C17.6063 18.6933 17.5885 18.7022 17.5667 18.7022C17.545 18.7022 17.5272 18.7111 17.5272 18.722C17.5272 18.7328 17.5094 18.7417 17.4877 18.7417C17.4659 18.7417 17.4481 18.7506 17.4481 18.7615C17.4481 18.7724 17.4323 18.7813 17.4129 18.7813C17.3936 18.7813 17.3649 18.7991 17.3492 18.8208C17.3336 18.8426 17.3069 18.8604 17.2899 18.8604C17.273 18.8604 17.2463 18.8782 17.2306 18.8999C17.2149 18.9217 17.1882 18.9395 17.1713 18.9395C17.1544 18.9395 17.1277 18.9573 17.112 18.979C17.0963 19.0008 17.0712 19.0186 17.0562 19.0186C17.0413 19.0186 17.004 19.0452 16.9736 19.0779C16.9431 19.1105 16.9078 19.1372 16.8952 19.1372C16.8825 19.1372 16.8288 19.1817 16.7758 19.236C16.7229 19.2904 16.67 19.3349 16.6584 19.3349C16.6305 19.3349 15.9059 20.0598 15.9059 20.0877C15.9059 20.0995 15.8703 20.1433 15.8268 20.1851C15.7833 20.2269 15.7477 20.2716 15.7477 20.2844C15.7477 20.2972 15.721 20.3326 15.6884 20.3631C15.6557 20.3935 15.6291 20.4291 15.6291 20.4422C15.6291 20.4552 15.6024 20.4908 15.5697 20.5212C15.5371 20.5517 15.5104 20.5889 15.5104 20.6039C15.5104 20.6189 15.4926 20.644 15.4709 20.6597C15.4491 20.6753 15.4313 20.702 15.4313 20.719C15.4313 20.7359 15.4135 20.7626 15.3918 20.7783C15.37 20.794 15.3522 20.8207 15.3522 20.8376C15.3522 20.8546 15.3344 20.8812 15.3127 20.8969C15.2909 20.9126 15.2732 20.9393 15.2732 20.9562C15.2732 20.9732 15.2554 20.9999 15.2336 21.0156C15.2119 21.0312 15.1941 21.0599 15.1941 21.0792C15.1941 21.0986 15.1852 21.1144 15.1743 21.1144C15.1634 21.1144 15.1545 21.1322 15.1545 21.154C15.1545 21.1757 15.1456 21.1935 15.1347 21.1935C15.1239 21.1935 15.115 21.2093 15.115 21.2287C15.115 21.248 15.0972 21.2767 15.0754 21.2924C15.0537 21.308 15.0359 21.3367 15.0359 21.3561C15.0359 21.3754 15.027 21.3912 15.0161 21.3912C15.0052 21.3912 14.9963 21.409 14.9963 21.4308C14.9963 21.4525 14.9874 21.4703 14.9766 21.4703C14.9657 21.4703 14.9568 21.4881 14.9568 21.5099C14.9568 21.5316 14.9479 21.5494 14.937 21.5494C14.9261 21.5494 14.9173 21.5672 14.9173 21.589C14.9173 21.6107 14.9084 21.6285 14.8975 21.6285C14.8866 21.6285 14.8777 21.6463 14.8777 21.668C14.8777 21.6898 14.8688 21.7076 14.8579 21.7076C14.8471 21.7076 14.8382 21.7254 14.8382 21.7471C14.8382 21.7689 14.8293 21.7867 14.8184 21.7867C14.8075 21.7867 14.7986 21.8134 14.7986 21.846C14.7986 21.8786 14.7897 21.9053 14.7788 21.9053C14.768 21.9053 14.7591 21.9231 14.7591 21.9449C14.7591 21.9666 14.7502 21.9844 14.7393 21.9844C14.7284 21.9844 14.7195 22.0022 14.7195 22.0239C14.7195 22.0457 14.7106 22.0635 14.6998 22.0635C14.6889 22.0635 14.68 22.0902 14.68 22.1228C14.68 22.1554 14.6711 22.1821 14.6602 22.1821C14.6493 22.1821 14.6404 22.1999 14.6404 22.2217C14.6404 22.2434 14.6315 22.2612 14.6207 22.2612C14.6098 22.2612 14.6009 22.2879 14.6009 22.3205C14.6009 22.3532 14.592 22.3798 14.5811 22.3798C14.5702 22.3798 14.5614 22.3976 14.5614 22.4194C14.5614 22.4411 14.5525 22.4589 14.5416 22.4589C14.5307 22.4589 14.5218 22.4856 14.5218 22.5183C14.5218 22.5509 14.5129 22.5776 14.502 22.5776C14.4912 22.5776 14.4823 22.6043 14.4823 22.6369C14.4823 22.6695 14.4734 22.6962 14.4625 22.6962C14.4516 22.6962 14.4427 22.7229 14.4427 22.7555C14.4427 22.7881 14.4338 22.8148 14.4229 22.8148C14.4121 22.8148 14.4032 22.8415 14.4032 22.8742C14.4032 22.9068 14.3943 22.9335 14.3834 22.9335C14.3725 22.9335 14.3636 22.9691 14.3636 23.0126C14.3636 23.0561 14.3547 23.0916 14.3439 23.0916C14.333 23.0916 14.3241 23.1183 14.3241 23.151C14.3241 23.1836 14.3152 23.2103 14.3043 23.2103C14.2912 23.2103 14.2845 25.7054 14.2845 30.656C14.2845 37.0825 14.2884 38.1055 14.3128 38.1299C14.3343 38.1514 14.4005 38.1581 14.5896 38.1581C14.7421 38.1581 14.8382 38.1658 14.8382 38.1779C14.8382 38.1901 14.937 38.1977 15.0952 38.1977C15.2534 38.1977 15.3522 38.2053 15.3522 38.2175C15.3522 38.2295 15.4445 38.2372 15.5895 38.2372C15.7345 38.2372 15.8268 38.2449 15.8268 38.257C15.8268 38.2692 15.9256 38.2768 16.0838 38.2768C16.242 38.2768 16.3409 38.2844 16.3409 38.2965C16.3409 38.3085 16.4265 38.3163 16.5584 38.3163C16.6902 38.3163 16.7758 38.3241 16.7758 38.3361C16.7758 38.3483 16.8813 38.3559 17.0527 38.3559C17.224 38.3559 17.3295 38.3634 17.3295 38.3756C17.3295 38.3877 17.4217 38.3954 17.5667 38.3954C17.7117 38.3954 17.804 38.4031 17.804 38.4152C17.804 38.4261 17.8396 38.435 17.8831 38.435L17.9622 38.435L17.9622 39.3231C17.9622 40.015 17.9676 40.2134 17.9869 40.2212C18.0055 40.2287 18.0043 40.2365 17.982 40.2525C17.9556 40.2714 17.9556 40.2761 17.982 40.2951C18.0043 40.3111 18.0055 40.3188 17.9869 40.3264C17.9733 40.3319 17.9622 40.3623 17.9622 40.3941C17.9622 40.4258 17.9533 40.4517 17.9424 40.4517C17.9315 40.4517 17.9226 40.4428 17.9226 40.432C17.9226 40.4188 16.2354 40.4122 12.9005 40.4122L7.87831 40.4122L7.87831 39.4236L7.87831 38.435L7.9574 38.435C8.0009 38.435 8.03649 38.4261 8.03649 38.4152C8.03649 38.4031 8.12877 38.3954 8.27376 38.3954C8.41875 38.3954 8.51103 38.3877 8.51103 38.3756C8.51103 38.3635 8.60989 38.3559 8.76807 38.3559C8.92624 38.3559 9.02511 38.3483 9.02511 38.3361C9.02511 38.324 9.11738 38.3163 9.26237 38.3163C9.40736 38.3163 9.49964 38.3086 9.49964 38.2965C9.49964 38.2843 9.60509 38.2768 9.77645 38.2768C9.94782 38.2768 10.0533 38.2692 10.0533 38.257C10.0533 38.245 10.1389 38.2372 10.2708 38.2372C10.4026 38.2372 10.4883 38.2294 10.4883 38.2175C10.4883 38.2052 10.6003 38.1977 10.7848 38.1977C10.9694 38.1977 11.0814 38.1902 11.0814 38.1779C11.0814 38.166 11.1643 38.1581 11.2904 38.1581C11.4452 38.1581 11.5068 38.1508 11.5277 38.1299C11.5521 38.1055 11.556 36.753 11.556 28.1844L11.556 18.2672L11.3385 18.2672C11.2066 18.2672 11.121 18.2594 11.121 18.2474C11.121 18.2354 11.0287 18.2277 10.8837 18.2277C10.7387 18.2277 10.6464 18.22 10.6464 18.2079C10.6464 18.1957 10.5476 18.1881 10.3894 18.1881C10.2312 18.1881 10.1324 18.1805 10.1324 18.1683C10.1324 18.1563 10.0401 18.1486 9.89509 18.1486C9.7501 18.1486 9.65782 18.1409 9.65782 18.1288C9.65782 18.1166 9.55237 18.109 9.38101 18.109C9.20964 18.109 9.1042 18.1015 9.1042 18.0893C9.1042 18.0773 9.01852 18.0695 8.8867 18.0695C8.75488 18.0695 8.66921 18.0617 8.66921 18.0497C8.66921 18.0376 8.57693 18.0299 8.43194 18.0299C8.28695 18.0299 8.19467 18.0222 8.19467 18.0102C8.19467 17.9986 8.12877 17.9904 8.03649 17.9904L7.87831 17.9904L7.87831 16.982L7.87831 15.9736L10.9232 15.9736C13.9109 15.9736 13.9682 15.9743 13.9682 16.0115C13.9682 16.0324 13.9793 16.0539 13.9929 16.0595C14.0116 16.067 14.0104 16.0751 13.988 16.0923C13.9656 16.1095 13.9643 16.1175 13.983 16.1251C14.0012 16.1325 14.0077 16.2126 14.0077 16.43C14.0077 16.6135 14.0152 16.725 14.0275 16.725C14.0399 16.725 14.0473 16.8502 14.0473 17.0611C14.0473 17.272 14.0546 17.3972 14.067 17.3972C14.0794 17.3972 14.0868 17.5159 14.0868 17.7136C14.0868 17.9113 14.0942 18.0299 14.1066 18.0299C14.1189 18.0299 14.1264 18.142 14.1264 18.3265C14.1264 18.5111 14.1338 18.6231 14.1461 18.6231C14.1586 18.6231 14.1659 18.7549 14.1659 18.979C14.1659 19.2031 14.1732 19.3349 14.1857 19.3349C14.198 19.3349 14.2054 19.447 14.2054 19.6315C14.2054 19.7946 14.2103 19.9281 14.2162 19.9281C14.2403 19.9281 14.3241 19.8289 14.3241 19.8004C14.3241 19.7836 14.333 19.7699 14.3439 19.7699C14.3547 19.7699 14.3636 19.7521 14.3636 19.7304C14.3636 19.7086 14.3725 19.6908 14.3834 19.6908C14.3943 19.6908 14.4032 19.675 14.4032 19.6556C14.4032 19.6363 14.421 19.6076 14.4427 19.592C14.4645 19.5763 14.4823 19.5496 14.4823 19.5326C14.4823 19.5157 14.5001 19.489 14.5218 19.4733C14.5436 19.4576 14.5614 19.4309 14.5614 19.414C14.5614 19.3971 14.5791 19.3704 14.6009 19.3547C14.6226 19.339 14.6404 19.3123 14.6404 19.2954C14.6404 19.2784 14.6582 19.2517 14.68 19.236C14.7017 19.2204 14.7195 19.1937 14.7195 19.1767C14.7195 19.1598 14.7373 19.1331 14.7591 19.1174C14.7808 19.1017 14.7986 19.0766 14.7986 19.0617C14.7986 19.0467 14.8253 19.0095 14.8579 18.979C14.8906 18.9485 14.9173 18.913 14.9173 18.8999C14.9173 18.8869 14.9439 18.8513 14.9766 18.8208C15.0092 18.7904 15.0359 18.755 15.0359 18.7421C15.0359 18.7293 15.0715 18.6847 15.115 18.6429C15.1585 18.6011 15.1941 18.5567 15.1941 18.5443C15.1941 18.5319 15.2386 18.4784 15.2929 18.4254C15.3473 18.3724 15.3918 18.3152 15.3918 18.2982C15.3918 18.2804 15.4086 18.2672 15.4313 18.2672C15.4534 18.2672 15.4709 18.254 15.4709 18.2374C15.4709 18.204 16.032 17.6345 16.065 17.6345C16.0765 17.6345 16.1384 17.5811 16.2025 17.5159C16.2665 17.4506 16.3289 17.3972 16.3411 17.3972C16.3532 17.3972 16.4065 17.3527 16.4595 17.2984C16.5125 17.244 16.5677 17.1995 16.5824 17.1995C16.597 17.1995 16.6218 17.1817 16.6374 17.16C16.6531 17.1382 16.6782 17.1204 16.6932 17.1204C16.7082 17.1204 16.7454 17.0937 16.7758 17.0611C16.8063 17.0285 16.8435 17.0018 16.8585 17.0018C16.8735 17.0018 16.8986 16.984 16.9143 16.9622C16.9299 16.9405 16.9566 16.9227 16.9736 16.9227C16.9905 16.9227 17.0172 16.9049 17.0329 16.8831C17.0486 16.8614 17.0753 16.8436 17.0922 16.8436C17.1092 16.8436 17.1358 16.8258 17.1515 16.8041C17.1672 16.7823 17.1959 16.7645 17.2152 16.7645C17.2345 16.7645 17.2504 16.7556 17.2504 16.7447C17.2504 16.7339 17.2662 16.725 17.2856 16.725C17.3049 16.725 17.3336 16.7072 17.3492 16.6854C17.3649 16.6637 17.3936 16.6459 17.4129 16.6459C17.4323 16.6459 17.4481 16.637 17.4481 16.6261C17.4481 16.6152 17.4659 16.6063 17.4877 16.6063C17.5094 16.6063 17.5272 16.5974 17.5272 16.5866C17.5272 16.5757 17.543 16.5668 17.5624 16.5668C17.5817 16.5668 17.6104 16.549 17.6261 16.5272C17.6417 16.5055 17.6704 16.4877 17.6897 16.4877C17.7091 16.4877 17.7249 16.4788 17.7249 16.4679C17.7249 16.4571 17.7427 16.4482 17.7645 16.4482C17.7862 16.4482 17.804 16.4393 17.804 16.4284C17.804 16.4175 17.8218 16.4086 17.8436 16.4086C17.8653 16.4086 17.8831 16.3997 17.8831 16.3888C17.8831 16.378 17.9009 16.3691 17.9226 16.3691C17.9444 16.3691 17.9622 16.3602 17.9622 16.3493C17.9622 16.3384 17.98 16.3295 18.0017 16.3295C18.0235 16.3295 18.0413 16.3206 18.0413 16.3097C18.0413 16.2989 18.068 16.29 18.1006 16.29C18.1332 16.29 18.1599 16.2811 18.1599 16.2702C18.1599 16.2593 18.1777 16.2504 18.1995 16.2504C18.2212 16.2504 18.239 16.2415 18.239 16.2307C18.239 16.2198 18.2568 16.2109 18.2785 16.2109C18.3003 16.2109 18.3181 16.202 18.3181 16.1911C18.3181 16.1802 18.3448 16.1713 18.3774 16.1713C18.41 16.1713 18.4367 16.1624 18.4367 16.1516C18.4367 16.1407 18.4545 16.1318 18.4763 16.1318C18.498 16.1318 18.5158 16.1229 18.5158 16.112C18.5158 16.1012 18.5425 16.0923 18.5751 16.0923C18.6078 16.0923 18.6344 16.0834 18.6344 16.0725C18.6344 16.0616 18.6522 16.0527 18.674 16.0527C18.6957 16.0527 18.7135 16.0438 18.7135 16.0329C18.7135 16.0221 18.7402 16.0132 18.7729 16.0132C18.8055 16.0132 18.8322 16.0043 18.8322 15.9934C18.8322 15.9825 18.8589 15.9736 18.8915 15.9736C18.9241 15.9736 18.9508 15.9647 18.9508 15.9538C18.9508 15.943 18.9775 15.9341 19.0101 15.9341C19.0427 15.9341 19.0694 15.9252 19.0694 15.9143C19.0694 15.9034 19.105 15.8945 19.1485 15.8945C19.192 15.8945 19.2276 15.8856 19.2276 15.8748C19.2276 15.8639 19.2632 15.855 19.3067 15.855C19.3502 15.855 19.3858 15.8461 19.3858 15.8352C19.3858 15.8243 19.4214 15.8154 19.4649 15.8154C19.5084 15.8154 19.544 15.8065 19.544 15.7957C19.544 15.7848 19.5796 15.7759 19.6231 15.7759C19.6666 15.7759 19.7021 15.767 19.7021 15.7561C19.7021 15.7453 19.7377 15.7364 19.7812 15.7364C19.8247 15.7364 19.8603 15.7275 19.8603 15.7166C19.8603 15.7057 19.9048 15.6968 19.9592 15.6968C20.0136 15.6968 20.0581 15.6879 20.0581 15.677C20.0581 15.666 20.1108 15.6573 20.1767 15.6573C20.2426 15.6573 20.2953 15.6485 20.2953 15.6375C20.2953 15.6265 20.3481 15.6177 20.414 15.6177C20.4799 15.6177 20.5326 15.6089 20.5326 15.5979C20.5326 15.5862 20.6051 15.5782 20.7105 15.5782C20.816 15.5782 20.8885 15.5701 20.8885 15.5584C20.8885 15.5462 20.9873 15.5386 21.1455 15.5386C21.3037 15.5386 21.4026 15.531 21.4026 15.5189C21.4026 15.5061 21.6201 15.4991 22.0155 15.4991C22.411 15.4991 22.6284 15.5061 22.6284 15.5189Z" fill="#8D8D8D"/>
</svg>
