<svg width="395" height="85" viewBox="0 0 395 85" fill="none" xmlns="http://www.w3.org/2000/svg">
<path fill-rule="evenodd" clip-rule="evenodd" d="M0.0820312 42.189V84.2266H10.3778H20.6736V79.539V74.8513H16.2827H11.8919V42.189V9.52667H16.2827H20.6736V4.83902V0.151367H10.3778H0.0820312V42.189ZM53.302 14.8192C53.2506 14.9023 52.9741 14.9704 52.6875 14.9704C52.4009 14.9704 52.1665 15.0384 52.1665 15.1216C52.1665 15.2048 52.0302 15.2728 51.8637 15.2728C51.6971 15.2728 51.5608 15.3294 51.5608 15.3985C51.5608 15.4676 51.3734 15.6208 51.1445 15.7387C50.5777 16.0307 50.0468 16.5701 50.0468 16.8538C50.0468 16.9823 49.9786 17.0874 49.8953 17.0874C49.8121 17.0874 49.7439 17.2235 49.7439 17.3898C49.7439 17.5562 49.6837 17.6923 49.6102 17.6923C49.5367 17.6923 49.4451 17.8563 49.4066 18.0568C49.3194 18.5129 49.7403 18.902 50.321 18.902C50.5532 18.902 50.8206 18.9792 50.9152 19.0737C51.0435 19.2018 51.1472 19.1855 51.324 19.0089C51.4543 18.8788 51.5608 18.6986 51.5608 18.6083C51.5608 18.161 52.4646 17.0874 52.841 17.0874C52.9697 17.0874 53.0749 17.0193 53.0749 16.9362C53.0749 16.853 53.2112 16.785 53.3777 16.785C53.5443 16.785 53.6806 16.7169 53.6806 16.6338C53.6806 16.543 54.2862 16.4825 55.1946 16.4825C56.1031 16.4825 56.7087 16.543 56.7087 16.6338C56.7087 16.7169 56.8132 16.785 56.9408 16.785C57.0686 16.785 57.4093 17.0209 57.6979 17.3092C58.1704 17.781 58.2228 17.917 58.2228 18.6702C58.2228 19.1303 58.1547 19.5068 58.0714 19.5068C57.9881 19.5068 57.92 19.6137 57.92 19.7444C57.92 20.05 57.5554 20.4141 57.2494 20.4141C57.1186 20.4141 57.0115 20.4822 57.0115 20.5653C57.0115 20.6485 56.709 20.7165 56.3391 20.7165C55.9692 20.7165 55.6246 20.7846 55.5732 20.8678C55.5217 20.9509 55.0067 21.019 54.4287 21.019H53.3777V21.7448C53.3777 22.144 53.4595 22.5523 53.5594 22.6521C53.6783 22.7708 54.3063 22.8335 55.3763 22.8335C56.3655 22.8335 57.0115 22.8933 57.0115 22.9848C57.0115 23.0679 57.1168 23.136 57.2455 23.136C57.5094 23.136 58.0974 23.6779 58.3548 24.1583C58.566 24.5526 58.5816 26.1603 58.3742 26.1603C58.2909 26.1603 58.2228 26.2672 58.2228 26.3978C58.2228 26.7034 57.8582 27.0676 57.5522 27.0676C57.4214 27.0676 57.3144 27.1356 57.3144 27.2188C57.3144 27.3019 57.1822 27.37 57.0205 27.37C56.8588 27.37 56.6845 27.438 56.633 27.5212C56.5808 27.6056 55.8773 27.6724 55.0432 27.6724C54.2091 27.6724 53.5057 27.6056 53.4534 27.5212C53.402 27.438 53.2277 27.37 53.066 27.37C52.9043 27.37 52.7721 27.3019 52.7721 27.2188C52.7721 27.1356 52.6669 27.0676 52.5382 27.0676C52.2352 27.0676 51.5608 26.394 51.5608 26.0915C51.5608 25.9629 51.4927 25.8578 51.4094 25.8578C51.3262 25.8578 51.258 25.6537 51.258 25.4042C51.258 24.9881 51.215 24.9506 50.737 24.9506C50.4504 24.9506 50.1739 25.0186 50.1225 25.1018C50.071 25.1849 49.7663 25.253 49.4454 25.253H48.8618L49.0263 25.7444C49.3409 26.6841 49.5158 27.0676 49.6295 27.0676C49.6925 27.0676 49.7439 27.1719 49.7439 27.2994C49.7439 27.6004 50.7245 28.5797 51.0259 28.5797C51.1536 28.5797 51.258 28.6477 51.258 28.7309C51.258 28.8141 51.3943 28.8821 51.5608 28.8821C51.7274 28.8821 51.8637 28.9502 51.8637 29.0333C51.8637 29.1165 52.0681 29.1846 52.3179 29.1846C52.5677 29.1846 52.7721 29.2559 52.7721 29.3432C52.7721 29.4498 53.5291 29.4802 55.0811 29.4362C57.5004 29.3674 58.5256 29.2425 58.5256 29.0169C58.5256 28.9428 58.6293 28.8821 58.7561 28.8821C59.0559 28.8821 60.6453 27.2947 60.6453 26.9953C60.6453 26.8687 60.7135 26.7651 60.7967 26.7651C60.88 26.7651 60.9482 26.5651 60.9482 26.3204C60.9482 26.0757 61.0163 25.8336 61.0996 25.7822C61.1828 25.7308 61.251 25.4547 61.251 25.1684C61.251 24.8822 61.1828 24.6481 61.0996 24.6481C61.0163 24.6481 60.9482 24.4771 60.9482 24.268C60.9482 23.8018 60.7104 23.3738 60.1143 22.7675C59.6869 22.3329 59.4659 22.1986 58.5256 21.8035C58.1572 21.6485 58.1562 21.6441 58.4878 21.6341C58.6752 21.6284 58.8284 21.5558 58.8284 21.4726C58.8284 21.3894 58.9329 21.3214 59.0605 21.3214C59.362 21.3214 60.3425 20.3421 60.3425 20.0411C60.3425 19.9136 60.4106 19.8093 60.4939 19.8093C60.5837 19.8093 60.6453 19.2548 60.6453 18.4483C60.6453 17.6419 60.5837 17.0874 60.4939 17.0874C60.4106 17.0874 60.3425 16.98 60.3425 16.8488C60.3425 16.5181 59.207 15.4597 58.5647 15.1916C58.2731 15.07 57.8724 14.9704 57.6744 14.9704C57.4764 14.9704 57.3144 14.9023 57.3144 14.8192C57.3144 14.7262 56.5603 14.668 55.355 14.668C54.212 14.668 53.3567 14.731 53.302 14.8192ZM81.0097 14.8192C80.9583 14.9023 80.7198 14.9704 80.4798 14.9704C80.2398 14.9704 80.0014 15.0384 79.9499 15.1216C79.8984 15.2048 79.7332 15.2728 79.5827 15.2728C79.2478 15.2728 77.6031 16.8219 77.6031 17.1373C77.6031 17.2624 77.5413 17.3873 77.4656 17.4151C77.39 17.4428 77.3049 17.7036 77.2763 17.9947C77.2306 18.4618 77.2689 18.5298 77.6031 18.5746C77.8112 18.6024 78.0464 18.6874 78.1254 18.7636C78.2045 18.8397 78.5282 18.902 78.8446 18.902C79.3589 18.902 79.42 18.8614 79.42 18.52C79.42 17.9991 80.6356 16.785 81.1572 16.785C81.3675 16.785 81.5397 16.7169 81.5397 16.6338C81.5397 16.5421 82.1957 16.4825 83.2052 16.4825C84.2146 16.4825 84.8707 16.5421 84.8707 16.6338C84.8707 16.7169 84.9797 16.785 85.1129 16.785C85.4225 16.785 86.3847 17.7391 86.3847 18.0462C86.3847 18.1745 86.4529 18.3213 86.5361 18.3727C86.6194 18.4241 86.6876 18.9014 86.6876 19.4333V20.4007L84.0758 20.4689C81.255 20.5426 80.0256 20.6683 80.0256 20.883C80.0256 20.9577 79.8893 21.019 79.7228 21.019C79.5562 21.019 79.42 21.087 79.42 21.1702C79.42 21.2534 79.2987 21.3214 79.1506 21.3214C79.0024 21.3214 78.783 21.4575 78.6629 21.6238C78.5428 21.7902 78.36 21.9263 78.2562 21.9263C78.1527 21.9263 77.9978 22.0571 77.9122 22.2169C77.8265 22.3767 77.6474 22.6166 77.514 22.7496C76.9079 23.3549 76.4078 25.9654 76.846 26.2359C76.9293 26.2873 76.9974 26.4954 76.9974 26.6984C76.9974 26.9015 77.0656 27.0676 77.1488 27.0676C77.2321 27.0676 77.3002 27.1714 77.3002 27.2983C77.3002 27.5985 78.5855 28.8821 78.8861 28.8821C79.0131 28.8821 79.1171 28.9502 79.1171 29.0333C79.1171 29.1165 79.3215 29.1846 79.5714 29.1846C79.8212 29.1846 80.0256 29.2526 80.0256 29.3358C80.0256 29.5549 82.9352 29.5254 83.6618 29.299C83.9935 29.1956 84.265 29.0595 84.265 28.9966C84.265 28.9335 84.4013 28.8821 84.5678 28.8821C84.7344 28.8821 84.8707 28.8141 84.8707 28.7309C84.8707 28.6477 84.9559 28.5795 85.0599 28.5795C85.3282 28.5792 85.9694 27.9744 86.222 27.4834C86.5046 26.934 86.6876 26.9569 86.6876 27.5415C86.6876 27.8022 86.7664 28.2785 86.8629 28.6L87.0384 29.1846H88.0742H89.1101V28.1261C89.1101 27.5212 89.0451 27.0676 88.9587 27.0676C88.861 27.0676 88.8073 25.4042 88.8073 22.3799C88.8073 19.3556 88.7535 17.6923 88.6559 17.6923C88.5726 17.6923 88.5045 17.5893 88.5045 17.4633C88.5045 17.3375 88.4194 17.0833 88.3152 16.8985C88.0137 16.3637 86.8758 15.2728 86.619 15.2728C86.4901 15.2728 86.3847 15.2048 86.3847 15.1216C86.3847 15.0384 86.1803 14.9704 85.9305 14.9704C85.6807 14.9704 85.4763 14.9023 85.4763 14.8192C85.4763 14.7253 84.6466 14.668 83.2898 14.668C81.9954 14.668 81.0652 14.7297 81.0097 14.8192ZM106.598 14.8192C106.546 14.9023 106.342 14.9704 106.144 14.9704C105.945 14.9704 105.741 15.0384 105.689 15.1216C105.638 15.2048 105.48 15.273 105.34 15.2731C105.199 15.2734 104.845 15.4774 104.554 15.7265C104.262 15.9755 103.95 16.1795 103.86 16.1798C103.77 16.18 103.6 16.3672 103.483 16.5959C103.365 16.8247 103.149 17.1219 103.003 17.2563C102.857 17.3909 102.737 17.612 102.737 17.7477C102.737 17.8835 102.669 17.9947 102.585 17.9947C102.502 17.9947 102.434 18.1308 102.434 18.2971C102.434 18.4634 102.366 18.5995 102.283 18.5995C102.199 18.5995 102.131 18.7316 102.131 18.893C102.131 19.0545 102.07 19.2242 101.996 19.2702C101.686 19.4616 101.387 23.5113 101.662 23.7867C101.754 23.8778 101.828 24.1101 101.828 24.3027C101.828 24.7644 102.174 25.8578 102.319 25.8578C102.383 25.8578 102.434 25.9939 102.434 26.1603C102.434 26.3266 102.502 26.4627 102.585 26.4627C102.669 26.4627 102.737 26.5557 102.737 26.6693C102.737 26.9626 104.328 28.5797 104.616 28.5797C104.748 28.5797 104.857 28.6477 104.857 28.7309C104.857 28.8141 104.993 28.8821 105.159 28.8821C105.326 28.8821 105.462 28.9502 105.462 29.0333C105.462 29.1165 105.667 29.1846 105.916 29.1846C106.166 29.1846 106.371 29.2526 106.371 29.3358C106.371 29.4282 107.077 29.487 108.188 29.487C109.298 29.487 110.004 29.4282 110.004 29.3358C110.004 29.2526 110.209 29.1846 110.459 29.1846C110.708 29.1846 110.913 29.1165 110.913 29.0333C110.913 28.9502 111.049 28.8821 111.216 28.8821C111.382 28.8821 111.519 28.8141 111.519 28.7309C111.519 28.6477 111.616 28.5797 111.736 28.5797C112.019 28.5797 113.638 26.9622 113.638 26.6797C113.638 26.5604 113.706 26.4627 113.79 26.4627C113.873 26.4627 113.941 26.3266 113.941 26.1603C113.941 25.9939 114.009 25.8578 114.092 25.8578C114.176 25.8578 114.244 25.7217 114.244 25.5554C114.244 25.3201 114.143 25.253 113.79 25.253C113.54 25.253 113.335 25.1849 113.335 25.1018C113.335 25.0186 113.092 24.9506 112.795 24.9506C112.263 24.9506 111.821 25.222 111.821 25.5486C111.821 25.8008 110.499 27.0676 110.235 27.0676C110.108 27.0676 110.004 27.1356 110.004 27.2188C110.004 27.3019 109.838 27.37 109.635 27.37C109.432 27.37 109.223 27.438 109.172 27.5212C109.12 27.6044 108.673 27.6724 108.179 27.6724C107.68 27.6724 107.279 27.605 107.279 27.5212C107.279 27.438 107.106 27.37 106.894 27.37C106.683 27.37 106.363 27.2339 106.184 27.0676C106.006 26.9012 105.776 26.7651 105.673 26.7651C105.571 26.7651 105.397 26.561 105.287 26.3115C105.176 26.062 105.034 25.8578 104.971 25.8578C104.908 25.8578 104.857 25.7217 104.857 25.5554C104.857 25.3891 104.788 25.253 104.705 25.253C104.622 25.253 104.554 25.1169 104.554 24.9506C104.554 24.7842 104.491 24.6481 104.415 24.6481C104.338 24.6481 104.253 24.1716 104.225 23.5893L104.175 22.5304L109.361 22.5308L114.547 22.5311V21.4726C114.547 20.8678 114.482 20.4141 114.395 20.4141C114.312 20.4141 114.244 20.1791 114.244 19.892C114.244 19.6048 114.167 19.1794 114.073 18.9469C113.7 18.0219 113.247 17.1482 112.995 16.8698C112.849 16.7086 112.73 16.499 112.73 16.4039C112.73 16.3089 112.542 16.135 112.313 16.0177C112.084 15.9002 111.787 15.6846 111.652 15.5385C111.517 15.3924 111.296 15.2728 111.16 15.2728C111.024 15.2728 110.913 15.2048 110.913 15.1216C110.913 15.0384 110.708 14.9704 110.459 14.9704C110.209 14.9704 110.004 14.9023 110.004 14.8192C110.004 14.7275 109.351 14.668 108.348 14.668C107.407 14.668 106.651 14.7333 106.598 14.8192ZM147.251 14.8192C147.251 14.9023 147.046 14.9704 146.797 14.9704C146.547 14.9704 146.342 15.0384 146.342 15.1216C146.342 15.2048 146.239 15.2728 146.112 15.2728C145.852 15.2728 143.92 17.145 143.92 17.3978C143.92 17.4884 143.814 17.6681 143.685 17.7969C143.556 17.9257 143.412 18.2271 143.364 18.4666C143.316 18.706 143.217 18.902 143.144 18.902C143.071 18.902 143.011 19.1742 143.011 19.5068C143.011 19.8395 142.943 20.1117 142.86 20.1117C142.767 20.1117 142.709 20.8647 142.709 22.0686C142.709 23.2101 142.772 24.0643 142.86 24.1189C142.943 24.1703 143.011 24.4464 143.011 24.7327C143.011 25.0189 143.08 25.253 143.163 25.253C143.246 25.253 143.314 25.4571 143.314 25.7066C143.314 25.9561 143.382 26.1603 143.466 26.1603C143.549 26.1603 143.617 26.2964 143.617 26.4627C143.617 26.629 143.685 26.7651 143.768 26.7651C143.852 26.7651 143.92 26.869 143.92 26.9959C143.92 27.3615 145.135 28.4699 145.964 28.8608C146.38 29.0571 146.839 29.2783 146.984 29.3523C147.352 29.5408 150.582 29.5258 150.582 29.3358C150.582 29.2526 150.718 29.1846 150.885 29.1846C151.051 29.1846 151.187 29.1165 151.187 29.0333C151.187 28.9502 151.324 28.8821 151.49 28.8821C151.657 28.8821 151.793 28.8141 151.793 28.7309C151.793 28.6477 151.878 28.5795 151.982 28.5795C152.258 28.5792 153.004 27.9006 153.004 27.6503C153.004 27.5328 153.141 27.3387 153.307 27.2188C153.474 27.0989 153.61 26.8797 153.61 26.7317C153.61 26.5838 153.678 26.4627 153.761 26.4627C153.845 26.4627 153.913 26.2586 153.913 26.0091C153.913 25.7595 153.981 25.5554 154.064 25.5554C154.148 25.5554 154.216 25.2832 154.216 24.9506V24.3457H153.459C153.042 24.3457 152.702 24.2776 152.702 24.1945C152.702 24.1113 152.565 24.0433 152.399 24.0433C152.146 24.0433 152.096 24.1441 152.096 24.6481C152.096 24.9808 152.028 25.253 151.945 25.253C151.861 25.253 151.793 25.3891 151.793 25.5554C151.793 25.7217 151.725 25.8578 151.642 25.8578C151.558 25.8578 151.49 25.9629 151.49 26.0915C151.49 26.4988 150.408 27.37 149.903 27.37C149.777 27.37 149.673 27.438 149.673 27.5212C149.673 27.6044 149.333 27.6724 148.916 27.6724C148.5 27.6724 148.159 27.6044 148.159 27.5212C148.159 27.438 147.97 27.37 147.739 27.37C147.491 27.37 147.228 27.2451 147.099 27.0676C146.979 26.9012 146.792 26.7651 146.683 26.7651C146.574 26.7651 146.439 26.6461 146.383 26.5005C146.328 26.3549 146.159 26.104 146.009 25.9427C145.859 25.7815 145.737 25.4924 145.737 25.3C145.737 25.1078 145.669 24.9506 145.585 24.9506C145.499 24.9506 145.434 24.4969 145.434 23.892C145.434 23.2872 145.369 22.8335 145.283 22.8335C145.199 22.8335 145.131 22.4974 145.131 22.0864C145.131 21.6754 145.199 21.2972 145.283 21.2458C145.366 21.1944 145.434 20.7822 145.434 20.3296C145.434 19.877 145.502 19.5068 145.585 19.5068C145.669 19.5068 145.737 19.3027 145.737 19.0532C145.737 18.8037 145.805 18.5995 145.888 18.5995C145.971 18.5995 146.04 18.5108 146.04 18.4022C146.04 17.9924 147.092 17.0643 147.884 16.775C148.745 16.4608 149.673 16.3876 149.673 16.6338C149.673 16.7169 149.83 16.785 150.022 16.785C150.59 16.785 151.793 18.0683 151.793 18.673C151.793 18.799 151.861 18.902 151.945 18.902C152.028 18.902 152.096 19.1061 152.096 19.3556C152.096 19.8038 152.106 19.8093 152.916 19.8093C153.367 19.8093 153.844 19.768 153.976 19.7175C154.245 19.6143 154.314 18.6783 154.064 18.5239C153.981 18.4725 153.913 18.2644 153.913 18.0614C153.913 17.8583 153.845 17.6923 153.761 17.6923C153.678 17.6923 153.61 17.5562 153.61 17.3898C153.61 17.2235 153.542 17.0874 153.459 17.0874C153.375 17.0874 153.307 16.9986 153.307 16.8901C153.307 16.6371 152.338 15.5752 152.107 15.5752C152.011 15.5752 151.786 15.4392 151.607 15.2728C151.428 15.1065 151.124 14.9704 150.932 14.9704C150.739 14.9704 150.582 14.9023 150.582 14.8192C150.582 14.7275 149.926 14.668 148.916 14.668C147.907 14.668 147.251 14.7275 147.251 14.8192ZM186.087 14.8192C186.036 14.9023 185.793 14.9704 185.548 14.9704C185.303 14.9704 185.103 15.0384 185.103 15.1216C185.103 15.2048 184.982 15.2728 184.834 15.2728C184.685 15.2728 184.466 15.4089 184.346 15.5752C184.226 15.7416 184.038 15.8777 183.929 15.8777C183.653 15.8777 182.68 16.8749 182.68 17.158C182.68 17.2855 182.624 17.3898 182.556 17.3898C182.418 17.3898 181.889 18.5306 181.643 19.3556C181.346 20.3539 181.126 22.0354 181.224 22.5478C181.279 22.8298 181.361 23.4006 181.407 23.8164C181.453 24.2323 181.544 24.7086 181.611 24.8749C182.19 26.3266 182.409 26.7651 182.555 26.7651C182.624 26.7651 182.68 26.8618 182.68 26.98C182.68 27.2596 184.002 28.5797 184.282 28.5797C184.401 28.5797 184.497 28.6477 184.497 28.7309C184.497 28.8141 184.634 28.8821 184.8 28.8821C184.967 28.8821 185.103 28.9502 185.103 29.0333C185.103 29.1165 185.307 29.1846 185.557 29.1846C185.807 29.1846 186.011 29.2526 186.011 29.3358C186.011 29.4267 186.623 29.487 187.543 29.487C189.712 29.487 190.724 29.1233 192.002 27.884C193.001 26.9156 193.582 26.0574 193.582 25.5509C193.582 25.387 193.65 25.253 193.733 25.253C193.816 25.253 193.885 25.0529 193.885 24.8083C193.885 24.5636 193.953 24.3215 194.036 24.2701C194.126 24.2147 194.187 23.2857 194.187 21.9929C194.187 20.6379 194.13 19.8093 194.036 19.8093C193.953 19.8093 193.885 19.6051 193.885 19.3556C193.885 19.1061 193.816 18.902 193.733 18.902C193.65 18.902 193.582 18.6978 193.582 18.4483C193.582 18.1988 193.525 17.9947 193.456 17.9947C193.387 17.9947 193.233 17.8085 193.115 17.5811C192.818 17.0095 191.368 15.5752 191.087 15.5752C190.96 15.5752 190.856 15.5072 190.856 15.424C190.856 15.3409 190.72 15.2728 190.554 15.2728C190.387 15.2728 190.251 15.2048 190.251 15.1216C190.251 15.0384 190.046 14.9704 189.797 14.9704C189.547 14.9704 189.342 14.9023 189.342 14.8192C189.342 14.728 188.714 14.668 187.762 14.668C186.871 14.668 186.14 14.734 186.087 14.8192ZM35.8144 22.0775V29.1846H36.8742H37.9341V28.5265C37.9341 28.0016 38.026 27.7724 38.3883 27.3937C38.6381 27.1327 38.8425 26.8648 38.8425 26.7982C38.8425 26.7319 39.1151 26.3767 39.4482 26.0091C39.7813 25.6414 40.0538 25.2862 40.0538 25.2199C40.0538 25.1533 40.2582 24.8854 40.508 24.6244C40.7579 24.3632 40.9623 24.085 40.9623 24.0059C40.9623 23.9268 41.1667 23.6714 41.4165 23.4384C41.6663 23.2054 41.8707 22.9332 41.8707 22.8335C41.8707 22.7339 42.0751 22.4617 42.3249 22.2287C42.5748 21.9957 42.7792 21.7403 42.7792 21.6612C42.7792 21.5821 42.9836 21.3039 43.2334 21.0427C43.4832 20.7817 43.6878 20.5165 43.6879 20.4533C43.6882 20.3902 43.8925 20.1003 44.1418 19.8093L44.5953 19.28L44.5958 24.2323L44.5961 29.1846H45.6559H46.7158V22.0775V14.9704H45.6559H44.5961V15.5752C44.5961 15.9079 44.5279 16.1801 44.4447 16.1801C44.3614 16.1801 44.2932 16.272 44.2932 16.3845C44.2932 16.4969 44.0888 16.8025 43.839 17.0637C43.5892 17.3247 43.3848 17.5968 43.3848 17.6685C43.3848 17.74 43.1804 18.0122 42.9306 18.2734C42.6807 18.5344 42.4763 18.8023 42.4763 18.8689C42.4763 18.9352 42.2038 19.2904 41.8707 19.658C41.5376 20.0256 41.2651 20.3808 41.2651 20.4472C41.2651 20.5138 41.0607 20.7817 40.8109 21.0427C40.561 21.3039 40.3566 21.576 40.3566 21.6476C40.3566 21.7192 40.1522 21.9914 39.9024 22.2524C39.6526 22.5136 39.4482 22.7858 39.4482 22.8573C39.4482 22.929 39.2438 23.2012 38.994 23.4621C38.7441 23.7233 38.5397 24.0289 38.5397 24.1412C38.5397 24.2538 38.4716 24.3457 38.3883 24.3457C38.305 24.3457 38.2369 24.4818 38.2369 24.6481C38.2369 24.8145 38.1688 24.9506 38.0855 24.9506C37.9877 24.9506 37.9341 23.1863 37.9341 19.9605V14.9704H36.8742H35.8144V22.0775ZM65.7357 16.5959C65.68 17.4899 65.5924 18.9889 65.5411 19.9269C65.4898 20.8649 65.3893 21.6684 65.3176 21.7126C65.2462 21.7568 65.1876 22.095 65.1876 22.4644C65.1876 22.8339 65.1194 23.136 65.0362 23.136C64.9529 23.136 64.8848 23.4082 64.8848 23.7408C64.8848 24.0735 64.8166 24.3457 64.7334 24.3457C64.6501 24.3457 64.5819 24.4818 64.5819 24.6481C64.5819 24.8145 64.5138 24.9506 64.4305 24.9506C64.3473 24.9506 64.2791 25.0508 64.2791 25.1733C64.2791 25.4775 63.6423 26.7651 63.492 26.7651C63.4252 26.7651 63.3707 26.9012 63.3707 27.0676C63.3707 27.3196 63.2697 27.37 62.765 27.37H62.1594V30.25V33.1299L63.1814 33.0853L64.2034 33.0405L64.2458 31.1125L64.2882 29.1846H68.823H73.3579L73.4369 29.5248C73.4804 29.712 73.5327 30.5795 73.5533 31.4528L73.5907 33.0405L74.537 33.0856L75.4833 33.1305V30.2503V27.37H74.8777H74.2721V21.1702V14.9704H70.0545H65.8367L65.7357 16.5959ZM90.0185 15.6962C90.0185 16.0954 90.1003 16.5037 90.2002 16.6035C90.3239 16.7271 91.0481 16.785 92.4713 16.785H94.5608V22.9911V29.1973L95.7342 29.1531L96.9076 29.1089L96.9471 22.947L96.9866 16.785H99.1047H101.223V15.8777V14.9704H95.6206H90.0185V15.6962ZM118.122 18.4105C118.009 22.6953 117.89 24.5311 117.712 24.7162C117.637 24.7951 117.575 24.9832 117.575 25.1341C117.575 25.6894 116.445 27.0676 115.99 27.0676C115.862 27.0676 115.758 27.1356 115.758 27.2188C115.758 27.3019 115.554 27.37 115.304 27.37H114.849V28.2773V29.1846H115.758C116.263 29.1846 116.666 29.1174 116.666 29.0333C116.666 28.9502 116.769 28.8821 116.896 28.8821C117.411 28.8821 118.786 27.7308 118.786 27.2994C118.786 27.1719 118.854 27.0676 118.938 27.0676C119.021 27.0676 119.089 26.9315 119.089 26.7651C119.089 26.5988 119.157 26.4627 119.24 26.4627C119.324 26.4627 119.392 26.2286 119.392 25.9424C119.392 25.6561 119.46 25.38 119.543 25.3286C119.626 25.2772 119.695 24.8349 119.695 24.3457C119.695 23.8565 119.763 23.4142 119.846 23.3628C119.936 23.307 119.997 22.3309 119.997 20.9434C119.997 19.4554 120.056 18.5814 120.159 18.5174C120.248 18.4625 120.31 18.1353 120.297 17.7902C120.283 17.4453 120.278 17.078 120.286 16.974C120.297 16.8321 120.847 16.785 122.494 16.785H124.688L124.727 22.947L124.767 29.1089L125.864 29.1534L126.962 29.1979V22.0841V14.9704H122.588H118.213L118.122 18.4105ZM130.293 22.0775V29.1846H134.381C137.006 29.1846 138.469 29.1304 138.469 29.0333C138.469 28.9502 138.605 28.8821 138.772 28.8821C138.939 28.8821 139.075 28.8141 139.075 28.7309C139.075 28.6477 139.185 28.5797 139.319 28.5797C139.602 28.5797 140.589 27.5576 140.589 27.2649C140.589 27.1563 140.657 27.0676 140.74 27.0676C140.824 27.0676 140.892 26.8634 140.892 26.6139C140.892 26.3644 140.96 26.1603 141.043 26.1603C141.132 26.1603 141.195 25.634 141.195 24.8839C141.195 24.1818 141.126 23.5654 141.043 23.514C140.96 23.4626 140.892 23.2355 140.892 23.0093C140.892 22.7714 140.764 22.506 140.589 22.3799C140.422 22.26 140.286 22.0701 140.286 21.9577C140.286 21.6808 139.907 21.3214 139.615 21.3214C139.485 21.3214 139.378 21.2534 139.378 21.1702C139.378 21.087 139.241 21.019 139.075 21.019C138.908 21.019 138.772 20.9509 138.772 20.8678C138.772 20.7846 138.499 20.7165 138.166 20.7165C137.833 20.7165 137.561 20.6485 137.561 20.5653C137.561 20.4705 136.602 20.4141 134.987 20.4141H132.413V17.6923V14.9704H131.353H130.293V22.0775ZM154.821 15.8777V16.785H157.015H159.209L159.248 22.947L159.288 29.1089L160.386 29.1534L161.483 29.1979V22.9914V16.785H163.754H166.025V15.8777V14.9704H160.423H154.821V15.8777ZM167.54 22.0775V29.1846H172.233C175.261 29.1846 176.927 29.1309 176.927 29.0333C176.927 28.9502 177.063 28.8821 177.23 28.8821C177.396 28.8821 177.533 28.8141 177.533 28.7309C177.533 28.6477 177.637 28.5797 177.765 28.5797C178.066 28.5797 179.047 27.6004 179.047 27.2994C179.047 27.1719 179.115 27.0676 179.198 27.0676C179.281 27.0676 179.349 26.8634 179.349 26.6139C179.349 26.3644 179.418 26.1603 179.501 26.1603C179.585 26.1603 179.652 25.757 179.652 25.253C179.652 24.749 179.585 24.3457 179.501 24.3457C179.418 24.3457 179.349 24.1653 179.349 23.9448C179.349 23.4446 177.868 21.9263 177.38 21.9263C177.083 21.9263 176.624 21.6119 176.624 21.4077C176.624 21.3603 176.76 21.3214 176.927 21.3214C177.093 21.3214 177.23 21.27 177.23 21.2071C177.23 21.1442 177.434 21.0025 177.684 20.892C177.961 20.7696 178.138 20.578 178.138 20.4014C178.138 20.242 178.206 20.1117 178.29 20.1117C178.373 20.1117 178.441 19.9756 178.441 19.8093C178.441 19.6429 178.509 19.5068 178.592 19.5068C178.681 19.5068 178.744 19.0028 178.744 18.2971C178.744 17.5914 178.681 17.0874 178.592 17.0874C178.509 17.0874 178.441 16.9835 178.441 16.8566C178.441 16.4667 177.131 15.2728 176.704 15.2728C176.493 15.2728 176.321 15.2048 176.321 15.1216C176.321 15.0242 174.757 14.9704 171.93 14.9704H167.54V22.0775ZM109.399 16.6338C109.399 16.7169 109.535 16.785 109.702 16.785C109.868 16.785 110.004 16.853 110.004 16.9362C110.004 17.0193 110.116 17.0874 110.252 17.0874C110.528 17.0874 111.215 17.815 111.216 18.1081C111.216 18.2121 111.284 18.2971 111.367 18.2971C111.45 18.2971 111.519 18.4631 111.519 18.6662C111.519 18.8693 111.587 19.0774 111.67 19.1288C111.753 19.1802 111.821 19.5584 111.821 19.9694V20.7165H108.036H104.251V20.1117C104.251 19.779 104.319 19.5068 104.402 19.5068C104.486 19.5068 104.554 19.3177 104.554 19.0866C104.554 18.8398 104.679 18.5764 104.857 18.4483C105.023 18.3284 105.159 18.1385 105.159 18.0261C105.159 17.775 105.408 17.5323 105.954 17.2509C106.183 17.1329 106.371 16.9797 106.371 16.9106C106.371 16.8415 106.507 16.785 106.673 16.785C106.84 16.785 106.976 16.7169 106.976 16.6338C106.976 16.5456 107.481 16.4825 108.188 16.4825C108.894 16.4825 109.399 16.5456 109.399 16.6338ZM188.692 16.6527C189.636 17.0317 189.891 17.184 190.363 17.6495C190.634 17.917 190.856 18.2401 190.856 18.3677C190.856 18.4952 190.925 18.5995 191.008 18.5995C191.091 18.5995 191.159 18.7356 191.159 18.902C191.159 19.0683 191.221 19.2044 191.296 19.2044C191.603 19.2044 191.77 22.492 191.544 24.0811C191.475 24.5592 191.361 24.9506 191.289 24.9506C191.218 24.9506 191.159 25.0866 191.159 25.253C191.159 25.4193 191.091 25.5554 191.008 25.5554C190.925 25.5554 190.856 25.6597 190.856 25.7872C190.856 26.09 189.994 26.9354 189.417 27.1987C189.168 27.3122 188.846 27.4654 188.701 27.5389C188.34 27.722 186.92 27.7079 186.92 27.5212C186.92 27.438 186.715 27.37 186.466 27.37C186.216 27.37 186.011 27.3186 186.011 27.2557C186.011 27.1928 185.811 27.0527 185.566 26.9445C185.321 26.8362 185.032 26.5474 184.923 26.3027C184.815 26.058 184.675 25.8578 184.612 25.8578C184.549 25.8578 184.497 25.7217 184.497 25.5554C184.497 25.3891 184.429 25.253 184.346 25.253C184.263 25.253 184.194 25.0488 184.194 24.7993C184.194 24.5498 184.126 24.3457 184.043 24.3457C183.949 24.3457 183.892 23.4888 183.892 22.0775C183.892 20.6662 183.949 19.8093 184.043 19.8093C184.126 19.8093 184.194 19.6051 184.194 19.3556C184.194 19.1061 184.263 18.902 184.346 18.902C184.429 18.902 184.497 18.7659 184.497 18.5995C184.497 18.4332 184.549 18.2971 184.612 18.2971C184.675 18.2971 184.817 18.093 184.927 17.8435C185.038 17.594 185.212 17.3898 185.314 17.3898C185.416 17.3898 185.646 17.2537 185.825 17.0874C186.004 16.9211 186.306 16.7839 186.497 16.7827C186.688 16.7813 186.946 16.7143 187.071 16.6338C187.378 16.4357 188.174 16.4449 188.692 16.6527ZM71.8495 22.0775V27.37H68.67C66.6512 27.37 65.4904 27.3148 65.4904 27.2188C65.4904 27.1356 65.5585 27.0676 65.6418 27.0676C65.7251 27.0676 65.7932 26.9315 65.7932 26.7651C65.7932 26.5988 65.8614 26.4627 65.9446 26.4627C66.0279 26.4627 66.096 26.3307 66.096 26.1692C66.096 26.0077 66.1642 25.8336 66.2474 25.7822C66.3307 25.7308 66.3988 25.5227 66.3988 25.3197C66.3988 25.1166 66.467 24.9506 66.5503 24.9506C66.6335 24.9506 66.7017 24.6784 66.7017 24.3457C66.7017 24.013 66.7698 23.7408 66.8531 23.7408C66.9363 23.7408 67.0045 23.4047 67.0045 22.9937C67.0045 22.5827 67.0726 22.2045 67.1559 22.1531C67.2392 22.1017 67.3073 21.5573 67.3073 20.9434C67.3073 20.3294 67.3754 19.7851 67.4587 19.7337C67.5423 19.6821 67.6101 19.0012 67.6101 18.2126V16.785H69.7298H71.8495V22.0775ZM175.762 17.2968C176.28 17.7704 176.321 17.8719 176.321 18.6578C176.321 19.1247 176.253 19.5068 176.17 19.5068C176.087 19.5068 176.018 19.6137 176.018 19.7444C176.018 19.8752 175.931 20.0622 175.823 20.1602C175.274 20.6623 174.931 20.7165 172.311 20.7165H169.659V18.7508V16.785H172.431H175.202L175.762 17.2968ZM86.6876 23.136C86.6876 23.64 86.6203 24.0433 86.5361 24.0433C86.4529 24.0433 86.3847 24.2474 86.3847 24.4969C86.3847 24.7464 86.3166 24.9506 86.2333 24.9506C86.1501 24.9506 86.0819 25.0541 86.0819 25.1807C86.0819 25.4801 84.4924 27.0676 84.1926 27.0676C84.0659 27.0676 83.9622 27.1356 83.9622 27.2188C83.9622 27.3019 83.7578 27.37 83.508 27.37C83.2582 27.37 83.0538 27.438 83.0538 27.5212C83.0538 27.6053 82.6499 27.6724 82.1453 27.6724C81.6407 27.6724 81.2369 27.6053 81.2369 27.5212C81.2369 27.438 81.0798 27.37 80.8879 27.37C80.4781 27.37 79.42 26.456 79.42 26.1021C79.42 25.9678 79.3518 25.8578 79.2685 25.8578C79.1853 25.8578 79.1171 25.5857 79.1171 25.253C79.1171 24.9203 79.1853 24.6481 79.2685 24.6481C79.3518 24.6481 79.42 24.475 79.42 24.2633C79.42 24.0516 79.5738 23.7283 79.7618 23.545C80.212 23.1062 81.3319 22.5317 81.7433 22.5288C81.9227 22.5275 82.1718 22.4605 82.2967 22.3799C82.4216 22.2993 83.4607 22.2323 84.6057 22.231L86.6876 22.2287V23.136ZM137.537 22.6314C137.592 22.7132 137.739 22.8175 137.864 22.8633C138.249 23.0049 138.772 24.1704 138.772 24.8893C138.772 25.2557 138.704 25.5554 138.621 25.5554C138.537 25.5554 138.469 25.7084 138.469 25.8956C138.469 26.3101 137.846 27.0676 137.505 27.0676C137.369 27.0676 137.258 27.1356 137.258 27.2188C137.258 27.3133 136.349 27.37 134.835 27.37H132.413V24.9631C132.413 23.1845 132.462 22.5338 132.602 22.47C132.921 22.3247 137.43 22.4721 137.537 22.6314ZM175.691 22.9219C175.746 22.9984 175.979 23.1573 176.208 23.2752C176.437 23.393 176.624 23.6084 176.624 23.7538C176.624 23.8992 176.699 24.043 176.791 24.0735C176.889 24.1062 176.957 24.5287 176.957 25.1018C176.957 25.6749 176.889 26.0974 176.791 26.13C176.699 26.1606 176.624 26.3033 176.624 26.4473C176.624 26.5991 176.364 26.8478 176.004 27.0394C175.429 27.3458 175.175 27.37 172.522 27.37H169.659V25.1143C169.659 23.4567 169.709 22.8358 169.849 22.7725C170.157 22.6317 175.582 22.7705 175.691 22.9219ZM291.359 44.117L291.316 45.7426L290.105 45.7875C289.439 45.8121 288.829 45.8971 288.75 45.9765C288.671 46.0557 288.415 46.1206 288.182 46.1206C287.949 46.1206 287.758 46.1886 287.758 46.2718C287.758 46.355 287.553 46.423 287.303 46.423C287.054 46.423 286.849 46.4911 286.849 46.5742C286.849 46.6574 286.76 46.7254 286.651 46.7254C286.541 46.7254 286.306 46.8615 286.127 47.0279C285.948 47.1942 285.736 47.3303 285.656 47.3303C285.446 47.3303 284.124 48.6813 284.124 48.8966C284.124 48.9964 283.988 49.1762 283.821 49.2961C283.655 49.416 283.518 49.6351 283.518 49.7832C283.518 49.931 283.45 50.0522 283.367 50.0522C283.284 50.0522 283.215 50.1883 283.215 50.3546C283.215 50.5209 283.147 50.657 283.064 50.657C282.981 50.657 282.913 50.8612 282.913 51.1107C282.913 51.3602 282.851 51.5643 282.777 51.5643C282.573 51.5643 282.44 52.7424 282.362 55.2536C282.316 56.7203 282.347 57.5621 282.451 57.6655C282.538 57.7531 282.61 58.0791 282.61 58.3903C282.61 58.7015 282.678 58.998 282.761 59.0494C282.845 59.1008 282.913 59.2389 282.913 59.3562C282.913 59.6771 283.604 61.1059 284.001 61.6078C284.794 62.6078 285.225 63.0566 285.393 63.0566C285.491 63.0566 285.669 63.1927 285.789 63.359C285.909 63.5254 286.129 63.6615 286.277 63.6615C286.425 63.6615 286.546 63.7295 286.546 63.8127C286.546 63.8959 286.679 63.9639 286.84 63.9639C287.002 63.9639 287.176 64.0319 287.228 64.1151C287.279 64.1983 287.508 64.2663 287.736 64.2663C287.965 64.2663 288.216 64.327 288.295 64.4011C288.374 64.4752 288.848 64.5762 289.348 64.6253C289.847 64.6746 290.512 64.7575 290.824 64.8095L291.392 64.9043V66.7022V68.5003H293.36H295.328V66.7057V64.911L295.972 64.8084C296.326 64.7519 297.024 64.6427 297.524 64.5656C299.312 64.2899 299.568 64.2314 299.568 64.0986C299.568 64.0245 299.704 63.9639 299.87 63.9639C300.037 63.9639 300.173 63.8959 300.173 63.8127C300.173 63.7295 300.309 63.6615 300.476 63.6615C300.643 63.6615 300.779 63.6049 300.779 63.5358C300.779 63.4667 300.966 63.3135 301.194 63.1956C301.726 62.9205 302.459 62.1883 302.735 61.6568C302.853 61.4286 303.006 61.242 303.076 61.242C303.145 61.242 303.201 61.1059 303.201 60.9396C303.201 60.7733 303.27 60.6372 303.353 60.6372C303.436 60.6372 303.504 60.5011 303.504 60.3348C303.504 60.1684 303.572 60.0323 303.656 60.0323C303.739 60.0323 303.807 59.8282 303.807 59.5787C303.807 59.3292 303.875 59.125 303.958 59.125C304.042 59.125 304.11 58.8528 304.11 58.5202C304.11 58.1875 304.181 57.9153 304.268 57.9153C304.374 57.9153 304.405 57.0602 304.362 55.3069C304.296 52.6219 304.177 51.5643 303.942 51.5643C303.868 51.5643 303.807 51.3602 303.807 51.1107C303.807 50.8612 303.739 50.657 303.656 50.657C303.572 50.657 303.504 50.5209 303.504 50.3546C303.504 50.1883 303.436 50.0522 303.353 50.0522C303.27 50.0522 303.201 49.9161 303.201 49.7497C303.201 49.5834 303.133 49.4473 303.05 49.4473C302.967 49.4473 302.899 49.3543 302.899 49.2407C302.899 48.967 301.317 47.3303 301.052 47.3303C300.939 47.3303 300.747 47.1942 300.627 47.0279C300.507 46.8615 300.288 46.7254 300.14 46.7254C299.992 46.7254 299.87 46.6574 299.87 46.5742C299.87 46.4911 299.666 46.423 299.416 46.423C299.166 46.423 298.962 46.355 298.962 46.2718C298.962 46.1886 298.758 46.1206 298.508 46.1206C298.258 46.1206 298.053 46.0525 298.053 45.9694C298.053 45.8815 297.559 45.8182 296.872 45.8182C296.156 45.8182 295.62 45.7468 295.51 45.6367C295.393 45.5203 295.328 44.9243 295.328 43.9733V42.4914H293.365H291.402L291.359 44.117ZM218.186 42.9451C218.134 43.0282 217.824 43.0963 217.495 43.0963C217.167 43.0963 216.899 43.1643 216.899 43.2475C216.899 43.3307 216.766 43.3987 216.605 43.3987C216.443 43.3987 216.269 43.4668 216.217 43.5499C216.166 43.6331 216.004 43.7012 215.858 43.7012C215.713 43.7012 215.447 43.8372 215.268 44.0036C215.089 44.1699 214.883 44.306 214.809 44.306C214.594 44.306 213.36 45.5532 213.126 46.0072C213.007 46.2358 212.854 46.423 212.785 46.423C212.716 46.423 212.659 46.5591 212.659 46.7254C212.659 46.8918 212.591 47.0279 212.508 47.0279C212.425 47.0279 212.356 47.164 212.356 47.3303C212.356 47.4966 212.288 47.6327 212.205 47.6327C212.122 47.6327 212.054 47.7647 212.054 47.9262C212.054 48.0877 211.985 48.2618 211.902 48.3132C211.819 48.3646 211.751 48.5687 211.751 48.7668C211.751 48.9649 211.69 49.1647 211.615 49.2107C211.474 49.2981 211.339 50.0119 211.201 51.4131C211.155 51.8705 211.056 52.3095 210.98 52.3884C210.788 52.5885 210.801 59.0816 210.994 59.2006C211.077 59.2521 211.145 59.6603 211.145 60.1079C211.145 60.5555 211.213 60.9638 211.297 61.0152C211.38 61.0666 211.448 61.3427 211.448 61.629C211.448 61.9152 211.516 62.1493 211.599 62.1493C211.683 62.1493 211.751 62.3535 211.751 62.603C211.751 62.8525 211.819 63.0566 211.902 63.0566C211.985 63.0566 212.054 63.1906 212.054 63.3545C212.054 63.6234 212.201 63.9391 212.834 65.0285C213.083 65.4567 214.766 67.1524 215.169 67.3804C215.452 67.5413 215.828 67.7376 216.442 68.0467C216.608 68.1299 216.867 68.1979 217.018 68.1979C217.169 68.1979 217.37 68.2758 217.466 68.371C217.711 68.6162 221.931 68.6207 222.012 68.376C222.045 68.2781 222.27 68.1979 222.513 68.1979C222.756 68.1979 222.955 68.1299 222.955 68.0467C222.955 67.9635 223.112 67.8955 223.305 67.8955C223.497 67.8955 223.801 67.7594 223.98 67.593C224.159 67.4267 224.381 67.2906 224.474 67.2906C224.715 67.2906 226.589 65.3322 226.589 65.0805C226.589 64.9654 226.657 64.8712 226.74 64.8712C226.823 64.8712 226.892 64.7351 226.892 64.5688C226.892 64.4024 226.96 64.2663 227.043 64.2663C227.126 64.2663 227.194 64.1302 227.194 63.9639C227.194 63.7976 227.263 63.6615 227.346 63.6615C227.429 63.6615 227.497 63.4954 227.497 63.2924C227.497 63.0893 227.565 62.8812 227.649 62.8298C227.732 62.7784 227.8 62.5742 227.8 62.3761C227.8 62.1781 227.868 61.9739 227.951 61.9225C228.035 61.8711 228.103 61.561 228.103 61.2331C228.103 60.9053 228.171 60.6372 228.254 60.6372C228.338 60.6372 228.406 60.244 228.406 59.7601C228.406 59.2778 228.478 58.811 228.566 58.7226C228.674 58.6151 228.701 57.5963 228.649 55.6303C228.556 52.1743 228.432 50.657 228.241 50.657C228.165 50.657 228.103 50.3848 228.103 50.0522C228.103 49.7195 228.035 49.4473 227.951 49.4473C227.868 49.4473 227.8 49.2432 227.8 48.9937C227.8 48.7442 227.732 48.54 227.649 48.54C227.565 48.54 227.497 48.408 227.497 48.2465C227.497 48.085 227.429 47.911 227.346 47.8596C227.263 47.8081 227.194 47.6001 227.194 47.397C227.194 47.1939 227.138 47.0279 227.069 47.0279C226.999 47.0279 226.847 46.8407 226.73 46.612C226.426 46.0202 224.399 44.0036 224.108 44.0036C223.973 44.0036 223.863 43.9526 223.862 43.8902C223.861 43.7544 223.128 43.3987 222.849 43.3987C222.741 43.3987 222.652 43.3307 222.652 43.2475C222.652 43.1643 222.38 43.0963 222.047 43.0963C221.713 43.0963 221.441 43.0282 221.441 42.9451C221.441 42.8539 220.813 42.7939 219.86 42.7939C218.969 42.7939 218.238 42.8599 218.186 42.9451ZM35.8144 55.8032V68.2074L37.5934 68.1649L39.3725 68.1223L39.4114 58.1799C39.4468 49.1257 39.5301 47.1606 39.8102 48.7668C39.8609 49.0579 39.944 49.5349 39.9948 49.8267C40.0456 50.1185 40.1478 50.3948 40.2219 50.4405C40.2961 50.4863 40.3566 50.7577 40.3566 51.044C40.3566 51.3302 40.4173 51.5643 40.4915 51.5643C40.5656 51.5643 40.6678 51.8025 40.7186 52.0936C40.7694 52.3846 40.8523 52.861 40.9031 53.1521C40.9539 53.4431 41.0561 53.6813 41.1302 53.6813C41.2044 53.6813 41.2651 53.9535 41.2651 54.2862C41.2651 54.6188 41.3258 54.891 41.4 54.891C41.474 54.891 41.5762 55.1292 41.6271 55.4203C41.6778 55.7114 41.7608 56.1877 41.8115 56.4788C41.8624 56.7699 41.9646 57.008 42.0386 57.008C42.1128 57.008 42.1735 57.2802 42.1735 57.6129C42.1735 57.9456 42.2342 58.2178 42.3084 58.2178C42.3825 58.2178 42.4847 58.4559 42.5355 58.747C42.5863 59.0381 42.6692 59.5144 42.72 59.8055C42.7708 60.0966 42.873 60.3348 42.9471 60.3348C43.0213 60.3348 43.082 60.6069 43.082 60.9396C43.082 61.2723 43.1427 61.5445 43.2169 61.5445C43.2909 61.5445 43.3931 61.7826 43.444 62.0737C43.4947 62.3648 43.5777 62.8411 43.6284 63.1322C43.6793 63.4233 43.7815 63.6615 43.8555 63.6615C43.9297 63.6615 43.9904 63.9337 43.9904 64.2663C43.9904 64.599 44.0511 64.8712 44.1253 64.8712C44.1994 64.8712 44.3016 65.1094 44.3524 65.4004C44.4032 65.6915 44.4861 66.1679 44.5369 66.4589C44.5877 66.75 44.6857 66.9882 44.7549 66.9882C44.8241 66.9882 44.9018 67.2434 44.9276 67.5553L44.9746 68.1223L46.6022 68.1652L48.2299 68.2082V67.7583C48.2299 67.5109 48.298 67.2664 48.3813 67.215C48.4645 67.1636 48.5327 66.8875 48.5327 66.6012C48.5327 66.315 48.6008 66.0809 48.6841 66.0809C48.7674 66.0809 48.8355 65.8468 48.8355 65.5606C48.8355 65.2743 48.9036 64.9982 48.9869 64.9468C49.0702 64.8954 49.1383 64.6533 49.1383 64.4086C49.1383 64.164 49.2064 63.9639 49.2897 63.9639C49.373 63.9639 49.4411 63.7298 49.4411 63.4436C49.4411 63.1573 49.5093 62.8812 49.5925 62.8298C49.6758 62.7784 49.7439 62.5363 49.7439 62.2916C49.7439 62.047 49.8121 61.8469 49.8953 61.8469C49.9786 61.8469 50.0468 61.5747 50.0468 61.242C50.0468 60.9094 50.1149 60.6372 50.1982 60.6372C50.2814 60.6372 50.3496 60.4031 50.3496 60.1168C50.3496 59.8306 50.4177 59.5545 50.501 59.5031C50.5843 59.4517 50.6524 59.2096 50.6524 58.9649C50.6524 58.7202 50.7205 58.5202 50.8038 58.5202C50.8871 58.5202 50.9552 58.2861 50.9552 57.9998C50.9552 57.7136 51.0233 57.4375 51.1066 57.3861C51.1899 57.3347 51.258 57.0926 51.258 56.8479C51.258 56.6032 51.3262 56.4032 51.4094 56.4032C51.4927 56.4032 51.5608 56.131 51.5608 55.7983C51.5608 55.4656 51.629 55.1935 51.7122 55.1935C51.7955 55.1935 51.8637 54.9934 51.8637 54.7487C51.8637 54.5041 51.9318 54.262 52.0151 54.2106C52.0983 54.1592 52.1665 53.883 52.1665 53.5968C52.1665 53.3105 52.2346 53.0765 52.3179 53.0765C52.4012 53.0765 52.4693 52.8424 52.4693 52.5561C52.4693 52.2699 52.5374 51.9938 52.6207 51.9423C52.704 51.8909 52.7721 51.6488 52.7721 51.4042C52.7721 51.1595 52.8402 50.9595 52.9235 50.9595C53.0068 50.9595 53.0749 50.6873 53.0749 50.3546C53.0749 50.0219 53.1431 49.7497 53.2263 49.7497C53.3096 49.7497 53.3777 49.5497 53.3777 49.305C53.3777 49.0603 53.4459 48.8183 53.5291 48.7668C53.6124 48.7154 53.6806 48.5074 53.6806 48.3043C53.6806 48.1012 53.7487 47.9352 53.832 47.9352C53.9314 47.9352 53.9834 51.4131 53.9834 58.0665V68.1979H55.9517H57.92V55.7983V43.3987H54.8918C51.9952 43.3987 51.8637 43.4114 51.8637 43.6922C51.8637 43.8537 51.7955 44.0278 51.7122 44.0792C51.629 44.1306 51.5608 44.4067 51.5608 44.693C51.5608 44.9792 51.4927 45.2133 51.4094 45.2133C51.3262 45.2133 51.258 45.4134 51.258 45.658C51.258 45.9027 51.1899 46.1448 51.1066 46.1962C51.0233 46.2476 50.9552 46.5237 50.9552 46.81C50.9552 47.0962 50.8871 47.3303 50.8038 47.3303C50.7205 47.3303 50.6524 47.5304 50.6524 47.775C50.6524 48.0197 50.5843 48.2618 50.501 48.3132C50.4177 48.3646 50.3496 48.6407 50.3496 48.927C50.3496 49.2132 50.2814 49.4473 50.1982 49.4473C50.1149 49.4473 50.0468 49.6474 50.0468 49.892C50.0468 50.1367 49.9786 50.3788 49.8953 50.4302C49.8121 50.4816 49.7439 50.7577 49.7439 51.044C49.7439 51.3302 49.6832 51.5643 49.609 51.5643C49.535 51.5643 49.4328 51.8025 49.3819 52.0936C49.3312 52.3846 49.2482 52.861 49.1975 53.1521C49.1466 53.4431 49.052 53.6813 48.9869 53.6813C48.9218 53.6813 48.8272 53.9195 48.7763 54.2106C48.7256 54.5017 48.6426 54.978 48.5919 55.2691C48.541 55.5602 48.4388 55.7983 48.3648 55.7983C48.2906 55.7983 48.2299 56.0705 48.2299 56.4032C48.2299 56.7358 48.1617 57.008 48.0784 57.008C47.9952 57.008 47.927 57.2122 47.927 57.4617C47.927 57.7112 47.8589 57.9153 47.7756 57.9153C47.6924 57.9153 47.6242 58.1875 47.6242 58.5202C47.6242 58.8528 47.5561 59.125 47.4728 59.125C47.3895 59.125 47.3214 59.3292 47.3214 59.5787C47.3214 59.8282 47.2533 60.0323 47.17 60.0323C47.0867 60.0323 47.0186 60.2065 47.0186 60.4193C47.0186 60.6387 46.953 60.7659 46.8672 60.7128C46.7839 60.6614 46.7158 60.4193 46.7158 60.1746C46.7158 59.93 46.6476 59.7299 46.5644 59.7299C46.4811 59.7299 46.413 59.5258 46.413 59.2763C46.413 59.0267 46.3448 58.8226 46.2616 58.8226C46.1783 58.8226 46.1101 58.5504 46.1101 58.2178C46.1101 57.8851 46.0494 57.6129 45.9752 57.6129C45.9012 57.6129 45.799 57.3747 45.7481 57.0836C45.6974 56.7926 45.6144 56.3162 45.5637 56.0251C45.5128 55.7341 45.4106 55.4959 45.3366 55.4959C45.2624 55.4959 45.2017 55.2237 45.2017 54.891C45.2017 54.5584 45.1336 54.2862 45.0503 54.2862C44.967 54.2862 44.8989 54.082 44.8989 53.8325C44.8989 53.583 44.8307 53.3789 44.7475 53.3789C44.6642 53.3789 44.5961 53.1067 44.5961 52.774C44.5961 52.4414 44.5353 52.1692 44.4612 52.1692C44.3871 52.1692 44.2828 51.9141 44.2297 51.6021C43.9944 50.2218 43.9497 50.0522 43.8225 50.0522C43.7483 50.0522 43.6876 49.78 43.6876 49.4473C43.6876 49.1146 43.6269 48.8424 43.5527 48.8424C43.4787 48.8424 43.3765 48.6043 43.3256 48.3132C43.2749 48.0221 43.1919 47.5458 43.1412 47.2547C43.0903 46.9636 42.9881 46.7254 42.9141 46.7254C42.8399 46.7254 42.7792 46.4533 42.7792 46.1206C42.7792 45.7879 42.711 45.5157 42.6278 45.5157C42.5445 45.5157 42.4763 45.3116 42.4763 45.0621C42.4763 44.8126 42.4082 44.6084 42.3249 44.6084C42.2417 44.6084 42.1735 44.3363 42.1735 44.0036V43.3987H38.994H35.8144V55.8032ZM67.3073 43.7012C67.3073 43.8675 67.2392 44.0036 67.1559 44.0036C67.0726 44.0036 67.0045 44.2077 67.0045 44.4572C67.0045 44.7067 66.9363 44.9109 66.8531 44.9109C66.7698 44.9109 66.7017 45.1449 66.7017 45.4312C66.7017 45.7174 66.6335 45.9936 66.5503 46.045C66.467 46.0964 66.3988 46.3385 66.3988 46.5831C66.3988 46.8278 66.3381 47.0279 66.2639 47.0279C66.1899 47.0279 66.0877 47.266 66.0368 47.5571C65.9861 47.8482 65.9031 48.3245 65.8524 48.6156C65.8015 48.9067 65.6993 49.1449 65.6253 49.1449C65.5511 49.1449 65.4904 49.3449 65.4904 49.5896C65.4904 49.8343 65.4223 50.0764 65.339 50.1278C65.2557 50.1792 65.1876 50.4553 65.1876 50.7416C65.1876 51.0278 65.1194 51.2619 65.0362 51.2619C64.9529 51.2619 64.8848 51.4619 64.8848 51.7066C64.8848 51.9513 64.8166 52.1934 64.7334 52.2448C64.6501 52.2962 64.5819 52.5723 64.5819 52.8586C64.5819 53.1448 64.5138 53.3789 64.4305 53.3789C64.3473 53.3789 64.2791 53.5789 64.2791 53.8236C64.2791 54.0683 64.211 54.3104 64.1277 54.3618C64.0444 54.4132 63.9763 54.6893 63.9763 54.9756C63.9763 55.2618 63.9082 55.4959 63.8249 55.4959C63.7416 55.4959 63.6735 55.7 63.6735 55.9495C63.6735 56.199 63.6054 56.4032 63.5221 56.4032C63.4388 56.4032 63.3707 56.6754 63.3707 57.008C63.3707 57.3407 63.3025 57.6129 63.2193 57.6129C63.136 57.6129 63.0679 57.817 63.0679 58.0665C63.0679 58.316 62.9997 58.5202 62.9165 58.5202C62.8332 58.5202 62.765 58.7924 62.765 59.125C62.765 59.4577 62.6969 59.7299 62.6136 59.7299C62.5304 59.7299 62.4622 59.934 62.4622 60.1835C62.4622 60.433 62.4015 60.6372 62.3273 60.6372C62.2533 60.6372 62.1511 60.8753 62.1002 61.1664C62.0495 61.4575 61.9665 61.9338 61.9158 62.2249C61.8649 62.516 61.7703 62.7542 61.7052 62.7542C61.6401 62.7542 61.5455 62.9923 61.4946 63.2834C61.4439 63.5745 61.3609 64.0508 61.3102 64.3419C61.2593 64.633 61.1571 64.8712 61.0831 64.8712C61.0089 64.8712 60.9482 65.0753 60.9482 65.3248C60.9482 65.5743 60.88 65.7785 60.7967 65.7785C60.7135 65.7785 60.6453 66.0449 60.6453 66.3708C60.6453 66.6965 60.5836 66.9856 60.5079 67.0134C60.4323 67.0411 60.3472 67.302 60.3186 67.593L60.2668 68.1223L62.273 68.1645L64.2791 68.2067V67.7576C64.2791 67.5106 64.3473 67.2664 64.4305 67.215C64.5138 67.1636 64.5819 66.8914 64.5819 66.6102C64.5819 66.3289 64.6501 66.0567 64.7334 66.0053C64.8166 65.9539 64.8848 65.6477 64.8848 65.3248C64.8848 65.002 64.9529 64.6958 65.0362 64.6444C65.1194 64.593 65.1876 64.3208 65.1876 64.0395C65.1876 63.7583 65.2557 63.4861 65.339 63.4347C65.4223 63.3832 65.4904 63.1154 65.4904 62.8393C65.4904 61.9896 65.6038 61.9641 69.2785 61.9893C71.1157 62.002 72.7183 62.0504 72.8398 62.097C72.9812 62.1511 73.0608 62.3938 73.0608 62.7704C73.0608 63.0941 73.1289 63.359 73.2122 63.359C73.2955 63.359 73.3636 63.6312 73.3636 63.9639C73.3636 64.2966 73.4318 64.5688 73.515 64.5688C73.5983 64.5688 73.6664 64.8409 73.6664 65.1736C73.6664 65.5063 73.7346 65.7785 73.8178 65.7785C73.9011 65.7785 73.9693 66.0507 73.9693 66.3833C73.9693 66.716 74.0333 66.9882 74.1116 66.9882C74.1897 66.9882 74.275 67.2434 74.3008 67.5553L74.3478 68.1223L76.3081 68.1648C77.3862 68.1882 78.3489 68.1764 78.4475 68.1388C78.5784 68.0886 78.5878 67.8943 78.4824 67.4157C78.4031 67.0558 78.3017 66.5403 78.2568 66.2699C78.2122 65.9995 78.1148 65.7785 78.0408 65.7785C77.9666 65.7785 77.9059 65.5063 77.9059 65.1736C77.9059 64.8409 77.8377 64.5688 77.7545 64.5688C77.6712 64.5688 77.6031 64.2966 77.6031 63.9639C77.6031 63.6312 77.5424 63.359 77.4682 63.359C77.3941 63.359 77.2898 63.1039 77.2367 62.792C77.0014 61.4117 76.9567 61.242 76.8295 61.242C76.7553 61.242 76.6946 60.9699 76.6946 60.6372C76.6946 60.3045 76.6265 60.0323 76.5432 60.0323C76.4599 60.0323 76.3918 59.7601 76.3918 59.4275C76.3918 59.0948 76.3311 58.8226 76.2569 58.8226C76.1829 58.8226 76.0807 58.5844 76.0298 58.2934C75.9791 58.0023 75.8961 57.5259 75.8454 57.2349C75.7945 56.9438 75.6923 56.7056 75.6182 56.7056C75.5441 56.7056 75.4833 56.4334 75.4833 56.1007C75.4833 55.7681 75.4226 55.4959 75.3484 55.4959C75.2744 55.4959 75.1701 55.2408 75.1169 54.9288C74.8816 53.5485 74.837 53.3789 74.7098 53.3789C74.6356 53.3789 74.5749 53.1067 74.5749 52.774C74.5749 52.4414 74.5068 52.1692 74.4235 52.1692C74.3402 52.1692 74.2721 51.897 74.2721 51.5643C74.2721 51.2316 74.2114 50.9595 74.1372 50.9595C74.0631 50.9595 73.9588 50.7044 73.9057 50.3924C73.6704 49.0121 73.6257 48.8424 73.4985 48.8424C73.4243 48.8424 73.3636 48.5703 73.3636 48.2376C73.3636 47.9049 73.2955 47.6327 73.2122 47.6327C73.1289 47.6327 73.0608 47.3987 73.0608 47.1124C73.0608 46.8262 73.0002 46.5547 72.9261 46.5089C72.852 46.4632 72.7498 46.187 72.6989 45.8951C72.6482 45.6033 72.5651 45.1264 72.5144 44.8353C72.4635 44.5442 72.3613 44.306 72.2873 44.306C72.2131 44.306 72.1524 44.1019 72.1524 43.8524V43.3987H69.7298C67.4083 43.3987 67.3073 43.4113 67.3073 43.7012ZM81.1224 55.7605L81.1612 68.1223L83.1655 68.1645L85.1697 68.2067L85.2095 62.6452L85.2492 57.0836L88.8451 57.0431L92.4411 57.0026V62.6002V68.1979H94.5608H96.6805V55.7983V43.3987H94.5608H92.4411V48.54V53.6813H88.989C86.5059 53.6813 85.4858 53.6304 85.3552 53.4999C85.2212 53.366 85.1735 52.0146 85.1735 48.3586V43.3987H83.1286H81.0836L81.1224 55.7605ZM100.92 55.7983V68.1979H103.04H105.159V62.603V57.008H108.793H112.427V62.6072V68.2064L114.509 68.1643L116.591 68.1223L116.629 55.7605L116.668 43.3987H114.55H112.431L112.391 48.5022L112.351 53.6057L108.755 53.6462L105.159 53.6868V48.5427V43.3987H103.04H100.92V55.7983ZM133.018 55.7983V68.1979H135.138H137.258V67.2362C137.258 66.4503 137.348 66.098 137.75 65.3082C138.021 64.7768 138.293 64.3193 138.356 64.2916C138.418 64.2638 138.469 64.1107 138.469 63.9513C138.469 63.792 138.537 63.6615 138.621 63.6615C138.704 63.6615 138.772 63.5254 138.772 63.359C138.772 63.1927 138.84 63.0566 138.923 63.0566C139.007 63.0566 139.075 62.9205 139.075 62.7542C139.075 62.5878 139.143 62.4518 139.226 62.4518C139.309 62.4518 139.378 62.3157 139.378 62.1493C139.378 61.983 139.446 61.8469 139.529 61.8469C139.612 61.8469 139.68 61.7108 139.68 61.5445C139.68 61.3781 139.749 61.242 139.832 61.242C139.915 61.242 139.983 61.1059 139.983 60.9396C139.983 60.7733 140.051 60.6372 140.135 60.6372C140.218 60.6372 140.286 60.5011 140.286 60.3348C140.286 60.1684 140.354 60.0323 140.437 60.0323C140.521 60.0323 140.589 59.8962 140.589 59.7299C140.589 59.5636 140.657 59.4275 140.74 59.4275C140.824 59.4275 140.892 59.2914 140.892 59.125C140.892 58.9587 140.96 58.8226 141.043 58.8226C141.126 58.8226 141.195 58.6865 141.195 58.5202C141.195 58.3538 141.263 58.2178 141.346 58.2178C141.429 58.2178 141.497 58.0817 141.497 57.9153C141.497 57.749 141.565 57.6129 141.649 57.6129C141.732 57.6129 141.8 57.4768 141.8 57.3105C141.8 57.1441 141.868 57.008 141.952 57.008C142.035 57.008 142.103 56.8775 142.103 56.7182C142.103 56.5588 142.154 56.4057 142.217 56.3779C142.364 56.3124 142.723 55.6893 143.421 54.2862C143.731 53.6624 144.039 53.1294 144.104 53.1017C144.169 53.0739 144.223 52.9209 144.223 52.7615C144.223 52.6021 144.291 52.4716 144.374 52.4716C144.457 52.4716 144.525 52.3355 144.525 52.1692C144.525 52.0028 144.594 51.8667 144.677 51.8667C144.76 51.8667 144.828 51.6626 144.828 51.4131C144.828 51.1636 144.879 50.9595 144.942 50.9595C145.004 50.9595 145.055 54.821 145.055 59.5409V68.1223H147.175H149.295L149.33 55.7605L149.366 43.3987H147.173H144.98V44.2008C144.98 44.7665 144.86 45.2454 144.572 45.8263C144.348 46.2792 144.11 46.6725 144.043 46.7002C143.975 46.728 143.92 46.881 143.92 47.0404C143.92 47.1998 143.852 47.3303 143.768 47.3303C143.685 47.3303 143.617 47.4664 143.617 47.6327C143.617 47.7991 143.549 47.9352 143.466 47.9352C143.382 47.9352 143.314 48.0713 143.314 48.2376C143.314 48.4039 143.246 48.54 143.163 48.54C143.08 48.54 143.011 48.6761 143.011 48.8424C143.011 49.0088 142.943 49.1449 142.86 49.1449C142.777 49.1449 142.709 49.281 142.709 49.4473C142.709 49.6136 142.64 49.7497 142.557 49.7497C142.474 49.7497 142.406 49.8858 142.406 50.0522C142.406 50.2185 142.338 50.3546 142.254 50.3546C142.171 50.3546 142.103 50.4907 142.103 50.657C142.103 50.8234 142.035 50.9595 141.952 50.9595C141.868 50.9595 141.8 51.0955 141.8 51.2619C141.8 51.4282 141.732 51.5643 141.649 51.5643C141.565 51.5643 141.497 51.7004 141.497 51.8667C141.497 52.0331 141.445 52.1692 141.38 52.1692C141.315 52.1692 140.96 52.7647 140.591 53.4923C140.222 54.2201 139.866 54.8381 139.8 54.8658C139.734 54.8936 139.68 55.0466 139.68 55.206C139.68 55.3654 139.612 55.4959 139.529 55.4959C139.446 55.4959 139.378 55.632 139.378 55.7983C139.378 55.9646 139.309 56.1007 139.226 56.1007C139.143 56.1007 139.075 56.2368 139.075 56.4032C139.075 56.5695 139.007 56.7056 138.923 56.7056C138.84 56.7056 138.772 56.8417 138.772 57.008C138.772 57.1744 138.704 57.3105 138.621 57.3105C138.537 57.3105 138.469 57.4466 138.469 57.6129C138.469 57.7792 138.401 57.9153 138.318 57.9153C138.234 57.9153 138.166 58.0514 138.166 58.2178C138.166 58.3841 138.098 58.5202 138.015 58.5202C137.932 58.5202 137.864 58.6563 137.864 58.8226C137.864 58.9889 137.795 59.125 137.712 59.125C137.629 59.125 137.561 59.2611 137.561 59.4275C137.561 59.5938 137.493 59.7299 137.409 59.7299C137.31 59.7299 137.258 56.9072 137.258 51.5643V43.3987H135.138H133.018V55.7983ZM153.307 55.7986V68.2056L158.493 68.1433C163.646 68.0815 165.117 67.9894 165.117 67.729C165.117 67.6543 165.321 67.593 165.571 67.593C165.821 67.593 166.025 67.525 166.025 67.4418C166.025 67.3587 166.162 67.2906 166.328 67.2906C166.495 67.2906 166.631 67.2341 166.631 67.165C166.631 67.0959 166.818 66.9431 167.047 66.8255C167.559 66.5627 168.448 65.6395 168.448 65.3709C168.448 65.2624 168.516 65.1736 168.599 65.1736C168.683 65.1736 168.751 65.0375 168.751 64.8712C168.751 64.7049 168.819 64.5688 168.902 64.5688C168.986 64.5688 169.054 64.4327 169.054 64.2663C169.054 64.1 169.122 63.9639 169.205 63.9639C169.288 63.9639 169.356 63.7298 169.356 63.4436C169.356 63.1573 169.425 62.8812 169.508 62.8298C169.594 62.7767 169.659 62.0217 169.659 61.0819C169.659 60.0798 169.6 59.4275 169.508 59.4275C169.425 59.4275 169.356 59.2233 169.356 58.9738C169.356 58.7243 169.288 58.5202 169.205 58.5202C169.122 58.5202 169.054 58.3841 169.054 58.2178C169.054 58.0514 168.986 57.9153 168.902 57.9153C168.819 57.9153 168.751 57.8117 168.751 57.6852C168.751 57.3858 167.161 55.7983 166.862 55.7983C166.735 55.7983 166.631 55.7303 166.631 55.6471C166.631 55.5639 166.546 55.4944 166.442 55.4926C166.338 55.4907 166.082 55.3562 165.874 55.1935C165.567 54.9538 165.546 54.8971 165.761 54.8944C165.906 54.8925 166.025 54.823 166.025 54.7398C166.025 54.6566 166.129 54.5886 166.256 54.5886C166.556 54.5886 168.145 53.0011 168.145 52.7017C168.145 52.5752 168.213 52.4716 168.297 52.4716C168.38 52.4716 168.448 52.3355 168.448 52.1692C168.448 52.0028 168.516 51.8667 168.599 51.8667C168.683 51.8667 168.751 51.4665 168.751 50.9684C168.751 50.4742 168.819 50.028 168.902 49.9766C168.986 49.9251 169.054 49.7171 169.054 49.514C169.054 49.3109 168.986 49.1449 168.902 49.1449C168.818 49.1449 168.751 48.7416 168.751 48.2376C168.751 47.7336 168.684 47.3303 168.599 47.3303C168.516 47.3303 168.448 47.1262 168.448 46.8767C168.448 46.6272 168.38 46.423 168.297 46.423C168.213 46.423 168.145 46.3146 168.145 46.1821C168.145 45.8687 166.278 44.0036 165.964 44.0036C165.831 44.0036 165.723 43.9429 165.723 43.8689C165.723 43.5864 164.411 43.5052 158.947 43.4492L153.307 43.3916V55.7986ZM178.025 43.6249C177.921 43.743 177.835 44.0127 177.835 44.2241C177.835 44.4355 177.767 44.6084 177.684 44.6084C177.601 44.6084 177.533 44.8806 177.533 45.2133C177.533 45.546 177.464 45.8182 177.381 45.8182C177.298 45.8182 177.23 46.0223 177.23 46.2718C177.23 46.5213 177.162 46.7254 177.078 46.7254C176.995 46.7254 176.927 46.9976 176.927 47.3303C176.927 47.663 176.859 47.9352 176.775 47.9352C176.692 47.9352 176.624 48.1393 176.624 48.3888C176.624 48.6383 176.563 48.8424 176.489 48.8424C176.415 48.8424 176.313 49.0806 176.262 49.3717C176.211 49.6628 176.128 50.1391 176.078 50.4302C176.027 50.7213 175.925 50.9595 175.851 50.9595C175.776 50.9595 175.716 51.1636 175.716 51.4131C175.716 51.6626 175.647 51.8667 175.564 51.8667C175.481 51.8667 175.413 52.1389 175.413 52.4716C175.413 52.8043 175.345 53.0765 175.261 53.0765C175.178 53.0765 175.11 53.2806 175.11 53.5301C175.11 53.7796 175.042 53.9837 174.959 53.9837C174.875 53.9837 174.807 54.2559 174.807 54.5886C174.807 54.9213 174.739 55.1935 174.656 55.1935C174.572 55.1935 174.504 55.3976 174.504 55.6471C174.504 55.8966 174.436 56.1007 174.353 56.1007C174.27 56.1007 174.202 56.3729 174.202 56.7056C174.202 57.0383 174.133 57.3105 174.05 57.3105C173.967 57.3105 173.899 57.5105 173.899 57.7552C173.899 57.9998 173.831 58.2419 173.747 58.2934C173.664 58.3448 173.596 58.6209 173.596 58.9071C173.596 59.1934 173.528 59.4275 173.444 59.4275C173.361 59.4275 173.293 59.6316 173.293 59.8811C173.293 60.1306 173.225 60.3348 173.142 60.3348C173.058 60.3348 172.99 60.6069 172.99 60.9396C172.99 61.2723 172.922 61.5445 172.839 61.5445C172.756 61.5445 172.687 61.7486 172.687 61.9981C172.687 62.2476 172.627 62.4518 172.553 62.4518C172.479 62.4518 172.376 62.6899 172.325 62.981C172.275 63.2721 172.192 63.7484 172.141 64.0395C172.09 64.3306 171.996 64.5688 171.93 64.5688C171.865 64.5688 171.771 64.8069 171.72 65.098C171.669 65.3891 171.586 65.8654 171.535 66.1565C171.485 66.4476 171.382 66.6858 171.308 66.6858C171.234 66.6858 171.173 66.8858 171.173 67.1305C171.173 67.3752 171.105 67.6172 171.022 67.6687C170.939 67.7201 170.871 67.8621 170.871 67.9842C170.871 68.171 171.203 68.1997 172.952 68.1643L175.034 68.1223L175.083 67.593C175.11 67.302 175.195 66.9991 175.272 66.9201C175.35 66.8411 175.413 66.522 175.413 66.2108C175.413 65.8996 175.481 65.6031 175.564 65.5517C175.647 65.5002 175.716 65.2281 175.716 64.9468C175.716 64.6655 175.784 64.3933 175.867 64.3419C175.95 64.2905 176.018 64.0183 176.018 63.7371C176.018 63.4558 176.087 63.1836 176.17 63.1322C176.253 63.0808 176.321 62.846 176.321 62.6102C176.321 62.3589 176.42 62.1437 176.561 62.0899C176.693 62.0394 178.328 61.9981 180.195 61.9981C183.111 61.9981 183.589 62.03 183.589 62.2249C183.589 62.3497 183.657 62.4518 183.74 62.4518C183.824 62.4518 183.892 62.7239 183.892 63.0566C183.892 63.3893 183.96 63.6615 184.043 63.6615C184.126 63.6615 184.194 63.9337 184.194 64.2663C184.194 64.599 184.263 64.8712 184.346 64.8712C184.429 64.8712 184.497 65.1434 184.497 65.476C184.497 65.8087 184.565 66.0809 184.649 66.0809C184.732 66.0809 184.8 66.3531 184.8 66.6858C184.8 67.0184 184.868 67.2906 184.952 67.2906C185.035 67.2906 185.103 67.4948 185.103 67.7443V68.1979H187.239H189.376L189.283 67.6687C189.232 67.3776 189.149 66.9012 189.099 66.6102C189.048 66.3191 188.946 66.0809 188.872 66.0809C188.797 66.0809 188.737 65.8087 188.737 65.476C188.737 65.1434 188.669 64.8712 188.585 64.8712C188.502 64.8712 188.434 64.599 188.434 64.2663C188.434 63.9337 188.373 63.6615 188.299 63.6615C188.225 63.6615 188.121 63.4064 188.068 63.0944C187.832 61.7141 187.788 61.5445 187.66 61.5445C187.586 61.5445 187.525 61.2723 187.525 60.9396C187.525 60.6069 187.457 60.3348 187.374 60.3348C187.291 60.3348 187.223 60.0626 187.223 59.7299C187.223 59.3972 187.162 59.125 187.088 59.125C187.014 59.125 186.911 58.8869 186.861 58.5958C186.81 58.3047 186.727 57.8284 186.676 57.5373C186.625 57.2462 186.523 57.008 186.449 57.008C186.375 57.008 186.314 56.7358 186.314 56.4032C186.314 56.0705 186.253 55.7983 186.179 55.7983C186.105 55.7983 186.001 55.5432 185.948 55.2313C185.712 53.851 185.668 53.6813 185.541 53.6813C185.466 53.6813 185.406 53.4091 185.406 53.0765C185.406 52.7438 185.338 52.4716 185.254 52.4716C185.171 52.4716 185.103 52.1994 185.103 51.8667C185.103 51.5341 185.042 51.2619 184.968 51.2619C184.894 51.2619 184.79 51.0068 184.737 50.6948C184.501 49.3145 184.457 49.1449 184.329 49.1449C184.255 49.1449 184.194 48.8727 184.194 48.54C184.194 48.2073 184.126 47.9352 184.043 47.9352C183.96 47.9352 183.892 47.663 183.892 47.3303C183.892 46.9976 183.831 46.7254 183.757 46.7254C183.683 46.7254 183.581 46.4873 183.53 46.1962C183.479 45.9051 183.396 45.4288 183.345 45.1377C183.294 44.8466 183.192 44.6084 183.118 44.6084C183.044 44.6084 182.983 44.3363 182.983 44.0036V43.3987L180.599 43.4045C178.734 43.409 178.173 43.4571 178.025 43.6249ZM191.765 55.7983V68.1979H193.885H196.004V62.603V57.008H199.638H203.272V62.603V68.1979H205.392H207.511V55.7983V43.3987H205.392H203.272V48.54V53.6813H199.638H196.004V48.54V43.3987H193.885H191.765V55.7983ZM232.039 55.8021V68.2056L237.225 68.1433C242.378 68.0815 243.849 67.9894 243.849 67.729C243.849 67.6543 244.054 67.593 244.304 67.593C244.553 67.593 244.758 67.525 244.758 67.4418C244.758 67.3587 244.847 67.2906 244.956 67.2906C245.066 67.2906 245.287 67.1715 245.448 67.026C245.61 66.8805 245.922 66.6688 246.142 66.5557C246.361 66.4426 246.634 66.1704 246.746 65.9509C246.859 65.7313 247.071 65.4416 247.217 65.3071C247.363 65.1726 247.483 64.9515 247.483 64.8157C247.483 64.6799 247.551 64.5688 247.635 64.5688C247.718 64.5688 247.786 64.4027 247.786 64.1996C247.786 63.9966 247.854 63.7885 247.937 63.7371C248.021 63.6857 248.089 63.4135 248.089 63.1322C248.089 62.851 248.157 62.5788 248.24 62.5274C248.323 62.4759 248.392 61.8256 248.392 61.0819C248.392 60.2814 248.33 59.7299 248.24 59.7299C248.157 59.7299 248.089 59.5927 248.089 59.425C248.089 58.9992 247.736 57.9153 247.598 57.9153C247.535 57.9153 247.483 57.8223 247.483 57.7088C247.483 57.4154 245.892 55.7983 245.604 55.7983C245.472 55.7983 245.363 55.7474 245.362 55.6849C245.361 55.5491 244.628 55.1935 244.349 55.1935C244.241 55.1935 244.152 55.1254 244.152 55.0422C244.152 54.9591 244.288 54.891 244.455 54.891C244.622 54.891 244.758 54.823 244.758 54.7398C244.758 54.6566 244.851 54.5886 244.965 54.5886C245.258 54.5886 246.877 52.9998 246.877 52.7114C246.877 52.5796 246.946 52.4716 247.029 52.4716C247.112 52.4716 247.18 52.2675 247.18 52.018C247.18 51.7684 247.248 51.5643 247.332 51.5643C247.425 51.5643 247.483 50.8082 247.483 49.5985C247.483 48.3888 247.425 47.6327 247.332 47.6327C247.248 47.6327 247.18 47.4286 247.18 47.1791C247.18 46.9296 247.112 46.7254 247.029 46.7254C246.946 46.7254 246.877 46.5894 246.877 46.423C246.877 46.2567 246.809 46.1206 246.726 46.1206C246.643 46.1206 246.575 46.017 246.575 45.8904C246.575 45.7639 246.217 45.3046 245.78 44.8697C245.169 44.262 244.753 44.0006 243.981 43.739C243.013 43.411 242.781 43.3987 237.508 43.3987H232.039V55.8021ZM257.476 55.7983V68.1979H259.596H261.716V66.9882C261.716 66.2825 261.779 65.7785 261.867 65.7785C261.95 65.7785 262.018 65.6424 262.018 65.476C262.018 65.3097 262.086 65.1736 262.17 65.1736C262.253 65.1736 262.321 65.0375 262.321 64.8712C262.321 64.7049 262.389 64.5688 262.473 64.5688C262.556 64.5688 262.624 64.4327 262.624 64.2663C262.624 64.1 262.692 63.9639 262.775 63.9639C262.859 63.9639 262.927 63.8278 262.927 63.6615C262.927 63.4951 262.995 63.359 263.078 63.359C263.161 63.359 263.23 63.223 263.23 63.0566C263.23 62.8903 263.298 62.7542 263.381 62.7542C263.464 62.7542 263.532 62.6181 263.532 62.4518C263.532 62.2854 263.601 62.1493 263.684 62.1493C263.767 62.1493 263.835 62.0132 263.835 61.8469C263.835 61.6806 263.903 61.5445 263.987 61.5445C264.07 61.5445 264.138 61.4084 264.138 61.242C264.138 61.0757 264.197 60.9396 264.268 60.9396C264.34 60.9396 264.764 60.2082 265.212 59.3141C265.66 58.4199 266.079 57.6658 266.142 57.6381C266.206 57.6103 266.258 57.4573 266.258 57.2979C266.258 57.1385 266.326 57.008 266.409 57.008C266.492 57.008 266.561 56.8719 266.561 56.7056C266.561 56.5393 266.629 56.4032 266.712 56.4032C266.795 56.4032 266.863 56.2671 266.863 56.1007C266.863 55.9344 266.932 55.7983 267.015 55.7983C267.098 55.7983 267.166 55.6622 267.166 55.4959C267.166 55.3296 267.234 55.1935 267.318 55.1935C267.401 55.1935 267.469 55.0574 267.469 54.891C267.469 54.7247 267.537 54.5886 267.62 54.5886C267.704 54.5886 267.772 54.4525 267.772 54.2862C267.772 54.1198 267.84 53.9837 267.923 53.9837C268.007 53.9837 268.075 53.8476 268.075 53.6813C268.075 53.515 268.143 53.3789 268.226 53.3789C268.309 53.3789 268.377 53.2428 268.377 53.0765C268.377 52.9101 268.446 52.774 268.529 52.774C268.612 52.774 268.68 52.6379 268.68 52.4716C268.68 52.3053 268.748 52.1692 268.832 52.1692C268.915 52.1692 268.983 52.0331 268.983 51.8667C268.983 51.7004 269.051 51.5643 269.134 51.5643C269.218 51.5643 269.286 51.4323 269.286 51.2708C269.286 51.1093 269.361 50.9309 269.453 50.874C269.572 50.8005 269.589 51.005 269.512 51.5834C269.452 52.0304 269.376 55.9513 269.342 60.2969L269.281 68.1979H271.403H273.525V55.7983V43.3987H271.406H269.286V44.4572C269.286 45.0621 269.221 45.5157 269.134 45.5157C269.051 45.5157 268.983 45.6518 268.983 45.8182C268.983 45.9845 268.915 46.1206 268.832 46.1206C268.748 46.1206 268.68 46.2567 268.68 46.423C268.68 46.5894 268.612 46.7254 268.529 46.7254C268.446 46.7254 268.377 46.8559 268.377 47.0153C268.377 47.1747 268.32 47.3277 268.25 47.3556C268.18 47.3832 267.825 47.9843 267.461 48.6912C267.097 49.3982 266.745 49.9992 266.68 50.0269C266.614 50.0547 266.561 50.2078 266.561 50.3671C266.561 50.5265 266.492 50.657 266.409 50.657C266.326 50.657 266.258 50.7931 266.258 50.9595C266.258 51.1258 266.19 51.2619 266.106 51.2619C266.023 51.2619 265.955 51.398 265.955 51.5643C265.955 51.7306 265.887 51.8667 265.804 51.8667C265.72 51.8667 265.652 52.0028 265.652 52.1692C265.652 52.3355 265.584 52.4716 265.501 52.4716C265.417 52.4716 265.349 52.6077 265.349 52.774C265.349 52.9404 265.281 53.0765 265.198 53.0765C265.115 53.0765 265.046 53.2125 265.046 53.3789C265.046 53.5452 264.978 53.6813 264.895 53.6813C264.812 53.6813 264.744 53.8174 264.744 53.9837C264.744 54.1501 264.676 54.2862 264.592 54.2862C264.509 54.2862 264.441 54.4223 264.441 54.5886C264.441 54.7549 264.373 54.891 264.289 54.891C264.206 54.891 264.138 55.0215 264.138 55.1809C264.138 55.3403 264.081 55.4933 264.011 55.5211C263.941 55.5488 263.586 56.1499 263.221 56.8568C262.857 57.5637 262.506 58.1648 262.44 58.1925C262.375 58.2203 262.321 58.3733 262.321 58.5327C262.321 58.6921 262.253 58.8226 262.17 58.8226C262.086 58.8226 262.018 59.0308 262.018 59.2852C262.018 59.5551 261.955 59.7089 261.867 59.6543C261.784 59.6029 261.716 59.667 261.716 59.7966C261.716 59.9262 261.647 60.0323 261.564 60.0323C261.481 60.0323 261.413 59.9684 261.413 59.89C261.413 59.8117 261.481 59.7057 261.564 59.6543C261.662 59.5938 261.716 56.7041 261.716 51.4798V43.3987H259.596H257.476V55.7983ZM307.441 55.7983V68.1979H314.708H321.976V66.3833V64.5688H316.826H311.675L311.715 60.8262L311.756 57.0836L315.768 57.008L319.781 56.9324L319.824 55.3069L319.867 53.6813H315.943C312.797 53.6813 311.986 53.64 311.847 53.4731C311.726 53.3278 311.686 52.2895 311.715 50.033L311.756 46.801L316.828 46.7254L321.9 46.6498L321.943 45.0243L321.986 43.3987H314.714H307.441V55.7983ZM324.587 55.7605L324.626 68.1223L326.632 68.1645L328.638 68.2067V63.3705V58.5342L331.098 58.4653C333.787 58.39 334.997 58.2614 334.997 58.0513C334.997 57.9766 335.202 57.9153 335.451 57.9153C335.701 57.9153 335.906 57.8557 335.906 57.783C335.906 57.7103 336.104 57.6111 336.346 57.5627C336.589 57.5141 336.961 57.3015 337.172 57.0901C337.384 56.8786 337.621 56.7056 337.698 56.7056C337.776 56.7056 337.96 56.5184 338.109 56.2898C338.257 56.0611 338.504 55.7638 338.656 55.6294C338.809 55.4948 338.934 55.2738 338.934 55.138C338.934 55.0022 339.002 54.891 339.085 54.891C339.168 54.891 339.237 54.7549 339.237 54.5886C339.237 54.4223 339.305 54.2862 339.388 54.2862C339.471 54.2862 339.539 54.0616 339.539 53.7872C339.539 53.5127 339.611 53.2163 339.699 53.1288C339.802 53.0255 339.835 52.2281 339.791 50.8681C339.72 48.6309 339.59 47.6327 339.371 47.6327C339.297 47.6327 339.237 47.4966 339.237 47.3303C339.237 47.164 339.168 47.0279 339.085 47.0279C339.002 47.0279 338.934 46.8918 338.934 46.7254C338.934 46.5591 338.877 46.423 338.808 46.423C338.739 46.423 338.585 46.2358 338.467 46.0072C338.194 45.4782 337.76 45.0448 337.23 44.7719C337.001 44.654 336.814 44.5008 336.814 44.4317C336.814 44.3626 336.678 44.306 336.511 44.306C336.345 44.306 336.208 44.2546 336.208 44.1915C336.208 44.0533 335.123 43.7012 334.697 43.7012C334.529 43.7012 334.391 43.6331 334.391 43.5499C334.391 43.4523 332.65 43.3987 329.47 43.3987H324.548L324.587 55.7605ZM342.568 55.7968V68.1979H348.018C351.551 68.1979 353.469 68.1447 353.469 68.0467C353.469 67.9635 353.741 67.8955 354.075 67.8955C354.408 67.8955 354.68 67.8274 354.68 67.7443C354.68 67.6611 354.816 67.593 354.983 67.593C355.15 67.593 355.286 67.5365 355.286 67.4674C355.286 67.3983 355.473 67.2451 355.701 67.1272C356.233 66.8521 356.966 66.1199 357.242 65.5884C357.36 65.3602 357.513 65.1736 357.582 65.1736C357.652 65.1736 357.708 65.0416 357.708 64.8801C357.708 64.7186 357.776 64.5446 357.86 64.4932C357.943 64.4417 358.011 64.2337 358.011 64.0306C358.011 63.8275 358.079 63.6615 358.163 63.6615C358.246 63.6615 358.314 63.3934 358.314 63.0655C358.314 62.7377 358.382 62.4276 358.465 62.3761C358.552 62.3226 358.617 61.543 358.617 60.5527C358.617 59.5 358.557 58.8226 358.465 58.8226C358.382 58.8226 358.314 58.6855 358.314 58.5178C358.314 58.0919 357.961 57.008 357.823 57.008C357.76 57.008 357.708 56.8869 357.708 56.739C357.708 56.591 357.572 56.3719 357.406 56.252C357.239 56.132 357.103 55.9438 357.103 55.8337C357.103 55.5741 356.419 54.891 356.159 54.891C356.049 54.891 355.86 54.7549 355.74 54.5886C355.62 54.4223 355.401 54.2862 355.252 54.2862C355.104 54.2862 354.983 54.2181 354.983 54.135C354.983 54.0518 354.779 53.9837 354.529 53.9837C354.279 53.9837 354.075 53.9157 354.075 53.8325C354.075 53.7494 353.802 53.6813 353.469 53.6813C353.136 53.6813 352.863 53.6133 352.863 53.5301C352.863 53.4344 351.753 53.3789 349.835 53.3789H346.807V50.0522V46.7254H351.778H356.749L356.922 46.3852C357.022 46.1897 357.081 45.4983 357.061 44.7597L357.027 43.4743L349.797 43.435L342.568 43.3958V55.7968ZM361.948 55.7998V68.2008L369.178 68.1616L376.407 68.1223L376.45 66.5669C376.484 65.3593 376.444 64.9621 376.272 64.7901C376.086 64.6049 375.247 64.5688 371.119 64.5688H366.187V60.7884V57.008H370.124H374.06V55.3447V53.6813H370.124H366.187V50.2034V46.7254H371.184H376.18V45.0621V43.3987H369.064H361.948V55.7998ZM378.905 55.7983V68.1979H381.025H383.145V63.3665V58.535L385.454 58.4653C387.982 58.3891 389.199 58.2622 389.421 58.0519C389.5 57.9767 389.755 57.9153 389.989 57.9153C390.222 57.9153 390.413 57.8473 390.413 57.7641C390.413 57.6809 390.549 57.6129 390.715 57.6129C390.882 57.6129 391.018 57.5563 391.018 57.4872C391.018 57.4181 391.205 57.2649 391.433 57.147C391.966 56.8719 392.699 56.1398 392.974 55.6082C393.092 55.3801 393.246 55.1935 393.315 55.1935C393.384 55.1935 393.441 55.0614 393.441 54.8999C393.441 54.7385 393.509 54.5644 393.592 54.513C393.675 54.4616 393.743 54.2535 393.743 54.0504C393.743 53.8473 393.812 53.6813 393.895 53.6813C393.978 53.6813 394.046 53.3452 394.046 52.9342C394.046 52.5232 394.105 52.1507 394.177 52.1063C394.369 51.9876 394.395 49.7497 394.203 49.7497C394.116 49.7497 394.046 49.4152 394.046 48.9937C394.046 48.5778 393.978 48.2376 393.895 48.2376C393.812 48.2376 393.743 48.0335 393.743 47.7839C393.743 47.5344 393.675 47.3303 393.592 47.3303C393.509 47.3303 393.441 47.1942 393.441 47.0279C393.441 46.8615 393.373 46.7254 393.289 46.7254C393.206 46.7254 393.138 46.6324 393.138 46.5189C393.138 46.2255 391.547 44.6084 391.258 44.6084C391.126 44.6084 391.018 44.5575 391.017 44.495C391.016 44.3592 390.282 44.0036 390.004 44.0036C389.895 44.0036 389.807 43.9355 389.807 43.8524C389.807 43.7692 389.534 43.7012 389.201 43.7012C388.868 43.7012 388.596 43.6331 388.596 43.5499C388.596 43.4523 386.88 43.3987 383.751 43.3987H378.905V55.7983ZM221.138 46.5742C221.138 46.6574 221.242 46.7254 221.369 46.7254C221.67 46.7254 222.955 48.0091 222.955 48.3093C222.955 48.4361 223.023 48.54 223.106 48.54C223.19 48.54 223.258 48.6761 223.258 48.8424C223.258 49.0088 223.326 49.1449 223.409 49.1449C223.492 49.1449 223.561 49.349 223.561 49.5985C223.561 49.848 223.629 50.0522 223.712 50.0522C223.795 50.0522 223.863 50.3788 223.863 50.778C223.863 51.1772 223.934 51.5741 224.02 51.66C224.123 51.7627 224.155 53.1828 224.113 55.8109C224.051 59.783 223.956 61.0356 223.697 61.3101C223.622 61.3892 223.561 61.6783 223.561 61.9527C223.561 62.2272 223.492 62.4518 223.409 62.4518C223.326 62.4518 223.258 62.5878 223.258 62.7542C223.258 62.9205 223.19 63.0566 223.106 63.0566C223.023 63.0566 222.955 63.1454 222.955 63.2539C222.955 63.6929 221.578 64.8712 221.065 64.8712C220.938 64.8712 220.835 64.9392 220.835 65.0224C220.835 65.1087 220.381 65.1736 219.775 65.1736C219.17 65.1736 218.716 65.1087 218.716 65.0224C218.716 64.9392 218.556 64.8712 218.361 64.8712C217.949 64.8712 216.596 63.6657 216.596 63.2984C216.596 63.1655 216.528 63.0566 216.444 63.0566C216.361 63.0566 216.293 62.9205 216.293 62.7542C216.293 62.5878 216.225 62.4518 216.142 62.4518C216.058 62.4518 215.99 62.3197 215.99 62.1582C215.99 61.9967 215.922 61.8227 215.839 61.7713C215.756 61.7199 215.687 61.4052 215.687 61.0719C215.687 60.7388 215.619 60.3378 215.534 60.1808C215.324 59.7872 215.319 51.4179 215.53 51.2076C215.616 51.1211 215.687 50.7576 215.687 50.4C215.687 50.0423 215.756 49.7497 215.839 49.7497C215.922 49.7497 215.99 49.5456 215.99 49.2961C215.99 49.0466 216.058 48.8424 216.142 48.8424C216.225 48.8424 216.293 48.7389 216.293 48.6123C216.293 48.3129 217.883 46.7254 218.182 46.7254C218.309 46.7254 218.413 46.6574 218.413 46.5742C218.413 46.4846 218.968 46.423 219.775 46.423C220.583 46.423 221.138 46.4846 221.138 46.5742ZM162.695 46.8767C162.695 46.9598 162.804 47.0279 162.937 47.0279C163.251 47.0279 164.209 47.9842 164.209 48.2981C164.209 48.4311 164.277 48.54 164.36 48.54C164.45 48.54 164.511 49.0915 164.511 49.892C164.511 50.6357 164.443 51.2861 164.36 51.3375C164.277 51.3889 164.209 51.5652 164.209 51.7294C164.209 52.0816 163.262 53.0765 162.927 53.0765C162.799 53.0765 162.695 53.1445 162.695 53.2277C162.695 53.3225 161.736 53.3789 160.121 53.3789H157.547V50.0522V46.7254H160.121C161.736 46.7254 162.695 46.7818 162.695 46.8767ZM241.427 46.8767C241.427 46.9598 241.531 47.0279 241.659 47.0279C241.994 47.0279 242.941 48.0227 242.941 48.3749C242.941 48.5391 243.009 48.7154 243.092 48.7668C243.176 48.8183 243.244 49.4006 243.244 50.0611C243.244 50.7608 243.181 51.2619 243.092 51.2619C243.009 51.2619 242.941 51.398 242.941 51.5643C242.941 51.7306 242.873 51.8667 242.789 51.8667C242.706 51.8667 242.638 51.9718 242.638 52.1004C242.638 52.4029 241.964 53.0765 241.661 53.0765C241.532 53.0765 241.427 53.1445 241.427 53.2277C241.427 53.3225 240.468 53.3789 238.853 53.3789H236.279V50.0522V46.7254H238.853C240.468 46.7254 241.427 46.7818 241.427 46.8767ZM333.18 46.8578C333.18 46.9305 333.369 47.0277 333.599 47.0737C334.116 47.1771 334.694 47.6607 334.694 47.9907C334.694 48.1264 334.762 48.2376 334.846 48.2376C334.929 48.2376 334.997 48.3737 334.997 48.54C334.997 48.7064 335.052 48.8424 335.118 48.8424C335.357 48.8424 335.627 51.0007 335.458 51.5633C335.371 51.8539 335.3 52.3131 335.3 52.584C335.3 52.8549 335.232 53.0765 335.148 53.0765C335.065 53.0765 334.997 53.1803 334.997 53.3072C334.997 53.4342 334.692 53.8425 334.32 54.2145C333.822 54.7117 333.523 54.891 333.193 54.891C332.946 54.891 332.702 54.9591 332.65 55.0422C332.596 55.1304 331.74 55.1935 330.597 55.1935H328.638V50.9595V46.7254H330.909C332.158 46.7254 333.18 46.785 333.18 46.8578ZM387.687 46.8767C387.687 46.9598 387.792 47.0279 387.919 47.0279C388.221 47.0279 389.201 48.0071 389.201 48.3082C389.201 48.4357 389.269 48.54 389.353 48.54C389.436 48.54 389.504 48.7442 389.504 48.9937C389.504 49.2432 389.572 49.4473 389.655 49.4473C389.746 49.4473 389.807 50.0522 389.807 50.9595C389.807 51.8667 389.746 52.4716 389.655 52.4716C389.572 52.4716 389.504 52.6757 389.504 52.9252C389.504 53.1747 389.436 53.3789 389.353 53.3789C389.269 53.3789 389.201 53.484 389.201 53.6125C389.201 53.9151 388.527 54.5886 388.224 54.5886C388.095 54.5886 387.99 54.6566 387.99 54.7398C387.99 54.823 387.79 54.891 387.545 54.891C387.3 54.891 387.057 54.9591 387.006 55.0422C386.952 55.1299 386.121 55.1935 385.029 55.1935H383.145V50.9595V46.7254H385.416C386.829 46.7254 387.687 46.7826 387.687 46.8767ZM69.427 48.3043C69.427 48.5074 69.4876 48.7107 69.5618 48.7566C69.6358 48.8022 69.733 49.0614 69.7778 49.3325C69.8535 49.7903 69.9763 50.3165 70.3424 51.7533C70.4219 52.0653 70.5582 52.6097 70.6452 52.963C70.9375 54.1493 71.1706 55.074 71.5602 56.5922C71.651 56.9456 71.7601 57.5241 71.8026 57.8775L71.88 58.5202H69.2909H66.7017V58.0755C66.7017 57.8308 66.7698 57.5887 66.8531 57.5373C66.9363 57.4859 67.0045 57.1797 67.0045 56.8568C67.0045 56.534 67.0726 56.2278 67.1559 56.1764C67.2392 56.1249 67.3073 55.8528 67.3073 55.5715C67.3073 55.2902 67.3754 55.018 67.4587 54.9666C67.542 54.9152 67.6101 54.643 67.6101 54.3618C67.6101 54.0805 67.6782 53.8083 67.7615 53.7569C67.8448 53.7055 67.9129 53.3954 67.9129 53.0675C67.9129 52.7397 67.9811 52.4716 68.0643 52.4716C68.1476 52.4716 68.2157 52.1994 68.2157 51.8667C68.2157 51.5341 68.2839 51.2619 68.3672 51.2619C68.4504 51.2619 68.5186 50.9897 68.5186 50.657C68.5186 50.3243 68.5867 50.0522 68.67 50.0522C68.7533 50.0522 68.8214 49.78 68.8214 49.4473C68.8214 49.1146 68.8895 48.8424 68.9728 48.8424C69.0561 48.8424 69.1242 48.6383 69.1242 48.3888C69.1242 48.1393 69.1923 47.9352 69.2756 47.9352C69.3589 47.9352 69.427 48.1012 69.427 48.3043ZM180.306 48.4266C180.395 48.963 180.528 49.5141 181.18 52.0558C181.271 52.4091 181.38 52.9877 181.422 53.3411C181.465 53.6945 181.561 53.9837 181.636 53.9837C181.711 53.9837 181.772 54.2559 181.772 54.5886C181.772 54.9213 181.84 55.1935 181.923 55.1935C182.007 55.1935 182.075 55.4656 182.075 55.7983C182.075 56.131 182.143 56.4032 182.226 56.4032C182.309 56.4032 182.378 56.6754 182.378 57.008C182.378 57.3407 182.446 57.6129 182.529 57.6129C182.612 57.6129 182.68 57.8583 182.68 58.1583C182.68 58.5935 182.632 58.6852 182.441 58.612C182.309 58.5615 181.123 58.5202 179.806 58.5202H177.41L177.49 57.8775C177.535 57.5241 177.63 57.1703 177.703 57.0912C177.776 57.0123 177.835 56.689 177.835 56.3729C177.835 56.0569 177.903 55.7983 177.987 55.7983C178.07 55.7983 178.138 55.5261 178.138 55.1935C178.138 54.8608 178.206 54.5886 178.29 54.5886C178.373 54.5886 178.441 54.3164 178.441 53.9837C178.441 53.6511 178.509 53.3789 178.592 53.3789C178.676 53.3789 178.744 53.1067 178.744 52.774C178.744 52.4414 178.812 52.1692 178.895 52.1692C178.978 52.1692 179.047 51.897 179.047 51.5643C179.047 51.2316 179.115 50.9595 179.198 50.9595C179.281 50.9595 179.349 50.6873 179.349 50.3546C179.349 50.0219 179.418 49.7497 179.501 49.7497C179.584 49.7497 179.652 49.4775 179.652 49.1449C179.652 48.8122 179.72 48.54 179.804 48.54C179.887 48.54 179.955 48.4039 179.955 48.2376C179.955 47.7496 180.217 47.8909 180.306 48.4266ZM291.392 55.3447V61.5445H290.937C290.687 61.5445 290.483 61.4764 290.483 61.3933C290.483 61.3101 290.142 61.242 289.726 61.242C289.31 61.242 288.969 61.174 288.969 61.0908C288.969 61.0077 288.833 60.9396 288.666 60.9396C288.5 60.9396 288.363 60.8716 288.363 60.7884C288.363 60.7052 288.253 60.6372 288.119 60.6372C287.836 60.6372 286.849 59.6151 286.849 59.3224C286.849 59.2138 286.781 59.125 286.698 59.125C286.615 59.125 286.546 58.9209 286.546 58.6714C286.546 58.4219 286.484 58.2178 286.408 58.2178C286.332 58.2178 286.23 57.7754 286.181 57.2349C286.132 56.6943 286.052 55.8097 286.004 55.2691C285.944 54.6087 285.969 54.2862 286.079 54.2862C286.179 54.2862 286.244 53.9305 286.244 53.3789C286.244 52.8749 286.311 52.4716 286.395 52.4716C286.478 52.4716 286.546 52.2675 286.546 52.018C286.546 51.7684 286.615 51.5643 286.698 51.5643C286.781 51.5643 286.849 51.4604 286.849 51.3336C286.849 51.0334 288.135 49.7497 288.435 49.7497C288.562 49.7497 288.666 49.6817 288.666 49.5985C288.666 49.5154 288.871 49.4473 289.12 49.4473C289.37 49.4473 289.575 49.3793 289.575 49.2961C289.575 49.212 289.978 49.1449 290.483 49.1449H291.392V55.3447ZM297.145 49.2961C297.145 49.3793 297.349 49.4473 297.599 49.4473C297.849 49.4473 298.053 49.5154 298.053 49.5985C298.053 49.6817 298.159 49.7497 298.288 49.7497C298.544 49.7497 299.682 50.8406 299.984 51.3754C300.088 51.5602 300.173 51.8144 300.173 51.9402C300.173 52.0662 300.235 52.1692 300.309 52.1692C300.51 52.1692 300.656 53.3907 300.671 55.1935C300.686 56.925 300.509 58.5202 300.303 58.5202C300.232 58.5202 300.173 58.6563 300.173 58.8226C300.173 58.9889 300.105 59.125 300.022 59.125C299.939 59.125 299.87 59.2339 299.87 59.3668C299.87 59.7341 298.517 60.9396 298.105 60.9396C297.91 60.9396 297.751 61.0005 297.751 61.0749C297.751 61.1493 297.461 61.2531 297.107 61.3054C296.753 61.3577 296.208 61.44 295.896 61.4884L295.328 61.5762V55.3606V49.1449H296.237C296.741 49.1449 297.145 49.212 297.145 49.2961ZM351.273 56.8568C351.325 56.94 351.567 57.008 351.812 57.008C352.057 57.008 352.258 57.0761 352.258 57.1592C352.258 57.2424 352.367 57.3105 352.5 57.3105C352.864 57.3105 354.027 58.6176 354.153 59.1698C354.39 60.2047 354.215 62.7542 353.907 62.7542C353.832 62.7542 353.772 62.8585 353.772 62.986C353.772 63.2887 352.909 64.1342 352.332 64.3974C352.083 64.511 351.761 64.6642 351.616 64.7377C351.472 64.8112 350.33 64.8712 349.08 64.8712H346.807V60.7884V56.7056H348.993C350.288 56.7056 351.218 56.7673 351.273 56.8568ZM162.969 57.1502C162.999 57.2383 163.153 57.3105 163.313 57.3105C163.472 57.3105 163.603 57.3785 163.603 57.4617C163.603 57.5448 163.714 57.6129 163.85 57.6129C164.129 57.6129 164.608 58.1087 164.744 58.5382C164.794 58.6945 164.898 58.8226 164.976 58.8226C165.053 58.8226 165.117 59.0227 165.117 59.2673C165.117 59.512 165.185 59.7541 165.268 59.8055C165.611 60.0172 165.296 62.7542 164.929 62.7542C164.866 62.7542 164.814 62.8641 164.814 62.9984C164.814 63.2809 163.791 64.2663 163.498 64.2663C163.389 64.2663 163.3 64.3344 163.3 64.4175C163.3 64.5007 163.066 64.5688 162.779 64.5688C162.493 64.5688 162.216 64.6368 162.165 64.72C162.109 64.8098 161.154 64.8712 159.809 64.8712H157.547V60.9522C157.547 57.9646 157.592 57.0124 157.736 56.9454C158.074 56.7888 162.912 56.9779 162.969 57.1502ZM241.701 57.1487C241.731 57.2377 241.86 57.3105 241.989 57.3105C242.301 57.3105 243.547 58.5646 243.547 58.8783C243.547 59.014 243.615 59.125 243.698 59.125C243.781 59.125 243.849 59.2908 243.849 59.4932C243.849 59.6957 243.92 60.0484 244.007 60.2767C244.176 60.7208 243.895 62.7542 243.665 62.7542C243.6 62.7542 243.546 62.8393 243.546 62.9432C243.546 63.1687 242.887 63.9625 242.696 63.9672C242.623 63.969 242.392 64.1036 242.184 64.2663C241.976 64.429 241.622 64.5636 241.398 64.5654C241.174 64.5672 240.948 64.6368 240.897 64.72C240.841 64.8098 239.886 64.8712 238.541 64.8712H236.279V60.9649C236.279 58.8163 236.33 57.0047 236.392 56.9389C236.566 56.7561 241.637 56.9565 241.701 57.1487ZM120.827 63.6993C120.781 63.8865 120.763 64.9581 120.787 66.0809L120.83 68.1223L121.702 68.1677C122.565 68.2126 122.572 68.217 122.473 68.6213C122.418 68.8459 122.315 69.0523 122.245 69.0799C122.175 69.1078 122.117 69.2608 122.117 69.4202C122.117 69.5796 122.049 69.7101 121.966 69.7101C121.882 69.7101 121.814 69.8461 121.814 70.0125C121.814 70.1788 121.746 70.3149 121.663 70.3149C121.58 70.3149 121.511 70.5191 121.511 70.7686C121.511 71.0181 121.443 71.2222 121.36 71.2222C121.277 71.2222 121.209 71.3583 121.209 71.5246C121.209 71.691 121.141 71.8271 121.057 71.8271C120.974 71.8271 120.906 71.9576 120.906 72.1169C120.906 72.2763 120.844 72.4293 120.769 72.4572C120.694 72.4848 120.608 72.6776 120.58 72.8856C120.529 73.2501 120.561 73.2653 121.474 73.3087C122.341 73.3499 122.42 73.3279 122.42 73.044C122.42 72.8736 122.488 72.7343 122.571 72.7343C122.655 72.7343 122.723 72.5983 122.723 72.4319C122.723 72.2656 122.791 72.1295 122.874 72.1295C122.957 72.1295 123.026 71.9934 123.026 71.8271C123.026 71.6607 123.094 71.5246 123.177 71.5246C123.26 71.5246 123.328 71.3885 123.328 71.2222C123.328 71.0559 123.396 70.9198 123.48 70.9198C123.563 70.9198 123.631 70.7837 123.631 70.6173C123.631 70.451 123.699 70.3149 123.783 70.3149C123.866 70.3149 123.934 70.1788 123.934 70.0125C123.934 69.8461 124.002 69.7101 124.085 69.7101C124.169 69.7101 124.237 69.574 124.237 69.4076C124.237 69.2413 124.305 69.1052 124.388 69.1052C124.471 69.1052 124.54 68.9691 124.54 68.8028C124.54 68.6364 124.608 68.5003 124.691 68.5003C124.774 68.5003 124.842 68.3683 124.842 68.2068C124.842 68.0453 124.911 67.8713 124.994 67.8199C125.082 67.7653 125.145 66.9074 125.145 65.7588C125.145 64.255 125.094 63.7401 124.929 63.5751C124.764 63.4108 124.257 63.359 122.812 63.359C120.967 63.359 120.909 63.369 120.827 63.6993Z" fill="#8D8D8D"/>
</svg>
