<svg width="120" height="70" viewBox="0 0 120 70" fill="none" xmlns="http://www.w3.org/2000/svg">
<path fill-rule="evenodd" clip-rule="evenodd" d="M103.949 4.89903L99.9856 8.96657V12.2001V15.4343L95.4241 19.9017C91.06 24.1756 90.736 24.3797 87.9338 24.6245C84.4737 24.927 82.0724 26.8288 81.1081 30.0321C79.5157 35.3204 84.9392 40.5536 90.2168 38.8207C93.1555 37.8553 95.0912 35.4507 95.4108 32.3679C95.6657 29.9067 96.0329 29.3621 100.451 24.8995L105.215 20.086H108.46H111.704L115.521 16.4201C117.62 14.4039 119.338 12.4328 119.338 12.0406C119.338 11.5224 118.013 11.2837 114.5 11.1681L109.662 11.0091L109.521 7.15835C109.36 2.75743 109.007 0.832031 108.362 0.832031C108.115 0.832031 106.13 2.66226 103.949 4.89903ZM81.4631 8.75478C73.6631 11.2154 65.4773 19.1178 66.5057 23.1942C67.2311 26.0702 71.6721 26.2677 73.1169 23.4879C74.3178 21.1775 78.678 17.4229 81.6151 16.1703C83.6277 15.3121 85.3876 15.0651 89.3332 15.086C94.221 15.1125 94.4858 15.0519 95.3716 13.7064C96.5377 11.9355 95.8758 9.68832 93.8942 8.69097C92.1287 7.80198 84.3559 7.84214 81.4631 8.75478ZM39.3146 18.0231C37.8272 19.625 36.9608 22.8603 36.957 26.8233C36.9542 29.6811 36.7618 30.1966 34.9543 32.1869C33.8546 33.3983 32.6984 34.389 32.3855 34.389C32.0045 34.389 31.9443 31.9449 32.2019 26.9938L32.5878 19.5986L31.1989 18.6937C28.7893 17.1226 26.811 18.0424 23.3697 22.3333C21.6922 24.4253 20.081 26.1373 19.7896 26.1373C19.4987 26.1373 19.2604 24.652 19.2604 22.8366C19.2604 18.9605 17.9987 17.1517 15.4946 17.4394C14.0343 17.6072 12.3601 19.6432 9.72768 24.4506C8.46538 26.7562 7.64928 26.1527 7.64928 22.9142C7.64928 21.4795 7.35071 20.009 6.98579 19.6459C6.02925 18.6942 3.45711 18.8345 2.38999 19.8962C0.760002 21.518 0.461426 23.3213 0.461426 31.5521C0.461426 40.6108 0.919786 42.0906 3.72471 42.0906C5.75279 42.0906 6.68279 40.9772 8.78718 36.0284C10.739 31.4382 11.3273 30.5382 12.3739 30.5382C12.9152 30.5382 13.0689 31.7034 12.997 35.2571C12.892 40.4815 13.4925 41.5405 16.5622 41.5405C18.6329 41.5405 19.46 40.5591 21.1956 36.0394C22.6902 32.1484 23.9491 30.2962 24.7608 30.7957C24.9997 30.9425 25.3187 32.9703 25.4691 35.3017C25.7107 39.0501 25.9147 39.6883 27.2318 40.816C29.773 42.9901 33.1712 42.1814 36.1138 38.7019C37.4662 37.1027 37.6724 37.0213 38.1612 37.8899C38.4598 38.4213 39.4561 39.7075 40.3745 40.7483C41.754 42.3118 42.4286 42.6407 44.2543 42.6407C46.0297 42.6407 46.8331 42.2733 48.3436 40.7703C50.1362 38.9869 50.2235 38.9594 50.2235 40.1735C50.2235 41.0641 49.4002 42.0483 47.4849 43.4466C40.9136 48.2464 37.4839 54.1266 38.3343 59.1359C39.1177 63.7492 44.168 68.8614 48.5112 69.4374C53.3961 70.0854 55.4043 65.1707 57.1648 48.2585L57.5247 44.7988L60.3711 43.1749C64.5141 40.8105 65.0891 40.9634 67.867 45.1669C75.4396 56.6268 91.437 59.4104 102.627 51.2143C108.79 46.7006 112.15 39.921 112.15 32.0015C112.15 28.165 111.956 27.1413 111.004 25.9365C109.735 24.3313 107.949 24.0766 106.312 25.2676C105.394 25.9354 105.234 26.7518 105.21 30.9062C105.187 34.9254 104.938 36.2869 103.768 38.7899C97.2188 52.7947 77.33 52.1698 72.0022 37.792C71.4764 36.3744 70.6774 34.7812 70.2257 34.2515C69.1154 32.9505 65.9417 33.0126 61.7528 34.4165C59.9022 35.0365 58.2595 35.4161 58.1025 35.2598C57.757 34.916 58.7251 27.6056 59.6861 23.3075C60.2981 20.5674 60.2694 20.0349 59.4417 18.7779C58.2214 16.9251 56.1347 16.4096 54.4096 17.5341C53.3386 18.2322 52.8316 19.4683 51.8441 23.7839C50.4076 30.0629 49.0491 33.0616 47.4064 33.5803C44.4461 34.515 43.2369 29.2856 45.2036 24.0529C46.1403 21.5609 46.2846 20.5283 45.8539 19.4011C44.8039 16.6533 41.2763 15.9101 39.3146 18.0231ZM49.4561 53.9109C49.0165 58.1765 48.6914 59.1442 47.6956 59.1442C46.5373 59.1442 45.6515 56.9971 46.0308 55.1085C46.3211 53.6645 48.7909 50.3423 49.5739 50.3423C49.711 50.3423 49.6579 51.9481 49.4561 53.9109Z" fill="#8D8D8D"/>
</svg>
