<svg width="390" height="57" viewBox="0 0 390 57" fill="none" xmlns="http://www.w3.org/2000/svg">
<g clip-path="url(#clip0)">
<path d="M-0.0229492 0.689453C12.2579 0.689453 24.5368 0.693421 36.8157 0.689453C36.8157 19.4831 36.8157 38.2787 36.8157 57.0744C35.8215 57.0724 34.8273 57.0724 33.8312 57.0744C33.8312 45.8502 33.8351 34.6279 33.8312 23.4037C33.8272 20.3363 32.9 17.2748 31.1872 14.7391C29.2637 11.8641 26.3638 9.66366 23.08 8.62001C19.6072 7.49699 15.7406 7.6716 12.3859 9.11406C7.79681 11.0387 4.27477 15.3264 3.29041 20.2391C2.84745 22.1855 2.98329 24.1914 2.9636 26.1716C2.96557 36.4712 2.9636 46.7728 2.96557 57.0744C1.96939 57.0724 0.973225 57.0724 -0.0209786 57.0744C-0.0209786 38.2787 -0.0190118 19.4851 -0.0229492 0.689453Z" fill="#8D8D8D"/>
</g>
<path d="M116.914 36.0733C119.228 30.2027 121.17 24.1845 123.543 18.3379C125.517 22.668 126.999 27.2096 128.793 31.6195C129.504 33.2956 129.984 35.1035 131.027 36.616C131.594 37.5219 132.765 37.5339 133.668 37.8891C131.862 38.0647 130.048 37.953 128.242 37.9011C128.362 37.6337 128.485 37.3663 128.609 37.1029C127.778 34.9319 126.959 32.7489 126.132 30.5739C124.206 30.518 122.28 30.518 120.351 30.5739C119.719 32.5773 118.864 34.5208 118.433 36.5841C118.109 37.5858 119.543 37.5738 120.091 37.941C118.045 37.921 115.999 37.9689 113.95 37.957C115.06 37.5419 116.511 37.3982 116.914 36.0733ZM120.686 29.64C122.384 29.644 124.086 29.644 125.788 29.64C124.901 27.1697 124.082 24.6714 123.131 22.225C122.272 24.6833 121.497 27.1697 120.686 29.64Z" fill="#8D8D8D"/>
<path d="M157.11 36.3007C159.531 30.3783 161.401 24.2364 163.878 18.3379C166.407 24.1007 168.305 30.1269 170.866 35.8777C171.362 37.2067 172.744 37.6097 173.999 37.8891C172.177 38.0687 170.347 37.953 168.525 37.9011C168.629 37.7135 168.837 37.3424 168.937 37.1548C166.995 32.2141 165.257 27.1976 163.439 22.213C162.112 26.1001 160.91 30.0271 159.523 33.8942C159.179 34.9837 158.64 36.0773 158.764 37.2506C159.299 37.502 159.847 37.7335 160.406 37.941C158.36 37.921 156.319 37.9649 154.273 37.9609C155.28 37.5299 156.658 37.478 157.11 36.3007Z" fill="#8D8D8D"/>
<path d="M240.772 18.3145C243.729 23.6821 246.194 29.3212 248.951 34.8006C250.933 30.5823 252.911 26.364 254.885 22.1457C255.504 20.8526 256.035 19.5077 256.854 18.3224C257.526 22.4889 257.813 26.7112 258.325 30.9015C258.596 32.7254 258.556 34.617 259.108 36.3929C259.575 37.67 261.185 37.4585 262.244 37.8616C260.314 38.0731 258.369 38.0012 256.439 37.9334C256.539 37.7299 256.742 37.3228 256.842 37.1153C256.391 32.5338 255.983 27.9483 255.552 23.3668C253.19 28.2796 250.985 33.2681 248.512 38.121C245.763 33.4677 243.625 28.4831 241.32 23.6023C241.004 27.9164 240.485 32.2185 240.277 36.5366C240.153 37.666 241.667 37.5104 242.347 37.9015C240.513 38.0212 238.679 37.8656 236.845 37.9933L236.737 37.7498C237.424 37.5463 238.491 37.5822 238.563 36.6364C239.47 30.5543 239.789 24.3845 240.772 18.3145Z" fill="#8D8D8D"/>
<path d="M291.244 34.1418C295.803 29.0455 299.934 23.586 304.297 18.334C304.469 24.005 304.253 29.68 304.409 35.351C304.501 36.0135 304.397 36.8516 304.965 37.3425C305.66 37.562 306.383 37.6657 307.094 37.8573C304.801 38.0768 302.487 37.8692 300.186 37.961C300.737 37.7056 301.321 37.5021 301.856 37.2028C302.264 35.9616 302.184 34.6327 302.22 33.3476C302.208 29.8636 302.268 26.3756 302.184 22.8876C297.625 28.0158 293.473 33.4753 289.174 38.8111C288.982 32.717 289.254 26.607 289.018 20.517C289.01 19.2519 287.452 19.3995 286.625 19.0124C288.847 18.9047 291.076 18.9606 293.302 18.9885C292.554 19.3676 291.224 19.3876 291.324 20.5369C291.124 25.0666 291.268 29.6042 291.244 34.1418Z" fill="#8D8D8D"/>
<path d="M378.99 18.3545C381.623 24.1253 383.445 30.2473 386.086 36.0141C386.573 37.2792 387.956 37.5307 389.091 37.9577C387.269 38.0215 385.451 37.9696 383.637 37.8978C383.777 37.6344 383.92 37.375 384.068 37.1156C383.229 34.9286 382.402 32.7376 381.579 30.5466C379.653 30.5386 377.731 30.5147 375.809 30.5666C375.162 32.7256 374.123 34.7929 373.844 37.0398C374.211 37.6184 375.002 37.6224 375.566 37.9297C373.5 37.9058 371.43 38.0375 369.373 37.8858C370.284 37.5466 371.51 37.5905 372.058 36.6367C372.925 35.1002 373.344 33.3602 374.003 31.7279C375.69 27.2781 377.176 22.7524 378.99 18.3545ZM376.137 29.6407C377.835 29.6447 379.537 29.6447 381.239 29.6407C380.36 27.1663 379.521 24.68 378.598 22.2256C377.711 24.676 376.96 27.1703 376.137 29.6407Z" fill="#8D8D8D"/>
<path d="M69.9707 19.0033C76.5793 19.0033 83.196 19.0312 89.8046 18.9873C89.0574 19.3545 87.7389 19.4143 87.8228 20.5557C87.663 25.213 87.7629 29.8823 87.7709 34.5437C87.8867 35.4655 87.647 36.6389 88.3742 37.3532C89.0694 37.5568 89.7886 37.6685 90.4918 37.8521C88.2064 38.0995 85.9009 37.8202 83.6115 38.0038C84.1509 37.7164 84.7382 37.5089 85.2457 37.1697C85.6013 36.1999 85.5693 35.1423 85.6093 34.1286C85.6452 29.4114 85.6252 24.6942 85.6252 19.977C81.9573 19.977 78.2894 19.981 74.6255 19.977C74.6375 24.9696 74.5736 29.9622 74.6615 34.9547C74.7733 35.725 74.5935 36.7147 75.2169 37.3054C75.9201 37.5528 76.6592 37.6725 77.3665 37.9239C75.065 37.9998 72.7596 37.908 70.4582 37.9559C71.0055 37.7124 71.5729 37.5168 72.1003 37.2335C72.6237 35.7369 72.432 34.1127 72.4999 32.5562C72.4679 28.5654 72.5958 24.5665 72.42 20.5797C72.4519 19.2507 70.8457 19.3984 69.9707 19.0033Z" fill="#8D8D8D"/>
<path d="M197.668 18.9886C199.798 18.9367 201.928 18.9487 204.053 18.9806C203.502 19.216 202.923 19.3837 202.391 19.663C201.956 20.114 202.084 20.8084 202.032 21.3831C202.024 23.2827 202.016 25.1823 202.028 27.086C204.377 27.2097 206.97 27.09 208.968 28.5506C211.465 30.3345 211.413 34.4052 209.18 36.3847C207.649 37.8573 205.404 38.1885 203.362 38.0209C201.564 37.8653 199.758 37.993 197.956 37.9331C198.508 37.7216 199.047 37.4941 199.582 37.2467C200.002 36.1292 199.938 34.908 199.978 33.7347C200.01 29.3448 200.038 24.9469 199.898 20.561C199.894 19.3677 198.48 19.3717 197.668 18.9886ZM202.048 27.8562C202.008 30.2268 201.996 32.5973 202.04 34.9719C202.104 35.5985 202.028 36.4685 202.723 36.7798C204.613 37.6897 207.517 37.3943 208.397 35.2313C209.22 32.6812 208.105 29.5044 205.668 28.2553C204.561 27.6447 203.254 27.8682 202.048 27.8562Z" fill="#8D8D8D"/>
<path d="M333.469 19.012C335.647 18.8843 337.828 19.02 340.01 18.9362C341.904 18.9202 344.125 19.2075 345.332 20.8478C347.074 23.2742 345.963 26.9937 343.458 28.4464C342.088 29.3044 340.409 29.4601 338.835 29.3364C340.07 28.7856 341.572 28.9133 342.651 27.9994C345.296 25.9721 344.409 21.2189 341.392 20.0057C340.354 19.5587 339.203 19.7144 338.112 19.7663C338.04 25.2298 337.944 30.7092 338.18 36.1727C338.088 37.6533 339.762 37.5097 340.757 37.9367C338.456 37.9766 336.154 37.9367 333.857 37.9327C334.412 37.7132 334.988 37.5376 335.531 37.2742C335.994 36.3044 335.903 35.187 335.962 34.1454C335.986 30.0188 335.974 25.8922 335.97 21.7657C335.891 21.0513 336.074 20.1534 335.479 19.6226C334.828 19.3552 334.129 19.2275 333.469 19.012Z" fill="#8D8D8D"/>
<defs>
<clipPath id="clip0">
<rect width="37" height="56" fill="white" transform="translate(0 0.5625)"/>
</clipPath>
</defs>
</svg>
