<svg width="191" height="61" viewBox="0 0 191 61" fill="none" xmlns="http://www.w3.org/2000/svg">
<path d="M18.8324 1.18688C24.2985 0.669676 30.0471 0.949678 35.0775 3.32346C37.1659 4.27047 38.9789 5.69902 40.6317 7.25954C40.6605 5.65087 40.6353 4.04219 40.6461 2.43351C44.3099 2.44243 47.972 2.43351 51.6358 2.43708C51.6394 11.7289 51.6358 21.0207 51.6376 30.3125C51.6394 31.165 51.616 32.0193 51.6736 32.87C51.859 32.7023 52.0427 32.5311 52.2155 32.351C56.6931 27.2503 61.1743 22.1532 65.6645 17.065C70.1601 17.0632 74.6575 17.0561 79.1531 17.0686C74.193 22.4225 69.2779 27.8192 64.343 33.1963C69.3607 41.789 74.5279 50.2979 79.5366 58.8942C75.1617 58.9084 70.7885 58.8852 66.4135 58.9049C63.0629 52.9891 59.7394 47.0538 56.4501 41.1024C56.369 41.0792 56.207 41.0346 56.1242 41.0114C54.6047 42.5131 53.1769 44.104 51.6502 45.6003C51.607 50.0322 51.6484 54.4658 51.6232 58.8977C47.9648 58.9013 44.3063 58.8924 40.6479 58.9031C40.6407 57.8812 40.6479 56.861 40.6389 55.8409C39.1086 56.8325 37.5152 57.7474 35.794 58.3787C31.4947 60.0052 26.828 60.5456 22.2496 60.2799C17.2013 60.0052 11.9891 58.9655 7.77075 56.0638C4.422 53.8095 2.01666 50.2747 1.06245 46.3868C0.619552 44.8102 0.509727 43.1748 0.399902 41.55C4.17895 41.443 7.9616 41.534 11.7424 41.5037C11.8127 43.8953 12.7219 46.3261 14.5781 47.9188C16.9618 50.0036 20.2548 50.5886 23.337 50.6903C26.0539 50.7134 28.8283 50.4923 31.3848 49.5221C33.115 48.8479 34.7462 47.6281 35.4304 45.8624C35.9723 44.4036 36.0857 42.7289 35.4952 41.2683C35.0397 40.1465 34.0746 39.3172 33.0304 38.7411C31.194 37.721 29.1235 37.2323 27.1071 36.6901C23.4811 35.7913 19.8461 34.9281 16.2182 34.0328C14.5997 33.6137 12.9469 33.2962 11.377 32.7095C8.4243 31.6751 5.63188 29.9219 3.84407 27.3288C1.99866 24.7285 1.31451 21.4915 1.3019 18.3562C1.2839 13.8227 3.0681 9.20351 6.49967 6.13775C9.85382 3.08804 14.389 1.6916 18.8324 1.18688ZM15.9068 11.9465C14.1928 12.7579 12.7291 14.306 12.4266 16.2107C12.1637 17.8087 12.3492 19.5939 13.4042 20.8923C14.4016 22.1603 15.9932 22.7578 17.5109 23.1608C20.8327 23.983 24.167 24.7588 27.4906 25.5774C31.0338 26.4406 34.64 27.1558 38.0247 28.5504C38.9231 28.9036 39.7567 29.3976 40.6461 29.7703C40.6641 26.2373 40.6407 22.7025 40.6569 19.1677C38.4478 19.1605 36.2387 19.1605 34.0278 19.1677C33.7758 17.2986 33.2321 15.3921 31.9718 13.9315C30.3568 12.0731 27.9083 11.1617 25.5155 10.8158C22.2982 10.4412 18.863 10.4787 15.9068 11.9465Z" fill="#8D8D8D"/>
<path d="M83.8398 42.6377C85.6384 40.8364 88.3552 40.1319 90.8542 40.4761C92.5285 40.6973 94.1957 41.3696 95.3714 42.602C96.4642 43.681 97.125 45.1434 97.3086 46.654C96.0807 46.6487 94.8511 46.6451 93.6232 46.6558C93.3387 45.6981 92.9462 44.6565 92.0388 44.1179C90.5283 43.187 88.4164 43.244 87.0283 44.3765C85.768 45.3664 85.2621 46.9893 85.0785 48.5142C84.8498 50.5758 85.1037 52.8373 86.3892 54.544C87.7629 56.3311 90.7047 56.5237 92.3575 55.0149C93.0524 54.3728 93.3891 53.4633 93.6394 52.5769C94.8583 52.5769 96.0753 52.5751 97.2942 52.5787C96.9143 54.4816 96.0105 56.356 94.4424 57.5723C92.678 58.9278 90.3104 59.313 88.1391 58.9991C86.3135 58.753 84.5581 57.8666 83.3951 56.4363C81.8071 54.5351 81.321 51.9759 81.3498 49.5682C81.3588 47.082 82.0556 44.4639 83.8398 42.6377Z" fill="#8D8D8D"/>
<path d="M115.944 45.1845C117.369 45.0454 118.83 45.288 120.121 45.9086C121.641 46.6666 122.79 48.1023 123.207 49.7341C123.663 51.4677 123.611 53.3474 122.982 55.0328C122.357 56.6932 120.937 58.0183 119.243 58.5765C117.199 59.256 114.83 59.1026 112.968 57.988C111.683 57.2389 110.748 55.9709 110.331 54.5602C109.735 52.5645 109.848 50.3298 110.786 48.4536C111.751 46.5346 113.829 45.37 115.944 45.1845ZM115.653 48.1415C114.452 48.4607 113.737 49.6343 113.586 50.7953C113.337 52.3326 113.435 54.1268 114.542 55.336C115.863 56.5452 118.359 56.4167 119.342 54.8384C119.99 53.8129 120.012 52.5484 119.952 51.3785C119.894 50.3405 119.545 49.233 118.69 48.5695C117.828 47.9364 116.659 47.9043 115.653 48.1415Z" fill="#8D8D8D"/>
<path d="M182.063 45.2841C183.692 44.9773 185.422 45.1877 186.916 45.91C188.213 46.5717 189.257 47.7185 189.775 49.0721C190.481 50.9662 190.479 53.1063 189.779 55.0039C189.216 56.4984 188.031 57.7522 186.544 58.3746C183.64 59.6391 179.724 58.9578 177.904 56.2416C176.622 54.2887 176.492 51.758 177.11 49.5608C177.74 47.3261 179.771 45.6479 182.063 45.2841ZM182.588 48.1019C181.308 48.3498 180.527 49.5875 180.376 50.7967C180.136 52.3394 180.214 54.1461 181.344 55.3499C182.675 56.568 185.201 56.4057 186.155 54.7952C186.763 53.7608 186.81 52.5195 186.74 51.3549C186.673 50.3223 186.324 49.2326 185.482 48.5674C184.673 47.9325 183.555 47.9325 182.588 48.1019Z" fill="#8D8D8D"/>
<path d="M155.676 45.2255C157.509 44.9776 159.48 45.3165 161 46.4044C162.391 47.3782 163.232 48.9922 163.466 50.6437C163.643 52.3005 163.59 54.0608 162.798 55.5713C162.033 57.1961 160.445 58.3482 158.702 58.7566C156.183 59.3719 153.204 58.7512 151.52 56.6878C150.167 55.0167 149.805 52.7125 150.152 50.6401C150.352 49.2722 150.946 47.9364 151.962 46.9715C152.946 45.9799 154.306 45.4378 155.676 45.2255ZM155.919 48.0915C154.597 48.3394 153.794 49.6217 153.641 50.8666C153.506 52.1792 153.492 53.6024 154.183 54.7813C155.089 56.324 157.433 56.5433 158.81 55.5196C159.822 54.6975 160.053 53.3046 160.056 52.0793C160.044 50.8773 159.853 49.5236 158.898 48.6801C158.092 47.972 156.931 47.9132 155.919 48.0915Z" fill="#8D8D8D"/>
<path d="M98.4662 45.5135C99.6094 45.5135 100.753 45.5099 101.896 45.517C101.912 47.1828 101.858 48.8503 101.928 50.5161C103.399 48.861 104.859 47.1971 106.312 45.5277C107.724 45.5081 109.137 45.4921 110.549 45.542C108.925 47.1596 107.414 48.8842 105.886 50.5856C107.504 53.2519 109.06 55.9574 110.678 58.6236C109.31 58.6379 107.942 58.6379 106.573 58.6236C105.61 56.9026 104.633 55.1869 103.689 53.4552C103.587 53.2947 103.505 53.111 103.342 53.0058C102.839 53.4445 102.414 53.9599 101.921 54.4058C101.867 55.8111 101.907 57.2183 101.898 58.6236C100.753 58.6397 99.6094 58.6308 98.4644 58.6326C98.468 54.2595 98.4644 49.8865 98.4662 45.5135Z" fill="#8D8D8D"/>
<path d="M126.016 45.5127C129.568 45.5127 133.118 45.5127 136.67 45.5127C136.667 49.8857 136.674 54.2588 136.667 58.63C135.522 58.6318 134.377 58.6318 133.232 58.63C133.233 55.1576 133.23 51.6852 133.233 48.2111C131.961 48.2129 130.689 48.2111 129.418 48.2129C129.377 50.4243 129.532 52.6483 129.251 54.8491C129.019 56.1867 128.606 57.6973 127.357 58.4481C126.152 59.19 124.682 58.9225 123.371 58.6871C123.358 57.8578 123.367 57.0303 123.356 56.2027C123.945 56.1778 124.588 56.3276 125.137 56.0511C125.661 55.6748 125.756 54.9704 125.843 54.38C126.154 51.4356 125.963 48.4679 126.016 45.5127Z" fill="#8D8D8D"/>
<path d="M138.502 45.5134C139.647 45.5134 140.792 45.5134 141.937 45.5116C141.948 47.1489 141.907 48.7861 141.961 50.4215C142.213 50.2075 142.463 49.9899 142.688 49.7456C143.907 48.3241 145.163 46.9331 146.395 45.5223C147.788 45.5099 149.184 45.5009 150.579 45.5313C149.015 47.1524 147.556 48.8735 145.965 50.4696C146.357 51.4042 146.966 52.2246 147.454 53.1074C148.518 54.955 149.681 56.7474 150.685 58.6272C149.33 58.6325 147.974 58.645 146.618 58.6165C145.578 56.7171 144.528 54.8231 143.444 52.9487C142.929 53.4552 142.414 53.9617 141.926 54.4949C141.946 55.8735 141.932 57.2521 141.935 58.6308C140.792 58.6308 139.649 58.6415 138.507 58.6218C138.498 54.2524 138.506 49.8829 138.502 45.5134Z" fill="#8D8D8D"/>
<path d="M164.768 45.5123C166.959 45.5176 169.15 45.5016 171.341 45.5194C172.65 45.5729 174.036 45.9082 175.018 46.8178C175.992 47.7149 176.204 49.3235 175.414 50.4043C174.998 51.082 174.2 51.3246 173.572 51.7526C174.343 52.0665 175.183 52.384 175.682 53.0866C176.685 54.4724 176.472 56.6714 175.045 57.7022C173.979 58.4727 172.605 58.6439 171.318 58.6332C169.136 58.6225 166.952 58.6475 164.77 58.6189C164.766 54.2495 164.77 49.88 164.768 45.5123ZM168.191 47.8183C168.198 48.8313 168.192 49.8461 168.198 50.8591C169.307 50.8199 170.439 50.9768 171.529 50.7057C172.175 50.5399 172.612 49.8657 172.53 49.2148C172.596 48.4657 171.885 47.8736 171.174 47.8504C170.18 47.7755 169.183 47.8361 168.191 47.8183ZM168.232 56.3183C169.397 56.2719 170.582 56.4306 171.734 56.2113C172.504 56.0757 173.001 55.3088 172.909 54.5562C172.969 53.6752 172.168 52.985 171.329 52.9154C170.299 52.8334 169.264 52.8994 168.232 52.8798C168.227 54.0265 168.225 55.1733 168.232 56.3183Z" fill="#8D8D8D"/>
</svg>
