<svg width="207" height="54" viewBox="0 0 207 54" fill="none" xmlns="http://www.w3.org/2000/svg">
<path fill-rule="evenodd" clip-rule="evenodd" d="M0.0820312 27.1215V53.6375H69.5656H139.049V27.1215V0.605469H69.5656H0.0820312V27.1215ZM143.565 27.1215V53.6375H175.049H206.533V27.1215V0.605469H175.049H143.565V27.1215ZM73.5011 13.5086C73.7232 13.5796 74.0644 13.6377 74.2594 13.6377C75.0243 13.6377 77.0399 14.5061 78.243 15.354C79.8642 16.4966 81.0279 18.0868 81.5903 19.928C81.6878 20.2473 81.813 20.6355 81.8684 20.7907C82.5411 22.6721 82.2706 23.1403 80.4799 23.193C79.4497 23.2234 79.0806 23.2574 78.8582 23.3427C77.7661 23.761 76.4218 23.4143 76.3419 22.6938C75.9446 19.1042 72.8526 17.1429 69.9204 18.6207C68.7384 19.2163 67.3123 21.381 67.3067 22.5881C67.3062 22.6863 67.2482 22.9507 67.1777 23.1756C66.9801 23.8061 66.9808 29.688 67.1785 30.3795C67.2495 30.6276 67.3075 30.9058 67.3075 30.9976C67.3075 31.9029 68.4562 33.927 69.357 34.6089C71.8543 36.4994 75.2016 35.2618 76.1567 32.0948C76.2574 31.7608 76.3404 31.3979 76.3412 31.2884C76.3476 30.3858 77.2912 30.0358 78.7197 30.406C79.145 30.5163 79.4364 30.5411 80.3219 30.5422C81.9677 30.5444 82.1229 30.6413 82.0505 31.6212C81.9388 33.131 80.9464 35.3985 79.9249 36.4781C79.6385 36.7807 79.1943 37.2512 78.9377 37.5237C78.3818 38.114 77.6845 38.5999 76.9128 38.9346C76.6023 39.0692 76.2085 39.2499 76.0376 39.336C75.8667 39.4221 75.6252 39.5138 75.501 39.5397C75.3769 39.5655 75.0817 39.6707 74.845 39.7734C74.4898 39.9276 74.3256 39.9601 73.9019 39.9601C73.5665 39.9601 73.249 40.0048 72.9849 40.0892C72.4697 40.2537 71.1638 40.2684 70.7591 40.1141C70.6172 40.0601 70.1777 39.9931 69.7825 39.9654C69.2399 39.9274 69.0107 39.883 68.847 39.7843C68.7277 39.7124 68.4269 39.588 68.1785 39.5079C66.0171 38.8106 64.0016 37.4273 63.0048 35.9568C62.9459 35.8699 62.8018 35.6906 62.6847 35.5583C62.4649 35.3101 62.0992 34.6288 61.7921 33.8956C61.6955 33.665 61.4986 33.2355 61.3546 32.9413C61.1183 32.4584 60.9741 31.9745 60.7833 31.0247C60.7477 30.8473 60.6623 30.4922 60.5937 30.2357C60.4989 29.8815 60.4689 29.5557 60.4689 28.8807C60.4689 28.1855 60.4408 27.8939 60.3398 27.5408C60.2689 27.2927 60.2108 26.9119 60.2108 26.6946C60.2108 26.4772 60.2688 26.1179 60.3398 25.8957C60.441 25.5791 60.4689 25.3141 60.4689 24.6699C60.4689 24.0256 60.4967 23.7607 60.5979 23.4441C60.6689 23.2219 60.7269 22.9334 60.7269 22.803C60.7269 22.6726 60.7812 22.3933 60.8477 22.1824C60.9141 21.9715 61.0182 21.6247 61.079 21.4118C61.1906 21.0209 61.643 20.0265 62.1944 18.9602C63.52 16.3967 67.2389 13.6594 69.4313 13.6334C69.6293 13.631 69.9511 13.5749 70.1462 13.5086C70.6889 13.3244 72.9242 13.3244 73.5011 13.5086ZM48.9222 13.7667H57.4939L57.6749 13.9224L57.856 14.0781V16.2755V18.4727L57.7091 18.6197L57.5621 18.7667L51.8164 18.7989L46.0706 18.8312L45.9235 19.0023C45.7553 19.1978 45.6818 20.2236 45.669 22.5503C45.659 24.3849 45.1671 24.2183 50.5928 24.2183C55.1306 24.2183 55.1088 24.2168 55.2417 24.5375C55.3966 24.9115 55.2992 28.2555 55.1284 28.4262L54.9815 28.5731L50.5478 28.6053C44.9423 28.6461 45.6302 28.1927 45.6302 31.8469C45.6302 35.3436 44.7116 34.8877 51.8381 34.9279L57.5621 34.9601L57.7091 35.107C58.0518 35.4496 57.9464 39.467 57.5905 39.6292C57.266 39.777 40.0637 39.728 39.8793 39.5787L39.727 39.4554L39.7092 26.8207C39.6994 19.8716 39.7077 14.1189 39.7276 14.0368C39.7658 13.8793 40.1144 13.6845 40.2646 13.7368C40.3118 13.7532 44.2078 13.7667 48.9222 13.7667ZM27.9851 13.8811C31.608 14.1469 34.5335 16.4269 34.5335 18.9848C34.5335 19.1489 34.5916 19.4863 34.6625 19.7344C34.8236 20.2977 34.8236 20.4614 34.6625 21.0247C34.5916 21.2729 34.5335 21.594 34.5335 21.7382C34.5335 22.3544 34.0255 23.5099 33.4592 24.1821C33.116 24.5894 32.8188 24.8287 31.7593 25.5507C30.9454 26.1054 30.9098 26.3242 31.598 26.5415C32.1249 26.7078 32.7083 27.0767 33.6476 27.8371C34.1109 28.2122 34.6736 29.1505 34.94 29.9924C35.0299 30.2763 35.1781 30.6682 35.2694 30.8634C35.4308 31.2082 35.4355 31.2555 35.436 32.5408L35.4366 33.8634L35.2431 34.2724C35.1367 34.4974 35.0491 34.7441 35.0485 34.8208C35.0363 36.3921 31.9151 39.315 30.2493 39.315C30.1665 39.315 29.9169 39.373 29.6948 39.444C29.4536 39.521 29.1058 39.5742 28.8316 39.5759C28.5789 39.5774 28.2416 39.6048 28.0819 39.6368C27.4384 39.7659 14.8677 39.7207 14.6414 39.5885C14.2525 39.3614 14.2756 40.2108 14.2924 26.6912L14.3078 14.2287L14.4691 14.0551C14.5578 13.9597 14.6884 13.8573 14.7594 13.8277C14.9404 13.7522 26.8844 13.8004 27.9851 13.8811ZM101.327 13.897C101.647 14.1493 101.693 15.07 101.516 17.718C101.44 18.8653 101.731 18.7599 98.5258 18.7989L95.8767 18.8312L95.7211 19.0122L95.5655 19.1933V29.1477C95.5655 39.8444 95.5793 39.426 95.2183 39.5973C94.8892 39.7535 89.7823 39.7625 89.5454 39.6073C89.2358 39.4045 89.2429 39.6495 89.2429 29.1477V19.1933L89.0873 19.0122L88.9317 18.8312L86.25 18.7989L83.5683 18.7667L83.3895 18.5878L83.2107 18.4089V16.2881C83.2107 13.9742 83.2087 13.987 83.5978 13.8277C83.9303 13.6916 101.151 13.759 101.327 13.897ZM109.851 13.8296C110.301 14.0004 110.274 13.5486 110.276 21.0892C110.276 27.8238 110.288 28.3473 110.432 28.3473C110.614 28.3473 111.2 27.59 111.733 26.6652C111.905 26.3662 112.213 25.8892 112.416 25.6054C112.619 25.3215 112.962 24.7554 113.177 24.3473C113.392 23.9392 113.723 23.4229 113.912 23.2C114.101 22.977 114.365 22.5721 114.498 22.3001C114.63 22.0282 114.986 21.4412 115.288 20.9958C115.591 20.5505 115.938 19.9881 116.06 19.7462C116.181 19.5043 116.398 19.1559 116.542 18.972C116.814 18.6229 117.353 17.7735 117.757 17.057C117.888 16.8264 118.087 16.4935 118.2 16.3173C118.479 15.8824 118.532 15.6527 118.533 14.8764C118.533 14.1868 118.615 13.8878 118.826 13.8068C119.022 13.7318 124.386 13.7613 124.555 13.8383C124.866 13.9801 124.856 13.5295 124.856 26.6955C124.856 39.6412 124.86 39.4552 124.58 39.6373C124.405 39.7516 119.3 39.7442 118.936 39.6291C118.547 39.5064 118.568 39.8829 118.533 32.2689C118.498 24.5825 118.514 24.8797 118.148 25.1274C117.948 25.2628 117.282 26.2373 116.953 26.876C116.794 27.1846 116.576 27.5375 116.468 27.6602C116.263 27.8944 115.604 28.944 115.146 29.7666C114.998 30.0327 114.655 30.5698 114.385 30.9602C114.115 31.3505 113.578 32.1924 113.191 32.8311C111.854 35.0407 111.616 35.411 111.228 35.8942C110.52 36.7755 110.314 37.3096 110.27 38.3795C110.212 39.8197 110.495 39.7021 107.085 39.7021C104.134 39.7021 104.214 39.7128 104.114 39.3004C104.094 39.2197 104.086 33.4971 104.096 26.5835L104.114 14.0133L104.266 13.8901C104.439 13.7502 109.499 13.6955 109.851 13.8296ZM165.049 13.8286C165.315 13.8631 165.91 13.9251 166.372 13.9665C166.833 14.0079 167.333 14.0822 167.482 14.1317C167.632 14.1813 167.922 14.2517 168.127 14.2882C169.485 14.5299 171.574 15.8624 172.29 16.9442C172.912 17.8832 173.069 18.1838 173.277 18.8345C173.402 19.2218 173.501 19.6652 173.501 19.8338C173.501 20.0005 173.559 20.3187 173.63 20.5409C173.715 20.8078 173.759 21.1224 173.759 21.4688C173.759 21.7994 173.711 22.1594 173.63 22.4441C173.559 22.6922 173.501 23.0133 173.501 23.1576C173.501 23.3987 173.298 24.0813 173.014 24.7989C172.562 25.941 171.423 27.226 170.243 27.9255C169.177 28.5572 169.172 28.6524 170.108 30.5354C170.259 30.84 170.451 31.2634 170.534 31.4763C170.863 32.3232 171.263 33.2202 171.411 33.4433C171.564 33.6744 172.067 34.8132 172.379 35.636C172.467 35.8658 172.636 36.2296 172.757 36.4446C172.957 36.8025 173.565 38.2723 173.565 38.398C173.565 38.4275 173.667 38.6203 173.791 38.8266C174.367 39.7836 174.334 39.7945 170.809 39.8175C167.352 39.8401 167.498 39.8684 167.154 39.1078C166.825 38.3802 166.484 37.5063 166.403 37.1859C166.362 37.0263 166.218 36.6914 166.082 36.4419C165.847 36.0092 165.634 35.4999 165.18 34.2827C165.067 33.9811 164.821 33.386 164.633 32.9602C164.445 32.5343 164.159 31.8231 163.997 31.3795C163.593 30.2676 163.536 30.1444 163.34 29.9602L163.168 29.7989L161.3 29.78L159.432 29.761L159.24 29.9524L159.049 30.1438V34.6929C159.049 39.4649 159.048 39.4863 158.748 39.6826C158.475 39.8615 153.453 39.8607 153.125 39.6817C152.698 39.449 152.727 40.3646 152.727 26.7666C152.727 13.1332 152.698 14.0504 153.127 13.8639C153.384 13.7522 164.212 13.7201 165.049 13.8286ZM183.257 13.9459L183.404 14.0928L183.438 23.2362C183.476 33.3656 183.437 32.4873 183.891 33.4143C185.48 36.663 191.285 36.0078 191.699 32.5331C191.73 32.2712 191.798 31.9408 191.851 31.7989C191.933 31.5758 191.947 30.3658 191.949 22.8826C191.951 16.6801 191.972 14.1798 192.024 14.0671C192.274 13.519 196.785 13.6224 197.019 14.1817C197.189 14.5897 197.156 31.2707 196.984 31.8207C196.892 32.1131 196.855 32.4113 196.855 32.8669C196.855 33.2431 196.818 33.6172 196.764 33.7805C196.714 33.9325 196.627 34.2399 196.571 34.4635C196.398 35.1529 196.076 35.8347 195.665 36.3767C195.449 36.6621 195.175 37.0472 195.058 37.2325C194.94 37.4177 194.744 37.6315 194.621 37.7075C194.498 37.7835 194.246 37.9753 194.062 38.1337C193.547 38.5753 192.459 39.1599 191.693 39.4057C191.319 39.5255 190.834 39.6994 190.614 39.7919C190.298 39.925 190.108 39.9601 189.708 39.9601C189.408 39.9601 189.006 40.0122 188.722 40.0876C188.03 40.2715 186.435 40.2724 185.774 40.0892C185.483 40.0083 185.11 39.96 184.776 39.9598C183.866 39.9593 181.57 39.1046 180.441 38.3462C179.464 37.6901 178.317 36.2185 177.945 35.1425C177.842 34.8472 177.759 34.5512 177.759 34.4848C177.759 34.4184 177.701 34.1823 177.63 33.9602C177.524 33.6291 177.501 33.3786 177.501 32.5704C177.501 31.7669 177.477 31.5089 177.372 31.1756C177.2 30.6259 177.167 14.5895 177.337 14.1819C177.508 13.7722 177.543 13.7678 180.483 13.7842L183.11 13.799L183.257 13.9459ZM20.7866 18.7294L20.5981 18.918V21.3796V23.8411L20.7866 24.0297L20.9752 24.2183H23.1957C24.9779 24.2183 25.4788 24.1993 25.7329 24.1221C25.9071 24.0693 26.2238 23.9943 26.4368 23.9556C29.26 23.4412 29.4487 19.6526 26.6971 18.728L26.1402 18.5409H23.5577H20.9752L20.7866 18.7294ZM159.238 18.7294L159.049 18.918L159.05 21.6488C159.05 23.1507 159.069 24.4461 159.09 24.5273C159.178 24.8528 159.277 24.8634 162.288 24.8645L165.081 24.8655L165.621 24.5903C168.033 23.3605 168.142 19.4955 165.783 18.8293C165.575 18.7704 165.279 18.6814 165.127 18.6315C164.908 18.5595 164.294 18.5409 162.139 18.5409H159.426L159.238 18.7294ZM20.7866 28.7939L20.5981 28.9825V31.8956V34.8088L20.7866 34.9974L20.9752 35.186L23.4157 35.1849C26.8084 35.1832 27.2942 35.0649 28.3532 33.9818C28.9657 33.3552 29.0819 33.0226 29.0819 31.8956V30.9602L28.8238 30.4836C28.2524 29.4281 27.3775 28.8634 26.3138 28.8634C26.0828 28.8634 25.7296 28.8073 25.5013 28.7344C25.1322 28.6164 24.9197 28.6053 23.0363 28.6053H20.9752L20.7866 28.7939Z" fill="#8D8D8D"/>
</svg>
