<svg width="219" height="50" viewBox="0 0 219 50" fill="none" xmlns="http://www.w3.org/2000/svg">
<path fill-rule="evenodd" clip-rule="evenodd" d="M0.292969 18.9109V37.4761H7.56696C11.5676 37.4761 16.0008 37.2374 17.419 36.9462C20.8476 36.2412 23.8085 34.4932 25.1105 32.4052C26.5963 30.0226 26.9471 25.5867 25.8709 22.7942C25.1003 20.7935 22.653 18.1061 21.139 17.5964C20.6963 17.4474 21.0023 16.9416 22.0824 16.0364C24.3184 14.1635 25.1056 12.3981 25.1056 9.25893C25.1056 6.29622 24.6604 5.13215 22.7547 3.10686C20.704 0.928217 17.6925 0.345703 8.4753 0.345703H0.292969V18.9109ZM107.814 18.9649V37.5837L116.45 37.3869C124.099 37.2128 125.362 37.0672 127.501 36.1095C130.585 34.7285 131.58 33.834 132.685 31.4485C134.75 26.9914 133.338 20.7149 129.795 18.6042C128.811 18.0179 127.923 17.4759 127.822 17.4001C127.722 17.3249 128.332 16.6855 129.178 15.98C131.329 14.1862 132.271 12.1286 132.242 9.29028C132.21 6.24028 131.602 4.64415 129.86 3.0326C127.57 0.915197 124.58 0.345703 115.753 0.345703H107.814V18.9649ZM16.5681 5.85017C18.5512 6.67186 19.2673 7.86052 19.2673 10.3333C19.2673 14.1645 16.679 15.7765 10.5255 15.7765H6.61776V10.4722V5.16784H10.7688C13.2476 5.16784 15.5839 5.4427 16.5681 5.85017ZM123.603 5.85017C125.606 6.68006 126.302 7.86148 126.302 10.4326C126.302 11.9039 125.956 12.7699 124.9 13.9412C123.525 15.4669 123.404 15.5007 118.575 15.6926L113.653 15.8889V10.5281V5.16784H117.804C120.282 5.16784 122.619 5.4427 123.603 5.85017ZM90.6713 12.3991C85.0315 14.082 81.5952 19.7828 82.143 26.5463C82.7128 33.5847 87.7969 37.9583 95.4081 37.9583C98.0494 37.9583 102.711 36.802 103.194 36.0271C103.415 35.6731 102.646 32.0122 102.206 31.3216C102.162 31.2517 101.279 31.5454 100.244 31.9741C97.6213 33.06 92.9458 32.7316 90.9471 31.3212C88.7417 29.7646 87.7123 27.2735 87.9755 24.1289C88.2066 21.3697 89.1645 19.6747 91.4492 17.9841C93.1886 16.6971 97.8018 16.6132 99.6817 17.8341C101.547 19.0455 101.799 18.9148 102.438 16.3967C102.951 14.3767 102.919 14.0545 102.153 13.499C100.134 12.036 93.8921 11.4376 90.6713 12.3991ZM30.4573 24.9386V37.4761H33.3765H36.2956V31.6896C36.2956 23.7297 36.5564 23.7625 43.2947 32.5812L47.0346 37.4761H50.6991H54.3631L53.2388 35.9089C52.6204 35.0472 50.361 32.1949 48.2188 29.5712C46.0762 26.9475 44.1242 24.5359 43.881 24.2119C43.575 23.8044 44.8497 22.0323 48.0164 18.4634C50.5342 15.6256 52.6671 13.1002 52.7561 12.8524C52.8461 12.6021 51.5155 12.401 49.7679 12.401H46.6172L43.0938 16.6204C39.6288 20.7698 37.3796 23.0025 36.6605 23.0073C36.4601 23.0088 36.2956 20.6228 36.2956 17.7054V12.401H33.3765H30.4573V24.9386ZM54.4264 13.0038C57.4832 20.8991 59.3864 25.2612 61.9173 30.174C63.6129 33.4656 65.0004 36.3121 65.0004 36.4996C65.0004 36.6867 63.6873 39.242 62.0828 42.1777C57.9896 49.666 58.0232 49.0493 61.711 49.0493H64.8511L68.8843 40.7311C72.7176 32.8261 75.377 26.9099 79.6233 16.8398L81.5135 12.3576L78.3024 12.4999L75.0919 12.6421L72.3133 19.8753C68.7719 29.0938 68.4903 29.7607 68.1409 29.7607C67.7104 29.7607 63.3964 20.4284 61.8439 16.1382L60.4913 12.401H57.3421C55.0223 12.401 54.2541 12.5597 54.4264 13.0038ZM137.492 24.669C137.492 33.0697 137.661 37.0402 138.027 37.2649C138.696 37.6743 139.234 37.2408 147.79 29.3875L154.764 22.9871L154.898 30.255L155.033 37.5234L157.817 37.3792L160.602 37.235L160.732 24.818C160.856 12.8992 160.825 12.401 159.938 12.401C159.057 12.401 153.564 16.902 146.736 23.2185L143.574 26.1441L143.439 19.2726L143.304 12.401H140.398H137.492V24.669ZM168.958 18.7971C168.543 27.3723 167.978 30.2068 166.415 31.569C165.73 32.1655 164.799 32.6535 164.345 32.6535C163.651 32.6525 163.547 33.0687 163.688 35.3057C163.846 37.8175 163.923 37.9579 165.148 37.9477C167.119 37.9318 170.314 36.3044 171.408 34.7598C172.964 32.5629 173.598 29.9907 174.179 23.5141L174.723 17.4643L179.217 17.3254L183.712 17.187V27.3313V37.4761H186.631H189.55V24.9386V12.401H179.409H169.267L168.958 18.7971ZM198.116 13.1639C197.954 13.5834 197.821 15.5962 197.821 17.6369C197.821 22.5762 196.967 29.0991 196.103 30.755C195.657 31.6081 194.854 32.2113 193.88 32.4235C192.381 32.75 192.359 32.7953 192.585 35.1263C192.712 36.4302 192.941 37.6227 193.096 37.7756C193.709 38.3837 197.456 37.3131 198.885 36.1206C201.131 34.2477 202.156 31.4393 202.739 25.5669C203.023 22.7021 203.358 19.6444 203.483 18.7725L203.71 17.1875L208.185 17.3259L212.66 17.4643L212.791 27.4702L212.923 37.4761H215.589H218.255V24.9386V12.401H208.333C199.735 12.401 198.372 12.5028 198.116 13.1639ZM16.4479 21.1002C18.9905 21.8003 20.2404 23.5609 20.2404 26.4426C20.2404 28.3445 19.9752 29.075 18.8217 30.3558L17.403 31.9307L12.0104 32.0937L6.61776 32.2571V26.4277V20.5987L10.6316 20.6016C12.8394 20.603 15.4564 20.8272 16.4479 21.1002ZM123.483 21.1002C125.931 21.7743 127.275 23.5763 127.275 26.1866C127.275 30.892 125.361 32.1718 118.323 32.1718H113.653V26.3852V20.5987L117.666 20.6016C119.874 20.603 122.491 20.8272 123.483 21.1002Z" fill="#8D8D8D"/>
</svg>
