<svg width="160" height="64" viewBox="0 0 160 64" fill="none" xmlns="http://www.w3.org/2000/svg">
<path fill-rule="evenodd" clip-rule="evenodd" d="M12.4063 1.52611C8.92755 2.58587 5.25828 5.9856 3.51237 9.76587C1.59398 13.9218 1.61079 23.8457 3.5435 27.4172C4.8137 29.7646 7.7221 32.6926 10.2133 34.1323C11.1604 34.6798 10.6529 35.8701 5.63934 44.8531C2.53792 50.4111 0 55.1908 0 55.4753C0 55.7598 1.4707 55.9889 3.26891 55.9845L6.53782 55.9759L11.6043 45.9781C16.6571 36.0074 16.6777 35.9791 18.9205 35.7888L21.1701 35.5973V45.7952V55.9925H23.6607H26.1513V28.2824V0.572266L20.7031 0.61537C17.7069 0.63877 13.9729 1.04888 12.4063 1.52611ZM21.1701 18.122V30.7455L17.9012 30.7431C11.2805 30.7388 7.95746 26.5102 7.99046 18.1337C8.01537 11.9858 10.0552 7.4296 13.387 6.08043C14.0719 5.80332 16.103 5.55886 17.9012 5.53731L21.1701 5.49851V18.122ZM95.1552 19.4878C90.5065 22.624 88.255 28.7713 88.2133 38.4428C88.189 44.0458 88.4244 45.8217 89.5756 48.7202C92.5587 56.2253 99.1539 58.8775 106.888 55.6816C108.716 54.926 109.018 54.5251 108.851 53.0811L108.652 51.3742L104.132 51.5836C99.708 51.7886 99.5667 51.7486 97.5026 49.7073C95.3214 47.5502 94.0294 44.225 94.0238 40.752L94.0201 38.7507H101.89H109.759L109.447 33.3626C109.103 27.4197 107.426 22.6086 104.871 20.2348C102.804 18.3141 97.4995 17.9065 95.1552 19.4878ZM146.551 19.6867C144.09 21.2459 141.872 24.5483 140.365 28.8982C138.762 33.5196 138.708 43.9306 140.264 48.3359C141.704 52.4142 145.119 55.6896 148.992 56.7081C151.633 57.4027 152.377 57.3534 155.53 56.2801C158.795 55.1686 159.087 54.9174 159.087 53.2215V51.3742L154.992 51.5786C151.306 51.7628 150.701 51.6193 148.923 50.1402C146.024 47.7269 144.846 43.1504 145.211 35.7118C145.551 28.7806 147.149 24.4147 149.781 23.2287C151.21 22.5846 151.8 22.6714 153.966 23.8445C155.352 24.5957 156.525 25.1395 156.574 25.0526C156.623 24.9664 157.137 24.1431 157.719 23.2238C159.212 20.8622 159.062 20.3327 156.616 19.3222C153.497 18.0333 148.898 18.1996 146.551 19.6867ZM34.2457 37.5191V55.9925H37.0308H39.8153L39.9884 47.2177L40.1609 38.4428L44.3638 38.2605L48.5667 38.0789V47.0354V55.9925H51.3686H54.1705V37.5191V19.0457H51.3686H48.5667V26.4351V33.8244H44.2081H39.8496V26.4351V19.0457H37.0477H34.2457V37.5191ZM65.7985 27.8027C65.3807 37.1244 64.471 42.3782 62.278 48.1413C61.2787 50.767 60.6199 51.6821 59.7295 51.6821C58.6281 51.6821 58.5291 52.1655 58.5291 57.532V63.3819H61.0197H63.5103V59.6872V55.9925H71.6047H79.6992V59.6872V63.3819H82.1898H84.6804V57.532C84.6804 52.1088 84.5901 51.6821 83.4456 51.6821C82.2495 51.6821 82.2053 51.171 82.0447 35.5178L81.8784 19.3536L74.0355 19.1818L66.1926 19.0106L65.7985 27.8027ZM115.813 37.5191V55.9925H118.599H121.384L121.556 46.6019L121.728 37.2112L126.355 46.6019L130.982 55.9925H134.344H137.705L132.429 45.895L127.153 35.7974L130.561 29.7307C132.435 26.3938 134.512 22.6252 135.177 21.3549L136.386 19.0457H133.223H130.06L125.894 27.5127L121.728 35.9797L121.555 27.5127L121.382 19.0457H118.597H115.813V37.5191ZM101.443 24.0618C102.602 25.2928 103.25 27.8206 103.548 32.285L103.671 34.1323L98.8805 34.3115L94.0898 34.4907L94.4298 32.1563C95.0624 27.8058 95.9497 25.1425 97.1663 23.9393C98.7323 22.3906 99.8998 22.4239 101.443 24.0618ZM76.4421 37.6731L76.2746 51.3742L70.8501 51.5515L65.4255 51.7295L66.9292 48.4726C68.8383 44.3383 70.2019 39.1522 70.6651 34.2653C70.865 32.16 71.1782 28.9832 71.3613 27.2048L71.6944 23.9719H74.152H76.6096L76.4421 37.6731Z" fill="#8D8D8D"/>
</svg>
