<svg width="13" height="22" viewBox="0 0 13 22" fill="none" xmlns="http://www.w3.org/2000/svg">
<path d="M1.08606 21.6484L0.360413 20.9277C0.133793 20.7009 0.0089462 20.3992 0.00894616 20.0767C0.00894611 19.7544 0.133793 19.4523 0.360412 19.2255L8.58132 11.0049L0.351288 2.77488C0.124668 2.54844 3.12401e-07 2.24634 2.67577e-07 1.92403C2.22753e-07 1.60172 0.124668 1.29944 0.351288 1.07282L1.07246 0.352003C1.54144 -0.117335 2.30537 -0.117335 2.77435 0.352003L12.6084 10.1508C12.8349 10.3773 12.9944 10.679 12.9944 11.0042L12.9944 11.008C12.9944 11.3304 12.8347 11.6322 12.6084 11.8586L2.801 21.6484C2.57456 21.8752 2.2637 21.9996 1.94138 22C1.61889 22 1.31232 21.8752 1.08606 21.6484Z" fill="black"/>
</svg>
