<svg width="13" height="16" viewBox="0 0 13 16" fill="none" xmlns="http://www.w3.org/2000/svg">
<path d="M0.405825 1.67018C0.974457 0.635447 2.15352 -0.0329785 3.34912 0.00125586C5.52612 0.006391 7.70399 -0.00473518 9.88099 0.00724683C11.5303 0.0389136 13.0254 1.48189 12.9976 3.12086C12.9993 7.14425 13.0028 11.1676 12.9958 15.1902C13.0202 15.666 12.543 16.0794 12.0667 15.987C11.7637 15.9159 11.5425 15.6849 11.3117 15.4966C9.97155 14.3583 8.6192 13.2345 7.27991 12.0954C7.02999 11.878 6.78268 11.6555 6.50055 11.4783C6.29417 11.6289 6.09649 11.7907 5.90405 11.9584C4.45678 13.1917 2.98949 14.4011 1.54396 15.6361C1.37764 15.7704 1.20522 15.9125 0.994486 15.9733C0.576502 16.0811 0.101046 15.7824 0.0322528 15.3605C-0.0252199 14.9343 0.0130949 14.5029 0.00612854 14.0741C0.00699934 10.4804 0.00787062 6.88578 0.00525822 3.29117C0.00351663 2.73059 0.114108 2.15802 0.405825 1.67018Z" fill="black"/>
</svg>
