<svg width="16" height="16" viewBox="0 0 16 16" fill="none" xmlns="http://www.w3.org/2000/svg">
<path d="M14.16 2.46918C13.7884 2.09756 13.3472 1.80282 12.8617 1.6018C12.3761 1.40078 11.8557 1.29741 11.3301 1.29761C10.8046 1.29781 10.2842 1.40156 9.79881 1.60295C9.31338 1.80434 8.8724 2.09941 8.50107 2.4713L8.01635 2.96193L7.53566 2.47236L7.53254 2.46924C7.1611 2.0978 6.72015 1.80316 6.23484 1.60214C5.74954 1.40112 5.22939 1.29766 4.7041 1.29766C4.17881 1.29766 3.65867 1.40112 3.17336 1.60214C2.68806 1.80316 2.2471 2.0978 1.87566 2.46924L1.65973 2.68518C0.909585 3.43532 0.488159 4.45273 0.488159 5.5136C0.488159 6.57446 0.909585 7.59187 1.65973 8.34202L7.35888 14.0411L8.00248 14.7154L8.01782 14.7001L8.03448 14.7167L8.63748 14.0805L14.376 8.34193C15.125 7.59119 15.5456 6.57399 15.5456 5.5135C15.5456 4.45301 15.125 3.43582 14.376 2.68508L14.16 2.46918ZM13.6687 7.63483L8.01782 13.2859L2.36679 7.63483C1.80419 7.07222 1.48812 6.30917 1.48812 5.51352C1.48812 4.71787 1.80419 3.95482 2.36679 3.39221L2.58276 3.17627C3.14509 2.61394 3.90769 2.2979 4.70294 2.2976C5.4982 2.2973 6.26103 2.61277 6.82379 3.17468L8.01419 4.38677L9.21026 3.17627C9.48883 2.89769 9.81955 2.67671 10.1835 2.52595C10.5475 2.37518 10.9376 2.29758 11.3316 2.29758C11.7256 2.29758 12.1157 2.37518 12.4796 2.52595C12.8436 2.67671 13.1743 2.89769 13.4529 3.17627L13.6689 3.39218C14.2306 3.95525 14.5461 4.71816 14.5461 5.51353C14.546 6.3089 14.2305 7.07179 13.6687 7.63483V7.63483Z" fill="black"/>
</svg>
