<svg width="63" height="62" viewBox="0 0 63 62" fill="none" xmlns="http://www.w3.org/2000/svg">
<path d="M59.186 39.0877L59.1863 39.0865C60.0649 35.4938 60.5 31.4798 60.5 27.1646V8.49148C60.5 5.91182 58.4071 3.82018 55.8281 3.82018H37.3521C34.7731 3.82018 32.6803 5.91042 32.6803 8.49148V27.1644C32.6803 29.7433 34.772 31.8362 37.3521 31.8362H41.6104C41.3302 34.6338 40.7878 36.6282 40.0923 37.9382C39.2859 39.4574 38.4021 39.8875 37.3521 39.8875C34.7728 39.8875 32.6803 41.9781 32.6803 44.5593V53.4025C32.6803 55.9819 34.7716 58.0732 37.3493 58.0752H37.3512C41.0775 58.0752 44.5244 57.2798 47.5416 55.6432L47.5427 55.6426C50.4949 54.0392 52.9915 51.7468 54.9634 48.8721L54.9639 48.8713C56.8737 46.0849 58.281 42.781 59.186 39.0877ZM17.3604 55.6412L16.1679 53.444L17.3604 55.6412C20.3138 54.0383 22.8104 51.7476 24.7827 48.8703C26.694 46.0834 28.1012 42.7789 29.0062 39.0839L29.0064 39.0833C29.8855 35.4901 30.3197 31.4758 30.3197 27.1627V8.48966C30.3197 5.90814 28.2258 3.81836 25.6479 3.81836H7.1713C4.59126 3.81836 2.5 5.91076 2.5 8.48966V27.1627C2.5 29.7423 4.59114 31.8345 7.1713 31.8345H11.3348C11.0582 34.6372 10.5225 36.6366 9.83506 37.9504C9.03637 39.4766 8.17275 39.8867 7.1713 39.8867C4.59171 39.8867 2.5 41.9785 2.5 44.5576V53.4027C2.5 55.9828 4.59217 58.0735 7.1713 58.0735C10.8958 58.0735 14.3445 57.2781 17.3604 55.6412Z" fill="url(#paint0_linear)" stroke="white" stroke-width="5" stroke-linecap="round" stroke-linejoin="round"/>
<defs>
<linearGradient id="paint0_linear" x1="31.5" y1="6.31836" x2="31.5" y2="55.5752" gradientUnits="userSpaceOnUse">
<stop stop-color="#24E0D6"/>
<stop offset="1" stop-color="#00AEF1"/>
</linearGradient>
</defs>
</svg>
