<svg viewBox="0 0 62 58" fill="none" xmlns="http://www.w3.org/2000/svg">
<path d="M58.4473 37.1437C59.3147 33.5964 59.7469 29.6223 59.7469 25.3396V6.66653C59.7469 4.36313 57.878 2.49523 55.575 2.49523H37.099C34.796 2.49523 32.9273 4.36179 32.9273 6.66653V25.3395C32.9273 27.6423 34.7952 29.5112 37.099 29.5112H41.9057C41.6405 32.6318 41.0637 34.8731 40.2809 36.3477C39.4043 37.9991 38.3669 38.5625 37.099 38.5625C34.7957 38.5625 32.9273 40.4294 32.9273 42.7343V51.5776C32.9273 53.8809 34.7949 55.7485 37.0966 55.7502H37.0981C40.7526 55.7502 44.1155 54.9705 47.0501 53.3787L47.051 53.3782C49.9297 51.8148 52.3681 49.5778 54.298 46.7643C56.1685 44.0353 57.5542 40.7883 58.4473 37.1437ZM16.8688 53.3768C19.7488 51.8137 22.1874 49.5782 24.1176 46.762C25.9893 44.0327 27.3745 40.7861 28.2675 37.14C29.1354 33.5924 29.5666 29.6183 29.5666 25.3378V6.66471C29.5666 4.3596 27.6969 2.49341 25.3949 2.49341H6.91823C4.6144 2.49341 2.74693 4.36188 2.74693 6.66471V25.3378C2.74693 27.6413 4.61431 29.5095 6.91823 29.5095H11.6294C11.3676 32.6341 10.7983 34.8796 10.025 36.3572C9.15788 38.0142 8.14131 38.5618 6.91823 38.5618C4.61476 38.5618 2.74693 40.4297 2.74693 42.7326V51.5777C2.74693 53.8816 4.61513 55.7486 6.91823 55.7486C10.5709 55.7486 13.9356 54.9688 16.8688 53.3768Z" fill="url(#paint0_linear)" stroke="white" stroke-width="4" stroke-linecap="round" stroke-linejoin="round"/>
<defs>
<linearGradient id="paint0_linear" x1="31.2469" y1="4.4917" x2="31.2469" y2="53.7485" gradientUnits="userSpaceOnUse">
<stop stop-color="#24E0D6"/>
<stop offset="1" stop-color="#00AEF1"/>
</linearGradient>
</defs>
</svg>
