<svg width="23" height="20" viewBox="0 0 23 20" fill="none" xmlns="http://www.w3.org/2000/svg">
<path d="M10.4362 0.295254L4.43929 3.94557H0.667268C0.298758 3.94557 0 4.24433 0 4.61284V14.5774C0 14.9459 0.298758 15.2446 0.667268 15.2446H4.43929L10.4362 18.895C11.7705 19.7072 13.4788 18.7477 13.4788 17.185V2.0052C13.4788 0.443076 11.7709 -0.517212 10.4362 0.295254ZM1.33454 5.2801H3.95912V13.9101H1.33454V5.2801ZM12.1443 17.185C12.1443 17.7054 11.5755 18.0261 11.13 17.755L5.29366 14.2024V4.98784L11.13 1.43526C11.5747 1.16462 12.1443 1.48379 12.1443 2.00524V17.185Z" fill="black"/>
<path d="M19.9681 10.0229L22.1789 7.81211C22.3888 7.60223 22.3888 7.26187 22.1789 7.05195C21.969 6.84206 21.6287 6.84206 21.4187 7.05195L19.208 9.26271L16.9972 7.05195C16.7873 6.84206 16.447 6.84206 16.237 7.05195C16.0271 7.26183 16.0271 7.60219 16.237 7.81211L18.4478 10.0229L16.237 12.2336C16.0271 12.4435 16.0271 12.7839 16.237 12.9938C16.342 13.0988 16.4796 13.1512 16.6171 13.1512C16.7546 13.1512 16.8922 13.0987 16.9972 12.9938L19.2079 10.783L21.4187 12.9938C21.5237 13.0988 21.6612 13.1512 21.7988 13.1512C21.9363 13.1512 22.0739 13.0987 22.1788 12.9938C22.3887 12.7839 22.3887 12.4436 22.1788 12.2336L19.9681 10.0229Z" fill="black"/>
</svg>
