<svg width="23" height="20" viewBox="0 0 23 20" fill="none" xmlns="http://www.w3.org/2000/svg">
<path d="M15.3771 7.86512C15.1165 8.12571 15.1165 8.54818 15.3771 8.80877C15.8117 9.24343 15.8117 9.94686 15.3771 10.3815C15.1165 10.6421 15.1165 11.0646 15.3771 11.3252C15.6376 11.5858 16.0601 11.5858 16.3207 11.3252C17.2747 10.3712 17.2747 8.81905 16.3207 7.86512C16.0601 7.60453 15.6376 7.60453 15.3771 7.86512Z" fill="black"/>
<path d="M18.3339 5.85194C18.0734 5.59135 17.6509 5.59135 17.3903 5.85194C17.1297 6.11253 17.1297 6.535 17.3903 6.79559C18.9339 8.33925 18.9339 10.851 17.3903 12.3946C17.1297 12.6552 17.1297 13.0777 17.3903 13.3383C17.6508 13.5989 18.0733 13.5989 18.3339 13.3383C20.3979 11.2743 20.3979 7.91593 18.3339 5.85194Z" fill="black"/>
<path d="M20.3473 3.83875C20.0868 3.57816 19.6643 3.57816 19.4037 3.83875C19.1431 4.09934 19.1431 4.52181 19.4037 4.7824C22.1024 7.4811 22.1024 11.709 19.4037 14.4077C19.1431 14.6683 19.1431 15.0908 19.4037 15.3514C19.6642 15.612 20.0868 15.612 20.3473 15.3514C23.5847 12.1141 23.5881 7.0795 20.3473 3.83875Z" fill="black"/>
<path d="M10.4362 0.295254L4.43929 3.94557H0.667268C0.298758 3.94557 0 4.24433 0 4.61284V14.5774C0 14.9459 0.298758 15.2446 0.667268 15.2446H4.43929L10.4362 18.895C11.7705 19.7072 13.4788 18.7477 13.4788 17.185V2.0052C13.4788 0.443076 11.7709 -0.517212 10.4362 0.295254ZM1.33454 5.2801H3.95912V13.9101H1.33454V5.2801ZM12.1443 17.185C12.1443 17.7054 11.5755 18.0261 11.13 17.755L5.29366 14.2024V4.98784L11.13 1.43526C11.5747 1.16462 12.1443 1.48379 12.1443 2.00524V17.185Z" fill="black"/>
</svg>
