<svg width="24" height="24" viewBox="0 0 24 24" fill="none" xmlns="http://www.w3.org/2000/svg">
<path d="M24 11.9409C24 18.5356 18.6538 23.8818 12.0591 23.8818C5.46504 23.8818 0.118164 18.5356 0.118164 11.9409C0.118164 5.34688 5.46504 0 12.0591 0C18.6538 0 24 5.34688 24 11.9409Z" fill="#FFCC4D"/>
<path d="M4.76184 14.1055C4.76184 16.7351 7.81076 20.0759 12.0591 20.0759C16.3074 20.0759 19.3563 16.759 19.3563 14.1055C19.3563 14.1055 12.5015 15.9338 4.76184 14.1055Z" fill="#664500"/>
<path d="M8.0788 15.2598V19.8776C8.0788 21.8677 9.40557 23.8579 12.0591 23.8579C14.7126 23.8579 16.0394 21.8677 16.0394 19.8776V15.287C11.8661 16.1441 8.0788 15.2598 8.0788 15.2598Z" fill="#5D9040"/>
<path d="M8.26713 8.17951C7.76562 7.9858 7.2913 7.80271 7.2913 7.53735C7.2913 7.10018 7.87773 7.07763 7.99515 7.07763C8.40976 7.07763 8.61607 7.23286 8.79784 7.37018C8.93715 7.47566 9.08177 7.58445 9.28278 7.58445C9.65692 7.58445 9.82741 7.32109 9.82741 7.0763C9.82741 6.58805 9.22904 6.24309 8.59485 6.09847V5.83776C8.59485 5.49413 8.31556 5.21484 7.97193 5.21484C7.6283 5.21484 7.34901 5.49413 7.34901 5.83776V6.12036C6.5901 6.34127 6.12507 6.89918 6.12507 7.60303C6.12507 8.47272 6.98282 8.82963 7.73974 9.14407C8.28173 9.36962 8.79386 9.58257 8.79386 9.91492C8.79386 10.1577 8.4887 10.4204 7.99581 10.4204C7.49827 10.4204 7.21302 10.2214 6.96093 10.0463C6.78712 9.92487 6.6226 9.81011 6.42624 9.81011C6.14099 9.81011 5.91809 10.0503 5.91809 10.3567C5.91809 10.8072 6.5357 11.2563 7.34901 11.4142V11.726C7.34901 12.0696 7.6283 12.3482 7.97193 12.3482C8.31556 12.3482 8.59485 12.0689 8.59485 11.726L8.59153 11.3956C9.45128 11.1866 9.95943 10.5849 9.95943 9.76433C9.96009 8.83294 9.0214 8.47073 8.26713 8.17951ZM17.8265 9.77561C17.8265 8.84422 16.8878 8.48201 16.1335 8.19079C15.632 7.99708 15.1584 7.81398 15.1584 7.54863C15.1584 7.11146 15.7448 7.0889 15.8622 7.0889C16.2768 7.0889 16.4825 7.24414 16.6649 7.38146C16.8049 7.48694 16.9488 7.59573 17.1492 7.59573C17.524 7.59573 17.6945 7.33237 17.6945 7.08758C17.6945 6.59866 17.0961 6.25437 16.4619 6.10975V5.8497C16.4619 5.50607 16.182 5.22678 15.839 5.22678C15.4954 5.22678 15.2154 5.50607 15.2154 5.8497V6.1323C14.4572 6.35321 13.9915 6.91112 13.9915 7.61497C13.9915 8.48467 14.8492 8.84157 15.6062 9.15601C16.1481 9.38156 16.6603 9.59451 16.6603 9.92686C16.6603 10.1697 16.3558 10.4324 15.8629 10.4324C15.3653 10.4324 15.0801 10.2333 14.8287 10.0582C14.6542 9.93681 14.4897 9.82205 14.294 9.82205C14.0081 9.82205 13.7852 10.0622 13.7852 10.3687C13.7852 10.8191 14.4028 11.2682 15.2154 11.4261V11.7379C15.2154 12.0809 15.496 12.3602 15.8397 12.3602C16.1833 12.3602 16.4619 12.0809 16.4619 11.7379L16.4599 11.4075C17.319 11.1972 17.8265 10.5962 17.8265 9.77561Z" fill="#664500"/>
<path d="M14.0294 20.6107C14.0294 19.7032 13.1146 19.3497 12.3795 19.0657C11.8906 18.8773 11.4282 18.6982 11.4282 18.4402C11.4282 18.0136 11.9994 17.9924 12.1142 17.9924C12.5182 17.9924 12.7192 18.1443 12.897 18.2776C13.033 18.3805 13.1743 18.4866 13.37 18.4866C13.7348 18.4866 13.9013 18.2292 13.9013 17.991C13.9013 17.5154 13.3182 17.1791 12.6993 17.0378V16.7837C12.6993 16.4487 12.4266 16.176 12.0916 16.176C11.7566 16.176 11.484 16.4487 11.484 16.7837V17.059C10.7443 17.2739 10.2905 17.8186 10.2905 18.5045C10.2905 19.3523 11.1271 19.7006 11.8647 20.0071C12.3935 20.2266 12.8923 20.4343 12.8923 20.758C12.8923 20.9948 12.5951 21.2509 12.1142 21.2509C11.6292 21.2509 11.3513 21.0572 11.1058 20.8854C10.9367 20.7673 10.7761 20.6552 10.5851 20.6552C10.3071 20.6552 10.0889 20.89 10.0889 21.1886C10.0889 21.6284 10.6906 22.0656 11.4833 22.2195V22.5239C11.4833 22.8583 11.756 23.1303 12.0916 23.1303C12.4266 23.1303 12.6986 22.8583 12.6986 22.5239L12.6966 22.2015C13.5345 21.9966 14.0294 21.4101 14.0294 20.6107Z" fill="white"/>
</svg>
