<svg width="18" height="18" viewBox="0 0 18 18" fill="none" xmlns="http://www.w3.org/2000/svg">
<path d="M18 9C18 13.9705 13.9705 18 9 18C4.0295 18 0 13.9705 0 9C0 4.0295 4.0295 0 9 0C13.9705 0 18 4.0295 18 9Z" fill="#FFCC4D"/>
<path d="M9 10.5C7.1885 10.5 5.9865 10.289 4.5 9.99998C4.1605 9.93448 3.5 9.99998 3.5 11C3.5 13 5.7975 15.5 9 15.5C12.202 15.5 14.5 13 14.5 11C14.5 9.99998 13.8395 9.93398 13.5 9.99998C12.0135 10.289 10.8115 10.5 9 10.5Z" fill="#664500"/>
<path d="M4.5 11C4.5 11 6 11.5 9 11.5C12 11.5 13.5 11 13.5 11C13.5 11 12.5 13 9 13C5.5 13 4.5 11 4.5 11Z" fill="white"/>
<path d="M7.84098 2.20661L5.56998 2.60711L4.39998 0.48061C4.33674 0.366738 4.23957 0.275426 4.12198 0.219395C4.0044 0.163365 3.87227 0.145407 3.744 0.168024C3.61572 0.19064 3.4977 0.252705 3.40637 0.345571C3.31504 0.438437 3.25495 0.557479 3.23448 0.68611L2.86198 3.08461L0.590978 3.48511C0.460345 3.50809 0.340411 3.57204 0.248528 3.6677C0.156646 3.76336 0.0975788 3.88578 0.0798736 4.01723C0.0621684 4.14868 0.0867428 4.28236 0.150042 4.39892C0.21334 4.51548 0.312081 4.60888 0.431978 4.66561L2.46698 5.63161L2.09298 8.03761C2.07939 8.12669 2.08517 8.21765 2.10993 8.30429C2.1347 8.39093 2.17786 8.4712 2.23647 8.53964C2.29509 8.60808 2.36777 8.66307 2.44958 8.70086C2.53138 8.73865 2.62037 8.75835 2.71048 8.75861C2.87398 8.75861 3.03548 8.69461 3.15598 8.57261L4.91198 6.79211L7.17098 7.86461C7.29034 7.92116 7.42456 7.93844 7.55436 7.91396C7.68415 7.88949 7.80286 7.82452 7.89344 7.72839C7.98402 7.63226 8.04181 7.5099 8.05853 7.37888C8.07524 7.24786 8.05002 7.11491 7.98648 6.99911L6.81248 4.86511L8.39498 3.26111C8.48748 3.16649 8.54761 3.04499 8.56676 2.91406C8.5859 2.78313 8.56306 2.6495 8.50151 2.53236C8.43997 2.41522 8.3429 2.3206 8.22422 2.26207C8.10555 2.20354 7.97138 2.18413 7.84098 2.20661ZM10.159 2.20661L12.43 2.60711L13.6 0.48061C13.6631 0.36666 13.7602 0.275259 13.8778 0.219166C13.9954 0.163072 14.1275 0.145085 14.2558 0.167714C14.3841 0.190342 14.5021 0.252458 14.5934 0.345392C14.6847 0.438326 14.7447 0.55744 14.765 0.68611L15.1375 3.08461L17.4085 3.48511C17.6765 3.53211 17.883 3.74711 17.919 4.01661C17.955 4.28611 17.8135 4.54811 17.5675 4.66511L15.5325 5.63111L15.9065 8.03711C15.9201 8.12619 15.9143 8.21715 15.8895 8.30379C15.8648 8.39043 15.8216 8.4707 15.763 8.53914C15.7044 8.60758 15.6317 8.66257 15.5499 8.70036C15.4681 8.73815 15.3791 8.75785 15.289 8.75811C15.1255 8.75811 14.964 8.69411 14.8435 8.57211L13.0875 6.79161L10.8285 7.86411C10.7091 7.92066 10.5749 7.93794 10.4451 7.91346C10.3153 7.88899 10.1966 7.82403 10.106 7.72789C10.0154 7.63176 9.95764 7.5094 9.94093 7.37838C9.92421 7.24735 9.94943 7.11441 10.013 6.99861L11.187 4.86511L9.60448 3.26111C9.51149 3.16666 9.45089 3.04513 9.43139 2.91404C9.41189 2.78294 9.43451 2.64903 9.49598 2.53161C9.55818 2.41452 9.65577 2.32006 9.77482 2.2617C9.89388 2.20334 10.0283 2.18406 10.159 2.20661Z" fill="#E95F28"/>
</svg>
